<svg width="600" height="600" viewBox="0 0 600 600" xmlns="http://www.w3.org/2000/svg">
    <path d="M299.997 0c80.178 0 155.43 31.19 212.124 87.879C568.81 144.574 600 219.825 600 299.997c0 80.178-31.19 155.43-87.879 212.124C455.428 568.81 380.175 600 299.997 600c-80.172 0-155.423-31.19-212.118-87.879C31.19 455.428 0 380.175 0 299.997c0-80.172 31.19-155.423 87.879-212.118C144.574 31.19 219.825 0 299.997 0zm0 18.75c-75.094 0-145.783 29.245-198.966 82.398-109.708 109.643-109.708 288.061 0 397.703 53.183 53.152 123.872 82.399 198.966 82.399 75.1 0 145.789-29.247 198.972-82.4 109.708-109.64 109.708-288.06 0-397.702C445.786 47.995 375.097 18.75 299.997 18.75zm159.605 112.52a7.562 7.562 0 0 1 8.09 6.994c3.025 43.785-5.898 75.848-26.316 95.207a71.839 71.839 0 0 1-41.44 18.375 7.56 7.56 0 0 1-1.285 5.143l-29.266 42.12a7.562 7.562 0 0 1-5.822 3.176h-.681a7.566 7.566 0 0 1-5.37-2.193l-1.587-1.588c-31.383 36.223-126.08 161.171-197.39 170.246h-.908a7.561 7.561 0 0 1-7.562-8.545c9.075-71.31 124.719-175.237 161.092-206.468l-1.588-1.588a7.561 7.561 0 0 1 1.059-11.57l42.12-29.265a7.566 7.566 0 0 1 2.723-1.135c4.084-17.695 15.427-50.968 41.894-49.531 33.727 1.89 56.867-26.543 56.867-26.543a7.562 7.562 0 0 1 5.37-2.835zM321.82 264.4c-31.383 27.147-130.356 115.957-154.404 186.587 70.63-24.123 150.547-131.914 177.77-163.22zm34.256-37.13-29.492 20.417 35.24 35.24 20.417-29.19-26.165-26.467zm96.946-71.31a83.635 83.635 0 0 1-56.64 19.736c-15.73-1.058-24.577 28.51-27.45 43.255l18.3 18.3a60.499 60.499 0 0 0 43.633-15.124c14.595-13.611 22.157-35.92 22.157-66.168z" fill="#FFF" fill-rule="evenodd" opacity=".8"/>
</svg>
