<?xml version="1.0" encoding="UTF-8"?>
<svg width="106px" height="106px" viewBox="0 0 106 106" version="1.1" xmlns="http://www.w3.org/2000/svg" xmlns:xlink="http://www.w3.org/1999/xlink">
    <title>4. Elements_Microillustrations/Alert</title>
    <g id="4.-Elements_Microillustrations/Alert" stroke="none" stroke-width="1" fill="none" fill-rule="evenodd">
        <g id="Content" transform="translate(11.371163, 17.035794)">
            <path d="M46.8302746,3.01018498 L82.4591114,64.9733794 C84.1108994,67.8460542 83.1211751,71.513856 80.2485004,73.165644 C79.3385695,73.6888542 78.3073036,73.9642062 77.2576736,73.9642062 L6,73.9642062 C2.6862915,73.9642062 0,71.2779147 0,67.9642062 C0,66.9145761 0.27535192,65.8833103 0.798562182,64.9733794 L36.427399,3.01018498 C38.079187,0.137510196 41.7469888,-0.852214094 44.6196635,0.799573907 C45.538932,1.32815325 46.3016953,2.09091656 46.8302746,3.01018498 Z" id="Triangle" fill="#EE4900"></path>
            <path d="M43.3640993,5.99224944 L77.7350669,65.9697897 C78.2842679,66.9281488 77.9525798,68.1502676 76.9942208,68.6994687 C76.6915136,68.8729393 76.3486936,68.9642062 75.9998043,68.9642062 L7.25786926,68.9642062 C6.15329976,68.9642062 5.25786926,68.0687757 5.25786926,66.9642062 C5.25786926,66.6153169 5.34913617,66.2724969 5.52260676,65.9697897 L39.8935743,5.99224944 C40.4427753,5.03389042 41.6648942,4.70220233 42.6232532,5.25140336 C42.9316466,5.4281325 43.1873702,5.68385603 43.3640993,5.99224944 Z" id="Triangle" fill="#FFFFFF"></path>
            <path d="M42.4953078,12.4680742 L71.8777668,63.4649788 C72.1534825,63.9435176 71.9890619,64.5549615 71.5105231,64.8306772 C71.3586878,64.9181589 71.18653,64.9642062 71.0112958,64.9642062 L12.2463778,64.9642062 C11.6940931,64.9642062 11.2463778,64.5164909 11.2463778,63.9642062 C11.2463778,63.788972 11.2924251,63.6168142 11.3799068,63.4649788 L40.7623658,12.4680742 C41.0380814,11.9895355 41.6495254,11.8251149 42.1280642,12.1008305 C42.2806858,12.1887652 42.4073731,12.3154526 42.4953078,12.4680742 Z" id="Triangle" fill="#FFEACF"></path>
            <g id="Group" transform="translate(39.000000, 27.000000)" fill="#000000">
                <rect id="Rectangle" x="0.727206604" y="0" width="4.36353057" height="21.8179438"></rect>
                <path d="M2.90911736,26.1817653 C1.30501509,26.1817653 0,27.4867804 0,29.0908826 C0,30.6949849 1.30501509,32 2.90911736,32 C4.51307415,32 5.81823472,30.6949849 5.81823472,29.0908826 C5.81823472,27.4867804 4.51321962,26.1817653 2.90911736,26.1817653 Z" id="Path"></path>
            </g>
        </g>
    </g>
</svg>