<?xml version="1.0" encoding="UTF-8"?>
<svg width="32px" height="32px" viewBox="0 0 32 32" version="1.1" xmlns="http://www.w3.org/2000/svg" xmlns:xlink="http://www.w3.org/1999/xlink">
    <title>3. Elements_Icons/4. Descriptions/Awards_circle</title>
    <g id="3.-Elements_Icons/4.-Descriptions/Awards_circle" stroke="none" stroke-width="1" fill="none" fill-rule="evenodd">
        <path d="M15.9998316,0 C20.2760101,0 24.2894781,1.66346801 27.3131313,4.68686869 C30.336532,7.71060606 32,11.7239899 32,15.9998316 C32,20.2760101 30.336532,24.2894781 27.3131313,27.3131313 C24.2894781,30.336532 20.2760101,32 15.9998316,32 C11.7239899,32 7.71060606,30.336532 4.68686869,27.3131313 C1.66346801,24.2894781 0,20.2760101 0,15.9998316 C0,11.7239899 1.66346801,7.71060606 4.68686869,4.68686869 C7.71060606,1.66346801 11.7239899,0 15.9998316,0 Z M15.9998218,1 C11.994839,1 8.22477269,2.55975392 5.38831446,5.39453699 C-0.462771486,11.2421674 -0.462771486,20.7578326 5.38831446,26.605374 C8.22477269,29.4401571 11.994839,31 15.9998218,31 C20.005161,31 23.7752273,29.4401571 26.6116855,26.605374 C32.4627715,20.7578326 32.4627715,11.2421674 26.6116855,5.39453699 C23.7752273,2.55975392 20.005161,1 15.9998218,1 Z M20.3932648,9 C20.6197052,9 20.803421,9.18361042 20.803421,9.41015938 C20.803421,9.61128702 20.7997894,9.81145333 20.7932739,10.0104447 L20.7932739,10.0104447 L22.5898438,10.0104447 C22.816391,10.0104447 23,10.1940551 23,10.4206041 C23,12.2584172 22.5197754,13.9923019 21.6476593,15.3029961 C20.7854767,16.5987366 19.637146,17.3419368 18.3967438,17.4142488 C18.115509,17.7202661 17.8181458,17.9698865 17.5084992,18.1601193 L17.5084992,18.1601193 L17.5084992,19.9830855 L18.196579,19.9830855 C19.0284271,19.9830855 19.7050781,20.6598485 19.7050781,21.4915961 L19.7050781,21.4915961 L19.7050781,22.1796812 L19.7342377,22.1796812 C19.9607849,22.1796812 20.1443939,22.3633985 20.1443939,22.5898406 C20.1443939,22.8163896 19.9607849,23 19.7342377,23 L19.7342377,23 L12.2657623,23 C12.0392151,23 11.8556061,22.8163896 11.8556061,22.5898406 C11.8556061,22.3633985 12.0392151,22.1796812 12.2657623,22.1796812 L12.2657623,22.1796812 L12.2949219,22.1796812 L12.2949219,21.4915961 C12.2949219,20.6598485 12.9715729,19.9830855 13.803421,19.9830855 L13.803421,19.9830855 L14.4915008,19.9830855 L14.4915008,18.1601193 C14.1818542,17.9697797 13.8845978,17.7202661 13.603363,17.4142488 C12.362854,17.3419368 11.2145233,16.5987366 10.3524475,15.3029961 C9.48033141,13.9923019 9,12.2584172 9,10.4206041 C9,10.1940551 9.18360902,10.0104447 9.41015625,10.0104447 L9.41015625,10.0104447 L11.2067261,10.0104447 C11.2002106,9.81145333 11.196579,9.61128702 11.196579,9.41015938 C11.196579,9.18361042 11.3802948,9 11.6067352,9 L11.6067352,9 Z M18.1929502,20.8 L13.8070498,20.8 C13.4281753,20.8 13.12,21.1051187 13.12,21.48 L13.12,21.48 L13.12,22.16 L18.88,22.16 L18.88,21.48 C18.88,21.1051187 18.5718247,20.8 18.1929502,20.8 L18.1929502,20.8 Z M16.68,18.52 C16.4572032,18.579933 16.2301847,18.6110852 16,18.6110852 C15.7698153,18.6110852 15.5427968,18.579933 15.32,18.52 L15.32,18.52 L15.32,20 L16.68,20 Z M20,9.84 L12.04,9.84 C12.0895817,11.9681881 12.5251313,13.9487693 13.2792219,15.455044 C13.5303361,15.9566732 13.8052795,16.3829512 14.0975337,16.7295022 C14.1168749,16.7480731 14.1342925,16.7684585 14.1497868,16.7905515 C14.4441782,17.1277103 14.755453,17.3842882 15.0771997,17.5542018 C15.0958997,17.561993 15.1137448,17.5711717 15.1309488,17.5815245 C15.4208522,17.725396 15.7187698,17.8 16.02,17.8 C16.3213371,17.8 16.6193615,17.725396 16.9093717,17.5813111 C16.926362,17.5711717 16.9441003,17.561993 16.9625866,17.5544152 C17.2843333,17.384395 17.595715,17.1279237 17.8901063,16.7906582 C17.9054937,16.7685652 17.9231251,16.7480731 17.9425732,16.7295022 C18.2347205,16.3829512 18.5096639,15.9566732 18.7607781,15.455044 C19.5147618,13.948876 19.9503114,11.9681881 20,9.84 L20,9.84 Z M11.2635014,10.84 L9.84,10.84 C9.90440362,12.3639397 10.3270323,13.7789578 11.0463662,14.8607979 C11.5665081,15.6432373 12.1978344,16.1821798 12.88,16.44 C12.7613393,16.2452453 12.6469508,16.0384119 12.5375821,15.8194999 C11.8508239,14.4449933 11.4114268,12.7133651 11.2635014,10.84 L11.2635014,10.84 Z M22.16,10.84 L20.7364986,10.84 C20.5884664,12.7133651 20.1491761,14.4449933 19.4624179,15.8194999 C19.3530492,16.0384119 19.2386607,16.2452453 19.12,16.44 C19.8021656,16.1821798 20.4334919,15.6432373 20.9536338,14.8607979 C21.6729677,13.7789578 22.0955964,12.3639397 22.16,10.84 L22.16,10.84 Z" id="Combined-Shape" fill="#000000"></path>
    </g>
</svg>