<?xml version="1.0" encoding="UTF-8"?>
<svg width="106px" height="106px" viewBox="0 0 106 106" version="1.1" xmlns="http://www.w3.org/2000/svg" xmlns:xlink="http://www.w3.org/1999/xlink">
    <title>Awards circle</title>
    <g id="Page-1" stroke="none" stroke-width="1" fill="none" fill-rule="evenodd">
        <g id="Awards-circle" fill="#000000" fill-rule="nonzero">
            <path d="M52.9994422,0 C67.1642835,0 80.4588962,5.51023778 90.4747474,15.5252525 C100.489762,25.5413826 106,38.8357165 106,52.9994422 C106,67.1642835 100.489762,80.4588962 90.4747474,90.4747474 C80.4588962,100.489762 67.1642835,106 52.9994422,106 C38.8357165,106 25.5413826,100.489762 15.5252525,90.4747474 C5.51023778,80.4588962 0,67.1642835 0,52.9994422 C0,38.8357165 5.51023778,25.5413826 15.5252525,15.5252525 C25.5413826,5.51023778 38.8357165,0 52.9994422,0 Z M52.9994097,3.3125 C39.7329042,3.3125 27.2445595,8.47918486 17.8487916,17.8694038 C-1.53293055,37.2396795 -1.53293055,68.7603205 17.8487916,88.1303014 C27.2445595,97.5205204 39.7329042,102.6875 52.9994097,102.6875 C66.2670958,102.6875 78.7554404,97.5205204 88.1512082,88.1303014 C107.532931,68.7603205 107.532931,37.2396795 88.1512082,17.8694038 C78.7554404,8.47918486 66.2670958,3.3125 52.9994097,3.3125 Z M67.5526897,29.8125 C68.3027735,29.8125 68.9113321,30.4207095 68.9113321,31.1711529 C68.9113321,31.8373883 68.8993024,32.5004392 68.8777198,33.1595981 L68.8777198,33.1595981 L74.8288576,33.1595981 C75.5792952,33.1595981 76.1875,33.7678075 76.1875,34.5182511 C76.1875,40.606007 74.596756,46.3495 71.7078714,50.6911746 C68.8518916,54.983315 65.0480461,57.4451656 60.9392138,57.6846992 C60.0076236,58.6983815 59.022608,59.525249 57.9969036,60.1553952 L57.9969036,60.1553952 L57.9969036,66.1939707 L60.2761679,66.1939707 C63.0316648,66.1939707 65.2730712,68.4357482 65.2730712,71.1909121 L65.2730712,71.1909121 L65.2730712,73.470194 L65.3696624,73.470194 C66.1201,73.470194 66.7283048,74.0787575 66.7283048,74.828847 C66.7283048,75.5792905 66.1201,76.1875 65.3696624,76.1875 L65.3696624,76.1875 L40.6303376,76.1875 C39.8799,76.1875 39.2716952,75.5792905 39.2716952,74.828847 C39.2716952,74.0787575 39.8799,73.470194 40.6303376,73.470194 L40.6303376,73.470194 L40.7269288,73.470194 L40.7269288,71.1909121 C40.7269288,68.4357482 42.9683352,66.1939707 45.7238321,66.1939707 L45.7238321,66.1939707 L48.0030964,66.1939707 L48.0030964,60.1553952 C46.977392,59.5248953 45.9927302,58.6983815 45.0611399,57.6846992 C40.9519539,57.4451656 37.1481084,54.983315 34.2924823,50.6911746 C31.4035978,46.3495 29.8125,40.606007 29.8125,34.5182511 C29.8125,33.7678075 30.4207049,33.1595981 31.1711426,33.1595981 L31.1711426,33.1595981 L37.1222802,33.1595981 C37.1006976,32.5004392 37.0886679,31.8373883 37.0886679,31.1711529 C37.0886679,30.4207095 37.6972265,29.8125 38.4473103,29.8125 L38.4473103,29.8125 L67.5526897,29.8125 Z M60.2641475,68.9 L45.7358525,68.9 C44.4808307,68.9 43.46,69.9107057 43.46,71.1525 L43.46,71.1525 L43.46,73.405 L62.54,73.405 L62.54,71.1525 C62.54,69.9107057 61.5191693,68.9 60.2641475,68.9 L60.2641475,68.9 Z M55.2525,61.3475 C54.5144856,61.5460281 53.7624868,61.6492197 53,61.6492197 C52.2375132,61.6492197 51.4855144,61.5460281 50.7475,61.3475 L50.7475,61.3475 L50.7475,66.25 L55.2525,66.25 L55.2525,61.3475 Z M66.25,32.595 L39.8825,32.595 C40.0467394,39.6446231 41.4894974,46.2052983 43.9874225,51.1948333 C44.8192383,52.85648 45.7299883,54.2685259 46.6980804,55.416476 C46.7621481,55.4779921 46.8198439,55.5455188 46.8711688,55.6187018 C47.8463403,56.7355404 48.8774381,57.5854547 49.943224,58.1482935 C50.0051678,58.1741018 50.0642796,58.2045063 50.1212679,58.2387999 C51.0815729,58.7153743 52.068425,58.9625 53.06625,58.9625 C54.0644291,58.9625 55.051635,58.7153743 56.0122938,58.238093 C56.0685741,58.2045063 56.1273322,58.1741018 56.1885681,58.1490004 C57.2543541,57.5858084 58.2858059,56.7362473 59.2609771,55.6190553 C59.3119479,55.5458722 59.3703519,55.4779921 59.4347737,55.416476 C60.4025117,54.2685259 61.3132617,52.85648 62.1450775,51.1948333 C64.6426485,46.2056518 66.0854065,39.6446231 66.25,32.595 L66.25,32.595 Z M37.3103484,35.9075 L32.595,35.9075 C32.808337,40.9555503 34.2082945,45.6427977 36.591088,49.226393 C38.3140581,51.8182236 40.4053264,53.6034706 42.665,54.4575 C42.2719364,53.8123751 41.8930245,53.1272394 41.5307407,52.4020934 C39.2558542,47.8490403 37.8003513,42.1130219 37.3103484,35.9075 L37.3103484,35.9075 Z M73.405,35.9075 L68.6896516,35.9075 C68.199295,42.1130219 66.7441458,47.8490403 64.4692593,52.4020934 C64.1069755,53.1272394 63.7280636,53.8123751 63.335,54.4575 C65.5946735,53.6034706 67.6859419,51.8182236 69.408912,49.226393 C71.7917055,45.6427977 73.1916631,40.9555503 73.405,35.9075 L73.405,35.9075 Z" id="Combined-Shape"></path>
        </g>
    </g>
</svg>