<?xml version="1.0" encoding="UTF-8"?>
<svg width="106px" height="106px" viewBox="0 0 106 106" version="1.1" xmlns="http://www.w3.org/2000/svg" xmlns:xlink="http://www.w3.org/1999/xlink">
    <title>4. Elements_Microillustrations/Boy</title>
    <defs>
        <path d="M88,44 C88,68.3004855 68.3000427,88 43.9990109,88 C19.6979792,88 0,68.3004855 0,44 C0,19.6995145 19.6979792,0 43.9990109,0 C68.3000427,0 88,19.6995145 88,44" id="path-1"></path>
        <path d="M10.0037044,2.55018202 L0.965428893,17.7632083 C-1.09679219,21.2331833 0.264611795,25.7214765 3.90831979,27.4675987 L3.90831979,27.4675987 C7.58448242,29.2299168 11.9810702,27.4379061 13.3681674,23.6102714 L13.3681674,23.6102714 C15.2559448,18.4005851 17.7556272,11.4937018 19.3925575,6.96930516 L19.3925575,6.96930516 C20.3425315,4.34421712 19.047389,1.44109919 16.4584564,0.38634017 L16.4584564,0.38634017 C15.8164633,0.124843611 15.1484389,0 14.4898804,0 L14.4898804,0 C12.69541,-0.000337322925 10.9675392,0.927553693 10.0037044,2.55018202 L10.0037044,2.55018202 Z" id="path-3"></path>
        <polygon id="path-5" points="0 0 28.4586611 0 28.4586611 21.2090278 0 21.2090278"></polygon>
        <path d="M0.32731678,1.208897 L0.326999602,1.208897 C-0.295937823,2.28007554 -0.00572003107,3.64591485 1.00068549,4.37516084 L1.00068549,4.37516084 L1.32293826,4.60899858 C1.53830206,4.87970831 1.77015912,5.86138562 2.91326832,7.28300563 L2.91326832,7.28300563 C3.30434869,7.76895953 3.8327671,8.12980078 4.42335237,8.33716633 L4.42335237,8.33716633 L5.38503581,8.67468684 L6.46058612,9.06515174 L7.02516281,9.13952601 C7.37056956,9.18490692 7.7147076,9.04907934 7.93451189,8.78089077 L7.93451189,8.78089077 L9.98982478,6.27296525 C10.1052775,6.13209535 10.193453,5.970741 10.2492763,5.79772629 L10.2492763,5.79772629 L10.5014328,5.01963278 C10.6368677,4.60111995 10.5131683,4.14321397 10.1858407,3.84823807 L10.1858407,3.84823807 L9.67867325,3.39096238 C9.52325607,3.25103791 9.40431435,3.07550203 9.33136343,2.87979686 L9.33136343,2.87979686 L9.06525116,2.16221123 C8.95043276,1.8524235 8.7185757,1.59967705 8.41884257,1.45723142 L8.41884257,1.45723142 L7.86504993,1.19408517 C7.73564134,1.13231671 7.59513153,1.09765074 7.45208429,1.09197813 L7.45208429,1.09197813 L5.0462898,0.992077097 C4.80079409,0.981677305 4.56259348,0.906357602 4.35642783,0.773681472 L4.35642783,0.773681472 L3.76076771,0.38951947 C3.35065667,0.125427791 2.89170022,0 2.43845298,0 L2.43845298,0 C1.5995174,0 0.780246842,0.430488346 0.32731678,1.208897 L0.32731678,1.208897 Z" id="path-7"></path>
        <path d="M0.32731678,1.208897 L0.326999602,1.208897 C-0.295937823,2.28007554 -0.00572003107,3.64591485 1.00068549,4.37516084 L1.00068549,4.37516084 L1.32293826,4.60899858 C1.53830206,4.87970831 1.77015912,5.86138562 2.91326832,7.28300563 L2.91326832,7.28300563 C3.30434869,7.76895953 3.8327671,8.12980078 4.42335237,8.33716633 L4.42335237,8.33716633 L5.38503581,8.67468684 L6.46058612,9.06515174 L7.02516281,9.13952601 C7.37056956,9.18490692 7.7147076,9.04907934 7.93451189,8.78089077 L7.93451189,8.78089077 L9.98982478,6.27296525 C10.1052775,6.13209535 10.193453,5.970741 10.2492763,5.79772629 L10.2492763,5.79772629 L10.5014328,5.01963278 C10.6368677,4.60111995 10.5131683,4.14321397 10.1858407,3.84823807 L10.1858407,3.84823807 L9.67867325,3.39096238 C9.52325607,3.25103791 9.40431435,3.07550203 9.33136343,2.87979686 L9.33136343,2.87979686 L9.06525116,2.16221123 C8.95043276,1.8524235 8.7185757,1.59967705 8.41884257,1.45723142 L8.41884257,1.45723142 L7.86504993,1.19408517 C7.73564134,1.13231671 7.59513153,1.09765074 7.45208429,1.09197813 L7.45208429,1.09197813 L5.0462898,0.992077097 C4.80079409,0.981677305 4.56259348,0.906357602 4.35642783,0.773681472 L4.35642783,0.773681472 L3.76076771,0.38951947 C3.35065667,0.125427791 2.89170022,0 2.43845298,0 L2.43845298,0 C1.5995174,0 0.780246842,0.430488346 0.32731678,1.208897 L0.32731678,1.208897 Z" id="path-9"></path>
        <path d="M4.6065638,0 C4.6065638,0 4.32761208,8.95236576 0,13.5604711 L0,13.5604711 C0,13.5604711 2.23228516,15.4814815 16.6404271,15.4814815 L16.6404271,15.4814815 C31.0478976,15.4814815 33.0740741,13.5604711 33.0740741,13.5604711 L33.0740741,13.5604711 C28.7467977,8.95236576 28.4675103,0 28.4675103,0 L28.4675103,0" id="path-11"></path>
    </defs>
    <g id="4.-Elements_Microillustrations/Boy" stroke="none" stroke-width="1" fill="none" fill-rule="evenodd">
        <g id="Vector-Smart-Object" transform="translate(9.000000, 9.000000)">
            <mask id="mask-2" fill="white">
                <use xlink:href="#path-1"></use>
            </mask>
            <use id="Mask" fill="#D5FDF1" xlink:href="#path-1"></use>
            <g id="Group-212" mask="url(#mask-2)">
                <g transform="translate(9.000000, 17.000000)">
                    <g id="Group-58" transform="translate(0.000000, 24.629630)">
                        <path d="M21.9183204,14.3076935 L21.502484,13.7073964 C20.4877637,12.2432816 20.2218141,10.387366 20.7848844,8.69751828 L21.5310023,6.45709439 C21.8735533,5.42919759 22.6379096,4.59587526 23.6324019,4.16628666 L32.125213,0.49688403 C32.9233934,0.152152437 33.7862373,-0.0168986328 34.6557133,0.00133236493 L38.2967686,0.0779025553 C39.072068,0.094144717 39.8374191,0.259218114 40.5507078,0.563841513 L49.4082877,4.34892811 C50.3397745,4.74669533 51.0736229,5.49913833 51.4486714,6.43985781 L52.4537751,8.96269642 C53.216805,10.8766197 52.8785649,13.0537323 51.5710348,14.6461271 L50.880627,15.4870733 C50.4014535,16.0707967 49.8363936,16.5779499 49.2046805,16.9916278 L39.5834074,23.2899403 C37.8938649,24.3957332 35.7035944,24.3708728 34.0395857,23.2269605 L23.8190971,16.2010655 C23.0759637,15.6902661 22.4319811,15.0485349 21.9183204,14.3076935" id="Fill-10" fill="#AA391B"></path>
                        <path d="M22.4487604,15.3972773 L22.4487604,15.3972773 C25.6819379,17.2379452 26.7735913,21.3733984 24.8691669,24.5687951 L11.6220925,46.7960275 C9.85561696,49.7600563 6.02023943,50.7322657 3.05433793,48.9671736 C0.150778726,47.239538 -0.853330144,43.5180941 0.786802772,40.5653354 L13.3501015,17.9449764 C15.145427,14.7127863 19.2351478,13.5675481 22.4487604,15.3972773" id="Fill-12" fill="#CF693E"></path>
                        <path d="M17.6925739,26.3204956 L7.51287313,37.0515924 L9.48129791,48.9474841 C10.3341936,48.4340329 11.0769954,47.7107595 11.6221588,46.7958949 L20.5507029,31.8146554 L17.6925739,26.3204956 Z" id="Fill-14" fill="#AA391B"></path>
                        <path d="M18.703116,74.9634825 L18.8473655,69.5067791 L17.5023636,66.6312536 C16.8139455,65.1598463 16.5738614,63.5183936 16.8116243,61.911414 L18.612587,49.7410629 C18.8864952,47.8917768 18.8238213,46.008349 18.428213,44.1812715 L15.6652556,31.4248767 C15.5157004,30.7334247 15.2723002,30.0655072 14.9420187,29.4400182 L13.1970976,26.1345726 C10.4885239,21.0033754 13.7008101,14.7411935 19.4502287,13.9453275 L35.6452977,11.7032463 C36.3708559,11.6087766 37.1073572,11.6316482 37.82562,11.7711982 L53.4300953,15.1439328 C58.9430774,16.3352456 61.721952,22.5268239 58.9467251,27.4352714 L56.7362265,31.3449918 C56.1665241,32.3523373 55.8289472,33.4740408 55.7477032,34.6282287 L54.99429,45.3579996 C54.911388,46.5396997 54.963782,47.7270348 55.1508089,48.8968019 L57.1835656,61.6120942 C57.4017637,62.9784246 57.2744262,64.3775708 56.8124963,65.6819158 L55.4227274,69.6075468 L55.7201798,74.5769853 C55.7360969,74.8431579 55.5931739,75.0937513 55.3530898,75.2104296 C54.0216838,75.8577958 49.0100929,77.7554769 36.0074136,77.7554769 C23.4839078,77.7554769 19.921112,76.1690486 18.9942678,75.5306323 C18.8072409,75.4016894 18.6968155,75.1905413 18.703116,74.9634825" id="Fill-46" fill="#CF693E"></path>
                        <path d="M15.0539695,15.9624714 L17.7151233,16.0758351 C19.9733734,16.1716307 22.1792295,16.7848552 24.1629083,17.8677764 L34.9242494,23.7427983 C36.1402558,24.4067381 37.643103,24.231389 38.6734089,23.3052544 L48.8557626,14.1552823 L37.8254874,11.7709993 C37.1072245,11.6314493 36.3710549,11.6085777 35.6451651,11.7033789 L19.4500961,13.9454601 C17.7250715,14.1841205 16.2308461,14.9176695 15.0539695,15.9624714" id="Fill-48" fill="#AA391B"></path>
                        <path d="M42.212959,71.1508837 C43.4067476,70.5343445 43.9950201,69.0281326 43.3447369,67.7095342 L41.6286658,64.2313913 C40.41896,61.7788249 38.3308247,59.8708682 35.7794332,58.8853999 L32.1277664,57.4753151 C28.8644126,56.2147244 26.5849396,53.22915 26.2297874,49.7500126 L25.7897437,45.4408677 C25.4916281,42.5186045 24.6420486,39.6792095 23.2861037,37.0728398 L18.9191586,28.678294 C18.3186166,27.5237746 16.7590644,27.3046712 15.8633913,28.2487054 L14.8675727,29.2988109 L14.9421845,29.4400182 C15.272466,30.0655072 15.5158662,30.7334247 15.6654214,31.4248767 L18.4280472,44.1812715 C18.8239871,46.008349 18.8863294,47.8917768 18.6127528,49.7410629 L16.8117901,61.911414 C16.5740272,63.5183936 16.8141113,65.1598463 17.5021978,66.6312536 L18.4549075,68.6678218 C25.0651803,71.2592752 34.8088167,71.4767213 42.212959,71.1508837" id="Fill-50" fill="#AA391B"></path>
                        <path d="M54.3768691,27.8637662 L53.1257123,47.3215443 C53.0040122,49.2099442 53.9875614,50.9876322 55.6306788,51.8978562 L55.1508421,48.8967025 C54.9638152,47.7269354 54.9114211,46.5396002 54.9943231,45.3579001 L55.7477364,34.6284607 C55.8286487,33.4739414 56.1665572,32.3522378 56.7362597,31.3448923 L56.8559702,31.1327498 L54.3768691,27.8637662 Z" id="Fill-52" fill="#AA391B"></path>
                        <path d="M77.5262874,43.728977 C79.3779862,38.6113702 81.8298954,31.8261244 83.4355411,27.3814071 C84.3673594,24.8025496 83.0969693,21.9505586 80.5575157,20.914375 C78.211721,19.9574134 75.5184013,20.8613394 74.2261251,23.0397779 L65.360255,37.9848869 C63.3381097,41.3940834 64.6731633,45.8030016 68.2472338,47.5187043 C71.8534702,49.2499861 76.1657,47.4895347 77.5262874,43.728977" id="Fill-56" fill="#CF693E"></path>
                    </g>
                    <g id="Group-61" transform="translate(64.037037, 45.037037)">
                        <mask id="mask-4" fill="white">
                            <use xlink:href="#path-3"></use>
                        </mask>
                        <g id="Clip-60"></g>
                        <path d="M-8.28363265,31.9208344 L-11.581158,28.4053084 L-10.30799,8.63549375 C-10.2819587,8.23025844 -9.76538921,8.07504758 -9.51927495,8.3989659 L1.79792388,23.299546 C3.12957779,25.0524164 5.03155415,26.2870176 7.17694021,26.7907781 L10.2283513,27.5074474 L0.335437256,31.4720726 L-8.28363265,31.9208344 Z" id="Fill-59" fill="#AA391B" mask="url(#mask-4)"></path>
                    </g>
                    <g id="Group-161">
                        <path d="M48.966139,42.079704 L48.966139,42.079704 C46.1709519,44.5389585 45.9424959,48.8137322 48.459159,51.5570655 L65.952786,70.6234975 C68.284098,73.1642963 72.2335017,73.3373291 74.7783488,71.0103354 L74.7783488,71.0103354 C77.2734594,68.7287545 77.5012523,64.87695 75.2922919,62.3175884 L58.3878757,42.7274171 C55.9736697,39.9297209 51.7404368,39.6390124 48.966139,42.079704" id="Fill-72" fill="#CF693E"></path>
                        <path d="M71.4856317,71.4806401 C69.3814493,70.9857395 67.5160018,69.7728521 66.2099233,68.0504789 L55.1100796,53.4119646 C54.8686921,53.0940747 54.3620437,53.2465558 54.3365124,53.644664 L54.0772198,57.6797772 L65.9529518,70.6234312 C67.9056038,72.7515366 70.99092,73.2119632 73.4379521,71.9397407 L71.4856317,71.4806401 Z" id="Fill-74" fill="#AA391B"></path>
                        <path d="M36.1781415,24.9296275 C33.6807098,24.9296275 31.5377331,26.7693448 31.2280409,29.2464993 C31.032411,30.8124136 30.6796139,32.436337 30.1613604,33.91242 C29.3052307,36.3507913 27.7869435,37.9906257 27.7869435,37.9906257 C27.7869435,37.9906257 26.922856,42.6240614 36.0826476,42.6240614 C45.2424392,42.6240614 45.2165766,38.9227491 45.2165766,38.9227491 C45.2165766,38.9227491 42.1286074,36.1485881 42.0569869,30.9784853 C42.0447186,30.0874655 42.0344398,29.3240657 42.0261503,28.6707175 C41.9992927,26.5986323 39.5937076,24.9296275 36.6357166,24.9296275 L36.1781415,24.9296275 Z" id="Fill-76" fill="#EACBAC"></path>
                        <path d="M40.4599503,26.0459547 C39.4827954,25.3568066 38.1306278,24.9295281 36.6355508,24.9295281 L36.1779757,24.9295281 C33.6808756,24.9295281 31.5378988,26.7692454 31.2282067,29.2463998 C31.0325768,30.8123141 30.6794482,32.436569 30.1611946,33.9123206 C29.3053965,36.3506918 27.7871093,37.9908578 27.7871093,37.9908578 C27.7871093,37.9908578 27.4747645,39.6837291 29.2493601,41.0232422 C30.4516553,40.6307692 31.65594,40.1007317 32.8506089,39.404954 C39.1535402,35.7338064 39.8903025,29.1552427 39.8903025,29.1552427 C40.0312223,28.5015629 40.2288417,27.4093344 40.4599503,26.0459547" id="Fill-78" fill="#E99462"></path>
                        <path d="M38.1445871,6.49493123 C43.4421795,6.42830363 47.7118858,11.1101355 47.6273339,16.8924829 L47.6220287,17.2707022 C47.6697756,17.5700292 47.6923228,24.5818381 45.9973055,27.2817475 C44.0174642,30.4347909 42.3658833,31.5372953 38.8631127,32.9020009 C37.5411185,33.4171217 36.076215,33.4419828 34.7383052,32.9702859 C31.1745245,31.7133115 29.2752562,30.8650527 27.5719495,27.5048339 C26.1468351,24.6945415 25.9047845,17.8435007 25.9525315,17.5431793 L25.9475578,17.1649599 C25.8663217,11.3842699 30.1386806,6.59570132 35.436273,6.52907373 L38.1445871,6.49493123 Z" id="Fill-80" fill="#EACBAC"></path>
                        <path d="M26.7130014,15.6999815 C26.4888559,15.3771194 26.3091417,15.0840905 26.1629166,14.8073042 C26.0130441,15.5673892 25.9361185,16.3559815 25.9473921,17.1647942 L25.9526973,17.5430135 C25.9046187,17.8436664 26.1466693,24.6947072 27.5717837,27.5049997 C29.275422,30.8652184 31.1746903,31.7134773 34.7381394,32.9701202 C35.5892954,33.2704416 36.4918457,33.3675654 37.3761594,33.2674583 C28.7104162,31.3432134 27.9855907,23.1208374 28.6676429,19.3923437 C28.7916524,18.7134715 28.8752096,18.0365881 28.9279302,17.3772732 C28.3029091,17.1200443 27.3403435,16.6049235 26.7130014,15.6999815" id="Fill-82" fill="#E99462"></path>
                        <path d="M33.4753315,15.2014678 C33.5877359,15.4693041 33.9657327,15.4510727 34.0635477,15.1779327 C35.7874122,10.3648345 40.87578,8.25031984 41.7053836,7.2074819 C40.605877,6.73479058 39.4049081,6.47921905 38.1445871,6.49479863 L35.436273,6.52894113 C30.8804165,6.58628728 27.0855272,10.1374388 26.1630824,14.8073374 C26.3093074,15.0841237 26.4890217,15.3771525 26.7128356,15.7000146 C27.3405093,16.6049566 28.3027434,17.1200774 28.9277644,17.3773064 C28.9343959,17.3799582 28.9423538,17.3836045 28.9486537,17.3862564 C29.1863938,17.4833802 29.4304339,17.2695752 29.3651134,17.0212962 C29.1243891,16.1093931 28.8150285,14.2454778 29.6472847,12.508188 C29.4848124,14.6790544 30.77597,15.4915133 31.5972841,15.7875255 C31.8821081,15.889953 32.1699162,15.6486351 32.119185,15.3503026 C31.9570443,14.3929866 31.8154613,12.5496231 32.9325414,11.8004769 C32.7667533,13.1804306 33.1580132,14.4460235 33.4753315,15.2014678" id="Fill-84" fill="#E99462"></path>
                        <path d="M26.8148285,21.1297661 C27.1842043,23.3122343 26.8357178,24.8522931 25.5037763,25.2374736 C23.9519998,25.6862983 22.686042,23.658963 22.3213083,21.9551528 C21.6574928,18.8541519 22.8866456,16.980955 24.1569139,17.1082436 C26.5505623,17.3475726 26.5243677,19.4120337 26.8148285,21.1297661" id="Fill-86" fill="#EACBAC"></path>
                        <path d="M24.1570465,17.108111 C22.8867783,16.9811539 21.6576254,18.8543507 22.3214409,21.9553517 C22.3569195,22.121092 22.4033402,22.2898156 22.4550661,22.4592022 C22.4961815,22.3796468 22.5300023,22.2550101 22.5528811,22.0726958 C22.8101842,20.0327642 23.4010529,19.1175463 23.9212959,19.0986519 C25.4710829,19.0429632 26.5102426,22.2649545 25.0595969,24.7208942 C24.8556775,25.0659655 25.0085341,25.2423132 25.3354682,25.2701576 C25.3915046,25.2602131 25.4472094,25.253915 25.5039089,25.237341 C26.8358504,24.852492 27.1840054,23.3121017 26.8149611,21.1296335 C26.5241688,19.4119011 26.5503633,17.3477715 24.1570465,17.108111" id="Fill-88" fill="#E99462"></path>
                        <path d="M46.7600633,21.1297661 C46.3906874,23.3122343 46.7395056,24.8522931 48.0711154,25.2374736 C49.6232235,25.6862983 50.8888497,23.658963 51.2535835,21.9551528 C51.917399,18.8541519 50.6882461,16.980955 49.4179778,17.1082436 C47.0246611,17.3475726 47.0508556,19.4120337 46.7600633,21.1297661" id="Fill-90" fill="#EACBAC"></path>
                        <path d="M46.7650701,21.0980434 C47.1884928,21.182571 47.556874,21.0188195 47.6729256,20.5109913 C47.9859335,19.141645 48.3214886,17.9851092 48.8234949,17.2233668 C47.0449204,17.7255599 47.0240311,19.5447254 46.7650701,21.0980434" id="Fill-92" fill="#E99462"></path>
                        <path d="M32.6397596,20.6806099 C32.8224581,20.5447029 32.9424886,20.328909 32.9424886,20.0836134 L32.9424886,19.1889473 C32.9424886,18.7769169 32.6082599,18.4431159 32.1964423,18.4431159 C31.7842931,18.4431159 31.4503959,18.7769169 31.4503959,19.1889473 L31.4503959,20.0836134 C31.4503959,20.2579722 31.5127322,20.4164199 31.6128682,20.5433769 C31.7183094,20.5211677 31.8270664,20.50824 31.9388076,20.50824 C32.1921318,20.50824 32.4278824,20.5738732 32.6397596,20.6806099" id="Fill-94" fill="#1C417D"></path>
                        <path d="M40.8436834,20.5799392 C40.9620561,20.44801 41.0363292,20.2753086 41.0363292,20.0837128 L41.0363292,19.1887152 C41.0363292,18.7770163 40.702432,18.4428839 40.2902828,18.4428839 C39.8781336,18.4428839 39.5442364,18.7770163 39.5442364,19.1887152 L39.5442364,20.0837128 C39.5442364,20.3014956 39.6393988,20.4957432 39.7882765,20.6319817 C39.9759486,20.5524264 40.1825206,20.5083394 40.3997029,20.5083394 C40.5548806,20.5083394 40.7021004,20.5378412 40.8436834,20.5799392" id="Fill-96" fill="#1C417D"></path>
                        <path d="M42.7796903,17.4268296 L42.7796903,17.4268296 C42.6775649,17.530583 42.517082,17.5501404 42.3937357,17.4732369 L41.3834231,16.8450812 C41.1828195,16.720113 40.9560214,16.642878 40.7206024,16.6193429 L39.1287052,16.4595692 C38.8909651,16.4353711 38.7679503,16.1635571 38.9068807,15.9693094 L39.1144474,15.6792639 C39.1847416,15.5811457 39.3054353,15.532418 39.4241395,15.5542957 L41.0733994,15.8599208 C41.3234078,15.9066596 41.5584953,16.0137278 41.757441,16.172507 L42.7518379,16.966403 C42.895742,17.0814268 42.9086735,17.2955633 42.7796903,17.4268296" id="Fill-98" fill="#00547A"></path>
                        <path d="M29.5587539,17.4268296 L29.5587539,17.4268296 C29.6608793,17.530583 29.8213622,17.5501404 29.9450401,17.4732369 L30.9550211,16.8450812 C31.1559563,16.720113 31.3824228,16.642878 31.6178419,16.6193429 L33.2100706,16.4595692 C33.4478107,16.4353711 33.5708255,16.1635571 33.4315635,15.9693094 L33.2239968,15.6792639 C33.1537027,15.5811457 33.0333405,15.532418 32.9146362,15.5542957 L31.2650448,15.8599208 C31.0150364,15.9066596 30.7799489,16.0137278 30.5810032,16.172507 L29.5866063,16.966403 C29.4427022,17.0814268 29.4297707,17.2955633 29.5587539,17.4268296" id="Fill-100" fill="#00547A"></path>
                        <path d="M35.947895,18.4753027 C35.8802535,19.0076605 35.806312,19.5390239 35.7210969,20.0680669 C35.6325661,20.596447 35.5579614,21.1274789 35.458157,21.6538701 L35.4223468,21.8514325 L35.4044417,21.9502137 C35.4017891,21.9760692 35.3978102,21.9943006 35.3974786,22.0165098 C35.3941628,22.1010374 35.4130627,22.1855649 35.455836,22.2591536 C35.4956251,22.3337368 35.5602825,22.3934033 35.6315714,22.4345069 C35.6687079,22.4530698 35.7068391,22.4696438 35.747623,22.4779308 C35.7681807,22.4838975 35.7884069,22.4838975 35.8102909,22.4882067 L35.9104269,22.4981511 C36.0440521,22.5094215 36.1766826,22.5266585 36.3096446,22.542901 L36.4777537,22.5647787 C36.5198639,22.568425 36.5626372,22.5637843 36.6054106,22.5564917 C36.6912888,22.5415751 36.7765039,22.5041178 36.8514401,22.4454457 C36.9356604,22.3715255 37.0434227,22.2644573 37.1491955,22.1839075 L37.1521797,22.1815872 C37.2184949,22.1308706 37.3129941,22.1437984 37.3633937,22.209763 C37.3988723,22.2565018 37.4028512,22.3171627 37.3793093,22.3665533 C37.3173046,22.4951678 37.2615998,22.5999157 37.17539,22.7328394 C37.0729329,22.875376 36.9227289,22.9857591 36.7519672,23.0474145 C36.6664206,23.0785736 36.5755687,23.0951477 36.4837221,23.0994569 C36.4406172,23.1017773 36.3862387,23.0997884 36.3517548,23.097468 L36.2516188,23.0888495 C36.1179936,23.0772477 35.9843684,23.0659774 35.8517379,23.0490719 L35.7519335,23.0371386 C35.7081654,23.029846 35.6610816,23.0248738 35.616982,23.011946 C35.5267933,22.9903998 35.4412466,22.953274 35.3606736,22.9081926 C35.2018486,22.8137206 35.0678919,22.6781451 34.9833399,22.5153881 C34.8958038,22.3539571 34.8570094,22.1666705 34.8696093,21.9840247 C34.8715988,21.9396063 34.8808829,21.8915416 34.8871829,21.851101 L34.9070774,21.7526513 L34.9468666,21.5557518 C35.0493236,21.0300236 35.1766489,20.5089361 35.2900479,19.9855283 C35.4070943,19.4624519 35.5347511,18.9413644 35.6690395,18.4219343 C35.688934,18.3456938 35.7665229,18.2999495 35.8424538,18.3198383 C35.9127479,18.3377382 35.9568476,18.4053603 35.947895,18.4753027" id="Fill-102" fill="#E99462"></path>
                        <path d="M37.072303,25.3465638 L37.072303,25.3465638 C37.5703304,25.3366194 38.056421,25.1904365 38.4775227,24.9242576 L38.7467626,24.7535451 C39.3747679,24.3564313 40.1486666,24.9842555 39.8887109,25.6803648 L39.6496445,26.3204538 C39.5601189,26.5604457 39.3578575,26.7407712 39.1088438,26.8020951 L37.5709935,27.1819719 C37.30308,27.2479365 37.0199139,27.1667237 36.8279313,26.9684984 L36.5305075,26.6622103 C36.0586746,26.1752653 36.3942297,25.3601545 37.072303,25.3465638" id="Fill-104" fill="#FFFFFF"></path>
                        <path d="M41.4961258,21.5826349 L41.9835428,21.5826349 C42.1771833,21.5826349 42.3340188,21.7394252 42.3340188,21.9330099 L42.3340188,22.024167 C42.3340188,22.2177517 42.1771833,22.3748735 41.9835428,22.3748735 L41.4961258,22.3748735 C41.3028169,22.3748735 41.1456498,22.2177517 41.1456498,22.024167 L41.1456498,21.9330099 C41.1456498,21.7394252 41.3028169,21.5826349 41.4961258,21.5826349" id="Fill-106" fill="#F0909E"></path>
                        <path d="M40.155895,22.4561525 L40.6433119,22.4561525 C40.8369524,22.4561525 40.993788,22.6132743 40.993788,22.806859 L40.993788,22.8980162 C40.993788,23.0916008 40.8369524,23.2483911 40.6433119,23.2483911 L40.155895,23.2483911 C39.9622545,23.2483911 39.805419,23.0916008 39.805419,22.8980162 L39.805419,22.806859 C39.805419,22.6132743 39.9622545,22.4561525 40.155895,22.4561525" id="Fill-108" fill="#F0909E"></path>
                        <path d="M38.8156641,21.5826349 L39.3030811,21.5826349 C39.4967216,21.5826349 39.6535571,21.7394252 39.6535571,21.9330099 L39.6535571,22.024167 C39.6535571,22.2177517 39.4967216,22.3748735 39.3030811,22.3748735 L38.8156641,22.3748735 C38.6220236,22.3748735 38.4651881,22.2177517 38.4651881,22.024167 L38.4651881,21.9330099 C38.4651881,21.7394252 38.6220236,21.5826349 38.8156641,21.5826349" id="Fill-110" fill="#F0909E"></path>
                        <path d="M33.0354294,21.5826349 L33.5228464,21.5826349 C33.7164869,21.5826349 33.8733224,21.7394252 33.8733224,21.9330099 L33.8733224,22.024167 C33.8733224,22.2177517 33.7164869,22.3748735 33.5228464,22.3748735 L33.0354294,22.3748735 C32.8421205,22.3748735 32.6849534,22.2177517 32.6849534,22.024167 L32.6849534,21.9330099 C32.6849534,21.7394252 32.8421205,21.5826349 33.0354294,21.5826349" id="Fill-112" fill="#F0909E"></path>
                        <path d="M31.6951986,22.4561525 L32.1826155,22.4561525 C32.376256,22.4561525 32.5330916,22.6132743 32.5330916,22.806859 L32.5330916,22.8980162 C32.5330916,23.0916008 32.376256,23.2483911 32.1826155,23.2483911 L31.6951986,23.2483911 C31.5015581,23.2483911 31.3447226,23.0916008 31.3447226,22.8980162 L31.3447226,22.806859 C31.3447226,22.6132743 31.5015581,22.4561525 31.6951986,22.4561525" id="Fill-114" fill="#F0909E"></path>
                        <path d="M30.3549677,21.5826349 L30.8423847,21.5826349 C31.0360252,21.5826349 31.1928607,21.7394252 31.1928607,21.9330099 L31.1928607,22.024167 C31.1928607,22.2177517 31.0360252,22.3748735 30.8423847,22.3748735 L30.3549677,22.3748735 C30.1613272,22.3748735 30.0044917,22.2177517 30.0044917,22.024167 L30.0044917,21.9330099 C30.0044917,21.7394252 30.1613272,21.5826349 30.3549677,21.5826349" id="Fill-116" fill="#F0909E"></path>
                        <g id="Group-120" transform="translate(22.558194, 0.000000)">
                            <mask id="mask-6" fill="white">
                                <use xlink:href="#path-5"></use>
                            </mask>
                            <g id="Clip-119"></g>
                            <path d="M27.5032078,8.2740207 C27.1132742,7.52752641 26.2929547,6.59440855 25.4593723,5.93840846 C25.5084455,5.88868638 25.5614977,5.84095317 25.6211814,5.79719773 C25.7577908,5.70769797 25.9179421,5.62880559 26.0976564,5.57974647 C26.1865188,5.55057617 26.2813496,5.54030028 26.3768435,5.51875404 L26.6726095,5.49157263 L26.6941619,5.48991523 C26.7588193,5.4836171 26.8168451,5.43986166 26.8374028,5.37356554 C26.8652552,5.28605466 26.8161819,5.19257714 26.7286458,5.16506425 L26.4080117,5.06396267 C26.2969337,5.04307939 26.1845293,5.01158874 26.0671514,5.0003184 C25.8330586,4.9694907 25.5850396,4.97612031 25.3303891,5.02120167 C25.2730265,5.03346645 25.2156638,5.04838308 25.1583011,5.06528859 C25.1791904,4.97015366 25.201406,4.87468725 25.2146691,4.78021528 C25.2524687,4.5067438 25.2521372,4.23758156 25.2358899,3.97670634 C25.2169901,3.71516815 25.1722273,3.46191698 25.1181804,3.2156269 C25.1032595,3.14833634 25.0475547,3.09430501 24.9752711,3.08502355 C24.8834245,3.07375321 24.7998673,3.13872341 24.7882621,3.23054353 L24.787599,3.23750462 C24.7577571,3.47451324 24.7189627,3.70555521 24.6576211,3.92665277 C24.5976058,4.1361485 24.5249906,4.33636278 24.4314861,4.51934006 C22.8475468,2.01599865 19.8504298,-6.62961176e-05 14.3015027,-6.62961176e-05 C7.60067995,-6.62961176e-05 4.56742118,2.75851517 3.24675331,5.75178489 C2.33259782,6.40645906 1.38395841,7.45360624 0.955562003,8.2740207 C-0.307743191,10.693166 -0.114434286,12.8414917 0.37629844,14.288736 C0.812321099,15.5742177 1.34118508,17.1020118 1.34118508,17.1020118 C1.34118508,17.1020118 1.74040279,17.0811285 2.25931949,17.2382503 C3.75406485,17.6913842 4.02330469,20.0850056 4.07171481,20.9312755 C4.08099895,21.0953584 4.22125566,21.2190007 4.38505429,21.2083933 L4.63274169,21.1924822 C4.78659303,21.1822063 4.90695518,21.0555807 4.90861306,20.9011108 L4.96630731,15.6183046 C4.96630731,15.6183046 7.06750547,13.2551795 7.58509587,8.72350838 C9.26983437,7.85469775 11.3869482,7.20565876 13.9626319,7.20565876 C16.7856713,7.20565876 19.113336,8.09701006 20.9389944,9.23465145 C21.548763,13.4328531 23.4921309,15.6183046 23.4921309,15.6183046 L23.5498251,20.9011108 C23.551483,21.0555807 23.6718452,21.1822063 23.8260281,21.1924822 L24.0733839,21.2083933 C24.2371825,21.2190007 24.3777708,21.0953584 24.3870549,20.9312755 C24.4354651,20.0850056 24.7047049,17.6913842 26.1991187,17.2382503 C26.7180354,17.0811285 27.1172531,17.1020118 27.1172531,17.1020118 C27.1172531,17.1020118 27.6464487,15.5742177 28.0824713,14.288736 C28.573204,12.8414917 28.7661814,10.693166 27.5032078,8.2740207" id="Fill-118" fill="#0297B8" mask="url(#mask-6)"></path>
                        </g>
                        <path d="M29.3633229,1.72535647 C27.5741379,2.792061 26.470984,4.24162562 25.8048475,5.75151971 C24.890692,6.40652535 23.9420526,7.45367253 23.5136562,8.27408699 C22.250351,10.6932323 22.4436599,12.841558 22.9343926,14.2888023 C23.3704152,15.574284 23.8992792,17.1020781 23.8992792,17.1020781 C23.8992792,17.1020781 24.2988285,17.0811948 24.8177452,17.2383166 C26.312159,17.6914505 26.5813988,20.0850719 26.629809,20.9313418 C26.6390931,21.0954247 26.7796814,21.219067 26.94348,21.2084596 L27.1908358,21.1925485 C27.3450188,21.1822726 27.4650493,21.0553156 27.4670388,20.9011771 L27.524733,15.6183709 C27.524733,15.6183709 27.9756766,15.1055705 28.510509,14.1127861 C28.2608321,11.5885614 27.8433777,9.00036096 27.433218,7.00153301 C26.8552808,4.18494244 27.8841616,3.00321414 29.3633229,1.72535647" id="Fill-121" fill="#00547A"></path>
                        <path d="M48.1770209,14.9547799 C48.1770209,14.9547799 41.2341475,11.3525804 40.8873188,8.45510854 C40.8538297,8.41897716 38.8395044,13.9964696 34.1102336,15.9130903 C33.9431192,15.9807124 33.7534576,15.8885608 33.6994107,15.7165223 C33.437134,14.877545 32.7769658,12.5280105 32.9914956,10.7443135 C31.8356211,11.5196466 32.1393449,14.0163584 32.3634903,15.2163181 C32.4132268,15.4821656 32.1230976,15.6850317 31.8949732,15.5391802 C31.0222648,14.9822928 29.5381298,13.6944907 29.7059074,11.452356 C28.8746459,13.1873254 29.1823486,15.0489204 29.4227413,15.9621495 C29.4883934,16.2117543 29.243027,16.4265538 29.0042922,16.3290985 C28.3799343,16.0741899 27.4047688,15.5570802 26.7714583,14.6441826 C25.9521336,13.4621228 25.6765938,12.6622602 25.7793824,11.7046128 C26.0688484,9.00470336 27.1968705,7.20907301 28.7237788,6.21164791 C34.3483053,2.53585966 39.457894,3.90553745 41.4141934,4.5144673 C43.9169303,5.29377816 45.3473499,6.73936501 45.8586403,7.18156012 C48.7526371,9.68291265 48.1770209,14.9547799 48.1770209,14.9547799" id="Fill-123" fill="#0297B8"></path>
                        <path d="M29.7854193,9.09576108 C31.9575748,6.05939888 32.4207867,4.83325218 32.0417951,4.55845477 C30.9708041,4.9370056 29.8580345,5.47002639 28.7237125,6.21121699 C27.1968042,7.20897356 26.0691137,9.0049354 25.7793161,11.7045133 C25.6765275,12.6621607 25.9520673,13.4620234 26.7717236,14.6440832 C27.4047025,15.5569807 28.379868,16.0740904 29.0042259,16.328999 C29.2124557,16.4141895 29.4256592,16.2617085 29.4332854,16.055859 C28.8928163,14.8602085 28.0104921,12.0621809 29.7854193,9.09576108" id="Fill-125" fill="#00547A"></path>
                        <path d="M32.3633909,15.2161855 C32.3597435,15.1956337 32.3557646,15.1720986 32.3517857,15.1508839 C30.4933013,12.9230028 30.8603561,8.49873139 30.8603561,8.49873139 C30.1143097,9.54156932 29.7843914,10.5787721 29.6792818,11.5132159 C29.6888975,11.4929956 29.6961922,11.4727752 29.7058079,11.4525549 C29.5380304,13.6946896 31.0221653,14.9821602 31.8948737,15.5393791 C32.1229982,15.6852306 32.4131273,15.4823644 32.3633909,15.2161855" id="Fill-127" fill="#00547A"></path>
                        <path d="M35.5190344,6.79014784 C35.5190344,6.79014784 33.5570982,7.63310298 32.8956038,10.8232722 C32.9277667,10.7970852 32.9566138,10.7675834 32.9914293,10.7443798 C32.7768995,12.5280768 33.4370677,14.8772798 33.699676,15.7165886 C33.7533913,15.8886271 33.9430529,15.9807787 34.1101673,15.9131566 C34.1118252,15.9124937 34.1131515,15.9118307 34.1148093,15.9111677 C34.2305294,15.1534031 34.1287355,12.8688389 34.9676232,11.3370671 C36.8698757,7.86480791 35.9878831,7.23101702 35.5190344,6.79014784" id="Fill-129" fill="#00547A"></path>
                        <path d="M47.7845673,15.5897642 C48.0524809,12.3826895 47.0003897,9.20180172 44.9015125,7.06640376 C43.8610265,5.99538998 42.5761689,5.19884212 41.1722754,4.70162124 C39.7663925,4.20572627 38.2573893,3.97534727 36.7245127,3.95844176 C35.1926308,3.94385661 33.6736804,4.14506533 32.2740974,4.63830844 C30.8711986,5.12260159 29.5996041,5.92644201 28.5793442,7.00905762 C26.5278824,9.17727216 25.537796,12.3896505 25.7984149,15.5897642 L25.7984149,15.5934104 C25.8083622,15.711749 25.7201629,15.8155024 25.6017902,15.8247839 C25.4999963,15.8330709 25.4088129,15.7687637 25.3793026,15.6746232 C24.3792689,12.46788 24.9850585,8.65552171 27.2381186,5.84688667 C28.354204,4.4443923 29.886749,3.36575446 31.5532508,2.71804139 C32.3868333,2.39087005 33.2519155,2.16778361 34.1216398,2.0159655 C34.9940167,1.87475477 35.8683831,1.82138639 36.7391021,1.82300647 C38.4788822,1.84823632 40.2471779,2.13562999 41.9043956,2.79494489 C43.5592922,3.44995053 45.0785742,4.5143347 46.2158805,5.88931619 C47.3618077,7.2586625 48.1088488,8.91308213 48.4497091,10.6099313 C48.7743222,12.3107582 48.7116543,14.0699257 48.2036796,15.6749547 C48.1675378,15.788321 48.0468441,15.8509709 47.9337766,15.815171 C47.8362932,15.7840118 47.7762779,15.6902028 47.7845673,15.592416 L47.7845673,15.5897642 Z" id="Fill-131" fill="#1C417D"></path>
                        <path d="M26.4620314,25.9159812 L26.484247,25.910346 C26.8217916,25.8281388 27.0502475,25.5162156 27.0230583,25.1698184 C26.971664,24.5114979 26.8546176,23.152759 26.5893567,20.3812498 C26.399032,18.3900459 26.3473061,17.1788158 26.3529429,16.4422659 C26.3579165,15.8449379 25.833363,15.3805336 25.2398417,15.4498131 C22.8276251,15.7312401 21.1001132,17.9147027 21.381953,20.3265555 L21.5842144,22.058873 C21.8657226,24.4707258 24.0498148,26.1974082 26.4620314,25.9159812" id="Fill-133" fill="#1C417D"></path>
                        <path d="M47.1202876,25.9159812 L47.098072,25.910346 C46.7605275,25.8281388 46.5320715,25.5162156 46.5592607,25.1698184 C46.6106551,24.5114979 46.7277014,23.152759 46.9929624,20.3812498 C47.1832871,18.3900459 47.2353446,17.1788158 47.2293762,16.4422659 C47.2244025,15.8449379 47.748956,15.3805336 48.3424774,15.4498131 C50.754694,15.7312401 52.4822058,17.9147027 52.2006976,20.3265555 L51.9981046,22.058873 C51.7165964,24.4707258 49.5328358,26.1974082 47.1202876,25.9159812" id="Fill-135" fill="#1C417D"></path>
                        <path d="M25.4114655,25.6442334 C24.9419536,24.7373025 24.6040775,23.1047606 24.4077844,20.792352 C24.2071809,18.4298898 24.2519436,16.745637 24.5417412,15.7866636 C24.56462,15.7104231 24.5994355,15.6378288 24.6398878,15.5672235 C24.499631,15.6036863 24.3620269,15.6464473 24.2280702,15.6961694 C23.9273306,16.6955834 23.8782573,18.4192825 24.0821766,20.8198649 C24.2824487,23.175366 24.6319299,24.8490115 25.1213364,25.7943941 C25.1352626,25.821907 25.156815,25.8487569 25.1737254,25.8759383 C25.3249241,25.9027883 25.4787755,25.9210197 25.6339531,25.93229 C25.5417749,25.839144 25.4621967,25.7423517 25.4114655,25.6442334" id="Fill-137" fill="#0068C9"></path>
                        <path d="M21.9224553,20.9525234 C21.8047457,19.7157694 21.8349192,18.6072983 21.8213246,17.8442299 C21.4479698,18.585752 21.2782028,19.440309 21.3819861,20.3263566 L21.583916,22.0590056 C21.6774205,22.8578739 21.9828021,23.5788441 22.432751,24.179487 C22.304431,23.4001761 22.0458016,22.2446348 21.9224553,20.9525234" id="Fill-139" fill="#0068C9"></path>
                        <path d="M49.040611,15.7865642 C49.3304086,16.7462005 49.3755029,18.4304534 49.1745678,20.792584 C48.9782747,23.1049926 48.6403986,24.7372031 48.1708867,25.644134 C48.119824,25.7425837 48.0402457,25.839376 47.9477359,25.9321906 C48.1032452,25.9212517 48.2570965,25.9030203 48.4086268,25.8758389 C48.4255372,25.8486575 48.4467581,25.8218075 48.4610159,25.7942947 C48.9504223,24.848912 49.2999036,23.175598 49.5001756,20.8200969 C49.7040949,18.4195145 49.6550216,16.6958154 49.354282,15.69607 C49.2203253,15.6466794 49.0827212,15.6039184 48.9424644,15.567124 C48.9829167,15.6377294 49.0177322,15.7103236 49.040611,15.7865642" id="Fill-141" fill="#0068C9"></path>
                        <path d="M51.6598638,20.9525234 C51.5365174,22.2446348 51.277888,23.4001761 51.149568,24.179487 C51.5995169,23.5788441 51.9048985,22.8578739 51.998403,22.0590056 L52.2006645,20.3263566 C52.3041162,19.440309 52.1343493,18.585752 51.7609945,17.8442299 C51.7473999,18.6072983 51.7775733,19.7157694 51.6598638,20.9525234" id="Fill-143" fill="#0068C9"></path>
                        <path d="M3.35127211,74.1250596 C7.31692306,76.3774702 12.3300231,79.2262144 15.5983694,81.0835001 C17.4784062,82.1521936 19.8677441,81.4948675 20.938072,79.616367 L22.0624467,77.6427316 C22.9686444,76.0526192 22.6526523,74.0474931 21.3014794,72.8127279 L11.0919177,63.4832068 C8.07656405,60.7276086 3.30949351,61.3318977 1.07732276,64.7524459 L1.07699118,64.7534404 C-1.00829133,67.9489133 0.0328578356,72.240261 3.35127211,74.1250596" id="Fill-155" fill="#CF693E"></path>
                        <path d="M18.9011996,81.5466117 C19.2695807,81.7438426 19.6406144,81.942068 19.9983851,82.1333323 C21.4327836,82.9003784 23.216995,82.3865835 24.0240513,80.9741447 L24.8994124,79.4417099 C25.6418115,78.142969 25.3152089,76.4961734 24.1331399,75.5789666 L23.2226318,74.8719185 C21.6115032,73.6212423 19.2738912,74.0286319 18.1813477,75.7506736 C17.9923493,76.0486746 17.8010299,76.3506534 17.612363,76.6479915 C16.5357352,78.3448407 17.128925,80.5985772 18.9011996,81.5466117" id="Fill-157" fill="#AA391B"></path>
                        <path d="M21.6753979,81.7482845 C21.9008697,82.0333578 22.1429203,83.0655883 23.3382524,84.5608973 C23.7470858,85.0723718 24.2991601,85.4519171 24.9168865,85.6700313 L25.9218938,86.025047 L27.0462686,86.4357515 L27.6364742,86.5136494 C27.9975606,86.5617141 28.3573208,86.4185145 28.5871031,86.1364245 L30.7357166,83.498502 C30.8564104,83.3503301 30.9485885,83.1806121 31.0072775,82.9982978 L31.270549,82.1802037 C31.412132,81.7403289 31.2831489,81.2583561 30.9406307,80.9480903 L30.4104404,80.4674435 C30.2479681,80.3199346 30.123627,80.1356314 30.0476961,79.9297819 L29.7695037,79.1746692 C29.6491415,78.8488237 29.4067594,78.5829763 29.0934199,78.4331471 L28.5144879,78.1563608 C28.3792048,78.0917221 28.2323166,78.0549277 28.0827757,78.0489611 L25.5681021,77.9438817 C25.3114621,77.9332744 25.0621168,77.853719 24.8465923,77.7141657 L24.2238923,77.3104223 C23.001371,76.5181837 21.3640479,76.9109882 20.6345803,78.1719404 L20.6345803,78.1719404 C19.9827016,79.2986429 20.2864253,80.7356113 21.3381849,81.5023259 L21.6753979,81.7482845 Z" id="Fill-159" fill="#EACBAC"></path>
                    </g>
                    <g id="Group-168" transform="translate(21.111111, 76.703704)">
                        <g id="Group-164">
                            <mask id="mask-8" fill="white">
                                <use xlink:href="#path-7"></use>
                            </mask>
                            <g id="Clip-163"></g>
                            <path d="M9.92493018,3.20474308 L8.23120012,2.31918506 C8.20963202,2.30815498 8.1855265,2.30248236 8.16078662,2.30311265 L7.37228232,2.32170622 C7.22701484,2.32517282 7.17816944,2.51583566 7.30377189,2.58800392 L8.66731975,3.36861858 L9.36289092,3.71433287 C9.58206086,3.82305796 9.76729276,3.98976978 9.89797006,4.19618988 L10.0169118,4.38433157 C10.1910425,4.65976848 10.2627247,4.9868892 10.2189541,5.30928274 L10.0486296,6.56450608 L11.30624,4.82301369 L9.92493018,3.20474308 Z" id="Fill-162" fill="#E99462" mask="url(#mask-8)"></path>
                        </g>
                        <g id="Group-167">
                            <mask id="mask-10" fill="white">
                                <use xlink:href="#path-9"></use>
                            </mask>
                            <g id="Clip-166"></g>
                            <path d="M-0.0229745097,1.5796023 L1.28728746,2.39141634 C1.96097335,2.80898373 2.49383225,3.41752912 2.81608501,4.13889649 L3.06506967,4.69544291 C3.10693716,4.78872589 3.15546538,4.87885742 3.21001998,4.96552235 L4.04007458,6.2793627 C4.41941937,6.88002946 4.91865741,7.39686759 5.50670526,7.79867772 L6.57844944,8.53076003 C6.87215619,8.73150752 7.23088441,8.81691187 7.58422061,8.76995523 L8.16941386,8.69242951 L7.26165067,9.94481655 L1.6155666,8.26666835 L0.506395431,5.41145281 L-1.25838249,3.43297123 L-0.0229745097,1.5796023 Z" id="Fill-165" fill="#E99462" mask="url(#mask-10)"></path>
                        </g>
                    </g>
                    <g id="Group-195" transform="translate(19.703704, 27.444444)">
                        <path d="M16.888132,20.717365 L8.56867539,9.98634159 C8.56867539,9.98634159 11.7790303,12.280616 16.707678,12.280616 C21.6363258,12.280616 25.2075885,9.98634159 25.2075885,9.98634159 L16.888132,20.717365 Z" id="Fill-169" fill="#3CA1FF"></path>
                        <path d="M29.6251934,0.935848972 L28.3676552,0.391672613 L28.6844447,1.32382656 C28.9683942,2.16024578 28.8038627,3.0856815 28.2502274,3.76959697 L17.4780571,17.0723576 C17.2319232,17.3763573 16.7728272,17.3780369 16.5250348,17.0753808 L5.59795269,3.74138042 C5.05062002,3.07325278 4.87646871,2.16897947 5.13587123,1.34162986 L5.55648809,0 L3.84118067,0.750761828 C2.84603037,1.18643883 2.08142321,2.03091991 1.73875979,3.07224504 L0.992397059,5.34300565 C0.429141985,7.05548162 0.695178834,8.93624917 1.71023215,10.4199695 L2.12620498,11.027969 C2.64003425,11.7790668 3.28422822,12.4290552 4.0276055,12.9470305 L14.9351163,20.5429934 C16.1860202,21.4140115 17.832994,21.4331585 19.1031375,20.5906928 L29.4215193,13.7478431 C30.0534398,13.3289617 30.6186852,12.8146814 31.0980159,12.2234775 L31.7886502,11.3709345 C33.0966094,9.75721647 33.4349605,7.55095084 32.672012,5.61139881 L31.6662467,3.05477766 C31.2910751,2.10179721 30.5569858,1.33927848 29.6251934,0.935848972" id="Fill-171" fill="#CF693E"></path>
                        <path d="M4.17147106,10.3062635 C5.21637889,11.4913587 6.6192091,11.8981473 7.02390356,11.5256217 C7.56427018,11.028137 3.69446235,8.34722865 1.5077854,3.77513951 L0.992297544,5.3428377 C0.990970677,5.34653272 0.989975527,5.35056366 0.988980376,5.35425868 C1.67397551,7.50308347 2.1960977,8.47823407 0.721284943,7.6135983 C0.799901818,8.60789584 1.13427232,9.57800777 1.71013263,10.4198016 L2.12610546,11.028137 C2.63993474,11.7788988 3.2841287,12.4292232 4.02750598,12.9468625 L7.67406843,15.4863522 C7.55664069,14.9656896 7.10517417,14.2491908 6.19958739,13.5797195 C5.72689099,13.2300358 4.73472614,12.7392693 3.60091822,10.9481901 C3.12689495,10.1987719 2.78622183,8.73520624 4.17147106,10.3062635" id="Fill-173" fill="#AA391B"></path>
                        <path d="M32.6718793,5.61153317 L32.3053323,4.67904331 C30.7927038,8.12381402 27.2439978,10.5685767 26.0073577,11.3394932 C25.8176157,11.4580699 25.8673732,11.7036211 26.0909503,11.7446023 C29.6579007,12.3955984 32.8785388,5.84230426 32.1311809,9.07880994 C31.8376116,10.3498984 30.4934953,11.4137296 29.620085,11.9867943 C29.3875515,12.1392981 29.5494293,12.4399387 29.8333789,12.3845134 C30.2951286,12.2938173 30.8869113,12.0963014 31.5317687,11.6878333 L31.7885175,11.3710689 C33.0964767,9.75735083 33.4348279,7.5510852 32.6718793,5.61153317" id="Fill-175" fill="#AA391B"></path>
                        <path d="M14.0732498,17.2665815 C14.0732498,16.7009068 13.6201247,16.2423878 13.0615137,16.2423878 C12.5029026,16.2423878 12.0501092,16.7009068 12.0501092,17.2665815 C12.0501092,17.6192884 12.2262508,17.9303423 12.494278,18.1144217 C12.6362528,20.6434981 12.6296184,22.5390458 12.4760336,24.6952606 C12.4481693,25.0906282 12.4149977,25.4980887 12.3814943,25.9142828 C12.2026989,28.1282744 12.00002,30.6382039 12.4103536,32.8259944 C12.4372227,32.9687567 12.5506698,33.0681865 12.6843517,33.0900207 L12.9570229,34.0349393 C12.9782527,34.1085039 13.0442644,34.1558674 13.1162469,34.1558674 C13.1315059,34.1558674 13.1470966,34.1538519 13.1626873,34.1491491 C13.2505922,34.123284 13.3010132,34.0299006 13.275471,33.9408841 L12.9948386,32.9680849 C13.0515621,32.8941844 13.0807532,32.7994574 13.0621771,32.7006995 C12.6684293,30.6022614 12.8671276,28.1407031 13.0426058,25.9690364 C13.0764409,25.5508268 13.1096126,25.1410149 13.1378085,24.7432959 C13.2894031,22.6146258 13.2996863,20.738561 13.167663,18.280026 C13.6758531,18.2256083 14.0732498,17.7956418 14.0732498,17.2665815" id="Fill-177" fill="#AA391B"></path>
                        <path d="M13.2726182,16.2727878 C12.7607792,16.2727878 12.3458016,16.6930129 12.3458016,17.2113241 C12.3458016,17.2261042 12.3494504,17.2398765 12.3501139,17.2543207 C12.3726706,16.8041995 12.7372273,16.4451103 13.1876987,16.4451103 C13.6524339,16.4451103 14.0292642,16.8267056 14.0292642,17.2976533 C14.0292642,17.753485 13.6746589,18.1226515 13.2301585,18.1458294 C13.2444223,18.1465012 13.2580227,18.1498603 13.2726182,18.1498603 C13.7844572,18.1498603 14.1994349,17.7296353 14.1994349,17.2113241 C14.1994349,16.6930129 13.7844572,16.2727878 13.2726182,16.2727878" id="Fill-179" fill="#3CA1FF"></path>
                        <path d="M13.2726182,17.891175 C12.9880052,17.891175 12.7571303,17.6573807 12.7571303,17.3691688 C12.7571303,17.080621 12.9880052,16.8471626 13.2726182,16.8471626 C13.5572312,16.8471626 13.7881061,17.080621 13.7881061,17.3691688 C13.7881061,17.6573807 13.5572312,17.891175 13.2726182,17.891175 M14.0292642,17.2976197 C14.0292642,16.8270079 13.6524339,16.4450767 13.1876987,16.4450767 C12.7372273,16.4450767 12.3726706,16.8041659 12.3501139,17.2542871 C12.3494504,17.2690672 12.3458016,17.2828396 12.3458016,17.2976197 C12.3458016,17.7682315 12.7226318,18.1501627 13.1876987,18.1501627 C13.2022942,18.1501627 13.2158946,18.1464676 13.2301585,18.1457958 C13.6746589,18.1226179 14.0292642,17.7534514 14.0292642,17.2976197" id="Fill-181" fill="#0068C9"></path>
                        <path d="M14.154056,33.9292952 L13.8482131,32.9642219 C13.9032781,32.8893137 13.9298155,32.793579 13.9085856,32.6951569 C13.4601045,30.6081398 13.5944498,28.1422147 13.7128727,25.966517 C13.7357612,25.5472997 13.7583179,25.136816 13.7758989,24.7387611 C13.8830434,22.3591652 13.8230027,20.3013724 13.562605,17.4001062 C13.5460192,17.215355 13.3861317,17.0819982 13.2023606,17.0957706 C13.0199164,17.1125661 12.8852394,17.276155 12.9018252,17.4609062 C13.1592374,20.329589 13.2186147,22.3615166 13.1131288,24.7081932 C13.0955478,25.1045686 13.0733228,25.5127008 13.0504343,25.9295668 C12.9296894,28.1479252 12.7926904,30.6618856 13.260411,32.8379192 C13.2905973,32.9800097 13.4070298,33.0764163 13.5410434,33.0948914 L13.8382616,34.032084 C13.8608184,34.1032972 13.9261666,34.1486453 13.9961588,34.1486453 C14.0127447,34.1486453 14.0299939,34.145958 14.0469115,34.1405834 C14.1338213,34.1120309 14.1819202,34.0176398 14.154056,33.9292952" id="Fill-183" fill="#1C417D"></path>
                        <path d="M21.5375074,17.2665815 C21.5375074,16.7009068 21.0843823,16.2423878 20.5257712,16.2423878 C19.9671602,16.2423878 19.5143668,16.7009068 19.5143668,17.2665815 C19.5143668,17.5803227 19.6566733,17.8574495 19.8759381,18.0455599 C20.0351621,19.0066022 19.9247004,19.9246479 19.7959943,20.9616061 C19.6636393,22.0301401 19.5133716,23.2407645 19.6291408,24.7486705 C19.6606539,25.159826 19.6984696,25.584082 19.7369487,26.0174076 C19.9293445,28.1699274 20.1472824,30.6096514 19.657005,32.6627415 C19.6231699,32.8041602 19.6855326,32.9438993 19.7989798,33.0194793 L19.6626442,33.9922785 C19.650039,34.0839823 19.7130651,34.1689679 19.8036238,34.1820684 C19.811585,34.1834121 19.8192145,34.183748 19.8271757,34.183748 C19.9084463,34.183748 19.9794337,34.123284 19.9910438,34.039642 L20.1316917,33.0349312 C20.213294,32.9915987 20.2786422,32.91837 20.3018624,32.8206198 C20.8180137,30.6597022 20.5947683,28.1615296 20.3977286,25.9569436 C20.3595811,25.5266411 20.3217654,25.1050724 20.290584,24.6969402 C20.1801224,23.2568883 20.325746,22.0818704 20.4541204,21.045584 C20.5745336,20.0748002 20.6823415,19.2031103 20.5821631,18.2854006 C21.1142368,18.2551685 21.5375074,17.8127733 21.5375074,17.2665815" id="Fill-185" fill="#AA391B"></path>
                        <path d="M20.7368758,16.2727878 C20.2250368,16.2727878 19.8100591,16.6930129 19.8100591,17.2113241 C19.8100591,17.2261042 19.813708,17.2398765 19.8143714,17.2543207 C19.8369282,16.8041995 20.2014849,16.4451103 20.6519563,16.4451103 C21.1166915,16.4451103 21.4935217,16.8267056 21.4935217,17.2976533 C21.4935217,17.753485 21.1389165,18.1226515 20.694416,18.1458294 C20.7086799,18.1465012 20.7222802,18.1498603 20.7368758,18.1498603 C21.2487148,18.1498603 21.6636924,17.7296353 21.6636924,17.2113241 C21.6636924,16.6930129 21.2487148,16.2727878 20.7368758,16.2727878" id="Fill-187" fill="#3CA1FF"></path>
                        <path d="M20.7368758,17.891175 C20.4522628,17.891175 20.2213879,17.6573807 20.2213879,17.3691688 C20.2213879,17.080621 20.4522628,16.8471626 20.7368758,16.8471626 C21.0214888,16.8471626 21.2523636,17.080621 21.2523636,17.3691688 C21.2523636,17.6573807 21.0214888,17.891175 20.7368758,17.891175 M21.4935217,17.2976197 C21.4935217,16.8270079 21.1166915,16.4450767 20.6519563,16.4450767 C20.2014849,16.4450767 19.8369282,16.8041659 19.8143714,17.2542871 C19.813708,17.2690672 19.8100591,17.2828396 19.8100591,17.2976197 C19.8100591,17.7682315 20.1868894,18.1501627 20.6519563,18.1501627 C20.6665518,18.1501627 20.6801522,18.1464676 20.694416,18.1457958 C21.1389165,18.1226179 21.4935217,17.7534514 21.4935217,17.2976197" id="Fill-189" fill="#0068C9"></path>
                        <path d="M21.4032284,25.9356468 C21.345178,25.5076957 21.2881227,25.0884784 21.2380335,24.6820257 C21.0615602,23.248692 21.153114,22.0682996 21.2337212,21.0269745 C21.3345631,19.7236385 21.4218046,18.5983356 21.0118026,17.3262393 C20.9550791,17.1498859 20.7683225,17.0531434 20.5938395,17.1109202 C20.4193565,17.1686969 20.3244855,17.3581509 20.3812091,17.5345044 C20.7500781,18.6792902 20.6678123,19.7427855 20.5722779,20.9742364 C20.4893487,22.047809 20.3948094,23.264144 20.5799074,24.7649958 C20.6299966,25.1741358 20.6873836,25.5963763 20.7460975,26.0270147 C21.0370131,28.1684494 21.3670713,30.5954088 20.9719966,32.6689894 C20.9447958,32.8124236 21.0131295,32.9488036 21.1302255,33.019009 L21.0386717,33.9971828 C21.0300471,34.0892226 21.0970538,34.1711849 21.188276,34.1799186 C21.1935834,34.1805904 21.1988909,34.1805904 21.2038666,34.1805904 C21.2884544,34.1805904 21.3607687,34.1157595 21.3687299,34.0284226 L21.4632692,33.0180013 C21.5425495,32.9709737 21.6045805,32.8950578 21.6234884,32.7962998 C22.0391295,30.613548 21.7014418,28.12814 21.4032284,25.9356468" id="Fill-191" fill="#1C417D"></path>
                        <path d="M32.6833899,59.9225507 C28.407229,55.118011 28.1312406,45.783035 28.1312406,45.783035 L4.55214923,45.783035 C4.55214923,45.783035 4.27616087,55.118011 0,59.9225507 C0,59.9225507 2.20591652,61.9259259 16.443532,61.9259259 C30.6811474,61.9259259 32.6833899,59.9225507 32.6833899,59.9225507" id="Fill-193" fill="#CF693E"></path>
                    </g>
                    <g id="Group-198" transform="translate(19.703704, 73.888889)">
                        <mask id="mask-12" fill="white">
                            <use xlink:href="#path-11"></use>
                        </mask>
                        <g id="Clip-197"></g>
                        <path d="M-3.97759648,-19.7825409 L-12.4307401,-11.2270701 L-7.33508764,18.3383844 C-7.33508764,18.3383844 4.05090942,23.0569889 21.6356099,22.1900698 C23.5110651,22.0976113 24.6718534,20.1852991 23.8413762,18.5690474 L22.104222,15.1883526 C20.8796541,12.8050498 18.7658647,10.9504034 16.1831275,9.99295868 L12.4865976,8.62218908 C9.18315121,7.39735571 6.87567328,4.49570547 6.51615788,1.11404426 L6.07070789,-3.07397095 C5.76892979,-5.91408958 4.90891256,-8.67366945 3.53630895,-11.2064522 L-0.884287039,-19.3653501 C-1.4922071,-20.4874161 -3.07091945,-20.7003605 -3.97759648,-19.7825409" id="Fill-196" fill="#AA391B" mask="url(#mask-12)"></path>
                    </g>
                    <g id="Group-211" transform="translate(19.703704, 72.481481)">
                        <path d="M4.91557975,0.164574275 C5.08171156,1.43102146 5.04981426,2.69350377 4.93285746,3.95268201 C4.81656519,5.21186026 4.58497743,6.46310875 4.24042005,7.69023759 C3.88390117,8.91340155 3.4213902,10.1180628 2.78444081,11.2404528 C2.13818805,12.3552435 1.32613573,13.3986665 0.3077477,14.1916415 C0.225014055,14.2560707 0.105399148,14.2415329 0.0406077394,14.1592617 C-0.00856727816,14.0971453 -0.0122221781,14.0138829 0.0249913487,13.9491233 L0.0289785123,13.9418544 C0.649646977,12.8601043 1.1693073,11.7909096 1.63414412,10.6860311 C2.070074,9.56826675 2.4538385,8.43398207 2.80304758,7.27954261 C3.14527912,6.12212949 3.43235489,4.94390078 3.72175652,3.75708151 L4.54078637,0.153340462 L4.54211543,0.147393149 C4.56504162,0.0456280221 4.66671429,-0.0181403855 4.76938375,0.00465764622 C4.84879476,0.0224995841 4.90561184,0.0885808355 4.91557975,0.164574275" id="Fill-199" fill="#D9642E"></path>
                        <path d="M28.5335432,0.153274381 L29.3525731,3.75701543 C29.6419747,4.94416511 29.9290505,6.12206341 30.2709498,7.27947653 C30.6201588,8.43391599 31.0042556,9.56820067 31.4405178,10.685965 C31.90469,11.7908436 32.4246826,12.8600382 33.0450188,13.9417883 L33.049006,13.9490572 C33.1011714,14.039919 33.0692741,14.1552307 32.9779016,14.2071045 C32.9087907,14.2464229 32.8253926,14.2375019 32.7665819,14.1915754 C31.7481939,13.3986004 30.9358093,12.3551774 30.2898888,11.2403867 C29.6526072,10.1179967 29.1904284,8.91333547 28.8339096,7.69017151 C28.4893522,6.46304267 28.2577644,5.21179417 28.1411399,3.95261593 C28.0245154,2.69343768 27.992618,1.43095538 28.1587499,0.164508193 C28.1720404,0.0610910349 28.2674001,-0.0119287479 28.3713986,0.00161790865 C28.4524709,0.0121909089 28.5149365,0.0719944414 28.5322142,0.146666255 L28.5335432,0.153274381 Z" id="Fill-201" fill="#D9642E"></path>
                    </g>
                </g>
            </g>
        </g>
    </g>
</svg>