<?xml version="1.0" encoding="UTF-8"?>
<svg width="106px" height="106px" viewBox="0 0 106 106" version="1.1" xmlns="http://www.w3.org/2000/svg" xmlns:xlink="http://www.w3.org/1999/xlink">
    <title>Check circle</title>
    <g id="Page-1" stroke="none" stroke-width="1" fill="none" fill-rule="evenodd">
        <g id="Check-circle" fill="#000000" fill-rule="nonzero">
            <path d="M52.9994422,0 C67.1642835,0 80.4588962,5.51023778 90.4747474,15.5252525 C100.489762,25.5413826 106,38.8357165 106,52.9994422 C106,67.1642835 100.489762,80.4588962 90.4747474,90.4747474 C80.4588962,100.489762 67.1642835,106 52.9994422,106 C38.8357165,106 25.5413826,100.489762 15.5252525,90.4747474 C5.51023778,80.4588962 0,67.1642835 0,52.9994422 C0,38.8357165 5.51023778,25.5413826 15.5252525,15.5252525 C25.5413826,5.51023778 38.8357165,0 52.9994422,0 Z M52.9994097,3.3125 C39.7329042,3.3125 27.2445595,8.47918486 17.8487916,17.8694038 C-1.53293055,37.2396795 -1.53293055,68.7603205 17.8487916,88.1303014 C27.2445595,97.5205204 39.7329042,102.6875 52.9994097,102.6875 C66.2670958,102.6875 78.7554404,97.5205204 88.1512082,88.1303014 C107.532931,68.7603205 107.532931,37.2396795 88.1512082,17.8694038 C78.7554404,8.47918486 66.2670958,3.3125 52.9994097,3.3125 Z M75.0307144,33.8961089 C75.7494802,33.1749783 76.9018443,33.1749783 77.6199323,33.8961089 C78.3380207,34.6167297 78.3380207,35.7727144 77.6199323,36.4940149 L77.6199323,36.4940149 L48.0780357,70.277264 L45.4756013,72.875 L42.9002769,70.277264 L29.7123397,57.6439571 C28.9935736,56.9226565 28.9935736,55.7666716 29.7123397,55.0460511 C30.4305974,54.3249205 31.5827918,54.3249205 32.3017273,55.0460511 L32.3017273,55.0460511 L45.4888175,67.680208 L75.0307144,33.8961089 Z" id="Combined-Shape"></path>
        </g>
    </g>
</svg>