<?xml version="1.0" encoding="UTF-8"?>
<svg width="32px" height="32px" viewBox="0 0 32 32" version="1.1" xmlns="http://www.w3.org/2000/svg" xmlns:xlink="http://www.w3.org/1999/xlink">
    <title>3. Elements_Icons/4. Descriptions/Check_circle</title>
    <g id="3.-Elements_Icons/4.-Descriptions/Check_circle" stroke="none" stroke-width="1" fill="none" fill-rule="evenodd">
        <path d="M15.9998316,0 C20.2760101,0 24.2894781,1.66346801 27.3131313,4.68686869 C30.336532,7.71060606 32,11.7239899 32,15.9998316 C32,20.2760101 30.336532,24.2894781 27.3131313,27.3131313 C24.2894781,30.336532 20.2760101,32 15.9998316,32 C11.7239899,32 7.71060606,30.336532 4.68686869,27.3131313 C1.66346801,24.2894781 0,20.2760101 0,15.9998316 C0,11.7239899 1.66346801,7.71060606 4.68686869,4.68686869 C7.71060606,1.66346801 11.7239899,0 15.9998316,0 Z M15.9998218,1 C11.994839,1 8.22477269,2.55975392 5.38831446,5.39453699 C-0.462771486,11.2421674 -0.462771486,20.7578326 5.38831446,26.605374 C8.22477269,29.4401571 11.994839,31 15.9998218,31 C20.005161,31 23.7752273,29.4401571 26.6116855,26.605374 C32.4627715,20.7578326 32.4627715,11.2421674 26.6116855,5.39453699 C23.7752273,2.55975392 20.005161,1 15.9998218,1 Z M22.6507817,10.2327876 C22.8677676,10.0150878 23.2156511,10.0150878 23.4324324,10.2327876 C23.6492138,10.4503335 23.6492138,10.79931 23.4324324,11.0170611 L23.4324324,11.0170611 L14.514124,21.2157778 L13.7284834,22 L12.951027,21.2157778 L8.96976292,17.4019493 C8.75277695,17.1841982 8.75277695,16.8352216 8.96976292,16.6176758 C9.18659543,16.399976 9.53442772,16.399976 9.75146484,16.6176758 L9.75146484,16.6176758 L13.7324732,20.4317609 Z" id="Combined-Shape" fill="#000000"></path>
    </g>
</svg>