<?xml version="1.0" encoding="UTF-8"?>
<svg width="106px" height="106px" viewBox="0 0 106 106" version="1.1" xmlns="http://www.w3.org/2000/svg" xmlns:xlink="http://www.w3.org/1999/xlink">
    <title>Component circle</title>
    <g id="Page-1" stroke="none" stroke-width="1" fill="none" fill-rule="evenodd">
        <g id="Component-circle" fill="#000000" fill-rule="nonzero">
            <path d="M52.9994422,0 C67.1642835,0 80.4588962,5.51023778 90.4747474,15.5252525 C100.489762,25.5413826 106,38.8357165 106,52.9994422 C106,67.1642835 100.489762,80.4588962 90.4747474,90.4747474 C80.4588962,100.489762 67.1642835,106 52.9994422,106 C38.8357165,106 25.5413826,100.489762 15.5252525,90.4747474 C5.51023778,80.4588962 0,67.1642835 0,52.9994422 C0,38.8357165 5.51023778,25.5413826 15.5252525,15.5252525 C25.5413826,5.51023778 38.8357165,0 52.9994422,0 Z M52.9994097,3.3125 C39.7329042,3.3125 27.2445595,8.47918486 17.8487916,17.8694038 C-1.53293055,37.2396795 -1.53293055,68.7603205 17.8487916,88.1303014 C27.2445595,97.5205204 39.7329042,102.6875 52.9994097,102.6875 C66.2670958,102.6875 78.7554404,97.5205204 88.1512082,88.1303014 C107.532931,68.7603205 107.532931,37.2396795 88.1512082,17.8694038 C78.7554404,8.47918486 66.2670958,3.3125 52.9994097,3.3125 Z M49.6875,33.125 C53.3463865,33.125 56.3125,36.0911135 56.3125,39.75 L56.3125,66.25 C56.3125,69.9088865 53.3463865,72.875 49.6875,72.875 L23.1875,72.875 C19.5286135,72.875 16.5625,69.9088865 16.5625,66.25 L16.5625,39.75 C16.5625,36.0911135 19.5286135,33.125 23.1875,33.125 L49.6875,33.125 Z M49.6875,36.4375 L23.1875,36.4375 C21.4887313,36.4375 20.0886325,37.7162582 19.8972856,39.3636926 L19.875,39.75 L19.875,66.25 C19.875,67.9487686 21.1537581,69.3488676 22.8011925,69.5402145 L23.1875,69.5625 L49.6875,69.5625 C51.3862686,69.5625 52.7863676,68.2837418 52.9777145,66.6363074 L53,66.25 L53,39.75 C53,37.9205569 51.5169431,36.4375 49.6875,36.4375 Z M79.5,33.125 C83.1588865,33.125 86.125,36.0911135 86.125,39.75 L86.125,49.6875 C86.125,53.3463865 83.1588865,56.3125 79.5,56.3125 L69.5625,56.3125 C65.9036135,56.3125 62.9375,53.3463865 62.9375,49.6875 L62.9375,39.75 C62.9375,36.0911135 65.9036135,33.125 69.5625,33.125 L79.5,33.125 Z M79.5,36.4375 L69.5625,36.4375 C67.8637314,36.4375 66.4636324,37.7162582 66.2722855,39.3636926 L66.25,39.75 L66.25,49.6875 C66.25,51.3862686 67.5287582,52.7863676 69.1761926,52.9777145 L69.5625,53 L79.5,53 C81.1987686,53 82.5988676,51.7212418 82.7902145,50.0738074 L82.8125,49.6875 L82.8125,39.75 C82.8125,37.9205569 81.3294431,36.4375 79.5,36.4375 Z" id="Combined-Shape"></path>
        </g>
    </g>
</svg>