<?xml version="1.0" encoding="UTF-8"?>
<svg width="32px" height="32px" viewBox="0 0 32 32" version="1.1" xmlns="http://www.w3.org/2000/svg" xmlns:xlink="http://www.w3.org/1999/xlink">
    <title>3. Elements_Icons/4. Descriptions/Component_circle</title>
    <g id="3.-Elements_Icons/4.-Descriptions/Component_circle" stroke="none" stroke-width="1" fill="none" fill-rule="evenodd">
        <path d="M15.9998316,0 C20.2760101,0 24.2894781,1.66346801 27.3131313,4.68686869 C30.336532,7.71060606 32,11.7239899 32,15.9998316 C32,20.2760101 30.336532,24.2894781 27.3131313,27.3131313 C24.2894781,30.336532 20.2760101,32 15.9998316,32 C11.7239899,32 7.71060606,30.336532 4.68686869,27.3131313 C1.66346801,24.2894781 0,20.2760101 0,15.9998316 C0,11.7239899 1.66346801,7.71060606 4.68686869,4.68686869 C7.71060606,1.66346801 11.7239899,0 15.9998316,0 Z M15.9998218,1 C11.994839,1 8.22477269,2.55975392 5.38831446,5.39453699 C-0.462771486,11.2421674 -0.462771486,20.7578326 5.38831446,26.605374 C8.22477269,29.4401571 11.994839,31 15.9998218,31 C20.005161,31 23.7752273,29.4401571 26.6116855,26.605374 C32.4627715,20.7578326 32.4627715,11.2421674 26.6116855,5.39453699 C23.7752273,2.55975392 20.005161,1 15.9998218,1 Z M15,10 C16.1045695,10 17,10.8954305 17,12 L17,20 C17,21.1045695 16.1045695,22 15,22 L7,22 C5.8954305,22 5,21.1045695 5,20 L5,12 C5,10.8954305 5.8954305,10 7,10 L15,10 Z M15,11 L7,11 C6.48716416,11 6.06449284,11.3860402 6.00672773,11.8833789 L6,12 L6,20 C6,20.5128358 6.38604019,20.9355072 6.88337887,20.9932723 L7,21 L15,21 C15.5128358,21 15.9355072,20.6139598 15.9932723,20.1166211 L16,20 L16,12 C16,11.4477153 15.5522847,11 15,11 Z M24,10 C25.1045695,10 26,10.8954305 26,12 L26,15 C26,16.1045695 25.1045695,17 24,17 L21,17 C19.8954305,17 19,16.1045695 19,15 L19,12 C19,10.8954305 19.8954305,10 21,10 L24,10 Z M24,11 L21,11 C20.4871642,11 20.0644928,11.3860402 20.0067277,11.8833789 L20,12 L20,15 C20,15.5128358 20.3860402,15.9355072 20.8833789,15.9932723 L21,16 L24,16 C24.5128358,16 24.9355072,15.6139598 24.9932723,15.1166211 L25,15 L25,12 C25,11.4477153 24.5522847,11 24,11 Z" id="Combined-Shape" fill="#000000"></path>
    </g>
</svg>