<?xml version="1.0" encoding="UTF-8"?>
<svg width="106px" height="106px" viewBox="0 0 106 106" version="1.1" xmlns="http://www.w3.org/2000/svg" xmlns:xlink="http://www.w3.org/1999/xlink">
    <title>Image circle</title>
    <g id="Page-1" stroke="none" stroke-width="1" fill="none" fill-rule="evenodd">
        <g id="Image-circle" fill="#000000" fill-rule="nonzero">
            <path d="M52.9994422,0 C67.1642835,0 80.4588962,5.51023778 90.4747474,15.5252525 C100.489762,25.5413826 106,38.8357165 106,52.9994422 C106,67.1642835 100.489762,80.4588962 90.4747474,90.4747474 C80.4588962,100.489762 67.1642835,106 52.9994422,106 C38.8357165,106 25.5413826,100.489762 15.5252525,90.4747474 C5.51023778,80.4588962 0,67.1642835 0,52.9994422 C0,38.8357165 5.51023778,25.5413826 15.5252525,15.5252525 C25.5413826,5.51023778 38.8357165,0 52.9994422,0 Z M102.28695,46.678047 L62.9375,76.1875 L43.0625,56.3125 L12.0269727,81.1423935 C13.7206899,83.6031828 15.6612962,85.9441312 17.8487916,88.1303014 C27.2445595,97.5205204 39.7329042,102.6875 52.9994097,102.6875 C66.2670958,102.6875 78.7554404,97.5205204 88.1512082,88.1303014 C99.4507287,76.8376262 104.162642,61.4150926 102.28695,46.678047 Z M52.9994097,3.3125 C39.7329042,3.3125 27.2445595,8.47918486 17.8487916,17.8694038 C1.41993183,34.288561 -1.08305328,59.4378229 10.3398363,78.5169149 L43.0625,52.3375 L62.9375,72.2125 L101.70655,43.1381105 C99.8430775,33.8721731 95.3246304,25.0385891 88.1512082,17.8694038 C78.7554404,8.47918486 66.2670958,3.3125 52.9994097,3.3125 Z M67.90625,33.125 C72.4798582,33.125 76.1875,36.8326418 76.1875,41.40625 C76.1875,45.9798582 72.4798582,49.6875 67.90625,49.6875 C63.3326418,49.6875 59.625,45.9798582 59.625,41.40625 C59.625,36.8326418 63.3326418,33.125 67.90625,33.125 Z M67.90625,36.4375 C65.1620852,36.4375 62.9375,38.6620852 62.9375,41.40625 C62.9375,44.1504148 65.1620852,46.375 67.90625,46.375 C70.6504148,46.375 72.875,44.1504148 72.875,41.40625 C72.875,38.6620852 70.6504148,36.4375 67.90625,36.4375 Z" id="Combined-Shape"></path>
        </g>
    </g>
</svg>