<?xml version="1.0" encoding="UTF-8"?>
<svg width="32px" height="32px" viewBox="0 0 32 32" version="1.1" xmlns="http://www.w3.org/2000/svg" xmlns:xlink="http://www.w3.org/1999/xlink">
    <title>3. Elements_Icons/4. Descriptions/Image_circle</title>
    <g id="3.-Elements_Icons/4.-Descriptions/Image_circle" stroke="none" stroke-width="1" fill="none" fill-rule="evenodd">
        <path d="M15.9998316,0 C20.2760101,0 24.2894781,1.66346801 27.3131313,4.68686869 C30.336532,7.71060606 32,11.7239899 32,15.9998316 C32,20.2760101 30.336532,24.2894781 27.3131313,27.3131313 C24.2894781,30.336532 20.2760101,32 15.9998316,32 C11.7239899,32 7.71060606,30.336532 4.68686869,27.3131313 C1.66346801,24.2894781 0,20.2760101 0,15.9998316 C0,11.7239899 1.66346801,7.71060606 4.68686869,4.68686869 C7.71060606,1.66346801 11.7239899,0 15.9998316,0 Z M30.8790792,14.0914859 L19,23 L13,17 L3.63078422,24.4958169 C4.14209507,25.2386967 4.72793848,25.9453981 5.38831446,26.605374 C8.22477269,29.4401571 11.994839,31 15.9998218,31 C20.005161,31 23.7752273,29.4401571 26.6116855,26.605374 C30.0228615,23.1962645 31.445326,18.5404053 30.8790792,14.0914859 Z M15.9998218,1 C11.994839,1 8.22477269,2.55975392 5.38831446,5.39453699 C0.428658667,10.3512637 -0.32695948,17.9434937 3.12146002,23.7032196 L13,15.8 L19,21.8 L30.7038641,13.0228258 C30.1413064,10.2255617 28.7772469,7.55881936 26.6116855,5.39453699 C23.7752273,2.55975392 20.005161,1 15.9998218,1 Z M20.5,10 C21.8807119,10 23,11.1192881 23,12.5 C23,13.8807119 21.8807119,15 20.5,15 C19.1192881,15 18,13.8807119 18,12.5 C18,11.1192881 19.1192881,10 20.5,10 Z M20.5,11 C19.6715729,11 19,11.6715729 19,12.5 C19,13.3284271 19.6715729,14 20.5,14 C21.3284271,14 22,13.3284271 22,12.5 C22,11.6715729 21.3284271,11 20.5,11 Z" id="Combined-Shape" fill="#000000"></path>
    </g>
</svg>