<?xml version="1.0" encoding="UTF-8"?>
<svg width="106px" height="106px" viewBox="0 0 106 106" version="1.1" xmlns="http://www.w3.org/2000/svg" xmlns:xlink="http://www.w3.org/1999/xlink">
    <title>Interaction circle</title>
    <g id="Page-1" stroke="none" stroke-width="1" fill="none" fill-rule="evenodd">
        <g id="Interaction-circle" fill="#000000" fill-rule="nonzero">
            <path d="M52.9994422,0 C67.1642835,0 80.4588962,5.51023778 90.4747474,15.5252525 C100.489762,25.5413826 106,38.8357165 106,52.9994422 C106,67.1642835 100.489762,80.4588962 90.4747474,90.4747474 C80.4588962,100.489762 67.1642835,106 52.9994422,106 C38.8357165,106 25.5413826,100.489762 15.5252525,90.4747474 C5.51023778,80.4588962 0,67.1642835 0,52.9994422 C0,38.8357165 5.51023778,25.5413826 15.5252525,15.5252525 C25.5413826,5.51023778 38.8357165,0 52.9994422,0 Z M52.9994097,3.3125 C39.7329042,3.3125 27.2445595,8.47918486 17.8487916,17.8694038 C-1.53293055,37.2396795 -1.53293055,68.7603205 17.8487916,88.1303014 C27.2445595,97.5205204 39.7329042,102.6875 52.9994097,102.6875 C66.2670958,102.6875 78.7554404,97.5205204 88.1512082,88.1303014 C107.532931,68.7603205 107.532931,37.2396795 88.1512082,17.8694038 C78.7554404,8.47918486 66.2670958,3.3125 52.9994097,3.3125 Z M47.4274939,19.875 C50.3072883,19.875 52.6492096,22.2169212 52.6492096,25.0967157 L52.6492096,25.0967157 L52.6492096,33.6315839 C53.4167956,33.1851308 54.3097022,32.929228 55.2600061,32.929228 C57.5340049,32.929228 59.4738977,34.3913376 60.1892264,36.4225285 C61.0194727,35.86642 62.0194641,35.5400245 63.0925184,35.5400245 C65.3665172,35.5400245 67.3064102,37.0021345 68.0217387,39.0333251 C68.851985,38.4772166 69.8519767,38.1508214 70.9250306,38.1508214 C73.8048254,38.1508214 76.1467463,40.4927423 76.1467463,43.3725371 L76.1467463,43.3725371 L76.1467463,65.5646143 C76.1467463,74.9218964 68.5335444,82.5350987 59.1762623,82.5350987 C53.7770913,82.5350987 48.6989308,80.4334151 44.8844972,76.6162892 L44.8844972,76.6162892 L28.0028633,59.734655 C27.0602694,58.7921835 26.5407536,57.5415518 26.5407536,56.2074547 C26.5407536,53.4425778 28.775712,51.2050493 31.5274938,51.2050493 C32.7362708,51.2050493 33.9477402,51.4895898 35.0286268,52.0301553 L35.0286268,52.0301553 L42.2057782,55.6200162 L42.2057782,25.0967157 C42.2057782,22.2169212 44.5476995,19.875 47.4274939,19.875 Z M47.4274939,22.485919 C45.9863116,22.485919 44.8166973,23.6581035 44.8166973,25.0967157 L44.8166973,25.0967157 L44.8166973,57.7322246 C44.8166973,58.1839403 44.5817218,58.6043257 44.1979286,58.841871 C43.8167056,59.0794167 43.3337825,59.1003441 42.9290616,58.8992687 L42.9290616,58.8992687 L33.8615824,54.3668144 C33.1384213,54.0065187 32.3342426,53.8159681 31.5274938,53.8159681 C30.2168942,53.8159681 29.1516726,54.88119 29.1516726,56.1917895 C29.1516726,56.8418882 29.3997429,57.4397292 29.8487662,57.8861823 L29.8487662,57.8861823 L46.7329703,74.7678165 C50.0539556,78.0939418 54.4714923,79.9241795 59.1735698,79.9241795 C67.0922399,79.9241795 73.5358275,73.4832843 73.5358275,65.5646143 L73.5358275,65.5646143 L73.5358275,43.3725371 C73.5358275,41.9340472 72.3662129,40.7617402 70.9250306,40.7617402 C69.4838487,40.7617402 68.3142341,41.9339246 68.3142341,43.3725371 L68.3142341,43.3725371 L68.3142341,49.899712 C68.3142341,50.6203033 67.7293658,51.2051716 67.0087745,51.2051716 C66.2881835,51.2051716 65.7033153,50.6203033 65.7033153,49.899712 L65.7033153,49.899712 L65.7033153,40.7617402 C65.7033153,39.3232506 64.5337007,38.1509436 63.0925184,38.1509436 C61.6513361,38.1509436 60.4817218,39.3231281 60.4817218,40.7617402 L60.4817218,40.7617402 L60.4817218,49.899712 C60.4817218,50.6203033 59.8968536,51.2051716 59.1762623,51.2051716 C58.4556713,51.2051716 57.8708027,50.6203033 57.8708027,49.899712 L57.8708027,49.899712 L57.8708027,38.1509436 C57.8708027,36.7124537 56.7011884,35.5401471 55.2600061,35.5401471 C53.8188238,35.5401471 52.6492096,36.7123315 52.6492096,38.1509436 L52.6492096,38.1509436 L52.6492096,49.899712 C52.6492096,50.6203033 52.064341,51.2051716 51.34375,51.2051716 C50.623159,51.2051716 50.0382904,50.6203033 50.0382904,49.899712 L50.0382904,49.899712 L50.0382904,25.0967157 C50.0382904,23.6582258 48.8686762,22.485919 47.4274939,22.485919 Z" id="Combined-Shape"></path>
        </g>
    </g>
</svg>