<?xml version="1.0" encoding="UTF-8"?>
<svg width="32px" height="32px" viewBox="0 0 32 32" version="1.1" xmlns="http://www.w3.org/2000/svg" xmlns:xlink="http://www.w3.org/1999/xlink">
    <title>Interaction circle</title>
    <g id="Page-1" stroke="none" stroke-width="1" fill="none" fill-rule="evenodd">
        <g id="Interaction-circle" fill="#000000" fill-rule="nonzero">
            <path d="M15.9998316,0 C20.2760101,0 24.2894781,1.66346801 27.3131313,4.68686869 C30.336532,7.71060606 32,11.7239899 32,15.9998316 C32,20.2760101 30.336532,24.2894781 27.3131313,27.3131313 C24.2894781,30.336532 20.2760101,32 15.9998316,32 C11.7239899,32 7.71060606,30.336532 4.68686869,27.3131313 C1.66346801,24.2894781 0,20.2760101 0,15.9998316 C0,11.7239899 1.66346801,7.71060606 4.68686869,4.68686869 C7.71060606,1.66346801 11.7239899,0 15.9998316,0 Z M15.9998218,1 C11.994839,1 8.22477269,2.55975392 5.38831446,5.39453699 C-0.462771486,11.2421674 -0.462771486,20.7578326 5.38831446,26.605374 C8.22477269,29.4401571 11.994839,31 15.9998218,31 C20.005161,31 23.7752273,29.4401571 26.6116855,26.605374 C32.4627715,20.7578326 32.4627715,11.2421674 26.6116855,5.39453699 C23.7752273,2.55975392 20.005161,1 15.9998218,1 Z M14.317734,6 C15.1871059,6 15.894101,6.70699507 15.894101,7.576367 L15.894101,7.576367 L15.894101,10.152931 C16.1258251,10.0181527 16.3953818,9.94089901 16.682266,9.94089901 C17.3687562,9.94089901 17.9543842,10.3822906 18.1703325,10.9954803 C18.4209729,10.8275985 18.7228571,10.729064 19.046798,10.729064 C19.7332882,10.729064 20.3189163,11.1704557 20.5348645,11.7836453 C20.7855049,11.6157635 21.0873892,11.5172291 21.41133,11.5172291 C22.280702,11.5172291 22.987697,12.2242241 22.987697,13.0935961 L22.987697,13.0935961 L22.987697,19.7930911 C22.987697,22.617931 20.6893719,24.9162562 17.864532,24.9162562 C16.2345936,24.9162562 14.701564,24.2817857 13.5500369,23.1294458 L13.5500369,23.1294458 L8.45369458,18.0331034 C8.16913793,17.7485837 8.01230296,17.3710345 8.01230296,16.9682882 C8.01230296,16.1336084 8.68700739,15.4581281 9.51773399,15.4581281 C9.88264778,15.4581281 10.2483744,15.5440271 10.5746798,15.7072167 L10.5746798,15.7072167 L12.741367,16.7909483 L12.741367,7.576367 C12.741367,6.70699507 13.4483621,6 14.317734,6 Z M14.317734,6.78820197 C13.8826601,6.78820197 13.529569,7.14206897 13.529569,7.576367 L13.529569,7.576367 L13.529569,17.4285961 C13.529569,17.5649631 13.458633,17.6918719 13.3427709,17.7635837 C13.2276847,17.8352956 13.0818966,17.8416133 12.9597167,17.7809113 L12.9597167,17.7809113 L10.2223645,16.4126232 C10.0040517,16.3038547 9.76128079,16.24633 9.51773399,16.24633 C9.12208128,16.24633 8.80050493,16.5679064 8.80050493,16.9635591 C8.80050493,17.1598153 8.87539409,17.3402956 9.01094828,17.4750739 L9.01094828,17.4750739 L14.1080665,22.5714163 C15.1106281,23.5755296 16.4442241,24.1280542 17.8637192,24.1280542 C20.2542611,24.1280542 22.1994951,22.183633 22.1994951,19.7930911 L22.1994951,19.7930911 L22.1994951,13.0935961 C22.1994951,12.659335 21.8464039,12.305431 21.41133,12.305431 C20.9762562,12.305431 20.623165,12.659298 20.623165,13.0935961 L20.623165,13.0935961 L20.623165,15.064064 C20.623165,15.281601 20.446601,15.458165 20.229064,15.458165 C20.0115271,15.458165 19.8349631,15.281601 19.8349631,15.064064 L19.8349631,15.064064 L19.8349631,12.305431 C19.8349631,11.87117 19.4818719,11.517266 19.046798,11.517266 C18.6117241,11.517266 18.258633,11.871133 18.258633,12.305431 L18.258633,12.305431 L18.258633,15.064064 C18.258633,15.281601 18.082069,15.458165 17.864532,15.458165 C17.6469951,15.458165 17.470431,15.281601 17.470431,15.064064 L17.470431,15.064064 L17.470431,11.517266 C17.470431,11.0830049 17.1173399,10.729101 16.682266,10.729101 C16.2471921,10.729101 15.894101,11.082968 15.894101,11.517266 L15.894101,11.517266 L15.894101,15.064064 C15.894101,15.281601 15.7175369,15.458165 15.5,15.458165 C15.2824631,15.458165 15.105899,15.281601 15.105899,15.064064 L15.105899,15.064064 L15.105899,7.576367 C15.105899,7.14210591 14.7528079,6.78820197 14.317734,6.78820197 Z" id="Combined-Shape"></path>
        </g>
    </g>
</svg>