<?xml version="1.0" encoding="UTF-8"?>
<svg width="106px" height="106px" viewBox="0 0 106 106" version="1.1" xmlns="http://www.w3.org/2000/svg" xmlns:xlink="http://www.w3.org/1999/xlink">
    <title>4. Elements_Microillustrations/Leaf</title>
    <defs>
        <path d="M88,44 C88,68.3004855 68.3000427,88 43.9990109,88 C19.6979792,88 0,68.3004855 0,44 C0,19.6995145 19.6979792,0 43.9990109,0 C68.3000427,0 88,19.6995145 88,44" id="path-1"></path>
        <polygon id="path-3" points="0 0.00251928429 42.6682783 0.00251928429 42.6682783 65.8687479 0 65.8687479"></polygon>
    </defs>
    <g id="4.-Elements_Microillustrations/Leaf" stroke="none" stroke-width="1" fill="none" fill-rule="evenodd">
        <g id="Vector-Smart-Object" transform="translate(9.000000, 9.000000)">
            <mask id="mask-2" fill="white">
                <use xlink:href="#path-1"></use>
            </mask>
            <use id="Mask" fill="#D5F8FF" xlink:href="#path-1"></use>
        </g>
        <g id="Group-38" transform="translate(32.000000, 20.000000)">
            <g id="Group-3" transform="translate(0.000000, 0.128720)">
                <mask id="mask-4" fill="white">
                    <use xlink:href="#path-3"></use>
                </mask>
                <g id="Clip-2"></g>
                <path d="M35.1244783,34.2590779 L34.6809793,34.3492211 C32.4434087,34.8042668 30.8974604,32.1693841 32.3862,30.4381634 L34.9378938,27.4706565 C36.6018024,25.5357936 36.9760211,22.8049944 35.8941722,20.4939447 L35.8052099,20.3038175 C34.9486533,18.4736624 33.0921245,17.3220083 31.0718421,17.3675392 L29.8337189,17.3954875 C28.4424704,17.4268473 27.6877348,15.7796028 28.6200012,14.7464338 L30.3726095,12.8039606 C31.1814048,11.9076465 31.3416155,10.6005054 30.7730708,9.53545169 C30.1195002,8.31123698 28.6827209,7.73127674 27.3625897,8.15903022 L25.9113769,8.62903419 C24.7841284,8.9941992 23.6689515,8.03975785 23.8556672,6.869734 L24.3953451,3.48877575 C24.564872,2.42647753 24.1253093,1.35893082 23.2568123,0.724123658 L23.0248282,0.554596819 C22.0179018,-0.181506561 20.6504028,-0.181506561 19.6434763,0.554596819 L19.4114922,0.724123658 C18.5431264,1.35893082 18.1033014,2.42647753 18.2729594,3.48877575 L18.8126374,6.869734 C18.9993531,8.03975785 17.8841761,8.9941992 16.7570588,8.62903419 L15.3058461,8.15903022 C13.9855837,7.73127674 12.5486732,8.31123698 11.895365,9.53545169 C11.3268203,10.6005054 11.487031,11.9076465 12.295695,12.8039606 L14.0483034,14.7464338 C14.9805698,15.7796028 14.2259654,17.4268473 12.8345857,17.3954875 L11.5963312,17.3675392 C9.57618012,17.3220083 7.7197825,18.4736624 6.86296342,20.3038175 L6.77413241,20.4939447 C5.6922835,22.8049944 6.0666334,25.5357936 7.73041074,27.4706565 L10.2822358,30.4381634 C11.7709753,32.1693841 10.2247646,34.8042668 7.98745646,34.3492211 L7.54382624,34.2590779 C4.46898728,33.6335869 1.41645447,35.4235909 0.460700994,38.4122231 C-0.548587276,41.5692012 0.124271571,45.0228513 2.24506282,47.5698215 L3.44920199,49.0159169 C5.94027555,52.0078294 9.03505885,54.4398573 12.5310907,56.1529706 L14.1716433,56.9570421 C16.1370787,57.9201435 17.6237189,59.6444099 18.2871304,61.7300362 L19.0791304,64.2196664 C19.3915479,65.2017936 20.3036076,65.8687479 21.3341523,65.8687479 C22.3648282,65.8687479 23.2768879,65.2017936 23.5893054,64.2196664 L24.3811742,61.7300362 C25.0447169,59.6444099 26.5313571,57.9201435 28.4966612,56.9570421 L30.1372139,56.1529706 C33.6332457,54.4398573 36.728029,52.0078294 39.2191026,49.0159169 L40.423373,47.5698215 C42.544033,45.0228513 43.2170231,41.5692012 42.2074724,38.4122231 C41.2518501,35.4235909 38.1994485,33.6335869 35.1244783,34.2590779" id="Fill-1" fill="#3CA1FF" mask="url(#mask-4)"></path>
            </g>
            <path d="M21.5383193,63.9496175 C21.5334644,64.1246553 21.528872,64.2995618 21.5238859,64.4745996 C21.5410748,64.4637089 21.5570827,64.4505877 21.5694167,64.4336612 C22.2521165,63.5057249 23.1464624,62.9827109 24.1435479,62.6056056 L24.2691185,62.2107865 C23.2359495,62.5729336 22.2929237,63.065375 21.5383193,63.9496175" id="Fill-4" fill="#0064D7"></path>
            <path d="M40.6192604,43.80193 C39.2679006,43.4211507 37.8704851,43.0273813 35.2771968,44.2240414 C33.8929026,44.8627849 32.911825,46.3264628 31.8731451,47.8760851 C30.9815547,49.2061885 30.0595229,50.5815602 28.8585328,51.4058386 C27.7584453,52.1607054 26.5218966,52.4324469 25.3257614,52.6951348 C23.990672,52.9885264 22.7192207,53.2695841 21.7515268,54.1850553 C21.7489026,54.3453972 21.7457535,54.5058704 21.7431292,54.6662123 C22.6704095,53.6161169 23.9969702,53.3231189 25.3959602,53.0156875 C26.6227992,52.7460453 27.8913638,52.4673495 29.0440676,51.676268 C30.2970179,50.816431 31.2367634,49.4144231 32.1455427,48.058602 C33.1579801,46.5484748 34.1141272,45.1220612 35.4147078,44.521763 C37.8979085,43.3761447 39.1767078,43.7363237 40.5302982,44.1176278 C41.0543618,44.2652421 41.5868231,44.4146934 42.1955189,44.4835801 C42.2298966,44.3769042 42.2623062,44.269441 42.2932724,44.1615841 C41.6785408,44.0989956 41.1442425,43.9498068 40.6192604,43.80193" id="Fill-6" fill="#0064D7"></path>
            <path d="M30.4322064,39.2838036 C29.7209022,40.5595849 28.9853237,41.8785352 27.9413952,42.6215928 C26.9649101,43.3166266 25.8316258,43.4896962 24.7357372,43.6568612 C23.6797372,43.8181217 22.669268,43.9726903 21.8708386,44.5733821 L21.8671646,45.0065153 C22.6318724,44.3118751 23.6818366,44.149565 24.7852044,43.9812191 C25.9190135,43.8081495 27.0915304,43.6291753 28.1317849,42.8890044 C29.2358087,42.1029089 29.9896258,40.7510243 30.718775,39.4434895 C31.4997531,38.0429249 32.2372998,36.7200382 33.3278087,36.1782608 C35.432592,35.1326266 36.587264,35.5008095 37.809773,35.8902489 C38.6891606,36.1703881 39.5930851,36.4585312 40.8621746,36.2366505 C40.7695384,36.1367976 40.6746716,36.0391753 40.5759996,35.9460143 C39.4962501,36.0823443 38.6923097,35.8272668 37.909101,35.5777002 C36.6784569,35.1852429 35.4055622,34.7797956 33.1819002,35.8846068 C32.0003296,36.4715213 31.2386398,37.8375769 30.4322064,39.2838036" id="Fill-8" fill="#0064D7"></path>
            <path d="M29.2728239,30.831093 C29.8254918,29.5408783 30.3477185,28.3221746 31.233798,27.8386557 C32.8780247,26.9414231 33.8972851,27.2315344 34.9374083,27.5998485 L34.9379332,27.5993237 C35.0137742,27.5111487 35.0859412,27.4210056 35.1562712,27.3294191 C34.0547404,26.9361746 32.9054481,26.5530334 31.0767364,27.5506437 C30.090804,28.0887471 29.5470584,29.3579678 28.971297,30.7019797 C28.451301,31.9158286 27.9135913,33.1710095 27.0340724,33.8281229 C26.1920803,34.4572879 25.1687523,34.5260433 24.1792771,34.5925682 C23.3603785,34.6476775 22.5734958,34.7009499 21.9312095,35.0600791 C21.9308159,35.1899797 21.9300286,35.3198803 21.9295038,35.4495185 C22.5288835,35.034099 23.3178656,34.9792521 24.2013209,34.9198127 C25.2384262,34.8501388 26.3106966,34.7779718 27.2304978,34.0908107 C28.1804779,33.3810811 28.7357702,32.0848306 29.2728239,30.831093" id="Fill-10" fill="#0064D7"></path>
            <path d="M28.9560632,19.2265742 C28.1589459,19.7188843 27.8347193,20.8908763 27.491598,22.1314926 C27.1761626,23.2723873 26.8497054,24.4522521 26.1418127,25.0181726 C25.4452044,25.5753018 24.5369499,25.5363316 23.659268,25.4991984 C23.0626437,25.4734807 22.4538167,25.4481567 21.9402501,25.6298863 L21.9402501,25.9807491 C22.3992322,25.7746139 22.9907392,25.7990195 23.645097,25.8268366 C24.5398366,25.8650195 25.5538485,25.907926 26.346767,25.274431 C27.1375861,24.6421169 27.4782143,23.4102918 27.8078207,22.2188803 C28.1332282,21.0420334 28.4407909,19.9303992 29.1283455,19.5056636 C30.48994,18.6645901 31.4241746,19.0318545 32.4131249,19.4206378 C33.2766358,19.7599539 34.1687511,20.1092421 35.3331328,19.6312342 C35.2667392,19.5382044 35.1974588,19.44793 35.1255543,19.3601487 C34.1226954,19.7380414 33.3485404,19.4359897 32.5330533,19.1153058 C31.5124807,18.7141885 30.4571368,18.2995563 28.9560632,19.2265742" id="Fill-12" fill="#0064D7"></path>
            <path d="M21.860066,16.2643026 C21.8620342,16.3746525 21.8629527,16.4850024 21.8647897,16.5953523 C22.2047618,16.5254159 22.6410441,16.6049308 23.1193145,16.6928433 C23.9219427,16.8401952 24.8316406,17.007229 25.4916406,16.4235948 C26.1184437,15.8686962 26.2223642,14.7165173 26.3230044,13.6022588 C26.4139348,12.5928394 26.5081455,11.5487797 27.0033423,11.1850581 C28.000559,10.4526286 28.8485869,10.8008672 29.7462131,11.1697062 C30.171736,11.3444815 30.6046068,11.5221435 31.0538791,11.5794835 C31.0756604,11.4714954 31.0894378,11.362064 31.0984915,11.2521078 C30.6902887,11.2019845 30.2865471,11.0370501 29.8708652,10.8662111 C28.9727141,10.4975034 27.9546346,10.0793284 26.8091475,10.9205332 C26.1946783,11.3721674 26.098237,12.4410262 25.9961535,13.572736 C25.9014179,14.623225 25.8035332,15.709404 25.2740899,16.1778334 C24.7340183,16.6558414 23.9434616,16.5107201 23.1784915,16.3701913 C22.7229209,16.2864775 22.258559,16.2017141 21.860066,16.2643026" id="Fill-14" fill="#0064D7"></path>
            <path d="M22.6272274,7.49649781 C23.0472394,7.64594911 23.5000545,7.80694712 23.9078636,7.80694712 C23.9170485,7.80694712 23.925971,7.80615984 23.9352871,7.80589742 C23.895792,7.70118966 23.8677125,7.59083976 23.8514421,7.47655348 C23.5163249,7.46382584 23.1230803,7.32460915 22.7371837,7.18749185 C22.3581101,7.05273638 21.9719511,6.91614394 21.6487742,6.91968668 C21.6521857,7.02898688 21.6557284,7.13802465 21.65914,7.24706243 C21.9127742,7.24286362 22.2631121,7.36699085 22.6272274,7.49649781" id="Fill-16" fill="#0064D7"></path>
            <path d="M15.7348461,43.4840147 C15.3444883,43.3384998 14.9630529,43.1487662 14.5981503,42.8890962 C13.493864,42.103132 12.7399157,40.7509849 12.0107666,39.4434501 C11.2296573,38.0427543 10.4918481,36.7198676 9.40107674,36.177959 C7.29655586,35.1327185 6.14201511,35.5003765 4.91963738,35.8900783 C4.02830934,36.1741539 3.11113241,36.4651837 1.81553797,36.2265078 C1.21537097,36.8711559 0.744842147,37.6525276 0.4607666,38.540969 C-0.132970974,40.3977602 -0.143992843,42.3568974 0.378627435,44.1741936 C1.04912445,44.1207901 1.62108072,43.9601857 2.1829336,43.8019431 C3.53429344,43.4209014 4.93170895,43.0272632 7.52499722,44.2240545 C8.90929145,44.862798 9.89036899,46.3264759 10.9290489,47.8762294 C11.8207706,49.2062016 12.7426712,50.5817046 13.9437924,51.4059829 C15.0437487,52.1608497 16.2805598,52.4325913 17.4765638,52.6952791 C17.8992,52.7881777 18.3150131,52.8802891 18.7173113,52.9910326 C17.0373948,50.9517245 15.5200509,49.177466 15.4375181,45.6267185 C15.417705,44.7717364 15.5317288,44.0864123 15.7348461,43.4840147" id="Fill-18" fill="#0064D7"></path>
            <path d="M18.4558437,34.9199571 C17.4187384,34.8502831 16.346468,34.7781161 15.4266668,34.0909551 C14.4766867,33.3810942 13.9212632,32.0848437 13.3842095,30.8311062 C12.8314103,29.5408915 12.3090525,28.3221877 11.4228417,27.8385376 C9.78346998,26.9441917 8.76525924,27.2298417 7.72815388,27.5967125 C7.72894115,27.5974998 7.72959722,27.5984183 7.73038449,27.5993368 L10.2822095,30.5668437 C11.7709491,32.2981956 10.2248696,34.9332095 7.98743022,34.4780326 L7.5438,34.3877583 C5.52338648,33.9769312 3.51281392,34.6087205 2.10030895,35.938299 C3.20656342,36.0898497 4.02441233,35.8312294 4.81995507,35.5775952 C6.05086163,35.1852692 7.32349384,34.7795594 9.54715586,35.8843706 C10.7288577,36.4712851 11.4905475,37.8373408 12.2971121,39.2836986 C13.0086787,40.5593487 13.7443885,41.8786926 14.7883169,42.6217503 C15.1256648,42.8618696 15.4820386,43.0387443 15.8489093,43.175468 C16.723967,41.0125575 18.7521221,39.8128795 19.5985753,35.0333249 C19.2431201,34.9736231 18.8594541,34.9471181 18.4558437,34.9199571" id="Fill-20" fill="#0064D7"></path>
            <path d="M18.1311447,25.8441042 C17.4697014,25.8317702 16.7984171,25.7226012 16.2377451,25.274641 C15.446926,24.6423268 15.1060354,23.4103706 14.7765602,22.218959 C14.4510215,21.0419809 14.1434588,19.9304779 13.4559042,19.5056111 C12.0943097,18.6645376 11.1600751,19.031802 10.1712561,19.4205853 C9.32375308,19.7537344 8.44895785,20.0960684 7.31646083,19.6575555 C7.14535944,19.9000366 6.99170934,20.1576072 6.86298966,20.432629 L6.77402744,20.6224938 C5.74217058,22.8272612 6.03608708,25.4130704 7.50960596,27.3264143 C8.60838131,26.9338258 9.75636143,26.5555396 11.5799559,27.5505256 C12.5658883,28.0884978 13.109765,29.3579809 13.6856577,30.7018616 C14.2057849,31.9157105 14.7434946,33.1710227 15.6230135,33.8282672 C16.4651368,34.4574322 17.4883336,34.5261877 18.4778087,34.5927125 C18.8819439,34.6198736 19.2780751,34.6467722 19.6532123,34.7098855 C19.6592481,34.6726211 19.6654151,34.6362751 19.6713197,34.5984859 C20.2857889,30.6333686 19.2261149,28.0224978 18.1311447,25.8441042" id="Fill-22" fill="#0064D7"></path>
            <path d="M17.4491928,16.6909932 C17.2980358,16.6280111 17.1537018,16.5418044 17.0201272,16.4235817 C16.3930616,15.8684207 16.2890099,14.7162417 16.1883698,13.6018521 C16.0970457,12.5924326 16.0029662,11.5485042 15.507507,11.1845201 C14.5105527,10.4518282 13.6625249,10.8005917 12.7650298,11.1694306 C12.3880557,11.3243928 12.0051769,11.4813233 11.6100954,11.5549336 C11.706668,12.0570847 11.9370775,12.5352239 12.2956819,12.9326672 L14.0482903,14.8751404 C14.9805567,15.9083093 14.2259523,17.5555539 12.8345726,17.524194 L11.5964493,17.4962457 C9.99722863,17.4601622 8.50271571,18.1763213 7.52347515,19.3834783 C8.49497416,19.7245002 9.2533837,19.4287467 10.0511571,19.1154107 C11.0717296,18.714031 12.1268111,18.2991364 13.6282783,19.2265479 C14.4253956,19.7189893 14.7496223,20.8908501 15.0927435,22.1314664 C15.4083101,23.2724922 15.7347674,24.4523571 16.44266,25.0184087 C16.8845845,25.3716334 17.411666,25.48487 17.9619722,25.5111125 C17.0936064,23.8157129 16.2560755,22.3629256 16.268672,20.6924565 C16.2794314,19.2684048 16.7944414,17.9636254 17.4491928,16.6909932" id="Fill-24" fill="#0064D7"></path>
            <path d="M19.0113197,1.20904652 C18.4133833,1.84779006 18.131932,2.73413201 18.2729857,3.61745606 L18.8125324,6.99841431 C18.8374628,7.15377018 18.838775,7.30518966 18.8205364,7.45044215 C19.0984449,7.40136859 19.4023336,7.29390537 19.7018922,7.18749185 C19.7234111,7.17988151 19.74493,7.17213996 19.7664489,7.16452962 C19.4664966,6.19276819 19.0917531,5.22835467 18.8694787,4.23953559 C18.6255543,3.15322545 18.6506159,2.11402068 19.0113197,1.20904652" id="Fill-26" fill="#0064D7"></path>
            <path d="M19.8606203,7.47919085 C19.8443499,7.48496421 19.8282107,7.49073757 19.8118091,7.49651093 C19.46134,7.62116302 19.0883022,7.75316302 18.7373082,7.79357654 C18.4586123,8.55277336 17.611503,9.03458648 16.7570457,8.75772763 L15.305833,8.28772366 C13.9857018,7.85997018 12.54866,8.43993042 11.8953519,9.66414513 C11.6331889,10.1552744 11.527825,10.6977078 11.5677137,11.2276759 C11.9234314,11.159839 12.2774433,11.0149801 12.6405089,10.8660537 C13.5383976,10.4970835 14.5563459,10.0789085 15.701833,10.9201133 C16.3163022,11.3716163 16.4128748,12.4407376 16.5150895,13.5724473 C16.6099563,14.6229364 16.7081034,15.7092465 17.2375467,16.1778072 C17.3489463,16.2766103 17.4717614,16.3474652 17.6021869,16.3986382 C18.7188072,14.2977913 20.1432525,12.2664871 20.2256541,9.9092505 C20.2545209,9.0801173 20.0906362,8.27604573 19.8606203,7.47919085" id="Fill-28" fill="#0064D7"></path>
            <path d="M21.6858024,57.8604024 C21.6541801,59.4472891 21.6166533,61.0340445 21.5750588,62.6206688 C21.9356314,61.0013726 22.1724704,59.5484541 21.6858024,57.8604024" id="Fill-30" fill="#0064D7"></path>
            <path d="M18.4978712,62.5213932 L19.0791435,64.3483992 C19.3174258,65.0978863 19.9056525,65.6626258 20.6285034,65.8888366 C20.921239,65.5262958 21.0465471,65.04527 21.1401018,64.5827451 C21.1592588,64.4872223 21.179072,64.393274 21.1988851,64.2994569 C20.4762966,63.3879221 19.5374696,62.8873455 18.4978712,62.5213932" id="Fill-32" fill="#0064D7"></path>
            <path d="M21.2346274,45.0648525 L21.2226871,40.9502839 C21.2275419,38.2072819 21.2205877,35.4642799 21.2352835,32.7212779 L21.3157169,16.2644469 L21.3439276,8.33355626 L21.3434028,8.03635944 C21.3422219,7.82025209 21.3424843,7.60427594 21.3418282,7.38816859 C21.3439276,7.38567555 21.3465519,7.38357614 21.3483889,7.3810831 C21.3493074,7.24580278 21.3499634,7.11065368 21.3506195,6.97537336 C21.347208,6.9768167 21.3440588,6.97839125 21.3409097,6.97996581 C21.3356612,4.69752048 21.3479952,2.41520636 21.3587547,0.132367396 C21.3536374,0.132236183 21.3483889,0.131580119 21.3432716,0.131580119 C21.2179634,2.40615268 21.1199475,4.68190616 21.0413511,6.95844692 C20.6965241,6.84573519 20.2291443,7.00043499 19.7664883,7.16445089 C19.7988978,7.26928986 19.8302577,7.37412883 19.8605678,7.47923022 C20.3501225,7.30537336 20.8079237,7.15119841 21.0288859,7.31993797 C20.9289018,10.2996477 20.8610648,13.2805384 20.8129097,16.2610354 C20.8126473,16.2738942 20.8125161,16.2868843 20.8122537,16.2996119 C20.3812199,16.1788962 19.8516453,16.2749439 19.3330926,16.3702044 C18.7262338,16.4814728 18.1034982,16.5948406 17.6021344,16.3985463 C17.5504366,16.4959062 17.4993948,16.5933972 17.4491404,16.6910195 C18.0444525,16.9390115 18.7520827,16.8101606 19.3922696,16.6928565 C19.94953,16.5905105 20.4501066,16.4989241 20.8070052,16.6428644 C20.7619992,19.2592461 20.74586,21.8758903 20.7272278,24.4926656 C20.7256533,24.8823674 20.7252596,25.271938 20.7243412,25.6616398 C20.1947666,25.4465821 19.5533988,25.4726934 18.9250211,25.4993296 C18.6040748,25.5127133 18.2793233,25.5263594 17.9620509,25.5111388 C18.0183412,25.6209638 18.0747626,25.7319698 18.1311841,25.8441567 C18.405025,25.849274 18.6772915,25.8381209 18.939192,25.8269678 C19.6319952,25.7977074 20.2544684,25.7719897 20.7235539,26.0198505 C20.7200111,28.254928 20.7274903,30.4898744 20.7369376,32.7245583 C20.7387746,33.5081606 20.7446791,34.2916318 20.7516334,35.075103 C20.4197964,34.883926 20.0483332,34.776594 19.6531205,34.709938 C19.635538,34.8196318 19.6174306,34.9272262 19.598536,35.0333773 C20.0329813,35.1063316 20.4239952,35.2309837 20.755701,35.4695284 C20.760031,35.9264111 20.764361,36.3831626 20.7690847,36.8400453 L20.8151404,40.9554012 C20.8339038,42.1654449 20.8535857,43.3757511 20.8743173,44.5860573 C20.0733948,43.975262 19.0568899,43.8192501 17.9939356,43.6570712 C17.2767268,43.5476398 16.5436414,43.4345344 15.84887,43.1755205 C15.8083252,43.2760294 15.7701423,43.3789002 15.7348461,43.4840016 C16.4565161,43.7531189 17.2084962,43.8689797 17.9444684,43.9812978 C19.0567586,44.1509559 20.1152517,44.3140533 20.8814028,45.0235205 C20.9056771,46.4107014 20.9324445,47.7976199 20.9639356,49.1846696 C21.0009376,50.8636676 21.0420072,52.5426656 21.0876692,54.2215324 C20.4192716,53.5728167 19.6024724,53.2346815 18.7173113,52.9910195 C18.8413074,53.1415205 18.9660907,53.293596 19.0911364,53.447771 C19.8595181,53.7042918 20.5529773,54.070769 21.1010529,54.7135801 C21.1175857,55.3082362 21.1349058,55.9031547 21.1527507,56.4976795 C20.854373,55.889771 20.4616533,55.2452541 19.9483491,54.5481209 C19.6646672,54.1628803 19.3770489,53.7995523 19.0911364,53.447771 C18.5576254,53.2694529 17.9884247,53.1436199 17.4061026,53.0158187 C16.179526,52.7461765 14.9109614,52.4674807 13.7581264,51.6763992 C12.5053074,50.8166934 11.5655618,49.4145543 10.6566513,48.0587332 C9.64434513,46.548606 8.68819801,45.1220612 7.38748628,44.521763 C4.90428549,43.3758823 3.62548628,43.7360612 2.27176461,44.1176278 C1.71096143,44.275608 1.13992366,44.4349002 0.476774553,44.4961765 C0.852174155,45.6495364 1.4456493,46.7384708 2.24499722,47.6984231 L3.44913638,49.1446497 C5.94020994,52.136431 9.03512445,54.5685901 12.531025,56.2817034 L14.1717089,57.085775 C16.1370131,58.0488763 17.6236533,59.7731427 18.2870648,61.858769 L18.3740588,62.1320851 C19.4750648,62.4947571 20.4843531,62.9794569 21.2871125,63.8921726 C21.3233272,63.7289439 21.3596732,63.5684708 21.3958879,63.4097034 C21.4048103,63.6231865 21.4139952,63.8368008 21.4230489,64.0505463 C21.378699,63.9956994 21.3327746,63.944264 21.2871125,63.8921726 C21.2574584,64.026272 21.2279356,64.1620771 21.1989376,64.2994569 C21.234365,64.3442004 21.2707109,64.3869757 21.3052199,64.4336875 C21.3360549,64.4756755 21.3851284,64.5004748 21.4373511,64.5004748 C21.4391881,64.5004748 21.4406314,64.4999499 21.4424684,64.4998187 C21.4587388,64.8796795 21.4744843,65.2592779 21.4916732,65.6390076 C21.3538998,60.1519539 21.289868,54.6656875 21.254703,49.1794211 L21.2346274,45.0648525 Z" id="Fill-34" fill="#0064D7"></path>
            <path d="M21.5750982,62.620695 C21.6165614,61.0339396 21.6542195,59.4471841 21.6858417,57.8604286 C21.7070982,56.7956374 21.725468,55.7308461 21.7430505,54.6661861 C21.745806,54.5058441 21.7488239,54.3455022 21.7515793,54.185029 C21.7783467,52.5171841 21.8026211,50.8490767 21.822959,49.1809694 L21.8666529,45.0664008 L21.8671777,45.0065678 L21.8708517,44.5733034 L21.9022115,40.9514386 C21.9094282,39.1176095 21.9217622,37.2836493 21.9295038,35.4495579 C21.9300286,35.3199197 21.9308159,35.1898879 21.9312095,35.0601185 C21.9342274,34.2807149 21.9365893,33.5013113 21.9368517,32.722039 L21.9402632,25.9807229 L21.9403944,25.62986 L21.9410505,24.4922457 C21.9226807,21.8599873 21.90746,19.2275976 21.8648159,16.5953392 C21.8629789,16.4849893 21.8620604,16.3746394 21.8600922,16.2642895 C21.8600922,16.2632398 21.8600922,16.2623213 21.859961,16.261534 C21.8153487,13.256369 21.751973,10.2513352 21.6592056,7.24695746 C21.6556628,7.13791968 21.6522513,7.02888191 21.6488398,6.91971292 C21.5771976,4.65681829 21.4883666,2.3943173 21.3759173,0.132341153 C21.3706688,0.132341153 21.3655515,0.132341153 21.360303,0.132341153 C21.358466,2.41373678 21.3625336,4.69447634 21.3505932,6.97534712 C21.3499372,7.11062744 21.3492811,7.24590775 21.3483626,7.38105686 C21.3471817,7.59939483 21.3466569,7.8177328 21.3449511,8.03607078 L21.3439014,8.33366123 L21.3156907,16.2644207 L21.2352573,32.7212517 C21.2205614,35.4642537 21.2276469,38.2072557 21.2226608,40.9502577 L21.2346012,45.0648262 L21.254808,49.179526 C21.2898417,54.6656612 21.3538736,60.1520588 21.4916469,65.6389813 C21.5035873,65.2508541 21.5125097,64.8627268 21.523794,64.4745996 C21.5287801,64.2995618 21.5335038,64.1246553 21.5383586,63.9496175 C21.5508239,63.5066433 21.5634203,63.0636692 21.5750982,62.620695" id="Fill-36" fill="#F0909E"></path>
        </g>
    </g>
</svg>