<?xml version="1.0" encoding="UTF-8"?>
<svg width="106px" height="106px" viewBox="0 0 106 106" version="1.1" xmlns="http://www.w3.org/2000/svg" xmlns:xlink="http://www.w3.org/1999/xlink">
    <title>4. Elements_Microillustrations/Learn</title>
    <defs>
        <path d="M88,44 C88,68.3004855 68.3000427,88 43.9990109,88 C19.6979792,88 0,68.3004855 0,44 C0,19.6995145 19.6979792,0 43.9990109,0 C68.3000427,0 88,19.6995145 88,44" id="path-1"></path>
    </defs>
    <g id="4.-Elements_Microillustrations/Learn" stroke="none" stroke-width="1" fill="none" fill-rule="evenodd">
        <g id="Vector-Smart-Object" transform="translate(9.000000, 9.000000)">
            <mask id="mask-2" fill="white">
                <use xlink:href="#path-1"></use>
            </mask>
            <use id="Mask" fill="#D5FDF1" xlink:href="#path-1"></use>
        </g>
        <g id="Group" transform="translate(23.000000, 35.413327)">
            <g id="Group-3728" transform="translate(0.000000, 23.474255)">
                <path d="M30.4589091,9.34072727 C30.368,9.24690909 30.2858182,9.14509091 30.2094545,9.03818182 C30.0043636,8.75018182 29.8545455,8.42 29.784,8.06072727 C29.7643636,7.96181818 29.7607273,7.85854545 29.7527273,7.75672727 C29.7476364,7.69127273 29.7330909,7.62945455 29.7330909,7.56327273 L29.7330909,6.37927273 L29.7330909,6.07527273 L29.7330909,4.86218182 L29.7330909,4.69854545 L29.7330909,4.39454545 L29.7330909,3.88109091 C29.7330909,3.69272727 29.7570909,3.51090909 29.7949091,3.33490909 C29.8101818,3.26654545 29.8363636,3.204 29.8567273,3.13781818 C30.176,2.09418182 31.136,1.32981818 32.2850909,1.32981818 L62.8414545,1.32981818 L63.0407273,1.32981818 C63.2472727,1.32981818 63.4145455,1.16254545 63.4145455,0.956 L63.4145455,0.668 C63.4145455,0.461454545 63.2472727,0.294181818 63.0407273,0.294181818 L37.9309091,0.294181818 L32.2850909,0.294181818 L3.87054545,0.294181818 C1.89236364,0.294181818 0.282909091,1.90290909 0.282909091,3.88181818 L0.282909091,7.56327273 C0.282909091,9.54145455 1.89236364,11.1509091 3.87054545,11.1509091 L32.2821818,11.1509091 L32.2850909,11.1509091 L32.2850909,11.1509091 L63.0407273,11.1509091 C63.2472727,11.1509091 63.4145455,10.9836364 63.4145455,10.7770909 L63.4145455,10.4890909 C63.4145455,10.2825455 63.2472727,10.1145455 63.0407273,10.1145455 L62.8414545,10.1145455 L32.2850909,10.1145455 C31.568,10.1145455 30.9229091,9.81709091 30.4589091,9.34072727" id="Fill-3714" fill="#64CC75"></path>
                <path d="M20.7728,7.61418182 L20.7728,3.90654545 C20.7728,2.92618182 21.1677091,2.03818182 21.8040727,1.38654545 L3.79316364,1.38654545 C2.0288,1.38654545 0.5728,2.66945455 0.283345455,4.35090909 L0.283345455,7.56327273 C0.283345455,9.54145455 1.8928,11.1509091 3.87098182,11.1509091 L23.6491636,11.1509091 C22.0091636,10.8098182 20.7728,9.35381818 20.7728,7.61418182" id="Fill-3716" fill="#009F70"></path>
                <path d="M62.8413818,1.32967273 L32.2850182,1.32967273 C31.1359273,1.32967273 30.1759273,2.09403636 29.8566545,3.13767273 C29.8362909,3.20385455 29.8101091,3.26712727 29.7955636,3.33476364 C29.7570182,3.51149091 29.7337455,3.69330909 29.7337455,3.88094545 L29.7337455,4.3944 L29.7337455,4.6984 L29.7337455,4.86203636 L29.7337455,6.07512727 L29.7337455,6.37912727 L29.7337455,7.56312727 C29.7337455,7.62930909 29.7482909,7.69185455 29.7526545,7.75658182 C29.7606545,7.85912727 29.7642909,7.9624 29.7839273,8.06058182 C29.8552,8.42058182 30.0042909,8.75003636 30.2093818,9.03876364 C30.2857455,9.14494545 30.3679273,9.24676364 30.4588364,9.34058182 C30.9228364,9.81694545 31.5686545,10.1151273 32.2850182,10.1151273 L62.8413818,10.1151273 L62.8413818,1.32967273 Z" id="Fill-3718" fill="#EFF7FF"></path>
                <path d="M32.2848727,1.32967273 C31.1357818,1.32967273 30.1765091,2.09403636 29.8565091,3.13767273 C29.8463273,3.1704 29.8368727,3.2024 29.8266909,3.2344 C29.7714182,3.4424 29.7336,3.65621818 29.7336,3.88094545 L29.7336,4.3944 L29.7336,4.6984 L29.7336,4.86203636 C29.7336,4.80603636 29.7466909,4.75367273 29.7503273,4.6984 L61.6870545,4.61767273 C61.7263273,4.61767273 61.7583273,4.5864 61.7583273,4.5464 C61.7583273,4.50712727 61.7263273,4.47512727 61.6870545,4.4744 L29.7808727,4.3944 C29.8470545,4.03658182 29.9859636,3.70567273 30.1852364,3.41694545 L60.1939636,3.33621818 C60.2332364,3.33621818 60.2652364,3.30421818 60.2652364,3.26494545 C60.2652364,3.22494545 60.2332364,3.19367273 60.1939636,3.19294545 L30.4354182,3.11294545 C30.9008727,2.62130909 31.5546909,2.31149091 32.2848727,2.31149091 L62.8412364,2.31149091 L62.8412364,1.32967273 L32.2848727,1.32967273 Z" id="Fill-3720" fill="#ACEDFB"></path>
                <path d="M62.1964364,6.15570909 L29.7331636,6.07570909 L29.7331636,6.37898182 L62.1964364,6.29898182 C62.2364364,6.29898182 62.2677212,6.26698182 62.2677212,6.22770909 C62.2684364,6.18770909 62.2364364,6.15570909 62.1964364,6.15570909" id="Fill-3722" fill="#ACEDFB"></path>
                <path d="M61.6705455,9.1184 L30.2094545,9.0384 C30.2858182,9.14530909 30.368,9.24712727 30.4589091,9.34094545 L61.6705455,9.26167273 C61.7098182,9.26167273 61.7418182,9.22967273 61.7425455,9.1904 C61.7425455,9.1504 61.7105455,9.1184 61.6705455,9.1184" id="Fill-3724" fill="#ACEDFB"></path>
                <path d="M58.8800727,7.90887273 C58.8800727,7.86887273 58.8480727,7.83687273 58.8088,7.83687273 L29.7528,7.75687273 C29.7608,7.85869091 29.7644364,7.96196364 29.7840727,8.06014545 L58.8088,7.98014545 C58.8480727,7.98014545 58.8800727,7.94814545 58.8800727,7.90887273" id="Fill-3726" fill="#ACEDFB"></path>
            </g>
            <g id="Group-3743" transform="translate(2.181818, 9.656073)">
                <path d="M23.1694545,11.8151273 C23.0545455,11.6965818 22.9505455,11.5685818 22.8545455,11.4340364 C22.5941818,11.0682182 22.4043636,10.6493091 22.3141818,10.1918545 C22.2894545,10.0682182 22.2850909,9.93730909 22.2756364,9.80858182 C22.2690909,9.72567273 22.2501818,9.6464 22.2501818,9.56203636 L22.2501818,8.06021818 L22.2501818,7.67621818 L22.2501818,6.13730909 L22.2501818,4.89294545 C22.2501818,3.10603636 23.6989091,1.65803636 25.4858182,1.65803636 L51.6770909,1.65803636 L51.6778182,1.65803636 L51.9301818,1.65803636 C52.192,1.65803636 52.4043636,1.44567273 52.4043636,1.18312727 L52.4043636,0.818763636 C52.4043636,0.556945455 52.192,0.343854545 51.9301818,0.343854545 L32.6458182,0.343854545 L5.06981818,0.343854545 C2.56145455,0.343854545 0.52,2.38530909 0.52,4.89367273 L0.52,9.56203636 C0.52,12.0711273 2.56145455,14.1118545 5.06981818,14.1118545 L32.6458182,14.1118545 L32.6458182,14.1118545 L51.9301818,14.1118545 C52.192,14.1118545 52.4043636,13.8994909 52.4043636,13.6369455 L52.4043636,13.2725818 C52.4043636,13.0107636 52.192,12.7976727 51.9301818,12.7976727 L51.6778182,12.7976727 L25.4865455,12.7976727 C24.5767273,12.7976727 23.7570909,12.4194909 23.1694545,11.8151273" id="Fill-3729" fill="#CE643A"></path>
                <path d="M51.6773091,1.65781818 L25.4853091,1.65781818 C23.6991273,1.65781818 22.2504,3.10654545 22.2504,4.89272727 L22.2504,6.13781818 L22.2504,7.676 L22.2504,8.06072727 L22.2504,9.56181818 C22.2504,9.64618182 22.2685818,9.72545455 22.2751273,9.80909091 C22.2853091,9.93709091 22.2896727,10.068 22.3136727,10.1916364 C22.4045818,10.6490909 22.5944,11.068 22.8547636,11.4338182 C22.9507636,11.5683636 23.0547636,11.6970909 23.1696727,11.8149091 C23.7573091,12.4192727 24.5762182,12.7974545 25.4860364,12.7974545 L51.6773091,12.7974545 L51.6773091,1.65781818 Z" id="Fill-3731" fill="#EFF7FF"></path>
                <path d="M50.8598545,7.77752727 L22.2504,7.67570909 L22.2504,8.06043636 L50.8598545,7.95934545 C50.9093091,7.95934545 50.9507636,7.91861818 50.9507636,7.86843636 C50.9507636,7.81825455 50.9100364,7.77752727 50.8598545,7.77752727" id="Fill-3733" fill="#ACEDFB"></path>
                <path d="M50.1929455,11.5342545 L22.8547636,11.4338909 C22.9507636,11.5684364 23.0547636,11.6971636 23.1696727,11.8149818 L50.1929455,11.7160727 C50.2431273,11.7160727 50.2838545,11.6753455 50.2838545,11.6251636 C50.2838545,11.5757091 50.2431273,11.5342545 50.1929455,11.5342545" id="Fill-3735" fill="#ACEDFB"></path>
                <path d="M46.6541818,10.0008727 C46.6541818,9.95069091 46.6134545,9.90996364 46.5632727,9.90996364 L22.2752727,9.80887273 C22.2854545,9.9376 22.2898182,10.0677818 22.3138182,10.1921455 L46.5632727,10.0917818 C46.6134545,10.0910545 46.6541818,10.0503273 46.6541818,10.0008727" id="Fill-3737" fill="#ACEDFB"></path>
                <path d="M25.4855273,1.65781818 C23.6986182,1.65781818 22.2506182,3.10654545 22.2506182,4.89272727 L22.2506182,6.13781818 C22.2506182,6.06581818 22.2673455,5.99890909 22.2717091,5.92836364 L42.9408,5.82727273 C42.9909818,5.82727273 43.0309818,5.78727273 43.0309818,5.73709091 C43.0317091,5.68690909 42.9909818,5.64618182 42.9408,5.64545455 L22.3102545,5.54581818 C22.3946182,5.09127273 22.5706182,4.67018182 22.8229818,4.30436364 L48.3204364,4.20254545 C48.3698909,4.20254545 48.4106182,4.16181818 48.4106182,4.11236364 C48.4106182,4.06145455 48.3706182,4.02072727 48.3204364,4.02072727 L23.1400727,3.92036364 C23.7298909,3.29636364 24.5597091,2.90218182 25.4855273,2.90218182 L51.6775273,2.90218182 L51.6775273,1.65781818 L25.4855273,1.65781818 Z" id="Fill-3739" fill="#ACEDFB"></path>
                <path d="M19.2277091,9.62690909 L19.2277091,4.92509091 C19.2277091,3.68290909 19.7266182,2.55636364 20.5317091,1.73018182 L4.97025455,1.73018182 C2.74989091,1.73018182 0.906254545,3.33090909 0.520072727,5.44072727 L0.520072727,9.56218182 C0.520072727,12.0705455 2.5608,14.112 5.06916364,14.112 L22.8720727,14.112 C20.7935273,13.6778182 19.2277091,11.832 19.2277091,9.62690909" id="Fill-3741" fill="#A53917"></path>
            </g>
            <g id="Group-3756" transform="translate(6.310764, 0.000000)">
                <path d="M28.6989091,0.954181818 C27.4014545,0.954181818 26.3490909,2.00654545 26.3490909,3.304 L26.3490909,6.696 C26.3490909,7.99345455 27.4014545,9.04581818 28.6996364,9.04581818 L41.2196364,9.04581818 L41.2196364,0.954181818 L28.6989091,0.954181818 Z" id="Fill-3744" fill="#EFF7FF"></path>
                <path d="M41.2194909,1.85825455 L41.2194909,0.954254545 L28.6987636,0.954254545 C27.4013091,0.954254545 26.3489455,2.00661818 26.3489455,3.30407273 L26.3489455,4.20807273 C26.3489455,4.15570909 26.3613091,4.10698182 26.3649455,4.05534545 L40.1569455,3.98261818 C40.1925818,3.98261818 40.2216727,3.95352727 40.2224,3.91716364 C40.2224,3.8808 40.1925818,3.85098182 40.1569455,3.85098182 L26.3925818,3.77825455 C26.4536727,3.44807273 26.5816727,3.14189091 26.7656727,2.87570909 L38.7809455,2.80225455 C38.8173091,2.80225455 38.8464,2.77316364 38.8471273,2.7368 C38.8471273,2.70043636 38.8180364,2.67061818 38.7809455,2.67061818 L26.9940364,2.59861818 C27.4231273,2.1448 28.0260364,1.85825455 28.6987636,1.85825455 L41.2194909,1.85825455 Z" id="Fill-3746" fill="#ACEDFB"></path>
                <path d="M40.6257455,5.5312 C40.6621091,5.5312 40.691213,5.50138182 40.691213,5.46574545 C40.6919273,5.42865455 40.6621091,5.39956364 40.6257455,5.39883636 L26.3493818,5.32610909 L26.3493818,5.60392727 L40.6257455,5.5312 Z" id="Fill-3748" fill="#ACEDFB"></path>
                <path d="M27.7560727,8.84552727 C27.4768,8.72189091 27.2258909,8.54661818 27.0149818,8.33061818 L40.1415273,8.26007273 C40.1778909,8.26007273 40.2069948,8.23025455 40.2069948,8.19389091 C40.2077091,8.15825455 40.1778909,8.12843636 40.1415273,8.12843636 L26.7888,8.05643636 C26.5989818,7.78952727 26.4608,7.4848 26.3953455,7.15170909 L37.5051636,7.07970909 C37.5415273,7.07970909 37.5706182,7.05061818 37.5706182,7.01425455 C37.5713455,6.97789091 37.5415273,6.94807273 37.5051636,6.94807273 L26.3669818,6.87534545 C26.3626182,6.81498182 26.3488,6.7568 26.3488,6.69570909 C26.3488,7.65716364 26.9284364,8.48189091 27.7560727,8.84552727" id="Fill-3750" fill="#ACEDFB"></path>
                <path d="M28.6989091,0.954181818 L41.2196364,0.954181818 L41.2196364,0.954181818 L41.4029091,0.954181818 C41.5934545,0.954181818 41.7476364,0.8 41.7476364,0.609454545 L41.7476364,0.344727273 C41.7476364,0.154181818 41.5934545,0 41.4029091,0 L39.5461818,0 L3.30472727,0 C1.48290909,0 0,1.48290909 0,3.30472727 L0,6.696 C0,8.51781818 1.48290909,10 3.30472727,10 L28.6989091,10 L28.6996364,10 L39.5461818,10 L41.4029091,10 C41.5934545,10 41.7476364,9.84581818 41.7476364,9.65527273 L41.7476364,9.39054545 C41.7476364,9.2 41.5934545,9.04581818 41.4029091,9.04581818 L41.2196364,9.04581818 L28.6996364,9.04581818 C28.5352727,9.04581818 28.3745455,9.02836364 28.2196364,8.99636364 C28.1985455,8.992 28.1796364,8.98254545 28.1585455,8.97745455 C28.0247273,8.94545455 27.8945455,8.90690909 27.7709091,8.85309091 C27.7650909,8.85090909 27.7607273,8.848 27.7563636,8.84581818 C26.9287273,8.48218182 26.3490909,7.65745455 26.3490909,6.696 L26.3490909,5.60436364 L26.3490909,5.32581818 L26.3490909,4.208 L26.3490909,3.304 C26.3490909,2.00654545 27.4014545,0.954181818 28.6989091,0.954181818" id="Fill-3752" fill="#3CA1FF"></path>
                <path d="M18.0785455,6.74254545 L18.0785455,3.32727273 C18.0785455,2.42472727 18.4429091,1.60654545 19.0283636,1.00654545 L3.23272727,1.00654545 C1.608,1.00654545 0.266909091,2.18763636 0.000727272724,3.73672727 L0.000727272724,6.696 C0.000727272724,8.51781818 1.48218182,10 3.30472727,10 L20.728,10 C19.2167273,9.68581818 18.0785455,8.34545455 18.0785455,6.74254545" id="Fill-3754" fill="#0068C9"></path>
            </g>
        </g>
    </g>
</svg>