<?xml version="1.0" encoding="UTF-8"?>
<svg width="32px" height="32px" viewBox="0 0 32 32" version="1.1" xmlns="http://www.w3.org/2000/svg" xmlns:xlink="http://www.w3.org/1999/xlink">
    <title>3. Elements_Icons/4. Descriptions/Legal_circle</title>
    <g id="3.-Elements_Icons/4.-Descriptions/Legal_circle" stroke="none" stroke-width="1" fill="none" fill-rule="evenodd">
        <path d="M15.9998316,0 C20.2760101,0 24.2894781,1.66346801 27.3131313,4.68686869 C30.336532,7.71060606 32,11.7239899 32,15.9998316 C32,20.2760101 30.336532,24.2894781 27.3131313,27.3131313 C24.2894781,30.336532 20.2760101,32 15.9998316,32 C11.7239899,32 7.71060606,30.336532 4.68686869,27.3131313 C1.66346801,24.2894781 0,20.2760101 0,15.9998316 C0,11.7239899 1.66346801,7.71060606 4.68686869,4.68686869 C7.71060606,1.66346801 11.7239899,0 15.9998316,0 Z M15.9998218,1 C11.994839,1 8.22477269,2.55975392 5.38831446,5.39453699 C-0.462771486,11.2421674 -0.462771486,20.7578326 5.38831446,26.605374 C8.22477269,29.4401571 11.994839,31 15.9998218,31 C20.005161,31 23.7752273,29.4401571 26.6116855,26.605374 C32.4627715,20.7578326 32.4627715,11.2421674 26.6116855,5.39453699 C23.7752273,2.55975392 20.005161,1 15.9998218,1 Z M15.8766667,7 C16.2733333,7 16.6133333,7.11333333 16.84,7.39666667 L24.7166667,15.16 C24.9433333,15.3866667 25.1133333,15.7266667 25.1133333,16.1233333 C25.1133333,16.52 25,16.86 24.7166667,17.0866667 L21.8833333,19.92 C21.6,20.2033333 21.26,20.3733333 20.92,20.3733333 C20.58,20.3733333 20.1833333,20.2033333 19.9566667,19.9766667 L17.084,17.125 L10.6066667,23.6033333 C10.2666667,23.8866667 9.92666667,24 9.53,24 C9.13333333,24 8.73666667,23.83 8.51,23.6033333 C8.17,23.32 8,22.98 8,22.5266667 C8,22.13 8.17,21.7333333 8.45333333,21.5066667 L14.951,15.008 L12.08,12.1566667 C11.8533333,11.93 11.6833333,11.59 11.6833333,11.1933333 C11.6833333,10.7966667 11.7966667,10.4566667 12.08,10.23 L14.9133333,7.39666667 C15.14,7.17 15.48,7 15.8766667,7 Z M15.636,15.687 L9.13333333,22.2433333 C8.96333333,22.4133333 8.96333333,22.7533333 9.13333333,22.9233333 C9.19,23.0366667 9.36,23.0933333 9.47333333,23.0933333 C9.58666667,23.0933333 9.75666667,23.0366667 9.81333333,22.98 L16.373,16.419 L15.636,15.687 Z M15.6141655,8.06617284 L15.5366667,8.13333333 L12.8733333,10.7966667 C12.7245833,10.9454167 12.7059896,11.2243229 12.8175521,11.4435742 L12.8733333,11.5333333 L20.5233333,19.1833333 C20.7248148,19.3848148 20.97107,19.4072016 21.1825011,19.2504938 L21.26,19.1833333 L23.9233333,16.52 C24.1248148,16.3185185 24.1472016,16.0722634 23.9904938,15.8608322 L23.9233333,15.7833333 L16.2733333,8.13333333 C16.0718519,7.93185185 15.8255967,7.90946502 15.6141655,8.06617284 Z" id="Combined-Shape" fill="#000000"></path>
    </g>
</svg>