<?xml version="1.0" encoding="UTF-8"?>
<svg width="106px" height="106px" viewBox="0 0 106 106" version="1.1" xmlns="http://www.w3.org/2000/svg" xmlns:xlink="http://www.w3.org/1999/xlink">
    <title>Legal circle</title>
    <g id="Page-1" stroke="none" stroke-width="1" fill="none" fill-rule="evenodd">
        <g id="Legal-circle" fill="#000000" fill-rule="nonzero">
            <path d="M52.9994422,0 C67.1642835,0 80.4588962,5.51023778 90.4747474,15.5252525 C100.489762,25.5413826 106,38.8357165 106,52.9994422 C106,67.1642835 100.489762,80.4588962 90.4747474,90.4747474 C80.4588962,100.489762 67.1642835,106 52.9994422,106 C38.8357165,106 25.5413826,100.489762 15.5252525,90.4747474 C5.51023778,80.4588962 0,67.1642835 0,52.9994422 C0,38.8357165 5.51023778,25.5413826 15.5252525,15.5252525 C25.5413826,5.51023778 38.8357165,0 52.9994422,0 Z M52.9994097,3.3125 C39.7329042,3.3125 27.2445595,8.47918486 17.8487916,17.8694038 C-1.53293055,37.2396795 -1.53293055,68.7603205 17.8487916,88.1303014 C27.2445595,97.5205204 39.7329042,102.6875 52.9994097,102.6875 C66.2670958,102.6875 78.7554404,97.5205204 88.1512082,88.1303014 C107.532931,68.7603205 107.532931,37.2396795 88.1512082,17.8694038 C78.7554404,8.47918486 66.2670958,3.3125 52.9994097,3.3125 Z M52.5914584,23.1875 C53.9054166,23.1875 55.0316666,23.5629167 55.7825,24.5014583 L81.8739584,50.2175 C82.6247916,50.9683334 83.1879166,52.0945834 83.1879166,53.4085416 C83.1879166,54.7225 82.8125,55.84875 81.8739584,56.5995834 L72.4885416,65.985 C71.55,66.9235416 70.42375,67.4866666 69.2975,67.4866666 C68.17125,67.4866666 66.8572916,66.9235416 66.1064584,66.1727084 L56.59075,56.7265625 L35.1345834,78.1860416 C34.0083334,79.1245834 32.8820833,79.5 31.568125,79.5 C30.2541667,79.5 28.9402083,78.936875 28.189375,78.1860416 C27.063125,77.2475 26.5,76.12125 26.5,74.6195834 C26.5,73.305625 27.063125,71.9916666 28.0016667,71.2408334 L49.5251875,49.714 L40.015,40.2689584 C39.2641666,39.518125 38.7010416,38.391875 38.7010416,37.0779166 C38.7010416,35.7639584 39.0764584,34.6377084 40.015,33.886875 L49.4004166,24.5014583 C50.15125,23.750625 51.2775,23.1875 52.5914584,23.1875 Z M51.79425,51.9631875 L30.2541667,73.6810416 C29.6910417,74.2441666 29.6910417,75.3704166 30.2541667,75.9335416 C30.441875,76.3089584 31.005,76.4966666 31.3804167,76.4966666 C31.7558333,76.4966666 32.3189583,76.3089584 32.5066667,76.12125 L54.2355625,54.3879375 L51.79425,51.9631875 Z M51.7219232,26.7191975 L51.4652084,26.9416667 L42.6429166,35.7639584 C42.1501822,36.2566928 42.0885906,37.1805696 42.4581413,37.9068395 L42.6429166,38.2041666 L67.9835416,63.5447916 C68.650949,64.212199 69.4666694,64.2863553 70.1670349,63.7672607 L70.42375,63.5447916 L79.2460416,54.7225 C79.913449,54.0550925 79.9876053,53.2393725 79.4685107,52.5390067 L79.2460416,52.2822916 L53.9054166,26.9416667 C53.2380094,26.2742593 52.4222891,26.2001029 51.7219232,26.7191975 Z" id="Combined-Shape"></path>
        </g>
    </g>
</svg>