<?xml version="1.0" encoding="UTF-8"?>
<svg width="106px" height="106px" viewBox="0 0 106 106" version="1.1" xmlns="http://www.w3.org/2000/svg" xmlns:xlink="http://www.w3.org/1999/xlink">
    <title>Museum circle</title>
    <g id="Page-1" stroke="none" stroke-width="1" fill="none" fill-rule="evenodd">
        <g id="Museum-circle" fill="#000000" fill-rule="nonzero">
            <path d="M52.9994422,0 C67.1642835,0 80.4588962,5.51023778 90.4747474,15.5252525 C100.489762,25.5413826 106,38.8357165 106,52.9994422 C106,67.1642835 100.489762,80.4588962 90.4747474,90.4747474 C80.4588962,100.489762 67.1642835,106 52.9994422,106 C38.8357165,106 25.5413826,100.489762 15.5252525,90.4747474 C5.51023778,80.4588962 0,67.1642835 0,52.9994422 C0,38.8357165 5.51023778,25.5413826 15.5252525,15.5252525 C25.5413826,5.51023778 38.8357165,0 52.9994422,0 Z M52.9994097,3.3125 C39.7329042,3.3125 27.2445595,8.47918486 17.8487916,17.8694038 C-1.53293055,37.2396795 -1.53293055,68.7603205 17.8487916,88.1303014 C27.2445595,97.5205204 39.7329042,102.6875 52.9994097,102.6875 C66.2670958,102.6875 78.7554404,97.5205204 88.1512082,88.1303014 C107.532931,68.7603205 107.532931,37.2396795 88.1512082,17.8694038 C78.7554404,8.47918486 66.2670958,3.3125 52.9994097,3.3125 Z M72.77833,46.2122784 C73.5534424,46.2122784 74.1876493,46.8464198 74.1876493,47.6215325 C74.1171964,48.3966452 73.4829895,49.0308519 72.7078771,49.0308519 L72.7078771,49.0308519 L71.2985574,49.0308519 L71.2985574,73.5236332 C71.2281045,74.298746 70.5938976,74.8625 69.8187851,74.8625 L69.8187851,74.8625 L34.1220314,74.8625 C33.3469186,74.8625 32.7127119,74.2282931 32.7127119,73.4531806 L32.7127119,73.4531806 L32.7127119,49.0309174 L31.2329395,49.0309174 C30.4578268,49.0309174 29.82362,48.3967105 29.82362,47.6215981 C29.82362,46.8464853 30.4578268,46.2122784 31.2329395,46.2122784 L31.2329395,46.2122784 L72.77833,46.2122784 Z M68.4799839,49.0308519 L35.4608981,49.0308519 L35.4608981,72.1143139 L41.8481935,72.1143139 L41.8481935,54.1748944 C41.8481935,53.3997817 42.4824004,52.765575 43.2575128,52.765575 C44.0326256,52.765575 44.6668325,53.3997817 44.6668325,54.1748944 L44.6668325,54.1748944 L44.6668325,72.1143139 L50.5610231,72.1143139 L50.5610231,54.1748944 C50.5610231,53.3997817 51.1952301,52.765575 51.9703428,52.765575 C52.7454552,52.765575 53.3796622,53.3997817 53.3796622,54.1748944 L53.3796622,54.1748944 L53.3796622,72.1143139 L59.2738531,72.1143139 L59.2738531,54.1748944 C59.2738531,53.3997817 59.9080597,52.765575 60.6831725,52.765575 C61.4582852,52.765575 62.0924922,53.3997817 62.0924922,54.1748944 L62.0924922,54.1748944 L62.0924922,72.1143139 L68.4799839,72.1143139 L68.4799839,49.0308519 Z M51.1247772,27.4267474 C51.6180783,27.0744175 52.2522853,27.0744175 52.7455208,27.4267474 L52.7455208,27.4267474 L73.4830551,38.7717565 C73.9762906,39.1240862 74.1877149,39.7582276 73.9762906,40.3219816 C73.8353196,40.8152175 73.3420837,41.2380002 72.7078771,41.2380002 L72.7078771,41.2380002 L31.2329395,41.2380002 C30.6692509,41.2380002 30.105497,40.8856701 29.8941383,40.3219164 C29.6827142,39.7582276 29.8941383,39.124021 30.3873739,38.7716909 L30.3873739,38.7716909 L51.1247772,27.4267474 Z M51.9704081,30.2453864 L35.8747742,38.4898793 L67.8064758,38.4898793 L51.9704081,30.2453864 Z" id="Combined-Shape"></path>
        </g>
    </g>
</svg>