<?xml version="1.0" encoding="UTF-8"?>
<svg width="32px" height="32px" viewBox="0 0 32 32" version="1.1" xmlns="http://www.w3.org/2000/svg" xmlns:xlink="http://www.w3.org/1999/xlink">
    <title>3. Elements_Icons/4. Descriptions/Museum_circle</title>
    <g id="3.-Elements_Icons/4.-Descriptions/Museum_circle" stroke="none" stroke-width="1" fill="none" fill-rule="evenodd">
        <path d="M15.9998316,0 C20.2760101,0 24.2894781,1.66346801 27.3131313,4.68686869 C30.336532,7.71060606 32,11.7239899 32,15.9998316 C32,20.2760101 30.336532,24.2894781 27.3131313,27.3131313 C24.2894781,30.336532 20.2760101,32 15.9998316,32 C11.7239899,32 7.71060606,30.336532 4.68686869,27.3131313 C1.66346801,24.2894781 0,20.2760101 0,15.9998316 C0,11.7239899 1.66346801,7.71060606 4.68686869,4.68686869 C7.71060606,1.66346801 11.7239899,0 15.9998316,0 Z M15.9998218,1 C11.994839,1 8.22477269,2.55975392 5.38831446,5.39453699 C-0.462771486,11.2421674 -0.462771486,20.7578326 5.38831446,26.605374 C8.22477269,29.4401571 11.994839,31 15.9998218,31 C20.005161,31 23.7752273,29.4401571 26.6116855,26.605374 C32.4627715,20.7578326 32.4627715,11.2421674 26.6116855,5.39453699 C23.7752273,2.55975392 20.005161,1 15.9998218,1 Z M21.9708166,13.9508765 C22.2048128,13.9508765 22.3962715,14.1423154 22.3962715,14.3763117 C22.3750027,14.610308 22.183544,14.8017666 21.9495478,14.8017666 L21.9495478,14.8017666 L21.5240928,14.8017666 L21.5240928,22.1958138 C21.502824,22.4298101 21.3113653,22.6 21.0773691,22.6 L21.0773691,22.6 L10.3009906,22.6 C10.0669943,22.6 9.87553566,22.4085413 9.87553566,22.1745451 L9.87553566,22.1745451 L9.87553566,14.8017864 L9.42881191,14.8017864 C9.19481565,14.8017864 9.00335697,14.6103277 9.00335697,14.3763315 C9.00335697,14.1423352 9.19481565,13.9508765 9.42881191,13.9508765 L9.42881191,13.9508765 Z M20.6732027,14.8017666 L10.7051768,14.8017666 L10.7051768,21.7703589 L12.6334169,21.7703589 L12.6334169,16.3546851 C12.6334169,16.1206888 12.8248756,15.9292302 13.0588718,15.9292302 C13.2928681,15.9292302 13.4843268,16.1206888 13.4843268,16.3546851 L13.4843268,16.3546851 L13.4843268,21.7703589 L15.2637051,21.7703589 L15.2637051,16.3546851 C15.2637051,16.1206888 15.4551638,15.9292302 15.6891601,15.9292302 C15.9231563,15.9292302 16.114615,16.1206888 16.114615,16.3546851 L16.114615,16.3546851 L16.114615,21.7703589 L17.8939934,21.7703589 L17.8939934,16.3546851 C17.8939934,16.1206888 18.085452,15.9292302 18.3194483,15.9292302 C18.5534446,15.9292302 18.7449033,16.1206888 18.7449033,16.3546851 L18.7449033,16.3546851 L18.7449033,21.7703589 L20.6732027,21.7703589 L20.6732027,14.8017666 Z M15.433895,8.2797728 C15.5828161,8.17340907 15.7742748,8.17340907 15.9231761,8.2797728 L15.9231761,8.2797728 L22.1835638,11.7046812 C22.3324651,11.8110449 22.3962913,12.0024838 22.3324651,12.1726737 C22.2899078,12.3215751 22.1410064,12.4492076 21.9495478,12.4492076 L21.9495478,12.4492076 L9.42881191,12.4492076 C9.25864179,12.4492076 9.08845191,12.3428438 9.02464553,12.172654 C8.96081938,12.0024838 9.02464553,11.8110252 9.17354685,11.7046614 L9.17354685,11.7046614 Z M15.6891798,9.1306827 L10.8301205,11.6195862 L20.4698795,11.6195862 L15.6891798,9.1306827 Z" id="Combined-Shape" fill="#000000"></path>
    </g>
</svg>