<?xml version="1.0" encoding="UTF-8"?>
<svg width="32px" height="32px" viewBox="0 0 32 32" version="1.1" xmlns="http://www.w3.org/2000/svg" xmlns:xlink="http://www.w3.org/1999/xlink">
    <title>3. Elements_Icons/4. Descriptions/Paint_circle</title>
    <g id="3.-Elements_Icons/4.-Descriptions/Paint_circle" stroke="none" stroke-width="1" fill="none" fill-rule="evenodd">
        <path d="M15.9998316,0 C20.2760101,0 24.2894781,1.66346801 27.3131313,4.68686869 C30.336532,7.71060606 32,11.7239899 32,15.9998316 C32,20.2760101 30.336532,24.2894781 27.3131313,27.3131313 C24.2894781,30.336532 20.2760101,32 15.9998316,32 C11.7239899,32 7.71060606,30.336532 4.68686869,27.3131313 C1.66346801,24.2894781 0,20.2760101 0,15.9998316 C0,11.7239899 1.66346801,7.71060606 4.68686869,4.68686869 C7.71060606,1.66346801 11.7239899,0 15.9998316,0 Z M15.9998218,1 C11.994839,1 8.22477269,2.55975392 5.38831446,5.39453699 C-0.462771486,11.2421674 -0.462771486,20.7578326 5.38831446,26.605374 C8.22477269,29.4401571 11.994839,31 15.9998218,31 C20.005161,31 23.7752273,29.4401571 26.6116855,26.605374 C32.4627715,20.7578326 32.4627715,11.2421674 26.6116855,5.39453699 C23.7752273,2.55975392 20.005161,1 15.9998218,1 Z M24.512094,7.00107721 C24.7342674,6.98494481 24.927453,7.1519152 24.9435854,7.37408866 C25.1049094,9.70925422 24.6290035,11.4192891 23.5400662,12.451763 C22.9284464,13.0084318 22.1530827,13.3522033 21.3299267,13.4318066 C21.3409169,13.5285002 21.3165671,13.6258996 21.261364,13.7060575 L21.261364,13.7060575 L19.7005539,15.9524948 C19.6286638,16.0537761 19.5140734,16.1162387 19.3900051,16.1218851 L19.3900051,16.1218851 L19.3537072,16.1218851 C19.2465275,16.12249 19.1434818,16.0803945 19.067357,16.0049251 L19.067357,16.0049251 L18.9826619,15.92023 C17.3089249,17.8520854 12.2583965,24.5160148 8.45518206,25 L8.45518206,25 L8.40678485,25 C8.38813176,25 8.36942825,24.9989786 8.3509264,24.9965588 C8.1300637,24.9676213 7.97448682,24.7651092 8.00347474,24.5442465 C8.48744687,20.7410321 14.6551443,15.1983049 16.595066,13.5326341 L16.595066,13.5326341 L16.5103709,13.447939 C16.4931798,13.4306975 16.4775515,13.4118931 16.4636877,13.3918285 C16.33725,13.2084232 16.383429,12.9573122 16.5668343,12.8308745 L16.5668343,12.8308745 L18.8132716,11.2700644 C18.8572324,11.2405723 18.9065875,11.2200035 18.9584633,11.2095679 C19.1762507,10.2658222 19.7812159,8.49125767 21.1928013,8.5678866 C22.9915644,8.66871413 24.2256934,7.15226809 24.2256934,7.15226809 C24.2958189,7.06409442 24.3996713,7.00924424 24.512094,7.00107721 Z M17.1637332,14.1013014 C15.4899963,15.5491847 10.2113921,20.2857027 8.92886593,24.0526192 C12.6957824,22.7660599 16.9580451,17.0172335 18.4099615,15.3475296 L18.4099615,15.3475296 Z M18.9907281,12.1210487 L17.4178186,13.209986 L19.2972437,15.0894112 L20.3861811,13.5326341 L18.9907281,12.1210487 Z M24.1611637,8.31783432 C23.3190018,9.0301304 22.2428192,9.4051584 21.140371,9.37047373 C20.3014859,9.31401031 19.8296131,10.8909529 19.6763553,11.6774076 L19.6763553,11.6774076 L20.6523657,12.6534181 C21.5042071,12.7028236 22.3409244,12.4127932 22.9794651,11.8467978 C23.7578536,11.1208396 24.1611637,9.93107479 24.1611637,8.31783432 Z" id="Combined-Shape" fill="#000000"></path>
    </g>
</svg>