<?xml version="1.0" encoding="UTF-8"?>
<svg width="106px" height="106px" viewBox="0 0 106 106" version="1.1" xmlns="http://www.w3.org/2000/svg" xmlns:xlink="http://www.w3.org/1999/xlink">
    <title>Paint circle</title>
    <g id="Page-1" stroke="none" stroke-width="1" fill="none" fill-rule="evenodd">
        <g id="Paint-circle" fill="#000000" fill-rule="nonzero">
            <path d="M52.9994422,0 C67.1642835,0 80.4588962,5.51023778 90.4747474,15.5252525 C100.489762,25.5413826 106,38.8357165 106,52.9994422 C106,67.1642835 100.489762,80.4588962 90.4747474,90.4747474 C80.4588962,100.489762 67.1642835,106 52.9994422,106 C38.8357165,106 25.5413826,100.489762 15.5252525,90.4747474 C5.51023778,80.4588962 0,67.1642835 0,52.9994422 C0,38.8357165 5.51023778,25.5413826 15.5252525,15.5252525 C25.5413826,5.51023778 38.8357165,0 52.9994422,0 Z M52.9994097,3.3125 C39.7329042,3.3125 27.2445595,8.47918486 17.8487916,17.8694038 C-1.53293055,37.2396795 -1.53293055,68.7603205 17.8487916,88.1303014 C27.2445595,97.5205204 39.7329042,102.6875 52.9994097,102.6875 C66.2670958,102.6875 78.7554404,97.5205204 88.1512082,88.1303014 C107.532931,68.7603205 107.532931,37.2396795 88.1512082,17.8694038 C78.7554404,8.47918486 66.2670958,3.3125 52.9994097,3.3125 Z M81.1963114,23.1910683 C81.9322608,23.1376297 82.5721881,23.6907191 82.6256266,24.4266687 C83.1600124,32.1619046 81.5835741,37.8263951 77.9764693,41.2464649 C75.9504787,43.0904303 73.3820864,44.2291734 70.6553822,44.4928594 C70.6917872,44.8131569 70.6111285,45.1357924 70.4282683,45.4013155 L70.4282683,45.4013155 L65.2580848,52.842639 C65.0199488,53.1781333 64.6403681,53.3850407 64.2293919,53.4037444 L64.2293919,53.4037444 L64.1091551,53.4037444 C63.7541223,53.4057481 63.4127835,53.2663068 63.1606201,53.0163144 L63.1606201,53.0163144 L62.8800675,52.7357619 C57.3358137,59.1350329 40.6059384,81.209299 28.0077906,82.8125 L28.0077906,82.8125 L27.8474748,82.8125 C27.7856865,82.8125 27.7237311,82.8091166 27.6624437,82.801101 C26.930836,82.7052456 26.4154876,82.0344242 26.5115101,81.3028165 C28.1146678,68.7046688 48.5451655,50.344385 54.9711561,44.8268505 L54.9711561,44.8268505 L54.6906036,44.5462979 C54.6336581,44.4891855 54.5818893,44.4268959 54.5359655,44.3604319 C54.1171406,43.7529019 54.2701086,42.9210967 54.8776386,42.5022718 L54.8776386,42.5022718 L62.3189622,37.3320883 C62.4645823,37.2343957 62.6280711,37.1662616 62.7999097,37.1316937 C63.5213304,34.005536 65.5252777,28.127291 70.2011543,28.3811244 C76.1595571,28.7151156 80.2476094,23.691888 80.2476094,23.691888 C80.4799001,23.3998128 80.8239112,23.2181215 81.1963114,23.1910683 Z M56.8548662,46.7105609 C51.3106127,51.5066743 33.8252363,67.1963902 29.5768684,79.6743011 C42.0547792,75.4125734 56.1735244,56.369586 60.9829975,50.8386918 L60.9829975,50.8386918 L56.8548662,46.7105609 Z M62.9067868,40.1509738 L57.6965241,43.7580786 L63.9221198,49.9836746 L67.5292249,44.8268505 L62.9067868,40.1509738 Z M80.0338548,27.5528262 C77.2441935,29.9123069 73.6793386,31.1545872 70.0274789,31.0396942 C67.248672,30.8526592 65.6855934,36.0762815 65.1779269,38.6814127 L65.1779269,38.6814127 L68.4109614,41.9144475 C71.232686,42.0781032 74.0043121,41.1173775 76.1194781,39.2425177 C78.69789,36.8377812 80.0338548,32.8966852 80.0338548,27.5528262 Z" id="Combined-Shape"></path>
        </g>
    </g>
</svg>