<?xml version="1.0" encoding="UTF-8"?>
<svg width="32px" height="32px" viewBox="0 0 32 32" version="1.1" xmlns="http://www.w3.org/2000/svg" xmlns:xlink="http://www.w3.org/1999/xlink">
    <title>3. Elements_Icons/4. Descriptions/Pencil_circle</title>
    <g id="3.-Elements_Icons/4.-Descriptions/Pencil_circle" stroke="none" stroke-width="1" fill="none" fill-rule="evenodd">
        <path d="M15.9998316,0 C20.2760101,0 24.2894781,1.66346801 27.3131313,4.68686869 C30.336532,7.71060606 32,11.7239899 32,15.9998316 C32,20.2760101 30.336532,24.2894781 27.3131313,27.3131313 C24.2894781,30.336532 20.2760101,32 15.9998316,32 C11.7239899,32 7.71060606,30.336532 4.68686869,27.3131313 C1.66346801,24.2894781 0,20.2760101 0,15.9998316 C0,11.7239899 1.66346801,7.71060606 4.68686869,4.68686869 C7.71060606,1.66346801 11.7239899,0 15.9998316,0 Z M15.9998218,1 C11.994839,1 8.22477269,2.55975392 5.38831446,5.39453699 C-0.462771486,11.2421674 -0.462771486,20.7578326 5.38831446,26.605374 C8.22477269,29.4401571 11.994839,31 15.9998218,31 C20.005161,31 23.7752273,29.4401571 26.6116855,26.605374 C32.4627715,20.7578326 32.4627715,11.2421674 26.6116855,5.39453699 C23.7752273,2.55975392 20.005161,1 15.9998218,1 Z M19.0494039,8.64400519 C19.9095926,7.7853316 21.3025611,7.7853316 22.1627499,8.64400519 L22.1627499,8.64400519 L23.3559948,9.83284246 C24.2146684,10.6928934 24.2146684,12.0858619 23.3559948,12.9460506 L23.3559948,12.9460506 L14.2806941,22.0213514 C14.2762864,22.0303046 14.267471,22.0345745 14.2629255,22.0389822 C14.2629255,22.0432522 14.2586556,22.0432522 14.2542479,22.0477976 C14.2410248,22.056613 14.227664,22.0698361 14.2145787,22.0785137 C14.2013556,22.0873291 14.1837248,22.0962822 14.1706395,22.1050976 C14.1681601,22.1074392 14.1651299,22.1089543 14.1616864,22.1093676 C14.1494274,22.117081 14.1360666,22.1230039 14.1221549,22.1271361 C14.1176094,22.131406 14.1176094,22.131406 14.1133395,22.131406 L14.1133395,22.131406 L8.58264978,23.9764385 C8.53691994,23.9902125 8.48953724,23.9976505 8.44174136,23.9984797 C8.32479978,23.9988901 8.21240362,23.9528849 8.12907066,23.8706539 C8.0104762,23.7537123 7.96942955,23.5791952 8.02342378,23.4216202 L8.02342378,23.4216202 L9.86404856,17.8866605 C9.86404856,17.8821151 9.86831852,17.8821151 9.86831852,17.8778451 C9.87286394,17.8646221 9.87727164,17.8558067 9.88167933,17.8425836 C9.88608702,17.8380382 9.88608702,17.8337682 9.89035698,17.8293605 C9.8993101,17.8161374 9.90358006,17.8073221 9.91239544,17.794099 C9.91239544,17.7896913 9.91694087,17.7896913 9.91694087,17.7852836 C9.92561852,17.7720605 9.9388416,17.7589752 9.94765698,17.7457521 C9.95220241,17.7457521 9.95220241,17.7412067 9.95647237,17.7369368 L9.95647237,17.7369368 L9.97410314,17.7191682 L18.2700688,9.42761023 Z M10.4760291,18.8465733 L9.13306032,22.8623943 L13.1534267,21.5238332 L10.4760291,18.8465733 Z M18.5783318,10.3613523 L10.9077075,18.0319766 L13.9724311,21.0965625 L21.6430554,13.4259381 L18.5783318,10.3613523 Z M21.5418162,9.26480111 C21.0261162,8.74965207 20.1904453,8.74965207 19.674883,9.26480111 L19.674883,9.26480111 L19.2035354,9.73587323 L22.2683967,12.8007346 L22.7351989,12.3295247 C23.249246,11.8141002 23.2511744,10.9803576 22.7394688,10.4624538 L22.7394688,10.4624538 Z" id="Combined-Shape" fill="#000000"></path>
    </g>
</svg>