<?xml version="1.0" encoding="UTF-8"?>
<svg width="106px" height="106px" viewBox="0 0 106 106" version="1.1" xmlns="http://www.w3.org/2000/svg" xmlns:xlink="http://www.w3.org/1999/xlink">
    <title>Pencil circle</title>
    <g id="Page-1" stroke="none" stroke-width="1" fill="none" fill-rule="evenodd">
        <g id="Pencil-circle" fill="#000000" fill-rule="nonzero">
            <path d="M52.9994422,0 C67.1642835,0 80.4588962,5.51023778 90.4747474,15.5252525 C100.489762,25.5413826 106,38.8357165 106,52.9994422 C106,67.1642835 100.489762,80.4588962 90.4747474,90.4747474 C80.4588962,100.489762 67.1642835,106 52.9994422,106 C38.8357165,106 25.5413826,100.489762 15.5252525,90.4747474 C5.51023778,80.4588962 0,67.1642835 0,52.9994422 C0,38.8357165 5.51023778,25.5413826 15.5252525,15.5252525 C25.5413826,5.51023778 38.8357165,0 52.9994422,0 Z M52.9994097,3.3125 C39.7329042,3.3125 27.2445595,8.47918486 17.8487916,17.8694038 C-1.53293055,37.2396795 -1.53293055,68.7603205 17.8487916,88.1303014 C27.2445595,97.5205204 39.7329042,102.6875 52.9994097,102.6875 C66.2670958,102.6875 78.7554404,97.5205204 88.1512082,88.1303014 C107.532931,68.7603205 107.532931,37.2396795 88.1512082,17.8694038 C78.7554404,8.47918486 66.2670958,3.3125 52.9994097,3.3125 Z M63.1011504,28.6332672 C65.9505255,25.7889109 70.5647336,25.7889109 73.414109,28.6332672 L73.414109,28.6332672 L77.3667328,32.5712906 C80.2110891,35.4202094 80.2110891,40.0344175 77.3667328,42.8837926 L77.3667328,42.8837926 L47.3047992,72.9457265 C47.2901987,72.975384 47.2609977,72.989528 47.2459407,73.0041285 C47.2459407,73.0182729 47.2317967,73.0182729 47.2171962,73.0333295 C47.1733946,73.0625306 47.129137,73.1063321 47.0857919,73.1350766 C47.0419904,73.1642776 46.9835884,73.1939348 46.9402433,73.2231358 C46.9320303,73.2308924 46.9219928,73.2359111 46.9105862,73.2372802 C46.8699783,73.2628308 46.8257206,73.2824504 46.7796381,73.2961383 C46.7645811,73.3102824 46.7645811,73.3102824 46.7504371,73.3102824 L46.7504371,73.3102824 L28.4300274,79.4219525 C28.2785473,79.4675789 28.1215921,79.4922173 27.9632683,79.494973 C27.5758993,79.4963235 27.203587,79.3439312 26.9275466,79.071541 C26.5347024,78.684172 26.3987354,78.1060841 26.5775913,77.5841169 L26.5775913,77.5841169 L32.6746609,59.2495629 C32.6746609,59.2345063 32.6888051,59.2345063 32.6888051,59.2203619 C32.7038618,59.1765607 32.7184623,59.1473597 32.7330628,59.1035582 C32.7476633,59.0885015 32.7476633,59.0743572 32.7618075,59.0597567 C32.7914647,59.0159551 32.8056089,58.9867545 32.8348099,58.9429529 C32.8348099,58.9283524 32.8498666,58.9283524 32.8498666,58.9137519 C32.8786113,58.8699504 32.9224128,58.8266053 32.9516137,58.7828038 C32.9666705,58.7828038 32.9666705,58.7677472 32.9808147,58.7536031 L32.9808147,58.7536031 L33.0392167,58.6947447 L60.5196029,31.2289589 L63.1011504,28.6332672 Z M34.7018464,62.4292741 L30.2532623,75.7316811 L43.5707259,71.2976975 L34.7018464,62.4292741 Z M61.5407241,34.3219795 L36.1317811,59.7309225 L46.283678,69.8823633 L71.692621,44.47342 L61.5407241,34.3219795 Z M71.3572662,30.6896537 C69.6490099,28.9832225 66.8808501,28.9832225 65.1730499,30.6896537 L65.1730499,30.6896537 L63.611711,32.2500801 L73.7640641,42.4024334 L75.3103464,40.8415506 C77.0131274,39.1342069 77.0195152,36.3724345 75.3244904,34.6568782 L75.3244904,34.6568782 L71.3572662,30.6896537 Z" id="Combined-Shape"></path>
        </g>
    </g>
</svg>