<?xml version="1.0" encoding="UTF-8"?>
<svg width="106px" height="106px" viewBox="0 0 106 106" version="1.1" xmlns="http://www.w3.org/2000/svg" xmlns:xlink="http://www.w3.org/1999/xlink">
    <title>People circle</title>
    <g id="Page-1" stroke="none" stroke-width="1" fill="none" fill-rule="evenodd">
        <g id="People-circle" fill="#000000" fill-rule="nonzero">
            <path d="M52.9994422,0 C67.1642835,0 80.4588962,5.51023778 90.4747474,15.5252525 C100.489762,25.5413826 106,38.8357165 106,52.9994422 C106,67.1642835 100.489762,80.4588962 90.4747474,90.4747474 C80.4588962,100.489762 67.1642835,106 52.9994422,106 C38.8357165,106 25.5413826,100.489762 15.5252525,90.4747474 C5.51023778,80.4588962 0,67.1642835 0,52.9994422 C0,38.8357165 5.51023778,25.5413826 15.5252525,15.5252525 C25.5413826,5.51023778 38.8357165,0 52.9994422,0 Z M52.9994097,3.3125 C39.7329042,3.3125 27.2445595,8.47918486 17.8487916,17.8694038 C-1.53293055,37.2396795 -1.53293055,68.7603205 17.8487916,88.1303014 C27.2445595,97.5205204 39.7329042,102.6875 52.9994097,102.6875 C66.2670958,102.6875 78.7554404,97.5205204 88.1512082,88.1303014 C107.532931,68.7603205 107.532931,37.2396795 88.1512082,17.8694038 C78.7554404,8.47918486 66.2670958,3.3125 52.9994097,3.3125 Z M47.161938,55.5846967 C47.665237,56.2541934 47.4896675,57.1761234 46.7756856,57.6480639 C46.5767071,57.7687926 41.9182668,60.819942 36.0893639,62.2247878 C33.3621866,63.1357425 33.0578664,65.8686064 32.9759341,68.3709878 C32.9759341,68.4697659 32.9642294,68.557569 32.9642294,68.6453718 C32.9408202,69.633154 33.0227525,71.1587285 33.2100266,72.036757 C35.1178802,73.0464901 42.5971348,76.547629 53.8569832,76.547629 C65.1636497,76.547629 72.5960858,73.0574654 74.492235,72.0477326 C74.6795089,71.1697038 74.7497365,69.6441293 74.7380321,68.6563471 C74.7263274,68.5685443 74.7263274,68.4807415 74.7263274,68.3819631 C74.6443951,65.8795817 74.3400747,63.1467178 71.6128974,62.2357631 C65.7839948,60.8309173 61.1255546,57.7907435 60.926576,57.6590392 C60.2125938,57.1870987 60.0370243,56.2651687 60.5403233,55.595672 C61.0436222,54.9261754 62.0268106,54.7615448 62.7407925,55.2334853 C62.787611,55.2664112 67.1768451,58.120004 72.4556305,59.3821702 C72.4907444,59.3931455 72.5375629,59.4041208 72.5726767,59.4150962 C77.6524833,61.0394491 77.8046436,66.1210394 77.8748713,68.2941603 L77.8807235,68.4354679 L77.8807235,68.4354679 L77.886576,68.5685443 L77.886576,68.6014702 C77.8982804,69.1721888 77.9099851,72.1026091 77.3247538,73.5623318 C77.2077076,73.8476911 76.9853199,74.0891488 76.7161134,74.2537791 C76.3649748,74.4623109 67.9493503,79.5 53.8686876,79.5 C39.7880252,79.5 31.3724006,74.4732865 31.0212619,74.2537791 C30.7403509,74.0891488 30.5296676,73.8476911 30.4126214,73.5623318 C29.8956672,72.3367502 29.8176364,70.0974724 29.8127594,69.0548137 L29.8156856,68.557569 C29.8273902,68.4697659 29.8273902,68.3819631 29.8273902,68.283185 C29.897618,66.1210394 30.0497781,61.0394491 35.1295849,59.4041208 C35.1646987,59.3931455 35.1998125,59.3821702 35.2466311,59.3711949 C40.5488256,58.1090287 44.9146503,55.2554359 44.9614688,55.2225099 C45.675451,54.7505695 46.6586394,54.9151997 47.161938,55.5846967 Z M53.9740294,26.5 C56.3383633,26.5439014 58.4569002,27.0707186 60.271117,28.0475254 C62.7056787,29.3535929 65.6552439,32.152309 65.9478596,38.0021743 C66.029792,38.7814247 66.7788877,46.9470906 62.2726077,51.7103954 C60.3818605,53.706222 57.8727773,54.8229807 54.8005932,55.0261423 L54.0208479,55.0578794 L53.6462999,55.0578794 C50.2168451,55.0030028 47.4428493,53.872541 45.4062445,51.7103954 C40.8999645,46.9470906 41.6490602,38.7814247 41.7309926,38.0021743 C42.0236082,32.1084075 45.0199921,29.3096915 47.4779631,28.0036239 C49.7203739,26.8063954 52.051301,26.5406241 53.4249414,26.5046429 L53.7750508,26.5 L53.9740294,26.5 Z M53.9038014,29.4743218 L53.7633461,29.4743218 C51.2117379,29.4743218 45.2540845,30.3194243 44.867832,38.1887555 C44.867832,38.2107061 44.8561273,38.2436323 44.8561273,38.2765583 C44.8444226,38.3424104 44.0485084,45.8385794 47.7588741,49.7458066 C49.0889448,51.1626255 50.8446384,51.9263651 53.0875116,52.0700097 L53.7750508,52.0945331 L53.892097,52.0945331 C56.4788186,52.0725821 58.4451955,51.3043074 59.9199781,49.7458066 C63.6420485,45.8166288 62.8227249,38.3533857 62.8110205,38.2765583 C62.7993157,38.2546077 62.7993157,38.2216814 62.7993157,38.1887555 C62.4364724,30.7474632 57.0640499,29.5401739 53.9038014,29.4743218 Z" id="Combined-Shape"></path>
        </g>
    </g>
</svg>