<?xml version="1.0" encoding="UTF-8"?>
<svg width="32px" height="32px" viewBox="0 0 32 32" version="1.1" xmlns="http://www.w3.org/2000/svg" xmlns:xlink="http://www.w3.org/1999/xlink">
    <title>3. Elements_Icons/4. Descriptions/People</title>
    <g id="3.-Elements_Icons/4.-Descriptions/People" stroke="none" stroke-width="1" fill="none" fill-rule="evenodd">
        <path d="M15.9998316,0 C20.2760101,0 24.2894781,1.66346801 27.3131313,4.68686869 C30.336532,7.71060606 32,11.7239899 32,15.9998316 C32,20.2760101 30.336532,24.2894781 27.3131313,27.3131313 C24.2894781,30.336532 20.2760101,32 15.9998316,32 C11.7239899,32 7.71060606,30.336532 4.68686869,27.3131313 C1.66346801,24.2894781 0,20.2760101 0,15.9998316 C0,11.7239899 1.66346801,7.71060606 4.68686869,4.68686869 C7.71060606,1.66346801 11.7239899,0 15.9998316,0 Z M15.9998218,1 C11.994839,1 8.22477269,2.55975392 5.38831446,5.39453699 C-0.462771486,11.2421674 -0.462771486,20.7578326 5.38831446,26.605374 C8.22477269,29.4401571 11.994839,31 15.9998218,31 C20.005161,31 23.7752273,29.4401571 26.6116855,26.605374 C32.4627715,20.7578326 32.4627715,11.2421674 26.6116855,5.39453699 C23.7752273,2.55975392 20.005161,1 15.9998218,1 Z M14.2375662,16.7802858 C14.3895055,16.982398 14.3365034,17.2607165 14.1209617,17.4031891 C14.0608927,17.4396355 12.6545711,18.3607372 10.8949023,18.7848416 C10.0716035,19.0598468 9.97973326,19.8848623 9.95499896,20.6402982 C9.95499896,20.670118 9.95146548,20.6966246 9.95146548,20.7231311 C9.94439854,21.0213295 9.96913284,21.4818803 10.0256684,21.7469455 C10.6016242,22.0517706 12.8595124,23.1087182 16.2587119,23.1087182 C19.6720452,23.1087182 21.9157995,22.0550839 22.4882219,21.7502589 C22.5447574,21.4851936 22.5659582,21.0246428 22.5624248,20.7264444 C22.5588913,20.6999379 22.5588913,20.6734314 22.5588913,20.6436115 C22.534157,19.8881756 22.4422867,19.0631601 21.6189879,18.7881549 C19.8593192,18.3640505 18.4529976,17.4462622 18.3929286,17.4065024 C18.1773868,17.2640298 18.1243847,16.9857113 18.276324,16.7835991 C18.4282633,16.5814869 18.7250749,16.5317871 18.9406166,16.6742597 C18.9547505,16.6841996 20.2798023,17.5456616 21.8733979,17.9266929 C21.8839983,17.9300062 21.8981322,17.9333195 21.9087326,17.9366328 C23.4422591,18.4270035 23.4881943,19.9610685 23.5093951,20.617105 L23.5111618,20.6597639 L23.5111618,20.6597639 L23.5129286,20.6999379 L23.5129286,20.7098778 C23.516462,20.8821702 23.5199955,21.7668254 23.3433219,22.2074964 C23.3079872,22.2936426 23.2408513,22.3665355 23.1595814,22.4162352 C23.0535773,22.4791882 20.5130114,24 16.2622453,24 C12.0114793,24 9.47091338,22.4825016 9.36490924,22.4162352 C9.28010593,22.3665355 9.21650344,22.2936426 9.18116873,22.2074964 C9.02510708,21.8375095 9.0015506,21.1615011 9.00007832,20.8467362 L9.00096169,20.6966246 C9.00449516,20.670118 9.00449516,20.6436115 9.00449516,20.6137917 C9.02569599,19.9610685 9.07163112,18.4270035 10.6051577,17.9333195 C10.6157581,17.9300062 10.6263585,17.9266929 10.6404924,17.9233796 C12.2411549,17.5423483 13.5591397,16.6808863 13.5732736,16.6709464 C13.7888154,16.5284738 14.085627,16.5781735 14.2375662,16.7802858 Z M16.2940466,8 C17.0078078,8.01325326 17.6473661,8.1722924 18.1950542,8.46717747 C18.9300162,8.861462 19.820451,9.70635742 19.9087878,11.4723545 C19.9335221,11.7075999 20.1596642,14.1727066 18.7992778,15.6106854 C18.2284862,16.2131991 17.4710271,16.5503338 16.5435753,16.6116656 L16.3081805,16.6212466 L16.1951094,16.6212466 C15.1598023,16.6046801 14.3223696,16.2634086 13.7075455,15.6106854 C12.3471591,14.1727066 12.5733012,11.7075999 12.5980355,11.4723545 C12.6863723,9.69310416 13.590941,8.84820874 14.33297,8.45392421 C15.0099242,8.09249672 15.7136003,8.01226387 16.1282842,8.00140164 L16.2339776,8 L16.2940466,8 Z M16.2728457,8.89790847 L16.2304441,8.89790847 C15.4601473,8.89790847 13.6616104,9.15303375 13.5450059,11.5286809 C13.5450059,11.5353075 13.5414724,11.5452475 13.5414724,11.5551874 C13.5379389,11.5750673 13.2976629,13.8380617 14.4177733,15.017602 C14.8193041,15.4453209 15.3493248,15.6758838 16.0264186,15.7192482 L16.2339776,15.7266515 L16.2693123,15.7266515 C17.0502094,15.7200248 17.6438326,15.4880928 18.08905,15.017602 C19.2126939,13.8314351 18.9653509,11.5783806 18.9618175,11.5551874 C18.958284,11.5485608 18.958284,11.5386208 18.958284,11.5286809 C18.8487464,9.28225305 17.226883,8.91778836 16.2728457,8.89790847 Z" id="Combined-Shape" fill="#000000"></path>
    </g>
</svg>