<?xml version="1.0" encoding="UTF-8"?>
<svg width="106px" height="106px" viewBox="0 0 106 106" version="1.1" xmlns="http://www.w3.org/2000/svg" xmlns:xlink="http://www.w3.org/1999/xlink">
    <title>Premium circle</title>
    <g id="Page-1" stroke="none" stroke-width="1" fill="none" fill-rule="evenodd">
        <g id="Premium-circle" fill="#000000" fill-rule="nonzero">
            <path d="M52.9994422,0 C67.1642835,0 80.4588962,5.51023778 90.4747474,15.5252525 C100.489762,25.5413826 106,38.8357165 106,52.9994422 C106,67.1642835 100.489762,80.4588962 90.4747474,90.4747474 C80.4588962,100.489762 67.1642835,106 52.9994422,106 C38.8357165,106 25.5413826,100.489762 15.5252525,90.4747474 C5.51023778,80.4588962 0,67.1642835 0,52.9994422 C0,38.8357165 5.51023778,25.5413826 15.5252525,15.5252525 C25.5413826,5.51023778 38.8357165,0 52.9994422,0 Z M52.9994097,3.3125 C39.7329042,3.3125 27.2445595,8.47918486 17.8487916,17.8694038 C-1.53293055,37.2396795 -1.53293055,68.7603205 17.8487916,88.1303014 C27.2445595,97.5205204 39.7329042,102.6875 52.9994097,102.6875 C66.2670958,102.6875 78.7554404,97.5205204 88.1512082,88.1303014 C107.532931,68.7603205 107.532931,37.2396795 88.1512082,17.8694038 C78.7554404,8.47918486 66.2670958,3.3125 52.9994097,3.3125 Z M54.1041666,26.5 C63.8388604,26.5 71.7708334,34.2733334 71.7708334,43.8133334 C71.7708334,49.6433334 68.8864797,54.7666666 64.1994048,57.9466666 L64.1994048,57.9466666 L64.1994048,79.5 L54.464711,74.73 L44.7300171,79.5 L44.7300171,58.4766666 C39.6823978,55.4733334 36.4375,49.9966666 36.4375,43.8133334 C36.4375,34.2733334 44.3694727,26.5 54.1041666,26.5 Z M60.9545067,59.7133334 C58.7912414,60.5966666 56.447704,61.1266666 54.1041666,61.1266666 C52.1211735,61.1266666 49.9579083,60.7733334 48.1551872,60.0666666 L48.1551872,60.0666666 L48.1551872,74.2 L54.464711,71.02 L60.9545067,74.2 L60.9545067,59.7133334 Z M54.1041666,29.8566667 C46.3524661,29.8566667 39.8626701,36.04 39.8626701,43.8133334 C39.8626701,51.5866666 46.3524661,57.77 54.1041666,57.77 C61.8558674,57.77 68.3456634,51.5866666 68.3456634,43.8133334 C68.3456634,36.2166666 61.8558674,29.8566667 54.1041666,29.8566667 Z" id="Combined-Shape"></path>
        </g>
    </g>
</svg>