<?xml version="1.0" encoding="UTF-8"?>
<svg width="32px" height="32px" viewBox="0 0 32 32" version="1.1" xmlns="http://www.w3.org/2000/svg" xmlns:xlink="http://www.w3.org/1999/xlink">
    <title>3. Elements_Icons/4. Descriptions/Premium_circle</title>
    <g id="3.-Elements_Icons/4.-Descriptions/Premium_circle" stroke="none" stroke-width="1" fill="none" fill-rule="evenodd">
        <path d="M15.9998316,0 C20.2760101,0 24.2894781,1.66346801 27.3131313,4.68686869 C30.336532,7.71060606 32,11.7239899 32,15.9998316 C32,20.2760101 30.336532,24.2894781 27.3131313,27.3131313 C24.2894781,30.336532 20.2760101,32 15.9998316,32 C11.7239899,32 7.71060606,30.336532 4.68686869,27.3131313 C1.66346801,24.2894781 0,20.2760101 0,15.9998316 C0,11.7239899 1.66346801,7.71060606 4.68686869,4.68686869 C7.71060606,1.66346801 11.7239899,0 15.9998316,0 Z M15.9998218,1 C11.994839,1 8.22477269,2.55975392 5.38831446,5.39453699 C-0.462771486,11.2421674 -0.462771486,20.7578326 5.38831446,26.605374 C8.22477269,29.4401571 11.994839,31 15.9998218,31 C20.005161,31 23.7752273,29.4401571 26.6116855,26.605374 C32.4627715,20.7578326 32.4627715,11.2421674 26.6116855,5.39453699 C23.7752273,2.55975392 20.005161,1 15.9998218,1 Z M16.3333333,8 C19.2721088,8 21.6666667,10.3466667 21.6666667,13.2266667 C21.6666667,14.9866667 20.7959184,16.5333333 19.3809524,17.4933333 L19.3809524,17.4933333 L19.3809524,24 L16.4421769,22.56 L13.5034014,24 L13.5034014,17.6533333 C11.9795918,16.7466667 11,15.0933333 11,13.2266667 C11,10.3466667 13.3945578,8 16.3333333,8 Z M18.4013605,18.0266667 C17.7482993,18.2933333 17.0408163,18.4533333 16.3333333,18.4533333 C15.7346939,18.4533333 15.0816327,18.3466667 14.537415,18.1333333 L14.537415,18.1333333 L14.537415,22.4 L16.4421769,21.44 L18.4013605,22.4 Z M16.3333333,9.01333333 C13.9931973,9.01333333 12.0340136,10.88 12.0340136,13.2266667 C12.0340136,15.5733333 13.9931973,17.44 16.3333333,17.44 C18.6734694,17.44 20.6326531,15.5733333 20.6326531,13.2266667 C20.6326531,10.9333333 18.6734694,9.01333333 16.3333333,9.01333333 Z" id="Combined-Shape" fill="#000000"></path>
    </g>
</svg>