<?xml version="1.0" encoding="UTF-8"?>
<svg width="106px" height="106px" viewBox="0 0 106 106" version="1.1" xmlns="http://www.w3.org/2000/svg" xmlns:xlink="http://www.w3.org/1999/xlink">
    <title>Purse circle</title>
    <g id="Page-1" stroke="none" stroke-width="1" fill="none" fill-rule="evenodd">
        <g id="Purse-circle" fill="#000000" fill-rule="nonzero">
            <path d="M52.9994422,0 C67.1642835,0 80.4588962,5.51023778 90.4747474,15.5252525 C100.489762,25.5413826 106,38.8357165 106,52.9994422 C106,67.1642835 100.489762,80.4588962 90.4747474,90.4747474 C80.4588962,100.489762 67.1642835,106 52.9994422,106 C38.8357165,106 25.5413826,100.489762 15.5252525,90.4747474 C5.51023778,80.4588962 0,67.1642835 0,52.9994422 C0,38.8357165 5.51023778,25.5413826 15.5252525,15.5252525 C25.5413826,5.51023778 38.8357165,0 52.9994422,0 Z M52.9994097,3.3125 C39.7329042,3.3125 27.2445595,8.47918486 17.8487916,17.8694038 C-1.53293055,37.2396795 -1.53293055,68.7603205 17.8487916,88.1303014 C27.2445595,97.5205204 39.7329042,102.6875 52.9994097,102.6875 C66.2670958,102.6875 78.7554404,97.5205204 88.1512082,88.1303014 C107.532931,68.7603205 107.532931,37.2396795 88.1512082,17.8694038 C78.7554404,8.47918486 66.2670958,3.3125 52.9994097,3.3125 Z M65.4727298,29.8125 C67.6003287,29.8125 69.3290025,31.5411738 69.3290025,33.6687724 L69.3290025,33.6687724 L69.3179212,36.5388141 L70.503614,36.5388141 C73.6506871,36.5388141 76.2215353,39.0985813 76.2215353,42.2567354 L76.2215353,42.2567354 L76.2215353,49.9803614 L77.5069595,49.9803614 C79.1691458,49.9803614 80.5210573,51.3322728 80.5321386,52.9944595 L80.5321386,52.9944595 L80.5321386,59.7207736 C80.5321386,61.38296 79.1802272,62.7348717 77.5180405,62.7348717 L77.5180405,62.7348717 L76.2326166,62.7348717 L76.2326166,70.4695788 C76.2326166,73.6166519 73.6728494,76.1875 70.5146954,76.1875 L70.5146954,76.1875 L30.3562724,76.1875 C28.2286738,76.1875 26.5,74.4588262 26.5,72.3312276 L26.5,72.3312276 L26.5,34.4333782 C26.5332437,31.8736111 28.6275986,29.8125 31.1873656,29.8125 L31.1873656,29.8125 L65.4727298,29.8125 Z M29.148417,38.7329002 L29.148417,72.3201463 C29.148417,72.985021 29.6913978,73.5169204 30.3451912,73.5169204 L30.3451912,73.5169204 L70.503614,73.5169204 C72.187963,73.5169204 73.562037,72.1428464 73.562037,70.4584975 L73.562037,70.4584975 L73.562037,62.7348717 L64.4864995,62.7348717 C62.8243129,62.7348717 61.4724015,61.38296 61.4724015,59.7207736 L61.4724015,59.7207736 L61.4724015,52.9944595 C61.4724015,51.3322728 62.8243129,49.9803614 64.4864995,49.9803614 L64.4864995,49.9803614 L73.562037,49.9803614 L73.562037,42.2567354 C73.562037,40.5723864 72.187963,39.1983124 70.503614,39.1983124 L70.503614,39.1983124 L31.1873656,39.1983124 C30.4560036,39.1983124 29.7689666,39.0320938 29.148417,38.7329002 L29.148417,38.7329002 Z M77.5069595,52.6398597 L64.4975805,52.6398597 C64.2981183,52.6398597 64.142981,52.8060783 64.142981,52.9944595 L64.142981,52.9944595 L64.142981,59.7207737 C64.142981,59.9202358 64.2981183,60.0753735 64.4975805,60.0753735 L64.4975805,60.0753735 L77.5069595,60.0753735 C77.7064217,60.0753735 77.861559,59.9202358 77.861559,59.7207737 L77.861559,59.7207737 L77.861559,52.9944595 C77.861559,52.794997 77.6953404,52.6398597 77.5069595,52.6398597 L77.5069595,52.6398597 Z M65.4727298,32.4719982 L31.1873656,32.4719982 C30.0681601,32.4719982 29.1594982,33.3917414 29.1594982,34.5109467 C29.1594982,35.6301523 30.0681601,36.5388141 31.1873656,36.5388141 L31.1873656,36.5388141 L66.658423,36.5388141 L66.6695043,33.6576911 C66.6695043,33.0038978 66.1265233,32.4719982 65.4727298,32.4719982 L65.4727298,32.4719982 Z" id="Combined-Shape"></path>
        </g>
    </g>
</svg>