<?xml version="1.0" encoding="UTF-8"?>
<svg width="32px" height="32px" viewBox="0 0 32 32" version="1.1" xmlns="http://www.w3.org/2000/svg" xmlns:xlink="http://www.w3.org/1999/xlink">
    <title>3. Elements_Icons/4. Descriptions/Purse_circle</title>
    <g id="3.-Elements_Icons/4.-Descriptions/Purse_circle" stroke="none" stroke-width="1" fill="none" fill-rule="evenodd">
        <path d="M15.9998316,0 C20.2760101,0 24.2894781,1.66346801 27.3131313,4.68686869 C30.336532,7.71060606 32,11.7239899 32,15.9998316 C32,20.2760101 30.336532,24.2894781 27.3131313,27.3131313 C24.2894781,30.336532 20.2760101,32 15.9998316,32 C11.7239899,32 7.71060606,30.336532 4.68686869,27.3131313 C1.66346801,24.2894781 0,20.2760101 0,15.9998316 C0,11.7239899 1.66346801,7.71060606 4.68686869,4.68686869 C7.71060606,1.66346801 11.7239899,0 15.9998316,0 Z M15.9998218,1 C11.994839,1 8.22477269,2.55975392 5.38831446,5.39453699 C-0.462771486,11.2421674 -0.462771486,20.7578326 5.38831446,26.605374 C8.22477269,29.4401571 11.994839,31 15.9998218,31 C20.005161,31 23.7752273,29.4401571 26.6116855,26.605374 C32.4627715,20.7578326 32.4627715,11.2421674 26.6116855,5.39453699 C23.7752273,2.55975392 20.005161,1 15.9998218,1 Z M19.7653524,9 C20.4076464,9 20.9295102,9.5218638 20.9295102,10.1641577 L20.9295102,10.1641577 L20.9261649,11.0305854 L21.2841099,11.0305854 C22.2341697,11.0305854 23.0102748,11.8033453 23.0102748,12.7567503 L23.0102748,12.7567503 L23.0102748,15.088411 L23.3983274,15.088411 C23.9001195,15.088411 24.3082437,15.4965352 24.311589,15.9983274 L24.311589,15.9983274 L24.311589,18.0289128 C24.311589,18.5307049 23.9034648,18.9388292 23.4016726,18.9388292 L23.4016726,18.9388292 L23.0136201,18.9388292 L23.0136201,21.2738351 C23.0136201,22.2238949 22.2408602,23 21.2874552,23 L21.2874552,23 L9.16415771,23 C8.5218638,23 8,22.4781362 8,21.8358423 L8,21.8358423 L8,10.3949821 C8.01003584,9.62222222 8.64229391,9 9.41505376,9 L9.41505376,9 Z M8.7995221,11.692951 L8.7995221,21.832497 C8.7995221,22.0332139 8.96344086,22.1937873 9.16081243,22.1937873 L9.16081243,22.1937873 L21.2841099,22.1937873 C21.7925926,22.1937873 22.2074074,21.7789725 22.2074074,21.2704898 L22.2074074,21.2704898 L22.2074074,18.9388292 L19.4676225,18.9388292 C18.9658303,18.9388292 18.5577061,18.5307049 18.5577061,18.0289128 L18.5577061,18.0289128 L18.5577061,15.9983274 C18.5577061,15.4965352 18.9658303,15.088411 19.4676225,15.088411 L19.4676225,15.088411 L22.2074074,15.088411 L22.2074074,12.7567503 C22.2074074,12.2482676 21.7925926,11.8334528 21.2841099,11.8334528 L21.2841099,11.8334528 L9.41505376,11.8334528 C9.19426523,11.8334528 8.98685783,11.7832736 8.7995221,11.692951 L8.7995221,11.692951 Z M23.3983274,15.8912784 L19.4709677,15.8912784 C19.4107527,15.8912784 19.3639188,15.9414576 19.3639188,15.9983274 L19.3639188,15.9983274 L19.3639188,18.0289128 C19.3639188,18.0891278 19.4107527,18.1359618 19.4709677,18.1359618 L19.4709677,18.1359618 L23.3983274,18.1359618 C23.4585424,18.1359618 23.5053763,18.0891278 23.5053763,18.0289128 L23.5053763,18.0289128 L23.5053763,15.9983274 C23.5053763,15.9381123 23.4551971,15.8912784 23.3983274,15.8912784 L23.3983274,15.8912784 Z M19.7653524,9.80286738 L9.41505376,9.80286738 C9.07718041,9.80286738 8.80286738,10.0805257 8.80286738,10.418399 C8.80286738,10.7562724 9.07718041,11.0305854 9.41505376,11.0305854 L9.41505376,11.0305854 L20.1232975,11.0305854 L20.1266428,10.1608124 C20.1266428,9.96344086 19.962724,9.80286738 19.7653524,9.80286738 L19.7653524,9.80286738 Z" id="Combined-Shape" fill="#000000"></path>
    </g>
</svg>