<?xml version="1.0" encoding="UTF-8"?>
<svg width="32px" height="32px" viewBox="0 0 32 32" version="1.1" xmlns="http://www.w3.org/2000/svg" xmlns:xlink="http://www.w3.org/1999/xlink">
    <title>3. Elements_Icons/4. Descriptions/Responsive_circle</title>
    <g id="3.-Elements_Icons/4.-Descriptions/Responsive_circle" stroke="none" stroke-width="1" fill="none" fill-rule="evenodd">
        <path d="M15.9998316,0 C20.2760101,0 24.2894781,1.66346801 27.3131313,4.68686869 C30.336532,7.71060606 32,11.7239899 32,15.9998316 C32,20.2760101 30.336532,24.2894781 27.3131313,27.3131313 C24.2894781,30.336532 20.2760101,32 15.9998316,32 C11.7239899,32 7.71060606,30.336532 4.68686869,27.3131313 C1.66346801,24.2894781 0,20.2760101 0,15.9998316 C0,11.7239899 1.66346801,7.71060606 4.68686869,4.68686869 C7.71060606,1.66346801 11.7239899,0 15.9998316,0 Z M15.9998218,1 C11.994839,1 8.22477269,2.55975392 5.38831446,5.39453699 C-0.462771486,11.2421674 -0.462771486,20.7578326 5.38831446,26.605374 C8.22477269,29.4401571 11.994839,31 15.9998218,31 C20.005161,31 23.7752273,29.4401571 26.6116855,26.605374 C32.4627715,20.7578326 32.4627715,11.2421674 26.6116855,5.39453699 C23.7752273,2.55975392 20.005161,1 15.9998218,1 Z M22.5,18 C22.7761424,18 23,18.2238576 23,18.5 L23,18.5 L23,22.5 C23,22.7761424 22.7761424,23 22.5,23 L22.5,23 L18.5,23 C18.2238576,23 18,22.7761424 18,22.5 C18,22.2238576 18.2238576,22 18.5,22 L18.5,22 L22,22 L22,18.5 C22,18.2238576 22.2238576,18 22.5,18 Z M9.5,18 C9.77614237,18 10,18.2238576 10,18.5 L10,22 L13.5,22 C13.7761424,22 14,22.2238576 14,22.5 C14,22.7761424 13.7761424,23 13.5,23 L9.5,23 C9.22385763,23 9,22.7761424 9,22.5 L9,18.5 C9,18.2238576 9.22385763,18 9.5,18 Z M22.5,9 C22.7761424,9 23,9.22385763 23,9.5 L23,13.5 C23,13.7761424 22.7761424,14 22.5,14 C22.2238576,14 22,13.7761424 22,13.5 L22,10 L18.5,10 C18.2238576,10 18,9.77614237 18,9.5 C18,9.22385763 18.2238576,9 18.5,9 L22.5,9 Z M13.5,9 C13.7761424,9 14,9.22385763 14,9.5 C14,9.77614237 13.7761424,10 13.5,10 L13.5,10 L10,10 L10,13.5 C10,13.7761424 9.77614237,14 9.5,14 C9.22385763,14 9,13.7761424 9,13.5 L9,13.5 L9,9.5 C9,9.22385763 9.22385763,9 9.5,9 L9.5,9 Z" id="Combined-Shape" fill="#000000"></path>
    </g>
</svg>