<?xml version="1.0" encoding="UTF-8"?>
<svg width="32px" height="32px" viewBox="0 0 32 32" version="1.1" xmlns="http://www.w3.org/2000/svg" xmlns:xlink="http://www.w3.org/1999/xlink">
    <title>3. Elements_Icons/4. Descriptions/Saving_circle</title>
    <g id="3.-Elements_Icons/4.-Descriptions/Saving_circle" stroke="none" stroke-width="1" fill="none" fill-rule="evenodd">
        <path d="M15.9998316,0 C20.2760101,0 24.2894781,1.66346801 27.3131313,4.68686869 C30.336532,7.71060606 32,11.7239899 32,15.9998316 C32,20.2760101 30.336532,24.2894781 27.3131313,27.3131313 C24.2894781,30.336532 20.2760101,32 15.9998316,32 C11.7239899,32 7.71060606,30.336532 4.68686869,27.3131313 C1.66346801,24.2894781 0,20.2760101 0,15.9998316 C0,11.7239899 1.66346801,7.71060606 4.68686869,4.68686869 C7.71060606,1.66346801 11.7239899,0 15.9998316,0 Z M15.9998218,1 C11.994839,1 8.22477269,2.55975392 5.38831446,5.39453699 C-0.462771486,11.2421674 -0.462771486,20.7578326 5.38831446,26.605374 C8.22477269,29.4401571 11.994839,31 15.9998218,31 C20.005161,31 23.7752273,29.4401571 26.6116855,26.605374 C32.4627715,20.7578326 32.4627715,11.2421674 26.6116855,5.39453699 C23.7752273,2.55975392 20.005161,1 15.9998218,1 Z M21.1612903,8.68910256 C21.4903226,8.68910256 21.7645161,8.8525641 21.9290323,9.125 C22.1483871,9.3974359 22.1483871,9.77884615 21.9290323,10.1057692 C21.6,10.5961538 21.4903226,11.0865385 21.6548387,11.5224359 C22.5322581,12.2307692 23.1903226,13.1570513 23.5741935,14.1923077 L23.7935484,14.1923077 C24.4516129,14.1923077 25,14.7371795 25,15.3910256 L25,17.2435897 C25,17.8974359 24.4516129,18.4423077 23.7935484,18.4423077 L23.6290323,18.4423077 C23.2451613,19.4230769 22.6419355,20.349359 21.7645161,21.1121795 L21.6548387,21.2211538 C20.9967742,21.8205128 20.9967742,22.474359 20.9419355,22.5833333 L20.9419355,23.1282051 C20.9419355,23.6185897 20.5580645,24 20.0645161,24 L17.5419355,24 C17.0483871,24 16.6645161,23.6185897 16.6645161,23.1282051 L16.6645161,23.0192308 L15.6225806,23.0192308 L15.6225806,23.0192308 L15.6225806,23.1282051 C15.6225806,23.6185897 15.2387097,24 14.7451613,24 L12.2225806,24 C11.783871,24 11.4,23.6730769 11.3451613,23.2371795 L11.3451613,22.9647436 C11.3451613,22.6378205 11.2354839,21.7660256 10.5225806,21.0576923 C10.0290323,20.5673077 9.59032258,19.9134615 9.20645161,19.0961538 C9.03096774,18.7474359 8.89058065,18.3987179 8.78529032,18.0221026 L8.71290323,17.7339744 L8.71290323,17.6794872 C8.60322581,17.2435897 8.5483871,16.7532051 8.5483871,16.3173077 C8.5483871,15.9903846 8.60322581,15.6634615 8.65806452,15.3365385 C8.71290323,15.1185897 8.87741935,14.9551282 9.09677419,14.9551282 L9.1516129,14.9551282 L9.1516129,14.9551282 C9.26129032,14.9551282 9.37096774,15.0641026 9.48064516,15.1185897 C9.53548387,15.2275641 9.59032258,15.3365385 9.53548387,15.4455128 C9.48064516,15.7179487 9.48064516,15.9903846 9.48064516,16.2628205 C9.48064516,16.6442308 9.53548387,17.0801282 9.64516129,17.4615385 C9.75483871,17.8974359 9.91935484,18.2788462 10.083871,18.6602564 C10.4129032,19.3685897 10.7967742,19.9134615 11.2354839,20.349359 C12.1677419,21.275641 12.2774194,22.4198718 12.3322581,22.9102564 L12.3322581,23.0737179 L14.7451613,23.0737179 L14.7451613,22.5288462 C14.7451613,22.4198718 14.8,22.2564103 14.9096774,22.2019231 C15.0193548,22.1474359 15.1290323,22.0929487 15.2387097,22.0929487 L15.2935484,22.0929487 L15.2935484,22.0929487 C15.6225806,22.1474359 16.0064516,22.1474359 16.3354839,22.1474359 C16.541129,22.1474359 16.7467742,22.1474359 16.9524194,22.1244491 L17.1580645,22.0929487 L17.1580645,22.0929487 C17.3225806,22.0929487 17.4322581,22.1474359 17.4870968,22.2019231 C17.5967742,22.3108974 17.6516129,22.4198718 17.6516129,22.5288462 L17.6516129,23.0737179 L20.0645161,23.0737179 L20.0645161,22.5288462 C20.0645161,22.2564103 20.1741935,21.275641 21.0516129,20.4583333 L21.1612903,20.349359 C21.983871,19.6410256 22.5870968,18.7147436 22.8612903,17.7884615 C22.916129,17.5705128 23.0806452,17.4615385 23.3,17.4615385 L23.8483871,17.4615385 C24.0129032,17.4615385 24.1225806,17.3525641 24.1225806,17.1891026 L24.1225806,15.3365385 C24.1225806,15.1730769 24.0129032,15.0641026 23.8483871,15.0641026 L23.3,15.0641026 C23.0806452,15.0641026 22.916129,14.9551282 22.8612903,14.7371795 C22.5322581,13.7019231 21.8741935,12.775641 20.9419355,12.0673077 C20.8322581,11.9583333 20.7774194,11.849359 20.7774194,11.7403846 C20.5580645,11.0320513 20.7225806,10.2692308 21.1612903,9.56089744 C20.0645161,9.72435897 19.4612903,10.2692308 19.1870968,10.7051282 C19.0774194,10.8141026 18.9677419,10.9230769 18.8032258,10.9230769 L18.6387097,10.9230769 L18.6387097,10.9230769 C18.2,10.7596154 17.7064516,10.7051282 17.2677419,10.650641 C17.1580645,10.650641 17.0483871,10.5961538 16.9387097,10.4871795 C16.883871,10.3782051 16.8290323,10.2692308 16.8290323,10.1602564 C16.8290323,9.94230769 17.0483871,9.72435897 17.2677419,9.72435897 L17.3225806,9.72435897 C17.7612903,9.77884615 18.1451613,9.83333333 18.583871,9.94230769 C19.1870968,9.23397436 20.0096774,8.8525641 21.0516129,8.68910256 L21.1612903,8.68910256 L21.1612903,8.68910256 Z M12.1129032,7 C14.416129,7 16.2258065,8.8525641 16.2258065,11.0865385 C16.2258065,13.3205128 14.416129,15.2275641 12.1129032,15.2275641 C9.80967742,15.2275641 8,13.375 8,11.1410256 C8,8.90705128 9.86451613,7 12.1129032,7 Z M12.1129032,7.92628205 C10.3580645,7.92628205 8.93225806,9.34294872 8.93225806,11.0865385 C8.93225806,12.8301282 10.3580645,14.2467949 12.1129032,14.2467949 C13.8677419,14.2467949 15.2935484,12.8301282 15.2935484,11.0865385 C15.2935484,9.34294872 13.9225806,7.92628205 12.1129032,7.92628205 Z" id="Combined-Shape" fill="#000000"></path>
    </g>
</svg>