<?xml version="1.0" encoding="UTF-8"?>
<svg width="106px" height="106px" viewBox="0 0 106 106" version="1.1" xmlns="http://www.w3.org/2000/svg" xmlns:xlink="http://www.w3.org/1999/xlink">
    <title>Saving circle</title>
    <g id="Page-1" stroke="none" stroke-width="1" fill="none" fill-rule="evenodd">
        <g id="Saving-circle" fill="#000000" fill-rule="nonzero">
            <path d="M52.9994422,0 C67.1642835,0 80.4588962,5.51023778 90.4747474,15.5252525 C100.489762,25.5413826 106,38.8357165 106,52.9994422 C106,67.1642835 100.489762,80.4588962 90.4747474,90.4747474 C80.4588962,100.489762 67.1642835,106 52.9994422,106 C38.8357165,106 25.5413826,100.489762 15.5252525,90.4747474 C5.51023778,80.4588962 0,67.1642835 0,52.9994422 C0,38.8357165 5.51023778,25.5413826 15.5252525,15.5252525 C25.5413826,5.51023778 38.8357165,0 52.9994422,0 Z M52.9994097,3.3125 C39.7329042,3.3125 27.2445595,8.47918486 17.8487916,17.8694038 C-1.53293055,37.2396795 -1.53293055,68.7603205 17.8487916,88.1303014 C27.2445595,97.5205204 39.7329042,102.6875 52.9994097,102.6875 C66.2670958,102.6875 78.7554404,97.5205204 88.1512082,88.1303014 C107.532931,68.7603205 107.532931,37.2396795 88.1512082,17.8694038 C78.7554404,8.47918486 66.2670958,3.3125 52.9994097,3.3125 Z M70.0967741,28.7826522 C71.1866936,28.7826522 72.0949596,29.3241186 72.6399195,30.2265625 C73.3665323,31.1290064 73.3665323,32.3924279 72.6399195,33.4753605 C71.55,35.0997595 71.1866936,36.7241588 71.7316532,38.1680689 C74.638105,40.514423 76.8179436,43.5827324 78.089516,47.0120193 L78.8161291,47.0120193 C80.9959677,47.0120193 82.8125,48.8169071 82.8125,50.9827723 L82.8125,57.1193909 C82.8125,59.2852564 80.9959677,61.0901443 78.8161291,61.0901443 L78.2711695,61.0901443 C76.9995968,64.3389422 75.0014113,67.4072517 72.0949596,69.9340946 L71.7316532,70.295072 C69.5518145,72.2804486 69.5518145,74.4463142 69.3701613,74.8072916 L69.3701613,76.6121794 C69.3701613,78.2365784 68.0985887,79.5 66.4637096,79.5 L58.1076613,79.5 C56.4727823,79.5 55.2012096,78.2365784 55.2012096,76.6121794 L55.2012096,76.251202 L51.7497982,76.251202 L51.7497982,76.251202 L51.7497982,76.6121794 C51.7497982,78.2365784 50.4782259,79.5 48.8433468,79.5 L40.4872982,79.5 C39.0340727,79.5 37.7625,78.4170672 37.5808468,76.9731571 L37.5808468,76.0707132 C37.5808468,74.9877804 37.2175404,72.0999598 34.8560482,69.7536057 C33.2211695,68.1292068 31.7679435,65.9633412 30.496371,63.2560095 C29.9150806,62.1008814 29.4500484,60.945753 29.1012742,59.6982149 L28.8614919,58.7437902 L28.8614919,58.5633014 C28.4981855,57.1193909 28.3165323,55.4949919 28.3165323,54.0510818 C28.3165323,52.968149 28.4981855,51.8852162 28.6798387,50.8022838 C28.8614919,50.0803284 29.4064516,49.5388622 30.1330645,49.5388622 L30.3147177,49.5388622 L30.3147177,49.5388622 C30.6780242,49.5388622 31.0413306,49.8998399 31.4046371,50.0803284 C31.5862903,50.4413061 31.7679435,50.8022838 31.5862903,51.1632611 C31.4046371,52.0657051 31.4046371,52.968149 31.4046371,53.8705929 C31.4046371,55.1340145 31.5862903,56.5779247 31.9495968,57.8413463 C32.3129032,59.2852564 32.8578629,60.548678 33.4028227,61.8120993 C34.4927419,64.1584534 35.7643145,65.9633412 37.2175404,67.4072517 C40.305645,70.4755608 40.6689518,74.2658253 40.850605,75.8902243 L40.850605,76.4316905 L48.8433468,76.4316905 L48.8433468,74.626803 C48.8433468,74.2658253 49.025,73.7243591 49.3883064,73.5438703 C49.7516128,73.3633814 50.1149195,73.1828926 50.4782259,73.1828926 L50.6598791,73.1828926 L50.6598791,73.1828926 C51.7497982,73.3633814 53.0213709,73.3633814 54.1112904,73.3633814 C54.7924898,73.3633814 55.4736895,73.3633814 56.1548893,73.2872376 L56.8360887,73.1828926 L56.8360887,73.1828926 C57.3810482,73.1828926 57.744355,73.3633814 57.9260082,73.5438703 C58.2893145,73.9048476 58.4709677,74.2658253 58.4709677,74.626803 L58.4709677,76.4316905 L66.4637096,76.4316905 L66.4637096,74.626803 C66.4637096,73.7243591 66.827016,70.4755608 69.7334677,67.7682291 L70.0967741,67.4072517 C72.8215727,65.0608973 74.8197582,61.9925882 75.7280241,58.9242787 C75.9096773,58.2023236 76.4546372,57.8413463 77.18125,57.8413463 L78.9977823,57.8413463 C79.5427418,57.8413463 79.9060482,57.4803686 79.9060482,56.9389024 L79.9060482,50.8022838 C79.9060482,50.2608172 79.5427418,49.8998399 78.9977823,49.8998399 L77.18125,49.8998399 C76.4546372,49.8998399 75.9096773,49.5388622 75.7280241,48.8169071 C74.638105,45.3876203 72.458266,42.3193108 69.3701613,39.9729568 C69.006855,39.6119791 68.8252018,39.2510017 68.8252018,38.890024 C68.0985887,36.5436699 68.6435482,34.016827 70.0967741,31.6704728 C66.4637096,32.2119391 64.4655241,34.016827 63.5572581,35.4607372 C63.1939518,35.8217149 62.830645,36.1826922 62.2856855,36.1826922 L61.7407259,36.1826922 L61.7407259,36.1826922 C60.2875,35.641226 58.6526209,35.4607372 57.199395,35.2802483 C56.8360887,35.2802483 56.4727823,35.0997595 56.1094759,34.7387821 C55.9278227,34.3778044 55.7461695,34.016827 55.7461695,33.6558493 C55.7461695,32.9338942 56.4727823,32.2119391 57.199395,32.2119391 L57.3810482,32.2119391 C58.8342741,32.3924279 60.1058468,32.5729167 61.5590727,32.9338942 C63.5572581,30.5875401 66.2820564,29.3241186 69.7334677,28.7826522 L70.0967741,28.7826522 L70.0967741,28.7826522 Z M40.1239919,23.1875 C47.7534273,23.1875 53.747984,29.3241186 53.747984,36.7241588 C53.747984,44.1241986 47.7534273,50.4413061 40.1239919,50.4413061 C32.4945565,50.4413061 26.5,44.3046875 26.5,36.9046473 C26.5,29.5046074 32.6762097,23.1875 40.1239919,23.1875 Z M40.1239918,26.2558093 C34.3110887,26.2558093 29.5881048,30.9485176 29.5881048,36.7241588 C29.5881048,42.4997997 34.3110887,47.1925081 40.1239918,47.1925081 C45.936895,47.1925081 50.6598791,42.4997997 50.6598791,36.7241588 C50.6598791,30.9485176 46.1185482,26.2558093 40.1239918,26.2558093 Z" id="Combined-Shape"></path>
        </g>
    </g>
</svg>