<?xml version="1.0" encoding="UTF-8"?>
<svg width="106px" height="106px" viewBox="0 0 106 106" version="1.1" xmlns="http://www.w3.org/2000/svg" xmlns:xlink="http://www.w3.org/1999/xlink">
    <title>Secure circle</title>
    <g id="Page-1" stroke="none" stroke-width="1" fill="none" fill-rule="evenodd">
        <g id="Secure-circle" fill="#000000" fill-rule="nonzero">
            <path d="M52.9994422,0 C67.1642835,0 80.4588962,5.51023778 90.4747474,15.5252525 C100.489762,25.5413826 106,38.8357165 106,52.9994422 C106,67.1642835 100.489762,80.4588962 90.4747474,90.4747474 C80.4588962,100.489762 67.1642835,106 52.9994422,106 C38.8357165,106 25.5413826,100.489762 15.5252525,90.4747474 C5.51023778,80.4588962 0,67.1642835 0,52.9994422 C0,38.8357165 5.51023778,25.5413826 15.5252525,15.5252525 C25.5413826,5.51023778 38.8357165,0 52.9994422,0 Z M52.9994097,3.3125 C39.7329042,3.3125 27.2445595,8.47918486 17.8487916,17.8694038 C-1.53293055,37.2396795 -1.53293055,68.7603205 17.8487916,88.1303014 C27.2445595,97.5205204 39.7329042,102.6875 52.9994097,102.6875 C66.2670958,102.6875 78.7554404,97.5205204 88.1512082,88.1303014 C107.532931,68.7603205 107.532931,37.2396795 88.1512082,17.8694038 C78.7554404,8.47918486 66.2670958,3.3125 52.9994097,3.3125 Z M54.1177157,27.1273853 L54.4561684,27.4034349 L54.4902239,27.4361879 C58.4811156,31.3620913 63.1519135,33.3491022 69.1897351,33.6891668 C72.0856458,33.852527 74.3873898,36.2697739 74.4302598,39.192063 C74.4364029,39.5915678 74.4452174,39.9641154 74.4571775,40.3189315 L74.4775365,40.8390096 L74.4791391,40.8802542 C74.5961293,47.1057365 74.7415659,54.8536237 72.1685806,61.8938859 C70.7578858,65.7546878 68.6232135,69.1108522 65.8242606,71.8697808 C62.6378774,75.0104227 58.4650897,77.5053062 53.4220864,79.2852864 C53.2570179,79.3435139 53.0851382,79.3908236 52.9112555,79.4260027 C52.6664571,79.4753341 52.4192551,79.5 52.1724537,79.5 C51.9256522,79.5 51.6788508,79.4753341 51.4336519,79.4260027 C51.2597689,79.3908236 51.0890913,79.3439183 50.9248241,79.286095 C45.8758109,77.5093498 41.6986162,75.0156793 38.5094283,71.8746333 C35.7092734,69.116513 33.574601,65.7611575 32.1651083,61.9011642 C29.7619491,55.3206308 29.739929,48.1124752 29.8432909,42.1171837 L29.8649667,40.9348422 L29.8673706,40.8390096 C29.8902077,40.3262846 29.9058332,39.787681 29.9146475,39.1924672 C29.9575172,36.2697739 32.2596621,33.852527 35.1551723,33.6895709 C40.8378277,33.3691299 45.3095556,31.5901599 49.1432105,28.108927 L49.8546832,27.4361879 L49.8887387,27.4034349 C51.082347,26.2992367 52.831779,26.2072202 54.1177157,27.1273853 Z M51.9817435,29.6868397 C49.7044388,31.9221259 47.2580595,33.580799 44.5035789,34.7574782 C41.7454924,35.9357748 38.7438096,36.6021554 35.3270516,36.7946296 C34.0389565,36.8670094 33.0148905,37.9405777 32.9956593,39.2381598 C32.9897831,39.6511431 32.9807017,40.039326 32.9681776,40.4116941 L32.9467798,40.959508 L32.9459785,40.9942827 C32.8277863,47.256966 32.6939686,54.3558599 35.0566118,60.8259787 C37.7582063,68.2245011 43.2807898,73.3024182 51.939675,76.3496535 C51.9701245,76.3601667 52.0029779,76.3690628 52.0366326,76.3759365 C52.1271801,76.3941328 52.2181278,76.3941328 52.3074732,76.376341 C52.3415287,76.3694669 52.374382,76.3601667 52.4052323,76.3496535 C61.0549026,73.2967571 66.57388,68.2160098 69.2774779,60.8178915 C71.646932,54.3340249 71.5163195,47.2294696 71.398528,40.959508 C71.3744888,40.4249477 71.358463,39.8612742 71.3492479,39.2385639 C71.3304174,37.9405777 70.3063514,36.8670094 69.0182563,36.7946296 C65.6010975,36.6021554 62.5994147,35.9357748 59.8413284,34.7574782 C57.0872484,33.580799 54.6408687,31.9221259 52.3631639,29.6868397 C52.247776,29.5877722 52.0975319,29.5881765 51.9817435,29.6868397 Z M59.8425985,46.3711996 C60.3793811,46.881364 60.4464788,47.6692981 60.0438918,48.2491651 L59.8425985,48.4835242 L49.4231907,59.9929651 C49.1162534,60.2846821 48.7140881,60.4303459 48.3119228,60.4303459 C48.0102988,60.4303459 47.7086748,60.3484099 47.4472251,60.1843739 L47.2006549,59.9929651 L44.4059324,57.3368277 C43.792467,56.7537826 43.792467,55.8079367 44.4059324,55.2245034 C44.9430728,54.7139991 45.7721621,54.6501861 46.3822895,55.0330641 L46.628877,55.2245034 L48.3119228,56.8240901 L57.6196539,46.3711996 C58.2335284,45.7873777 59.2287243,45.7873777 59.8425985,46.3711996 Z" id="Combined-Shape"></path>
        </g>
    </g>
</svg>