<?xml version="1.0" encoding="UTF-8"?>
<svg width="32px" height="32px" viewBox="0 0 32 32" version="1.1" xmlns="http://www.w3.org/2000/svg" xmlns:xlink="http://www.w3.org/1999/xlink">
    <title>3. Elements_Icons/4. Descriptions/Secure_circle</title>
    <g id="3.-Elements_Icons/4.-Descriptions/Secure_circle" stroke="none" stroke-width="1" fill="none" fill-rule="evenodd">
        <path d="M15.9998316,0 C20.2760101,0 24.2894781,1.66346801 27.3131313,4.68686869 C30.336532,7.71060606 32,11.7239899 32,15.9998316 C32,20.2760101 30.336532,24.2894781 27.3131313,27.3131313 C24.2894781,30.336532 20.2760101,32 15.9998316,32 C11.7239899,32 7.71060606,30.336532 4.68686869,27.3131313 C1.66346801,24.2894781 0,20.2760101 0,15.9998316 C0,11.7239899 1.66346801,7.71060606 4.68686869,4.68686869 C7.71060606,1.66346801 11.7239899,0 15.9998316,0 Z M15.9998218,1 C11.994839,1 8.22477269,2.55975392 5.38831446,5.39453699 C-0.462771486,11.2421674 -0.462771486,20.7578326 5.38831446,26.605374 C8.22477269,29.4401571 11.994839,31 15.9998218,31 C20.005161,31 23.7752273,29.4401571 26.6116855,26.605374 C32.4627715,20.7578326 32.4627715,11.2421674 26.6116855,5.39453699 C23.7752273,2.55975392 20.005161,1 15.9998218,1 Z M16.3374236,8.18939935 L16.439598,8.27273506 L16.4498789,8.28262276 C17.6546764,9.46780115 19.0647286,10.0676535 20.8874672,10.1703145 C21.7617044,10.2196308 22.4565705,10.9493657 22.4695124,11.8315662 C22.4713669,11.9521714 22.4740279,12.0646386 22.4776385,12.1717529 L22.4837846,12.3287576 L22.4842684,12.3412088 C22.5195862,14.2205997 22.5634916,16.5595845 21.7867413,18.6849467 C21.3608712,19.8504718 20.7164418,20.8636535 19.8714749,21.6965376 C18.9095479,22.6446559 17.6498384,23.3978283 16.1274223,23.9351808 C16.0775903,23.9527589 16.0257021,23.9670411 15.9732092,23.9776612 C15.8993078,23.9925537 15.8246808,24 15.7501747,24 C15.6756686,24 15.6011625,23.9925537 15.5271402,23.9776612 C15.4746472,23.9670411 15.4231219,23.952881 15.3735318,23.9354249 C13.8493014,23.399049 12.5882615,22.6462428 11.6254878,21.6980025 C10.780158,20.8653624 10.1357286,19.8524249 9.71022137,18.6871439 C8.98473935,16.7005678 8.97809177,14.5245208 9.00929538,12.7146215 L9.01583901,12.3576882 L9.01656471,12.3287576 C9.02345893,12.1739727 9.02817605,12.0113754 9.03083699,11.8316882 C9.04377878,10.9493657 9.73876591,10.2196308 10.6128822,10.1704365 C12.3284008,10.0736996 13.6783564,9.53665206 14.8356862,8.4857138 L15.0504704,8.28262276 L15.0607513,8.27273506 C15.4210859,7.93939221 15.9492163,7.91161364 16.3374236,8.18939935 Z M15.6926018,8.96206481 C15.0051136,9.63686821 14.266584,10.1375997 13.4350427,10.4928236 C12.6024128,10.8485358 11.6962444,11.0497073 10.6647703,11.1078127 C10.2759114,11.1296632 9.96675941,11.4537593 9.96095374,11.8454822 C9.9591798,11.9701564 9.95643824,12.0873437 9.95265738,12.1997567 L9.94619768,12.3651345 L9.94595576,12.3756325 C9.9102751,14.2662539 9.8698773,16.4093162 10.5831281,18.3625596 C11.3987038,20.5960758 13.0658988,22.1290319 15.6799019,23.048952 C15.6890942,23.0521258 15.6990122,23.0548114 15.7091721,23.0568865 C15.7365072,23.0623797 15.7639631,23.0623797 15.7909353,23.0570086 C15.8012162,23.0549334 15.8111342,23.0521258 15.8204475,23.048952 C18.4316687,22.1273229 20.0977751,20.5935124 20.9139556,18.3601182 C21.6292625,16.4027245 21.5898323,14.2579531 21.5542726,12.3651345 C21.5470155,12.2037578 21.5421775,12.0335922 21.5393956,11.8456042 C21.5337109,11.4537593 21.2245589,11.1296632 20.8357,11.1078127 C19.8041049,11.0497073 18.8979365,10.8485358 18.0653067,10.4928236 C17.2338863,10.1375997 16.4953566,9.63686821 15.8077476,8.96206481 C15.7729135,8.93215764 15.7275568,8.93227971 15.6926018,8.96206481 Z M18.0656901,13.9988527 C18.2277377,14.1528646 18.2479936,14.3907315 18.1264579,14.5657857 L18.0656901,14.6365356 L14.9202085,18.1110838 C14.8275482,18.1991493 14.7061398,18.2431233 14.5847314,18.2431233 C14.4936751,18.2431233 14.4026188,18.2183879 14.3236906,18.1688676 L14.2492543,18.1110838 L13.4055645,17.309231 C13.2203674,17.1332174 13.2203674,16.847679 13.4055645,16.6715482 C13.5677201,16.5174337 13.8180112,16.4981694 14.0022006,16.6137552 L14.0766421,16.6715482 L14.5847314,17.1544423 L17.3946125,13.9988527 C17.5799331,13.8226046 17.8803696,13.8226046 18.0656901,13.9988527 Z" id="Combined-Shape" fill="#000000"></path>
    </g>
</svg>