<?xml version="1.0" encoding="UTF-8"?>
<svg width="106px" height="106px" viewBox="0 0 106 106" version="1.1" xmlns="http://www.w3.org/2000/svg" xmlns:xlink="http://www.w3.org/1999/xlink">
    <title>Transfer circle</title>
    <g id="Page-1" stroke="none" stroke-width="1" fill="none" fill-rule="evenodd">
        <g id="Transfer-circle" fill="#000000" fill-rule="nonzero">
            <path d="M52.9994422,0 C67.1642835,0 80.4588962,5.51023778 90.4747474,15.5252525 C100.489762,25.5413826 106,38.8357165 106,52.9994422 C106,67.1642835 100.489762,80.4588962 90.4747474,90.4747474 C80.4588962,100.489762 67.1642835,106 52.9994422,106 C38.8357165,106 25.5413826,100.489762 15.5252525,90.4747474 C5.51023778,80.4588962 0,67.1642835 0,52.9994422 C0,38.8357165 5.51023778,25.5413826 15.5252525,15.5252525 C25.5413826,5.51023778 38.8357165,0 52.9994422,0 Z M52.9994097,3.3125 C39.7329042,3.3125 27.2445595,8.47918486 17.8487916,17.8694038 C-1.53293055,37.2396795 -1.53293055,68.7603205 17.8487916,88.1303014 C27.2445595,97.5205204 39.7329042,102.6875 52.9994097,102.6875 C66.2670958,102.6875 78.7554404,97.5205204 88.1512082,88.1303014 C107.532931,68.7603205 107.532931,37.2396795 88.1512082,17.8694038 C78.7554404,8.47918486 66.2670958,3.3125 52.9994097,3.3125 Z M24.8141741,36.4375 C25.6925781,36.4375 26.4408482,36.9557138 26.4408482,37.6152587 L26.4408482,68.3847413 L24.8141741,69.5625 L23.1875,68.3847413 L23.1875,37.6152587 C23.1875,36.9557138 23.9032366,36.4375 24.8141741,36.4375 Z M73.070201,41.9290039 L82.8302454,51.6890486 C83.4809151,52.3397181 83.4809151,53.348256 82.8302454,53.9989258 L73.070201,63.7589705 C72.7773995,64.0517717 72.3544641,64.2144393 71.9315291,64.2144393 C71.5085937,64.2144393 71.0856584,64.0517717 70.7928572,63.7589705 C70.1421875,63.1083008 70.1421875,62.0997628 70.7928572,61.4490931 L77.7550224,54.4543945 L35.2574219,54.4543945 C34.3464844,54.4543945 33.6307479,53.738658 33.6307479,52.8277205 C33.6307479,51.9493164 34.3464844,51.2010462 35.2574219,51.2010462 L77.7550224,51.2010462 L70.7928572,44.238881 C70.1421875,43.5882116 70.1421875,42.5796736 70.7928572,41.9290039 C71.4109933,41.3108679 72.4520646,41.3108679 73.070201,41.9290039 Z" id="Combined-Shape"></path>
        </g>
    </g>
</svg>