<?xml version="1.0" encoding="UTF-8"?>
<svg width="32px" height="32px" viewBox="0 0 32 32" version="1.1" xmlns="http://www.w3.org/2000/svg" xmlns:xlink="http://www.w3.org/1999/xlink">
    <title>3. Elements_Icons/4. Descriptions/Transfer_circle</title>
    <g id="3.-Elements_Icons/4.-Descriptions/Transfer_circle" stroke="none" stroke-width="1" fill="none" fill-rule="evenodd">
        <path d="M15.9998316,0 C20.2760101,0 24.2894781,1.66346801 27.3131313,4.68686869 C30.336532,7.71060606 32,11.7239899 32,15.9998316 C32,20.2760101 30.336532,24.2894781 27.3131313,27.3131313 C24.2894781,30.336532 20.2760101,32 15.9998316,32 C11.7239899,32 7.71060606,30.336532 4.68686869,27.3131313 C1.66346801,24.2894781 0,20.2760101 0,15.9998316 C0,11.7239899 1.66346801,7.71060606 4.68686869,4.68686869 C7.71060606,1.66346801 11.7239899,0 15.9998316,0 Z M15.9998218,1 C11.994839,1 8.22477269,2.55975392 5.38831446,5.39453699 C-0.462771486,11.2421674 -0.462771486,20.7578326 5.38831446,26.605374 C8.22477269,29.4401571 11.994839,31 15.9998218,31 C20.005161,31 23.7752273,29.4401571 26.6116855,26.605374 C32.4627715,20.7578326 32.4627715,11.2421674 26.6116855,5.39453699 C23.7752273,2.55975392 20.005161,1 15.9998218,1 Z M7.49107143,11 C7.75625,11 7.98214286,11.1564419 7.98214286,11.3555498 L7.98214286,20.6444502 L7.49107143,21 L7,20.6444502 L7,11.3555498 C7,11.1564419 7.21607143,11 7.49107143,11 Z M22.0589286,12.6578125 L25.0053571,15.6042411 C25.2017857,15.8006696 25.2017857,16.1051339 25.0053571,16.3015625 L22.0589286,19.2479911 C21.9705357,19.3363839 21.8428571,19.3854911 21.7151786,19.3854911 C21.5875,19.3854911 21.4598214,19.3363839 21.3714286,19.2479911 C21.175,19.0515625 21.175,18.7470982 21.3714286,18.5506696 L23.4732143,16.4390625 L10.64375,16.4390625 C10.36875,16.4390625 10.1526786,16.2229911 10.1526786,15.9479911 C10.1526786,15.6828125 10.36875,15.4569196 10.64375,15.4569196 L23.4732143,15.4569196 L21.3714286,13.3551339 C21.175,13.1587054 21.175,12.8542411 21.3714286,12.6578125 C21.5580357,12.4712054 21.8723214,12.4712054 22.0589286,12.6578125 Z" id="Combined-Shape" fill="#000000"></path>
    </g>
</svg>