<?xml version="1.0" encoding="UTF-8"?>
<svg width="420px" height="420px" viewBox="0 0 420 420" version="1.1" xmlns="http://www.w3.org/2000/svg" xmlns:xlink="http://www.w3.org/1999/xlink">
    <title>5. Elements_Illustrations/2.Vector/Work_table</title>
    <g id="5.-Elements_Illustrations/2.Vector/Work_table" stroke="none" stroke-width="1" fill="none" fill-rule="evenodd">
        <g id="Group-177" transform="translate(29.000000, 77.000000)">
            <g id="Group-42" transform="translate(48.000000, 73.000000)">
                <path d="M9.40449855,6.63043578 C9.41369009,6.63043578 9.42288164,6.63160188 9.43207318,6.63218493 C9.76698999,6.63393408 10.0938642,6.67183228 10.409249,6.74063209 C10.7608255,6.55580548 11.1376787,6.41470757 11.5334895,6.32316884 C11.8730021,6.2444572 12.2257275,6.19897936 12.5887934,6.19897936 C12.7697519,6.19897936 12.9472635,6.21180644 13.1230518,6.23221316 C13.710736,6.30042992 14.2656753,6.47534469 14.7689123,6.74063209 C14.7763804,6.73946599 14.7838485,6.73946599 14.7907422,6.73771684 C14.9332111,6.70681523 15.0768289,6.68291021 15.2227446,6.66541874 C15.4037031,6.64384592 15.5869595,6.63043578 15.7736627,6.63043578 C15.9138337,6.63043578 16.0476855,6.6520086 16.1844097,6.66483569 C16.3981131,6.68349326 16.6077951,6.71789317 16.8128814,6.76395406 C17.3551824,6.206559 17.6975673,5.44917805 17.6975673,4.60259058 L17.6975673,3.37818721 C17.6975673,1.66577163 16.329751,0.277531431 14.643103,0.277531431 C14.5310811,0.277531431 14.4248039,0.299687301 14.3156543,0.311348286 C14.2036324,0.324175369 14.0898871,0.33117196 13.981312,0.355076978 C13.5619479,0.13526742 13.0931793,0 12.5887934,0 C12.3561325,0 12.1320886,0.0314846581 11.9137895,0.0816268915 C11.6592987,0.139931814 11.4226165,0.236717985 11.1968492,0.355076978 C10.9831459,0.307266941 10.7631234,0.277531431 10.5350582,0.277531431 L10.5350582,0.277531431 C9.92382068,0.277531431 9.3573919,0.464690232 8.88000619,0.778370715 C8.03955456,1.33051833 7.48059392,2.28613601 7.48059392,3.37818721 L7.48059392,4.60259058 C7.48059392,5.44567976 7.8160852,6.2053929 8.35493935,6.76278796 L8.35493935,6.76278796 C8.69387746,6.68407631 9.04200711,6.63043578 9.40449855,6.63043578" id="Fill-24" fill="#CE643A"></path>
                <path d="M14.3155395,0.311406591 C14.2035175,0.323650625 14.0897722,0.331230265 13.9811971,0.355135283 C14.9641176,0.870550797 15.6437173,1.89963268 15.6437173,3.09954798 L15.6437173,4.60264888 C15.6437173,5.43407708 15.3174175,6.18387838 14.7912017,6.7371921 C14.9330962,6.70687354 15.076714,6.68296852 15.2232042,6.66489399 C15.4041627,6.64390422 15.5868446,6.63049409 15.7735478,6.63049409 C15.9137188,6.63049409 16.0475706,6.65206691 16.1842948,6.66431094 C16.3704236,6.30573567 16.4772752,5.89818426 16.4772752,5.46439564 L16.4772752,2.85874865 C16.4772752,1.56437937 15.5380145,0.502063687 14.3155395,0.311406591" id="Fill-26" fill="#AD330D"></path>
                <path d="M11.9139044,0.0813936718 C11.6594136,0.140281643 11.4227314,0.237067815 11.1963897,0.355426807 C10.5575775,0.690680112 10.0445746,1.23699724 9.76767936,1.91566653 C9.56546543,1.46671863 9.25754877,1.08132309 8.88012108,0.778137495 C8.03966946,1.33086816 7.48070881,2.28590279 7.48070881,3.37795399 L7.48070881,4.60294041 C7.48070881,5.44544654 7.81620009,6.20515968 8.35505424,6.76255474 C8.69399236,6.68384309 9.04212201,6.63020256 9.40461345,6.63020256 C9.41380499,6.63020256 9.42299653,6.63136866 9.43218807,6.63195171 C9.59476347,6.4138913 9.73033872,6.17425807 9.83144568,5.91480116 C9.97506352,6.2255664 10.1772774,6.49843344 10.4093639,6.74098192 C10.7609404,6.55557226 11.1372191,6.41447435 11.5336044,6.32293562 C11.8731169,6.24422398 12.2258424,6.19874614 12.5889083,6.19874614 C12.7698668,6.19874614 12.9473784,6.21215627 13.1225922,6.23256299 C13.1248901,6.19408174 13.1363795,6.15968184 13.1363795,6.12120059 L13.1363795,1.85969381 C13.1363795,1.04167574 12.6262489,0.351345463 11.9139044,0.0813936718" id="Fill-28" fill="#AD330D"></path>
                <path d="M19.0403367,7.55281966 L18.8754634,7.55281966 C18.7743565,7.55281966 18.6749729,7.5615654 18.5750149,7.56797894 C18.0585651,7.18200035 17.459966,6.90855026 16.8131112,6.76337101 C16.6080249,6.71789317 16.3983429,6.68349326 16.1846395,6.66483569 C16.0479153,6.6520086 15.913489,6.63043578 15.773318,6.63043578 C15.5871893,6.63043578 15.4039329,6.64384592 15.2229744,6.66541874 C15.0770587,6.68291021 14.9328664,6.70681523 14.790972,6.73771684 C14.7835038,6.73888294 14.7760357,6.73946599 14.7685676,6.74063209 C14.2659051,6.47534469 13.7103913,6.30042992 13.1227071,6.23221316 C12.9474933,6.21180644 12.7699817,6.19897936 12.5890232,6.19897936 C12.2259573,6.19897936 11.8732318,6.2444572 11.5337193,6.32316884 C11.137334,6.41470757 10.7604808,6.55580548 10.4094788,6.74063209 C10.0935195,6.67183228 9.76721978,6.63393408 9.4317285,6.63218493 C9.42253695,6.63160188 9.41391988,6.63043578 9.40472834,6.63043578 C9.0422369,6.63043578 8.69353278,6.68407631 8.35516914,6.76278796 L8.35459467,6.76278796 C7.8140171,6.88872659 7.30388652,7.09804126 6.8506286,7.39364722 C6.76560684,7.44845385 6.68403191,7.50792487 6.60303144,7.56797894 C6.50307342,7.5615654 6.40368987,7.55281966 6.30258291,7.55281966 L6.13770963,7.55281966 C5.14904439,7.55281966 4.23506043,7.86766624 3.48135398,8.40115628 C2.27553857,9.25415729 1.48449148,10.6703839 1.48449148,12.2755184 L1.48449148,16.1306399 C1.48449148,16.8932682 1.66659891,17.6110018 1.98313264,18.2476916 C4.28044367,17.6045883 8.34942442,17.6040052 12.9894297,17.6040052 L13.4375174,17.6040052 C14.6979076,17.6040052 15.9123401,17.6063374 17.0566871,17.6226628 C17.5869241,17.6302425 18.1027994,17.6413204 18.5997172,17.6558966 C19.1563799,17.672805 19.6900639,17.696127 20.19962,17.7264456 C20.7631764,17.7596794 21.2957114,17.802242 21.7926291,17.8570486 C22.3326322,17.9153535 22.8278265,17.9888177 23.2770631,18.0791904 C23.5430434,17.4850632 23.6935549,16.8256345 23.6935549,16.1306399 L23.6935549,12.2755184 C23.6935549,9.66695615 21.6099472,7.55281966 19.0403367,7.55281966" id="Fill-30" fill="#0097B8"></path>
                <path d="M18.5839767,7.57503383 C19.7495791,8.45019072 20.5090302,9.85125801 20.5090302,11.4365688 L20.5090302,16.0467391 C20.5090302,16.6402832 20.392987,17.2023426 20.1993902,17.7265039 C20.7629466,17.7597377 21.2954816,17.8023003 21.7923993,17.8571069 C21.7941227,17.8075477 21.8010164,17.7597377 21.8010164,17.7101785 L21.8010164,11.2126779 C21.8010164,9.32476456 20.3924126,7.77210447 18.5839767,7.57503383" id="Fill-32" fill="#00547A"></path>
                <path d="M15.2229744,6.66518552 C15.0690161,6.68326004 14.9179301,6.70833116 14.7685676,6.74098192 C16.286321,7.54209155 17.3243907,9.14955826 17.3243907,11.0048209 L17.3243907,16.0470306 C17.3243907,16.6003443 17.2267306,17.1285869 17.0566871,17.6230126 C17.5869241,17.6305923 18.1027994,17.6410872 18.5997172,17.6562465 C18.6054619,17.5652908 18.6169513,17.4755012 18.6169513,17.3833794 L18.6169513,10.6316694 C18.6169513,8.60907163 17.1405599,6.94155085 15.2229744,6.66518552" id="Fill-34" fill="#00547A"></path>
                <path d="M11.5335469,6.32299393 C11.1377361,6.41453266 10.7608829,6.55563057 10.4093064,6.74104022 C9.42696038,7.25937098 8.64567931,8.11470419 8.21712367,9.15894536 C7.90288782,8.46569983 7.43297024,7.86166083 6.85045626,7.3934723 C6.76600897,7.44886198 6.68385956,7.50774995 6.6028591,7.56838707 C5.9646214,8.04473829 5.44989505,8.67909584 5.11268035,9.41548701 C4.64678407,8.9723696 4.09356813,8.62487227 3.48118164,8.40098136 C2.27536623,9.25398238 1.48489361,10.6702089 1.48489361,12.2753435 L1.48489361,16.1304649 C1.48489361,16.8930933 1.66642657,17.6108269 1.98353477,18.2475167 C4.28027133,17.6049964 8.34925208,17.6044134 12.9892574,17.6044134 L13.4373451,17.6044134 L13.4373451,9.08198286 C13.4373451,7.81210165 12.6428511,6.73870802 11.5335469,6.32299393" id="Fill-36" fill="#00547A"></path>
                <path d="M25.9729998,20.0269246 C25.9735743,20.0111823 25.9770211,19.9954399 25.9770211,19.9785315 C25.9770211,18.9914292 24.9676749,18.4153765 23.2770057,18.0789571 C22.8277691,17.9891676 22.3325747,17.9157034 21.7925716,17.8568154 C21.2956539,17.8025918 20.7631189,17.7594462 20.1995625,17.7267954 C19.6900064,17.6964768 19.1563225,17.6731549 18.5996597,17.6562465 C18.102742,17.6410872 17.5868667,17.6305923 17.0566296,17.6230126 C15.9122826,17.6066873 14.6984246,17.6043551 13.43746,17.6043551 L12.9893723,17.6043551 C8.34936698,17.6043551 4.28038622,17.6049381 1.98307519,18.2474584 C0.729578647,18.599037 0.00172341413,19.1401067 0.00172341413,19.9785315 C0.00172341413,19.9954399 0.00459577101,20.0111823 0.00517024238,20.0269246 L0,20.0269246 L0.00172341413,36.7569391 C0.0022978855,37.443771 0.550343578,38 1.22707086,38 L24.7735036,38 C25.4496564,38 25.9982766,37.443771 25.9982766,36.7569391 L26,20.0269246 L25.9729998,20.0269246 Z" id="Fill-38" fill="#DFF0FF"></path>
                <path d="M25.968519,36.2298626 C25.8484545,36.7884237 25.3595793,37.2076361 24.773044,37.2076361 L12.7011025,37.2076361 C11.167264,36.8729658 10.0470448,35.5097968 10.0390022,33.8970826 L9.97351245,20.7767259 C9.96661879,19.3849874 10.9340286,18.184489 12.2794406,17.9145373 L13.826492,17.6043551 L12.9894872,17.6043551 C5.8160631,17.6043551 0.0018383084,17.6043551 0.0018383084,19.9785315 C0.0018383084,19.996023 0.00873196491,20.0105992 0.00988090767,20.0269246 L0.000114894276,20.0269246 L0.00126383703,36.2298626 L0.00126383703,36.7569391 C0.0018383084,37.443771 0.549884001,38 1.22661128,38 L24.773044,38 C25.4497713,38 25.997817,37.443771 25.9983915,36.7569391 L25.9983915,36.2298626 L25.968519,36.2298626 Z" id="Fill-40" fill="#B8DDFF"></path>
            </g>
            <g id="Group-59" transform="translate(103.000000, 0.000000)">
                <path d="M52.8817036,46.478137 L35.663525,99.8752175 C33.4099786,106.86409 38.6868985,114 46.1089547,114 L91.9658559,114 C92.4179492,114 92.7846983,113.637534 92.7846983,113.19072 L92.7846983,112.063997 C92.7846983,111.616614 92.4179492,111.254148 91.9658559,111.254148 L74.5320105,111.254148 C67.5337917,111.254148 62.327223,104.861977 63.8218986,98.1056303 L75.0850174,47.1905312 C75.2747351,46.3310988 74.6127414,45.5178296 73.7229712,45.5178296 L54.2103041,45.5178296 C53.6030921,45.5178296 53.0662314,45.9065119 52.8817036,46.478137" id="Fill-43" fill="#EFF7FF"></path>
                <path d="M64.2373169,96.2277592 L75.085248,47.1905312 C75.2749657,46.3310988 74.6129721,45.5178296 73.7226252,45.5178296 L54.2105347,45.5178296 C53.6033228,45.5178296 53.0658854,45.905942 52.8819342,46.4775671 L36.8395441,96.2277592 L64.2373169,96.2277592 Z" id="Fill-45" fill="#B8DDFF"></path>
                <path d="M52.90056,46.4486724 L35.595884,99.7625453 C33.3111985,106.801 38.6238707,113.999601 46.1030152,113.999601 L91.9656829,113.999601 C92.4177762,113.999601 92.7851019,113.637705 92.7851019,113.190321 L92.7851019,112.064168 C92.7851019,111.616785 92.4177762,111.254319 91.9656829,111.254319 L45.953663,111.254319 C40.2465625,111.254319 36.2025193,105.748366 37.9705268,100.385463 L55.4799134,47.27277 C55.7653549,46.4070686 55.1125876,45.5180006 54.1911017,45.5180006 C53.6023425,45.5180006 53.0804746,45.8941447 52.90056,46.4486724" id="Fill-47" fill="#3CA1FF"></path>
                <path d="M130.240335,0 L128.455604,0 L6.54439561,0 L4.75966529,0 C2.13072004,0 0,2.10583728 0,4.70408144 L0,84.3947774 C0,86.9930215 2.13072004,89.0988588 4.75966529,89.0988588 L6.54439561,89.0988588 L128.455604,89.0988588 L130.240335,89.0988588 C132.86928,89.0988588 135,86.9930215 135,84.3947774 L135,4.70408144 C135,2.10583728 132.86928,0 130.240335,0" id="Fill-49" fill="#DFF0FF"></path>
                <path d="M134.999942,77.2680427 L1.78467266,77.2680427 L1.78467266,4.70413844 C1.78467266,2.10589427 3.91596935,5.69915364e-05 6.54433794,5.69915364e-05 L130.240277,5.69915364e-05 C132.869222,5.69915364e-05 134.999942,2.10589427 134.999942,4.70413844 L134.999942,77.2680427 Z" id="Fill-51" fill="#1C417D"></path>
                <path d="M129.417859,73.0298671 L7.3671015,73.0298671 C7.04475441,73.0298671 6.78295552,72.7716954 6.78295552,72.4525428 L6.78295552,6.01408891 C6.78295552,5.69550622 7.04475441,5.43619473 7.3671015,5.43619473 L129.417859,5.43619473 C129.740207,5.43619473 130.002005,5.69550622 130.002005,6.01408891 L130.002005,72.4525428 C130.002005,72.7716954 129.740207,73.0298671 129.417859,73.0298671" id="Fill-53" fill="#D5F8FF"></path>
                <path d="M6.54445327,0 L4.75972295,0 C2.13077771,0 5.76649545e-05,2.10583728 5.76649545e-05,4.70408144 L5.76649545e-05,84.3947774 C5.76649545e-05,86.9930215 2.13077771,89.0988588 4.75972295,89.0988588 L6.54445327,89.0988588 C3.91550803,89.0988588 1.78478799,86.9930215 1.78478799,84.3947774 L1.78478799,4.70408144 C1.78478799,2.10583728 3.91550803,0 6.54445327,0" id="Fill-55" fill="#3CA1FF"></path>
                <path d="M69.1737253,1.90562601 C68.609762,1.90562601 68.1530556,2.3575689 68.1530556,2.91494613 C68.1530556,3.47175344 68.609762,3.92312642 69.1737253,3.92312642 C69.7376885,3.92312642 70.194395,3.47175344 70.194395,2.91494613 C70.194395,2.3575689 69.7376885,1.90562601 69.1737253,1.90562601" id="Fill-57" fill="#3CA1FF"></path>
            </g>
            <g id="Group-68" transform="translate(288.000000, 48.000000)">
                <path d="M13.2963923,2.39220192 C13.2963923,1.0712281 12.2659284,0.000399775908 10.9941985,0.000399775908 L5.00596639,0.000399775908 C3.73478606,0.000399775908 2.70377253,1.0712281 2.70377253,2.39220192 L2.70377253,7.60013979 C2.70377253,7.61784415 2.71201624,7.63326408 2.71366498,7.65096844 C2.71146666,7.67209945 2.70377253,7.69094603 2.70377253,7.71321926 C2.70377253,8.70523462 5.07521356,8.70523462 8.00008244,8.70523462 C10.9249513,8.70523462 13.2963923,8.70523462 13.2963923,7.71321926 C13.2963923,7.69094603 13.2886982,7.67209945 13.2864999,7.65096844 C13.2875991,7.63326408 13.2963923,7.61784415 13.2963923,7.60013979 L13.2963923,2.39220192 Z" id="Fill-60" fill="#0097B8"></path>
                <path d="M13.2963923,7.71339059 C13.2963923,6.72194634 10.9249513,6.72194634 8.00008244,6.72194634 C7.01138663,6.72194634 6.08919009,6.72308855 5.2972442,6.76135282 L5.2972442,2.39237325 C5.2972442,1.07139943 6.32770815,0 7.59943805,0 L5.00596639,0 C3.73478606,0 2.70377253,1.07139943 2.70377253,2.39237325 L2.70377253,7.60031112 C2.70377253,7.61801548 2.71256582,7.6328643 2.71366498,7.65113977 C2.71146666,7.67227078 2.70377253,7.69111736 2.70377253,7.71339059 C2.70377253,8.02350247 2.93514603,8.23652592 3.34293497,8.38272968 C3.35777365,8.38844077 3.37590981,8.39186742 3.39129808,8.39700739 C3.88042496,8.56205773 4.60202452,8.63915737 5.47585795,8.6751372 C5.62534392,8.68027718 5.7803257,8.68541715 5.93860496,8.68941491 C6.57227159,8.70483484 7.26859043,8.70483484 8.00008244,8.70483484 L8.00008244,8.70483484 C10.9255009,8.70483484 13.2963923,8.70483484 13.2963923,7.71339059" id="Fill-62" fill="#00547A"></path>
                <path d="M14.8238422,24.3776495 L13.6213595,19.0509211 C12.8541447,15.6511126 12.4622936,12.1713488 12.4480045,8.68016296 C12.4573474,8.64304091 12.4661407,8.60648997 12.4661407,8.56594127 C12.4661407,8.56023018 12.4639423,8.55509021 12.4633928,8.54937912 C12.7453277,8.41802418 12.9069045,8.23983835 12.9069045,7.99483283 C12.9069045,7.079346 10.7173747,7.079346 8.01673473,7.079346 C5.31609482,7.079346 3.1271146,7.079346 3.1271146,7.99483283 C3.1271146,8.23526948 3.2815468,8.41174199 3.55358928,8.54252582 C3.54974221,12.0805426 3.15624238,15.6065661 2.37858559,19.0509211 L1.17610285,24.3776495 C0.395148576,27.8397089 0,30.2423621 0,33.7980833 L0,58.4625434 C0,60.9679962 1.95540839,63 4.36696882,63 L11.6329762,63 C14.0450862,63 15.999945,60.9679962 15.999945,58.4625434 L15.999945,33.7980833 C15.999945,30.2423621 15.605346,27.8397089 14.8238422,24.3776495" id="Fill-64" fill="#E39C69"></path>
                <path d="M16,54.715501 L16,54.2220633 L4.07519639,54.2220633 L4.07519639,34.939729 C4.07519639,31.3834368 4.46979538,27.8391378 5.25129924,24.3776495 L6.45323239,19.0509211 C7.20121183,15.7379211 7.59471166,12.3501058 7.62713692,8.94858392 C7.63043441,8.65046532 7.79530864,8.38318657 8.05690909,8.26096936 C8.4910779,8.05765476 9.21762368,7.78694936 10.0573831,7.75553839 C9.4456997,7.73326516 8.75322793,7.73269405 8.01678969,7.73269405 L7.72990853,7.73269405 C8.22672955,7.07991711 10.4299989,7.079346 8.01678969,7.079346 C5.31614977,7.079346 3.12716956,7.079346 3.12716956,7.99483283 C3.12716956,8.23526948 3.28215133,8.41117088 3.55419382,8.54195471 C3.54979717,12.0805426 3.15574776,15.605995 2.37864054,19.0509211 L1.17615781,24.3776495 C0.394653953,27.8391378 0.000604538853,31.3834368 0.000604538853,34.939729 L0.000604538853,54.2220633 L5.495808e-05,54.2220633 L5.495808e-05,54.715501 L0.000604538853,54.715501 L0.000604538853,58.4625434 C0.000604538853,60.9679962 1.95546335,63 4.36702378,63 L8.44216521,63 C6.0300552,63 4.07519639,60.9679962 4.07519639,58.4625434 L4.07519639,54.715501 L16,54.715501 Z" id="Fill-66" fill="#CE643A"></path>
            </g>
            <g id="Group-87" transform="translate(249.000000, 58.000000)">
                <path d="M14.9581227,9.6296157 C16.7266335,11.0453824 17.5314509,13.3232388 17.585376,15.5227234 C17.603351,15.8001257 17.57088,16.0735812 17.5656615,16.3504197 L17.5459469,16.7648317 L17.4868033,17.1724778 C17.444475,17.4431142 17.4102644,17.7182612 17.3598184,17.9872061 L17.1591939,18.7822006 L17.0571421,19.1796978 L16.9203,19.5636632 L16.6437165,20.3304663 L16.1734665,21.6599677 C15.7061158,23.4388382 15.6806029,25.3293462 16.1328778,27.1927906 C16.5619591,29.0556712 17.3980878,30.8931796 18.4539758,32.598189 L18.463833,32.6156676 C18.5409517,32.7391454 18.4997831,32.9003996 18.3722184,32.9753885 C18.2684271,33.0362817 18.1408624,33.0210584 18.0544663,32.947761 C17.2264553,32.2412872 16.5573204,31.4192291 15.9508081,30.5345864 C15.3611112,29.6443054 14.8346169,28.6920036 14.4849736,27.6618937 C14.3829218,27.4092998 14.3023241,27.1493761 14.2333232,26.8849417 C14.1637424,26.6210712 14.0773463,26.3600199 14.0222615,26.091075 C13.9352856,25.5492383 13.8233766,25.0074017 13.8140991,24.4520332 C13.706249,23.3435516 13.8807807,22.225485 14.1243133,21.1367373 C14.2855087,20.6146346 14.4745365,20.0485534 14.6450093,19.5698653 C14.8004063,19.1199323 15.0085687,18.6801481 15.1262762,18.2234492 C15.4283726,17.320764 15.5965261,16.3994726 15.7008972,15.4719791 C15.8847064,13.6288324 15.5652148,11.68758 14.5789076,9.99948545 L14.5551342,9.95945381 C14.4820744,9.83428448 14.5273019,9.67528559 14.6560263,9.60424353 C14.754599,9.54955243 14.8746258,9.56364807 14.9581227,9.6296157" id="Fill-69" fill="#DFF0FF"></path>
                <path d="M11.6656774,29.3431096 C10.7669259,28.804656 10.1093878,28.0333422 9.58637248,27.1689972 C9.07669345,26.3001416 8.74212599,25.314574 8.64819197,24.3041981 C8.57339266,23.8046484 8.5797709,23.2921307 8.61746047,22.7914534 C8.64703229,22.5405509 8.67080572,22.2902122 8.70791546,22.0421288 C8.75024375,21.7946093 8.82968178,21.5549833 8.8899851,21.3136658 C8.99609575,20.8253927 9.22977111,20.3777149 9.42807626,19.9300372 C9.64783548,19.4908169 9.93891497,19.0871176 10.2201372,18.694131 C10.3123317,18.5655787 10.4938215,18.5340044 10.6260249,18.6230889 C10.7205388,18.6873651 10.7640267,18.7950558 10.7477912,18.8987998 L10.741413,18.9410867 C10.6689331,19.4051154 10.5378893,19.8341868 10.4619303,20.2711519 C10.405106,20.7126275 10.2989954,21.1343692 10.2856591,21.5673875 C10.1807081,22.4215836 10.2427509,23.2633756 10.3482817,24.0888166 C10.4793255,24.9136938 10.7008242,25.7216563 11.001761,26.5228528 C11.2847227,27.3302514 11.6766943,28.1275011 12.0721449,28.9411018 L12.0883804,28.9749314 C12.158541,29.1192708 12.0953385,29.29011 11.9474794,29.3583329 C11.8541252,29.4017475 11.7480146,29.3915987 11.6656774,29.3431096" id="Fill-71" fill="#DFF0FF"></path>
                <path d="M18.7265584,24.7311834 C19.5986372,24.0822199 20.3472101,23.2381726 20.8418133,22.3242109 C21.3538117,21.4119407 21.6205379,20.4128413 21.6953372,19.4007739 C21.7521615,18.3864512 21.6477904,17.3523946 21.3741061,16.3375081 C21.1143379,15.3214939 20.7484591,14.3054798 20.2706713,13.3571247 C19.8178165,12.3918549 19.2258003,11.4886059 18.6030525,10.5154425 C17.9988596,9.54115142 17.3384223,8.46255259 16.9864597,7.25765677 C16.6026058,6.06460129 16.5156299,4.82249296 16.5765131,3.63958634 C16.6611696,2.45216912 16.865853,1.30083676 17.2044794,0.189536023 C17.2468077,0.0497072141 17.397566,-0.0303560553 17.541946,0.010803231 C17.6590736,0.0446327815 17.7350326,0.148940562 17.7361923,0.262269556 C17.755327,2.52772179 17.842303,4.77795072 18.673793,6.67691615 C19.0918573,7.62414356 19.6577808,8.5042757 20.3303948,9.4272586 C20.9856135,10.3547521 21.6617065,11.368511 22.2090751,12.4589501 C22.7326703,13.5646126 23.1344992,14.7091791 23.3873092,15.9095643 C23.612287,17.1099495 23.7102799,18.3751747 23.4737053,19.6178469 C23.2632236,20.8593914 22.7315106,22.0580851 21.9458279,23.0385782 C21.1410106,24.0083587 20.1471654,24.7819277 18.9561749,25.2036695 C18.8164335,25.2527223 18.6621962,25.1828079 18.6117501,25.0474897 C18.5700017,24.9375437 18.6100106,24.8180126 18.7004656,24.7503535 L18.7265584,24.7311834 Z" id="Fill-73" fill="#DFF0FF"></path>
                <path d="M27,33.1429011 C27,31.5670079 24.8250216,31.042086 21.5866173,30.8673 C19.9677051,30.779907 16.7739485,30.779907 17.118953,30.7804709 C16.6898717,31.42436 16.7640912,31.9605583 16.91311,32.3090027 C22.223861,32.3106942 26.4294378,32.3789171 26.4294378,34.0912562 C26.4294378,34.1510217 26.4108829,34.205149 26.4004458,34.2609678 L26.4004458,34.3179142 C26.7825601,34.0111929 27,33.628919 27,33.1429011" id="Fill-75" fill="#FFEACF"></path>
                <path d="M5.23392234,33.6390115 C5.21942635,33.5995437 5.202611,33.5606397 5.19217388,33.5194804 C5.202611,33.5606397 5.22000618,33.5995437 5.23392234,33.6390115" id="Fill-77" fill="#ACEDFB"></path>
                <path d="M5.41454238,33.9831144 C5.38381088,33.9408275 5.35655842,33.896849 5.33046563,33.851743 C5.35597858,33.896849 5.38381088,33.9408275 5.41454238,33.9831144" id="Fill-79" fill="#ACEDFB"></path>
                <path d="M6.05955597,34.0563554 L6.05955597,34.0563554 L6.08390924,34.0563554 C6.14595208,32.3101867 10.67276,32.3079314 16.2537163,32.3079314 C16.4763748,32.3079314 16.6938146,32.3079314 16.912994,32.3084953 C16.7639752,31.9606147 16.6897557,31.4244163 17.1194169,30.7799634 C16.7738325,30.7793996 16.4241892,30.7793996 16.070487,30.7793996 C10.0343566,30.7793996 5.14109001,30.7793996 5.14109001,33.1429575 C5.14109001,33.2765842 5.1613844,33.4006259 5.1921159,33.5195932 C5.20255301,33.5607525 5.21936836,33.5990926 5.23386435,33.6391243 C5.26111681,33.7129854 5.29184831,33.7840275 5.33069757,33.8516866 C5.35679035,33.8967927 5.38346297,33.9407711 5.41477431,33.983058 C5.4321695,34.0073025 5.44666549,34.0332385 5.46638004,34.0563554 L6.05955597,34.0563554 Z" id="Fill-81" fill="#F7D4AD"></path>
                <path d="M2.55245401,42.1663135 L2.55245401,37.3061348 C2.55245401,36.8827015 2.90615618,36.5387678 3.34103589,36.5387678 L6.05932404,36.5387678 L6.05932404,44.7322849 L5.19130412,44.7322849 C3.73648652,44.7322849 2.55245401,43.5815164 2.55245401,42.1663135 M26.4290899,34.0911998 C26.4290899,32.3083825 21.87329,32.3083825 16.2534844,32.3083825 C10.6725281,32.3083825 6.14572014,32.3106378 6.0836773,34.0562426 L6.05932404,34.0562426 L3.34103589,34.0562426 C1.49888542,34.0562426 0,35.5142962 0,37.3061348 L0,42.1663135 C0,44.9499217 2.32863592,47.2142463 5.19130412,47.2142463 L6.1422411,47.2142463 C6.59393617,49.9273762 9.00664883,52 11.923822,52 L20.5361798,52 C23.775164,52 26.4006778,49.4475604 26.4006778,46.2980293 L26.4006778,34.2609114 C26.4111149,34.2050926 26.4290899,34.1509653 26.4290899,34.0911998" id="Fill-83" fill="#E39C69"></path>
                <path d="M17.5756347,51.8923093 C16.0338412,51.0138686 15.080005,49.413167 15.0649292,47.6754558 L14.9454822,34.0771042 C14.9385241,33.3035351 15.4551612,32.6173591 16.2159108,32.3901372 L16.4890153,32.3083825 L16.2536004,32.3083825 C10.6720642,32.3083825 6.14583611,32.3106378 6.08379327,34.0562426 L6.05944,34.0562426 L6.05944,34.0568064 L5.4506084,34.0568064 L3.86474704,36.5393316 L6.05944,36.5393316 L6.05944,44.7328487 L5.19142009,44.7328487 C4.28049205,44.7328487 3.47625449,44.2812242 3.00194568,43.5967397 C2.92772621,43.75743 2.84133011,43.9028971 2.74043802,44.0275026 C2.66042015,43.8927482 2.58794019,43.7529194 2.53053607,43.6091438 C2.4226859,43.3650072 2.35078579,43.1084665 2.31367605,42.8479789 C2.27018808,42.5784702 2.28294455,42.3489931 2.28178488,42.019155 C2.29338167,40.7821211 2.29106231,39.545651 2.23945658,38.3086171 L2.22148155,37.8451523 L2.21220412,37.6173666 C2.21394364,37.5598564 2.20466621,37.5012185 2.21162428,37.4431444 C2.22496059,37.2119758 2.29396151,36.9796796 2.41862703,36.7705002 C2.66273951,36.3448117 3.12893056,36.0313245 3.68499676,35.9467507 L3.69311451,35.945623 C3.8027042,35.9287082 3.89257934,35.8430067 3.90707533,35.7302415 C3.92505036,35.5937957 3.82531795,35.4686263 3.68499676,35.4517116 C2.96425611,35.3637547 2.17799358,35.6828802 1.69788638,36.2805356 C1.4537739,36.5754165 1.29605752,36.9402118 1.22415741,37.3202304 C1.20270334,37.4149531 1.20038398,37.5119312 1.18936703,37.6089092 L1.17835008,37.8451523 L1.16037505,38.3086171 C1.10876932,39.545651 1.10644996,40.7821211 1.1186266,42.019155 C1.11630724,42.3061423 1.13254275,42.6985651 1.20908158,43.0385521 C1.28040185,43.3869965 1.39752945,43.7264196 1.55988455,44.0421621 C1.65439841,44.2208949 1.76456793,44.3894788 1.88343506,44.5524245 C1.38419314,44.712551 0.989322361,44.7204446 0.681427522,44.6572961 C1.57612006,46.1818811 3.26055415,47.2148101 5.19142009,47.2148101 L6.14235707,47.2148101 C6.59405213,49.9273762 9.0067648,52 11.9239379,52 L17.7658221,52 L17.5756347,51.8923093 Z" id="Fill-85" fill="#CE643A"></path>
            </g>
            <g id="Group-23" transform="translate(0.000000, 110.000000)">
                <path d="M0.0273957351,172.808179 C-0.142233321,173.790849 0.492223408,174.744373 1.47750387,174.957184 C2.48922002,175.176044 3.48661684,174.534312 3.70526209,173.524147 L38.7320099,11.7268041 L28.0608002,11.7268041 L0.0273957351,172.808179 Z" id="Fill-1" fill="#00547A"></path>
                <path d="M243.228371,172.808179 C243.058742,173.790849 243.69375,174.744373 244.67848,174.957184 C245.690196,175.176044 246.687594,174.534312 246.906239,173.524147 L281.933002,11.7268041 L271.262339,11.7268041 L243.228371,172.808179 Z" id="Fill-3" fill="#00547A"></path>
                <polygon id="Fill-5" fill="#002F33" points="17.1141439 11.7268041 85.8426818 17.1391753 276.668958 17.1391753 345.885856 11.7268041 97.6913451 11.7268041"></polygon>
                <path d="M271.262323,11.7268041 L243.228314,173.351361 C243.121469,173.972084 243.334608,174.580667 243.752072,175 C244.256004,174.889098 244.672367,174.489628 244.77811,173.950013 L275.17977,18.9840159 C275.595032,16.8685936 277.474724,15.3634104 279.625933,15.4229998 L281.126712,15.4649331 L281.933002,11.7268041 L271.262323,11.7268041 Z" id="Fill-7" fill="#002F33"></path>
                <path d="M28.0607917,11.7268041 L0.0273647081,173.351361 C-0.0794796531,173.972084 0.133107581,174.580667 0.550571631,175 C1.05450251,174.889098 1.47086507,174.489628 1.57715869,173.950013 L31.9782347,18.9840159 C32.3934957,16.8685936 34.2731854,15.3634104 36.424392,15.4229998 L37.9251698,15.4649331 L38.7320099,11.7268041 L28.0607917,11.7268041 Z" id="Fill-9" fill="#002F33"></path>
                <path d="M99.9305171,0 L3.65509088,0 C2.13358989,0 0.900744417,1.27252655 0.900744417,2.84299945 L0.900744417,4.23379478 C0.900744417,5.46936234 1.66920708,6.51046874 2.73569003,6.90280266 L10.3139989,10.4548462 C12.1021206,11.2929624 14.0439349,11.7268041 16.0083348,11.7268041 L17.1910511,11.7268041 L28.4403529,11.7268041 L39.1139963,11.7268041 L80.3900815,11.7268041 L91.0631741,11.7268041 L97.629536,11.7268041 C100.235148,11.7268041 102.379131,9.69178512 102.653464,7.07679423 L102.684864,7.07679423 L102.684864,2.84299945 C102.684864,1.27252655 101.452018,0 99.9305171,0" id="Fill-11" fill="#00547A"></path>
                <path d="M118.870243,172.808007 L90.8372908,11.7268041 L80.1662531,11.7268041 L115.192436,173.523975 C115.40502,174.497845 116.351733,175.143975 117.344708,174.972407 C118.364669,174.79479 119.04758,173.826419 118.870243,172.808007" id="Fill-13" fill="#0097B8"></path>
                <path d="M324.26799,11.7268041 L359.294188,173.523811 C359.506221,174.498234 360.453486,175.144366 361.446461,174.972247 C362.465872,174.79518 363.149334,173.826256 362.971997,172.808392 L334.938482,11.7268041 L324.26799,11.7268041 Z" id="Fill-15" fill="#0097B8"></path>
                <path d="M90.727699,15.4704334 L91.4838175,15.4896569 L90.8284047,11.7268041 L80.1662531,11.7268041 L115.165075,173.330099 C115.22836,173.622295 115.362635,173.878791 115.538182,174.097938 C116.010893,173.817825 116.282744,173.266387 116.171032,172.696823 L86.2966463,20.7090978 C85.7545963,17.9502583 87.9117903,15.3995813 90.727699,15.4704334" id="Fill-17" fill="#00547A"></path>
                <path d="M360.272589,172.696823 L330.398353,20.7090978 C329.856305,17.9502583 332.013489,15.3995813 334.829383,15.4704334 L335.585498,15.4896569 L334.930088,11.7268041 L324.26799,11.7268041 L359.266087,173.330099 C359.329922,173.622844 359.464196,173.878791 359.639742,174.097938 C360.112451,173.817825 360.384851,173.266387 360.272589,172.696823" id="Fill-19" fill="#00547A"></path>
                <path d="M347.845167,11.7268041 C349.817796,11.7268041 351.767191,11.2929624 353.563356,10.4548462 L361.207707,6.88631326 C361.301194,6.85049147 361.389702,6.80670928 361.478764,6.76008409 L361.552336,6.72539949 C361.559528,6.7219879 361.561187,6.7151647 361.567825,6.7106159 C362.418058,6.22560019 363,5.30446837 363,4.23379478 L363,2.84299945 C363,1.27252655 361.76199,0 360.234116,0 L99.5910167,0 C101.118891,0 102.356901,1.27252655 102.356901,2.84299945 L102.356901,7.07679423 L102.325923,7.07679423 C102.049888,9.69178512 99.8969235,11.7268041 97.280397,11.7268041 L323.778102,11.7268041 L334.495904,11.7268041 L346.085512,11.7268041 L347.845167,11.7268041 Z" id="Fill-21" fill="#0097B8"></path>
            </g>
            <g id="Basic_elements/1.-Logos/3.-Logo_symbol" transform="translate(159.000000, 27.000000)" fill="#008FAE">
                <path d="M21.7198582,12.4929036 C23.6818776,11.3278357 25,9.17353438 25,6.70687116 C25,3.00281459 22.0296234,0 18.36558,0 C15.8216167,0 13.6133404,1.44808041 12.5,3.57250819 C11.3866596,1.44808041 9.17838331,0 6.63441997,0 C2.97037659,0 0,3.00281459 0,6.70687116 C0,9.17353438 1.31812243,11.3278357 3.28014184,12.4929036 C1.31812243,13.6579716 0,15.8122729 0,18.2789361 C0,21.9829927 2.97037659,24.9858073 6.63441997,24.9858073 C9.17838331,24.9858073 11.3866596,23.5377269 12.5,21.4132991 C13.6133404,23.5377269 15.8216167,24.9858073 18.36558,24.9858073 C22.0296234,24.9858073 25,21.9829927 25,18.2789361 C25,15.8122729 23.6818776,13.6579716 21.7198582,12.4929036" id="Combined-Shape"></path>
            </g>
        </g>
    </g>
</svg>