<?xml version="1.0" encoding="UTF-8"?>
<svg version="1.1" viewBox="0 0 106 106" xmlns="http://www.w3.org/2000/svg">
<title>4. Elements_Microillustrations/Consistency</title>
<g fill="#009BBD" fill-rule="evenodd">
<path id="b" d="m45.145 31.5c2.9042-1.7249 4.8545-4.9153 4.8545-8.568 0-5.485-4.3957-9.932-9.8192-9.932-3.7642 0-7.0326 2.1449-8.6804 5.2903-1.6478-3.1454-4.9162-5.2903-8.6812-5.2903-5.4227 0-9.8192 4.447-9.8192 9.932 0 3.6528 1.9512 6.8431 4.8553 8.568-2.9042 1.7249-4.8553 4.9153-4.8553 8.568 0 5.485 4.3965 9.932 9.8192 9.932 3.765 0 7.0334-2.1449 8.6812-5.2903 1.6478 3.1454 4.9162 5.2903 8.6804 5.2903 5.4235 0 9.8192-4.447 9.8192-9.932 0-3.6528-1.9504-6.8431-4.8545-8.568"/>
<path d="m89.145 75.5c2.9042-1.7249 4.8545-4.9153 4.8545-8.568 0-5.485-4.3957-9.932-9.8192-9.932-3.7642 0-7.0326 2.1449-8.6804 5.2903-1.6478-3.1454-4.9162-5.2903-8.6812-5.2903-5.4227 0-9.8192 4.447-9.8192 9.932 0 3.6528 1.9512 6.8431 4.8553 8.568-2.9042 1.7249-4.8553 4.9153-4.8553 8.568 0 5.485 4.3965 9.932 9.8192 9.932 3.765 0 7.0334-2.1449 8.6812-5.2903 1.6478 3.1454 4.9162 5.2903 8.6804 5.2903 5.4235 0 9.8192-4.447 9.8192-9.932 0-3.6528-1.9504-6.8431-4.8545-8.568"/>
<path id="a" d="m51 75.5c0 10.77-8.7307 19.5-19.5 19.5-10.77 0-19.5-8.7305-19.5-19.5s8.7298-19.5 19.5-19.5c10.77 0 19.5 8.7305 19.5 19.5"/>
<path d="m95 31.5c0 10.77-8.7307 19.5-19.5 19.5-10.77 0-19.5-8.7305-19.5-19.5s8.7298-19.5 19.5-19.5c10.77 0 19.5 8.7305 19.5 19.5"/>
</g>
</svg>
