<?xml version="1.0" encoding="UTF-8" standalone="no"?><!DOCTYPE svg PUBLIC "-//W3C//DTD SVG 1.1//EN" "http://www.w3.org/Graphics/SVG/1.1/DTD/svg11.dtd"><svg width="100%" height="100%" viewBox="0 0 106 106" version="1.1" xmlns="http://www.w3.org/2000/svg" xmlns:xlink="http://www.w3.org/1999/xlink" xml:space="preserve" xmlns:serif="http://www.serif.com/" style="fill-rule:evenodd;clip-rule:evenodd;stroke-linejoin:round;stroke-miterlimit:2;"><g><path id="b" d="M42.434,25.178c3.673,-2.181 6.139,-6.216 6.139,-10.835c0,-6.937 -5.559,-12.56 -12.417,-12.56c-4.761,-0 -8.894,2.712 -10.978,6.69c-2.084,-3.978 -6.217,-6.69 -10.978,-6.69c-6.858,-0 -12.418,5.623 -12.418,12.56c0,4.619 2.468,8.654 6.14,10.835c-3.673,2.182 -6.14,6.216 -6.14,10.836c0,6.936 5.56,12.56 12.418,12.56c4.761,-0 8.894,-2.713 10.978,-6.69c2.084,3.977 6.217,6.69 10.978,6.69c6.858,-0 12.417,-5.624 12.417,-12.56c0,-4.62 -2.466,-8.654 -6.139,-10.836" style="fill:#009bbd;"/><path d="M98.078,80.822c3.672,-2.182 6.139,-6.216 6.139,-10.836c-0,-6.936 -5.559,-12.56 -12.418,-12.56c-4.76,0 -8.894,2.713 -10.977,6.69c-2.084,-3.977 -6.218,-6.69 -10.979,-6.69c-6.858,0 -12.417,5.624 -12.417,12.56c-0,4.62 2.467,8.654 6.14,10.836c-3.673,2.181 -6.14,6.216 -6.14,10.835c-0,6.937 5.559,12.56 12.417,12.56c4.761,0 8.895,-2.712 10.979,-6.69c2.083,3.978 6.217,6.69 10.977,6.69c6.859,0 12.418,-5.623 12.418,-12.56c-0,-4.619 -2.467,-8.654 -6.139,-10.835" style="fill:#009bbd;"/><path id="a" d="M49.838,80.822c0,13.62 -11.041,24.66 -24.66,24.66c-13.62,-0 -24.66,-11.041 -24.66,-24.66c0,-13.62 11.04,-24.66 24.66,-24.66c13.62,-0 24.66,11.04 24.66,24.66" style="fill:#009bbd;"/><path d="M105.482,25.178c-0,13.62 -11.041,24.66 -24.66,24.66c-13.62,0 -24.66,-11.04 -24.66,-24.66c-0,-13.619 11.039,-24.66 24.66,-24.66c13.62,0 24.66,11.041 24.66,24.66" style="fill:#009bbd;"/></g></svg>