<?xml version="1.0" encoding="UTF-8" standalone="no"?><!DOCTYPE svg PUBLIC "-//W3C//DTD SVG 1.1//EN" "http://www.w3.org/Graphics/SVG/1.1/DTD/svg11.dtd"><svg width="100%" height="100%" viewBox="0 0 106 106" version="1.1" xmlns="http://www.w3.org/2000/svg" xmlns:xlink="http://www.w3.org/1999/xlink" xml:space="preserve" xmlns:serif="http://www.serif.com/" style="fill-rule:evenodd;clip-rule:evenodd;stroke-linejoin:round;stroke-miterlimit:2;"><path d="M52.375,105.464c16.211,0 29.355,-13.301 29.355,-29.708c0,-5.818 -1.651,-11.243 -4.506,-15.826c15.695,-0.591 28.24,-13.655 28.24,-29.686c0,-16.407 -13.143,-29.708 -29.355,-29.708c-9.382,-0 -17.735,4.454 -23.109,11.386c-5.374,-6.933 -13.728,-11.386 -23.109,-11.386c-16.214,-0 -29.355,13.301 -29.355,29.708c-0,15.618 11.907,28.421 27.035,29.618c-2.984,4.762 -4.562,10.273 -4.551,15.894c0,16.407 13.141,29.708 29.355,29.708Z" style="fill:#009bbd;"/></svg>