<?xml version="1.0" encoding="UTF-8" standalone="no"?><!DOCTYPE svg PUBLIC "-//W3C//DTD SVG 1.1//EN" "http://www.w3.org/Graphics/SVG/1.1/DTD/svg11.dtd"><svg width="100%" height="100%" viewBox="0 0 106 106" version="1.1" xmlns="http://www.w3.org/2000/svg" xmlns:xlink="http://www.w3.org/1999/xlink" xml:space="preserve" xmlns:serif="http://www.serif.com/" style="fill-rule:evenodd;clip-rule:evenodd;stroke-linejoin:round;stroke-miterlimit:2;"><g id="_4.-Elements_Microillustrations-Process" serif:id="4.-Elements_Microillustrations/Process"><path id="Combined-Shape" d="M25.055,0.837c3.674,-0 6.671,2.9 6.825,6.536c1.181,-0.98 2.698,-1.569 4.353,-1.569c3.773,0 6.831,3.059 6.831,6.831c0,2.378 -1.214,4.471 -3.057,5.695c0.388,-0.07 0.787,-0.106 1.194,-0.106c3.773,0 6.831,3.059 6.831,6.831c0,3.674 -2.9,6.671 -6.536,6.825c0.98,1.181 1.568,2.699 1.568,4.353c0,3.773 -3.058,6.831 -6.831,6.831c-1.655,0 -3.172,-0.588 -4.354,-1.567c-0.153,3.635 -3.15,6.535 -6.824,6.535c-3.773,0 -6.831,-3.058 -6.831,-6.831c0,-0.408 0.036,-0.808 0.105,-1.196c-1.222,1.844 -3.316,3.059 -5.694,3.059c-3.772,0 -6.831,-3.058 -6.831,-6.831c0,-1.654 0.589,-3.172 1.567,-4.354c-3.634,-0.153 -6.534,-3.15 -6.534,-6.824c-0,-3.772 3.058,-6.831 6.83,-6.831c0.41,0 0.811,0.036 1.2,0.105c-1.846,-1.219 -3.063,-3.314 -3.063,-5.694c0,-3.772 3.059,-6.831 6.831,-6.831c2.285,0 4.307,1.122 5.547,2.844l0.105,-0.053c-0.041,-0.303 -0.063,-0.613 -0.063,-0.928c0,-3.772 3.058,-6.83 6.831,-6.83Zm57.132,-0c3.673,-0 6.67,2.9 6.824,6.536c1.182,-0.98 2.699,-1.569 4.353,-1.569c3.773,0 6.832,3.059 6.832,6.831c-0,2.378 -1.215,4.471 -3.057,5.695c0.387,-0.07 0.786,-0.106 1.193,-0.106c3.773,0 6.831,3.059 6.831,6.831c0,3.674 -2.9,6.671 -6.536,6.825c0.98,1.181 1.569,2.699 1.569,4.353c-0,3.773 -3.059,6.831 -6.832,6.831c-1.654,0 -3.171,-0.588 -4.353,-1.567c-0.154,3.635 -3.151,6.535 -6.824,6.535c-3.773,0 -6.831,-3.058 -6.831,-6.831c-0,-0.408 0.036,-0.808 0.104,-1.196c-1.221,1.844 -3.315,3.059 -5.693,3.059c-3.773,0 -6.831,-3.058 -6.831,-6.831c-0,-1.654 0.588,-3.172 1.567,-4.354c-3.635,-0.153 -6.535,-3.15 -6.535,-6.824c-0,-3.772 3.058,-6.831 6.831,-6.831c0.409,0 0.81,0.036 1.199,0.105c-1.846,-1.219 -3.062,-3.314 -3.062,-5.694c-0,-3.772 3.058,-6.831 6.831,-6.831c2.284,0 4.306,1.122 5.547,2.844l0.104,-0.053c-0.041,-0.303 -0.062,-0.613 -0.062,-0.928c-0,-3.772 3.058,-6.83 6.831,-6.83Zm-57.132,57.131c3.674,-0 6.671,2.9 6.825,6.536c1.181,-0.98 2.698,-1.568 4.353,-1.568c3.773,-0 6.831,3.058 6.831,6.831c0,2.377 -1.214,4.471 -3.057,5.694c0.388,-0.07 0.787,-0.105 1.194,-0.105c3.773,-0 6.831,3.058 6.831,6.831c0,3.674 -2.9,6.67 -6.536,6.824c0.98,1.182 1.568,2.699 1.568,4.354c0,3.772 -3.058,6.831 -6.831,6.831c-1.655,-0 -3.172,-0.589 -4.354,-1.568c-0.153,3.635 -3.15,6.535 -6.824,6.535c-3.773,0 -6.831,-3.058 -6.831,-6.83c0,-0.408 0.036,-0.808 0.105,-1.196c-1.222,1.844 -3.316,3.059 -5.694,3.059c-3.772,-0 -6.831,-3.059 -6.831,-6.831c0,-1.655 0.589,-3.172 1.567,-4.354c-3.634,-0.154 -6.534,-3.15 -6.534,-6.824c-0,-3.773 3.058,-6.831 6.83,-6.831c0.41,-0 0.811,0.036 1.2,0.105c-1.846,-1.22 -3.063,-3.315 -3.063,-5.694c0,-3.773 3.059,-6.831 6.831,-6.831c2.285,-0 4.307,1.121 5.547,2.843l0.105,-0.052c-0.041,-0.304 -0.063,-0.613 -0.063,-0.928c0,-3.773 3.058,-6.831 6.831,-6.831Zm57.132,-0c3.673,-0 6.67,2.9 6.824,6.536c1.182,-0.98 2.699,-1.568 4.353,-1.568c3.773,-0 6.832,3.058 6.832,6.831c-0,2.377 -1.215,4.471 -3.057,5.694c0.387,-0.07 0.786,-0.105 1.193,-0.105c3.773,-0 6.831,3.058 6.831,6.831c0,3.674 -2.9,6.67 -6.536,6.824c0.98,1.182 1.569,2.699 1.569,4.354c-0,3.772 -3.059,6.831 -6.832,6.831c-1.654,-0 -3.171,-0.589 -4.353,-1.568c-0.154,3.635 -3.151,6.535 -6.824,6.535c-3.773,0 -6.831,-3.058 -6.831,-6.83c-0,-0.408 0.036,-0.808 0.104,-1.196c-1.221,1.844 -3.315,3.059 -5.693,3.059c-3.773,-0 -6.831,-3.059 -6.831,-6.831c-0,-1.655 0.588,-3.172 1.567,-4.354c-3.635,-0.154 -6.535,-3.15 -6.535,-6.824c-0,-3.773 3.058,-6.831 6.831,-6.831c0.409,-0 0.81,0.036 1.199,0.105c-1.846,-1.22 -3.062,-3.315 -3.062,-5.694c-0,-3.773 3.058,-6.831 6.831,-6.831c2.284,-0 4.306,1.121 5.547,2.843l0.104,-0.052c-0.041,-0.304 -0.062,-0.613 -0.062,-0.928c-0,-3.773 3.058,-6.831 6.831,-6.831Z" style="fill:#0096b2;"/></g></svg>