<?xml version="1.0" encoding="UTF-8"?>
<svg viewBox="0 0 106 106" version="1.1" xmlns="http://www.w3.org/2000/svg" xmlns:xlink="http://www.w3.org/1999/xlink">
    <title>4. Elements_Microillustrations/Process</title>
    <g id="4.-Elements_Microillustrations/Process" stroke="none" stroke-width="1" fill="none" fill-rule="evenodd">
        <path d="M30.4998764,11 C33.458004,11 35.8707083,13.3352312 35.9949735,16.2627169 C36.946122,15.4736344 38.1676637,15 39.4998764,15 C42.5375053,15 45,17.4624393 45,20.5 C45,22.4140923 44.0221975,24.0998166 42.5388389,25.0849371 C42.8506716,25.028703 43.1719206,25 43.4998764,25 C46.5375053,25 49,27.4624393 49,30.5 C49,33.4580611 46.6647163,35.8707112 43.7371648,35.9949736 C44.526355,36.9462554 45,38.1678173 45,39.5 C45,42.5375607 42.5375053,45 39.4998764,45 C38.1676637,45 36.946122,44.5263656 35.9944198,43.7383037 C35.8707083,46.6647688 33.458004,49 30.4998764,49 C27.4622474,49 25,46.5375607 25,43.5 C25,43.1715017 25.028797,42.8497297 25.0840046,42.5370711 C24.1005978,44.0217416 22.4144795,45 20.4998764,45 C17.4622474,45 15,42.5375607 15,39.5 C15,38.1678173 15.4735975,36.9462554 16.2616237,35.9945213 C13.3350492,35.8707112 11,33.4580611 11,30.5 C11,27.4624393 13.4622474,25 16.4998764,25 C16.8294305,25 17.1522151,25.0289834 17.4658202,25.0845402 C15.9793147,24.1025919 15,22.415668 15,20.5 C15,17.4624393 17.4622474,15 20.4998764,15 C22.339146,15 23.9675573,15.9027903 24.9661367,17.2894065 L25.0503181,17.2471507 C25.0171379,17.0028341 25,16.7534186 25,16.5 C25,13.4624393 27.4622474,11 30.4998764,11 Z M76.4998764,11 C79.458004,11 81.8707083,13.3352312 81.9949735,16.2627169 C82.946122,15.4736344 84.1676637,15 85.4998764,15 C88.5375053,15 91,17.4624393 91,20.5 C91,22.4140923 90.0221975,24.0998166 88.5388389,25.0849371 C88.8506716,25.028703 89.1719206,25 89.4998764,25 C92.5375053,25 95,27.4624393 95,30.5 C95,33.4580611 92.6647163,35.8707112 89.7371648,35.9949736 C90.526355,36.9462554 91,38.1678173 91,39.5 C91,42.5375607 88.5375053,45 85.4998764,45 C84.1676637,45 82.946122,44.5263656 81.9944198,43.7383037 C81.8707083,46.6647688 79.458004,49 76.4998764,49 C73.4622474,49 71,46.5375607 71,43.5 C71,43.1715017 71.028797,42.8497297 71.0840046,42.5370711 C70.1005978,44.0217416 68.4144795,45 66.4998764,45 C63.4622474,45 61,42.5375607 61,39.5 C61,38.1678173 61.4735975,36.9462554 62.2616237,35.9945213 C59.3350492,35.8707112 57,33.4580611 57,30.5 C57,27.4624393 59.4622474,25 62.4998764,25 C62.8294305,25 63.1522151,25.0289834 63.4658202,25.0845402 C61.9793147,24.1025919 61,22.415668 61,20.5 C61,17.4624393 63.4622474,15 66.4998764,15 C68.339146,15 69.9675573,15.9027903 70.9661367,17.2894065 L71.0503181,17.2471507 C71.0171379,17.0028341 71,16.7534186 71,16.5 C71,13.4624393 73.4622474,11 76.4998764,11 Z M30.4998764,57 C33.458004,57 35.8707083,59.3352312 35.9949735,62.2627169 C36.946122,61.4736344 38.1676637,61 39.4998764,61 C42.5375053,61 45,63.4624393 45,66.5 C45,68.4140923 44.0221975,70.0998166 42.5388389,71.0849371 C42.8506716,71.028703 43.1719206,71 43.4998764,71 C46.5375053,71 49,73.4624393 49,76.5 C49,79.4580611 46.6647163,81.8707112 43.7371648,81.9949736 C44.526355,82.9462554 45,84.1678173 45,85.5 C45,88.5375607 42.5375053,91 39.4998764,91 C38.1676637,91 36.946122,90.5263656 35.9944198,89.7383037 C35.8707083,92.6647688 33.458004,95 30.4998764,95 C27.4622474,95 25,92.5375607 25,89.5 C25,89.1715017 25.028797,88.8497297 25.0840046,88.5370711 C24.1005978,90.0217416 22.4144795,91 20.4998764,91 C17.4622474,91 15,88.5375607 15,85.5 C15,84.1678173 15.4735975,82.9462554 16.2616237,81.9945213 C13.3350492,81.8707112 11,79.4580611 11,76.5 C11,73.4624393 13.4622474,71 16.4998764,71 C16.8294305,71 17.1522151,71.0289834 17.4658202,71.0845402 C15.9793147,70.1025919 15,68.415668 15,66.5 C15,63.4624393 17.4622474,61 20.4998764,61 C22.339146,61 23.9675573,61.9027903 24.9661367,63.2894065 L25.0503181,63.2471507 C25.0171379,63.0028341 25,62.7534186 25,62.5 C25,59.4624393 27.4622474,57 30.4998764,57 Z M76.4998764,57 C79.458004,57 81.8707083,59.3352312 81.9949735,62.2627169 C82.946122,61.4736344 84.1676637,61 85.4998764,61 C88.5375053,61 91,63.4624393 91,66.5 C91,68.4140923 90.0221975,70.0998166 88.5388389,71.0849371 C88.8506716,71.028703 89.1719206,71 89.4998764,71 C92.5375053,71 95,73.4624393 95,76.5 C95,79.4580611 92.6647163,81.8707112 89.7371648,81.9949736 C90.526355,82.9462554 91,84.1678173 91,85.5 C91,88.5375607 88.5375053,91 85.4998764,91 C84.1676637,91 82.946122,90.5263656 81.9944198,89.7383037 C81.8707083,92.6647688 79.458004,95 76.4998764,95 C73.4622474,95 71,92.5375607 71,89.5 C71,89.1715017 71.028797,88.8497297 71.0840046,88.5370711 C70.1005978,90.0217416 68.4144795,91 66.4998764,91 C63.4622474,91 61,88.5375607 61,85.5 C61,84.1678173 61.4735975,82.9462554 62.2616237,81.9945213 C59.3350492,81.8707112 57,79.4580611 57,76.5 C57,73.4624393 59.4622474,71 62.4998764,71 C62.8294305,71 63.1522151,71.0289834 63.4658202,71.0845402 C61.9793147,70.1025919 61,68.415668 61,66.5 C61,63.4624393 63.4622474,61 66.4998764,61 C68.339146,61 69.9675573,61.9027903 70.9661367,63.2894065 L71.0503181,63.2471507 C71.0171379,63.0028341 71,62.7534186 71,62.5 C71,59.4624393 73.4622474,57 76.4998764,57 Z" id="Combined-Shape" fill="#0096B2"></path>
    </g>
</svg>