<?xml version="1.0" encoding="UTF-8" standalone="no"?><!DOCTYPE svg PUBLIC "-//W3C//DTD SVG 1.1//EN" "http://www.w3.org/Graphics/SVG/1.1/DTD/svg11.dtd"><svg width="100%" height="100%" viewBox="0 0 106 106" version="1.1" xmlns="http://www.w3.org/2000/svg" xmlns:xlink="http://www.w3.org/1999/xlink" xml:space="preserve" xmlns:serif="http://www.serif.com/" style="fill-rule:evenodd;clip-rule:evenodd;stroke-linejoin:round;stroke-miterlimit:2;"><path d="M91.752,53c8.56,-5.102 13.81,-14.368 13.787,-24.333c-0,-15.578 -12.485,-28.206 -27.886,-28.206c-10.691,0 -19.973,6.09 -24.653,15.024c-4.678,-8.934 -13.96,-15.024 -24.653,-15.024c-15.401,0 -27.886,12.628 -27.886,28.206c-0.023,9.965 5.227,19.231 13.787,24.333c-8.56,5.102 -13.81,14.368 -13.787,24.333c0,15.578 12.485,28.206 27.886,28.206c10.691,-0 19.973,-6.09 24.653,-15.024c4.678,8.934 13.96,15.024 24.653,15.024c15.401,-0 27.886,-12.628 27.886,-28.206c0.023,-9.965 -5.227,-19.231 -13.787,-24.333" style="fill:#009bbd;"/></svg>