<?xml version="1.0" encoding="UTF-8" standalone="no"?><!DOCTYPE svg PUBLIC "-//W3C//DTD SVG 1.1//EN" "http://www.w3.org/Graphics/SVG/1.1/DTD/svg11.dtd"><svg width="100%" height="100%" viewBox="0 0 106 106" version="1.1" xmlns="http://www.w3.org/2000/svg" xmlns:xlink="http://www.w3.org/1999/xlink" xml:space="preserve" xmlns:serif="http://www.serif.com/" style="fill-rule:evenodd;clip-rule:evenodd;stroke-linejoin:round;stroke-miterlimit:2;"><path d="M53,0.382c8.303,0 15.034,6.73 15.034,15.034c-0,0.475 -0.022,0.945 -0.065,1.407c2.85,-3.284 6.992,-5.171 11.34,-5.166c8.302,0 15.034,6.73 15.034,15.034c-0,4.528 -2.001,8.585 -5.166,11.342c0.462,-0.045 0.932,-0.067 1.407,-0.067c8.302,0 15.034,6.73 15.034,15.034c-0,8.303 -6.73,15.034 -15.034,15.034c-0.475,-0 -0.945,-0.022 -1.407,-0.065c3.284,2.85 5.171,6.992 5.166,11.34c-0,8.302 -6.73,15.034 -15.034,15.034c-4.528,-0 -8.587,-2.001 -11.344,-5.166c0.047,0.462 0.069,0.932 0.069,1.407c-0,8.304 -6.73,15.034 -15.034,15.034c-8.304,-0 -15.034,-6.73 -15.034,-15.034c0,-0.475 0.022,-0.945 0.065,-1.407c-2.85,3.284 -6.992,5.171 -11.34,5.166c-8.304,-0 -15.034,-6.73 -15.034,-15.034c0,-4.528 2.001,-8.587 5.166,-11.344c-0.463,0.047 -0.932,0.069 -1.407,0.069c-8.304,-0 -15.034,-6.73 -15.034,-15.034c0,-8.303 6.73,-15.034 15.033,-15.034c0.475,0 0.945,0.022 1.407,0.065c-3.283,-2.85 -5.169,-6.992 -5.164,-11.34c0,-8.302 6.731,-15.034 15.033,-15.034c4.528,0 8.587,2.001 11.342,5.166c-0.045,-0.467 -0.067,-0.937 -0.067,-1.407c0,-8.304 6.73,-15.034 15.034,-15.034Z" style="fill:#009bbd;"/></svg>