<?xml version="1.0" encoding="UTF-8"?>
<svg version="1.1" viewBox="0 0 106 106" xmlns="http://www.w3.org/2000/svg">
<title>4. Elements_Microillustrations/Alert</title>
<g fill="none" fill-rule="evenodd">
<g transform="translate(11.371 17.036)">
<path id="Triangle" d="m46.83 3.0102 35.629 61.963c1.6518 2.8727 0.66206 6.5405-2.2106 8.1923-0.90993 0.52321-1.9412 0.79856-2.9908 0.79856h-71.258c-3.3137 0-6-2.6863-6-6 0-1.0496 0.27535-2.0809 0.79856-2.9908l35.629-61.963c1.6518-2.8727 5.3196-3.8624 8.1923-2.2106 0.91927 0.52858 1.682 1.2913 2.2106 2.2106z" fill="#EE4900"/>
<path id="a" d="m43.364 5.9922 34.371 59.978c0.5492 0.95836 0.21751 2.1805-0.74085 2.7297-0.30271 0.17347-0.64553 0.26474-0.99442 0.26474h-68.742c-1.1046 0-2-0.89543-2-2 0-0.34889 0.091267-0.69171 0.26474-0.99442l34.371-59.978c0.5492-0.95836 1.7713-1.29 2.7297-0.74085 0.30839 0.17673 0.56412 0.43245 0.74085 0.74085z" fill="#fff"/>
<path d="m42.495 12.468 29.382 50.997c0.27572 0.47854 0.1113 1.09-0.36724 1.3657-0.15184 0.087482-0.32399 0.13353-0.49923 0.13353h-58.765c-0.55228 0-1-0.44772-1-1 0-0.17523 0.046047-0.34739 0.13353-0.49923l29.382-50.997c0.27572-0.47854 0.88716-0.64296 1.3657-0.36724 0.15262 0.087935 0.27931 0.21462 0.36724 0.36724z" fill="#FFEACF"/>
<g transform="translate(39 27)" fill="#000">
<rect x=".72721" width="4.3635" height="21.818"/>
<path d="m2.9091 26.182c-1.6041 0-2.9091 1.305-2.9091 2.9091 0 1.6041 1.305 2.9091 2.9091 2.9091 1.604 0 2.9091-1.305 2.9091-2.9091 0-1.6041-1.305-2.9091-2.9091-2.9091z"/>
</g>
</g>
</g>
</svg>
