<?xml version="1.0" encoding="UTF-8"?>
<svg version="1.1" viewBox="0 0 106 106" xmlns="http://www.w3.org/2000/svg">
<title>4. Elements_Microillustrations/Avatar</title>
<g fill-rule="evenodd">
<path d="m52.999 11c23.196 0 42.001 18.804 42.001 42s-18.805 42-42.001 42-41.999-18.804-41.999-42 18.803-42 41.999-42zm1.124e-4 5c-20.435 0-36.999 16.566-36.999 37s16.564 37 36.999 37 37.001-16.566 37.001-37-16.566-37-37.001-37z" fill="#0059C4"/>
<circle cx="53" cy="53" r="33" fill="#DFF0FF"/>
<path d="m45.699 54.571h14.345c1.4917 0 2.7569 1.0961 2.9694 2.5726l0.49351 3.4286c0.23605 1.64-0.90203 3.1608-2.542 3.3968-0.14156 0.020376-0.28439 0.030603-0.42741 0.030603h-15.202c-1.6569 0-3-1.3431-3-3 0-0.10569 0.0055852-0.21131 0.016732-0.31641l0.36364-3.4286c0.16183-1.5258 1.4489-2.6836 2.9833-2.6836zm12.23-7.0714c0 3.0376-2.4625 5.5-5.5001 5.5s-5.4999-2.4624-5.4999-5.5 2.4622-5.5 5.4999-5.5 5.5001 2.4624 5.5001 5.5"/>
</g>
</svg>
