<?xml version="1.0" encoding="UTF-8"?>
<svg width="106px" height="106px" viewBox="0 0 106 106" version="1.1" xmlns="http://www.w3.org/2000/svg" xmlns:xlink="http://www.w3.org/1999/xlink">
    <title>4. Elements_Microillustrations/Avatar</title>
    <g id="4.-Elements_Microillustrations/Avatar" stroke="none" stroke-width="1" fill="none" fill-rule="evenodd">
        <path d="M52.9990559,11 C76.1954953,11 95,29.804082 95,53 C95,76.195918 76.1954953,95 52.9990559,95 C29.8026165,95 11,76.195918 11,53 C11,29.804082 29.8026165,11 52.9990559,11 Z M52.9991683,16 C32.5642098,16 16,32.5655008 16,53 C16,73.4344992 32.5642098,90 52.9991683,90 C73.4341268,90 90,73.4344992 90,53 C90,32.5655008 73.4341268,16 52.9991683,16 Z" id="Combined-Shape" fill="#004EBD"></path>
        <circle id="Oval" fill="#DFF0FF" cx="53" cy="53" r="33"></circle>
        <path d="M45.6986443,54.5714286 L60.0437568,54.5714286 C61.5354999,54.5714286 62.8006235,55.6674896 63.0131537,57.1440154 L63.5066602,60.5725868 C63.742714,62.2125394 62.6046291,63.7333431 60.9646765,63.9693969 C60.823117,63.9897729 60.6802817,64 60.5372633,64 L45.3350079,64 C43.6781537,64 42.3350079,62.6568542 42.3350079,61 C42.3350079,60.8943098 42.3405931,60.7886935 42.3517402,60.6835928 L42.7153765,57.2550214 C42.8772052,55.7292082 44.1642732,54.5714286 45.6986443,54.5714286 Z M57.9285714,47.5 C57.9285714,50.5375607 55.4660768,53 52.4284478,53 C49.3908188,53 46.9285714,50.5375607 46.9285714,47.5 C46.9285714,44.4624393 49.3908188,42 52.4284478,42 C55.4660768,42 57.9285714,44.4624393 57.9285714,47.5" id="Rectangle-2" fill="#000000"></path>
    </g>
</svg>