<?xml version="1.0" encoding="UTF-8"?>
<svg version="1.1" viewBox="0 0 106 106" xmlns="http://www.w3.org/2000/svg">
<title>4. Elements_Microillustrations/B_System</title>
<g fill-rule="evenodd">
<path d="m83.979 53.5c6.5924-3.8702 11.021-11.027 11.021-19.221 0-12.304-9.9805-22.279-22.292-22.279-8.5477 0-15.968 4.8104-19.708 11.867-3.7408-7.0571-11.161-11.867-19.708-11.867-12.311 0-22.292 9.975-22.292 22.279 0 8.194 4.4289 15.35 11.021 19.221-6.5924 3.8702-11.021 11.027-11.021 19.221 0 12.304 9.9805 22.279 22.292 22.279 8.5477 0 15.968-4.8104 19.708-11.867 3.7408 7.0571 11.161 11.867 19.708 11.867 12.311 0 22.292-9.975 22.292-22.279 0-8.194-4.4289-15.35-11.021-19.221" fill="#009BBD"/>
<path d="m53.445 70.125c3.8281 0 6.7695-0.85938 8.8242-2.5781 2.0547-1.7188 3.082-4.1797 3.082-7.3828 0-1.9375-0.50391-3.5977-1.5117-4.9805-1.0078-1.3828-2.4336-2.3242-4.2773-2.8242 1.625-0.6875 2.8594-1.6562 3.7031-2.9062s1.2656-2.6562 1.2656-4.2188c0-3.0625-1.0078-5.3672-3.0234-6.9141s-4.9531-2.3203-8.8125-2.3203h-11.695v34.125h12.445zm-0.70312-19.758h-5.8125v-9.5859h5.7656c2.0312 0 3.5273 0.375 4.4883 1.125 0.96094 0.75 1.4414 1.9688 1.4414 3.6562 0 1.5312-0.51953 2.7148-1.5586 3.5508-1.0391 0.83594-2.4805 1.2539-4.3242 1.2539zm0.77344 15.023h-6.5859v-10.664h7.0781c3.625 0.078125 5.4375 1.8906 5.4375 5.4375 0 1.6406-0.52344 2.9219-1.5703 3.8438s-2.5 1.3828-4.3594 1.3828z" fill="#fff"/>
</g>
</svg>
