<?xml version="1.0" encoding="UTF-8"?>
<svg version="1.1" viewBox="0 0 106 106" xmlns="http://www.w3.org/2000/svg" xmlns:xlink="http://www.w3.org/1999/xlink">
<title>4. Elements_Microillustrations/Bottle</title>
<defs>
<path id="a" d="m88 44c0 24.3-19.7 44-44.001 44-24.301 0-43.999-19.7-43.999-44s19.698-44 43.999-44c24.301 0 44.001 19.7 44.001 44"/>
</defs>
<g fill="none" fill-rule="evenodd">
<g transform="translate(9 9)">
<mask fill="white">
<use xlink:href="#a"/>
</mask>
<use fill="#FFEACF" xlink:href="#a"/>
</g>
<g transform="translate(45 24)">
<path d="m13.296 2.3922c0-1.321-1.0305-2.3918-2.3022-2.3918h-5.9882c-1.2712 0-2.3022 1.0708-2.3022 2.3918v5.2079c0 0.017704 0.0082437 0.033124 0.0098924 0.050829-0.0021983 0.021131-0.0098924 0.039978-0.0098924 0.062251 0 0.99202 2.3714 0.99202 5.2963 0.99202 2.9249 0 5.2963 0 5.2963-0.99202 0-0.022273-0.0076941-0.04112-0.0098924-0.062251 0.0010992-0.017704 0.0098924-0.033124 0.0098924-0.050829v-5.2079z" fill="#0097B8"/>
<path d="m13.296 7.7134c0-0.99144-2.3714-0.99144-5.2963-0.99144-0.9887 0-1.9109 0.0011422-2.7028 0.039406v-4.369c0-1.321 1.0305-2.3924 2.3022-2.3924h-2.5935c-1.2712 0-2.3022 1.0714-2.3022 2.3924v5.2079c0 0.017704 0.0087933 0.032553 0.0098924 0.050829-0.0021983 0.021131-0.0098924 0.039978-0.0098924 0.062251 0 0.31011 0.23137 0.52314 0.63916 0.66934 0.014839 0.0057111 0.032975 0.0091377 0.048363 0.014278 0.48913 0.16505 1.2107 0.24215 2.0846 0.27813 0.14949 0.00514 0.30447 0.01028 0.46275 0.014278 0.63367 0.01542 1.33 0.01542 2.0615 0.01542 2.9254 0 5.2963 0 5.2963-0.99144" fill="#00547A"/>
<path d="m13.621 19.051c-0.76721-3.3998-1.1591-6.8796-1.1734-10.371 0.0093429-0.037122 0.018136-0.073673 0.018136-0.11422 0-0.0057111-0.0021984-0.010851-0.0027479-0.016562 0.28193-0.13135 0.44351-0.30954 0.44351-0.55455 0-0.91549-2.1895-0.91549-4.8902-0.91549-2.7006 0-4.8896 0-4.8896 0.91549 0 0.24044 0.15443 0.41691 0.42647 0.54769-0.0038471 3.538-0.39735 7.064-1.175 10.508l-1.2025 5.3267c-0.78095 3.4621-1.1761 5.8647-1.1761 9.4204v24.664c0 2.5055 1.9554 4.5375 4.367 4.5375h7.266c2.4121 0 4.367-2.032 4.367-4.5375v-24.664c0-3.5557-0.3946-5.9584-1.1761-9.4204l-1.2025-5.3267z" fill="#D76230"/>
<path d="m16 54.716v-0.49344h-11.925v-19.282c0-3.5563 0.3946-7.1006 1.1761-10.562l1.2019-5.3267c0.74798-3.313 1.1415-6.7008 1.1739-10.102 0.0032975-0.29812 0.16817-0.5654 0.42977-0.68761 0.43417-0.20331 1.1607-0.47402 2.0005-0.50543-0.61168-0.022273-1.3042-0.022844-2.0406-0.022844h-0.28688c0.49682-0.65278 2.7001-0.65335 0.28688-0.65335-2.7006 0-4.8896 0-4.8896 0.91549 0 0.24044 0.15498 0.41634 0.42702 0.54712-0.0043966 3.5386-0.39845 7.064-1.1756 10.509l-1.2025 5.3267c-0.7815 3.4615-1.1756 7.0058-1.1756 10.562v19.282l-5.4958e-4 0.49344 5.4958e-4 3.747c0 2.5055 1.9549 4.5375 4.3664 4.5375h4.0751c-2.4121 0-4.367-2.032-4.367-4.5375v-3.747h11.925z" fill="#AA391B"/>
</g>
</g>
</svg>
