<?xml version="1.0" encoding="UTF-8"?>
<svg version="1.1" viewBox="0 0 106 106" xmlns="http://www.w3.org/2000/svg" xmlns:xlink="http://www.w3.org/1999/xlink">
<title>4. Elements_Microillustrations/Boy</title>
<defs>
<path id="a" d="m88 44c0 24.3-19.7 44-44.001 44-24.301 0-43.999-19.7-43.999-44s19.698-44 43.999-44c24.301 0 44.001 19.7 44.001 44"/>
<path id="e" d="m10.004 2.5502-9.0383 15.213c-2.0622 3.47-0.70082 7.9583 2.9429 9.7044 3.6762 1.7623 8.0728-0.029693 9.4598-3.8573 1.8878-5.2097 4.3875-12.117 6.0244-16.641 0.94997-2.6251-0.34517-5.5282-2.9341-6.583-0.64199-0.2615-1.31-0.38634-1.9686-0.38634-1.7945-3.3732e-4 -3.5223 0.92755-4.4862 2.5502z"/>
<polygon id="d" points="0 0 28.459 0 28.459 21.209 0 21.209"/>
<path id="c" d="m0.32732 1.2089h-3.1718e-4c-0.62294 1.0712-0.33272 2.437 0.67369 3.1663l0.32225 0.23384c0.21536 0.27071 0.44722 1.2524 1.5903 2.674 0.39108 0.48595 0.9195 0.8468 1.5101 1.0542l0.96168 0.33752 1.0756 0.39046 0.56458 0.074374c0.34541 0.045381 0.68954-0.090447 0.90935-0.35864l2.0553-2.5079c0.11545-0.14087 0.20363-0.30222 0.25945-0.47524l0.25216-0.77809c0.13543-0.41851 0.011736-0.87642-0.31559-1.1714l-0.50717-0.45728c-0.15542-0.13992-0.27436-0.31546-0.34731-0.51117l-0.26611-0.71759c-0.11482-0.30979-0.34668-0.56253-0.64641-0.70498l-0.55379-0.26315c-0.12941-0.061768-0.26992-0.096434-0.41297-0.10211l-2.4058-0.099901c-0.2455-0.0104-0.4837-0.085719-0.68986-0.2184l-0.59566-0.38416c-0.41011-0.26409-0.86907-0.38952-1.3223-0.38952-0.83894 0-1.6582 0.43049-2.1111 1.2089z"/>
<path id="b" d="m0.32732 1.2089h-3.1718e-4c-0.62294 1.0712-0.33272 2.437 0.67369 3.1663l0.32225 0.23384c0.21536 0.27071 0.44722 1.2524 1.5903 2.674 0.39108 0.48595 0.9195 0.8468 1.5101 1.0542l0.96168 0.33752 1.0756 0.39046 0.56458 0.074374c0.34541 0.045381 0.68954-0.090447 0.90935-0.35864l2.0553-2.5079c0.11545-0.14087 0.20363-0.30222 0.25945-0.47524l0.25216-0.77809c0.13543-0.41851 0.011736-0.87642-0.31559-1.1714l-0.50717-0.45728c-0.15542-0.13992-0.27436-0.31546-0.34731-0.51117l-0.26611-0.71759c-0.11482-0.30979-0.34668-0.56253-0.64641-0.70498l-0.55379-0.26315c-0.12941-0.061768-0.26992-0.096434-0.41297-0.10211l-2.4058-0.099901c-0.2455-0.0104-0.4837-0.085719-0.68986-0.2184l-0.59566-0.38416c-0.41011-0.26409-0.86907-0.38952-1.3223-0.38952-0.83894 0-1.6582 0.43049-2.1111 1.2089z"/>
<path id="f" d="m4.6066 0s-0.27895 8.9524-4.6066 13.56c0 0 2.2323 1.921 16.64 1.921 14.407 0 16.434-1.921 16.434-1.921-4.3273-4.6081-4.6066-13.56-4.6066-13.56"/>
</defs>
<g fill="none" fill-rule="evenodd">
<g transform="translate(9 9)">
<mask id="j" fill="white">
<use xlink:href="#a"/>
</mask>
<use fill="#D5FDF1" xlink:href="#a"/>
<g mask="url(#j)">
<g transform="translate(9 17)">
<g transform="translate(0 24.63)">
<path d="m21.918 14.308-0.41584-0.6003c-1.0147-1.4641-1.2807-3.32-0.7176-5.0099l0.74612-2.2404c0.34255-1.0279 1.1069-1.8612 2.1014-2.2908l8.4928-3.6694c0.79818-0.34473 1.661-0.51378 2.5305-0.49555l3.6411 0.07657c0.7753 0.016242 1.5407 0.18132 2.2539 0.48594l8.8576 3.7851c0.93149 0.39777 1.6653 1.1502 2.0404 2.0909l1.0051 2.5228c0.76303 1.9139 0.42479 4.091-0.88274 5.6834l-0.69041 0.84095c-0.47917 0.58372-1.0442 1.0909-1.6759 1.5046l-9.6213 6.2983c-1.6895 1.1058-3.8798 1.0809-5.5438-0.06298l-10.22-7.0259c-0.74313-0.5108-1.3871-1.1525-1.9008-1.8934" fill="#AA391B"/>
<path d="m22.449 15.397c3.2332 1.8407 4.3248 5.9761 2.4204 9.1715l-13.247 22.227c-1.7665 2.964-5.6019 3.9362-8.5678 2.1711-2.9036-1.7276-3.9077-5.4491-2.2675-8.4018l12.563-22.62c1.7953-3.2322 5.885-4.3774 9.0987-2.5477" fill="#D76230"/>
<path d="m17.693 26.32-10.18 10.731 1.9684 11.896c0.8529-0.51345 1.5957-1.2367 2.1409-2.1516l8.9285-14.981-2.8581-5.4942z" fill="#AA391B"/>
<path d="m18.703 74.963 0.14425-5.4567-1.345-2.8755c-0.68842-1.4714-0.9285-3.1129-0.69074-4.7198l1.801-12.17c0.27391-1.8493 0.21123-3.7327-0.18437-5.5598l-2.763-12.756c-0.14956-0.69145-0.39296-1.3594-0.72324-1.9849l-1.7449-3.3054c-2.7086-5.1312 0.50371-11.393 6.2531-12.189l16.195-2.2421c0.72556-0.09447 1.4621-0.071598 2.1803 0.067952l15.604 3.3727c5.513 1.1913 8.2919 7.3829 5.5166 12.291l-2.2105 3.9097c-0.5697 1.0073-0.90728 2.129-0.98852 3.2832l-0.75341 10.73c-0.082902 1.1817-0.030508 2.369 0.15652 3.5388l2.0328 12.715c0.2182 1.3663 0.090861 2.7655-0.37107 4.0698l-1.3898 3.9256 0.29745 4.9694c0.015917 0.26617-0.12701 0.51677-0.36709 0.63344-1.3314 0.64737-6.343 2.545-19.346 2.545-12.524 0-16.086-1.5864-17.013-2.2248-0.18703-0.12894-0.29745-0.34009-0.29115-0.56715" fill="#D76230"/>
<path d="m15.054 15.962 2.6612 0.11336c2.2583 0.095796 4.4641 0.70902 6.4478 1.7919l10.761 5.875c1.216 0.66394 2.7189 0.48859 3.7492-0.43754l10.182-9.15-11.03-2.3843c-0.71826-0.13955-1.4544-0.16242-2.1803-0.06762l-16.195 2.2421c-1.725 0.23866-3.2192 0.97221-4.3961 2.017" fill="#AA391B"/>
<path d="m42.213 71.151c1.1938-0.61654 1.7821-2.1228 1.1318-3.4413l-1.7161-3.4781c-1.2097-2.4526-3.2978-4.3605-5.8492-5.346l-3.6517-1.4101c-3.2634-1.2606-5.5428-4.2462-5.898-7.7253l-0.44004-4.3091c-0.29812-2.9223-1.1477-5.7617-2.5036-8.368l-4.3669-8.3945c-0.60054-1.1545-2.1601-1.3736-3.0558-0.42959l-0.99582 1.0501 0.074612 0.14121c0.33028 0.62549 0.57368 1.2934 0.72324 1.9849l2.7626 12.756c0.39594 1.8271 0.45828 3.7105 0.18471 5.5598l-1.801 12.17c-0.23776 1.607 0.0023212 3.2484 0.69041 4.7198l0.95271 2.0366c6.6103 2.5915 16.354 2.8089 23.758 2.4831" fill="#AA391B"/>
<path d="m54.377 27.864-1.2512 19.458c-0.1217 1.8884 0.86185 3.6661 2.505 4.5763l-0.47984-3.0012c-0.18703-1.1698-0.23942-2.3571-0.15652-3.5388l0.75341-10.729c0.080912-1.1545 0.41882-2.2762 0.98852-3.2836l0.11971-0.21214-2.4791-3.269z" fill="#AA391B"/>
<path d="m77.526 43.729c1.8517-5.1176 4.3036-11.903 5.9093-16.348 0.93182-2.5789-0.33857-5.4308-2.878-6.467-2.3458-0.95696-5.0391-0.053036-6.3314 2.1254l-8.8659 14.945c-2.0221 3.4092-0.68709 7.8181 2.887 9.5338 3.6062 1.7313 7.9185-0.02917 9.2791-3.7897" fill="#D76230"/>
</g>
<g transform="translate(64.037 45.037)">
<mask id="i" fill="white">
<use xlink:href="#e"/>
</mask>
<path d="m-8.2836 31.921-3.2975-3.5155 1.2732-19.77c0.026031-0.40524 0.5426-0.56045 0.78872-0.23653l11.317 14.901c1.3317 1.7529 3.2336 2.9875 5.379 3.4912l3.0514 0.71667-9.8929 3.9646-8.6191 0.44876z" fill="#AA391B" mask="url(#i)"/>
</g>
<path d="m48.966 42.08c-2.7952 2.4593-3.0236 6.734-0.50698 9.4774l17.494 19.066c2.3313 2.5408 6.2807 2.7138 8.8256 0.38684 2.4951-2.2816 2.7229-6.1334 0.51394-8.6927l-16.904-19.59c-2.4142-2.7977-6.6474-3.0884-9.4217-0.64771" fill="#D76230"/>
<path d="m71.486 71.481c-2.1042-0.4949-3.9696-1.7078-5.2757-3.4302l-11.1-14.639c-0.24139-0.31789-0.74804-0.16541-0.77357 0.2327l-0.25929 4.0351 11.876 12.944c1.9527 2.1281 5.038 2.5885 7.485 1.3163l-1.9523-0.4591z" fill="#AA391B"/>
<path d="m36.178 24.93c-2.4974 0-4.6404 1.8397-4.9501 4.3169-0.19563 1.5659-0.54843 3.1898-1.0667 4.6659-0.85613 2.4384-2.3744 4.0782-2.3744 4.0782s-0.86409 4.6334 8.2957 4.6334 9.1339-3.7013 9.1339-3.7013-3.088-2.7742-3.1596-7.9443c-0.012268-0.89102-0.022547-1.6544-0.030837-2.3078-0.026858-2.0721-2.4324-3.7411-5.3904-3.7411h-0.45758z" fill="#EACBAC"/>
<path d="m40.46 26.046c-0.97715-0.68915-2.3293-1.1164-3.8244-1.1164h-0.45758c-2.4971 0-4.6401 1.8397-4.9498 4.3169-0.19563 1.5659-0.54876 3.1902-1.067 4.6659-0.8558 2.4384-2.3741 4.0785-2.3741 4.0785s-0.31234 1.6929 1.4623 3.0324c1.2023-0.39247 2.4066-0.92251 3.6012-1.6183 6.3029-3.6711 7.0397-10.25 7.0397-10.25 0.14092-0.65368 0.33854-1.7459 0.56965-3.1093" fill="#E99462"/>
<path d="m38.145 6.4949c5.2976-0.066628 9.5673 4.6152 9.4827 10.398l-0.0053052 0.37822c0.047747 0.29933 0.070294 7.3111-1.6247 10.011-1.9798 3.153-3.6314 4.2555-7.1342 5.6203-1.322 0.51512-2.7869 0.53998-4.1248 0.068285-3.5638-1.257-5.463-2.1052-7.1664-5.4655-1.4251-2.8103-1.6672-9.6613-1.6194-9.9617l-0.0049737-0.37822c-0.081236-5.7807 4.1911-10.569 9.4887-10.636l2.7083-0.034142z" fill="#EACBAC"/>
<path d="m26.713 15.7c-0.22415-0.32286-0.40386-0.61589-0.55008-0.89268-0.14987 0.76008-0.2268 1.5487-0.21552 2.3575l0.0053052 0.37822c-0.048079 0.30065 0.19397 7.1517 1.6191 9.962 1.7036 3.3602 3.6029 4.2085 7.1664 5.4651 0.85116 0.30032 1.7537 0.39745 2.638 0.29734-8.6657-1.9242-9.3906-10.147-8.7085-13.875 0.12401-0.67887 0.20757-1.3558 0.26029-2.0151-0.62502-0.25723-1.5876-0.77235-2.2149-1.6773" fill="#E99462"/>
<path d="m33.475 15.201c0.1124 0.26784 0.4904 0.2496 0.58822-0.023535 1.7239-4.8131 6.8122-6.9276 7.6418-7.9705-1.0995-0.47269-2.3005-0.72826-3.5608-0.71268l-2.7083 0.034142c-4.5559 0.057346-8.3507 3.6085-9.2732 8.2784 0.14622 0.27679 0.32594 0.56982 0.54975 0.89268 0.62767 0.90494 1.5899 1.4201 2.2149 1.6773 0.0066315 0.0026518 0.014589 0.0062981 0.020889 0.00895 0.23774 0.097124 0.48178-0.11668 0.41646-0.36496-0.24072-0.9119-0.55008-2.7758 0.28217-4.5131-0.16247 2.1709 1.1287 2.9833 1.95 3.2793 0.28482 0.10243 0.57263-0.13889 0.5219-0.43722-0.16214-0.95732-0.30372-2.8007 0.81336-3.5498-0.16579 1.38 0.22547 2.6455 0.54279 3.401" fill="#E99462"/>
<path d="m26.815 21.13c0.36938 2.1825 0.020889 3.7225-1.3111 4.1077-1.5518 0.44882-2.8177-1.5785-3.1825-3.2823-0.66382-3.101 0.56534-4.9742 1.8356-4.8469 2.3936 0.23933 2.3675 2.3038 2.6579 4.0215" fill="#EACBAC"/>
<path d="m24.157 17.108c-1.2703-0.12696-2.4994 1.7462-1.8356 4.8472 0.035479 0.16574 0.081899 0.33446 0.13363 0.50385 0.041115-0.079555 0.074936-0.20419 0.097815-0.38651 0.2573-2.0399 0.84817-2.9551 1.3684-2.974 1.5498-0.055689 2.5889 3.1663 1.1383 5.6222-0.20392 0.34507-0.051063 0.52142 0.27587 0.54926 0.056036-0.0099445 0.11174-0.016243 0.16844-0.032817 1.3319-0.38485 1.6801-1.9252 1.3111-4.1077-0.29079-1.7177-0.2646-3.7819-2.6579-4.0215" fill="#E99462"/>
<path d="m46.76 21.13c-0.36938 2.1825-0.020558 3.7225 1.3111 4.1077 1.5521 0.44882 2.8177-1.5785 3.1825-3.2823 0.66382-3.101-0.56534-4.9742-1.8356-4.8469-2.3933 0.23933-2.3671 2.3038-2.6579 4.0215" fill="#EACBAC"/>
<path d="m46.765 21.098c0.42342 0.084528 0.7918-0.079224 0.90786-0.58705 0.31301-1.3693 0.64856-2.5259 1.1506-3.2876-1.7786 0.50219-1.7995 2.3214-2.0584 3.8747" fill="#E99462"/>
<path d="m32.64 20.681c0.1827-0.13591 0.30273-0.3517 0.30273-0.597v-0.89467c0-0.41203-0.33423-0.74583-0.74605-0.74583-0.41215 0-0.74605 0.3338-0.74605 0.74583v0.89467c0 0.17436 0.062336 0.33281 0.16247 0.45976 0.10544-0.022209 0.2142-0.035137 0.32594-0.035137 0.25332 0 0.48907 0.065633 0.70095 0.17237" fill="#1C417D"/>
<path d="m40.844 20.58c0.11837-0.13193 0.19265-0.30463 0.19265-0.49623v-0.895c0-0.4117-0.3339-0.74583-0.74605-0.74583s-0.74605 0.33413-0.74605 0.74583v0.895c0 0.21778 0.095162 0.41203 0.24404 0.54827 0.18767-0.079555 0.39424-0.12364 0.61143-0.12364 0.15518 0 0.3024 0.029502 0.44398 0.0716" fill="#1C417D"/>
<path d="m42.78 17.427c-0.10213 0.10375-0.26261 0.12331-0.38595 0.046407l-1.0103-0.62816c-0.2006-0.12497-0.4274-0.2022-0.66282-0.22574l-1.5919-0.15977c-0.23774-0.024198-0.36075-0.29601-0.22182-0.49026l0.20757-0.29005c0.070294-0.098118 0.19099-0.14685 0.30969-0.12497l1.6493 0.30563c0.25001 0.046739 0.4851 0.15381 0.68404 0.31259l0.9944 0.7939c0.1439 0.11502 0.15684 0.32916 0.027852 0.46043" fill="#00547A"/>
<path d="m29.559 17.427c0.10213 0.10375 0.26261 0.12331 0.38629 0.046407l1.01-0.62816c0.20094-0.12497 0.4274-0.2022 0.66282-0.22574l1.5922-0.15977c0.23774-0.024198 0.36075-0.29601 0.22149-0.49026l-0.20757-0.29005c-0.070294-0.098118-0.19066-0.14685-0.30936-0.12497l-1.6496 0.30563c-0.25001 0.046739-0.4851 0.15381-0.68404 0.31259l-0.9944 0.7939c-0.1439 0.11502-0.15684 0.32916-0.027852 0.46043" fill="#00547A"/>
<path d="m35.948 18.475c-0.067642 0.53236-0.14158 1.0637-0.2268 1.5928-0.088531 0.52838-0.16314 1.0594-0.26294 1.5858l-0.053715 0.29634c-0.0026526 0.025856-0.0066315 0.044087-0.0069631 0.066296-0.0033158 0.084528 0.015584 0.16906 0.058357 0.24264 0.039789 0.074583 0.10445 0.13425 0.17574 0.17535 0.037136 0.018563 0.075268 0.035137 0.11605 0.043424 0.020558 0.0059667 0.040784 0.0059667 0.062668 0.010276l0.10014 0.0099444c0.13363 0.01127 0.26626 0.028507 0.39922 0.04475l0.16811 0.021878c0.04211 0.0036463 0.084884-9.944e-4 0.12766-0.008287 0.085878-0.014917 0.17109-0.052374 0.24603-0.11105 0.08422-0.07392 0.19198-0.18099 0.29776-0.26154l0.0029842-0.0023203c0.066315-0.050717 0.16081-0.037789 0.21121 0.028176 0.035479 0.046739 0.039458 0.1074 0.015916 0.15679-0.062005 0.12861-0.11771 0.23336-0.20392 0.36629-0.10246 0.14254-0.25266 0.25292-0.42342 0.31458-0.085547 0.031159-0.1764 0.047733-0.26825 0.052042-0.043105 0.0023204-0.097483 3.315e-4 -0.13197-0.0019889l-0.10014-0.0086185c-0.13363-0.011602-0.26725-0.022872-0.39988-0.039778l-0.099804-0.011933c-0.043768-0.0072926-0.090852-0.012265-0.13495-0.025193-0.090189-0.021546-0.17574-0.058672-0.25631-0.10375-0.15882-0.094472-0.29278-0.23005-0.37733-0.3928-0.087536-0.16143-0.12633-0.34872-0.11373-0.53136 0.0019895-0.044418 0.011274-0.092483 0.017574-0.13292l0.019894-0.09845 0.039789-0.1969c0.10246-0.52573 0.22978-1.0468 0.34318-1.5702 0.11705-0.52308 0.2447-1.0442 0.37899-1.5636 0.019894-0.07624 0.097483-0.12198 0.17341-0.1021 0.070294 0.0179 0.11439 0.085522 0.10544 0.15546" fill="#E99462"/>
<path d="m37.072 25.347c0.49803-0.0099444 0.98412-0.15613 1.4052-0.42231l0.26924-0.17071c0.62801-0.39711 1.4019 0.23071 1.1419 0.92682l-0.23907 0.64009c-0.089526 0.23999-0.29179 0.42032-0.5408 0.48164l-1.5379 0.37988c-0.26791 0.065965-0.55108-0.015248-0.74306-0.21347l-0.29742-0.30629c-0.47183-0.48694-0.13628-1.3021 0.5418-1.3156" fill="#fff"/>
<path d="m41.496 21.583h0.48742c0.19364 0 0.35048 0.15679 0.35048 0.35038v0.091157c0 0.19358-0.15684 0.35071-0.35048 0.35071h-0.48742c-0.19331 0-0.35048-0.15712-0.35048-0.35071v-0.091157c0-0.19358 0.15717-0.35038 0.35048-0.35038" fill="#FC95A4"/>
<path d="m40.156 22.456h0.48742c0.19364 0 0.35048 0.15712 0.35048 0.35071v0.091157c0 0.19358-0.15684 0.35037-0.35048 0.35037h-0.48742c-0.19364 0-0.35048-0.15679-0.35048-0.35037v-0.091157c0-0.19358 0.15684-0.35071 0.35048-0.35071" fill="#FC95A4"/>
<path d="m38.816 21.583h0.48742c0.19364 0 0.35048 0.15679 0.35048 0.35038v0.091157c0 0.19358-0.15684 0.35071-0.35048 0.35071h-0.48742c-0.19364 0-0.35048-0.15712-0.35048-0.35071v-0.091157c0-0.19358 0.15684-0.35038 0.35048-0.35038" fill="#FC95A4"/>
<path d="m33.035 21.583h0.48742c0.19364 0 0.35048 0.15679 0.35048 0.35038v0.091157c0 0.19358-0.15684 0.35071-0.35048 0.35071h-0.48742c-0.19331 0-0.35048-0.15712-0.35048-0.35071v-0.091157c0-0.19358 0.15717-0.35038 0.35048-0.35038" fill="#FC95A4"/>
<path d="m31.695 22.456h0.48742c0.19364 0 0.35048 0.15712 0.35048 0.35071v0.091157c0 0.19358-0.15684 0.35037-0.35048 0.35037h-0.48742c-0.19364 0-0.35048-0.15679-0.35048-0.35037v-0.091157c0-0.19358 0.15684-0.35071 0.35048-0.35071" fill="#FC95A4"/>
<path d="m30.355 21.583h0.48742c0.19364 0 0.35048 0.15679 0.35048 0.35038v0.091157c0 0.19358-0.15684 0.35071-0.35048 0.35071h-0.48742c-0.19364 0-0.35048-0.15712-0.35048-0.35071v-0.091157c0-0.19358 0.15684-0.35038 0.35048-0.35038" fill="#FC95A4"/>
<g transform="translate(22.558)">
<mask id="h" fill="white">
<use xlink:href="#d"/>
</mask>
<path d="m27.503 8.274c-0.38993-0.74649-1.2103-1.6796-2.0438-2.3356 0.049073-0.049722 0.10213-0.097455 0.16181-0.14121 0.13661-0.0895 0.29676-0.16839 0.47648-0.21745 0.088862-0.02917 0.18369-0.039446 0.27919-0.060992l0.29577-0.027181 0.021552-0.0016574c0.064657-0.0062981 0.12268-0.050054 0.14324-0.11635 0.027852-0.087511-0.021221-0.18099-0.10876-0.2085l-0.32063-0.1011c-0.11108-0.020883-0.22348-0.052374-0.34086-0.063644-0.23409-0.030828-0.48211-0.024198-0.73676 0.020883-0.057363 0.012265-0.11473 0.027181-0.17209 0.044087 0.020889-0.095135 0.043105-0.1906 0.056368-0.28507 0.0378-0.27347 0.037468-0.54263 0.021221-0.80351-0.0189-0.26154-0.063663-0.51479-0.11771-0.76108-0.014921-0.067291-0.070626-0.12132-0.14291-0.1306-0.091847-0.01127-0.1754 0.0537-0.18701 0.14552l-6.631e-4 0.0069611c-0.029842 0.23701-0.068636 0.46805-0.12998 0.68915-0.060015 0.2095-0.13263 0.40971-0.22614 0.59269-1.5839-2.5033-4.5811-4.5194-10.13-4.5194-6.7008 0-9.7341 2.7586-11.055 5.7519-0.91416 0.65467-1.8628 1.7018-2.2912 2.5222-1.2633 2.4191-1.07 4.5675-0.57926 6.0147 0.43602 1.2855 0.96489 2.8133 0.96489 2.8133s0.39922-0.020883 0.91813 0.13624c1.4947 0.45313 1.764 2.8468 1.8124 3.693 0.0092841 0.16408 0.14954 0.28773 0.31334 0.27712l0.24769-0.015911c0.15385-0.010276 0.27421-0.1369 0.27587-0.29137l0.057694-5.2828s2.1012-2.3631 2.6188-6.8948c1.6847-0.86881 3.8019-1.5178 6.3775-1.5178 2.823 0 5.1507 0.89135 6.9764 2.029 0.60977 4.1982 2.5531 6.3837 2.5531 6.3837l0.057694 5.2828c0.0016579 0.15447 0.12202 0.2811 0.2762 0.29137l0.24736 0.015911c0.1638 0.010607 0.30439-0.11303 0.31367-0.27712 0.04841-0.84627 0.31765-3.2399 1.8121-3.693 0.51892-0.15712 0.91813-0.13624 0.91813-0.13624s0.5292-1.5278 0.96522-2.8133c0.49073-1.4472 0.68371-3.5956-0.57926-6.0147" fill="#0297B8" mask="url(#h)"/>
</g>
<path d="m29.363 1.7254c-1.7892 1.0667-2.8923 2.5163-3.5585 4.0262-0.91416 0.65501-1.8628 1.7022-2.2912 2.5226-1.2633 2.4191-1.07 4.5675-0.57926 6.0147 0.43602 1.2855 0.96489 2.8133 0.96489 2.8133s0.39955-0.020883 0.91847 0.13624c1.4944 0.45313 1.7637 2.8468 1.8121 3.693 0.0092841 0.16408 0.14987 0.28773 0.31367 0.27712l0.24736-0.015911c0.15418-0.010276 0.27421-0.13723 0.2762-0.29137l0.057694-5.2828s0.45094-0.5128 0.98578-1.5056c-0.24968-2.5242-0.66713-5.1124-1.0773-7.1113-0.57794-2.8166 0.45094-3.9983 1.9301-5.2762" fill="#00547A"/>
<path d="m48.177 14.955s-6.9429-3.6022-7.2897-6.4997c-0.033489-0.036131-2.0478 5.5414-6.7771 7.458-0.16711 0.067622-0.35678-0.02453-0.41082-0.19657-0.26228-0.83898-0.92244-3.1885-0.70792-4.9722-1.1559 0.77533-0.85215 3.272-0.62801 4.472 0.049736 0.26585-0.24039 0.46871-0.46852 0.32286-0.87271-0.55689-2.3568-1.8447-2.1891-4.0868-0.83126 1.735-0.52356 3.5966-0.28317 4.5098 0.065652 0.2496-0.17971 0.4644-0.41845 0.36695-0.62436-0.25491-1.5995-0.77202-2.2328-1.6849-0.81932-1.1821-1.0949-1.9819-0.99208-2.9396 0.28947-2.6999 1.4175-4.4955 2.9444-5.493 5.6245-3.6758 10.734-2.3061 12.69-1.6972 2.5027 0.77931 3.9332 2.2249 4.4444 2.6671 2.894 2.5014 2.3184 7.7732 2.3184 7.7732" fill="#0297B8"/>
<path d="m29.785 9.0958c2.1722-3.0364 2.6354-4.2625 2.2564-4.5373-1.071 0.37855-2.1838 0.91157-3.3181 1.6528-1.5269 0.99776-2.6546 2.7937-2.9444 5.4933-0.10279 0.95765 0.17275 1.7575 0.99241 2.9396 0.63298 0.9129 1.6081 1.43 2.2325 1.6849 0.20823 0.08519 0.42143-0.06729 0.42906-0.27314-0.54047-1.1957-1.4228-3.9937 0.35213-6.9601" fill="#00547A"/>
<path d="m32.363 15.216c-0.0036474-0.020552-0.0076263-0.044087-0.011605-0.065302-1.8585-2.2279-1.4914-6.6522-1.4914-6.6522-0.74605 1.0428-1.076 2.08-1.1811 3.0145 0.0096157-0.02022 0.01691-0.040441 0.026526-0.060661-0.16778 2.2421 1.3164 3.5296 2.1891 4.0868 0.22812 0.14585 0.51825-0.057015 0.46852-0.32319" fill="#00547A"/>
<path d="m35.519 6.7901s-1.9619 0.84296-2.6234 4.0331c0.032163-0.026187 0.06101-0.055689 0.095826-0.078892-0.21453 1.7837 0.44564 4.1329 0.70825 4.9722 0.053715 0.17204 0.24338 0.26419 0.41049 0.19657 0.0016579-6.629e-4 0.0029842-0.0013259 0.004642-0.0019889 0.11572-0.75776 0.013926-3.0423 0.85281-4.5741 1.9023-3.4723 1.0203-4.1061 0.55141-4.5469" fill="#00547A"/>
<path d="m47.785 15.59c0.26791-3.2071-0.78418-6.388-2.8831-8.5234-1.0405-1.071-2.3253-1.8676-3.7292-2.3648-1.4059-0.49589-2.9149-0.72627-4.4478-0.74318-1.5319-0.014585-3.0508 0.18662-4.4504 0.67987-1.4029 0.48429-2.6745 1.2881-3.6948 2.3707-2.0515 2.1682-3.0415 5.3806-2.7809 8.5807v0.0036462c0.0099473 0.11834-0.078252 0.22209-0.19662 0.23137-0.10179 0.008287-0.19298-0.05602-0.22249-0.15016-1-3.2067-0.39424-7.0191 1.8588-9.8277 1.1161-1.4025 2.6486-2.4811 4.3151-3.1288 0.83358-0.32717 1.6987-0.55026 2.5684-0.70208 0.87238-0.14121 1.7467-0.19458 2.6175-0.19296 1.7398 0.02523 3.5081 0.31262 5.1653 0.97194 1.6549 0.65501 3.1742 1.7194 4.3115 3.0944 1.1459 1.3693 1.893 3.0238 2.2338 4.7206 0.32461 1.7008 0.26195 3.46-0.24603 5.065-0.036142 0.11337-0.15684 0.17602-0.2699 0.14022-0.097483-0.031159-0.1575-0.12497-0.14921-0.22276v-0.0026518z" fill="#1C417D"/>
<path d="m26.462 25.916 0.022216-0.0056352c0.33754-0.082207 0.566-0.39413 0.53881-0.74053-0.051394-0.65832-0.16844-2.0171-0.4337-4.7886-0.19032-1.9912-0.24205-3.2024-0.23641-3.939 0.0049736-0.59733-0.51958-1.0617-1.1131-0.99245-2.4122 0.28143-4.1397 2.4649-3.8579 4.8767l0.20226 1.7323c0.28151 2.4119 2.4656 4.1385 4.8778 3.8571" fill="#1C417D"/>
<path d="m47.12 25.916-0.022216-0.0056352c-0.33754-0.082207-0.566-0.39413-0.53881-0.74053 0.051394-0.65832 0.16844-2.0171 0.4337-4.7886 0.19032-1.9912 0.24238-3.2024 0.23641-3.939-0.0049737-0.59733 0.51958-1.0617 1.1131-0.99245 2.4122 0.28143 4.1397 2.4649 3.8582 4.8767l-0.20259 1.7323c-0.28151 2.4119-2.4653 4.1385-4.8778 3.8571" fill="#1C417D"/>
<path d="m25.411 25.644c-0.46951-0.90693-0.80739-2.5395-1.0037-4.8519-0.2006-2.3625-0.15584-4.0467 0.13396-5.0057 0.022879-0.07624 0.057694-0.14883 0.098147-0.21944-0.14026 0.036463-0.27786 0.079224-0.41182 0.12895-0.30074 0.99941-0.34981 2.7231-0.14589 5.1237 0.20027 2.3555 0.54975 4.0291 1.0392 4.9745 0.013926 0.027513 0.035479 0.054363 0.052389 0.081544 0.1512 0.02685 0.30505 0.045081 0.46023 0.056352-0.092178-0.093146-0.17176-0.18994-0.22249-0.28806" fill="#0068C9"/>
<path d="m21.922 20.953c-0.11771-1.2368-0.087536-2.3452-0.10113-3.1083-0.37335 0.74152-0.54312 1.5961-0.43934 2.4821l0.20193 1.7326c0.093504 0.79887 0.39889 1.5198 0.84884 2.1205-0.12832-0.77931-0.38695-1.9349-0.5103-3.227" fill="#0068C9"/>
<path d="m49.041 15.787c0.2898 0.95964 0.33489 2.6439 0.13396 5.006-0.19629 2.3124-0.53417 3.9446-1.0037 4.8516-0.051063 0.09845-0.13064 0.19524-0.22315 0.28806 0.15551-0.010939 0.30936-0.02917 0.46089-0.056352 0.01691-0.027181 0.038131-0.054031 0.052389-0.081544 0.48941-0.94538 0.83889-2.6187 1.0392-4.9742 0.20392-2.4006 0.15485-4.1243-0.14589-5.124-0.13396-0.049391-0.27156-0.092152-0.41182-0.12895 0.040452 0.070605 0.075268 0.1432 0.098147 0.21944" fill="#0068C9"/>
<path d="m51.66 20.953c-0.12335 1.2921-0.38198 2.4477-0.5103 3.227 0.44995-0.60064 0.75533-1.3216 0.84884-2.1205l0.20226-1.7326c0.10345-0.88605-0.066315-1.7406-0.43967-2.4821-0.013595 0.76307 0.016579 1.8715-0.10113 3.1083" fill="#0068C9"/>
<path d="m3.3513 74.125c3.9657 2.2524 8.9788 5.1012 12.247 6.9584 1.88 1.0687 4.2694 0.41137 5.3397-1.4671l1.1244-1.9736c0.9062-1.5901 0.59021-3.5952-0.76097-4.83l-10.21-9.3295c-3.0154-2.7556-7.7824-2.1513-10.015 1.2692l-3.3158e-4 9.945e-4c-2.0853 3.1955-1.0441 7.4868 2.2743 9.3716" fill="#D76230"/>
<path d="m18.901 81.547c0.36838 0.19723 0.73941 0.39546 1.0972 0.58672 1.4344 0.76705 3.2186 0.25325 4.0257-1.1592l0.87536-1.5324c0.7424-1.2987 0.4158-2.9455-0.76627-3.8627l-0.91051-0.70705c-1.6111-1.2507-3.9487-0.84329-5.0413 0.87876-0.189 0.298-0.38032 0.59998-0.56898 0.89732-1.0766 1.6968-0.48344 3.9506 1.2888 4.8986" fill="#AA391B"/>
<path d="m21.675 81.748c0.22547 0.28507 0.46752 1.3173 1.6629 2.8126 0.40883 0.51147 0.96091 0.89102 1.5786 1.1091l1.005 0.35502 1.1244 0.4107 0.59021 0.077898c0.36109 0.048065 0.72085-0.095135 0.95063-0.37722l2.1486-2.6379c0.12069-0.14817 0.21287-0.31789 0.27156-0.5002l0.26327-0.81809c0.14158-0.43987 0.0126-0.92185-0.32992-1.2321l-0.53019-0.48065c-0.16247-0.14751-0.28681-0.33181-0.36274-0.53766l-0.27819-0.75511c-0.12036-0.32585-0.36274-0.59169-0.67608-0.74152l-0.57893-0.27679c-0.13528-0.064639-0.28217-0.10143-0.43171-0.1074l-2.5147-0.10508c-0.25664-0.010607-0.50599-0.090163-0.72151-0.22972l-0.6227-0.40374c-1.2225-0.79224-2.8598-0.39943-3.5893 0.86152-0.65188 1.1267-0.34816 2.5637 0.7036 3.3304l0.33721 0.24596z" fill="#EACBAC"/>
<g transform="translate(21.111 76.704)">
<mask id="g" fill="white">
<use xlink:href="#c"/>
</mask>
<path d="m9.9249 3.2047-1.6937-0.88556c-0.021568-0.01103-0.045674-0.016703-0.070414-0.016072l-0.7885 0.018594c-0.14527 0.0034666-0.19411 0.19413-0.06851 0.2663l1.3635 0.78061 0.69557 0.34571c0.21917 0.10873 0.4044 0.27544 0.53508 0.48186l0.11894 0.18814c0.17413 0.27544 0.24581 0.60256 0.20204 0.92495l-0.17032 1.2552 1.2576-1.7415-1.3813-1.6183z" fill="#E99462" mask="url(#g)"/>
<mask id="l" fill="white">
<use xlink:href="#b"/>
</mask>
<path d="m-0.022975 1.5796 1.3103 0.81181c0.67369 0.41757 1.2065 1.0261 1.5288 1.7475l0.24898 0.55655c0.041867 0.093283 0.090396 0.18341 0.14495 0.27008l0.83005 1.3138c0.37934 0.60067 0.87858 1.1175 1.4666 1.5193l1.0717 0.73208c0.29371 0.20075 0.65243 0.28615 1.0058 0.2392l0.58519-0.077526-0.90776 1.2524-5.6461-1.6781-1.1092-2.8552-1.7648-1.9785 1.2354-1.8534z" fill="#E99462" mask="url(#l)"/>
</g>
<g transform="translate(19.704 27.444)">
<path d="m16.888 20.717-8.3195-10.731s3.2104 2.2943 8.139 2.2943c4.9286 0 8.4999-2.2943 8.4999-2.2943l-8.3195 10.731z" fill="#3CA1FF"/>
<path d="m29.625 0.93585-1.2575-0.54418 0.31679 0.93215c0.28395 0.83642 0.11942 1.7619-0.43422 2.4458l-10.772 13.303c-0.24613 0.304-0.70523 0.30568-0.95302 0.0030232l-10.927-13.334c-0.54733-0.66813-0.72148-1.5724-0.46208-2.3998l0.42062-1.3416-1.7153 0.75076c-0.99515 0.43568-1.7598 1.2802-2.1024 2.3215l-0.74636 2.2708c-0.56326 1.7125-0.29722 3.5932 0.71784 5.077l0.41597 0.608c0.51383 0.7511 1.158 1.4011 1.9014 1.9191l10.908 7.596c1.2509 0.87102 2.8979 0.89017 4.168 0.047699l10.318-6.8428c0.63192-0.41888 1.1972-0.93316 1.6765-1.5244l0.69063-0.85254c1.308-1.6137 1.6463-3.82 0.88336-5.7595l-1.0058-2.5566c-0.37517-0.95298-1.1093-1.7155-2.0411-2.1189" fill="#D76230"/>
<path d="m4.1715 10.306c1.0449 1.1851 2.4477 1.5919 2.8524 1.2194 0.54037-0.49748-3.3294-3.1784-5.5161-7.7505l-0.51549 1.5677c-0.0013269 0.003695-0.002322 0.007726-0.0033172 0.011421 0.685 2.1488 1.2071 3.124-0.2677 2.2593 0.078617 0.9943 0.41299 1.9644 0.98885 2.8062l0.41597 0.60834c0.51383 0.75076 1.158 1.4011 1.9014 1.9187l3.6466 2.5395c-0.11743-0.52066-0.56889-1.2372-1.4745-1.9066-0.4727-0.34968-1.4649-0.84045-2.5987-2.6315-0.47402-0.74942-0.8147-2.213 0.57055-0.64193" fill="#AA391B"/>
<path d="m32.672 5.6115-0.36655-0.93249c-1.5126 3.4448-5.0613 5.8895-6.298 6.6604-0.18974 0.11858-0.13998 0.36413 0.083593 0.40511 3.567 0.651 6.7876-5.9023 6.0402-2.6658-0.29357 1.2711-1.6377 2.3349-2.5111 2.908-0.23253 0.1525-0.070656 0.45314 0.21329 0.39772 0.46175-0.090696 1.0535-0.28821 1.6984-0.69668l0.25675-0.31676c1.308-1.6137 1.6463-3.82 0.88336-5.7595" fill="#AA391B"/>
<path d="m14.073 17.267c0-0.56567-0.45313-1.0242-1.0117-1.0242-0.55861 0-1.0114 0.45852-1.0114 1.0242 0 0.35271 0.17614 0.66376 0.44417 0.84784 0.14197 2.5291 0.13534 4.4246-0.018244 6.5808-0.027864 0.39537-0.061036 0.80283-0.094539 1.219-0.1788 2.214-0.38147 4.7239 0.028859 6.9117 0.026869 0.14276 0.14032 0.24219 0.274 0.26403l0.27267 0.94492c0.02123 0.073565 0.087242 0.12093 0.15922 0.12093 0.015259 0 0.03085-0.0020155 0.04644-0.0067183 0.087905-0.025865 0.13833-0.11925 0.11278-0.20826l-0.28063-0.9728c0.056724-0.0739 0.085915-0.16863 0.067338-0.26739-0.39375-2.0984-0.19505-4.56-0.019571-6.7317 0.033835-0.41821 0.067007-0.82802 0.095203-1.2257 0.15159-2.1287 0.16188-4.0047 0.029854-6.4633 0.50819-0.054418 0.90559-0.48438 0.90559-1.0134" fill="#AA391B"/>
<path d="m13.273 16.273c-0.51184 0-0.92682 0.42023-0.92682 0.93854 0 0.01478 0.0036488 0.028552 0.0043123 0.042997 0.022557-0.45012 0.38711-0.80921 0.83758-0.80921 0.46474 0 0.84157 0.3816 0.84157 0.85254 0 0.45583-0.35461 0.825-0.79911 0.84818 0.014264 6.718e-4 0.027864 0.0040309 0.04246 0.0040309 0.51184 0 0.92682-0.42022 0.92682-0.93854s-0.41498-0.93854-0.92682-0.93854" fill="#3CA1FF"/>
<path d="m13.273 17.891c-0.28461 0-0.51549-0.23379-0.51549-0.52201 0-0.28855 0.23087-0.52201 0.51549-0.52201s0.51549 0.23346 0.51549 0.52201c0 0.28821-0.23087 0.52201-0.51549 0.52201m0.75665-0.59356c0-0.47061-0.37683-0.85254-0.84157-0.85254-0.45047 0-0.81503 0.35909-0.83758 0.80921-6.635e-4 0.01478-0.0043123 0.028552-0.0043123 0.043333 0 0.47061 0.37683 0.85254 0.8419 0.85254 0.014596 0 0.028196-0.0036951 0.04246-0.0043669 0.4445-0.023178 0.79911-0.39234 0.79911-0.84818" fill="#0068C9"/>
<path d="m14.154 33.929-0.30584-0.96507c0.055065-0.074908 0.081602-0.17064 0.060372-0.26906-0.44848-2.087-0.31414-4.5529-0.19571-6.7286 0.022888-0.41922 0.045445-0.8297 0.063026-1.2278 0.10714-2.3796 0.047104-4.4374-0.21329-7.3387-0.016586-0.18475-0.17647-0.31811-0.36024-0.30434-0.18244 0.016796-0.31712 0.18038-0.30054 0.36514 0.25741 2.8687 0.31679 4.9006 0.2113 7.2473-0.017581 0.39638-0.039806 0.80451-0.062694 1.2214-0.12074 2.2184-0.25774 4.7323 0.20998 6.9084 0.030186 0.14209 0.14662 0.2385 0.28063 0.25697l0.29722 0.93719c0.022557 0.071213 0.087905 0.11656 0.1579 0.11656 0.016586 0 0.033835-0.0026873 0.050753-0.0080619 0.08691-0.028552 0.13501-0.12294 0.10714-0.21129" fill="#1C417D"/>
<path d="m21.538 17.267c0-0.56567-0.45313-1.0242-1.0117-1.0242-0.55861 0-1.0114 0.45852-1.0114 1.0242 0 0.31374 0.14231 0.59087 0.36157 0.77898 0.15922 0.96104 0.048762 1.8791-0.079944 2.916-0.13236 1.0685-0.28262 2.2792-0.16685 3.7871 0.031513 0.41116 0.069329 0.83541 0.10781 1.2687 0.1924 2.1525 0.41033 4.5922-0.079944 6.6453-0.033835 0.14142 0.028528 0.28116 0.14197 0.35674l-0.13634 0.9728c-0.012605 0.091704 0.050421 0.17669 0.14098 0.18979 0.0079612 0.0013437 0.015591 0.0016796 0.023552 0.0016796 0.081271 0 0.15226-0.060464 0.16387-0.14411l0.14065-1.0047c0.081602-0.043332 0.14695-0.11656 0.17017-0.21431 0.51615-2.1609 0.29291-4.6591 0.095866-6.8637-0.038148-0.4303-0.075963-0.85187-0.10714-1.26-0.11046-1.4401 0.035162-2.6151 0.16354-3.6514 0.12041-0.97078 0.22822-1.8425 0.12804-2.7602 0.53207-0.030232 0.95534-0.47263 0.95534-1.0188" fill="#AA391B"/>
<path d="m20.737 16.273c-0.51184 0-0.92682 0.42023-0.92682 0.93854 0 0.01478 0.0036489 0.028552 0.0043123 0.042997 0.022557-0.45012 0.38711-0.80921 0.83758-0.80921 0.46474 0 0.84157 0.3816 0.84157 0.85254 0 0.45583-0.35461 0.825-0.79911 0.84818 0.014264 6.718e-4 0.027864 0.0040309 0.04246 0.0040309 0.51184 0 0.92682-0.42022 0.92682-0.93854s-0.41498-0.93854-0.92682-0.93854" fill="#3CA1FF"/>
<path d="m20.737 17.891c-0.28461 0-0.51549-0.23379-0.51549-0.52201 0-0.28855 0.23087-0.52201 0.51549-0.52201s0.51549 0.23346 0.51549 0.52201c0 0.28821-0.23087 0.52201-0.51549 0.52201m0.75665-0.59356c0-0.47061-0.37683-0.85254-0.84157-0.85254-0.45047 0-0.81503 0.35909-0.83758 0.80921-6.634e-4 0.01478-0.0043123 0.028552-0.0043123 0.043333 0 0.47061 0.37683 0.85254 0.8419 0.85254 0.014596 0 0.028196-0.0036951 0.04246-0.0043669 0.4445-0.023178 0.79911-0.39234 0.79911-0.84818" fill="#0068C9"/>
<path d="m21.403 25.936c-0.05805-0.42795-0.11511-0.84717-0.16519-1.2536-0.17647-1.4333-0.08492-2.6137-0.0043123-3.6551 0.10084-1.3033 0.18808-2.4286-0.22192-3.7007-0.056724-0.17635-0.24348-0.2731-0.41796-0.21532-0.17448 0.057777-0.26935 0.24723-0.21263 0.42358 0.36887 1.1448 0.2866 2.2083 0.19107 3.4397-0.082929 1.0736-0.17747 2.2899 0.0076295 3.7908 0.050089 0.40914 0.10748 0.83138 0.16619 1.262 0.29092 2.1414 0.62097 4.5684 0.2259 6.642-0.027201 0.14343 0.041133 0.27981 0.15823 0.35002l-0.091554 0.97817c-0.0086246 0.09204 0.058382 0.174 0.1496 0.18274 0.0053074 6.718e-4 0.010615 6.718e-4 0.015591 6.718e-4 0.084588 0 0.1569-0.064831 0.16486-0.15217l0.094539-1.0104c0.07928-0.047028 0.14131-0.12294 0.16022-0.2217 0.41564-2.1828 0.077953-4.6682-0.22026-6.8607" fill="#1C417D"/>
<path d="m32.683 59.923c-4.2762-4.8045-4.5521-14.14-4.5521-14.14h-23.579s-0.27599 9.335-4.5521 14.14c0 0 2.2059 2.0034 16.444 2.0034 14.238 0 16.24-2.0034 16.24-2.0034" fill="#D76230"/>
</g>
<g transform="translate(19.704 73.889)">
<mask id="k" fill="white">
<use xlink:href="#f"/>
</mask>
<path d="m-3.9776-19.783-8.4531 8.5555 5.0957 29.565s11.386 4.7186 28.971 3.8517c1.8755-0.092458 3.0362-2.0048 2.2058-3.621l-1.7372-3.3807c-1.2246-2.3833-3.3384-4.2379-5.9211-5.1954l-3.6965-1.3708c-3.3034-1.2248-5.6109-4.1265-5.9704-7.5081l-0.44545-4.188c-0.30178-2.8401-1.1618-5.5997-2.5344-8.1325l-4.4206-8.1589c-0.60792-1.1221-2.1866-1.335-3.0933-0.41719" fill="#AA391B" mask="url(#k)"/>
</g>
<g transform="translate(19.704 72.481)" fill="#D9642E">
<path d="m4.9156 0.16457c0.16613 1.2664 0.13423 2.5289 0.017278 3.7881-0.11629 1.2592-0.34788 2.5104-0.69244 3.7376-0.35652 1.2232-0.81903 2.4278-1.456 3.5502-0.64625 1.1148-1.4583 2.1582-2.4767 2.9512-0.082734 0.064429-0.20235 0.049891-0.26714-0.03238-0.049175-0.062116-0.05283-0.14538-0.015616-0.21014l0.0039872-0.0072689c0.62067-1.0818 1.1403-2.1509 1.6052-3.2558 0.43593-1.1178 0.81969-2.252 1.1689-3.4065 0.34223-1.1574 0.62931-2.3356 0.91871-3.5225l0.81903-3.6037 0.0013291-0.0059473c0.022926-0.10177 0.1246-0.16553 0.22727-0.14274 0.079411 0.017842 0.13623 0.083923 0.1462 0.15992"/>
<path d="m28.534 0.15327 0.81903 3.6037c0.2894 1.1871 0.57648 2.365 0.91838 3.5225 0.34921 1.1544 0.73331 2.2887 1.1696 3.4065 0.46417 1.1049 0.98416 2.1741 1.6045 3.2558l0.0039872 0.0072689c0.052165 0.090862 0.020268 0.20617-0.071104 0.25805-0.069111 0.039318-0.15251 0.030397-0.21132-0.015529-1.0184-0.79298-1.8308-1.8364-2.4767-2.9512-0.63728-1.1224-1.0995-2.3271-1.456-3.5502-0.34456-1.2271-0.57615-2.4784-0.69277-3.7376-0.11662-1.2592-0.14852-2.5217 0.01761-3.7881 0.01329-0.10342 0.10865-0.17644 0.21265-0.16289 0.081072 0.010573 0.14354 0.070377 0.16082 0.14505l0.001329 0.0066081z"/>
</g>
</g>
</g>
</g>
</g>
</svg>
