<?xml version="1.0" encoding="UTF-8"?>
<svg version="1.1" viewBox="0 0 106 106" xmlns="http://www.w3.org/2000/svg">
<title>4. Elements_Microillustrations/Choose_template</title>
<g fill-rule="evenodd">
<path id="a" d="m83.979 53c6.5924-3.9169 11.021-11.159 11.021-19.452 0-12.453-9.9805-22.548-22.292-22.548-8.5477 0-15.968 4.8683-19.708 12.01-3.7408-7.1421-11.161-12.01-19.708-12.01-12.311 0-22.292 10.095-22.292 22.548 0 8.2927 4.4289 15.535 11.021 19.452-6.5924 3.9169-11.021 11.159-11.021 19.452 0 12.453 9.9805 22.548 22.292 22.548 8.5477 0 15.968-4.8683 19.708-12.01 3.7408 7.1421 11.161 12.01 19.708 12.01 12.311 0 22.292-10.095 22.292-22.548 0-8.2927-4.4289-15.535-11.021-19.452" fill="#009BBD"/>
<g transform="translate(33 33)" fill="#F6F6F6">
<path d="m35.892 9.1087c-0.47787-0.47826-1.2447-0.47826-1.723 0l-18.534 20.064-9.8031-9.6417c-0.47843-0.47826-1.2452-0.47826-1.7232 0-0.47832 0.47792-0.47832 1.2446 0 1.723l9.8036 9.6412 1.7138 1.7228 1.7318-1.7228 18.534-20.064c0.47787-0.47837 0.47787-1.245 0-1.723z"/>
</g>
</g>
</svg>
