<?xml version="1.0" encoding="UTF-8"?>
<svg version="1.1" viewBox="0 0 106 106" xmlns="http://www.w3.org/2000/svg">
<title>4. Elements_Microillustrations/Dangerous</title>
<g fill="none" fill-rule="evenodd">
<g transform="translate(11 17)">
<path d="m47.201 3.046 35.629 61.963c1.6518 2.8727 0.66206 6.5405-2.2106 8.1923-0.90993 0.52321-1.9412 0.79856-2.9908 0.79856h-71.258c-3.3137 0-6-2.6863-6-6 0-1.0496 0.27535-2.0809 0.79856-2.9908l35.629-61.963c1.6518-2.8727 5.3196-3.8624 8.1923-2.2106 0.91927 0.52858 1.682 1.2913 2.2106 2.2106z" fill="#F54B00"/>
<path d="m43.735 6.028 34.371 59.978c0.5492 0.95836 0.21751 2.1805-0.74085 2.7297-0.30271 0.17347-0.64553 0.26474-0.99442 0.26474h-68.742c-1.1046 0-2-0.89543-2-2 0-0.34889 0.091267-0.69171 0.26474-0.99442l34.371-59.978c0.5492-0.95836 1.7713-1.29 2.7297-0.74085 0.30839 0.17673 0.56412 0.43245 0.74085 0.74085z" fill="#fff"/>
<path d="m42.866 12.504 29.382 50.997c0.27572 0.47854 0.1113 1.09-0.36724 1.3657-0.15184 0.087482-0.32399 0.13353-0.49923 0.13353h-58.765c-0.55228 0-1-0.44772-1-1 0-0.17523 0.046047-0.34739 0.13353-0.49923l29.382-50.997c0.27572-0.47854 0.88716-0.64296 1.3657-0.36724 0.15262 0.087935 0.27931 0.21462 0.36724 0.36724z" fill="#FFEACF"/>
</g>
<path d="m48.459 66.565h12.398c1.4058 0 2.5526-1.147 2.5526-2.5526v-5.2718c0-0.0093062 0-0.018555-0.0045086-0.027803 0-0.0090173-0.0047399-0.023006-0.0047399-0.032254 0-0.0093063-0.0045086-0.018555-0.0045086-0.027803-0.0047398-0.0092484-0.0047398-0.018497-0.0092484-0.032312-0.0047399-0.0092484-0.0047399-0.018497-0.0092485-0.027745-0.0047398-0.0092485-0.0047398-0.018497-0.0092484-0.027745-0.0047399-0.0093063-0.0093063-0.018555-0.014046-0.032312-0.0045087-0.0092485-0.0092485-0.018497-0.013757-0.023237l-0.013757-0.027803c-0.0047398-0.0090173-0.0092484-0.013757-0.013988-0.023006-0.0045086-0.0092484-0.013815-0.018555-0.018555-0.027803-0.0045086-0.0092485-0.0092484-0.013757-0.018497-0.023006-0.0045086-0.0092484-0.013757-0.013988-0.018497-0.023294-0.0045086-0.0092485-0.013815-0.013757-0.018555-0.023006-0.0045087-0.0092485-0.013757-0.013757-0.018497-0.018497l-0.023006-0.023063c-0.0092484-0.0047398-0.013815-0.013988-0.023063-0.018497-0.0092485-0.0047398-0.018497-0.013988-0.027745-0.018497-0.0092484-0.0047398-0.013988-0.0093063-0.023294-0.014046-0.0092485-0.0045086-0.018497-0.0092485-0.027514-0.018497l-0.055548-0.027514-0.027803-0.014046c-0.0092484-0.0045086-0.018497-0.0045086-0.027745-0.0092484-0.0092484-0.0045086-0.023006-0.0092485-0.032312-0.0092485-0.0092484 0-0.018497-0.0045086-0.023237-0.0045086-0.013757-0.0047398-0.023006-0.0047398-0.037052-0.0047398-0.0045086 0-0.0092485-0.0045087-0.018497-0.0045087l-15.713-2.1688v-2.192c0-0.023006 0-0.046242-0.0045086-0.064797 0-0.0045086 0-0.0092484-0.0047399-0.018266 0-0.013988-0.0045086-0.027803-0.0045086-0.041791-0.0045086-0.013757-0.0045086-0.023006-0.0092485-0.036994 0-0.0093063-0.0045086-0.013815-0.0045086-0.023063l-0.013988-0.04156c0-0.0047399-0.0045664-0.013988-0.0045664-0.018497-0.0047398-0.013988-0.0092484-0.023237-0.018497-0.037052-0.0047398-0.0047398-0.0047398-0.013988-0.0092485-0.018497-0.0047398-0.0092484-0.0092484-0.018497-0.018497-0.027745-0.0047398-0.0092485-0.0093062-0.013815-0.014046-0.023063-0.0045086-0.0092484-0.0092484-0.013988-0.013757-0.023237-0.0047399-0.0092485-0.013757-0.018497-0.018497-0.027803l-0.04156-0.041502-0.013988-0.013815c-0.0092484-0.0092485-0.018497-0.018497-0.032312-0.027745-0.0047398-0.0047398-0.013988-0.0092484-0.018497-0.013988-0.0092485-0.0092484-0.018497-0.013815-0.027745-0.023063-0.013815-0.0092485-0.027803-0.018497-0.037052-0.023006-0.0045086-0.0047398-0.0092484-0.0047398-0.013757-0.0092484-0.018555-0.0092485-0.04156-0.018555-0.060057-0.027803l-3.4081-1.4336c-0.31907-0.1341-0.68439 0.013815-0.81855 0.33283-0.1341 0.3193 0.013815 0.68439 0.33283 0.81849l3.0243 1.2764v13.679c0 1.2947 0.97109 2.3674 2.2243 2.5293-0.22647 0.3793-0.36057 0.82323-0.36057 1.2949 0 1.3918 1.1328 2.5201 2.52 2.5201 1.3873 0 2.5203-1.1328 2.5203-2.5201 0-0.46242-0.12485-0.90178-0.34682-1.2717h5.6139c-0.22196 0.37462-0.34682 0.80924-0.34682 1.2717 0 1.3918 1.1328 2.5201 2.5201 2.5201s2.5203-1.1328 2.5203-2.5201-1.133-2.5203-2.5203-2.5203h-11.792c-0.72144 0-1.304-0.58728-1.304-1.304v-1.6925c0.37913 0.22196 0.82774 0.35156 1.304 0.35156z" fill="#000"/>
</g>
</svg>
