<?xml version="1.0" encoding="UTF-8"?>
<svg version="1.1" viewBox="0 0 106 106" xmlns="http://www.w3.org/2000/svg">
<title>4. Elements_Microillustrations/Efficiency</title>
<g fill-rule="evenodd">
<path d="m31.499 21c8.3115 0 15.871 3.27 21.5 8.6126-6.1537 5.8411-9.9997 14.158-9.9997 23.387s3.846 17.546 9.9988 23.387c-5.6283 5.3434-13.188 8.6134-21.499 8.6134-17.397 0-31.499-14.327-31.499-32s14.102-32 31.499-32zm43 0c17.397 0 31.501 14.327 31.501 32s-14.103 32-31.501 32c-8.3119 0-15.872-3.2703-21.501-8.6134 6.1546-5.8396 10.001-14.157 10.001-23.387l-0.0042202-0.52918c-0.14394-9.0183-3.9603-17.13-9.9961-22.858 5.628-5.3423 13.188-8.6126 21.5-8.6126z" fill="#009BBD"/>
<path d="m63 53.5c0 9.4555-3.8517 17.968-9.9999 23.907-6.1488-5.9389-10-14.451-10-23.907s3.8513-17.968 9.9992-23.907c6.1492 5.9389 10.001 14.451 10.001 23.907z" fill="#ACEDFB"/>
</g>
</svg>
