<?xml version="1.0" encoding="UTF-8"?>
<svg width="106px" height="106px" viewBox="0 0 106 106" version="1.1" xmlns="http://www.w3.org/2000/svg" xmlns:xlink="http://www.w3.org/1999/xlink">
    <title>4. Elements_Microillustrations/Efficiency</title>
    <g id="4.-Elements_Microillustrations/Efficiency" stroke="none" stroke-width="1" fill="none" fill-rule="evenodd">
        <path d="M31.4992919,21 C39.8108049,21 47.3705008,24.2700005 52.9997018,29.6126411 C46.8459702,35.4537012 43,43.7705583 43,53 C43,62.2294417 46.8459702,70.5462988 52.9987694,76.3866247 C47.3705008,81.7299995 39.8108049,85 31.4992919,85 C14.1019624,85 0,70.6730804 0,53 C0,35.3269196 14.1019624,21 31.4992919,21 Z M74.4992919,21 C91.8966215,21 106,35.3269196 106,53 C106,70.6730804 91.8966215,85 74.4992919,85 C66.1873983,85 58.6277138,81.7297 52.9987694,76.3866247 C59.1533213,70.5469958 63,62.2298285 63,53 L63,53 L62.9957798,52.4708224 C62.8518434,43.4525689 59.0354931,35.3411742 52.9997018,29.6126411 C58.6277138,24.2703 66.1873983,21 74.4992919,21 Z" id="Combined-Shape" fill="#009BBD"></path>
        <path d="M63,53.5 C63,62.9554857 59.1483154,71.4678739 53.0000825,77.4068164 C46.8512978,71.4678739 43,62.9554857 43,53.5 C43,44.0445143 46.8512978,35.5321261 52.9991647,29.5931836 C59.1483154,35.5321261 63,44.0445143 63,53.5 Z" id="Combined-Shape" fill="#ACEDFB"></path>
    </g>
</svg>