<svg viewBox="0 0 106 106" xmlns="http://www.w3.org/2000/svg"><path d="M53 10c6.785 0 12.286 5.5 12.286 12.286 0 .388-.018.772-.053 1.15a12.249 12.249 0 0 1 9.267-4.222c6.785 0 12.286 5.5 12.286 12.286 0 3.7-1.635 7.016-4.222 9.269.378-.037.762-.055 1.15-.055C90.499 40.714 96 46.214 96 53c0 6.785-5.5 12.286-12.286 12.286-.388 0-.772-.018-1.15-.053a12.25 12.25 0 0 1 4.222 9.267c0 6.785-5.5 12.286-12.286 12.286-3.7 0-7.017-1.635-9.27-4.222.038.378.056.762.056 1.15C65.286 90.5 59.786 96 53 96s-12.286-5.5-12.286-12.286c0-.388.018-.772.053-1.15a12.25 12.25 0 0 1-9.267 4.222c-6.786 0-12.286-5.5-12.286-12.286 0-3.7 1.635-7.017 4.222-9.27-.379.038-.762.056-1.15.056C15.5 65.286 10 59.786 10 53c0-6.785 5.5-12.286 12.285-12.286.388 0 .772.018 1.15.053a12.252 12.252 0 0 1-4.22-9.267c0-6.785 5.5-12.286 12.285-12.286 3.7 0 7.017 1.635 9.269 4.222a11.912 11.912 0 0 1-.055-1.15C40.714 15.5 46.214 10 53 10z" fill="#009BBD" fill-rule="evenodd"/></svg>