<?xml version="1.0" encoding="UTF-8"?>
<svg width="94px" height="94px" viewBox="0 0 94 94" version="1.1" xmlns="http://www.w3.org/2000/svg" xmlns:xlink="http://www.w3.org/1999/xlink">
    <title>Microillustrations/Organized</title>
    <g id="Symbols" stroke="none" stroke-width="1" fill="none" fill-rule="evenodd">
        <g id="7.-Modules_desktop/1.-Cards/1.-Cards_module" transform="translate(-753.000000, -261.000000)">
            <g id="Content" transform="translate(216.000000, 88.000000)">
                <g id="Components/Cards" transform="translate(400.000000, 108.000000)">
                    <g id="Microillustrations/Organized" transform="translate(137.509434, 65.509434)">
                        <path d="M92.9811321,46.490566 C92.9811321,72.1665507 72.1660829,92.9811321 46.489521,92.9811321 C20.8129591,92.9811321 0,72.1665507 0,46.490566 C0,20.8145813 20.8129591,0 46.489521,0 C72.1660829,0 92.9811321,20.8145813 92.9811321,46.490566" id="Fill-15" fill="#7e7e7e"></path>
                        <path d="M35.7983551,66.5660377 L38.7398162,57.6400581 L54.2119013,57.6400581 L57.182777,66.5660377 L66.5660377,66.5660377 L50.535075,23.245283 L42.3578133,23.245283 L26.4150943,66.5660377 L35.7983551,66.5660377 Z M51.7735849,49.6603774 L41.2075472,49.6603774 L46.4615385,33.8113208 L51.7735849,49.6603774 Z" id="A" fill="#ffffff"></path>
                    </g>
                </g>
            </g>
        </g>
    </g>
</svg>