<svg viewBox="0 0 106 106" xmlns="http://www.w3.org/2000/svg" xmlns:xlink="http://www.w3.org/1999/xlink"><defs><path d="M88 44c0 24.3-19.7 44-44.001 44S0 68.3 0 44 19.698 0 43.999 0C68.3 0 88 19.7 88 44" id="a"/></defs><g transform="translate(9 9)" fill="none" fill-rule="evenodd"><mask id="b" fill="#fff"><use xlink:href="#a"/></mask><use fill="#FFEACF" xlink:href="#a"/><g mask="url(#b)"><path d="M58.48 45.172c0 2.939-2.393 5.322-5.343 5.322-2.951 0-5.343-2.383-5.343-5.322 0-2.94 2.392-5.323 5.343-5.323 2.95 0 5.342 2.383 5.342 5.323" fill="#0297B8"/><path d="M66.248 56.536c-1.803 4.575-6.987 6.828-11.58 5.033-4.592-1.796-6.854-6.96-5.052-11.535 1.803-4.575 6.987-6.828 11.58-5.032 4.592 1.795 6.854 6.96 5.052 11.534M41.351 52.152c0 4.914-3.999 8.898-8.933 8.898-4.934 0-8.933-3.984-8.933-8.898 0-4.915 4-8.899 8.933-8.899 4.934 0 8.933 3.984 8.933 8.899" fill="#00547A"/><path d="M41.341 45.172c0 2.939-2.392 5.322-5.343 5.322-2.95 0-5.342-2.383-5.342-5.322 0-2.94 2.391-5.323 5.342-5.323 2.951 0 5.343 2.383 5.343 5.323" fill="#00547A"/><path d="M61.196 45.001a8.946 8.946 0 0 0-7.615.512c-1.213 2.351.26 5.638 3.378 7.43 3.189 1.835 6.882 1.409 8.25-.951.602-1.04.652-2.28.248-3.5a8.88 8.88 0 0 0-4.261-3.49" fill="#0297B8"/><path d="m32.85 60.861.633.856a4.75 4.75 0 0 1-1.098 6.72L9.529 84.444a4.792 4.792 0 0 1-6.655-1.151 4.75 4.75 0 0 1 1.01-6.532L26.106 59.9a4.792 4.792 0 0 1 6.744.962" fill="#EACBAC"/><path d="M32.385 68.437a4.75 4.75 0 0 0 1.098-6.72l-.633-.856a4.792 4.792 0 0 0-6.744-.962L11.63 70.883l1.547 5.437a1.832 1.832 0 0 1-.896 2.115l-2.93 1.579a.744.744 0 0 0-.205 1.148l1.942 2.19 21.297-14.915z" fill="#E99462"/><path d="M32.911 60.961a7.092 7.092 0 0 1-1.291 9.93L19.498 80.28a.856.856 0 0 1-1.095-.035c-.642-.572-1.853-1.949-3.945-5.27-2.204-3.498-2.89-5.18-3.095-5.952a.847.847 0 0 1 .312-.89l11.244-8.515c3.134-2.372 7.603-1.77 9.992 1.344" fill="#ED985A"/><path d="m25.938 65.115-4.725 6.396a5.882 5.882 0 0 1-7.48 1.695l-.51-.27c.348.6.753 1.274 1.235 2.038 2.091 3.321 3.303 4.698 3.945 5.27a.857.857 0 0 0 1.094.035l12.04-9.322-.462-7.002-.376-2.451a27.765 27.765 0 0 1-1.675-.077l-3.086 3.688z" fill="#D76230"/><path d="m22.92 59.617-.72.545c2.14.614 4.436 1.086 6.824 1.265.554.042 1.112.068 1.675.076a25.66 25.66 0 0 0 2.526-.086c-.1-.154-.2-.308-.314-.456-2.389-3.115-6.858-3.716-9.992-1.344" fill="#D76230"/><path d="M31.389 103.532a6.828 6.828 0 0 1-5.698-6.733V90.5l-.368-16.121-3.692-5.959c-2.6-4.194-.013-9.666 4.888-10.342l17.83-2.46a6.88 6.88 0 0 1 2.197.069l17.359 3.738c4.647 1.001 6.882 6.299 4.348 10.306l-4.523 7.15-1.232 14.566a6.796 6.796 0 0 0 .095 1.845l.442 2.324c.728 3.832-1.903 7.5-5.782 8.034-3.003.415-7.173.74-12.874.74-6.019 0-10.164-.384-12.99-.858" fill="#ED985A"/><path d="m63.73 76.882 1.759-2.78a10.34 10.34 0 0 1-.633-1.136l-2.047-4.36-4.403-10.365-1.325-.286-2.982 10.87a2.185 2.185 0 0 1-2.216 1.6l-16.401-.797a1.609 1.609 0 0 1-1.53-1.496l-.454-6.738c-.941.09-1.876.123-2.799.11a27.765 27.765 0 0 1-1.675-.077 31.081 31.081 0 0 1-3.207-.412l.121 4.1-3.457 4.678 2.841 4.586.115 5.011.254 11.11v6.3a6.828 6.828 0 0 0 5.698 6.732c2.826.474 6.971.857 12.99.857 5.7 0 9.871-.324 12.874-.738 3.879-.536 6.51-4.203 5.782-8.035l-.442-2.325a6.795 6.795 0 0 1-.095-1.844l1.232-14.565z" fill="#D76230"/><path d="M30.699 61.503c.923.014 1.858-.019 2.8-.109A23.067 23.067 0 0 0 43 58.35a17.909 17.909 0 0 0 3.52-2.668 6.885 6.885 0 0 0-2.172-.064l-17.83 2.46a6.78 6.78 0 0 0-4.111 2.145c1.099.308 2.238.58 3.41.792 1.045.189 2.117.33 3.206.412.554.042 1.112.068 1.675.076" fill="#D76230"/><path d="M90.203 60.906c.223-.089.466-.102.736-.135l.03-.004a.186.186 0 0 0 .053-.355c-.284-.126-.615-.208-.948-.165-.33.032-.657.148-.93.326a2.561 2.561 0 0 0-.694.653c-.18.258-.32.525-.386.847a.236.236 0 0 0 .065.213c.092.09.24.088.33-.003l.018-.018.55-.557c.179-.179.365-.338.555-.481.193-.14.4-.24.621-.321" fill="#E99462"/><path d="M59.382 62.496a5.573 5.573 0 0 0-.448 7.99l16.443 17.856a5.253 5.253 0 0 0 7.382.336 5.204 5.204 0 0 0 .445-7.272L67.315 63.058a5.625 5.625 0 0 0-7.933-.562" fill="#EACBAC"/><path d="M75.377 88.343a5.255 5.255 0 0 0 6.081 1.2l-1.64-.217a4.67 4.67 0 0 1-2.75-1.383l-1.322-1.368a7.83 7.83 0 0 1-2.003-3.698l-1.464-6.416-5.287 2.776 8.385 9.106zM78.772 80.89c-.001.202.272.265.363.085l1.37-2.686-1.727-1.995c.003 1.672-.002 3.554-.006 4.596" fill="#E99462"/><path d="M58.03 61.098a7.092 7.092 0 0 0-.721 9.988L67.31 82.692c.27.312.723.39 1.08.182.743-.432 2.206-1.542 4.92-4.38 2.86-2.992 3.869-4.503 4.223-5.219a.845.845 0 0 0-.127-.935L68.09 61.764c-2.595-2.946-7.095-3.244-10.06-.666" fill="#ED985A"/><path d="M67.31 82.692c.27.312.723.39 1.08.182.65-.379 1.852-1.275 3.96-3.395a5.322 5.322 0 0 1-3.556-1.626l-.984-1.024a19.533 19.533 0 0 1-3.597-5.231l-1.404-2.991-3.553-8.366a7.092 7.092 0 0 0-1.947 10.844L67.31 82.693z" fill="#D76230"/><path d="M45.311 44.17a5.566 5.566 0 0 0-5.51 4.78c-.206 1.434-.542 2.898-1.015 4.24-.863 2.45-3.396 3.685-3.396 3.685s.131 5.065 9.364 5.065c9.232 0 10.209-4.366 10.209-4.366s-4.115-2.138-4.187-7.33l-.032-2.318c-.027-2.08-2.451-3.757-5.433-3.757" fill="#EACBAC"/><path d="m50.762 49.281-.018-1.355c-.027-2.08-2.451-3.757-5.433-3.757a5.566 5.566 0 0 0-5.51 4.782c-.206 1.432-.542 2.897-1.015 4.24-.863 2.449-3.396 3.684-3.396 3.684s.058 2.139 2.633 3.637A23.17 23.17 0 0 0 43 58.35c4.443-2.579 6.667-6.31 7.761-9.069" fill="#E99462"/><path d="M34.058 40.42c.393 2.317.022 3.95-1.396 4.36-1.653.476-3-1.676-3.389-3.483-.707-3.29.602-5.278 1.955-5.144 2.549.254 2.52 2.445 2.83 4.268M56.87 40.42c-.393 2.317-.022 3.95 1.396 4.36 1.653.476 3.001-1.676 3.39-3.483.707-3.29-.603-5.278-1.955-5.144-2.549.254-2.52 2.445-2.83 4.268" fill="#EACBAC"/><path d="M31.228 36.153c-1.287-.128-2.53 1.667-2.04 4.674.1-.077.185-.279.233-.65.163-1.232 1.001-1.891 1.556-1.911 1.65-.06 3.18 2.668 1.688 5.305-.35.62-.48 1.09-.328 1.268.107-.01.215-.028.325-.06 1.418-.408 1.79-2.042 1.396-4.358-.31-1.823-.282-4.013-2.83-4.268M59.933 36.153a1.279 1.279 0 0 0-.232 0c-2.549.255-2.52 2.445-2.83 4.268-.039.223-.067.438-.09.648.49.136.93-.025 1.061-.601.487-2.12 1.023-3.764 2.09-4.315M58.857 43.169a.612.612 0 1 1-1.224-.003.612.612 0 0 1 1.224.003" fill="#E99462"/><path d="M32.728 43.169a.612.612 0 1 1-1.224-.003.612.612 0 0 1 1.224.003" fill="#E99462"/><path d="M58.993 43.041a.612.612 0 1 1-1.224-.002.612.612 0 0 1 1.224.002M32.863 43.041a.612.612 0 1 1-1.224-.002.612.612 0 0 1 1.224.002" fill="#0297B8"/><path d="M46.867 26.066c5.694-.041 10.307 4.654 10.244 10.426l-.003.378c.052.299.51 7.299-1.299 9.986-1.944 2.887-3.84 3.382-7.128 4.303-2.023.568-4.161.59-6.2.084-3.43-.851-5.562-1.134-7.276-4.253-1.546-2.813-1.44-9.654-1.39-9.954l-.007-.378c-.116-5.771 4.453-10.531 10.147-10.572l2.912-.02z" fill="#EACBAC"/><path d="M42.48 51.244a12.25 12.25 0 0 0 2.9.356c-11.167-1.926-10.172-11.184-8.773-15.57.773-2.423.592-5.252.343-7.052a10.4 10.4 0 0 0-3.142 7.68l.007.378c-.05.3-.155 7.141 1.39 9.954 1.714 3.119 3.846 3.402 7.276 4.254" fill="#E99462"/><path d="M41.539 40.51a.89.89 0 0 0 .091-.388v-1.085c0-.5-.406-.904-.907-.904a.906.906 0 0 0-.908.904v1.085c0 .143.036.276.095.396.245-.134.522-.218.821-.218.294 0 .566.081.808.21M50.988 40.469a.895.895 0 0 0 .07-.347v-1.085c0-.5-.407-.904-.908-.904a.906.906 0 0 0-.908.904v1.085c0 .16.045.308.118.438.262-.162.568-.26.898-.26.262 0 .508.064.73.169M52.432 37.372a.283.283 0 0 1-.354.01l-.867-.647a1.417 1.417 0 0 0-.583-.256l-1.431-.27a.282.282 0 0 1-.163-.46l.211-.247a.284.284 0 0 1 .291-.088l1.472.407c.223.061.428.177.596.336l.839.796a.281.281 0 0 1-.011.419M38.558 37.372c.1.085.248.09.354.01l.866-.647c.172-.128.372-.216.583-.256l1.432-.27a.282.282 0 0 0 .162-.46l-.211-.247a.283.283 0 0 0-.291-.088l-1.472.407a1.416 1.416 0 0 0-.595.336l-.84.796a.281.281 0 0 0 .012.419" fill="#00547A"/><path d="M51.456 41.47h.533c.212 0 .383.171.383.382v.1c0 .21-.171.38-.383.38h-.533a.382.382 0 0 1-.382-.38v-.1c0-.21.17-.382.382-.382M49.992 42.422h.532c.212 0 .383.17.383.381v.1c0 .21-.17.381-.383.381h-.532a.382.382 0 0 1-.383-.382v-.099c0-.21.171-.381.383-.381M48.527 41.47h.533c.212 0 .383.171.383.382v.1c0 .21-.171.38-.383.38h-.533a.382.382 0 0 1-.382-.38v-.1c0-.21.171-.382.382-.382M41.93 41.47h.532c.212 0 .383.171.383.382v.1c0 .21-.171.38-.383.38h-.533a.382.382 0 0 1-.383-.38v-.1c0-.21.172-.382.383-.382M40.465 42.422h.532c.212 0 .383.17.383.381v.1c0 .21-.17.381-.383.381h-.532a.382.382 0 0 1-.383-.382v-.099c0-.21.171-.381.383-.381M39 41.47h.533c.212 0 .383.171.383.382v.1c0 .21-.171.38-.383.38H39a.382.382 0 0 1-.382-.38v-.1c0-.21.171-.382.382-.382" fill="#FC95A4"/><path d="M45.185 38.772c-.068.479-.142.955-.228 1.43l-.255 1.402a.448.448 0 0 0 .362.488c.072.011.227.023.337.035l.354.04a.546.546 0 0 0 .438-.14c.09-.082.18-.165.281-.239a.156.156 0 0 1 .235.186 3.35 3.35 0 0 1-.17.327.89.89 0 0 1-.831.423 9.786 9.786 0 0 1-.367-.035c-.13-.017-.217-.02-.384-.047a.988.988 0 0 1-.786-1.11c.108-.511.233-.947.348-1.424.118-.468.247-.932.382-1.396a.146.146 0 0 1 .284.06" fill="#E99462"/><path d="M45.185 45.297c.223.207.519.276.81.296.296.015.601-.01.91-.056a3.37 3.37 0 0 0 .86-.21c.258-.103.46-.286.674-.567a.073.073 0 0 1 .131.044v.006a1.224 1.224 0 0 1-.534.974c-.327.229-.698.32-1.05.363-.352.042-.725.041-1.088-.07-.352-.102-.736-.337-.829-.736a.06.06 0 0 1 .046-.073.06.06 0 0 1 .055.015l.015.014z" fill="#1C417D"/><path d="M59.526 26.78c-.636-1.214-1.736-2.897-2.782-3.263C55.19 20.537 51.977 18 45.541 18c-6.749 0-10.004 2.619-11.527 5.59-.993.476-2.01 2.041-2.612 3.19-1.344 2.566-1.139 4.846-.616 6.382.464 1.364.24 2.994.24 2.994s.314-.059.96.171c1.584.564 1.692 1.944 1.628 2.672a.96.96 0 0 0 .333.817l.568.486a.312.312 0 0 0 .515-.243l-.143-5.486s2.106-2.362 2.735-6.895c1.903-1.126 4.41-2.032 7.558-2.032 3.435 0 6.184 1.233 8.23 2.683.728 4.106 2.631 6.244 2.631 6.244l-.142 5.486c-.007.269.31.418.515.243l.568-.486a.961.961 0 0 0 .333-.817c-.064-.728.043-2.108 1.628-2.672.646-.23.959-.17.959-.17s-.223-1.631.241-2.995c.523-1.536.728-3.816-.617-6.382" fill="#0297B8"/><path d="M34.014 23.59c-.993.476-2.01 2.041-2.611 3.19-1.345 2.567-1.14 4.846-.617 6.382.464 1.364.24 2.994.24 2.994s.314-.059.96.17c1.584.565 1.692 1.945 1.628 2.673a.959.959 0 0 0 .333.817l.568.486a.312.312 0 0 0 .515-.244l-.143-5.485s1.276-1.44 2.138-4.216c-2.135-7.003.646-10.183 2.792-11.536-3.026 1.002-4.797 2.806-5.803 4.769" fill="#00547A"/><path d="M57.535 28.083c-.48-1.614-1.495-3.064-2.779-4.17-1.278-1.127-2.834-1.885-4.428-2.387-1.61-.461-3.266-.65-4.908-.692-.41-.006-.822.033-1.234.048a9.45 9.45 0 0 0-1.233.108c-.411.06-.822.111-1.232.182-.407.1-.815.193-1.22.302-1.598.493-3.171 1.237-4.441 2.387-.158.143-.322.28-.473.429l-.425.48c-.136.164-.292.31-.409.49l-.355.53c-.253.341-.412.742-.607 1.114-.186.378-.3.789-.445 1.18-.438 1.617-.413 3.34.127 4.863.03.087.119.145.215.135.018-.002.034-.01.05-.016-.047-.013-.085-.05-.089-.1-.103-1.494.017-3.023.456-4.502.446-1.473 1.313-2.863 2.523-3.888 1.2-1.043 2.691-1.675 4.188-2.059a15.117 15.117 0 0 1 2.282-.39c.766-.085 1.53-.11 2.294-.114 1.526.02 3.068.158 4.572.553 1.492.406 2.966 1.053 4.17 2.08 1.216 1.007 2.112 2.367 2.604 3.826.487 1.464.642 2.999.542 4.494-.003.054-.045.089-.095.1.003.001.005.004.009.005a.206.206 0 0 0 .263-.124c.545-1.521.553-3.254.078-4.864" fill="#ED985A"/><path d="M57.28 32.966c.1-1.495-.055-3.03-.542-4.494-.492-1.459-1.388-2.82-2.604-3.826-1.204-1.027-2.678-1.674-4.17-2.08-1.504-.395-3.046-.533-4.572-.553-.764.004-1.529.03-2.293.114-.765.075-1.53.197-2.283.39-1.496.384-2.987 1.016-4.188 2.059-1.21 1.025-2.078 2.415-2.523 3.888-.44 1.48-.559 3.009-.456 4.502.004.05.042.087.09.1.007.003.012.01.02.01a.119.119 0 0 0 .127-.11c.111-1.472.327-2.94.882-4.27a7.864 7.864 0 0 1 2.48-3.366c1.11-.855 2.441-1.407 3.837-1.713 1.391-.328 2.848-.43 4.302-.424 1.455 0 2.906.131 4.298.465 1.39.33 2.716.893 3.838 1.742 1.118.85 2.003 2 2.564 3.322.595 1.312.844 2.774.956 4.244a.12.12 0 0 0 .11.11c.013.001.02-.008.032-.01.05-.011.091-.046.095-.1" fill="#D76230"/><path d="M58.206 34.182a.88.88 0 0 1-1.223.79c-.845-.359-2.018-.943-3.045-1.757-2.368-1.879-3.454-4.576-3.352-6.428-2.457.33-4.814 3.45-4.858 6.907a.632.632 0 0 1-.634.621h-1.807c-.41 0-.794-.19-1.032-.522-.609-.851-1.589-2.688-.98-5.111 0 0-.833 2.806-.346 4.874a.713.713 0 0 1-.592.878l-1.177.165a1 1 0 0 1-1.107-.722c-.305-1.112-.684-3.113-.025-4.665-1.273.736-1.295 3.817-1.244 5.131a.71.71 0 0 1-.57.722l-2.449.499s-.866-1.012-.866-3.032c0-3.392 2.352-6.016 3.978-7.075 5.99-3.9 11.431-2.446 13.514-1.8 2.666.827 5.075 2.161 6.778 5.2.94 1.678 1.065 3.945 1.037 5.325" fill="#0297B8"/><path d="M53.012 30.329c-1.706-2.655-1.823-5.165-1.823-5.165s-.48.584-.604 1.713c-.064 1.848 1.022 4.488 3.353 6.337 1.027.815 2.2 1.399 3.045 1.759a.86.86 0 0 0 .484.055c-.61-.492-3.063-2.533-4.455-4.7M47.198 23.884c-1.988.023-3.758.89-4.843 2.47a7.848 7.848 0 0 0-1.275 3.121c.104-.484.195-.793.195-.793-.609 2.423.371 4.26.98 5.111.184.257.456.426.76.49l.99-.007c-2.75-4.76.058-9.483 3.193-10.392" fill="#00547A"/><path d="M44.094 23.705c-2.815.692-4.265 2.297-5.412 4.188a8.64 8.64 0 0 0-.658 1.322c.002 0 .003-.002.004-.003-.659 1.552-.28 3.553.025 4.665a1 1 0 0 0 1.107.722l1.177-.165c.034-.004.064-.014.096-.023-2.237-4.583.416-9.213 3.661-10.706" fill="#00547A"/><path d="M39.81 23.93c-.954.38-1.936.878-2.933 1.527-1.626 1.059-3.978 3.683-3.978 7.075 0 2.02.866 3.032.866 3.032l2.214-.452c-1.384-4.098.774-8.99 3.83-11.183" fill="#00547A"/><path d="m25.071 107.89.027-12.5c.002-.897.057-1.793.164-2.684l2.066-17.116-.006-17.61c0-.42.317-.773.737-.818l3.52-.384a.826.826 0 0 1 .917.826l-.092 10.923a2.062 2.062 0 0 0 1.997 2.076l18.707.63c1 .034 1.88-.65 2.09-1.625l2.436-11.28a.827.827 0 0 1 .985-.631l4.01.872a.824.824 0 0 1 .632.977l-3.347 15.587a4.102 4.102 0 0 0-.004 1.706l3.451 16.413 2.765 12.665a2.75 2.75 0 0 1-2.232 3.294l-15.044 2.56c-1.86.316-3.754.394-5.634.23l-15.626-1.366a2.754 2.754 0 0 1-2.519-2.745" fill="#0080F6"/><path d="M33.73 81.577A19.483 19.483 0 0 1 31 72.2l-.457-15.31-2.484.27a.825.825 0 0 0-.737.82l.006 17.609-2.066 17.115a22.688 22.688 0 0 0-.164 2.686l-.027 12.5a2.754 2.754 0 0 0 2.519 2.744l8.684.759c.23-3.521.892-7.005 1.976-10.373l1.05-3.264a10.294 10.294 0 0 0-.953-8.416l-4.617-7.764z" fill="#0068C9"/><path d="m34.053 75.613.187 8.537 7.79 5.021 8.816-2.844.42-2.046c.007-.03.03-.049.056-.06l.438-7.205a.691.691 0 0 0-.643-.73l-3.797-.27c-.017.008-.033.02-.053.02l-13.214-.423z" fill="#0080F6"/><path d="M51.444 84.298a.088.088 0 0 0-.071-.086c-.019-.004-.035.003-.05.01-.027.01-.05.029-.056.059l-.42 2.046-8.817 2.844-7.79-5.021-.187-8.537 13.214.422c.02 0 .036-.01.053-.02.036-.017.064-.046.068-.088a.118.118 0 0 0-.109-.126l-13.63-1.03-.021-.001a.407.407 0 0 0-.417.397v.018l-.204 9.306a.595.595 0 0 0 .287.521l.004.002 8.409 5.084.013.008a.464.464 0 0 0 .395.04l9.13-3.239.037-.013a.288.288 0 0 0 .191-.274l-.029-2.322zM58.075 68.052a2.31 2.31 0 0 0-2.63 1.924l-.09.585a2.28 2.28 0 0 0 .42 1.71c.366.494.902.818 1.51.91l.023.004a2.309 2.309 0 0 0 2.63-1.924l.09-.585c.193-1.253-.674-2.429-1.953-2.624" fill="#0068C9"/><path d="M59.313 72.007a1.992 1.992 0 0 1-1.488.364l-.066-.01a1.997 1.997 0 0 1-1.675-2.273l.027-.18c-.017.066-.04.131-.05.2l-.065.418a1.997 1.997 0 0 0 1.675 2.272l.066.01a2.003 2.003 0 0 0 2.282-1.67l.036-.235a1.97 1.97 0 0 1-.742 1.104" fill="#D76230"/><path d="m58.451 68.296-.066-.01a1.715 1.715 0 0 0-1.951 1.428l-.064.418c-.144.93.5 1.802 1.433 1.944l.066.01c.453.068.904-.042 1.272-.311.37-.27.61-.667.68-1.117l.064-.418a1.69 1.69 0 0 0-.313-1.267 1.701 1.701 0 0 0-1.12-.677" fill="#D76230"/><path d="m59.885 70.24-.064.418a1.71 1.71 0 0 1-1.952 1.428l-.066-.01a1.709 1.709 0 0 1-1.434-1.944l.065-.418a1.716 1.716 0 0 1 1.951-1.428l.066.01c.452.07.85.31 1.121.677.27.367.382.817.313 1.267m-.08-1.438a1.99 1.99 0 0 0-1.31-.79l-.066-.01a1.99 1.99 0 0 0-1.488.363 1.98 1.98 0 0 0-.793 1.305l-.037.237-.027.181a1.997 1.997 0 0 0 1.675 2.273l.066.01a1.995 1.995 0 0 0 1.488-.364c.374-.274.627-.663.742-1.104.018-.067.041-.132.051-.201l.064-.418a1.975 1.975 0 0 0-.365-1.482" fill="#ED985A"/><path d="M58.12 69.44a.175.175 0 0 0 .022.134c.025.04.064.068.11.08a.175.175 0 0 0 .135-.023.174.174 0 0 0 .08-.11.178.178 0 0 0-.173-.218.179.179 0 0 0-.174.137" fill="#D76230"/><path d="M58.37 69.33c.049.01.091.041.118.085a.187.187 0 0 1 .023.143.188.188 0 0 1-.085.119.187.187 0 0 1-.144.023.187.187 0 0 1-.118-.085.191.191 0 0 1 .205-.286m-.157.672a.484.484 0 0 0 .377-.062.5.5 0 1 0-.378.062" fill="#ED985A"/><path d="M58.135 70.932a.178.178 0 0 0-.347-.081.178.178 0 0 0 .347.081" fill="#D76230"/><path d="M57.95 71.111a.191.191 0 0 1 .043-.376.191.191 0 1 1-.043.376m.158-.672a.5.5 0 1 0-.229.973.5.5 0 0 0 .229-.973" fill="#ED985A"/><path d="M59.009 70.392a.178.178 0 1 0-.214.133.177.177 0 0 0 .214-.133" fill="#D76230"/><path d="M58.824 70.571a.188.188 0 0 1-.118-.085.19.19 0 0 1 .205-.286.19.19 0 1 1-.087.371m.158-.672a.493.493 0 0 0-.378.062.499.499 0 1 0 .75.539.5.5 0 0 0-.372-.6" fill="#ED985A"/><path d="M57.592 70.061a.178.178 0 1 0-.324.053.178.178 0 0 0 .325-.053" fill="#D76230"/><path d="M57.408 70.24a.19.19 0 1 1 .087-.37.19.19 0 0 1-.087.37m.53-.071a.5.5 0 1 0-.975-.227.5.5 0 0 0 .975.227" fill="#ED985A"/><path d="m32.069 70.097-.08-.586a2.282 2.282 0 0 0-.89-1.52 2.312 2.312 0 0 0-1.73-.445 2.303 2.303 0 0 0-1.975 2.589l.08.586a2.309 2.309 0 0 0 2.597 1.968l.022-.003a2.303 2.303 0 0 0 1.976-2.589" fill="#0068C9"/><path d="m32.111 69.959-.032-.239c.015.457-.117.901-.398 1.27-.02.026-.046.047-.068.072-.32.38-.759.629-1.255.697l-.066.009a2 2 0 0 1-1.545-.444 1.98 1.98 0 0 1-.709-1.263l-.024-.18c.002.069-.002.137.007.206l.058.419c.072.527.346.995.771 1.318a1.993 1.993 0 0 0 1.482.388l.066-.009a1.993 1.993 0 0 0 1.713-2.244" fill="#D76230"/><path d="M28.325 70.022c.127.931.99 1.587 1.928 1.46l.065-.01a1.702 1.702 0 0 0 1.466-1.919l-.057-.418a1.713 1.713 0 0 0-1.928-1.46l-.065.008a1.703 1.703 0 0 0-1.132.658 1.687 1.687 0 0 0-.334 1.262l.057.419z" fill="#D76230"/><path d="M30.032 67.659c.842 0 1.579.621 1.695 1.475l.057.42a1.702 1.702 0 0 1-1.466 1.92l-.065.008a1.712 1.712 0 0 1-1.928-1.46l-.057-.419a1.69 1.69 0 0 1 .334-1.262 1.701 1.701 0 0 1 1.132-.658l.066-.009c.077-.01.155-.015.232-.015m-1.284 3.665a2 2 0 0 0 1.544.444l.066-.01a1.987 1.987 0 0 0 1.256-.696c.02-.025.047-.046.067-.072.281-.369.413-.813.398-1.27-.003-.068.002-.137-.008-.206l-.057-.418a2.002 2.002 0 0 0-2.254-1.707l-.065.009c-.53.072-1 .345-1.324.769a1.977 1.977 0 0 0-.39 1.475l.033.239.024.18c.07.515.336.955.71 1.263" fill="#ED985A"/><path d="M29.807 68.865a.179.179 0 0 0 .356-.02.177.177 0 0 0-.178-.168h-.01a.18.18 0 0 0-.123.06.176.176 0 0 0-.045.128" fill="#D76230"/><path d="M30.018 68.699a.19.19 0 0 1 .141.317.19.19 0 0 1-.13.064.19.19 0 1 1-.021-.38l.01-.001m-.001.69h.029a.495.495 0 0 0 .344-.167.495.495 0 0 0 .126-.361.495.495 0 0 0-.166-.345.497.497 0 0 0-.832.402.501.501 0 0 0 .499.471" fill="#ED985A"/><path d="M30.245 70.292a.177.177 0 0 0-.178-.168h-.01a.178.178 0 0 0-.168.188.182.182 0 0 0 .188.167.178.178 0 0 0 .168-.187" fill="#D76230"/><path d="M29.91 70.347a.19.19 0 0 1 .18-.201h.01a.19.19 0 0 1 .01.38.195.195 0 0 1-.2-.18m.161-.51a.497.497 0 0 0-.47.528.5.5 0 0 0 .499.472l.029-.001a.497.497 0 0 0 .47-.528.495.495 0 0 0-.166-.344.488.488 0 0 0-.362-.126" fill="#ED985A"/><path d="M30.93 69.527a.176.176 0 0 0-.06-.122.174.174 0 0 0-.117-.045h-.01a.177.177 0 0 0-.11.31.18.18 0 0 0 .252-.014.177.177 0 0 0 .045-.129" fill="#D76230"/><path d="M30.658 69.713a.19.19 0 0 1 .116-.332h.011a.19.19 0 0 1 .01.38.181.181 0 0 1-.137-.048m.46-.515a.489.489 0 0 0-.361-.126.496.496 0 0 0-.471.528.497.497 0 0 0 .498.471h.03a.496.496 0 0 0 .47-.528.496.496 0 0 0-.166-.345" fill="#ED985A"/><path d="M29.478 69.61a.176.176 0 0 0-.06-.123.175.175 0 0 0-.128-.045.177.177 0 0 0-.109.31.179.179 0 0 0 .297-.143" fill="#D76230"/><path d="M29.206 69.796a.19.19 0 0 1 .116-.333h.01c.048 0 .092.017.127.049a.19.19 0 1 1-.253.284m.626-.17a.497.497 0 0 0-.528-.471.496.496 0 0 0-.47.527.497.497 0 0 0 .498.472l.029-.001a.496.496 0 0 0 .47-.528" fill="#ED985A"/><g><path d="M51.244 43.892h-.14c-2.23 0-4.04-1.817-4.04-4.058v-2.74c0-2.241 1.81-4.058 4.04-4.058h.14a4.05 4.05 0 0 1 4.041 4.058v2.74a4.05 4.05 0 0 1-4.04 4.058" fill="#FFF" opacity=".35"/><path d="M38.897 33.036h.14c2.23 0 4.04 1.817 4.04 4.058v2.74c0 2.241-1.81 4.058-4.04 4.058h-.14a4.05 4.05 0 0 1-4.041-4.058v-2.74a4.05 4.05 0 0 1 4.04-4.058" fill="#FFF" opacity=".352"/><path d="M55.065 39.834c0 2.116-1.714 3.838-3.82 3.838h-.14c-2.107 0-3.82-1.722-3.82-3.838v-2.74c0-2.116 1.713-3.837 3.82-3.837h.14c2.106 0 3.82 1.721 3.82 3.837v2.74zm-12.208 0c0 2.116-1.714 3.838-3.82 3.838h-.14c-2.107 0-3.821-1.722-3.821-3.838v-2.74c0-2.116 1.714-3.837 3.82-3.837h.14c2.107 0 3.82 1.721 3.82 3.837v2.74zm13.958-2.32h-.682v-.009a.549.549 0 0 0-.547-.55h-.087c-.074-2.294-1.951-4.14-4.255-4.14h-.139c-2.35 0-4.261 1.92-4.261 4.28v.612a3.233 3.233 0 0 0-3.547.001v-.614c0-2.36-1.912-4.28-4.26-4.28h-.14c-2.35 0-4.262 1.92-4.262 4.28v.058h-.08a.543.543 0 0 0-.536.495h-.733c.041.33.037.638.018.884h.704v.008c0 .303.245.549.547.549h.08v.746c0 2.36 1.912 4.28 4.262 4.28h.14c2.348 0 4.26-1.92 4.26-4.28v-1.598l.192-.13a2.805 2.805 0 0 1 3.276.072l.07.053.009.004v1.599c0 2.36 1.911 4.28 4.261 4.28h.14c2.349 0 4.26-1.92 4.26-4.28v-.943h.08a.543.543 0 0 0 .537-.494h.645a4.297 4.297 0 0 1 .048-.884z" fill="#DB594A"/><path d="M3.42 83.304c5.049 4.934 14.04 13.699 17.018 16.602a1.443 1.443 0 0 0 1.999.017l.653-.613a2.408 2.408 0 0 0 .352-3.094L10.7 77.192a4.68 4.68 0 0 0-7.08-.828l-.117.109a4.723 4.723 0 0 0-.085 6.83" fill="#EACBAC"/><path d="M21.538 95.528a.805.805 0 0 0 1.085.143l.309-.217L11.389 78.22l-1.765.959a1.09 1.09 0 0 0-.315 1.653l12.23 14.696z" fill="#E99462"/><path d="M25.725 99.5c-.601.419-.187 1.89-1.566 2.165-.109.021-.23.033-.362.037-2.291.066-4.07-2.01-3.803-4.297l.013-.11a3.14 3.14 0 0 1 1.547-2.375c.537-.306 1.095-.713 1.38-1.197.647-1.093 1.25-1.743 2.08-2.078-.019-.02-.03.378-.03.378s1.195-.968 1.524-1.137c1.635-.842 2.315 1.145 4 1.47.318.061.526.533.391.684-.442.493-1.123.308-1.123.308l.516 1.68c.073.239.059.497-.04.727l-1.65 3.831s-.5.767-.97.633c-.35-.101-.451-.5-.766-.684-.205-.12-.92-.188-1.14-.034" fill="#EACBAC"/><path d="m22.624 95.671.63-.445c.35-.248.62-.593.777-.994l.954-2.437v-.136c-.814.339-1.412.984-2.05 2.064-.286.484-.844.891-1.381 1.197a2.957 2.957 0 0 0-.336.224l.32.384a.806.806 0 0 0 1.086.143" fill="#E99462"/></g></g></g></svg>