<?xml version="1.0" encoding="UTF-8"?>
<svg width="106px" height="106px" viewBox="0 0 106 106" version="1.1" xmlns="http://www.w3.org/2000/svg" xmlns:xlink="http://www.w3.org/1999/xlink">
    <title>4. Elements_Microillustrations/Girl</title>
    <defs>
        <path d="M88,44 C88,68.3004855 68.3000427,88 43.9990109,88 C19.6979792,88 0,68.3004855 0,44 C0,19.6995145 19.6979792,0 43.9990109,0 C68.3000427,0 88,19.6995145 88,44" id="path-1"></path>
    </defs>
    <g id="4.-Elements_Microillustrations/Girl" stroke="none" stroke-width="1" fill="none" fill-rule="evenodd">
        <g id="Vector-Smart-Object" transform="translate(9.000000, 9.000000)">
            <mask id="mask-2" fill="white">
                <use xlink:href="#path-1"></use>
            </mask>
            <use id="Mask" fill="#FFEACF" xlink:href="#path-1"></use>
            <g id="Group-273" mask="url(#mask-2)">
                <g transform="translate(2.000000, 18.000000)">
                    <g id="Group-238">
                        <path d="M56.4793492,27.1715388 C56.4793492,30.1110039 54.0874932,32.4936304 51.1366417,32.4936304 C48.1857902,32.4936304 45.7935208,30.1110039 45.7935208,27.1715388 C45.7935208,24.2320737 48.1857902,21.8494472 51.1366417,21.8494472 C54.0874932,21.8494472 56.4793492,24.2320737 56.4793492,27.1715388" id="Fill-1" fill="#0096B7"></path>
                        <path d="M64.2476508,38.5361937 C62.4453863,43.1107543 57.2610334,45.3640559 52.6683391,43.5687457 C48.0756449,41.7730238 45.8140283,36.6086756 47.6162928,32.0337032 C49.4189708,27.4591426 54.6029103,25.205841 59.1956045,27.001563 C63.7882987,28.797285 66.0499153,33.9612213 64.2476508,38.5361937" id="Fill-3" fill="#00547A"></path>
                        <path d="M39.3513451,34.1517078 C39.3513451,39.0664671 35.3519635,43.0504164 30.4181662,43.0504164 C25.4843689,43.0504164 21.4849873,39.0664671 21.4849873,34.1517078 C21.4849873,29.2369486 25.4843689,25.2529993 30.4181662,25.2529993 C35.3519635,25.2529993 39.3513451,29.2369486 39.3513451,34.1517078" id="Fill-5" fill="#00547A"></path>
                        <path d="M39.34105,27.1715388 C39.34105,30.1110039 36.949194,32.4936304 33.9983425,32.4936304 C31.047491,32.4936304 28.655635,30.1110039 28.655635,27.1715388 C28.655635,24.2320737 31.047491,21.8494472 33.9983425,21.8494472 C36.949194,21.8494472 39.34105,24.2320737 39.34105,27.1715388" id="Fill-7" fill="#00547A"></path>
                        <path d="M59.1957285,27.0013983 C56.6087203,25.9898631 53.8335885,26.2633401 51.581068,27.5129319 C50.3683949,29.8642569 51.8415467,33.1509223 54.9586084,34.9437613 C58.1476119,36.7777865 61.8410344,36.3515085 63.2091678,33.9915344 C63.811163,32.9524044 63.8611914,31.7122854 63.4572427,30.4927596 C62.4773467,28.9626891 61.0215602,27.7151566 59.1957285,27.0013983" id="Fill-9" fill="#0096B7"></path>
                        <path d="M30.8503954,42.8611242 L31.4834,43.7165633 C33.0743874,45.8668992 32.5786509,48.900269 30.3848414,50.4365174 L7.52886947,66.4435667 C5.37144433,67.9542796 2.39371803,67.439451 0.873845506,65.2928219 C-0.607988856,63.1993231 -0.161867406,60.3134002 1.88351055,58.7610891 L24.1064779,41.8986007 C26.2299995,40.2873933 29.2668503,40.720673 30.8503954,42.8611242" id="Fill-11" fill="#EFC8A1"></path>
                        <path d="M30.3848414,50.4365586 C32.5786509,48.9003102 33.0743874,45.8669404 31.4834,43.7166045 L30.8503954,42.8611654 C29.2668503,40.7207142 26.2299995,40.2874345 24.1064779,41.8986419 L9.62965083,52.8834357 L11.1768116,58.3204371 C11.4120693,59.1470458 11.0395435,60.0255492 10.2808476,60.434529 L7.35025551,62.014023 C6.92728772,62.242195 6.82723083,62.8031522 7.14559368,63.1622966 L9.08802053,65.3513476 L30.3848414,50.4365586 Z" id="Fill-13" fill="#E98C55"></path>
                        <path d="M30.9109671,42.9610833 L30.9109671,42.9610833 C33.2900058,46.0632342 32.713645,50.4952902 29.619737,52.8915082 L17.4975546,62.2790979 C17.1709226,62.5323936 16.711157,62.5183902 16.4027171,62.2436777 C15.7606165,61.672424 14.5495973,60.2951546 12.457912,56.9743046 C10.2541795,53.4755297 9.56742537,51.7943056 9.36317699,51.0224747 C9.27552384,50.6901014 9.39997478,50.3396061 9.67492451,50.1312035 L20.919335,41.6171749 C24.0525216,39.2448449 28.5220053,39.8461647 30.9109671,42.9610833" id="Fill-15" fill="#EE9554"></path>
                        <path d="M23.9382831,47.1151319 L19.2128688,53.5105381 C17.4866806,55.8462122 14.3030521,56.5677959 11.7325822,55.2061774 L11.2236151,54.9364072 C11.57092,55.5369033 11.9761091,56.2098871 12.4577879,56.9743046 C14.5494732,60.2951546 15.7609059,61.672424 16.4025931,62.2436777 C16.7114464,62.5183902 17.1707985,62.5319817 17.4974305,62.2790979 L29.5360944,52.9565826 L29.0750884,45.9545024 L28.6988414,43.5035067 C28.1361247,43.4952694 27.5779561,43.4689102 27.0243355,43.427312 L23.9382831,47.1151319 Z" id="Fill-17" fill="#D95B26"></path>
                        <path d="M20.919335,41.6170925 L20.1990908,42.1623989 C22.3391507,42.7764864 24.6359112,43.2480693 27.0244595,43.4272297 C27.5780801,43.4688278 28.1362488,43.495187 28.6989654,43.5034243 C29.5329107,43.5157802 30.3763656,43.4877735 31.2251953,43.4165212 C31.1251384,43.2628964 31.0246681,43.1092716 30.9109671,42.9610009 C28.5220053,39.8460823 24.0525216,39.2447625 20.919335,41.6170925" id="Fill-19" fill="#D95B26"></path>
                        <path d="M29.3889859,85.531803 C26.0945506,84.9790831 23.6907043,82.1273448 23.6907043,78.799493 L23.6907043,72.5000509 L23.3227265,56.3785038 L19.6305443,50.4204959 C17.0315458,46.2256729 19.6177271,40.7540751 24.5192747,40.0782082 L42.3488347,37.6181514 C43.0802423,37.5230111 43.8223999,37.5460754 44.5463653,37.6865207 L61.9049964,41.4249997 C66.5522671,42.4262382 68.7874224,47.7240299 66.2525099,51.7310435 L61.7301036,58.8813943 L60.4975845,73.4473354 C60.4454888,74.0634822 60.4773251,74.6837477 60.5930934,75.2916572 L61.0350802,77.6157992 C61.7631802,81.4477711 59.1315185,85.1154097 55.2532801,85.6504195 C52.2503328,86.0647535 48.0797795,86.3893015 42.3794306,86.3893015 C36.3603054,86.3893015 32.2145596,86.0058571 29.3889859,85.531803" id="Fill-21" fill="#EE9554"></path>
                        <path d="M61.7301449,58.881559 L63.4885828,56.1014848 C63.2566328,55.7349269 63.0399806,55.3588961 62.8555783,54.9655671 L60.8089599,50.6068227 L56.4064565,40.2406469 L55.0809094,39.9552259 L52.0990485,50.8242863 C51.8286468,51.8094622 50.9074618,52.4750325 49.8833257,52.4251971 L33.4818505,51.6282425 C32.664857,51.5882918 32.0074583,50.9453739 31.9524684,50.1323567 L31.4980778,43.3942806 C30.5566333,43.4840667 29.6222177,43.5170158 28.6989654,43.5034243 C28.1362488,43.495187 27.5780801,43.4688278 27.0244595,43.4272297 C25.9345836,43.345269 24.8633133,43.204 23.8172639,43.0145431 L23.9384072,47.1150495 L20.4814828,51.7933995 L23.3223544,56.3786685 L23.4368823,61.3902156 L23.6907457,72.4998038 L23.6907457,78.7992459 C23.6907457,82.1270977 26.0945919,84.978836 29.3890273,85.5319678 C32.2146009,86.0060219 36.3603468,86.3890543 42.3798854,86.3890543 C48.0794074,86.3890543 52.2503742,86.0649183 55.2533214,85.6505843 C59.1315598,85.1151626 61.7632216,81.4479358 61.0347081,77.615964 L60.5931347,75.2914101 C60.4773664,74.6839124 60.4455301,74.0632351 60.4976259,73.4470883 L61.7301449,58.881559 Z" id="Fill-23" fill="#D95B26"></path>
                        <path d="M28.6989241,43.5034655 C29.6221764,43.517057 30.556592,43.4841079 31.4984499,43.3943218 C34.6295692,43.096545 37.8417263,42.1834451 41.0009608,40.3498317 C42.3773633,39.5508178 43.5371137,38.6397772 44.5203174,37.6821961 C43.8046212,37.5462814 43.0715597,37.5240408 42.3488347,37.6179455 L24.5192747,40.0780022 C22.83774,40.309881 21.4286743,41.1068356 20.4078458,42.2225721 C21.5068179,42.5314692 22.6458953,42.8024749 23.8172226,43.0145843 C24.8632719,43.2040412 25.9345422,43.3453102 27.0244182,43.4272709 C27.5780388,43.468869 28.1362074,43.4952282 28.6989241,43.5034655" id="Fill-25" fill="#D95B26"></path>
                        <path d="M88.2030083,42.9057701 C88.4258623,42.8172196 88.6685623,42.8044519 88.9393774,42.7706791 L88.968733,42.7669724 C89.0315786,42.759147 89.0886359,42.7196081 89.1159241,42.6574168 C89.1580968,42.5635121 89.1155106,42.4535447 89.0212422,42.4115347 C88.7380233,42.2863284 88.4072567,42.2043677 88.0744228,42.2472014 C87.7444831,42.2793268 87.4170242,42.3954721 87.1433148,42.572985 C86.8658843,42.7467911 86.6355881,42.9753749 86.4503588,43.2257876 C86.270091,43.4836137 86.1303421,43.7509127 86.0637753,44.0725776 C86.0493043,44.1471247 86.0703906,44.2286736 86.1286883,44.2859225 C86.2208894,44.3761205 86.3689075,44.374473 86.4594549,44.2830395 L86.4772336,44.2649175 L87.0267196,43.7084908 C87.205747,43.5293305 87.3918032,43.3699395 87.581994,43.2270231 C87.775079,43.0861661 87.9813947,42.987319 88.2030083,42.9057701" id="Fill-90" fill="#E98C55"></path>
                        <path d="M57.3815978,44.4959314 L57.3815978,44.4959314 C55.0042129,46.5601879 54.8020318,50.1701657 56.9338225,52.4852467 L73.3766436,70.3423839 C75.3252723,72.458947 78.6246691,72.6092769 80.7593541,70.6784639 C82.8630296,68.7756576 83.0602492,65.5491241 81.2042351,63.4062018 L65.3150346,45.0581241 C63.2841277,42.7129771 59.7254926,42.4609171 57.3815978,44.4959314" id="Fill-92" fill="#EFC8A1"></path>
                        <path d="M73.3766436,70.3425486 C74.961429,72.0641353 77.4401112,72.4842354 79.458201,71.5427169 L77.8171852,71.3264889 C76.7698954,71.1885149 75.8007493,70.7008693 75.0681013,69.9426298 L73.7458618,68.5748333 C72.7527351,67.5468237 72.0601925,66.2684014 71.7426566,64.8771287 L70.2790144,58.4607176 L64.9921238,61.237085 L73.3766436,70.3425486 Z" id="Fill-94" fill="#E98C55"></path>
                        <path d="M76.771506,62.8903848 C76.770681,63.0921976 77.0435634,63.1552126 77.1353512,62.9752285 L78.5051383,60.2894709 L76.7781232,58.2944073 C76.7810174,59.9657467 76.7756425,61.8475481 76.771506,62.8903848" id="Fill-96" fill="#E98C55"></path>
                        <path d="M56.0301681,43.0980277 L56.0301681,43.0980277 C53.0784897,45.6655806 52.7564057,50.123584 55.3086835,53.0857016 L65.3102385,64.6915845 C65.5798133,65.0041884 66.0329636,65.0816186 66.3901915,64.8740398 C67.133176,64.4415838 68.5959912,63.3320253 71.3099312,60.4930547 C74.1694084,57.5021068 75.17866,55.990982 75.5329937,55.2751644 C75.6859733,54.9666792 75.6338775,54.5984738 75.406062,54.3398239 L66.0904342,43.7644218 C63.4947434,40.8175432 58.9946638,40.5197663 56.0301681,43.0980277" id="Fill-98" fill="#EE9554"></path>
                        <path d="M65.3103626,64.6915021 C65.5799373,65.004106 66.0330876,65.0819481 66.3903155,64.8739574 C67.0406853,64.4954554 68.2417816,63.5992419 70.3500052,61.478972 C69.0075062,61.4077197 67.7336414,60.8311118 66.7942642,59.8533494 L65.8098201,58.8290465 C64.3329473,57.2919744 63.1182069,55.5250828 62.2131468,53.5975647 L60.8090426,50.6066168 L57.2557824,42.2412706 C56.8266128,42.4793273 56.4152218,42.7635127 56.0302922,43.0979453 C53.0786137,45.6654983 52.7565298,50.1235016 55.309221,53.0856192 L65.3103626,64.6915021 Z" id="Fill-100" fill="#D95B26"></path>
                        <path d="M43.3112828,26.1694353 C40.5332568,26.1694353 38.194737,28.2114513 37.8011247,30.950751 C37.5952225,32.3836219 37.2586675,33.8482061 36.7856713,35.1904671 C35.9227839,37.6398154 33.3899387,38.8749921 33.3899387,38.8749921 C33.3899387,38.8749921 33.5214184,43.9396694 42.7539411,43.9396694 C51.9860503,43.9396694 52.9626387,39.5739233 52.9626387,39.5739233 C52.9626387,39.5739233 48.8479022,37.4363552 48.775547,32.2444122 C48.7631433,31.3494343 48.7528068,30.5825457 48.7441242,29.9264482 C48.7172494,27.8457171 46.2927302,26.1694353 43.3112828,26.1694353" id="Fill-102" fill="#EFC8A1"></path>
                        <path d="M48.7623577,31.2813122 C48.7553289,30.7866649 48.7495405,30.3323802 48.7441655,29.9262834 C48.7172908,27.8455524 46.2927716,26.1692706 43.3113242,26.1692706 C40.5332982,26.1692706 38.1943649,28.2112866 37.8011661,30.9509982 C37.5952639,32.3834571 37.2587089,33.8480414 36.7857126,35.1907142 C35.9228253,37.6396507 33.38998,38.8748273 33.38998,38.8748273 C33.38998,38.8748273 33.4482776,41.0140429 36.0228822,42.5119881 C37.6837439,42.0128103 39.3495672,41.308113 41.0009195,40.3497082 C45.4435284,37.7714468 47.6675203,34.0395576 48.7623577,31.2813122" id="Fill-104" fill="#E98C55"></path>
                        <path d="M32.0580656,22.4206598 C32.4512644,24.7365645 32.0803924,26.3708363 30.6622306,26.7794042 C29.0092245,27.2555176 27.6613506,25.104358 27.2731133,23.296692 C26.5660997,20.0063198 27.8751085,18.0186697 29.2279439,18.1533489 C31.7765006,18.4074683 31.7483854,20.5981667 32.0580656,22.4206598" id="Fill-106" fill="#EFC8A1"></path>
                        <path d="M54.8705418,22.4206598 C54.477343,24.7365645 54.8482151,26.3708363 56.2663768,26.7794042 C57.9193829,27.2555176 59.2672568,25.104358 59.6554941,23.296692 C60.3625077,20.0063198 59.0534989,18.0186697 57.7006635,18.1533489 C55.1521069,18.4074683 55.180222,20.5981667 54.8705418,22.4206598" id="Fill-108" fill="#EFC8A1"></path>
                        <path d="M29.2278612,18.1533901 C27.9411792,18.0253007 26.6979102,19.8197871 27.1874448,22.8272096 C27.2870882,22.7497794 27.3726741,22.5479666 27.4214621,22.1777019 C27.5835378,20.9454083 28.4224446,20.285604 28.9768921,20.2658346 C30.6274174,20.2065263 32.1572129,22.9338821 30.6654556,25.570628 C30.314843,26.1904815 30.185844,26.660417 30.3371697,26.8387536 C30.4442554,26.8292808 30.552168,26.8111588 30.6621479,26.7794454 C32.0803097,26.3708775 32.4511817,24.7366057 32.0579829,22.420701 C31.7487162,20.5982079 31.7764179,18.4075094 29.2278612,18.1533901" id="Fill-110" fill="#E98C55"></path>
                        <path d="M57.9325309,18.1529782 C57.8556277,18.1468003 57.778311,18.1455647 57.7009943,18.1533901 C55.1520242,18.4075094 55.1801393,20.5982079 54.8704591,22.420701 C54.8324209,22.6439306 54.8043058,22.8593349 54.7807387,23.0693849 C55.2711001,23.2048878 55.7101928,23.0442613 55.8424994,22.4676533 C56.3291398,20.3477953 56.8645682,18.7040507 57.9325309,18.1529782" id="Fill-112" fill="#E98C55"></path>
                        <path d="M56.8572914,25.1685263 C56.8572914,25.5058419 56.5827551,25.7793189 56.2441328,25.7793189 C55.9055105,25.7793189 55.6309742,25.5058419 55.6309742,25.1685263 C55.6309742,24.8312106 55.9055105,24.5577337 56.2441328,24.5577337 C56.5827551,24.5577337 56.8572914,24.8312106 56.8572914,25.1685263" id="Fill-114" fill="#E98C55"></path>
                        <path d="M30.7278464,25.1685263 C30.7278464,25.5058419 30.4533101,25.7793189 30.1146878,25.7793189 C29.7760655,25.7793189 29.5015292,25.5058419 29.5015292,25.1685263 C29.5015292,24.8312106 29.7760655,24.5577337 30.1146878,24.5577337 C30.4533101,24.5577337 30.7278464,24.8312106 30.7278464,25.1685263" id="Fill-116" fill="#E98C55"></path>
                        <path d="M56.9925336,25.0412195 C56.9925336,25.3785351 56.7179973,25.6520121 56.379375,25.6520121 C56.0407527,25.6520121 55.7662164,25.3785351 55.7662164,25.0412195 C55.7662164,24.7039038 56.0407527,24.4304269 56.379375,24.4304269 C56.7179973,24.4304269 56.9925336,24.7039038 56.9925336,25.0412195" id="Fill-118" fill="#0096B7"></path>
                        <path d="M30.8631299,25.0412195 C30.8631299,25.3785351 30.5885937,25.6520121 30.2499714,25.6520121 C29.9113491,25.6520121 29.6368128,25.3785351 29.6368128,25.0412195 C29.6368128,24.7039038 29.9113491,24.4304269 30.2499714,24.4304269 C30.5885937,24.4304269 30.8631299,24.7039038 30.8631299,25.0412195" id="Fill-120" fill="#0096B7"></path>
                        <path d="M44.8667954,8.06575711 C50.5609424,8.02498268 55.1738961,12.7198072 55.1114639,18.4924768 L55.1077428,18.8697431 C55.160252,19.1687555 55.6183637,26.1687764 53.8094839,28.8561814 C51.8654032,31.7433399 49.9684568,32.2375753 46.6814637,33.1593243 C44.657999,33.7268713 42.5200064,33.7499356 40.4808303,33.2433444 C37.0507807,32.391612 34.91899,32.1086622 33.2047921,28.9900368 C31.6592852,26.1774255 31.7651305,19.33556 31.8151589,19.0361357 L31.8077167,18.6584575 C31.6919484,12.8870235 36.2614889,8.12671281 41.9552225,8.08635025 L44.8667954,8.06575711 Z" id="Fill-122" fill="#EFC8A1"></path>
                        <path d="M40.480665,33.2435091 C41.4332728,33.4799184 42.4069669,33.5960637 43.3806611,33.6001823 C32.2127404,31.6743117 33.2079344,22.4160469 34.6066636,18.0309433 C35.380244,15.6071304 35.1991493,12.7776327 34.9502474,10.9777921 C32.9644075,12.9119 31.7471864,15.6466693 31.8075513,18.6586222 L31.8149935,19.0358886 C31.7649651,19.3357247 31.6595332,26.1771784 33.2050402,28.9897897 C34.9188246,32.108827 37.0506153,32.3917767 40.480665,33.2435091" id="Fill-124" fill="#E98C55"></path>
                        <path d="M39.5388898,22.5109401 C39.595947,22.3927355 39.630264,22.262175 39.630264,22.1221416 L39.630264,21.0372949 C39.630264,20.5377052 39.2238346,20.1328441 38.7227232,20.1328441 C38.2211983,20.1328441 37.8151823,20.5377052 37.8151823,21.0372949 L37.8151823,22.1221416 C37.8151823,22.265058 37.8511532,22.3980897 37.9102777,22.5183536 C38.155045,22.3836745 38.432062,22.3004782 38.7309923,22.3004782 C39.0249612,22.3004782 39.2974301,22.3812033 39.5388898,22.5109401" id="Fill-126" fill="#00547A"></path>
                        <path d="M48.9878578,22.4687242 C49.0325113,22.3620517 49.0573188,22.2450826 49.0573188,22.1223475 L49.0573188,21.0370889 C49.0573188,20.5379112 48.6513028,20.13305 48.149778,20.13305 C47.6486666,20.13305 47.2422371,20.5379112 47.2422371,21.0370889 L47.2422371,22.1223475 C47.2422371,22.2817384 47.2873041,22.4295972 47.3600727,22.5597459 C47.6217918,22.3982956 47.9277509,22.3006841 48.258104,22.3006841 C48.5202366,22.3006841 48.7658308,22.364111 48.9878578,22.4687242" id="Fill-128" fill="#00547A"></path>
                        <path d="M50.43153,19.3716804 L50.43153,19.3716804 C50.3306462,19.4573478 50.1838685,19.4622902 50.0780232,19.3828007 L49.2114147,18.7353523 C49.0390026,18.6068511 48.8393023,18.5191243 48.6280251,18.4791736 L47.1966327,18.2085797 C46.9828748,18.1682171 46.8927409,17.9128622 47.0341436,17.748117 L47.2454207,17.5022349 C47.316949,17.4190386 47.43065,17.3844422 47.5364954,17.4140963 L49.0084067,17.8206049 C49.2312607,17.8823843 49.4359225,17.9981178 49.6037866,18.1570968 L50.4426934,18.9532277 C50.5642501,19.0685493 50.5592886,19.2629486 50.43153,19.3716804" id="Fill-130" fill="#00547A"></path>
                        <path d="M36.5578558,19.3716804 L36.5578558,19.3716804 C36.6587396,19.4573478 36.8055173,19.4622902 36.911776,19.3828007 L37.7783845,18.7353523 C37.9503832,18.6068511 38.1500835,18.5191243 38.3613607,18.4791736 L39.7927531,18.2085797 C40.006511,18.1682171 40.0966449,17.9128622 39.9552422,17.748117 L39.7439651,17.5022349 C39.6724368,17.4190386 39.5591492,17.3844422 39.4528904,17.4140963 L37.9813925,17.8206049 C37.7581251,17.8823843 37.5534632,17.9981178 37.3855992,18.1570968 L36.5466924,18.9532277 C36.4251357,19.0685493 36.4300972,19.2629486 36.5578558,19.3716804" id="Fill-132" fill="#00547A"></path>
                        <path d="M49.4564301,23.4704158 L49.9889643,23.4704158 C50.2006549,23.4704158 50.3718266,23.6413389 50.3718266,23.8518008 L50.3718266,23.9510597 C50.3718266,24.1619335 50.2006549,24.3328566 49.9889643,24.3328566 L49.4564301,24.3328566 C49.2447394,24.3328566 49.0735677,24.1619335 49.0735677,23.9510597 L49.0735677,23.8518008 C49.0735677,23.6413389 49.2447394,23.4704158 49.4564301,23.4704158" id="Fill-134" fill="#FF97A6"></path>
                        <path d="M47.991961,24.4216542 L48.5244952,24.4216542 C48.7361858,24.4216542 48.9073575,24.5925773 48.9073575,24.8030392 L48.9073575,24.9022981 C48.9073575,25.1131719 48.7361858,25.284095 48.5244952,25.284095 L47.991961,25.284095 C47.7802703,25.284095 47.6090986,25.1131719 47.6090986,24.9022981 L47.6090986,24.8030392 C47.6090986,24.5925773 47.7802703,24.4216542 47.991961,24.4216542" id="Fill-136" fill="#FF97A6"></path>
                        <path d="M46.5274918,23.4704158 L47.0600261,23.4704158 C47.2717167,23.4704158 47.4428884,23.6413389 47.4428884,23.8518008 L47.4428884,23.9510597 C47.4428884,24.1619335 47.2717167,24.3328566 47.0600261,24.3328566 L46.5274918,24.3328566 C46.3162147,24.3328566 46.1446295,24.1619335 46.1446295,23.9510597 L46.1446295,23.8518008 C46.1446295,23.6413389 46.3162147,23.4704158 46.5274918,23.4704158" id="Fill-138" fill="#FF97A6"></path>
                        <path d="M39.9293184,23.4704158 L40.4618526,23.4704158 C40.6735432,23.4704158 40.8447149,23.6413389 40.8447149,23.8518008 L40.8447149,23.9510597 C40.8447149,24.1619335 40.6735432,24.3328566 40.4618526,24.3328566 L39.9293184,24.3328566 C39.7176278,24.3328566 39.546456,24.1619335 39.546456,23.9510597 L39.546456,23.8518008 C39.546456,23.6413389 39.7176278,23.4704158 39.9293184,23.4704158" id="Fill-140" fill="#FF97A6"></path>
                        <path d="M38.4648493,24.4216542 L38.9973835,24.4216542 C39.2090741,24.4216542 39.3802458,24.5925773 39.3802458,24.8030392 L39.3802458,24.9022981 C39.3802458,25.1131719 39.2090741,25.284095 38.9973835,25.284095 L38.4648493,25.284095 C38.2531586,25.284095 38.0819869,25.1131719 38.0819869,24.9022981 L38.0819869,24.8030392 C38.0819869,24.5925773 38.2531586,24.4216542 38.4648493,24.4216542" id="Fill-142" fill="#FF97A6"></path>
                        <path d="M37.0003802,23.4704158 L37.5329144,23.4704158 C37.744605,23.4704158 37.9157767,23.6413389 37.9157767,23.8518008 L37.9157767,23.9510597 C37.9157767,24.1619335 37.744605,24.3328566 37.5329144,24.3328566 L37.0003802,24.3328566 C36.789103,24.3328566 36.6175178,24.1619335 36.6175178,23.9510597 L36.6175178,23.8518008 C36.6175178,23.6413389 36.789103,23.4704158 37.0003802,23.4704158" id="Fill-144" fill="#FF97A6"></path>
                        <path d="M43.1845165,20.7723847 C43.1167094,21.2505574 43.0427003,21.7270828 42.9571145,22.2015487 L42.7015973,23.6039417 C42.6825782,23.7542716 42.7516257,23.9070728 42.8665671,23.9997419 C42.9240378,24.0462824 42.9910181,24.0800552 43.0642002,24.0915873 C43.1357284,24.1031195 43.2911887,24.1154754 43.4007552,24.1274194 L43.7550889,24.1677819 C43.828271,24.1751955 43.9047608,24.1727243 43.9783564,24.1480125 C44.0544327,24.1249482 44.1214129,24.0907636 44.1929412,24.0273367 C44.2826616,23.9445523 44.373209,23.8621797 44.4740928,23.7884563 C44.5435538,23.7377971 44.6407165,23.7522123 44.6915718,23.8214053 C44.7254754,23.8671221 44.7300235,23.9256066 44.7093505,23.9742064 C44.6597355,24.0887043 44.5997841,24.1953767 44.5394192,24.3012255 C44.4641698,24.4284911 44.3368247,24.5495788 44.1917008,24.6245378 C44.0449231,24.6978494 43.8754053,24.7373882 43.7079547,24.7242086 C43.5752346,24.7135002 43.4636008,24.7036155 43.3408037,24.6892003 C43.2101509,24.6723139 43.1241516,24.669019 42.9571145,24.6418361 C42.7917312,24.6105345 42.635444,24.5331043 42.5080988,24.4256081 C42.2488605,24.212675 42.1186212,23.8584729 42.1711304,23.5318657 C42.279043,23.0207439 42.4039073,22.584993 42.5192622,22.107644 C42.6366843,21.6401797 42.7656833,21.1755984 42.9012976,20.7118409 C42.9236244,20.6352344 43.0042487,20.5907532 43.081152,20.6129938 C43.1514399,20.6335869 43.1944395,20.702368 43.1845165,20.7723847" id="Fill-146" fill="#E98C55"></path>
                        <path d="M43.1850954,27.2972394 C43.4075359,27.5044064 43.7039855,27.5727756 43.9950601,27.592545 C44.2906827,27.6081958 44.5962284,27.583484 44.9059086,27.5373554 C45.2151754,27.4957572 45.5112115,27.4360371 45.7659017,27.3277172 C46.0226593,27.2235159 46.2244269,27.0410607 46.4385983,26.7597583 C46.4629924,26.727633 46.5088862,26.7214551 46.541136,26.745755 C46.560155,26.7601702 46.5704915,26.7819989 46.5704915,26.8038277 L46.5704915,26.8100056 C46.5688377,27.1563823 46.3736854,27.5633027 46.03589,27.7840612 C45.709258,28.0126451 45.3383859,28.1040787 44.9865329,28.1469124 C44.6342665,28.1893343 44.2613272,28.1880987 43.8983108,28.0777194 C43.5460444,27.9751656 43.1619417,27.73958 43.0693271,27.3408968 C43.0614713,27.3083596 43.0817308,27.2758225 43.1148075,27.268409 C43.1350669,27.2634666 43.1553264,27.2696445 43.1697974,27.2828242 L43.1850954,27.2972394 Z" id="Fill-148" fill="#1C417D"></path>
                        <path d="M57.5261428,8.77968015 C56.8898305,7.5655085 55.7904451,5.88346066 54.7443957,5.51690274 C53.1889658,2.53707509 49.9768086,0 43.5409175,0 C36.7920385,0 33.5368817,2.6190358 32.014115,5.5893906 C31.0209883,6.06632776 30.0042945,7.63099469 29.4022993,8.77968015 C28.057733,11.3464094 28.2632218,13.6260702 28.785833,15.1619067 C29.2501466,16.5259964 29.0268792,18.1561496 29.0268792,18.1561496 C29.0268792,18.1561496 29.3402805,18.0972532 29.9856889,18.3270726 C31.5704743,18.8913247 31.6779735,20.2706534 31.6143009,20.9988269 C31.5865992,21.3097833 31.7093963,21.6125025 31.9467213,21.8159628 L32.5152264,22.3023728 C32.7198883,22.4774145 33.0370107,22.3279083 33.0295685,22.05855 L32.8873388,16.5725369 C32.8873388,16.5725369 34.9926682,14.2105036 35.6219517,9.67795301 C37.5246866,8.55150814 40.0318974,7.64623362 43.1803819,7.64623362 C46.6153931,7.64623362 49.36365,8.87935096 51.4098549,10.3286963 C52.1375414,14.4349688 54.0411032,16.5725369 54.0411032,16.5725369 L53.8988736,22.05855 C53.8918448,22.3279083 54.2085538,22.4774145 54.4136291,22.3023728 L54.9817207,21.8159628 C55.2194592,21.6125025 55.3418429,21.3097833 55.3145546,20.9988269 C55.250882,20.2706534 55.3583812,18.8913247 56.9431667,18.3270726 C57.588575,18.0972532 57.9015629,18.1561496 57.9015629,18.1561496 C57.9015629,18.1561496 57.6787089,16.5259964 58.1430225,15.1619067 C58.6656337,13.6260702 58.8711225,11.3464094 57.5261428,8.77968015" id="Fill-150" fill="#0096B7"></path>
                        <path d="M32.0140737,5.58955534 C31.020947,6.06608065 30.0042531,7.63115944 29.4026714,8.7798449 C28.0576917,11.3465741 28.2631804,13.6258231 28.7857917,15.1616596 C29.2501053,16.5257493 29.0268378,18.1559024 29.0268378,18.1559024 C29.0268378,18.1559024 29.3402392,18.0970061 29.9856475,18.3268255 C31.570433,18.8910776 31.6779321,20.2708181 31.6142595,20.9989916 C31.5865578,21.3095362 31.7093549,21.6126673 31.9470934,21.8157156 L32.5147716,22.3021256 C32.7202604,22.4775792 33.0369694,22.3276611 33.0299406,22.0583028 L32.8872975,16.5727017 C32.8872975,16.5727017 34.1628162,15.1324173 35.0252901,12.3568737 C32.8901917,5.35355793 35.6706984,2.17356495 37.8173736,0.821007384 C34.7908593,1.82265781 33.0204311,3.62661705 32.0140737,5.58955534" id="Fill-152" fill="#00547A"></path>
                        <path d="M55.5351346,10.0832672 C55.0542826,8.46917676 54.0400696,7.01859584 52.7562817,5.91233225 C51.4778688,4.78588738 49.9224389,4.02764789 48.3277304,3.52641082 C46.7173105,3.06471258 45.0618237,2.8760794 43.4203944,2.83406939 C43.009417,2.82789144 42.5976125,2.86701841 42.1862216,2.88225734 C41.7752441,2.89955558 41.3642666,2.91850127 40.9528756,2.9901654 C40.5418981,3.05070924 40.1305072,3.10136837 39.72077,3.17220878 C39.3143406,3.27187958 38.9058438,3.36496059 38.5018951,3.47410424 C36.9034655,3.96669219 35.3298434,4.71134021 34.0596997,5.86126126 C33.9017587,6.00417766 33.7384426,6.14091612 33.5867035,6.28959861 L33.1620818,6.76941882 C33.0260541,6.93375209 32.8701803,7.0799634 32.7531716,7.25912373 L32.3975975,7.78919121 C32.1449746,8.13144923 31.9862066,8.53177991 31.7910543,8.90410392 C31.6049981,9.282194 31.4917105,9.69282125 31.3461732,10.0832672 C30.9079075,11.7010645 30.932715,13.4234749 31.4726914,14.9469555 C31.5037008,15.0342704 31.5917674,15.0923431 31.6881032,15.0820465 C31.7062954,15.0803991 31.7220068,15.0725737 31.7381316,15.0663957 C31.6905839,15.0528042 31.6529592,15.0161485 31.6492381,14.9663131 C31.5458736,13.4724865 31.6657764,11.9432398 32.1048691,10.4638285 C32.5505771,8.99141884 33.4180125,7.60096989 34.6277913,6.57584328 C35.8284741,5.53300657 37.3194045,4.90079711 38.8161234,4.51735281 C39.5690309,4.32377728 40.3343421,4.20227774 41.0984129,4.12690684 C41.8637241,4.04247496 42.6286219,4.01693946 43.3922793,4.01282083 C44.9183537,4.03300211 46.4601395,4.17097616 47.9638871,4.56595263 C49.456058,4.97246125 50.9300366,5.61908591 52.1336136,6.64585997 C53.3495943,7.65286461 54.2455583,9.01324757 54.7379871,10.4720657 C55.2250409,11.9362381 55.3800877,13.4708391 55.2800308,14.9663131 C55.2767232,15.0198552 55.2345504,15.0548636 55.1849355,15.0659839 C55.1882431,15.0672194 55.1903104,15.0696906 55.1936181,15.0709262 C55.3007038,15.1092295 55.4181259,15.053628 55.4565775,14.9469555 C56.0019289,13.4255342 56.0101981,11.6928272 55.5351346,10.0832672" id="Fill-154" fill="#EE9554"></path>
                        <path d="M55.2801549,14.9662719 C55.3802118,13.4707979 55.2247515,11.936197 54.7381111,10.4720246 C54.2456823,9.01320638 53.3497183,7.65282342 52.1337376,6.64581878 C50.9301607,5.61904472 49.456182,4.97242006 47.9640112,4.56591144 C46.4602635,4.17093498 44.9180643,4.03296093 43.3924033,4.01277965 C42.6283325,4.01731014 41.8634347,4.04284563 41.098537,4.12686565 C40.3344661,4.20223655 39.5687414,4.32373609 38.8162474,4.51731162 C37.3195286,4.90116779 35.8285981,5.53296539 34.6279154,6.5758021 C33.4181365,7.6009287 32.5502877,8.99137765 32.1049931,10.4637873 C31.665487,11.9431986 31.5459976,13.4728572 31.6493622,14.9662719 C31.6526698,15.0161073 31.690708,15.0527631 31.7382557,15.0663545 C31.7461114,15.0688257 31.7510729,15.0758274 31.7597555,15.0762392 C31.8250819,15.0807697 31.8817257,15.0313462 31.8862737,14.9662719 C31.9970805,13.4938622 32.2129057,12.0263949 32.7681802,10.6964898 C33.2870703,9.35834744 34.1445827,8.18824511 35.2476893,7.32951109 C36.3574112,6.47530756 37.6891602,5.92258763 39.0845818,5.61698541 C40.4762823,5.28914259 41.9333092,5.18617688 43.3870284,5.19276668 C44.8419879,5.19317854 46.2928129,5.32415093 47.6849269,5.65775983 C49.0749735,5.98766196 50.4013476,6.55109033 51.5226463,7.4003515 C52.6410509,8.25002454 53.5258515,9.40076931 54.0869144,10.7220253 C54.6822943,12.0342203 54.9311961,13.4963334 55.0428299,14.9662719 C55.0473779,15.0243445 55.0936852,15.0725325 55.1536367,15.0767038 C55.165627,15.0774748 55.1738961,15.0684138 55.1850595,15.0659427 C55.2346745,15.0548224 55.2764338,15.019814 55.2801549,14.9662719" id="Fill-156" fill="#D95B26"></path>
                        <path d="M56.2055985,16.1815555 C56.1931947,16.8022328 55.5556421,17.2173906 54.982589,16.9727441 C54.1383072,16.6131878 52.9649127,16.0287544 51.9382959,15.2145016 C49.5700071,13.3359952 48.4838522,10.6387055 48.5859764,8.78697012 C46.1292075,9.1164604 43.7724955,12.237557 43.7282555,15.6939099 C43.7237074,16.039051 43.440902,16.315411 43.094424,16.315411 L41.2867845,16.315411 C40.8778743,16.315411 40.4925312,16.1247185 40.2552062,15.792757 C39.6461822,14.9418484 38.6662861,13.105352 39.2744832,10.681951 C39.2744832,10.681951 38.4421918,13.4879726 38.9292456,15.5563478 C39.0264083,15.9686225 38.7584873,16.3755429 38.3371734,16.4344393 L37.1596443,16.5991845 C36.6606002,16.6687893 36.1863636,16.3615396 36.05323,15.8771889 C35.7476843,14.7651592 35.3693701,12.7639177 36.0284225,11.2120185 C34.7549711,11.9484293 34.7326443,15.0287515 34.7839132,16.3430058 C34.7975573,16.6902062 34.5548573,16.9953965 34.2133408,17.0650013 L31.7652545,17.5637672 C31.7652545,17.5637672 30.8990595,16.5522321 30.8990595,14.5324567 C30.8990595,11.1399425 33.2512234,8.51596438 34.8769413,7.45747688 C40.8667109,3.55754765 46.3082349,5.01059975 48.3912376,5.65681254 C51.0568029,6.48383313 53.4664376,7.81826873 55.1694721,10.8574046 C56.1092627,12.534922 56.2337136,14.801815 56.2055985,16.1815555" id="Fill-158" fill="#0096B7"></path>
                        <path d="M51.0123562,12.3287846 C49.3064274,9.67432861 49.1894187,7.16361274 49.1894187,7.16361274 C49.1894187,7.16361274 48.7093937,7.74804611 48.5845293,8.87696215 C48.5208567,10.7254026 49.607425,13.3654434 51.9380892,15.2142957 C52.964706,16.0285485 54.138514,16.6129819 54.9827957,16.97295 C55.1448713,17.0421429 55.3106681,17.0536751 55.4669553,17.0277278 C54.8562775,16.5355517 52.4044701,14.4947713 51.0123562,12.3287846" id="Fill-160" fill="#00547A"></path>
                        <path d="M45.1983063,5.88399609 C43.2095721,5.90747227 41.4399708,6.77444354 40.3550563,8.3543494 C39.6348121,9.40336405 39.2548439,10.4733837 39.0799511,11.4750341 C39.1837291,10.9910953 39.2746899,10.6821982 39.2746899,10.6821982 C38.6664929,13.1051873 39.6463889,14.9416837 40.2549994,15.7930041 C40.4385749,16.0495947 40.7114574,16.2188703 41.0149357,16.2835328 L42.0043413,16.2757074 C39.2548439,11.5166323 42.0630524,6.79297737 45.1983063,5.88399609" id="Fill-162" fill="#00547A"></path>
                        <path d="M42.0943098,5.70541236 C39.2786591,6.39693007 37.8286611,8.00237141 36.6817279,9.89282185 C36.4067781,10.345871 36.1926068,10.7873879 36.0243293,11.2149016 C36.0255696,11.2140778 36.02681,11.2128422 36.0284638,11.2120185 C35.3694114,12.7639177 35.7477257,14.7651592 36.0532713,15.8771889 C36.1864049,16.3615396 36.6606415,16.6687893 37.1596856,16.5991845 L38.3372147,16.4344393 C38.3707048,16.4299088 38.4013007,16.4196123 38.433137,16.4105513 C36.195501,11.8281653 38.849076,7.19841515 42.0943098,5.70541236" id="Fill-164" fill="#00547A"></path>
                        <path d="M37.809766,5.92905388 C36.8559178,6.31002701 35.874368,6.80838104 34.8771067,7.45747688 C33.2513888,8.51596438 30.8992249,11.1399425 30.8992249,14.5324567 C30.8992249,16.5522321 31.7654199,17.5641791 31.7654199,17.5641791 L33.9794888,17.1123656 C32.5952306,13.0135066 34.7530692,8.12181164 37.809766,5.92905388" id="Fill-166" fill="#00547A"></path>
                        <path d="M23.0710074,89.8903415 L23.0978879,77.3907162 C23.0995417,76.4932671 23.1545317,75.5966417 23.2620308,74.7057823 L25.3276682,57.5895865 L25.3218798,39.9803908 C25.3218798,39.5598788 25.6394157,39.2069123 26.0590759,39.1616074 L29.5788459,38.7781631 C30.0712747,38.724621 30.5000309,39.1109483 30.4958963,39.6039481 L30.4036951,50.5273743 C30.3941856,51.6443464 31.2802266,52.5652717 32.4006985,52.6027512 L51.1080304,53.2333132 C52.1077724,53.267086 52.9884385,52.5825699 53.1988888,51.6081024 L55.6341578,40.328003 C55.7300802,39.8823674 56.1716536,39.5994176 56.6190154,39.6966173 L60.6287335,40.5689428 C61.0736146,40.6657305 61.3560065,41.1023051 61.2609111,41.5462933 L57.9139666,57.1332424 C57.7932368,57.6954352 57.7919964,58.2761618 57.9102455,58.8387665 L61.3613815,75.2515006 L64.1261768,87.9171067 C64.4606645,89.4480008 63.4447976,90.9471816 61.8943292,91.2111856 L46.8498239,93.7709132 C44.9896752,94.0872239 43.0964499,94.1646541 41.2164553,94.0003208 L25.5898008,92.6349955 C24.1621294,92.5097892 23.0681189,91.3178581 23.0710074,89.8903415" id="Fill-180" fill="#0080F6"></path>
                        <path d="M31.7300279,63.5765483 C30.0385702,60.7318116 29.099193,57.5061019 29.0003765,54.2009026 L28.5430917,38.8907252 L26.0590345,39.1613191 C25.6397879,39.2070359 25.3218385,39.5600024 25.3218385,39.9805143 L25.3276269,57.58971 L23.2624029,74.705494 C23.1544903,75.5967652 23.0995004,76.4933906 23.0978465,77.3908398 L23.070966,89.8904651 C23.0680776,91.3175698 24.1620881,92.5099127 25.5897594,92.6347072 L34.2744499,93.3937704 C34.5043327,89.872755 35.1662794,86.3888072 36.2499534,83.0205929 L37.3001374,79.7569918 C38.204784,76.9447923 37.8578926,73.8817684 36.3471161,71.3409865 L31.7300279,63.5765483 Z" id="Fill-182" fill="#0065C4"></path>
                        <path d="M32.0528147,57.6129803 L32.2401113,66.1500732 L40.0296647,71.1710931 L48.8462484,68.3267683 L49.2667354,66.2810456 C49.2729373,66.2509796 49.2956775,66.2320339 49.3221388,66.2213255 L49.7599911,59.016197 C49.7831448,58.6385187 49.4962048,58.3127352 49.117477,58.2859641 L45.3202764,58.0157821 C45.3033247,58.0244312 45.2871998,58.0359634 45.2665269,58.0351397 L32.0528147,57.6129803 Z" id="Fill-184" fill="#0080F6"></path>
                        <path d="M49.444109,66.2978908 C49.4436956,66.2567045 49.4147535,66.2200487 49.3725807,66.2118114 C49.3543886,66.2076928 49.3382637,66.2146945 49.3221388,66.2212843 C49.2956775,66.2319927 49.2729373,66.2509384 49.2667354,66.2810044 L48.8462484,68.3267271 L40.0296647,71.1714638 L32.2401113,66.150032 L32.0528147,57.6129391 L45.2665269,58.0350985 C45.2871998,58.0359222 45.3033247,58.0243901 45.3202764,58.0157409 C45.3558339,57.997619 45.3843625,57.9692004 45.3876701,57.9271904 C45.3926316,57.862528 45.3438436,57.8061028 45.2793441,57.8011604 L31.6496929,56.7710914 L31.6277796,56.7697553 C31.4028583,56.7649135 31.2163887,56.9428382 31.2114272,57.1668916 L31.2110137,57.1850136 L31.0070585,66.4906426 C31.0030442,66.6957503 31.1055819,66.8979749 31.2941188,67.0120609 L31.29784,67.0141203 L39.7067538,72.0981552 L39.7203979,72.1063924 C39.8353393,72.1751735 39.9788093,72.1937073 40.1148371,72.1455194 L49.2452356,68.9070419 L49.2816199,68.8942741 C49.394494,68.8539116 49.4747049,68.7455916 49.4730762,68.6195616 L49.444109,66.2978908 Z" id="Fill-186" fill="#0065C4"></path>
                        <path d="M56.0747803,50.0522494 C54.8178672,49.8599094 53.6370305,50.7235858 53.4443589,51.9764726 L53.354225,52.5613178 C53.2611969,53.1684036 53.4108688,53.7750776 53.775539,54.2701367 C54.1406226,54.764784 54.6772914,55.08892 55.2854885,55.1815892 L55.3082287,55.1848841 C55.4260643,55.203006 55.543073,55.2116552 55.6588413,55.2116552 C56.7784862,55.2116552 57.7637572,54.3961667 57.9386501,53.2606609 L58.0283705,52.6762275 C58.2210421,51.4229289 57.3544336,50.2474724 56.0747803,50.0522494" id="Fill-188" fill="#0065C4"></path>
                        <path d="M57.312757,54.0067916 C56.9654521,54.260911 56.554888,54.3939427 56.1319202,54.3939427 C56.0302095,54.3939427 55.9276718,54.3865292 55.8251342,54.3708784 L55.7593943,54.3605818 C54.668278,54.1946011 53.9166109,53.1748287 54.0836481,52.0879226 L54.1113498,51.9075267 C54.0939845,51.9742485 54.0708309,52.0393228 54.0600809,52.1085158 L53.9959949,52.5261447 C53.8289578,53.6126389 54.5806249,54.6324113 55.6713277,54.798392 L55.7370676,54.8086886 C55.8396052,54.8243394 55.9409025,54.8317529 56.0409594,54.8317529 C57.0121728,54.8317529 57.8672045,54.1241725 58.0189437,53.1394085 L58.0549145,52.9025873 C57.9399731,53.3441043 57.6869367,53.7329028 57.312757,54.0067916" id="Fill-190" fill="#D95B26"></path>
                        <path d="M56.4513167,50.2964017 L56.3851634,50.286517 C55.4548823,50.1448361 54.576697,50.7844591 54.4336405,51.7140336 L54.3695544,52.1316625 C54.2264979,53.0612369 54.8698389,53.9335624 55.8030142,54.0760669 L55.868754,54.0859517 C56.3223177,54.1543209 56.7729872,54.0443535 57.1413785,53.7745833 C57.5101833,53.5048132 57.7512295,53.1081893 57.8206904,52.6580232 L57.8847765,52.2403943 C57.953824,51.7902282 57.8430172,51.3400621 57.572202,50.9726805 C57.3013869,50.6052988 56.9032266,50.3651828 56.4513167,50.2964017" id="Fill-192" fill="#D95B26"></path>
                        <path d="M57.8846938,52.2404766 L57.8206077,52.6581056 C57.7511468,53.1082716 57.5101006,53.5048956 57.1417093,53.7746657 C56.773318,54.044024 56.3222351,54.1539914 55.8686714,54.086034 L55.8029315,54.0761493 C54.8697562,53.9336448 54.2264152,53.0613193 54.3694717,52.1317449 L54.4335578,51.7141159 C54.5770278,50.7845415 55.4552131,50.1449185 56.3854942,50.2861875 L56.451234,50.296484 C56.9031439,50.3652651 57.3013042,50.6053812 57.5721193,50.9727628 C57.8429345,51.3397326 57.9537413,51.7903106 57.8846938,52.2404766 M57.8053098,50.8022516 C57.4886008,50.3726787 57.0234602,50.0922001 56.4950606,50.011475 L56.4289073,50.0015902 C55.9005076,49.9200414 55.372108,50.0501901 54.9412845,50.3652651 C54.510461,50.6807521 54.2288959,51.1440978 54.1478581,51.6704585 L54.1114738,51.9072796 L54.0837721,52.0880874 C53.9163215,53.1749934 54.6684021,54.194354 55.7591049,54.3607465 L55.8252582,54.3706313 C55.9277959,54.386282 56.0303335,54.3941074 56.1320443,54.3941074 C56.555012,54.3941074 56.9655761,54.2606639 57.312881,54.0069564 C57.6870607,53.7330676 57.9396837,53.3438572 58.0550386,52.9027521 C58.0728173,52.8356184 58.0959709,52.770956 58.1063074,52.701763 L58.1703934,52.2841341 C58.2514312,51.7577734 58.1216054,51.2314127 57.8053098,50.8022516" id="Fill-194" fill="#EE9554"></path>
                        <path d="M56.1195992,51.4402683 C56.1088493,51.486397 56.116705,51.5337612 56.1419259,51.5741238 C56.1667334,51.6144863 56.2060119,51.642493 56.2523193,51.6532014 C56.299867,51.6643217 56.3465877,51.6564963 56.3871067,51.6313727 C56.4276256,51.6066609 56.4557407,51.567534 56.4664906,51.5214053 L56.4664906,51.5209934 C56.477654,51.4748648 56.4697983,51.4275006 56.4445774,51.387138 C56.4197699,51.3467755 56.3800779,51.3187688 56.3337705,51.3076485 C56.3201264,51.3047655 56.3068958,51.303118 56.2932516,51.303118 C56.2126273,51.303118 56.1390317,51.3583076 56.1195992,51.4402683" id="Fill-196" fill="#D95B26"></path>
                        <path d="M56.3691252,51.3292398 C56.4186499,51.340735 56.4610998,51.3712415 56.4876309,51.4145695 C56.5146042,51.4578974 56.5230058,51.5087415 56.5110667,51.5582592 L56.5110667,51.5587013 C56.4995699,51.6077769 56.4695013,51.6502206 56.4261671,51.676748 C56.3828329,51.7037175 56.3324238,51.7121178 56.2820146,51.7001805 C56.2324898,51.6886853 56.1904822,51.658621 56.163951,51.615293 C56.1369777,51.571965 56.1285762,51.5211209 56.140073,51.4716032 C56.1608557,51.3836209 56.2395648,51.3243765 56.325791,51.3243765 C56.3403831,51.3243765 56.354533,51.326145 56.3691252,51.3292398 M56.2117071,52.0012658 C56.249735,52.0105503 56.2882052,52.0149716 56.3266753,52.0149716 C56.4186499,52.0149716 56.5088558,51.9893285 56.5893336,51.9393686 C56.7025331,51.8690712 56.7821265,51.7589827 56.8121952,51.6289988 C56.8754277,51.3606305 56.7082815,51.0909359 56.4398749,51.0281545 C56.1705838,50.9653732 55.9021771,51.1329375 55.8389446,51.4008637 C55.8084338,51.5308476 55.8305431,51.6648107 55.9008506,51.7784361 C55.9711581,51.8916194 56.0817045,51.9712015 56.2117071,52.0012658" id="Fill-198" fill="#EE9554"></path>
                        <path d="M56.1345664,52.9320767 C56.1568931,52.8369364 56.0973551,52.7413842 56.0018463,52.7187318 C55.9882021,52.7154369 55.974558,52.7142013 55.9609139,52.7142013 C55.8802895,52.7142013 55.8071074,52.7693909 55.7876749,52.8509397 C55.7649347,52.9460801 55.8244727,53.0420441 55.920395,53.0642847 C56.0146635,53.087349 56.1122396,53.0276289 56.1345664,52.9320767" id="Fill-200" fill="#D95B26"></path>
                        <path d="M55.9500738,53.111407 C55.847914,53.0870874 55.78423,52.9845031 55.8081115,52.882361 C55.8288973,52.7948106 55.9071755,52.7351171 55.9934143,52.7351171 C56.0080086,52.7351171 56.0226028,52.7368858 56.0371971,52.7404232 C56.1393569,52.7643006 56.2030409,52.8673271 56.1791594,52.9694692 C56.1552779,53.0720535 56.0509069,53.1361687 55.9500738,53.111407 M56.1079571,52.4393029 C55.839069,52.3756299 55.5701809,52.5432137 55.5069391,52.8116132 C55.4436973,53.0800126 55.6108679,53.3492964 55.8793138,53.4125273 C55.9173473,53.4213707 55.9558231,53.4257925 55.9934143,53.4257925 C56.2202887,53.4257925 56.4263773,53.2701473 56.4803318,53.040217 C56.5431313,52.7718175 56.376403,52.5025337 56.1079571,52.4393029" id="Fill-202" fill="#EE9554"></path>
                        <path d="M57.0089065,52.3919186 C57.0312333,52.2967783 56.9716953,52.2012261 56.875773,52.1785737 C56.8625423,52.1756906 56.8484847,52.1740432 56.8348406,52.1740432 C56.8021774,52.1740432 56.7699276,52.1831042 56.741399,52.2008143 C56.7008801,52.2259379 56.672765,52.264653 56.662015,52.3107816 C56.6508517,52.3573221 56.6587074,52.4046864 56.6839283,52.4450489 C56.7087358,52.4854115 56.7484278,52.5134181 56.7947351,52.5245384 C56.8402155,52.5340113 56.8885902,52.5270096 56.9291091,52.5027097 C56.969628,52.4775861 56.9981566,52.4380472 57.0089065,52.3919186" id="Fill-204" fill="#D95B26"></path>
                        <path d="M56.824418,52.5714362 C56.7748857,52.55994 56.7324294,52.529431 56.7058942,52.4860992 C56.6789168,52.4427675 56.670514,52.3919191 56.6824548,52.3419549 C56.6939534,52.2928751 56.7240266,52.2508699 56.7673674,52.2238981 C56.7978828,52.2048852 56.8323786,52.1951577 56.8673165,52.1951577 C56.8819109,52.1951577 56.8969475,52.1969263 56.9110996,52.2004636 C57.0137023,52.2243403 57.0773867,52.3269215 57.053505,52.4290605 C57.0420065,52.4790247 57.011491,52.5210299 56.9681502,52.5480017 C56.9252517,52.5740892 56.8730658,52.5816059 56.824418,52.5714362 M56.9818601,51.8993523 C56.8518377,51.8688433 56.717835,51.890067 56.604176,51.9612548 C56.4909593,52.0315583 56.4113537,52.1416563 56.3812805,52.2716514 C56.3507651,52.4016466 56.3728777,52.5356212 56.4427537,52.6492564 C56.5130719,52.7628917 56.6236352,52.8420384 56.7536575,52.8725474 C56.7916913,52.8813907 56.8301673,52.8858123 56.8677588,52.8858123 C57.0946346,52.8858123 57.3007245,52.7301718 57.3546793,52.4998062 C57.4174792,52.2314148 57.2503076,51.9621391 56.9818601,51.8993523" id="Fill-206" fill="#EE9554"></path>
                        <path d="M55.5924812,52.0611104 C55.614808,51.9659701 55.55527,51.8704179 55.4593477,51.8477654 C55.446117,51.8448824 55.4320594,51.8432349 55.4188288,51.8432349 C55.3857521,51.8432349 55.3535024,51.8522959 55.3249738,51.870006 C55.2844549,51.8947178 55.2563397,51.9338448 55.2455898,51.9799734 C55.2344264,52.0265139 55.2422821,52.0738781 55.2675031,52.1142407 C55.292724,52.1546032 55.3320025,52.1826099 55.3778964,52.1933183 L55.3783099,52.1933183 C55.4237903,52.2044386 55.4721649,52.1962014 55.5126838,52.1714896 C55.5532027,52.1467778 55.5817313,52.107239 55.5924812,52.0611104" id="Fill-208" fill="#D95B26"></path>
                        <path d="M55.4080385,52.2404813 L55.4080385,52.2404813 C55.3585056,52.2289832 55.3164911,52.1984692 55.2895133,52.1555726 C55.2625356,52.1117916 55.2541327,52.0609349 55.2660737,52.0114049 C55.2775724,51.9618748 55.3076459,51.9198628 55.3509872,51.8928866 C55.381503,51.8738706 55.4164414,51.8641415 55.4513797,51.8641415 C55.465532,51.8641415 55.4805688,51.8659104 55.494721,51.8694483 C55.5973249,51.8933288 55.66101,51.996369 55.6371281,52.0985247 C55.6256294,52.1480547 55.5951136,52.1900668 55.5517723,52.2170429 C55.508431,52.2435769 55.4566868,52.2519793 55.4080385,52.2404813 M55.9383057,52.1688396 C56.0011063,51.9008468 55.8339329,51.631085 55.5654823,51.568288 C55.4359007,51.537774 55.3014543,51.5598856 55.187794,51.6302006 C55.074576,51.7005155 54.9949696,51.8110736 54.964896,51.9406477 C54.9343802,52.070664 54.9564931,52.2046604 55.0268121,52.3183142 C55.0971311,52.4319679 55.2072534,52.5111275 55.3372772,52.5416415 C55.3757536,52.5504862 55.4137878,52.5549085 55.451822,52.5549085 C55.6782581,52.5549085 55.8843503,52.3992427 55.9383057,52.1688396" id="Fill-210" fill="#EE9554"></path>
                        <path d="M30.068918,52.0974779 L29.9887071,51.511397 C29.905602,50.9030756 29.5897199,50.3635353 29.0989449,49.9916232 C28.60817,49.619711 28.0016268,49.460732 27.3690356,49.5463994 C26.107988,49.7177344 25.221947,50.8783639 25.3935321,52.1345455 L25.473743,52.7206263 C25.6312706,53.871783 26.6235704,54.709512 27.7585133,54.709512 C27.8614644,54.709512 27.9660693,54.7025103 28.0706743,54.688507 L28.0934145,54.685624 C29.3540487,54.5147009 30.2405032,53.3536595 30.068918,52.0974779" id="Fill-212" fill="#0065C4"></path>
                        <path d="M30.1112975,51.9587213 L30.0786343,51.7202527 C30.0939322,52.1765967 29.962039,52.6214086 29.6808874,52.989614 C29.660628,53.016385 29.6349936,53.0369782 29.6134937,53.0621018 C29.2934771,53.4418394 28.8543844,53.6910164 28.357821,53.7585619 L28.2920812,53.7676229 C28.2007069,53.7799788 28.1101595,53.7861567 28.0204391,53.7861567 C27.5437217,53.7861567 27.0980138,53.6131743 26.7474012,53.3240466 C26.3740484,53.0159732 26.1086082,52.5761037 26.0383203,52.0608633 L26.0135128,51.8808792 C26.0159935,51.9496603 26.0118589,52.0180295 26.0213685,52.0872225 L26.0788392,52.5056751 C26.1507809,53.0328596 26.4249037,53.5011476 26.8503523,53.8236362 C27.2022052,54.0901115 27.6231057,54.2309686 28.0580638,54.2309686 C28.1486112,54.2309686 28.2403989,54.2243788 28.3321866,54.2124347 L28.3979265,54.2033738 C28.9275665,54.1312978 29.3976685,53.8582327 29.7214063,53.4344258 C30.0447307,53.010619 30.1832392,52.4863176 30.1112975,51.9587213" id="Fill-214" fill="#D95B26"></path>
                        <path d="M26.3249709,52.0218598 C26.452316,52.9534936 27.3152034,53.6087674 28.2525132,53.4819136 L28.3182531,53.4728526 C28.7714033,53.4118969 29.1736982,53.1779588 29.4507152,52.8155195 C29.7273188,52.4526684 29.8459813,52.0045616 29.784376,51.5531599 L29.7273188,51.1347073 C29.6103101,50.2800919 28.873941,49.6585909 28.0313131,49.6585909 C27.9548233,49.6585909 27.8775066,49.6635332 27.799363,49.6742417 L27.7340366,49.6833026 C27.2804729,49.7446702 26.878178,49.9786083 26.6015744,50.3410476 C26.3245574,50.7034869 26.2058949,51.1520055 26.2679136,51.6034072 L26.3249709,52.0218598 Z" id="Fill-216" fill="#D95B26"></path>
                        <path d="M28.0315198,49.6586732 C28.8741477,49.6586732 29.6105168,50.2801743 29.7271121,51.1343778 L29.7841693,51.5532423 C29.846188,52.0042321 29.7275255,52.4527508 29.4505085,52.8156019 C29.1739049,53.1780412 28.7716101,53.4115674 28.3184598,53.472935 L28.25272,53.481996 C27.3154101,53.6088497 26.4521093,52.953576 26.3251776,52.0219422 L26.2677069,51.6034896 C26.2061016,51.1520879 26.3247641,50.7035693 26.6017812,50.34113 C26.8783847,49.9782788 27.2806796,49.7447526 27.7338298,49.683385 L27.7995697,49.674324 C27.8772999,49.6636156 27.95503,49.6586732 28.0315198,49.6586732 M26.7477319,53.3238407 C27.0979311,53.6129684 27.5436391,53.7859508 28.0207699,53.7859508 C28.1100769,53.7859508 28.2010377,53.7797728 28.2919985,53.7678288 L28.3577383,53.7587678 C28.8543017,53.6912223 29.2933944,53.4416334 29.6138245,53.0623078 C29.6349109,53.0367723 29.6605453,53.0161791 29.6808047,52.9898199 C29.9619564,52.6212027 30.0938495,52.1768026 30.078965,51.7204586 C30.0764843,51.6516775 30.0806189,51.5833083 30.0711093,51.5141153 L30.0136386,51.0956627 C29.8652071,50.0062855 28.8547152,49.2406325 27.7602912,49.3889031 L27.6945513,49.3979641 C27.1649113,49.4696282 26.6948093,49.7426933 26.3710715,50.1665001 C26.0477471,50.5907189 25.9092386,51.1146084 25.9811803,51.6422047 L26.0138435,51.8806733 L26.0382376,52.0610692 C26.1089389,52.5758977 26.3739657,53.0161791 26.7477319,53.3238407" id="Fill-218" fill="#EE9554"></path>
                        <path d="M27.8068052,50.8647312 C27.8125936,50.9627546 27.898593,51.0385373 27.9949287,51.0319475 C28.0424764,51.0290645 28.0858895,51.0084713 28.1177258,50.9730511 C28.1495621,50.9376309 28.1652735,50.8919141 28.1627928,50.8449618 C28.1598986,50.7971857 28.1388122,50.7539401 28.1032548,50.7222267 C28.0705916,50.6929844 28.0288323,50.6773336 27.9854192,50.6773336 C27.9816981,50.6773336 27.9783904,50.6773336 27.9746693,50.6777455 C27.9271216,50.6806285 27.8837085,50.7016335 27.8518722,50.7366419 C27.8200359,50.7720621 27.8043245,50.817367 27.8068052,50.8647312" id="Fill-220" fill="#D95B26"></path>
                        <path d="M28.0179051,50.6987655 C28.0643472,50.6987655 28.1090202,50.7155704 28.1444046,50.746969 C28.182443,50.7810209 28.2045583,50.8274555 28.2076544,50.8783124 C28.2107506,50.9291692 28.1935006,50.9778149 28.1594431,51.015847 C28.1258278,51.0538791 28.0789433,51.0764331 28.0280781,51.0795287 C27.9250208,51.0861622 27.8330211,51.0047912 27.8268288,50.8999818 C27.824175,50.8491249 27.8414249,50.800037 27.8750402,50.7624471 C27.9090978,50.724415 27.9555399,50.7018611 28.0068474,50.6987655 C28.0103859,50.6987655 28.0143666,50.6987655 28.0179051,50.6987655 M28.0170205,51.3890923 C28.0267512,51.3890923 28.0360396,51.3890923 28.0457704,51.3882078 C28.1789045,51.3806898 28.3014233,51.3218728 28.3903268,51.2219279 C28.4792304,51.1224254 28.5243456,50.9941776 28.5163841,50.860623 C28.5088649,50.7275107 28.4500382,50.6050119 28.350077,50.516123 C28.2501158,50.4267918 28.1209624,50.3816839 27.9891552,50.3900864 C27.8555787,50.3976043 27.7330599,50.4568636 27.6441564,50.5563662 C27.5552529,50.6558688 27.51058,50.7841166 27.5180992,50.9176712 C27.5335799,51.1830114 27.7542906,51.3890923 28.0170205,51.3890923" id="Fill-222" fill="#EE9554"></path>
                        <path d="M28.2452777,52.2915476 C28.2423835,52.2441834 28.2212971,52.2009378 28.1857397,52.1692244 C28.1530765,52.1399821 28.1113172,52.1243313 28.0674907,52.1243313 C28.064183,52.1243313 28.0608753,52.1243313 28.0571542,52.1243313 C28.0096065,52.1272144 27.9661934,52.1482194 27.9343571,52.1836396 C27.9025208,52.2186479 27.8868094,52.2643647 27.8892902,52.3117289 C27.8950786,52.4093404 27.9843855,52.4838876 28.0774137,52.4789452 C28.1249614,52.4760622 28.1683745,52.4550572 28.2002108,52.419637 C28.232047,52.3846286 28.2477585,52.3389119 28.2452777,52.2915476" id="Fill-224" fill="#D95B26"></path>
                        <path d="M27.9095879,52.3465701 C27.9069338,52.2957319 27.9237429,52.246662 27.9578033,52.2090859 C27.9918638,52.1710677 28.0383098,52.1485221 28.0891793,52.1454276 C28.0931604,52.1454276 28.0966991,52.1454276 28.1002379,52.1454276 C28.1471263,52.1454276 28.191803,52.1622263 28.2267481,52.1936134 C28.2647896,52.2276529 28.2873491,52.2740704 28.2904455,52.3249086 C28.2930996,52.3757469 28.2762905,52.4248168 28.2422301,52.4623929 C28.2081697,52.500411 28.1617236,52.5229567 28.1108541,52.5260512 C28.0108845,52.531356 27.9157807,52.4513411 27.9095879,52.3465701 M28.0714856,51.8368617 C27.9383402,51.8443769 27.8158111,51.9036145 27.7269001,52.0030805 C27.6379891,52.1025466 27.5933124,52.2307474 27.6008322,52.364253 C27.6158719,52.629938 27.8370436,52.8355013 28.0997955,52.8355013 C28.1090848,52.8355013 28.1188163,52.8350592 28.1285479,52.8346171 C28.2616932,52.8271019 28.3842223,52.7683064 28.4731333,52.6688403 C28.5620443,52.5689321 28.606721,52.4407314 28.5992012,52.3072258 C28.5916814,52.1741622 28.5328497,52.0517084 28.4328801,51.962852 C28.3333528,51.8739957 28.2037462,51.826694 28.0714856,51.8368617" id="Fill-226" fill="#EE9554"></path>
                        <path d="M28.9300886,51.5271714 C28.9271944,51.4798072 28.906108,51.4361497 28.8705506,51.4048481 C28.8378874,51.375194 28.7961281,51.3595432 28.752715,51.3595432 C28.7494073,51.3595432 28.7456862,51.3595432 28.7423786,51.3599551 C28.6948309,51.3628381 28.6510043,51.3834313 28.6195815,51.4188515 C28.5877452,51.4542717 28.5716203,51.4999884 28.5745145,51.5469408 C28.5769953,51.5947169 28.5980816,51.6379625 28.633639,51.6696759 C28.6691964,51.7013894 28.7163307,51.7190995 28.7622246,51.714569 C28.8097722,51.7116859 28.8535988,51.6906809 28.8854351,51.6552607 C28.9168579,51.6198405 28.9325693,51.5745356 28.9300886,51.5271714" id="Fill-228" fill="#D95B26"></path>
                        <path d="M28.6580622,51.713448 C28.6200241,51.6794084 28.5974667,51.6329909 28.5943706,51.5821527 C28.5917167,51.5313145 28.6089666,51.4826866 28.6425816,51.4446685 C28.6766389,51.4066503 28.7230807,51.3841047 28.7743879,51.3810102 C28.7779263,51.3810102 28.7814647,51.3810102 28.7854455,51.3810102 C28.8318873,51.3810102 28.8765599,51.3978089 28.9115018,51.429196 C28.9495399,51.4632355 28.9720973,51.509653 28.9751934,51.5604912 C28.9778473,51.6113294 28.9610398,51.6599573 28.9269824,51.6979754 C28.8933674,51.7359936 28.8464833,51.7585392 28.7956184,51.7616338 C28.7465228,51.7669386 28.6961003,51.7474875 28.6580622,51.713448 M29.1180573,51.1984346 C29.0180968,51.1095782 28.8885021,51.0622766 28.7566958,51.0724442 C28.6231203,51.0799594 28.5010446,51.138755 28.4116994,51.2386631 C28.3227965,51.3381292 28.2781239,51.46633 28.2856431,51.5998356 C28.2931622,51.7328991 28.3524308,51.8553529 28.451949,51.9442093 C28.5443903,52.0264346 28.6616006,52.0710838 28.7841185,52.0710838 C28.7938492,52.0710838 28.8035799,52.0710838 28.8133105,52.0701997 C28.9468861,52.0626845 29.0689617,52.0034469 29.1578646,51.9039808 C29.2472098,51.8045147 29.2918824,51.6763139 29.2839209,51.5428083 C29.2764018,51.4097448 29.2175755,51.287291 29.1180573,51.1984346" id="Fill-230" fill="#EE9554"></path>
                        <path d="M27.4777338,51.6094204 C27.4748396,51.5620562 27.4537532,51.5183987 27.4181958,51.4870971 C27.3855326,51.457443 27.3437733,51.4417922 27.2999468,51.4417922 C27.2966391,51.4417922 27.2933314,51.4417922 27.2896103,51.4422041 C27.2424761,51.4450871 27.1986495,51.4656803 27.1672267,51.5011005 C27.1353904,51.5365207 27.1192655,51.5822375 27.1221597,51.6291898 C27.1246405,51.6769659 27.1457268,51.7202115 27.1812842,51.7519249 C27.2168417,51.7832265 27.263149,51.799701 27.3098698,51.796818 C27.4082728,51.7910519 27.4831088,51.7070319 27.4777338,51.6094204" id="Fill-232" fill="#D95B26"></path>
                        <path d="M27.2057415,51.7959117 C27.1676999,51.7618595 27.1451404,51.7154246 27.142044,51.6645673 C27.1393899,51.6137101 27.1566413,51.565064 27.1902594,51.5270316 C27.2243199,51.4889992 27.2707659,51.4664451 27.3216354,51.4633495 C27.3256165,51.4633495 27.3291552,51.4633495 27.332694,51.4633495 C27.3795824,51.4633495 27.4242591,51.4801545 27.4592042,51.5115533 C27.4972457,51.5456056 27.5198052,51.5920405 27.5229016,51.6428977 C27.5286521,51.7481501 27.4481456,51.8379243 27.3433102,51.8441156 C27.2933254,51.8476535 27.243783,51.829964 27.2057415,51.7959117 M27.8316573,51.6252082 C27.8241375,51.4920949 27.7653058,51.3695952 27.6657785,51.2807056 C27.5658089,51.1918159 27.4392987,51.1462655 27.3039417,51.154668 C27.1707963,51.1621861 27.0487096,51.2210036 26.9593562,51.3209492 C26.8704452,51.4204525 26.8257685,51.5487012 26.8332883,51.6822568 C26.8408082,51.8153702 26.9000822,51.9378698 26.9996094,52.0267595 C27.0920592,52.1090156 27.2088379,52.1536815 27.3318093,52.1536815 C27.3415409,52.1536815 27.3512724,52.1536815 27.361004,52.152797 C27.4941493,52.145279 27.6166784,52.0864615 27.7055894,51.9865159 C27.7945005,51.8870126 27.8391771,51.7587638 27.8316573,51.6252082" id="Fill-234" fill="#EE9554"></path>
                    </g>
                    <g id="Group-272" transform="translate(0.000000, 14.814815)">
                        <path d="M49.2444384,11.0773511 L49.1048269,11.0773511 C46.8730898,11.0773511 45.0642815,9.26029316 45.0642815,7.01888494 L45.0642815,4.27911187 C45.0642815,2.03811484 46.8730898,0.221056881 49.1048269,0.221056881 L49.2444384,0.221056881 C51.4761755,0.221056881 53.2853932,2.03811484 53.2853932,4.27911187 L53.2853932,7.01888494 C53.2853932,9.26029316 51.4761755,11.0773511 49.2444384,11.0773511" id="Fill-254" fill="#FFFFFF" opacity="0.349950036"></path>
                        <path d="M36.8965578,0.220933524 L37.0361693,0.220933524 C39.2679064,0.220933524 41.0767147,2.03799148 41.0767147,4.27939971 L41.0767147,7.01917277 C41.0767147,9.2601698 39.2679064,11.0772278 37.0361693,11.0772278 L36.8965578,11.0772278 C34.6648207,11.0772278 32.8556029,9.2601698 32.8556029,7.01917277 L32.8556029,4.27939971 C32.8556029,2.03799148 34.6648207,0.220933524 36.8965578,0.220933524" id="Fill-256" fill="#FFFFFF" opacity="0.3515625"></path>
                        <path d="M53.0653721,7.01904941 C53.0653721,9.13504404 51.3511392,10.8567054 49.2442746,10.8567054 L49.1050725,10.8567054 C46.9982079,10.8567054 45.2843845,9.13504404 45.2843845,7.01904941 L45.2843845,4.27927635 C45.2843845,2.16328172 46.9982079,0.442031524 49.1050725,0.442031524 L49.2442746,0.442031524 C51.3511392,0.442031524 53.0653721,2.16328172 53.0653721,4.27927635 L53.0653721,4.36233715 L53.0653721,5.85578692 L53.0653721,7.01904941 Z M40.8569392,7.01904941 C40.8569392,9.13504404 39.1431158,10.8567054 37.0362512,10.8567054 L36.8966397,10.8567054 C34.7897751,10.8567054 33.0755422,9.13504404 33.0755422,7.01904941 L33.0755422,6.05192556 L33.0755422,4.55888699 L33.0755422,4.27927635 C33.0755422,2.16328172 34.7897751,0.442031524 36.8966397,0.442031524 L37.0362512,0.442031524 C39.1431158,0.442031524 40.8569392,2.16328172 40.8569392,4.27927635 L40.8569392,7.01904941 Z M54.8148148,4.69828111 L54.1327246,4.69828111 L54.1327246,4.69046846 C54.1327246,4.38783107 53.8874832,4.1411158 53.5857422,4.1411158 L53.4985362,4.1411158 C53.4252504,1.84584141 51.5476598,0 49.2442746,0 L49.1050725,0 C46.7554231,0 44.8438509,1.91985599 44.8438509,4.27927635 L44.8438509,4.8919526 C43.7674912,4.19004766 42.379155,4.18223501 41.2970634,4.89318618 L41.2970634,4.27927635 C41.2970634,1.91985599 39.3854912,0 37.0362512,0 L36.8966397,0 C34.5469902,0 32.635418,1.91985599 32.635418,4.27927635 L32.635418,4.33766563 L32.5551721,4.33766563 C32.2726737,4.33766563 32.0479033,4.55641983 32.019244,4.83232974 L31.2859765,4.83232974 C31.3273277,5.1629282 31.3232336,5.47049991 31.3039909,5.71639279 L32.0081897,5.71639279 L32.0081897,5.72420544 C32.0081897,6.02684284 32.2534311,6.27314692 32.5551721,6.27314692 L32.635418,6.27314692 L32.635418,7.01904941 C32.635418,9.37888097 34.5469902,11.298737 36.8966397,11.298737 L37.0362512,11.298737 C39.3854912,11.298737 41.2970634,9.37888097 41.2970634,7.01904941 L41.2970634,5.42156804 C41.2974729,5.42115685 41.2978823,5.42156804 41.2978823,5.42115685 L41.4890804,5.29039776 C42.4843754,4.60823004 43.800654,4.63742468 44.7648332,5.36317876 L44.8352531,5.41581136 C44.838119,5.41786732 44.8413943,5.41786732 44.8438509,5.41992328 L44.8438509,7.01904941 C44.8438509,9.37888097 46.7554231,11.298737 49.1050725,11.298737 L49.2442746,11.298737 C51.5939241,11.298737 53.5054963,9.37888097 53.5054963,7.01904941 L53.5054963,6.07659709 L53.5857422,6.07659709 C53.8682406,6.07659709 54.0934204,5.85825407 54.1216703,5.58193297 L54.7673223,5.58193297 C54.7550398,5.32658267 54.7628187,5.01859977 54.8148148,4.69828111 L54.8148148,4.69828111 Z" id="Fill-258" fill="#E75B4B"></path>
                        <path d="M1.41930793,50.4889641 C6.4686591,55.4228583 15.459886,64.1878294 18.4384013,67.0912569 C18.993572,67.6323858 19.871364,67.6385536 20.4367702,67.1081158 L21.0902012,66.4954396 C21.9483411,65.6907366 22.0973693,64.3790337 21.4418912,63.4008077 L8.70080559,44.3770045 C7.09343084,41.9776985 3.733338,41.58501 1.62074154,43.5492747 C1.58143742,43.5854596 1.54254272,43.6216445 1.50405744,43.6578294 C-0.467289837,45.4905127 -0.506184539,48.6077601 1.41930793,50.4889641" id="Fill-260" fill="#EFC8A1"></path>
                        <path d="M19.5384663,62.7132945 C19.8082727,63.0373139 20.2799222,63.0994039 20.6234238,62.8563893 L20.9317155,62.6388687 L9.38899616,45.4049847 L7.62440494,46.3638848 C7.0225606,46.6907825 6.87025714,47.4897288 7.30874373,48.0172883 L19.5384663,62.7132945 Z" id="Fill-262" fill="#E98C55"></path>
                        <path d="M23.7254196,66.6858626 C23.1239847,67.104045 23.5379062,68.5757016 22.1585772,68.8499667 C22.0504909,68.8713487 21.9288938,68.8832733 21.7966518,68.8873852 C19.5059586,68.9527648 17.7278565,66.8762446 17.9935688,64.5904276 L18.0066701,64.4794057 C18.122126,63.4876103 18.6887604,62.5973794 19.5538604,62.1051825 C20.0906073,61.7996667 20.648644,61.3921753 20.9344177,60.9086134 C21.581298,59.8148424 22.18478,59.16557 23.0142607,58.8300373 C22.995018,58.8107112 22.9843732,59.208334 22.9843732,59.208334 C22.9843732,59.208334 24.1794641,58.2403878 24.5082267,58.0713878 C26.1434418,57.2296775 26.8226662,59.2165578 28.5078303,59.5413996 C28.8263574,59.6026672 29.0343417,60.0743046 28.8992338,60.2248009 C28.4570625,60.7178203 27.7757911,60.5327838 27.7757911,60.5327838 L28.2916576,62.2125036 C28.3653529,62.4522286 28.3510232,62.7100461 28.2519441,62.9403136 L26.6015805,66.7713906 C26.6015805,66.7713906 26.1025,67.5386751 25.6316694,67.4038041 C25.2812077,67.303062 25.1809003,66.9046168 24.8656485,66.7199916 C24.661349,66.6003347 23.9469147,66.5320768 23.7254196,66.6858626" id="Fill-266" fill="#EFC8A1"></path>
                        <path d="M20.6235876,62.8564304 L21.2532723,62.4115206 C21.6041435,62.1635717 21.8743593,61.8181704 22.0311664,61.417258 L22.9847007,58.9805336 L22.9847007,58.8440178 C22.1707779,59.1828401 21.5730277,59.8280005 20.9343358,60.9086134 C20.6485621,61.3921753 20.0905255,61.7996667 19.5537786,62.1051825 C19.4358662,62.1717956 19.3249139,62.2478661 19.2184653,62.328871 L19.5386301,62.7133356 C19.8080271,63.0369438 20.280086,63.099445 20.6235876,62.8564304" id="Fill-268" fill="#E98C55"></path>
                    </g>
                </g>
            </g>
        </g>
    </g>
</svg>