<svg viewBox="0 0 106 106" xmlns="http://www.w3.org/2000/svg" xmlns:xlink="http://www.w3.org/1999/xlink"><defs><path d="M88 44c0 24.3-19.7 44-44.001 44S0 68.3 0 44 19.698 0 43.999 0C68.3 0 88 19.7 88 44" id="a"/><path id="b" d="M0 0h11.978v25.564H0z"/><path id="d" d="M0 0h22.883v25.564H0z"/><path id="f" d="M0 0h2.86v2.503H0z"/><path id="h" d="M0 26.28h64V0H0z"/></defs><g fill="none" fill-rule="evenodd"><use fill="#DFF0FF" xlink:href="#a" transform="translate(9 9)"/><g transform="translate(21 40)"><g transform="translate(3.397)"><mask id="c" fill="#fff"><use xlink:href="#b"/></mask><path d="M7.11 15.207V0H.085A.085.085 0 0 0 0 .085v25.479h11.978V15.207H7.11z" fill="#3CA1FF" mask="url(#c)"/></g><g transform="translate(10.547)"><mask id="e" fill="#fff"><use xlink:href="#d"/></mask><path d="M22.798 15.207h-6.922V.085A.085.085 0 0 0 15.791 0H0v15.207h4.872v10.357h18.01V15.292a.085.085 0 0 0-.084-.085" fill="#B8DDFF" mask="url(#e)"/></g><path d="M55.893 26.28c-.46 0-.832-.393-.832-.877v-.312c0-.226.04-.45.12-.66l.095-.255c.266-.709.916-1.176 1.64-1.178h.404a.762.762 0 0 0 .616-.332l.28-.398c.359-.513.928-.816 1.533-.815h.186c.732 0 1.374.515 1.569 1.258.126.48.477.86.93 1.003l.218.07c.26.082.482.258.63.496l.618.999c.065.105.1.228.1.353 0 .358-.275.647-.615.647h-7.492z" fill="#0097B8"/><path d="M58.924 25.815a.738.738 0 0 0-.403-.608l-.773-.39a1.207 1.207 0 0 1-.657-1.179.593.593 0 0 1 .565-.543l.832-.036a1.42 1.42 0 0 0 .986-.46l.298-.325a.44.44 0 0 0-.053-.643 1.928 1.928 0 0 0-1.465.783l-.282.384a.783.783 0 0 1-.624.319l-.409.001a1.79 1.79 0 0 0-1.66 1.135l-.097.245c-.08.203-.12.418-.12.636v.301c0 .467.377.844.842.844h2.758a.484.484 0 0 0 .262-.464" fill="#00547A"/><path d="M58.306 23.777c-.17 0-.266.223-.164.378.176.268.45.426.742.426.253 0 .48.18.57.451l.05.147c.04.124.144.206.26.206h.05c.238 0 .432-.222.432-.497 0-.614-.432-1.111-.965-1.111h-.975z" fill="#00547A"/><g transform="translate(60.246 23.777)"><mask id="g" fill="#fff"><use xlink:href="#f"/></mask><path d="m.957 2.274.102-.259a.592.592 0 0 1 .55-.376.604.604 0 0 0 .584-.45l.1-.376A.753.753 0 0 1 2.86.27a1.13 1.13 0 0 0-.267-.12L2.376.083A1.36 1.36 0 0 1 2.166 0a1.35 1.35 0 0 0-.651.685l-.076.177a.706.706 0 0 1-.592.428l-.193.015a.602.602 0 0 0-.53.438l-.111.394a.337.337 0 0 0 .128.366h.62a.459.459 0 0 0 .196-.23" fill="#00547A" mask="url(#g)"/></g><path fill="#0068C9" d="M45.243 16.983H33.609v8.581h14.838v-8.58z"/><mask id="i" fill="#fff"><use xlink:href="#h"/></mask><path fill="#1C417D" mask="url(#i)" d="M34.324 25.564h14.123v-.179H34.324zM34.324 25.028h14.123v-.179H34.324zM34.324 24.67h14.123v-.178H34.324zM34.324 24.313h14.123v-.179H34.324zM34.324 23.955h14.123v-.178H34.324zM34.324 23.598h14.123v-.179H34.324zM34.324 23.061h14.123v-.178H34.324zM34.324 22.704h14.123v-.179H34.324zM34.324 22.346h14.123v-.178H34.324zM34.324 21.81h14.123v-.179H34.324zM34.324 21.453h14.123v-.18H34.324z"/><path fill="#1C417D" mask="url(#i)" d="M34.324 21.274h14.123v-.179H34.324zM34.324 20.737h14.123v-.178H34.324zM34.324 20.38h14.123V20.2H34.324zM34.324 19.844h14.123v-.18H34.324zM34.324 19.486h14.123v-.179H34.324zM34.324 19.128h14.123v-.178H34.324zM34.324 18.592h14.123v-.179H34.324zM34.324 18.235h14.123v-.18H34.324z"/><path fill="#1C417D" mask="url(#i)" d="M34.324 18.056h14.123v-.179H34.324zM34.324 17.52h14.123v-.18H34.324zM45.2 16.983H34.323v.179h14.123v-.179z"/><path fill="#1C417D" mask="url(#i)" d="M48.983 16.983h-.864l-1.817 8.581h.863z"/><path fill="#0068C9" mask="url(#i)" d="m47.573 25.564 1.768-8.58h-.378l-1.767 8.58z"/><path fill="#1C417D" mask="url(#i)" d="M59.173 16.983h-.806l-1.697 8.581h.807z"/><path fill="#0068C9" mask="url(#i)" d="m57.91 25.564 1.62-8.58h-.345l-1.62 8.58z"/><path fill="#B8DDFF" mask="url(#i)" d="M26.458 15.374h3.576V7.33h-3.576z"/><path fill="#FAD1C5" mask="url(#i)" d="M53.095 15.017h6.972V7.866h-6.972zM45.587 15.017h7.15V7.866h-7.15z"/><path fill="#FC95A4" mask="url(#i)" d="M59.599 8.223H53.095v.492l6.392-.364v6.666h.222V8.223zM52.334 8.223h-6.569v.887l6.569-.362v6.269h.225V8.223h-.073z"/><path d="M52.113 11.084h-.002c-.049 0-.089.033-.089.073v.568c0 .041.04.074.089.074h.002c.048 0 .088-.033.088-.074v-.568c0-.04-.04-.073-.088-.073M53.185 11.084h-.001c-.05 0-.089.033-.089.073v.568c0 .041.04.074.089.074h.001c.05 0 .089-.033.089-.074v-.568c0-.04-.04-.073-.089-.073" fill="#FC95A4" mask="url(#i)"/><path fill="#0068C9" mask="url(#i)" d="M60.603 15.196h1.61v-7.33h-1.61z"/><path fill="#3CA1FF" mask="url(#i)" d="M60.425 15.196h.357v-7.33h-.357z"/><path fill="#1C417D" mask="url(#i)" d="M60.067 15.196h.358v-7.33h-.358zM52.559 15.017h.178V8.223h-.178zM52.737 7.866v7.33h.179v-7.33h-.06zM59.888 15.017h.179V8.223h-.179z"/><path d="M52.113 11.084h-.002c-.049 0-.089.033-.089.073v.568c0 .041.04.074.089.074h.002c.048 0 .088-.033.088-.074v-.568c0-.04-.04-.073-.088-.073" fill="#0068C9" mask="url(#i)"/><path d="M52.627 14.984h-7.008V8.077h7.007v6.907zm-7.21-7.118h-.01v7.33h7.33v-7.33h-7.32zM59.86 14.984h-6.737V8.077H59.86v6.907zm.07-7.118H52.916v7.33h7.151v-7.33h-.137z" fill="#0068C9" mask="url(#i)"/><path d="M53.364 11.084h-.002c-.049 0-.088.033-.088.073v.568c0 .041.04.074.088.074h.002c.049 0 .089-.033.089-.074v-.568c0-.04-.04-.073-.09-.073" fill="#0068C9" mask="url(#i)"/><path fill="#3CA1FF" mask="url(#i)" d="M30.212 7.15v8.08h3.35v1.753H45.23V7.151z"/><path d="M45.573 15.21h16.653V7.923H45.573v7.289zm16.912-8.06H45.229v9.833h17.256a.085.085 0 0 0 .085-.086v-9.66a.085.085 0 0 0-.085-.086z" fill="#B8DDFF" mask="url(#i)"/><path fill="#FC95A4" mask="url(#i)" d="M45.587 15.196h14.659v-1.967h-14.66z"/><path fill="#1C417D" mask="url(#i)" d="M60.603 15.196h1.61v-1.967h-1.61z"/><path fill="#0068C9" mask="url(#i)" d="M60.425 15.196h.357v-1.967h-.357z"/><path fill="#001828" mask="url(#i)" d="M60.067 15.196h.358v-1.967h-.358z"/><path fill="#1C417D" mask="url(#i)" d="M55.598 15.196h.179v-1.967h-.18z"/><path fill="#0068C9" mask="url(#i)" d="M55.777 15.196h.178v-1.967h-.178z"/><path fill="#1C417D" mask="url(#i)" d="M52.38 15.196h.179v-1.967h-.18z"/><path fill="#0068C9" mask="url(#i)" d="M52.559 15.196h.178v-1.967h-.178z"/><path fill="#1C417D" mask="url(#i)" d="M47.732 15.196h.179v-1.967h-.18z"/><path fill="#0068C9" mask="url(#i)" d="M47.732 15.196h.179v-1.967h-.18z"/><path fill="#0080F6" mask="url(#i)" d="M45.587 13.23v.178h16.625v-.179z"/><path fill="#FC95A4" mask="url(#i)" d="M31.821 13.408h1.61V8.402h-1.61z"/><path fill="#001828" mask="url(#i)" d="M31.821 13.408H32V8.58h-.179z"/><path d="M32.013 13.295h-.077v-4.78h1.379v4.78h-1.302zm1.412-4.893H31.82v5.006H33.43V8.402h-.005z" fill="#1C417D" mask="url(#i)"/><path fill="#0068C9" mask="url(#i)" d="M31.642 13.408h.18V8.402h-.18z"/><path fill="#FC95A4" mask="url(#i)" d="M35.04 13.408h1.608V8.402h-1.609z"/><path fill="#001828" mask="url(#i)" d="M35.04 13.408h.178V8.58h-.179z"/><path d="M35.23 13.295h-.076v-4.78h1.379v4.78H35.23zm1.413-4.893H35.039v5.006H36.648V8.402h-.005z" fill="#1C417D" mask="url(#i)"/><path fill="#0068C9" mask="url(#i)" d="M34.86 13.408h.18V8.402h-.18z"/><path fill="#FC95A4" mask="url(#i)" d="M38.257 13.408h1.609V8.402h-1.609z"/><path fill="#001828" mask="url(#i)" d="M38.257 13.408h.179V8.58h-.179z"/><path d="M38.448 13.295h-.076v-4.78h1.379v4.78h-1.303zm1.413-4.893H38.257v5.006H39.866V8.402h-.005z" fill="#1C417D" mask="url(#i)"/><path fill="#0068C9" mask="url(#i)" d="M38.078 13.408h.179V8.402h-.179z"/><path fill="#FAD1C5" mask="url(#i)" d="M25.207 15.374H21.63V1.43h3.576z"/><path fill="#FC95A4" mask="url(#i)" d="M24.625 15.196h.224V1.43H21.631v.499l2.994-.34z"/><path fill="#1C417D" mask="url(#i)" d="M24.85 15.196h.178V1.43h-.179z"/><path d="M25 15.164H21.66V1.461h3.339v13.703zm.068-13.913H21.452v14.123h3.755V1.251h-.139z" fill="#0068C9" mask="url(#i)"/><path fill="#3CA1FF" mask="url(#i)" d="M25.207 15.374h.357V1.251h-.357z"/><path fill="#FAD1C5" mask="url(#i)" d="M26.458 15.374h2.682V8.581h-2.682z"/><path fill="#FC95A4" mask="url(#i)" d="M28.96 15.196V8.58h-2.144v.434l1.96-.323v6.504z"/><path fill="#1C417D" mask="url(#i)" d="M28.96 15.196h.18V8.58h-.18z"/><path d="M29.106 15.34H26.67V8.615h2.435v6.725zm.07-6.938h-2.718v7.151h2.86v-7.15h-.141z" fill="#0068C9" mask="url(#i)"/><path fill="#3CA1FF" mask="url(#i)" d="M29.318 15.553h.358v-7.15h-.358z"/><path fill="#FAD1C5" mask="url(#i)" d="M21.989 25.564h5.005v-8.58H21.99zM26.994 25.564H32v-8.58h-5.006zM16.447 25.564h5.006v-8.58h-5.006z"/><path d="M26.28 20.748a.175.175 0 0 0-.06-.01c-.066 0-.12.033-.12.074v.566c0 .041.054.075.12.075a.175.175 0 0 0 .06-.01c-.036-.014-.06-.037-.06-.065v-.566c0-.028.024-.051.06-.064M27.53 20.748a.175.175 0 0 0-.059-.01c-.066 0-.119.033-.119.074v.566c0 .041.053.075.12.075a.175.175 0 0 0 .059-.01c-.036-.014-.06-.037-.06-.065v-.566c0-.028.024-.051.06-.064M21.095 20.748a.175.175 0 0 0-.06-.01c-.065 0-.119.033-.119.074v.566c0 .041.054.075.12.075a.175.175 0 0 0 .059-.01c-.036-.014-.06-.037-.06-.065v-.566c0-.028.024-.051.06-.064" fill="#FC95A4" mask="url(#i)"/><path d="M26.369 21.453a.093.093 0 0 0 .078-.04.064.064 0 0 0 .011-.035v-.566a.064.064 0 0 0-.01-.035.093.093 0 0 0-.08-.04.102.102 0 0 0-.044.01c-.027.014-.045.037-.045.065v.566c0 .028.018.051.045.064.013.007.028.01.045.01" fill="#0068C9" mask="url(#i)"/><path fill="#1C417D" mask="url(#i)" d="M26.637 17.162v8.402h.179v-8.402z"/><path fill="#0068C9" mask="url(#i)" d="M26.954 16.983H21.81v8.581h.21V17.19H26.884v8.374h.11v-8.58z"/><path fill="#3CA1FF" mask="url(#i)" d="M32.179 25.564h.715v-8.58h-.715z"/><path fill="#1C417D" mask="url(#i)" d="M27.112 16.983h-.118v8.581h.18v-8.58zM31.821 17.162v8.402H32v-8.402z"/><path fill="#0068C9" mask="url(#i)" d="M32.044 16.983H27.173v8.581h.202V17.19H31.977v8.374h.202v-8.58z"/><path d="M27.441 21.453c.05 0 .09-.034.09-.075v-.566c0-.041-.04-.075-.09-.075a.102.102 0 0 0-.044.01c-.027.014-.045.037-.045.065v.566c0 .028.018.051.045.064.013.007.028.01.044.01M21.184 21.453a.093.093 0 0 0 .079-.04.064.064 0 0 0 .01-.035v-.566a.064.064 0 0 0-.01-.035.093.093 0 0 0-.079-.04.102.102 0 0 0-.044.01c-.027.014-.045.037-.045.065v.566c0 .028.018.051.045.064.013.007.028.01.044.01" fill="#0068C9" mask="url(#i)"/><path fill="#1C417D" mask="url(#i)" d="M21.274 17.162v8.402h.179v-8.402z"/><path fill="#0068C9" mask="url(#i)" d="M21.412 16.983h-5.144v8.581h.21V17.19H21.343v8.374h.11v-8.58z"/><path fill="#1C417D" mask="url(#i)" d="M21.563 16.983h-.11v8.581h.178v-8.58z"/><path d="M26.637 17.677v-.515H21.81v.884l4.597-.352v3.109a.06.06 0 0 1 .008.029v.471a.06.06 0 0 1-.008.03v4.231h.23v-7.887zM31.821 17.283v-.121h-4.648v.482l4.422-.344v8.264h.226zM21.453 18.099v-.937H16.626v1.307l4.597-.352v2.686a.06.06 0 0 1 .007.029v.471a.06.06 0 0 1-.007.03v4.231h.23V18.1z" fill="#FC95A4" mask="url(#i)"/><path d="M1.873 26.28h60.076c.047 0 .085-.04.085-.088v-.54a.086.086 0 0 0-.085-.088H1.873a.086.086 0 0 0-.085.088v.54c0 .048.038.087.085.087" fill="#DFF0FF" mask="url(#i)"/><path d="M0 25.545v-.256c0-.789.441-1.51 1.14-1.864l.393-.2a.673.673 0 0 0 .359-.487l.071-.418a2.324 2.324 0 0 1 2.287-1.94c1.032 0 1.994.524 2.56 1.393l.903 1.393c.34.522.918.837 1.539.837h.89c.378 0 .746.122 1.05.348l.672.498a.726.726 0 0 1 .292.583v.17a.675.675 0 0 1-.672.677H.73a.732.732 0 0 1-.73-.734" fill="#0097B8" mask="url(#i)"/><path d="M9.063 25.769v-.038a.466.466 0 0 0-.144-.337l-.932-.892a1.857 1.857 0 0 0-1.284-.517H5.55c-.384 0-.761-.099-1.096-.288l-.248-.14a1.835 1.835 0 0 1-.908-1.877l.103-.672a.562.562 0 0 0-.124-.45 2.35 2.35 0 0 0-1.304 1.731l-.071.421a.683.683 0 0 1-.062.187l-.015.1a1.28 1.28 0 0 1-.955 1.06l-.024.005a1.221 1.221 0 0 0-.727.516c-.078.222-.12.46-.12.703v.258c0 .409.329.74.734.74h1.504l.005-.083a.583.583 0 0 1 .592-.556l.349.008a.62.62 0 0 0 .56-.331l.07-.13a.693.693 0 0 1 .565-.369l.35-.023a.854.854 0 0 1 .865.584l.076.228a.513.513 0 0 1-.185.58l-.13.092h4.299l-.145-.014a.497.497 0 0 1-.446-.496M11.759 25.578h-.572a.586.586 0 0 1-.415-.175l-.064-.064a.441.441 0 0 0-.312-.132.46.46 0 0 0-.426.31l-.109.295a.456.456 0 0 0 .09.467h1.628a.65.65 0 0 0 .577-.374.418.418 0 0 0-.397-.327" fill="#00547A" mask="url(#i)"/></g></g></svg>