<svg viewBox="0 0 106 106" xmlns="http://www.w3.org/2000/svg" xmlns:xlink="http://www.w3.org/1999/xlink"><defs><path d="M88 44c0 24.3-19.7 44-44.001 44S0 68.3 0 44 19.698 0 43.999 0C68.3 0 88 19.7 88 44" id="a"/><path id="b" d="M0 0h13.427v6.91H0z"/><path id="d" d="M0 0h4.344v3.752H0z"/><path id="f" d="M0 0h11.057v5.726H0z"/><path id="h" d="M0 32.58h62V0H0z"/></defs><g fill="none" fill-rule="evenodd"><use fill="#FFEACF" xlink:href="#a" transform="translate(9 9)"/><g transform="translate(22 37)"><g transform="translate(48.573 25.866)"><mask id="c" fill="#fff"><use xlink:href="#b"/></mask><path d="M1.25 6.91C.56 6.91 0 6.35 0 5.658v-.448c0-.323.06-.644.18-.944L.322 3.9a2.656 2.656 0 0 1 2.463-1.687l.606-.001a1.16 1.16 0 0 0 .926-.474l.42-.57A2.86 2.86 0 0 1 7.042 0h.278c1.1 0 2.065.738 2.357 1.802.19.688.716 1.23 1.396 1.436l.33.1c.388.117.723.369.945.71l.929 1.43a.929.929 0 0 1-.774 1.433H1.25z" fill="#0097B8" mask="url(#c)"/></g><path d="M54.262 32.087a1.098 1.098 0 0 0-.594-.904l-1.138-.581a1.798 1.798 0 0 1-.968-1.752.877.877 0 0 1 .832-.808l1.225-.053a2.083 2.083 0 0 0 1.452-.682l.44-.484a.657.657 0 0 0-.079-.957 2.832 2.832 0 0 0-2.157 1.164l-.416.571a1.149 1.149 0 0 1-.919.474l-.601.002a2.637 2.637 0 0 0-2.446 1.688l-.142.364a2.6 2.6 0 0 0-.178.945v.448c0 .693.556 1.255 1.24 1.255h4.062a.72.72 0 0 0 .387-.69" fill="#00547A"/><path d="M53.22 28.828c-.25 0-.392.3-.241.511.258.362.663.575 1.092.575.373 0 .706.242.84.609l.072.198c.06.168.213.279.383.279h.074c.352 0 .636-.3.636-.672 0-.828-.636-1.5-1.42-1.5H53.22z" fill="#00547A"/><g transform="translate(56.076 28.828)"><mask id="e" fill="#fff"><use xlink:href="#d"/></mask><path d="m1.454 3.408.154-.387a.898.898 0 0 1 .836-.565.916.916 0 0 0 .886-.674l.152-.564c.112-.413.447-.724.862-.813a1.732 1.732 0 0 0-.407-.181A786.85 786.85 0 0 1 3.61.126 2.065 2.065 0 0 1 3.29 0a2.035 2.035 0 0 0-.99 1.027l-.115.266a1.07 1.07 0 0 1-.899.64l-.292.023a.911.911 0 0 0-.806.657l-.169.59a.501.501 0 0 0 .196.549h.941a.69.69 0 0 0 .298-.344" fill="#00547A" mask="url(#e)"/></g><path d="M1.03 32.777c-.57 0-1.03-.465-1.03-1.04v-.37c0-.268.05-.533.147-.783l.119-.302a2.188 2.188 0 0 1 2.029-1.397l.499-.002a.954.954 0 0 0 .762-.392l.345-.473a2.35 2.35 0 0 1 1.898-.967h.23c.905 0 1.7.611 1.94 1.493.156.57.59 1.019 1.15 1.19l.271.082c.32.098.596.306.779.59l.765 1.184c.08.125.123.27.123.42 0 .423-.34.767-.76.767H1.029z" fill="#0097B8"/><g transform="translate(0 27.051)"><mask id="g" fill="#fff"><use xlink:href="#f"/></mask><path d="m10.934 4.539-.765-1.185a1.421 1.421 0 0 0-.779-.589l-.27-.082c-.56-.17-.995-.62-1.15-1.19A2.017 2.017 0 0 0 6.028 0H5.8c-.033 0-.065.002-.097.003v.01l-.013-.01a2.35 2.35 0 0 0-1.788.964l-.345.473a.954.954 0 0 1-.762.392l-.5.002C1.4 1.836.595 2.39.267 3.23l-.119.302C.05 3.783 0 4.048 0 4.316v.371c0 .574.46 1.04 1.03 1.04h3.369a.596.596 0 0 0 .32-.572.91.91 0 0 0-.492-.749l-.944-.481a1.488 1.488 0 0 1-.803-1.451.727.727 0 0 1 .69-.669l1.016-.044a1.73 1.73 0 0 0 1.205-.565l.31-.341V2.78a1.196 1.196 0 0 0-.711-.235H3.767a.26.26 0 0 0-.206.416c.22.295.565.468.931.468.317 0 .601.198.715.496l.061.162a.35.35 0 0 0 .327.227h.063l.044-.002v1.413h4.595c.42 0 .76-.344.76-.768a.773.773 0 0 0-.123-.419" fill="#00547A" mask="url(#g)"/></g><path d="M25.64 13.817 16.089 2.414a.124.124 0 0 0-.19 0L6.346 13.817a.123.123 0 0 0 .096.202h.252l9.203-10.988c.05-.06.141-.06.19 0l9.205 10.988h.252a.123.123 0 0 0 .095-.202" fill="#00547A"/><path d="M15.899 3.006 6.713 14.025V32.58h18.56V14.025L16.09 3.006a.124.124 0 0 0-.19 0" fill="#E99462"/><path d="m38.31 13.815 5.98-7.233a.123.123 0 0 1 .094-.045h1.425l-3.57-4.32a.123.123 0 0 0-.096-.045H16.147a.123.123 0 0 0-.095.045l-.058.07c.049-.06.14-.06.19 0l9.528 11.528a.125.125 0 0 1-.095.204h12.789a.125.125 0 0 1-.095-.204" fill="#0097B8"/><path d="m44.29 6.56-5.955 7.254c-.067.081-.01.205.094.205h5.14c-.105 0-.162-.124-.095-.205l5.897-7.183c.05-.06.14-.06.19 0l-.058-.07a.123.123 0 0 0-.095-.045h-5.024a.123.123 0 0 0-.094.045" fill="#00547A"/><path d="m55.455 13.818-5.899-7.06a.123.123 0 0 0-.189 0l-5.899 7.06a.123.123 0 0 0 .095.201h.25l5.554-6.647a.123.123 0 0 1 .19 0l5.553 6.647h.25a.123.123 0 0 0 .095-.201" fill="#0097B8"/><path d="m49.32 7.35-5.58 6.686H25.275V32.58h29.712V14.036h.103L49.51 7.35a.124.124 0 0 0-.19 0" fill="#EACBAC"/><path d="M27.915.197h-5.282a.123.123 0 0 0-.123.123v.733c0 .068.055.123.123.123h.289v2.84c0 .031.012.061.034.084l2.281 2.378a.123.123 0 0 0 .09.038h2.176a.123.123 0 0 0 .123-.123V1.176h.289a.123.123 0 0 0 .123-.123V.32a.123.123 0 0 0-.123-.123" fill="#E99462"/><path d="M27.915.197h-2.518a.123.123 0 0 0-.123.123v.733c0 .068.055.123.123.123h-.123v5.217c0 .068.055.123.123.123h2.106a.123.123 0 0 0 .123-.123V1.176h.289a.123.123 0 0 0 .123-.123V.32a.123.123 0 0 0-.123-.123" fill="#EACBAC"/><path d="M19.462 6.516h5.812a.124.124 0 0 1-.09-.04l-2.318-2.49a.129.129 0 0 1-.024-.037h-5.466l2.086 2.567z" fill="#00547A"/><path d="M17.573 10.564a2.073 2.073 0 1 1-4.146 0 2.073 2.073 0 0 1 4.146 0" fill="#AA391B"/><path d="M17.968 10.564a2.276 2.276 0 0 0-2.37-2.269 2.276 2.276 0 0 1 2.184 2.269c0 1.22-.971 2.22-2.183 2.268l.093.002a2.275 2.275 0 0 0 2.276-2.27" fill="#EACBAC"/><path d="M15.599 10.662v1.777c.067-.006.132-.016.197-.028v-1.749H15.6zM15.599 8.688v1.777h.197V8.717a2.046 2.046 0 0 0-.197-.03M13.624 10.465h.194A1.984 1.984 0 0 1 15.4 8.716v-.028a1.983 1.983 0 0 0-1.777 1.777M13.818 10.662h-.194c.092.938.84 1.686 1.777 1.777v-.028a1.984 1.984 0 0 1-1.583-1.749" fill="#D76230"/><path d="M17.317 10.015c.036.117.061.238.074.363h-1.706V8.673a1.867 1.867 0 0 1 .736.23c.427.238.752.636.896 1.112zm-1.632 2.44v-1.706h1.706a1.904 1.904 0 0 1-1.706 1.705zm-.37-3.754v1.677h-1.706c.088-.9.806-1.617 1.705-1.705v.028zm0 3.726v.027a1.903 1.903 0 0 1-1.706-1.705h1.706v1.678zm-2.086-1.863a2.273 2.273 0 0 0 2.364 2.268 2.273 2.273 0 0 0 2.178-2.268A2.273 2.273 0 0 0 15.5 8.293c-.606 0-1.156.239-1.564.627a2.264 2.264 0 0 0-.707 1.644z" fill="#E99462"/><mask id="i" fill="#fff"><use xlink:href="#h"/></mask><path fill="#E99462" mask="url(#i)" d="M25.274 31.066h13.032v-.103H25.274zM43.834 31.066H55.09v-.103H43.834z"/><path d="M47.279 30.678V19.672c0-.069.049-.124.11-.124h-.285c-.061 0-.11.055-.11.124v11.006c0 .069.049.125.11.125h.285c-.061 0-.11-.056-.11-.125M52.028 25.552a.207.207 0 0 1-.203-.212c0-.023.004-.045.01-.066a.213.213 0 0 0-.103.183c0 .117.091.212.203.212.09 0 .166-.061.192-.146a.195.195 0 0 1-.1.029" fill="#D76230" mask="url(#i)"/><path d="M51.93 25.076a.197.197 0 0 0-.187.136.197.197 0 1 0 .187-.136" fill="#EACBAC" mask="url(#i)"/><path d="M53.115 23.824v1.122c0 .29.209.525.467.525h.125c-.258 0-.467-.235-.467-.525v-1.122c0-.29.21-.525.467-.525h-.125a.425.425 0 0 0-.23.069.538.538 0 0 0-.237.456" fill="#D76230" mask="url(#i)"/><path d="M54.193 24.807a.362.362 0 0 1-.353.371h-.022l-.019-.001a.363.363 0 0 1-.334-.37v-.843c0-.199.148-.36.334-.37l.019-.001h.022c.195 0 .353.166.353.37v.844zm-.347-1.508h-.035c-.275 0-.499.235-.499.525v1.122c0 .29.224.525.5.525h.034a.478.478 0 0 0 .318-.12.52.52 0 0 0 .142-.2.546.546 0 0 0 .04-.205v-1.122a.513.513 0 0 0-.5-.525z" fill="#ED985A" mask="url(#i)"/><path d="M49.433 20.338h-1.324a.127.127 0 0 0-.128.125v.061a.13.13 0 0 1 .027-.003h1.324c.07 0 .128.057.128.126v4.232a.126.126 0 0 0 .1-.123v-4.293a.127.127 0 0 0-.127-.125M51.407 20.338h-1.324a.127.127 0 0 0-.128.125v.061a.13.13 0 0 1 .028-.003h1.323c.071 0 .128.057.128.126v4.232a.126.126 0 0 0 .101-.123v-4.293a.127.127 0 0 0-.128-.125M49.433 25.471h-1.324a.127.127 0 0 0-.128.126v.061a.13.13 0 0 1 .027-.003h1.324c.07 0 .128.056.128.126v4.232a.126.126 0 0 0 .1-.123v-4.293a.127.127 0 0 0-.127-.126M51.407 25.471h-1.324a.127.127 0 0 0-.128.126v.061a.13.13 0 0 1 .028-.003h1.323c.071 0 .128.056.128.126v4.232a.126.126 0 0 0 .101-.123v-4.293a.127.127 0 0 0-.128-.126" fill="#D76230" mask="url(#i)"/><path d="M52.084 25.403a.25.25 0 0 1-.236.17.245.245 0 0 1-.123-.46.25.25 0 0 1 .236-.17c.139 0 .25.11.25.246a.245.245 0 0 1-.127.214zm-.545-.68c0 .06-.042.11-.1.121v-4.183a.125.125 0 0 0-.125-.124h-1.302a.128.128 0 0 0-.026.003v-.06c0-.07.056-.125.125-.125h1.302c.07 0 .126.056.126.124v4.244zm0 5.148c0 .06-.042.109-.1.121V25.81a.125.125 0 0 0-.125-.124h-1.302a.132.132 0 0 0-.026.003v-.06c0-.07.056-.125.125-.125h1.302c.07 0 .126.056.126.124v4.244zm-2.009-5.148c0 .06-.042.11-.099.121v-4.183a.125.125 0 0 0-.126-.124h-1.301a.128.128 0 0 0-.027.003v-.06c0-.07.056-.125.126-.125h1.301c.07 0 .126.056.126.124v4.244zm0 5.148c0 .06-.042.109-.099.121V25.81a.125.125 0 0 0-.126-.124h-1.301a.132.132 0 0 0-.027.003v-.06c0-.07.056-.125.126-.125h1.301c.07 0 .126.056.126.124v4.244zM52.2 19.548h-4.882a.125.125 0 0 0-.126.124v11.006c0 .069.056.125.126.125h4.882c.07 0 .126-.056.126-.125V19.672a.125.125 0 0 0-.126-.124z" fill="#ED985A" mask="url(#i)"/><path d="M53.747 23.497H53.707c.187.01.336.172.336.37v.84a.363.363 0 0 1-.336.368l.018.001h.022a.362.362 0 0 0 .355-.37v-.84a.362.362 0 0 0-.355-.37" fill="#D76230" mask="url(#i)"/><path d="M54.333 24.283v.015c0 .052-.037.097-.095.126a.322.322 0 0 1-.212.072h-.09c-.147 0-.268-.081-.268-.182v-.013c0-.101.12-.183.269-.183h.165c.128 0 .231.07.231.158v.007zm.21.424v-.841c0-.198-.229-.36-.517-.37-.288.01-.516.172-.516.37v.841c0 .198.228.36.516.37.288-.01.517-.172.517-.37z" fill="#EACBAC" mask="url(#i)"/><path d="m53.806 24.44-.003.001h-.061a.17.17 0 0 1-.168-.172v-.008a.17.17 0 0 1 .168-.172h-.046a.188.188 0 0 0-.186.19v.015c0 .105.083.19.186.19h.061c.06 0 .114-.03.147-.075a.157.157 0 0 1-.094.032h-.004" fill="#E99462" mask="url(#i)"/><path d="M53.707 24.282v.01c0 .106.064.192.143.192h.054c-.074-.003-.133-.084-.133-.184v-.026c0-.1.06-.182.133-.184h-.054c-.08 0-.143.085-.143.192" fill="#D76230" mask="url(#i)"/><path d="M53.904 24.09H53.9c-.107.002-.193.083-.193.184v.026c0 .1.086.181.193.184h.004a.204.204 0 0 0 .117-.036.18.18 0 0 0 .08-.148v-.026c0-.102-.087-.185-.197-.185" fill="#ED985A" mask="url(#i)"/><path d="M17.648 24.09h-4.296a.123.123 0 0 1-.123-.123v-5.68c0-.067.055-.121.123-.121h4.296c.068 0 .123.054.123.122v5.68a.123.123 0 0 1-.123.121" fill="#FC95A4" mask="url(#i)"/><path d="M13.427 18.291v5.475c0 .07.059.126.131.126h.264a.129.129 0 0 1-.132-.126v-5.475c0-.07.059-.125.132-.125h-.264a.129.129 0 0 0-.131.125M15.862 23.766v-5.475c0-.07.059-.125.132-.125h-.264a.129.129 0 0 0-.131.125v5.475c0 .07.059.126.131.126h.264a.129.129 0 0 1-.132-.126" fill="#D76230" mask="url(#i)"/><path d="M18.034 17.968h-.263c.072 0 .131.055.131.123V24.164c0 .068-.059.123-.131.123h.263c.073 0 .132-.055.132-.123v-6.073c0-.068-.06-.123-.132-.123" fill="#EACBAC" mask="url(#i)"/><path d="M13.527 18.336H15.19c.068 0 .123.055.123.123v5.337a.123.123 0 0 1-.123.123h-1.664a.123.123 0 0 1-.124-.123V18.46c0-.068.055-.123.124-.123zm4.07.123v5.337a.123.123 0 0 1-.124.123H15.81a.123.123 0 0 1-.123-.123V18.46c0-.068.055-.123.123-.123h1.664c.069 0 .124.055.124.123zm-4.565 5.705c0 .068.055.123.124.123H17.844a.123.123 0 0 0 .124-.123V18.091a.123.123 0 0 0-.124-.123h-4.688a.123.123 0 0 0-.122.106l-.002.017v6.073z" fill="#E99462" mask="url(#i)"/><path d="M29.938 24.09h4.296a.123.123 0 0 0 .123-.123v-5.68a.123.123 0 0 0-.123-.121h-4.296a.123.123 0 0 0-.123.122v5.68c0 .066.055.121.123.121" fill="#FAD1C5" mask="url(#i)"/><path d="M33.896 18.291v5.475c0 .07-.059.126-.132.126h.264a.129.129 0 0 0 .131-.126v-5.475a.129.129 0 0 0-.131-.125h-.264c.073 0 .132.056.132.125M31.592 23.892h.198v-5.726h-.198zM29.42 18.596v5.568c0 .068.06.123.132.123h.263c-.072 0-.131-.055-.131-.123v-6.073c0-.068.059-.123.131-.123h-.263a.129.129 0 0 0-.13.106l-.002.017v.505z" fill="#D76230" mask="url(#i)"/><path d="M34.183 23.796a.123.123 0 0 1-.124.123h-1.787v-5.583h1.787c.069 0 .124.055.124.123v5.337zm-4.07.123a.123.123 0 0 1-.124-.123V18.46c0-.068.055-.123.124-.123H31.9v5.583h-1.787zm4.317-5.95H29.742a.123.123 0 0 0-.124.122v6.073c0 .068.055.123.124.123h4.688a.123.123 0 0 0 .124-.123v-6.073a.123.123 0 0 0-.124-.123z" fill="#ED985A" mask="url(#i)"/><path d="M50.261 32.49v-.413c0-.05.04-.09.09-.09h-1.095a.09.09 0 0 1-.089-.089v-.414c0-.05.04-.09.09-.09h-1.08a.09.09 0 0 1-.09-.088v-.414c0-.05.04-.09.09-.09h-1.094a.09.09 0 0 0-.09.09v1.598c0 .05.04.09.09.09h3.267a.09.09 0 0 1-.089-.09" fill="#D76230" mask="url(#i)"/><path d="M56.578 31.987h-1.105c.05 0 .09-.04.09-.089v-.414a.09.09 0 0 0-.09-.09h-1.09c.05 0 .09-.039.09-.088v-.414a.09.09 0 0 0-.09-.09h-6.114a.09.09 0 0 0-.09.09v.414c0 .049.04.089.09.089h1.09a.09.09 0 0 0-.09.09v.413c0 .05.04.09.09.09h1.106a.09.09 0 0 0-.09.089v.413c0 .05.04.09.09.09H56.578c.05 0 .09-.04.09-.09v-.413a.09.09 0 0 0-.09-.09" fill="#EACBAC" mask="url(#i)"/><path d="M49.758 12.637c-1.309 0-2.37 1.076-2.37 2.402v1.744h4.74V15.04c0-1.326-1.061-2.402-2.37-2.402" fill="#AA391B" mask="url(#i)"/><path d="M46.994 15.04v1.816c0 .069.056.125.126.125h.19a.126.126 0 0 1-.126-.125v-1.77c0-1.419 1.148-2.61 2.574-2.645v-.002h-.127c-.06 0-.12.003-.179.007-1.373.091-2.458 1.218-2.458 2.595M51.089 13.42a2.295 2.295 0 0 0-.989-.387.13.13 0 0 0-.085.018c.325.061.626.19.885.37a.117.117 0 0 1 .01.185l-.955.84v.165l1.144-1.005a.117.117 0 0 0-.01-.185M49.166 16.783h.237c.087 0 .158-.058.158-.13v-1.45h-.237v1.45c0 .072-.071.13-.158.13M51.74 14.67c.016.071-.044.139-.123.139h.187c.08 0 .14-.068.123-.14a1.987 1.987 0 0 0-.395-.801.132.132 0 0 0-.185-.015l-.01.008.008.007c.19.234.326.506.395.802" fill="#D76230" mask="url(#i)"/><path d="m47.98 13.86 1.186.949h.197l-1.195-.957a.146.146 0 0 0-.187.008M49.56 13.154c0-.074-.054-.132-.115-.12a1.434 1.434 0 0 0-.082.017.129.129 0 0 1 .047.103v1.289l.15.168v-1.457zM51.535 16.783h.237c.087 0 .158-.058.158-.13v-1.45h-.237v1.45c0 .072-.07.13-.158.13" fill="#D76230" mask="url(#i)"/><path d="M49.388 15.098h.185v1.383a.124.124 0 0 1-.123.125h-1.766a.124.124 0 0 1-.123-.125v-1.383h1.827zm-1.195-1.421 1.119 1.047h-1.581a.125.125 0 0 1-.121-.15 2.23 2.23 0 0 1 .401-.882l.007-.007a.122.122 0 0 1 .175-.008zm.275-.253a.126.126 0 0 1 .011-.193 2.17 2.17 0 0 1 .952-.392.124.124 0 0 1 .142.124v1.495l-.185-.173-.92-.86zm2.594.012-1.12 1.047v-1.52a.125.125 0 0 1 .143-.124c.358.055.687.196.967.404.063.046.067.14.01.193zm.262.264.01-.009a.122.122 0 0 1 .182.017c.187.252.322.546.39.865a.125.125 0 0 1-.121.15H50.23l1.094-1.023zm-1.381 2.781v-1.383h2.012v1.383a.124.124 0 0 1-.123.125h-1.766a.124.124 0 0 1-.123-.125zm-.14-4.041h-.107c-1.387.036-2.505 1.227-2.505 2.647v1.769c0 .069.055.125.123.125H52.202a.124.124 0 0 0 .123-.125v-1.815c0-1.42-1.128-2.577-2.522-2.601z" fill="#ED985A" mask="url(#i)"/><path fill="#E99462" mask="url(#i)" d="M27.643 1.185h-2.37v.987l2.37-.757zM33.958 24.19h-4.511a.123.123 0 0 1-.123-.123v-6.082l.001-.017-.46.457a.122.122 0 0 0-.037.087v6.047c0 .068.055.123.124.123h4.609a.249.249 0 0 0 .175-.072l.423-.42h-.201zM53.387 23.3a.53.53 0 0 0-.47.52v1.125c0 .29.242.526.54.526h.182a.547.547 0 0 0 .265-.068.542.542 0 0 1-.07.005h-.182a.533.533 0 0 1-.54-.526v-1.125c0-.196.111-.367.275-.458M49.444 12.44c-1.462.01-2.648 1.265-2.648 2.764v1.85c0 .069.055.124.122.124h5.087a.124.124 0 0 0 .122-.124v-.087h-4.935a.123.123 0 0 1-.123-.125V15.03c0-1.375 1.049-2.5 2.375-2.59"/><path d="M47.025 19.592h-.053a.124.124 0 0 0-.107.06l-.317.53a.124.124 0 0 0-.018.063v10.433c0 .037.017.07.043.093h-.557a.09.09 0 0 0-.09.09v.422c0 .05.04.09.09.09h-1.099a.09.09 0 0 0-.09.092v.42c0 .051.04.092.09.092h-1.113a.09.09 0 0 0-.063.025V14.65l5.537-6.682 5.584 6.068H55.09L49.51 7.35a.124.124 0 0 0-.186-.004l-.004.004-5.58 6.686H25.275v1.803l13.053-1.181V32.58h5.414v-.026a.09.09 0 0 0 .063.026h3.188a.09.09 0 0 1-.09-.091v-1.627c0-.05.04-.091.09-.091h-.048a.123.123 0 0 1-.043-.093V19.716c0-.068.056-.124.124-.124M54.3 31.296c0-.054-.041-.099-.091-.099H48.07c-.05 0-.09.045-.09.1 0 .054.04.098.09.098h6.138c.05 0 .09-.044.09-.099M55.484 31.889c0-.055-.04-.1-.09-.1h-6.138c-.05 0-.09.045-.09.1 0 .054.04.098.09.098h6.137c.05 0 .091-.044.091-.098M56.578 32.382h-6.137c-.05 0-.09.044-.09.099 0 .054.04.099.09.099h6.137c.05 0 .09-.045.09-.1 0-.054-.04-.098-.09-.098" fill="#E99462" mask="url(#i)"/><path fill="#D76230" mask="url(#i)" d="M25.274.987h-2.37v2.37l2.37-1.282zM43.637 14.02h-5.331v1.776l5.33-1.164zM38.306 31.066h5.33v-.103h-5.33zM6.713 31.066h18.56v-.103H6.714zM15.899 3.006 6.713 14.02h.446l8.453-9.938a.124.124 0 0 1 .184-.004l9.265 9.942h.213L16.089 3.006a.124.124 0 0 0-.19 0"/><path d="M13.86 8.885a2.255 2.255 0 0 0-1.026 1.885c0 1.247 1.028 2.262 2.291 2.262.467 0 .901-.139 1.264-.376a2.306 2.306 0 0 1-.858.127 2.25 2.25 0 0 1-.094.002c-1.263 0-2.29-1.014-2.29-2.262 0-.644.274-1.225.713-1.638M12.44 18.512v6.047c0 .068.055.123.123.123h4.61a.249.249 0 0 0 .175-.072l.423-.42h-4.712a.123.123 0 0 1-.124-.123v-6.082c0-.006 0-.011.002-.017l-.461.457a.122.122 0 0 0-.037.087M25.274 25.153a4.544 4.544 0 0 0-2.018-.471 3.417 3.417 0 0 0-3.376 2.821l-.105.608a.98.98 0 0 1-.53.71l-.793.395a2.647 2.647 0 0 0-1.471 2.367c0 .373.123.718.331.997h7.962v-7.427z" fill="#D76230" mask="url(#i)"/><path d="M18.758 31.695v-.377c0-1.16.652-2.222 1.686-2.745l.58-.293a.992.992 0 0 0 .53-.718l.106-.615a3.432 3.432 0 0 1 3.38-2.858c1.525 0 2.948.772 3.782 2.052l1.337 2.05a2.715 2.715 0 0 0 2.273 1.234h1.317c.559 0 1.103.18 1.553.512l.992.733c.272.201.432.52.432.859v.25c0 .552-.445.998-.994.998H19.837a1.08 1.08 0 0 1-1.079-1.082" fill="#0097B8" mask="url(#i)"/><path d="M32.105 31.84v-.056a.67.67 0 0 0-.212-.488l-1.373-1.293a2.758 2.758 0 0 0-1.891-.749h-1.696a3.328 3.328 0 0 1-1.615-.417l-.365-.203a2.647 2.647 0 0 1-1.337-2.722l.152-.974a.806.806 0 0 0-.183-.651 3.414 3.414 0 0 0-1.92 2.508l-.105.61a.976.976 0 0 1-.09.272l-.022.145a1.866 1.866 0 0 1-1.408 1.535l-.035.009c-.45.11-.827.383-1.07.748a3.027 3.027 0 0 0-.177 1.018v.374c0 .593.484 1.074 1.081 1.074h2.215l.007-.121a.853.853 0 0 1 .872-.806l.513.011a.915.915 0 0 0 .826-.48l.101-.188c.167-.31.482-.511.834-.535l.515-.033a1.257 1.257 0 0 1 1.274.846l.112.331a.738.738 0 0 1-.273.84l-.19.135h6.33l-.213-.021a.725.725 0 0 1-.657-.72M36.118 31.744h-.875a.913.913 0 0 1-.633-.258l-.099-.094a.688.688 0 0 0-1.128.263l-.167.433a.653.653 0 0 0 .139.69h2.487a.997.997 0 0 0 .884-.551.634.634 0 0 0-.608-.483" fill="#00547A" mask="url(#i)"/></g></g></svg>