<?xml version="1.0" encoding="UTF-8"?>
<svg width="106px" height="106px" viewBox="0 0 106 106" version="1.1" xmlns="http://www.w3.org/2000/svg" xmlns:xlink="http://www.w3.org/1999/xlink">
    <title>4. Elements_Microillustrations/Home Classic</title>
    <defs>
        <path d="M88,44 C88,68.3004855 68.3000427,88 43.9990109,88 C19.6979792,88 0,68.3004855 0,44 C0,19.6995145 19.6979792,0 43.9990109,0 C68.3000427,0 88,19.6995145 88,44" id="path-1"></path>
        <polygon id="path-3" points="7.08404035e-15 0 13.4267516 0 13.4267516 6.91082803 7.08404035e-15 6.91082803"></polygon>
        <polygon id="path-5" points="0 0 4.34394904 0 4.34394904 3.75159236 0 3.75159236"></polygon>
        <polygon id="path-7" points="0 0 11.0573248 0 11.0573248 5.72611465 0 5.72611465"></polygon>
        <polygon id="path-9" points="0 32.5796178 62 32.5796178 62 0 0 0"></polygon>
    </defs>
    <g id="4.-Elements_Microillustrations/Home-Classic" stroke="none" stroke-width="1" fill="none" fill-rule="evenodd">
        <g id="Vector-Smart-Object" transform="translate(9.000000, 9.000000)">
            <mask id="mask-2" fill="white">
                <use xlink:href="#path-1"></use>
            </mask>
            <use id="Mask" fill="#FFEACF" xlink:href="#path-1"></use>
        </g>
        <g id="Group-108" transform="translate(22.000000, 37.000000)">
            <g id="Group-3" transform="translate(48.573248, 25.866242)">
                <mask id="mask-4" fill="white">
                    <use xlink:href="#path-3"></use>
                </mask>
                <g id="Clip-2"></g>
                <path d="M1.24966471,6.91082803 C0.559498352,6.91082803 7.08404035e-15,6.34931426 7.08404035e-15,5.65666181 L7.08404035e-15,5.20877657 C7.08404035e-15,4.88552624 0.060754081,4.56521513 0.179084337,4.26454043 L0.32252628,3.89995359 C0.722132353,2.88436349 1.69837254,2.21603767 2.78633793,2.21322353 L3.39219632,2.21159759 C3.75784242,2.20878345 4.100807,2.03324396 4.31790158,1.73794738 L4.73757208,1.16717824 C5.27731756,0.433064188 6.13248578,-0.000187548104 7.04161608,0 L7.31996323,0 C8.42026637,0.000187669913 9.38497887,0.737803754 9.6773462,1.8023598 C9.86615119,2.48975921 10.3933097,3.03176163 11.0734438,3.23781886 C11.1862906,3.2719637 11.2977666,3.30579586 11.4022636,3.33737671 C11.791152,3.45519517 12.1258914,3.70702899 12.347784,4.04847739 L13.2768541,5.47805803 C13.3746838,5.62858299 13.4267765,5.8044977 13.4267765,5.98422713 C13.4267765,6.49596197 13.0133372,6.91082803 12.5034391,6.91082803 L1.24966471,6.91082803 Z" id="Fill-1" fill="#0097B8" mask="url(#mask-4)"></path>
            </g>
            <path d="M54.2615427,32.0872199 C54.2351341,31.701029 54.0097026,31.3575743 53.6681848,31.1831252 L52.529957,30.601899 C51.8844004,30.2722101 51.5014453,29.5789185 51.5621788,28.8498987 C51.5991013,28.4071431 51.9555861,28.0609979 52.3944507,28.0421014 L53.6188311,27.9892911 C54.1731636,27.9653262 54.6953977,27.7197333 55.0708076,27.3065115 L55.5104144,26.8225214 C55.7850758,26.5201762 55.7071489,26.0846789 55.4323637,25.866242 C54.5790021,25.9055995 53.7853844,26.3310853 53.2754579,27.0302586 L52.8589199,27.6013481 C52.6434458,27.8967479 52.3030412,28.0723859 51.9400625,28.0752642 L51.3387883,28.0768285 C50.2589438,28.0796442 49.2899906,28.7484078 48.8933673,29.764568 L48.7509342,30.1292969 C48.633549,30.430203 48.5732484,30.7506939 48.5732484,31.0741257 L48.5732484,31.5222624 C48.5732484,32.2153037 49.1285705,32.7770701 49.8135853,32.7770701 L53.8750004,32.7770701 C54.1196662,32.650488 54.2819521,32.3855606 54.2615427,32.0872199" id="Fill-4" fill="#00547A"></path>
            <path d="M53.219899,28.8280255 C52.97052,28.8280255 52.8284824,29.1289219 52.9787122,29.3391868 C53.2373676,29.7012038 53.6419157,29.9139491 54.0714018,29.9139491 C54.443603,29.9139491 54.7772528,30.1562054 54.9105561,30.5229924 L54.9827194,30.7214912 C55.0436185,30.8892706 55.1961975,31 55.3663656,31 L55.4402155,31 C55.7915748,31 56.0764331,30.6992308 56.0764331,30.3282461 C56.0764331,29.4997158 55.4403359,28.8280255 54.6555751,28.8280255 L53.219899,28.8280255 Z" id="Fill-6" fill="#00547A"></path>
            <g id="Group-10" transform="translate(56.076433, 28.828025)">
                <mask id="mask-6" fill="white">
                    <use xlink:href="#path-5"></use>
                </mask>
                <g id="Clip-9"></g>
                <path d="M1.45361274,3.40842262 L1.60774573,3.0205308 C1.74300149,2.68017626 2.0745681,2.45644239 2.44370229,2.45644239 C2.85906392,2.45644239 3.22259101,2.17998535 3.32993586,1.78240087 L3.48238672,1.21800377 C3.59390575,0.80523205 3.92927273,0.49438766 4.34394904,0.405486782 C4.21778926,0.328377618 4.08128748,0.266949581 3.93724727,0.22385735 C3.83276828,0.192618569 3.72131156,0.15928074 3.60854651,0.125510753 C3.49796201,0.0924816078 3.39198778,0.0498215337 3.29037464,0 C2.85594886,0.208855327 2.49871419,0.566743097 2.30009819,1.02686688 L2.18540181,1.29264346 C2.02890137,1.65516149 1.68256939,1.90186142 1.2860227,1.93322368 L0.993581197,1.95643668 C0.612921295,1.98668768 0.291447467,2.24845137 0.187716086,2.61257455 L0.0193784335,3.20382713 C-0.0419881791,3.41941176 0.0476008453,3.63345297 0.214630174,3.75161705 L1.15624945,3.75161705 C1.28863935,3.67518699 1.39498738,3.55603512 1.45361274,3.40842262" id="Fill-8" fill="#00547A" mask="url(#mask-6)"></path>
            </g>
            <path d="M1.02909412,32.7770701 C0.460734777,32.7770701 0,32.311781 0,31.7379433 L0,31.3668132 C0,31.0989764 0.0500017435,30.8335796 0.147464869,30.5843868 L0.265560685,30.2823275 C0.5946304,29.4409032 1.39862374,28.887086 2.29462772,28.8847086 L2.79352987,28.8834573 C3.09465562,28.8810798 3.37713139,28.7356184 3.55588607,28.4909303 L3.90149912,28.018071 C4.34600036,27.4097604 5.05023806,27.0508303 5.79890109,27.0509554 L6.0281532,27.0509554 C6.93431862,27.0511431 7.72877012,27.6622065 7.96954679,28.5442974 C8.1250045,29.1138808 8.55915843,29.5629657 9.11927709,29.7337031 C9.21221713,29.7620446 9.3040419,29.7900108 9.39004242,29.8162251 C9.71031381,29.9138251 9.98597398,30.1224763 10.1687561,30.4054536 L10.9338385,31.5899167 C11.0144485,31.7146695 11.0573248,31.8603812 11.0573248,32.0093463 C11.0573248,32.433343 10.7168545,32.7770701 10.2968894,32.7770701 L1.02909412,32.7770701 Z" id="Fill-11" fill="#0097B8"></path>
            <g id="Group-15" transform="translate(0.000000, 27.050955)">
                <mask id="mask-8" fill="white">
                    <use xlink:href="#path-7"></use>
                </mask>
                <g id="Clip-14"></g>
                <path d="M10.9339002,4.53899408 L10.1687545,3.3544136 C9.98603408,3.07156326 9.71037344,2.86291343 9.39010152,2.76525154 C9.30403889,2.73903737 9.21227594,2.71107141 9.11933574,2.68279263 C8.55921613,2.51205638 8.12506148,2.06291181 7.96960351,1.49333218 C7.72876447,0.611309596 6.93431165,0.000187691003 6.02820666,0 L5.79895417,0 C5.7664251,0 5.73408191,0.00156409169 5.70167676,0.00287792871 L5.70167676,0.0132009339 C5.6975874,0.00975993214 5.69331215,0.00663174876 5.68909886,0.00325331071 C4.98182394,0.0364120545 4.32417909,0.388708067 3.90148706,0.967109173 L3.5559354,1.44002794 C3.37711846,1.68471444 3.09464221,1.8301124 2.79351597,1.83248982 L2.29461297,1.83380366 C1.39860749,1.83618108 0.594674768,2.3899321 0.265604502,3.23141343 L0.147446528,3.53347082 C0.0500451994,3.78259934 -1.85880399e-05,4.04799442 -1.85880399e-05,4.31589204 L-1.85880399e-05,4.68695716 C-1.85880399e-05,5.26085368 0.460778921,5.72613968 1.02913922,5.72613968 L4.39896497,5.72613968 C4.60200832,5.62128297 4.73664769,5.40187219 4.71973258,5.15480826 C4.69786065,4.83504536 4.51074105,4.55063093 4.2273354,4.40617142 L3.28300102,3.92480656 C2.74735567,3.65177871 2.4296241,3.0776945 2.47999769,2.47395511 C2.510606,2.10726945 2.80640367,1.82072785 3.17054337,1.80502437 L4.18644171,1.76129237 C4.64637178,1.74145969 5.07972095,1.5380652 5.39119454,1.19584194 L5.70167676,0.854682263 L5.70167676,2.78070477 C5.50179338,2.6334299 5.25624537,2.54552794 4.9898168,2.54552794 L3.76672377,2.54552794 C3.55426248,2.54552794 3.4333163,2.79071496 3.56126397,2.96195171 C3.7815942,3.25687684 4.12627842,3.43024077 4.49215301,3.43024077 L4.49215301,3.43024077 C4.80920301,3.43024077 5.0934761,3.62756657 5.20704902,3.92643321 L5.26845151,4.08816029 C5.32037411,4.22486191 5.45036646,4.31501615 5.59529122,4.31501615 L5.65824271,4.31501615 C5.67292726,4.31501615 5.68730201,4.31395257 5.70167676,4.31282642 L5.70167676,5.72613968 L10.29695,5.72613968 C10.7169158,5.72613968 11.0573248,5.38235232 11.0573248,4.95835835 C11.0573248,4.80939425 11.0144484,4.66368347 10.9339002,4.53899408" id="Fill-13" fill="#00547A" mask="url(#mask-8)"></path>
            </g>
            <path d="M25.6397933,13.8168004 L16.0888779,2.41378954 C16.0392831,2.35463915 15.9479665,2.35463915 15.8983717,2.41378954 L6.34745634,13.8168004 C6.28013132,13.8971684 6.33759936,14.0191083 6.44267846,14.0191083 L6.69455833,14.0191083 L15.8983717,3.03058193 C15.9479665,2.97136986 16.0392831,2.97136986 16.0888779,3.03058193 L25.2926293,14.0191083 L25.5445712,14.0191083 C25.6497122,14.0191083 25.7071183,13.8971684 25.6397933,13.8168004" id="Fill-16" fill="#00547A"></path>
            <path d="M15.8985389,3.00631447 L6.7133758,14.0250227 L6.7133758,32.5796178 L25.2738854,32.5796178 L25.2738854,14.0250227 L16.0886604,3.00631447 C16.0391657,2.94693976 15.9480336,2.94693976 15.8985389,3.00631447" id="Fill-18" fill="#E99462"></path>
            <path d="M38.3106285,13.8145893 L44.2890607,6.58160241 C44.3125002,6.55316929 44.3473193,6.53670801 44.3840556,6.53670801 L45.8089172,6.53670801 L42.2383212,2.21686892 C42.2148199,2.1884358 42.1800008,2.17197452 42.1433263,2.17197452 L16.1465748,2.17197452 C16.1098385,2.17197452 16.0750194,2.1884358 16.0515181,2.21686892 L15.9936306,2.28695407 C16.0430452,2.22715722 16.1342057,2.22715722 16.1836822,2.28695407 L25.7118065,13.8145893 C25.778909,13.8957734 25.72164,14.0191083 25.6168116,14.0191083 L38.4056853,14.0191083 C38.3007951,14.0191083 38.243526,13.8958357 38.3106285,13.8145893" id="Fill-20" fill="#0097B8"></path>
            <path d="M44.2897598,6.56094268 L38.3345075,13.8140212 C38.2676651,13.8954933 38.3247121,14.0191083 38.4291956,14.0191083 L43.5683553,14.0191083 C43.4638718,14.0191083 43.4068248,13.8954933 43.4736671,13.8140212 L49.3711948,6.63122251 C49.4204795,6.57125955 49.5112249,6.57125955 49.5605096,6.63122251 L49.5027849,6.56094268 C49.4793747,6.53243057 49.4446906,6.51592357 49.4081583,6.51592357 L45.8037235,6.51592357 L44.384448,6.51592357 C44.3478541,6.51592357 44.31317,6.53243057 44.2897598,6.56094268" id="Fill-22" fill="#00547A"></path>
            <path d="M55.4552951,13.8175289 L49.5564626,6.75757884 C49.507167,6.69864145 49.4164015,6.69864145 49.3671059,6.75757884 L43.4682734,13.8175289 C43.4014163,13.8976075 43.4584759,14.0191083 43.5629209,14.0191083 L43.8133425,14.0191083 L49.3671059,7.37215021 C49.4164015,7.31315136 49.507167,7.31315136 49.5564626,7.37215021 L55.110226,14.0191083 L55.360586,14.0191083 C55.4650926,14.0191083 55.5221522,13.8976075 55.4552951,13.8175289" id="Fill-24" fill="#0097B8"></path>
            <path d="M49.3198252,7.3502379 L43.7407596,14.0356935 L43.489259,14.0356935 L38.3255438,14.0356935 L25.5254478,14.0356935 L25.2738854,14.0356935 L25.2738854,32.5796178 L54.9859843,32.5796178 L54.9859843,14.0356935 L55.089172,14.0356935 L49.5100445,7.3502379 C49.4605243,7.29089734 49.3693453,7.29089734 49.3198252,7.3502379" id="Fill-26" fill="#EACBAC"></path>
            <path d="M27.9150371,0.197452229 L22.6327336,0.197452229 C22.5646769,0.197452229 22.5095541,0.252362951 22.5095541,0.320020805 L22.5095541,1.05347116 C22.5095541,1.12112901 22.5646769,1.17603973 22.6327336,1.17603973 L22.9220205,1.17603973 L22.9220205,4.01546335 C22.9220205,4.04696347 22.9342152,4.07729919 22.9560796,4.10009695 L25.2374858,6.47798859 C25.2607052,6.50225717 25.2929166,6.51592357 25.3266061,6.51592357 L27.5026324,6.51592357 C27.5706274,6.51592357 27.6258118,6.46107413 27.6258118,6.39335499 L27.6258118,1.17603973 L27.9150371,1.17603973 C27.9830322,1.17603973 28.0382166,1.12112901 28.0382166,1.05347116 L28.0382166,0.320020805 C28.0382166,0.252362951 27.9830322,0.197452229 27.9150371,0.197452229" id="Fill-28" fill="#E99462"></path>
            <path d="M27.9150371,0.197452229 L25.3970648,0.197452229 C25.3290697,0.197452229 25.2738854,0.252362951 25.2738854,0.320020805 L25.2738854,1.05347116 C25.2738854,1.12112901 25.3290697,1.17603973 25.3970648,1.17603973 L25.2738854,1.17603973 L25.2738854,6.39335499 C25.2738854,6.46107413 25.3290697,6.51592357 25.3970648,6.51592357 L27.5026324,6.51592357 C27.5706274,6.51592357 27.6258118,6.46107413 27.6258118,6.39335499 L27.6258118,1.17603973 L27.9150371,1.17603973 C27.9830322,1.17603973 28.0382166,1.12112901 28.0382166,1.05347116 L28.0382166,0.320020805 C28.0382166,0.252362951 27.9830322,0.197452229 27.9150371,0.197452229" id="Fill-30" fill="#EACBAC"></path>
            <path d="M19.4615255,6.51592357 L25.2738854,6.51592357 C25.2396582,6.51592357 25.2069328,6.50161322 25.1833429,6.47626529 L22.8655322,3.98626433 C22.8553955,3.9753551 22.8475739,3.96264904 22.8417547,3.94904459 L17.3757962,3.94904459 L19.4615255,6.51592357 Z" id="Fill-32" fill="#00547A"></path>
            <path d="M17.5732484,10.5636943 C17.5732484,11.7086684 16.6450218,12.6369427 15.4999693,12.6369427 C14.3549782,12.6369427 13.4267516,11.7086684 13.4267516,10.5636943 C13.4267516,9.41865869 14.3549782,8.49044586 15.4999693,8.49044586 C16.6450218,8.49044586 17.5732484,9.41865869 17.5732484,10.5636943" id="Fill-34" fill="#AA391B"></path>
            <path d="M17.9681529,10.5636943 C17.9681529,9.31164014 16.9469284,8.29299363 15.6917056,8.29299363 C15.6605265,8.29299363 15.6295953,8.29410657 15.5987261,8.29534316 C16.8109924,8.34425056 17.7821939,9.34274054 17.7821939,10.5636943 C17.7821939,11.784648 16.8109924,12.783138 15.5987261,12.8320454 C15.6295953,12.833282 15.6605265,12.8343949 15.6917056,12.8343949 C15.9579988,12.8343949 16.2135064,12.7881462 16.4511619,12.703934 C17.3340329,12.3913223 17.9681529,11.5501893 17.9681529,10.5636943" id="Fill-36" fill="#EACBAC"></path>
            <path d="M15.5987261,10.6624204 L15.5987261,12.4394904 C15.6655966,12.4331751 15.731414,12.4232509 15.7961783,12.4106201 L15.7961783,10.6624204 L15.5987261,10.6624204 Z" id="Fill-38" fill="#D76230"></path>
            <path d="M15.5987261,8.68789809 L15.5987261,10.4649682 L15.7961783,10.4649682 L15.7961783,8.71676839 C15.731414,8.70413763 15.6655966,8.69427791 15.5987261,8.68789809" id="Fill-40" fill="#D76230"></path>
            <path d="M13.6242038,10.4649682 L13.8175317,10.4649682 C13.9024671,9.59273711 14.5557221,8.88464145 15.4012739,8.71644618 L15.4012739,8.68789809 C14.4635691,8.7792133 13.715519,9.52726339 13.6242038,10.4649682" id="Fill-42" fill="#D76230"></path>
            <path d="M13.8175317,10.6624204 L13.6242038,10.6624204 C13.715519,11.6001251 14.4635691,12.3481752 15.4012739,12.4394904 L15.4012739,12.4109424 C14.5557221,12.2427471 13.9024671,11.5346514 13.8175317,10.6624204" id="Fill-44" fill="#D76230"></path>
            <path d="M17.3171726,10.0149545 C17.3526016,10.1319365 17.3783232,10.2529994 17.3905656,10.3782048 L15.8709531,10.3782048 L15.6854611,10.3782048 L15.6854611,8.67318528 C15.7482811,8.6792446 15.8101118,8.6887664 15.8709531,8.70088504 C16.0667091,8.73983784 16.2513973,8.80952006 16.4206278,8.9036869 C16.8476923,9.14136078 17.1730453,9.53892661 17.3171726,10.0149545 L17.3171726,10.0149545 Z M15.6854611,12.4542033 L15.6854611,10.7491838 L15.8709531,10.7491838 L17.3905656,10.7491838 C17.3090728,11.5860506 16.6822334,12.2652513 15.8709531,12.4265035 C15.8101118,12.4386221 15.7482811,12.4481439 15.6854611,12.4542033 L15.6854611,12.4542033 Z M15.3144771,8.70057589 L15.3144771,10.3782048 L13.7949264,10.3782048 L13.6094344,10.3782048 C13.6970484,9.47851886 14.4148407,8.76079815 15.3144771,8.67318528 L15.3144771,8.70057589 Z M15.3144771,12.4268126 L15.3144771,12.4542033 C14.4148407,12.3665904 13.6970484,11.6488697 13.6094344,10.7491838 L13.7949264,10.7491838 L15.3144771,10.7491838 L15.3144771,12.4268126 Z M13.2292994,10.5636943 C13.2292994,11.8157484 14.2478979,12.8343949 15.4999691,12.8343949 C15.5310699,12.8343949 15.5619234,12.833282 15.5927151,12.8320454 C16.8019376,12.783138 17.7707006,11.784648 17.7707006,10.5636943 C17.7707006,9.34274054 16.8019376,8.34425056 15.5927151,8.29534316 C15.5619234,8.29410657 15.5310699,8.29299363 15.4999691,8.29299363 C14.8943376,8.29299363 14.3437973,8.53184228 13.9362713,8.91963899 C13.5012925,9.3335279 13.2292994,9.91726336 13.2292994,10.5636943 L13.2292994,10.5636943 Z" id="Fill-46" fill="#E99462"></path>
            <mask id="mask-10" fill="white">
                <use xlink:href="#path-9"></use>
            </mask>
            <g id="Clip-49"></g>
            <polygon id="Fill-48" fill="#E99462" mask="url(#mask-10)" points="25.2738854 31.0664088 38.3057325 31.0664088 38.3057325 30.9630754 25.2738854 30.9630754"></polygon>
            <polygon id="Fill-50" fill="#E99462" mask="url(#mask-10)" points="43.8343949 31.0664088 55.089172 31.0664088 55.089172 30.9630754 43.8343949 30.9630754"></polygon>
            <path d="M47.2786103,30.678416 L47.2786103,19.6719024 C47.2786103,19.6033817 47.3278566,19.5477707 47.388535,19.5477707 L47.1035553,19.5477707 C47.0428219,19.5477707 46.9936306,19.6033817 46.9936306,19.6719024 L46.9936306,30.678416 C46.9936306,30.7469367 47.0428219,30.8025478 47.1035553,30.8025478 L47.388535,30.8025478 C47.3278566,30.8025478 47.2786103,30.7469367 47.2786103,30.678416" id="Fill-51" fill="#D76230" mask="url(#mask-10)"></path>
            <path d="M52.0276678,25.5517062 C51.915552,25.5517062 51.8246557,25.4570079 51.8246557,25.340137 C51.8246557,25.3168479 51.8291444,25.2948881 51.8357754,25.2738854 C51.7744127,25.310361 51.7324841,25.3783141 51.7324841,25.4572206 C51.7324841,25.5740383 51.8233805,25.6687898 51.9354962,25.6687898 C52.0253214,25.6687898 52.1006093,25.6076426 52.1273885,25.5233659 C52.0978039,25.5409124 52.0640875,25.5517062 52.0276678,25.5517062" id="Fill-52" fill="#D76230" mask="url(#mask-10)"></path>
            <path d="M51.9299611,25.0764331 C51.842585,25.0764331 51.7693498,25.1334931 51.7433007,25.2120869 C51.7368504,25.2316858 51.7324841,25.2521778 51.7324841,25.2738605 C51.7324841,25.3829691 51.8209022,25.4713376 51.9299611,25.4713376 C51.9653879,25.4713376 51.998185,25.4612653 52.026963,25.4448915 C52.0866527,25.4109533 52.1273885,25.3474927 52.1273885,25.2738605 C52.1273885,25.1648016 52.03902,25.0764331 51.9299611,25.0764331" id="Fill-53" fill="#EACBAC" mask="url(#mask-10)"></path>
            <path d="M54.1643512,25.248514 C54.1323093,25.2833374 54.0977604,25.314234 54.0610179,25.340584 C54.0977604,25.314234 54.1323093,25.2833374 54.1643512,25.248514" id="Fill-54" fill="#D76230" mask="url(#mask-10)"></path>
            <path d="M54.3594484,25.0328429 C54.3378517,25.0692227 54.3113984,25.1038386 54.2806051,25.1361762 C54.3113984,25.1038386 54.3378517,25.0692227 54.3594484,25.0328429" id="Fill-55" fill="#D76230" mask="url(#mask-10)"></path>
            <path d="M53.1146497,23.8241708 L53.1146497,24.9464665 C53.1146497,25.2363633 53.3237267,25.4713376 53.581673,25.4713376 L53.7070064,25.4713376 C53.4491165,25.4713376 53.2400395,25.2363633 53.2400395,24.9464665 L53.2400395,23.8241708 C53.2400395,23.5343374 53.4491165,23.2993631 53.7070064,23.2993631 L53.581673,23.2993631 C53.4979858,23.2993631 53.4196595,23.3243509 53.3517729,23.3676673 C53.2103003,23.4578518 53.1146497,23.6283271 53.1146497,23.8241708" id="Fill-56" fill="#D76230" mask="url(#mask-10)"></path>
            <path d="M54.1926953,24.807004 C54.1926953,25.0118534 54.0346447,25.1780161 53.8396613,25.1780161 L53.8178758,25.1780161 C53.81166,25.1780161 53.8055649,25.1773818 53.7994698,25.1770013 C53.6131161,25.1669174 53.4647815,25.0053845 53.4647815,24.807004 L53.4647815,23.9636332 C53.4647815,23.7652528 53.6131161,23.6037198 53.7994698,23.5935725 C53.8055649,23.5932554 53.81166,23.5926212 53.8178758,23.5926212 L53.8396613,23.5926212 C54.0346447,23.5926212 54.1926953,23.7587204 54.1926953,23.9636332 L54.1926953,24.807004 Z M53.8459978,23.2993631 L53.811479,23.2993631 C53.5356901,23.2993631 53.3121019,23.5343374 53.3121019,23.8241708 L53.3121019,24.9464665 C53.3121019,25.2363633 53.5356901,25.4713376 53.811479,25.4713376 L53.8459978,25.4713376 C53.8680851,25.4713376 53.8895689,25.4693081 53.9108716,25.4663273 C53.9728487,25.4579558 54.0313859,25.4380416 54.0840694,25.4079801 C54.1123725,25.3918078 54.1390462,25.372845 54.1637284,25.3514721 C54.2007215,25.3193812 54.2332489,25.2817726 54.260164,25.2399148 C54.2781476,25.2120096 54.2935362,25.1821384 54.3062093,25.1507451 C54.3314949,25.0879584 54.3454352,25.0189565 54.3454352,24.9464665 L54.3454352,23.8241708 C54.3454352,23.5343374 54.1218471,23.2993631 53.8459978,23.2993631 L53.8459978,23.2993631 Z" id="Fill-57" fill="#ED985A" mask="url(#mask-10)"></path>
            <path d="M49.432512,20.3375796 L48.1088893,20.3375796 C48.0381706,20.3375796 47.9808917,20.3938401 47.9808917,20.463161 L47.9808917,20.524382 C47.9897236,20.5224983 47.9988114,20.5214308 48.0081552,20.5214308 L49.3317779,20.5214308 C49.4024966,20.5214308 49.4597755,20.5775657 49.4597755,20.6470123 L49.4597755,24.8789809 C49.5173744,24.8667367 49.5605096,24.8165669 49.5605096,24.7564762 L49.5605096,20.463161 C49.5605096,20.3938401 49.5031666,20.3375796 49.432512,20.3375796" id="Fill-58" fill="#D76230" mask="url(#mask-10)"></path>
            <path d="M51.4070343,20.3375796 L50.0834116,20.3375796 C50.0126929,20.3375796 49.955414,20.3938401 49.955414,20.463161 L49.955414,20.524382 C49.9642458,20.5224983 49.9733337,20.5214308 49.9826775,20.5214308 L51.3063002,20.5214308 C51.3770189,20.5214308 51.4342978,20.5775657 51.4342978,20.6470123 L51.4342978,24.8789809 C51.4918967,24.8667367 51.5350318,24.8165669 51.5350318,24.7564762 L51.5350318,20.463161 C51.5350318,20.3938401 51.4776889,20.3375796 51.4070343,20.3375796" id="Fill-59" fill="#D76230" mask="url(#mask-10)"></path>
            <path d="M49.432512,25.4713376 L48.1088893,25.4713376 C48.0381706,25.4713376 47.9808917,25.5275981 47.9808917,25.596919 L47.9808917,25.65814 C47.9897236,25.6562562 47.9988114,25.655126 48.0081552,25.655126 L49.3317779,25.655126 C49.4024966,25.655126 49.4597755,25.7113237 49.4597755,25.7807074 L49.4597755,30.0127389 C49.5173744,30.0004947 49.5605096,29.9503249 49.5605096,29.8902342 L49.5605096,25.596919 C49.5605096,25.5275981 49.5031666,25.4713376 49.432512,25.4713376" id="Fill-60" fill="#D76230" mask="url(#mask-10)"></path>
            <path d="M51.4070343,25.4713376 L50.0834116,25.4713376 C50.0126929,25.4713376 49.955414,25.5275981 49.955414,25.596919 L49.955414,25.65814 C49.9642458,25.6562562 49.9733337,25.655126 49.9826775,25.655126 L51.3063002,25.655126 C51.3770189,25.655126 51.4342978,25.7113237 51.4342978,25.7807074 L51.4342978,30.0127389 C51.4918967,30.0004947 51.5350318,29.9503249 51.5350318,29.8902342 L51.5350318,25.596919 C51.5350318,25.5275981 51.4776889,25.4713376 51.4070343,25.4713376" id="Fill-61" fill="#D76230" mask="url(#mask-10)"></path>
            <path d="M52.0843021,25.4030651 C52.051261,25.5014395 51.9583685,25.5728153 51.8475395,25.5728153 C51.7092706,25.5728153 51.5971199,25.4622139 51.5971199,25.3258552 C51.5971199,25.2337494 51.6487898,25.1544292 51.7245639,25.1119141 C51.7576049,25.0136018 51.8504974,24.942164 51.9612636,24.942164 C52.0995953,24.942164 52.211746,25.0527033 52.211746,25.1891861 C52.211746,25.2812298 52.1600762,25.3606121 52.0843021,25.4030651 L52.0843021,25.4030651 Z M51.5389677,24.7231335 C51.5389677,24.7825305 51.4965493,24.8321212 51.4399076,24.844224 L51.4399076,20.6611083 C51.4399076,20.5924635 51.3835805,20.5369766 51.314037,20.5369766 L50.0124092,20.5369766 C50.0032206,20.5369766 49.9942838,20.5380317 49.9855987,20.5398937 L49.9855987,20.4793794 C49.9855987,20.4108587 50.0419258,20.3552477 50.1114693,20.3552477 L51.4130971,20.3552477 C51.4825777,20.3552477 51.5389677,20.4108587 51.5389677,20.4793794 L51.5389677,24.7231335 Z M51.5389677,29.870939 C51.5389677,29.9303361 51.4965493,29.9799267 51.4399076,29.9920916 L51.4399076,25.8088518 C51.4399076,25.7403311 51.3835805,25.68472 51.314037,25.68472 L50.0124092,25.68472 C50.0032206,25.68472 49.9942838,25.6858993 49.9855987,25.6876992 L49.9855987,25.627185 C49.9855987,25.5586643 50.0419258,25.5030532 50.1114693,25.5030532 L51.4130971,25.5030532 C51.4825777,25.5030532 51.5389677,25.5586643 51.5389677,25.627185 L51.5389677,29.870939 Z M49.5303248,24.7231335 C49.5303248,24.7825305 49.4879064,24.8321212 49.4312647,24.844224 L49.4312647,20.6611083 C49.4312647,20.5924635 49.3749376,20.5369766 49.3053941,20.5369766 L48.0037663,20.5369766 C47.9945777,20.5369766 47.9856409,20.5380317 47.9769558,20.5398937 L47.9769558,20.4793794 C47.9769558,20.4108587 48.0332829,20.3552477 48.1028264,20.3552477 L49.4044542,20.3552477 C49.4739348,20.3552477 49.5303248,20.4108587 49.5303248,20.4793794 L49.5303248,24.7231335 Z M49.5303248,29.870939 C49.5303248,29.9303361 49.4879064,29.9799267 49.4312647,29.9920916 L49.4312647,25.8088518 C49.4312647,25.7403311 49.3749376,25.68472 49.3053941,25.68472 L48.0037663,25.68472 C47.9945777,25.68472 47.9856409,25.6858993 47.9769558,25.6876992 L47.9769558,25.627185 C47.9769558,25.5586643 48.0332829,25.5030532 48.1028264,25.5030532 L49.4044542,25.5030532 C49.4739348,25.5030532 49.5303248,25.5586643 49.5303248,25.627185 L49.5303248,29.870939 Z M52.1989702,19.5477707 L51.8725877,19.5477707 L47.8457987,19.5477707 L47.3169534,19.5477707 C47.2474728,19.5477707 47.1910828,19.6033817 47.1910828,19.6719024 L47.1910828,30.678416 C47.1910828,30.7469988 47.2474728,30.8025478 47.3169534,30.8025478 L47.753095,30.8025478 L51.8725877,30.8025478 L52.1989702,30.8025478 C52.2684507,30.8025478 52.3248408,30.7469988 52.3248408,30.678416 L52.3248408,19.6719024 C52.3248408,19.6033817 52.2684507,19.5477707 52.1989702,19.5477707 L52.1989702,19.5477707 Z" id="Fill-62" fill="#ED985A" mask="url(#mask-10)"></path>
            <path d="M53.7473695,23.4968153 L53.725491,23.4968153 C53.7192487,23.4968153 53.7131881,23.4975104 53.7070064,23.4978263 C53.8941557,23.5079367 54.0430024,23.668881 54.0430024,23.8665386 L54.0430024,24.706773 C54.0430024,24.9044306 53.8941557,25.0653749 53.7070064,25.0754221 C53.7131881,25.0758012 53.7192487,25.0764331 53.725491,25.0764331 L53.7473695,25.0764331 C53.9431854,25.0764331 54.1019108,24.9109391 54.1019108,24.706773 L54.1019108,23.8665386 C54.1019108,23.6623093 53.9431854,23.4968153 53.7473695,23.4968153" id="Fill-63" fill="#D76230" mask="url(#mask-10)"></path>
            <path d="M54.3332391,24.2827332 L54.3332391,24.2905785 L54.3332391,24.2976645 C54.3332391,24.3497343 54.2955956,24.3954772 54.2381986,24.4240744 C54.1891874,24.4677295 54.1126891,24.4962635 54.0256617,24.4962635 L53.9367709,24.4962635 C53.7885262,24.4962635 53.668421,24.4147107 53.668421,24.314051 L53.668421,24.3005116 C53.668421,24.1998518 53.7885262,24.1182991 53.9367709,24.1182991 L54.003672,24.1182991 L54.0256617,24.1182991 L54.091072,24.1182991 C54.0929356,24.1182991 54.0945196,24.1186154 54.0963831,24.1186787 C54.0981535,24.1186154 54.0998307,24.1182991 54.101601,24.1182991 C54.2295331,24.1182991 54.3332391,24.1887799 54.3332391,24.2756472 L54.3332391,24.2827332 Z M54.5428875,24.7073263 L54.5428875,23.8659854 C54.5428875,23.6680824 54.3139515,23.5069382 54.026314,23.4968153 C53.7384901,23.5069382 53.5095541,23.6680824 53.5095541,23.8659854 L53.5095541,24.7073263 C53.5095541,24.9052293 53.7384901,25.0663735 54.026314,25.0764331 C54.3139515,25.0663735 54.5428875,24.9052293 54.5428875,24.7073263 L54.5428875,24.7073263 Z" id="Fill-64" fill="#EACBAC" mask="url(#mask-10)"></path>
            <path d="M53.8061684,24.4405728 C53.8049414,24.4405728 53.803779,24.4409695 53.8025519,24.4409695 L53.7419117,24.4409695 C53.6492399,24.4409695 53.5741338,24.3640778 53.5741338,24.2691368 L53.5741338,24.2609386 C53.5741338,24.1660636 53.6492399,24.089172 53.7419117,24.089172 L53.6955435,24.089172 C53.5927973,24.089172 53.5095541,24.1743941 53.5095541,24.2795168 L53.5095541,24.2936654 C53.5095541,24.3988543 53.5927973,24.4840764 53.6955435,24.4840764 L53.757217,24.4840764 C53.8174698,24.4840764 53.8705543,24.4542586 53.9044586,24.4087054 C53.8779164,24.4287382 53.8453037,24.4409695 53.8097849,24.4409695 C53.8085578,24.4409695 53.8073954,24.4405728 53.8061684,24.4405728" id="Fill-65" fill="#E99462" mask="url(#mask-10)"></path>
            <path d="M53.7070064,24.2820237 L53.7070064,24.2912247 C53.7070064,24.3977792 53.7709187,24.4840764 53.8497787,24.4840764 L53.9013811,24.4840764 C53.9024253,24.4840764 53.9034145,24.4836312 53.9044586,24.4836312 C53.8304346,24.4814052 53.7709187,24.4000053 53.7709187,24.2995354 L53.7709187,24.273713 C53.7709187,24.1731689 53.8304346,24.0918433 53.9044586,24.0896172 C53.9034145,24.089543 53.9024253,24.089172 53.9013811,24.089172 L53.862748,24.089172 L53.8497787,24.089172 C53.7709187,24.089172 53.7070064,24.1754692 53.7070064,24.2820237" id="Fill-66" fill="#D76230" mask="url(#mask-10)"></path>
            <path d="M53.9044586,24.089172 C53.9029495,24.089172 53.9015198,24.0895431 53.9000108,24.0896173 C53.7930244,24.0918438 53.7070064,24.1731847 53.7070064,24.2736735 L53.7070064,24.2995749 C53.7070064,24.3999895 53.7930244,24.4814046 53.9000108,24.4836311 C53.9015198,24.4836311 53.9029495,24.4840764 53.9044586,24.4840764 C53.9481427,24.4840764 53.9882527,24.4704207 54.0208966,24.4478589 C54.0698229,24.4143132 54.1019108,24.3605807 54.1019108,24.2995749 L54.1019108,24.2912627 L54.1019108,24.2820599 L54.1019108,24.2736735 C54.1019108,24.1717746 54.0135101,24.089172 53.9044586,24.089172" id="Fill-67" fill="#ED985A" mask="url(#mask-10)"></path>
            <path d="M17.6476708,24.089172 L13.3523292,24.089172 C13.2843552,24.089172 13.2292994,24.0344908 13.2292994,23.9671158 L13.2292994,18.2876612 C13.2292994,18.2202252 13.2843552,18.1656051 13.3523292,18.1656051 L17.6476708,18.1656051 C17.7155833,18.1656051 17.7707006,18.2202252 17.7707006,18.2876612 L17.7707006,23.9671158 C17.7707006,24.0344908 17.7155833,24.089172 17.6476708,24.089172" id="Fill-68" fill="#FC95A4" mask="url(#mask-10)"></path>
            <path d="M13.4267516,18.2913667 L13.4267516,23.7659581 C13.4267516,23.8354414 13.485724,23.8917197 13.5583864,23.8917197 L13.6242038,23.8917197 L13.8216561,23.8917197 C13.7489936,23.8917197 13.6900212,23.8354414 13.6900212,23.7659581 L13.6900212,18.2913667 C13.6900212,18.2219463 13.7489936,18.1656051 13.8216561,18.1656051 L13.6242038,18.1656051 L13.5583864,18.1656051 C13.485724,18.1656051 13.4267516,18.2219463 13.4267516,18.2913667" id="Fill-69" fill="#D76230" mask="url(#mask-10)"></path>
            <path d="M15.8619958,23.7659581 L15.8619958,18.2913667 C15.8619958,18.2218834 15.9209682,18.1656051 15.9936306,18.1656051 L15.7303609,18.1656051 C15.6576985,18.1656051 15.5987261,18.2218834 15.5987261,18.2913667 L15.5987261,23.7659581 C15.5987261,23.8353785 15.6576985,23.8917197 15.7303609,23.8917197 L15.9936306,23.8917197 C15.9209682,23.8917197 15.8619958,23.8353785 15.8619958,23.7659581" id="Fill-70" fill="#D76230" mask="url(#mask-10)"></path>
            <path d="M18.0339703,17.9681529 L17.7707006,17.9681529 C17.8433631,17.9681529 17.9023355,18.0230838 17.9023355,18.0907666 L17.9023355,24.1281459 L17.9023355,24.1640104 C17.9023355,24.2317545 17.8433631,24.2866242 17.7707006,24.2866242 L17.7866943,24.2866242 L18.0339703,24.2866242 C18.1066327,24.2866242 18.1656051,24.2317545 18.1656051,24.1640104 L18.1656051,18.0907666 C18.1656051,18.0230838 18.1066327,17.9681529 18.0339703,17.9681529" id="Fill-71" fill="#EACBAC" mask="url(#mask-10)"></path>
            <path d="M13.5265537,18.3359942 L13.588392,18.3359942 L13.773907,18.3359942 L15.1908084,18.3359942 C15.2591397,18.3359942 15.314485,18.3909251 15.314485,18.4586079 L15.314485,23.7961691 C15.314485,23.8639132 15.2591397,23.9187829 15.1908084,23.9187829 L13.773907,23.9187829 L13.588392,23.9187829 L13.5265537,23.9187829 C13.4582842,23.9187829 13.4028771,23.8639132 13.4028771,23.7961691 L13.4028771,18.4586079 C13.4028771,18.3909251 13.4582842,18.3359942 13.5265537,18.3359942 L13.5265537,18.3359942 Z M17.5971229,18.4586079 L17.5971229,23.7961691 C17.5971229,23.8639132 17.5417776,23.9187829 17.4734463,23.9187829 L16.0565449,23.9187829 L15.8091916,23.9187829 C15.7409221,23.9187829 15.685515,23.8639132 15.685515,23.7961691 L15.685515,18.4586079 C15.685515,18.3909251 15.7409221,18.3359942 15.8091916,18.3359942 L16.0565449,18.3359942 L17.4734463,18.3359942 C17.5417776,18.3359942 17.5971229,18.3909251 17.5971229,18.4586079 L17.5971229,18.4586079 Z M13.0318471,24.1640104 C13.0318471,24.2317545 13.0872543,24.2866242 13.1555238,24.2866242 L13.4028771,24.2866242 L13.588392,24.2866242 L17.8444762,24.2866242 C17.9128076,24.2866242 17.9681529,24.2317545 17.9681529,24.1640104 L17.9681529,24.1281459 L17.9681529,18.0907666 C17.9681529,18.0230838 17.9128076,17.9681529 17.8444762,17.9681529 L13.588392,17.9681529 L13.4028771,17.9681529 L13.191761,17.9681529 L13.1555238,17.9681529 C13.0929434,17.9681529 13.0417413,18.0144396 13.0335168,18.0742138 C13.0327747,18.0797314 13.0318471,18.0851264 13.0318471,18.0907666 L13.0318471,24.1640104 Z" id="Fill-72" fill="#E99462" mask="url(#mask-10)"></path>
            <path d="M29.9383165,24.089172 L34.233658,24.089172 C34.301632,24.089172 34.3566879,24.0344908 34.3566879,23.9671158 L34.3566879,18.2876612 C34.3566879,18.2202252 34.301632,18.1656051 34.233658,18.1656051 L29.9383165,18.1656051 C29.870404,18.1656051 29.8152866,18.2202252 29.8152866,18.2876612 L29.8152866,23.9671158 C29.8152866,24.0344908 29.870404,24.089172 29.9383165,24.089172" id="Fill-73" fill="#FAD1C5" mask="url(#mask-10)"></path>
            <path d="M33.895966,18.2913667 L33.895966,23.7659581 C33.895966,23.8354414 33.8369936,23.8917197 33.7643312,23.8917197 L33.9617834,23.8917197 L34.0276008,23.8917197 C34.1002633,23.8917197 34.1592357,23.8354414 34.1592357,23.7659581 L34.1592357,18.2913667 C34.1592357,18.2219463 34.1002633,18.1656051 34.0276008,18.1656051 L33.9617834,18.1656051 L33.7643312,18.1656051 C33.8369936,18.1656051 33.895966,18.2219463 33.895966,18.2913667" id="Fill-74" fill="#D76230" mask="url(#mask-10)"></path>
            <polygon id="Fill-75" fill="#D76230" mask="url(#mask-10)" points="31.5923567 23.8917197 31.7898089 23.8917197 31.7898089 18.1656051 31.5923567 18.1656051"></polygon>
            <path d="M29.4203822,18.596058 L29.4203822,24.1640104 C29.4203822,24.2317545 29.4793546,24.2866242 29.552017,24.2866242 L29.8152866,24.2866242 C29.7426242,24.2866242 29.6836518,24.2317545 29.6836518,24.1640104 L29.6836518,18.0907666 C29.6836518,18.0230225 29.7426242,17.9681529 29.8152866,17.9681529 L29.590586,17.9681529 L29.552017,17.9681529 C29.4854098,17.9681529 29.430913,18.0144396 29.4221592,18.0742138 C29.4213694,18.0797314 29.4203822,18.0851264 29.4203822,18.0907666 L29.4203822,18.596058 Z" id="Fill-76" fill="#D76230" mask="url(#mask-10)"></path>
            <path d="M34.1831102,23.7961691 C34.1831102,23.8638519 34.1277031,23.9187829 34.0594336,23.9187829 L33.9975952,23.9187829 L33.8120803,23.9187829 L32.2715022,23.9187829 L32.2715022,18.3359942 L33.8120803,18.3359942 L33.9975952,18.3359942 L34.0594336,18.3359942 C34.1277031,18.3359942 34.1831102,18.3908638 34.1831102,18.4586079 L34.1831102,23.7961691 Z M30.112541,23.9187829 C30.0442096,23.9187829 29.9888643,23.8638519 29.9888643,23.7961691 L29.9888643,18.4586079 C29.9888643,18.3908638 30.0442096,18.3359942 30.112541,18.3359942 L31.653119,18.3359942 L31.9004723,18.3359942 L31.9004723,23.9187829 L31.653119,23.9187829 L30.112541,23.9187829 Z M34.4304635,17.9681529 L34.1831102,17.9681529 L33.9975952,17.9681529 L29.741511,17.9681529 C29.6731797,17.9681529 29.6178344,18.0230225 29.6178344,18.0907666 L29.6178344,24.1640104 C29.6178344,24.2316932 29.6731797,24.2866242 29.741511,24.2866242 L33.6734388,24.2866242 L33.9975952,24.2866242 L34.1831102,24.2866242 L34.1981369,24.2866242 L34.4304635,24.2866242 C34.498733,24.2866242 34.5541401,24.2316932 34.5541401,24.1640104 L34.5541401,18.0907666 C34.5541401,18.0230225 34.498733,17.9681529 34.4304635,17.9681529 L34.4304635,17.9681529 Z" id="Fill-77" fill="#ED985A" mask="url(#mask-10)"></path>
            <path d="M50.260986,32.4903514 L50.260986,32.0765073 C50.260986,32.0271983 50.3010001,31.9872409 50.3503185,31.9872409 L49.2564364,31.9872409 C49.2070573,31.9872409 49.1671039,31.9473443 49.1671039,31.8979745 L49.1671039,31.4841911 C49.1671039,31.4348213 49.2070573,31.3949247 49.2564364,31.3949247 L48.1764802,31.3949247 C48.1271011,31.3949247 48.087087,31.3549673 48.087087,31.3056583 L48.087087,30.8918142 C48.087087,30.8425051 48.1271011,30.8025478 48.1764194,30.8025478 L47.0830239,30.8025478 C47.0336447,30.8025478 46.9936306,30.8425051 46.9936306,30.8918142 L46.9936306,32.4903514 C46.9936306,32.5396605 47.0336447,32.5796178 47.0830239,32.5796178 L50.3503185,32.5796178 C50.3010001,32.5796178 50.260986,32.5396605 50.260986,32.4903514" id="Fill-78" fill="#D76230" mask="url(#mask-10)"></path>
            <path d="M56.5784829,31.9872409 L55.4734213,31.9872409 C55.5232437,31.9872409 55.5636668,31.9473443 55.5636668,31.8979745 L55.5636668,31.4841911 C55.5636668,31.4348213 55.5232437,31.3949247 55.4734213,31.3949247 L54.3823665,31.3949247 C54.4322504,31.3949247 54.4726734,31.3549673 54.4726734,31.3056583 L54.4726734,30.8918142 C54.4726734,30.8425051 54.4322504,30.8025478 54.3823665,30.8025478 L48.2685894,30.8025478 L48.268528,30.8025478 C48.2187056,30.8025478 48.1783439,30.8425051 48.1783439,30.8918142 L48.1783439,31.3056583 C48.1783439,31.3549673 48.2187056,31.3949247 48.2685894,31.3949247 L49.3595828,31.3949247 C49.3097604,31.3949247 49.2693373,31.4348213 49.2693373,31.4841911 L49.2693373,31.8979745 C49.2693373,31.9473443 49.3097604,31.9872409 49.3595828,31.9872409 L50.4646443,31.9872409 C50.414822,31.9872409 50.3743989,32.0271983 50.3743989,32.0765073 L50.3743989,32.4903514 C50.3743989,32.5396605 50.414822,32.5796178 50.4646443,32.5796178 L50.9639125,32.5796178 L56.5784829,32.5796178 C56.6283667,32.5796178 56.6687898,32.5396605 56.6687898,32.4903514 L56.6687898,32.0765073 C56.6687898,32.0271983 56.6283667,31.9872409 56.5784829,31.9872409" id="Fill-79" fill="#EACBAC" mask="url(#mask-10)"></path>
            <path d="M49.7579618,12.6369427 L49.7579618,12.6369427 C48.4493224,12.6369427 47.388535,13.7125587 47.388535,15.039214 L47.388535,16.7834395 L52.1273885,16.7834395 L52.1273885,15.039214 C52.1273885,13.7125587 51.0666012,12.6369427 49.7579618,12.6369427" id="Fill-80" fill="#AA391B" mask="url(#mask-10)"></path>
            <path d="M46.9936306,15.0408211 L46.9936306,16.8560079 C46.9936306,16.9250062 47.0503621,16.9808917 47.1202634,16.9808917 L47.3102126,16.9808917 C47.2403113,16.9808917 47.1835798,16.9250062 47.1835798,16.8560079 L47.1835798,15.0869032 C47.1835798,13.6674734 48.3323928,12.4760814 49.7579618,12.4408642 L49.7579618,12.4394904 L49.6313923,12.4394904 C49.5711784,12.4394904 49.5116609,12.4422379 49.4523968,12.4461093 C48.0791904,12.5369623 46.9936306,13.6635395 46.9936306,15.0408211" id="Fill-81" fill="#D76230" mask="url(#mask-10)"></path>
            <path d="M51.0889362,13.4205915 C50.8030373,13.221463 50.4660153,13.0852329 50.1004726,13.0331274 C50.0690558,13.0286903 50.0392131,13.0360654 50.0146589,13.0509356 C50.3404111,13.112395 50.6412944,13.2403505 50.9000578,13.4205915 C50.9639617,13.4650221 50.9686836,13.554483 50.9105721,13.6056892 L49.955414,14.4454346 L49.955414,14.611465 L51.0994505,13.6056892 C51.157562,13.554483 51.1528401,13.4650221 51.0889362,13.4205915" id="Fill-82" fill="#D76230" mask="url(#mask-10)"></path>
            <path d="M49.1656051,16.7834395 L49.4025478,16.7834395 C49.4897427,16.7834395 49.5605096,16.7248334 49.5605096,16.6526223 L49.5605096,15.2038217 L49.3235669,15.2038217 L49.3235669,16.6526223 C49.3235669,16.7248334 49.2528,16.7834395 49.1656051,16.7834395" id="Fill-83" fill="#D76230" mask="url(#mask-10)"></path>
            <path d="M51.7397543,14.6695859 C51.756371,14.7412767 51.6962135,14.8089172 51.6170029,14.8089172 L51.8044096,14.8089172 C51.8836201,14.8089172 51.9437777,14.7412767 51.9271609,14.6695859 C51.8586326,14.373912 51.7215134,14.1016142 51.5319828,13.8676209 C51.4876299,13.8128258 51.4014228,13.8060559 51.3471374,13.852519 L51.3375796,13.8606775 C51.339891,13.8630498 51.3425147,13.8650172 51.3445761,13.8676209 C51.5341067,14.1016142 51.6712259,14.373912 51.7397543,14.6695859" id="Fill-84" fill="#D76230" mask="url(#mask-10)"></path>
            <path d="M47.9808917,13.8598604 L49.1656615,14.8089172 L49.3630573,14.8089172 L48.1682204,13.8518108 C48.1138049,13.8082515 48.0293195,13.8127045 47.9808917,13.8598604" id="Fill-85" fill="#D76230" mask="url(#mask-10)"></path>
            <path d="M49.5605096,13.1540756 C49.5605096,13.0795531 49.5057981,13.0221392 49.4451746,13.0332201 C49.4175183,13.0382127 49.3902627,13.0446664 49.3630573,13.0512419 C49.3910143,13.0727341 49.4102034,13.1102389 49.4102034,13.1540756 L49.4102034,14.4428152 L49.5605096,14.611465 L49.5605096,13.1540756 Z" id="Fill-86" fill="#D76230" mask="url(#mask-10)"></path>
            <path d="M51.5350318,16.7834395 L51.7719745,16.7834395 C51.8591694,16.7834395 51.9299363,16.7248334 51.9299363,16.6526223 L51.9299363,15.2038217 L51.6929936,15.2038217 L51.6929936,16.6526223 C51.6929936,16.7248334 51.6222268,16.7834395 51.5350318,16.7834395" id="Fill-87" fill="#D76230" mask="url(#mask-10)"></path>
            <path d="M49.3882721,15.0982079 L49.5731169,15.0982079 L49.5731169,16.4813404 C49.5731169,16.550341 49.5179099,16.6062283 49.449887,16.6062283 L49.2650422,16.6062283 L47.6840024,16.6062283 C47.6159179,16.6062283 47.5607725,16.550341 47.5607725,16.4813404 L47.5607725,15.0982079 L49.3882721,15.0982079 Z M48.1931268,13.6766723 L49.3119927,14.7235444 L49.1271479,14.7235444 L47.7310763,14.7235444 C47.6528869,14.7235444 47.5936133,14.650485 47.6100029,14.5730546 C47.67895,14.2474096 47.8184463,13.9481784 48.0113627,13.6922208 C48.0132727,13.6896606 48.0156141,13.6878497 48.017709,13.6854769 C48.0630576,13.6338982 48.1421096,13.6290276 48.1931268,13.6766723 L48.1931268,13.6766723 Z M48.4682376,13.4242116 C48.4111205,13.3707596 48.4160497,13.2769064 48.4792666,13.2309477 C48.7289921,13.0492983 49.0179662,12.9203516 49.3302924,12.8577204 C49.3637493,12.8510389 49.3972678,12.8443574 49.4312793,12.839237 C49.5058334,12.8279347 49.5731169,12.8868193 49.5731169,12.9632506 L49.5731169,14.457908 L49.3882721,14.2850008 L48.4682376,13.4242116 Z M51.0623504,13.4355139 L49.9428066,14.482948 L49.9428066,14.3100408 L49.9428066,12.9633131 C49.9428066,12.918291 49.9664052,12.879888 50.0007247,12.8577829 C50.0248161,12.8422968 50.0540216,12.8346162 50.0847675,12.839237 C50.4425039,12.8935008 50.7723288,13.0353733 51.0521223,13.2427496 C51.1146615,13.2890205 51.1192826,13.3822492 51.0623504,13.4355139 L51.0623504,13.4355139 Z M51.3244604,13.7001512 L51.3338875,13.691409 C51.3874309,13.6412666 51.4724595,13.6485725 51.5162061,13.7076445 C51.7031459,13.9601676 51.8383907,14.2540287 51.9059823,14.5731795 C51.9223103,14.6505475 51.8630367,14.7235444 51.7849089,14.7235444 L51.6000641,14.7235444 L50.2306717,14.7235444 L51.3244604,13.7001512 Z M49.9428066,16.4813404 L49.9428066,15.0982079 L51.7703062,15.0982079 L51.955151,15.0982079 L51.955151,16.4813404 C51.955151,16.550341 51.9000057,16.6062283 51.8319211,16.6062283 L51.6470763,16.6062283 L50.0660366,16.6062283 C49.9980136,16.6062283 49.9428066,16.550341 49.9428066,16.4813404 L49.9428066,16.4813404 Z M49.8026326,12.4397209 C49.7669576,12.4390964 49.7315906,12.4398458 49.6962852,12.44072 C48.3089629,12.4759383 47.1910828,13.6673681 47.1910828,15.0868431 L47.1910828,16.8560039 C47.1910828,16.9250044 47.2462282,16.9808917 47.3143127,16.9808917 L51.955151,16.9808917 L52.016766,16.9808917 L52.1028421,16.9808917 L52.2016109,16.9808917 C52.2696954,16.9808917 52.3248408,16.9250044 52.3248408,16.8560039 L52.3248408,15.0407595 C52.3248408,13.6214719 51.197472,12.4639491 49.8026326,12.4397209 L49.8026326,12.4397209 Z" id="Fill-88" fill="#ED985A" mask="url(#mask-10)"></path>
            <polygon id="Fill-89" fill="#E99462" mask="url(#mask-10)" points="27.6433121 1.18471338 25.2738854 1.18471338 25.2738854 2.17197452 27.6433121 1.41545257"></polygon>
            <path d="M33.9583606,24.1903045 L33.6336653,24.1903045 L29.6952011,24.1903045 L29.4474367,24.1903045 C29.3789917,24.1903045 29.3235544,24.1352874 29.3235544,24.0674985 L29.3235544,18.4908153 L29.3235544,17.9847317 C29.3235544,17.9790826 29.3244835,17.9736791 29.3252268,17.9681529 L28.864323,18.4250527 C28.8410331,18.4480788 28.8280255,18.479333 28.8280255,18.5118766 L28.8280255,24.5587226 C28.8280255,24.6265116 28.8834628,24.6815287 28.9519077,24.6815287 L33.5610083,24.6815287 C33.6267279,24.6815287 33.6897839,24.6556166 33.7362398,24.6095643 L34.1592357,24.1903045 L34.144184,24.1903045 L33.9583606,24.1903045 Z" id="Fill-90" fill="#E99462" mask="url(#mask-10)"></path>
            <path d="M53.3867071,23.2993631 C53.121899,23.3329247 52.9171975,23.5531097 52.9171975,23.820459 L52.9171975,24.9453473 C52.9171975,25.2358338 53.1587322,25.4713376 53.4567229,25.4713376 L53.6388681,25.4713376 C53.7355472,25.4713376 53.8260331,25.4462299 53.9044586,25.4028158 C53.881446,25.4058033 53.8582378,25.4077738 53.8344429,25.4077738 L53.7970881,25.4077738 L53.6522976,25.4077738 C53.3543069,25.4077738 53.1127722,25.17227 53.1127722,24.8817835 L53.1127722,23.7568952 C53.1127722,23.5606102 53.2232719,23.3897508 53.3867071,23.2993631" id="Fill-91" fill="#E99462" mask="url(#mask-10)"></path>
            <path d="M49.4438972,12.4394904 C47.9819924,12.4505239 46.7961783,13.7054745 46.7961783,15.2040346 L46.7961783,17.0536717 C46.7961783,17.1225531 46.8509684,17.1783439 46.9184776,17.1783439 L52.0050892,17.1783439 C52.0725984,17.1783439 52.1273885,17.1225531 52.1273885,17.0536717 L52.1273885,16.9665882 L52.0419625,16.9665882 L51.9808128,16.9665882 L47.375021,16.9665882 L47.191572,16.9665882 C47.1240016,16.9665882 47.0692727,16.9107974 47.0692727,16.841916 L47.0692727,15.0298052 C47.0692727,13.6548576 48.1176835,12.5301895 49.4438972,12.4394904" id="Fill-92" fill="#E99462" mask="url(#mask-10)"></path>
            <path d="M47.0252464,19.5923405 L46.971517,19.5923405 C46.9280631,19.5923405 46.8877661,19.6150879 46.8653582,19.6523615 L46.5476863,20.1811147 C46.5361729,20.2003387 46.5300448,20.2222825 46.5300448,20.2447208 L46.5300448,30.6777381 C46.5300448,30.7150116 46.5468816,30.7480201 46.5730035,30.7707057 L46.0163969,30.7707057 C45.9661958,30.7707057 45.9254035,30.811379 45.9254035,30.8615098 L45.9254035,31.282831 C45.9254035,31.3330237 45.9661958,31.3736352 46.0163969,31.3736352 L44.9171111,31.3736352 C44.8668481,31.3736352 44.8261178,31.4143085 44.8261178,31.4645011 L44.8261178,31.8857606 C44.8261178,31.9359532 44.8668481,31.9766265 44.9171111,31.9766265 L43.8036502,31.9766265 C43.7791996,31.9766265 43.7571631,31.9863312 43.7407596,32.0020319 L43.7407596,14.6502223 L49.2779806,7.96823768 L54.8621839,14.0355482 L54.9859843,14.0355482 L55.089172,14.0355482 L49.5101064,7.3499784 C49.4617623,7.2921209 49.3739878,7.29113189 49.3237249,7.34626959 C49.3224869,7.34756767 49.3210013,7.34855669 49.3198252,7.3499784 L43.7407596,14.0355482 L38.327277,14.0355482 L25.2738854,14.0355482 L25.2738854,15.8385881 L38.327277,14.6576399 L38.327277,32.5796178 L43.7407596,32.5796178 L43.7407596,32.5541506 C43.7571631,32.5697895 43.7791996,32.5796178 43.8036502,32.5796178 L46.9923774,32.5796178 C46.9421763,32.5796178 46.901446,32.5388827 46.901446,32.4887519 L46.901446,30.8615716 C46.901446,30.811379 46.9421763,30.7707057 46.9923774,30.7707057 L46.9444047,30.7707057 C46.9182829,30.7480201 46.901446,30.7150116 46.901446,30.6777381 L46.901446,19.7159676 C46.901446,19.6477254 46.9569086,19.5923405 47.0252464,19.5923405" id="Fill-93" fill="#E99462" mask="url(#mask-10)"></path>
            <path d="M54.2993631,31.2961783 C54.2993631,31.2416439 54.2587849,31.1974522 54.2087098,31.1974522 L48.0714833,31.1974522 C48.0214082,31.1974522 47.9808917,31.2416439 47.9808917,31.2961783 C47.9808917,31.3507128 48.0214082,31.3949045 48.0714833,31.3949045 L54.2087098,31.3949045 C54.2587849,31.3949045 54.2993631,31.3507128 54.2993631,31.2961783" id="Fill-94" fill="#E99462" mask="url(#mask-10)"></path>
            <path d="M55.4840764,31.8885014 C55.4840764,31.8340156 55.4434983,31.7898089 55.3934232,31.7898089 L49.2561967,31.7898089 C49.2061216,31.7898089 49.1656051,31.8340156 49.1656051,31.8885014 C49.1656051,31.9430544 49.2061216,31.9872611 49.2561967,31.9872611 L55.3934232,31.9872611 C55.4434983,31.9872611 55.4840764,31.9430544 55.4840764,31.8885014" id="Fill-95" fill="#E99462" mask="url(#mask-10)"></path>
            <path d="M56.5781374,32.3821656 L50.4409092,32.3821656 C50.3908962,32.3821656 50.3503185,32.4263723 50.3503185,32.4809253 C50.3503185,32.5354111 50.3908962,32.5796178 50.4409092,32.5796178 L56.5781374,32.5796178 C56.6282121,32.5796178 56.6687898,32.5354111 56.6687898,32.4809253 C56.6687898,32.4263723 56.6282121,32.3821656 56.5781374,32.3821656" id="Fill-96" fill="#E99462" mask="url(#mask-10)"></path>
            <polygon id="Fill-97" fill="#D76230" mask="url(#mask-10)" points="25.2738854 0.987261146 22.9044586 0.987261146 22.9044586 3.3566879 25.2738854 2.07470399"></polygon>
            <polygon id="Fill-98" fill="#D76230" mask="url(#mask-10)" points="43.6369427 14.0191083 38.3057325 14.0191083 38.3057325 15.7961783 43.6369427 14.6322188"></polygon>
            <polygon id="Fill-99" fill="#D76230" mask="url(#mask-10)" points="38.3057325 31.0664088 43.6369427 31.0664088 43.6369427 30.9630754 38.3057325 30.9630754"></polygon>
            <polygon id="Fill-100" fill="#D76230" mask="url(#mask-10)" points="6.7133758 31.0664088 25.2738854 31.0664088 25.2738854 30.9630754 6.7133758 30.9630754"></polygon>
            <path d="M15.8986008,3.00629066 L6.7133758,14.0191083 L7.15919924,14.0191083 L15.6115315,4.08120189 C15.6595414,4.02482608 15.7459715,4.02284798 15.7963942,4.07693662 L25.06112,14.0191083 L25.2738854,14.0191083 L16.0887223,3.00629066 C16.0392276,2.9469477 15.9480336,2.9469477 15.8986008,3.00629066" id="Fill-101" fill="#D76230" mask="url(#mask-10)"></path>
            <path d="M13.8595413,8.88535032 C13.2422327,9.29104346 12.8343949,9.98409744 12.8343949,10.7696736 C12.8343949,12.0170599 13.8620988,13.0318471 15.1252857,13.0318471 C15.5918852,13.0318471 16.0261096,12.8931255 16.388535,12.6555369 C16.1493716,12.7393735 15.8922429,12.7854498 15.6243225,12.7854498 C15.5929456,12.7854498 15.5618182,12.7844027 15.5307531,12.7831091 C15.4996257,12.7844027 15.4684983,12.7854498 15.4371837,12.7854498 C14.1739968,12.7854498 13.1462929,11.7706626 13.1462929,10.5232763 C13.1462929,9.87925539 13.4207008,9.29763459 13.8595413,8.88535032" id="Fill-102" fill="#D76230" mask="url(#mask-10)"></path>
            <path d="M12.4394904,18.5118766 L12.4394904,24.5587226 C12.4394904,24.6265116 12.4949897,24.6815287 12.5633727,24.6815287 L17.1725352,24.6815287 C17.2381928,24.6815287 17.3012489,24.6556166 17.3477047,24.6095643 L17.7707006,24.1903045 L17.7556489,24.1903045 L13.4924895,24.1903045 L13.3066661,24.1903045 L13.0589016,24.1903045 C12.9905186,24.1903045 12.9350194,24.1352874 12.9350194,24.0674985 L12.9350194,17.9846703 C12.9350194,17.9790212 12.9359485,17.9736177 12.9366918,17.9681529 L12.4757879,18.4250527 C12.4524981,18.4480788 12.4394904,18.479333 12.4394904,18.5118766" id="Fill-103" fill="#D76230" mask="url(#mask-10)"></path>
            <path d="M25.2738854,25.1533646 C24.6566242,24.8476793 23.9677327,24.6815287 23.2563287,24.6815287 C21.5876212,24.6815287 20.1616504,25.873228 19.8796564,27.5033856 L19.7745986,28.1108222 C19.7216356,28.4171222 19.5251638,28.6803939 19.2450923,28.8201744 L18.4516391,29.2164035 C17.5498412,29.6666638 16.9808917,30.5821215 16.9808917,31.5830211 C16.9808917,31.9562608 17.1040587,32.3009174 17.3120037,32.5796178 L25.2738854,32.5796178 L25.2738854,25.1533646 Z" id="Fill-104" fill="#D76230" mask="url(#mask-10)"></path>
            <path d="M18.7579618,31.6953235 L18.7579618,31.3181625 C18.7579618,30.1574231 19.4101708,29.0956581 20.4440456,28.5734592 L21.0244284,28.2802709 C21.3047181,28.1386566 21.5014486,27.8721105 21.5544646,27.5619284 L21.6596275,26.9467932 C21.9418417,25.2959127 23.3693016,24.089172 25.0396792,24.089172 C26.5651629,24.089172 27.9877185,24.8609233 28.8223176,26.1413034 L30.1586445,28.1915052 C30.6603724,28.9612024 31.5154577,29.4251371 32.4324986,29.4251371 L33.7492704,29.4251371 C34.3079253,29.4251371 34.8519295,29.6044737 35.3015725,29.9368783 L36.2936677,30.6702226 C36.5656387,30.8712838 36.7261146,31.1899315 36.7261146,31.5286854 L36.7261146,31.7799186 C36.7261146,32.330627 36.2809414,32.7770701 35.7317225,32.7770701 L19.8367202,32.7770701 C19.2409416,32.7770701 18.7579618,32.2927802 18.7579618,31.6953235" id="Fill-105" fill="#0097B8" mask="url(#mask-10)"></path>
            <path d="M32.104537,31.8392789 L32.104537,31.784192 C32.104537,31.5994778 32.0280829,31.4229155 31.8930905,31.2958203 L30.5197766,30.0027593 C30.0092941,29.5221072 29.3325283,29.2542067 28.6289506,29.2542067 L26.9327127,29.2542067 C26.3674245,29.2542067 25.8115919,29.1103755 25.3181544,28.8365464 L24.9529908,28.6338611 C23.9784331,28.0929962 23.4453689,27.0075611 23.6163177,25.9121214 L23.7684174,24.9377247 C23.8072977,24.6886601 23.7305325,24.4578754 23.5852757,24.2866242 C22.5983386,24.7498609 21.8602352,25.668306 21.6656472,26.7953652 L21.5602039,27.4056445 C21.5437186,27.5012438 21.5118679,27.5918409 21.4693795,27.6766945 L21.4476066,27.8223785 C21.3360046,28.5702517 20.7797988,29.1768256 20.0401403,29.3571551 L20.0052413,29.3656158 C19.55423,29.4756044 19.1781177,29.7493099 18.9345094,30.1138595 C18.8196104,30.4357352 18.7579618,30.7793493 18.7579618,31.1322887 L18.7579618,31.5064105 C18.7579618,32.099151 19.2419436,32.5796178 19.8390203,32.5796178 L22.05445,32.5796178 L22.0606709,32.4586365 C22.0843723,32.0001551 22.4708734,31.6433868 22.9332067,31.6531444 L23.4463642,31.6640753 C23.7905636,31.6713626 24.109693,31.4859691 24.2718082,31.1845348 L24.3734568,30.9956829 C24.53974,30.6865291 24.8550125,30.484523 25.207299,30.4613643 L25.7218251,30.4277069 C26.2907214,30.3903441 26.8136457,30.7377871 26.9959165,31.274082 L27.1083894,31.6050359 C27.2133972,31.914128 27.1024174,32.2549013 26.8351076,32.444556 L26.6445631,32.5796178 L32.9745223,32.5796178 L32.7620182,32.5589911 C32.3889541,32.5227399 32.104537,32.2113628 32.104537,31.8392789" id="Fill-106" fill="#00547A" mask="url(#mask-10)"></path>
            <path d="M36.1183206,31.7441583 L35.2428122,31.7441583 C35.007906,31.7441583 34.7816861,31.6520474 34.6095215,31.4864162 L34.5111596,31.3916495 C34.3814894,31.2668269 34.2110746,31.1974522 34.0340982,31.1974522 C33.7471989,31.1974522 33.4892957,31.3786944 33.3829974,31.6548975 L33.2162071,32.0884406 C33.1191575,32.3408712 33.1891482,32.6056738 33.3545637,32.7770701 L35.8423574,32.7770701 C36.2253063,32.7770701 36.5577621,32.5540477 36.7261146,32.2265422 C36.6543742,31.954679 36.4160934,31.7441583 36.1183206,31.7441583" id="Fill-107" fill="#00547A" mask="url(#mask-10)"></path>
        </g>
    </g>
</svg>