<?xml version="1.0" encoding="UTF-8"?>
<svg width="106px" height="106px" viewBox="0 0 106 106" version="1.1" xmlns="http://www.w3.org/2000/svg" xmlns:xlink="http://www.w3.org/1999/xlink">
    <title>4. Elements_Microillustrations/Home Modern</title>
    <defs>
        <path d="M88,44 C88,68.3004855 68.3000427,88 43.9990109,88 C19.6979792,88 0,68.3004855 0,44 C0,19.6995145 19.6979792,0 43.9990109,0 C68.3000427,0 88,19.6995145 88,44" id="path-1"></path>
        <polygon id="path-3" points="0 0 11.9776536 0 11.9776536 25.5642458 0 25.5642458"></polygon>
        <polygon id="path-5" points="0 0 22.8826816 0 22.8826816 25.5642458 0 25.5642458"></polygon>
        <polygon id="path-7" points="0 0 2.8603352 0 2.8603352 2.5027933 0 2.5027933"></polygon>
        <polygon id="path-9" points="0 26.2793296 64 26.2793296 64 0 0 0"></polygon>
    </defs>
    <g id="4.-Elements_Microillustrations/Home-Modern" stroke="none" stroke-width="1" fill="none" fill-rule="evenodd">
        <g id="Vector-Smart-Object" transform="translate(9.000000, 9.000000)">
            <mask id="mask-2" fill="white">
                <use xlink:href="#path-1"></use>
            </mask>
            <use id="Mask" fill="#DFF0FF" xlink:href="#path-1"></use>
        </g>
        <g id="Group-122" transform="translate(21.000000, 40.000000)">
            <g id="Group-3" transform="translate(3.396648, 0.000000)">
                <mask id="mask-4" fill="white">
                    <use xlink:href="#path-3"></use>
                </mask>
                <g id="Clip-2"></g>
                <path d="M7.11018363,15.2074249 L7.11018363,-4.24312061e-06 L0.0846163341,-4.24312061e-06 C0.0379081177,-4.24312061e-06 0,0.0379716863 0,0.084858169 L0,15.2074249 L0,25.5642458 L11.9776536,25.5642458 L11.9776536,15.2074249 L7.11018363,15.2074249 Z" id="Fill-1" fill="#3CA1FF" mask="url(#mask-4)"></path>
            </g>
            <g id="Group-6" transform="translate(10.547486, 0.000000)">
                <mask id="mask-6" fill="white">
                    <use xlink:href="#path-5"></use>
                </mask>
                <g id="Clip-5"></g>
                <path d="M22.7979941,15.2074249 L15.8761484,15.2074249 L15.8761484,0.084858169 C15.8761484,0.0379716863 15.8382507,-4.24312061e-06 15.7914609,-4.24312061e-06 L0,-4.24312061e-06 L0,15.2074249 L4.87156205,15.2074249 L4.87156205,25.5642458 L22.8826816,25.5642458 L22.8826816,15.2922873 C22.8826816,15.2454432 22.8447416,15.2074249 22.7979941,15.2074249" id="Fill-4" fill="#B8DDFF" mask="url(#mask-6)"></path>
            </g>
            <path d="M55.8933558,26.2793296 C55.4339025,26.2793296 55.0614525,25.8871281 55.0614525,25.4034085 L55.0614525,25.09057 C55.0614525,24.8647691 55.1018574,24.6410532 55.1806449,24.4310451 L55.276159,24.1764535 C55.5421405,23.4671104 56.1920742,23.0002926 56.9163715,22.9983407 L57.3197046,22.9972316 C57.5631032,22.9952353 57.7914605,22.8726641 57.9359745,22.6664267 L58.215312,22.2677484 C58.574701,21.7550162 59.1439934,21.4524253 59.7492246,21.452514 L59.9345227,21.452514 C60.6670359,21.4526914 61.3092593,21.9678635 61.5039108,22.711365 C61.6295495,23.1914914 61.9805541,23.5700738 62.4333505,23.7139831 C62.5084725,23.7378497 62.5826676,23.7614057 62.6522281,23.7834978 C62.9110893,23.8658331 63.1339695,24.0416827 63.2816855,24.2801711 L63.9001885,25.2786191 C63.9653251,25.3838006 64,25.5065937 64,25.6321372 C64,25.9896036 63.7247493,26.2793296 63.385289,26.2793296 L55.8933558,26.2793296 Z" id="Fill-7" fill="#0097B8"></path>
            <path d="M58.9240512,25.8153544 C58.9061366,25.5556479 58.7530096,25.324622 58.5211009,25.2072497 L57.748257,24.816365 C57.3098614,24.5946143 57.0498866,24.1283309 57.0910902,23.638026 C57.1161279,23.3401928 57.3582308,23.1074144 57.6562102,23.0947197 L58.4876604,23.0592003 C58.8640374,23.0430862 59.2186183,22.8778845 59.4735599,22.5999268 L59.7720511,22.2744388 C59.9585761,22.0711104 59.9056854,21.7781926 59.7190751,21.6312849 C59.1395808,21.6577428 58.6006929,21.94395 58.2544295,22.4141657 L57.9715922,22.7982543 C57.8252898,22.9969665 57.5941062,23.1150226 57.3476953,23.1169888 L56.9394133,23.1180574 C56.2061095,23.1199381 55.5481748,23.5697654 55.2788162,24.2531832 L55.1821627,24.4984853 C55.1024428,24.7008734 55.0614525,24.9164263 55.0614525,25.1339882 L55.0614525,25.4353263 C55.0614525,25.9015242 55.4385546,26.2793296 55.9036941,26.2793296 L58.6615598,26.2793296 C58.8276963,26.1941856 58.9378711,26.0160327 58.9240512,25.8153544" id="Fill-9" fill="#00547A"></path>
            <path d="M58.3060704,23.7765363 C58.1367363,23.7765363 58.0403538,23.9995149 58.1423032,24.155217 L58.1423447,24.155217 C58.3179105,24.4233655 58.5926422,24.5809817 58.8843239,24.5809817 C59.1370372,24.5809817 59.3636192,24.7604172 59.454144,25.0321543 L59.5031246,25.1791958 C59.5445442,25.303413 59.6481138,25.3854749 59.7636482,25.3854749 L59.813792,25.3854749 C60.0523803,25.3854749 60.2458101,25.1626877 60.2458101,24.8878403 C60.2458101,24.2740751 59.8138751,23.7765363 59.2810294,23.7765363 L58.3060704,23.7765363 Z" id="Fill-11" fill="#00547A"></path>
            <g id="Group-15" transform="translate(60.245810, 23.776536)">
                <mask id="mask-8" fill="white">
                    <use xlink:href="#path-7"></use>
                </mask>
                <g id="Clip-14"></g>
                <path d="M0.957134379,2.27385956 L1.0586712,2.01504525 C1.14766695,1.78802324 1.36598986,1.63872499 1.60906159,1.63872499 C1.88254854,1.63872499 2.12191211,1.4542879 2.19261707,1.18903148 L2.29302894,0.812502055 C2.36644211,0.537164129 2.58722323,0.329719466 2.8603352,0.270485419 C2.77725583,0.219032114 2.68734345,0.178036799 2.59251465,0.149340078 C2.52376793,0.128465933 2.45035477,0.106253165 2.37606665,0.0837475732 C2.30327845,0.0616603011 2.23349012,0.033214572 2.16653498,0 C1.88050697,0.139300409 1.64530986,0.378077206 1.51452444,0.685040089 L1.43898638,0.862323913 C1.33599129,1.10415444 1.10791885,1.26876318 0.846806312,1.28976283 L0.654232172,1.30519882 C0.403619135,1.32531999 0.191920907,1.4999684 0.1236325,1.74297022 L0.0127627926,2.13732006 C-0.0276519448,2.28113832 0.0313452389,2.42395261 0.141339988,2.50280585 L0.761310394,2.50280585 C0.848514564,2.45181269 0.918511223,2.37233198 0.957134379,2.27385956" id="Fill-13" fill="#00547A" mask="url(#mask-8)"></path>
            </g>
            <polygon id="Fill-16" fill="#0065C4" points="45.2427497 16.9832402 33.6089385 16.9832402 33.6089385 25.5642458 48.4469274 25.5642458 48.4469274 16.9832402"></polygon>
            <mask id="mask-10" fill="white">
                <use xlink:href="#path-9"></use>
            </mask>
            <g id="Clip-19"></g>
            <polygon id="Fill-18" fill="#1C417D" mask="url(#mask-10)" points="34.3240223 25.5642458 48.4469274 25.5642458 48.4469274 25.3854749 34.3240223 25.3854749"></polygon>
            <polygon id="Fill-20" fill="#1C417D" mask="url(#mask-10)" points="34.3240223 25.027933 48.4469274 25.027933 48.4469274 24.849162 34.3240223 24.849162"></polygon>
            <polygon id="Fill-21" fill="#1C417D" mask="url(#mask-10)" points="34.3240223 24.6703911 48.4469274 24.6703911 48.4469274 24.4916201 34.3240223 24.4916201"></polygon>
            <polygon id="Fill-22" fill="#1C417D" mask="url(#mask-10)" points="34.3240223 24.3128492 48.4469274 24.3128492 48.4469274 24.1340782 34.3240223 24.1340782"></polygon>
            <polygon id="Fill-23" fill="#1C417D" mask="url(#mask-10)" points="34.3240223 23.9553073 48.4469274 23.9553073 48.4469274 23.7765363 34.3240223 23.7765363"></polygon>
            <polygon id="Fill-24" fill="#1C417D" mask="url(#mask-10)" points="34.3240223 23.5977654 48.4469274 23.5977654 48.4469274 23.4189944 34.3240223 23.4189944"></polygon>
            <polygon id="Fill-25" fill="#1C417D" mask="url(#mask-10)" points="34.3240223 23.0614525 48.4469274 23.0614525 48.4469274 22.8826816 34.3240223 22.8826816"></polygon>
            <polygon id="Fill-26" fill="#1C417D" mask="url(#mask-10)" points="34.3240223 22.7039106 48.4469274 22.7039106 48.4469274 22.5251397 34.3240223 22.5251397"></polygon>
            <polygon id="Fill-27" fill="#1C417D" mask="url(#mask-10)" points="34.3240223 22.3463687 48.4469274 22.3463687 48.4469274 22.1675978 34.3240223 22.1675978"></polygon>
            <polygon id="Fill-28" fill="#1C417D" mask="url(#mask-10)" points="34.3240223 21.8100559 48.4469274 21.8100559 48.4469274 21.6312849 34.3240223 21.6312849"></polygon>
            <polygon id="Fill-29" fill="#1C417D" mask="url(#mask-10)" points="34.3240223 21.452514 48.4469274 21.452514 48.4469274 21.273743 34.3240223 21.273743"></polygon>
            <polygon id="Fill-30" fill="#1C417D" mask="url(#mask-10)" points="34.3240223 21.273743 48.4469274 21.273743 48.4469274 21.0949721 34.3240223 21.0949721"></polygon>
            <polygon id="Fill-31" fill="#1C417D" mask="url(#mask-10)" points="34.3240223 20.7374302 48.4469274 20.7374302 48.4469274 20.5586592 34.3240223 20.5586592"></polygon>
            <polygon id="Fill-32" fill="#1C417D" mask="url(#mask-10)" points="34.3240223 20.3798883 48.4469274 20.3798883 48.4469274 20.2011173 34.3240223 20.2011173"></polygon>
            <polygon id="Fill-33" fill="#1C417D" mask="url(#mask-10)" points="34.3240223 19.8435754 48.4469274 19.8435754 48.4469274 19.6648045 34.3240223 19.6648045"></polygon>
            <polygon id="Fill-34" fill="#1C417D" mask="url(#mask-10)" points="34.3240223 19.4860335 48.4469274 19.4860335 48.4469274 19.3072626 34.3240223 19.3072626"></polygon>
            <polygon id="Fill-35" fill="#1C417D" mask="url(#mask-10)" points="34.3240223 19.1284916 48.4469274 19.1284916 48.4469274 18.9497207 34.3240223 18.9497207"></polygon>
            <polygon id="Fill-36" fill="#1C417D" mask="url(#mask-10)" points="34.3240223 18.5921788 48.4469274 18.5921788 48.4469274 18.4134078 34.3240223 18.4134078"></polygon>
            <polygon id="Fill-37" fill="#1C417D" mask="url(#mask-10)" points="34.3240223 18.2346369 48.4469274 18.2346369 48.4469274 18.0558659 34.3240223 18.0558659"></polygon>
            <polygon id="Fill-38" fill="#1C417D" mask="url(#mask-10)" points="34.3240223 18.0558659 48.4469274 18.0558659 48.4469274 17.877095 34.3240223 17.877095"></polygon>
            <polygon id="Fill-39" fill="#1C417D" mask="url(#mask-10)" points="34.3240223 17.5195531 48.4469274 17.5195531 48.4469274 17.3407821 34.3240223 17.3407821"></polygon>
            <polygon id="Fill-40" fill="#1C417D" mask="url(#mask-10)" points="45.1992413 16.9832402 34.3240223 16.9832402 34.3240223 17.1620112 48.4469274 17.1620112 48.4469274 16.9832402"></polygon>
            <polygon id="Fill-41" fill="#1C417D" mask="url(#mask-10)" points="48.9832402 16.9832402 48.1193883 16.9832402 46.301676 25.5642458 47.165484 25.5642458"></polygon>
            <polygon id="Fill-42" fill="#0065C4" mask="url(#mask-10)" points="47.5729927 25.5642458 49.3407821 16.9832402 49.0107434 16.9832402 48.9633202 16.9832402 47.1955307 25.5642458"></polygon>
            <polygon id="Fill-43" fill="#1C417D" mask="url(#mask-10)" points="59.1731844 16.9832402 58.3669225 16.9832402 56.6703911 25.5642458 57.4766118 25.5642458"></polygon>
            <polygon id="Fill-44" fill="#0065C4" mask="url(#mask-10)" points="57.9102526 25.5642458 59.5307263 16.9832402 59.22823 16.9832402 59.1847195 16.9832402 57.5642458 25.5642458"></polygon>
            <polygon id="Fill-45" fill="#B8DDFF" mask="url(#mask-10)" points="26.4581006 15.3743017 30.0335196 15.3743017 30.0335196 7.32960894 26.4581006 7.32960894"></polygon>
            <polygon id="Fill-46" fill="#FFD4C8" mask="url(#mask-10)" points="53.0949721 15.0167598 60.0670391 15.0167598 60.0670391 7.86592179 53.0949721 7.86592179"></polygon>
            <polygon id="Fill-47" fill="#FFD4C8" mask="url(#mask-10)" points="45.5865922 15.0167598 52.7374302 15.0167598 52.7374302 7.86592179 45.5865922 7.86592179"></polygon>
            <polygon id="Fill-48" fill="#FF97A6" mask="url(#mask-10)" points="59.5985014 8.22346369 59.4874635 8.22346369 53.0949721 8.22346369 53.0949721 8.71470543 59.4874635 8.35067532 59.4874635 15.0167598 59.7094972 15.0167598 59.7094972 8.22346369"></polygon>
            <polygon id="Fill-49" fill="#FF97A6" mask="url(#mask-10)" points="52.3340469 8.22346369 45.7653631 8.22346369 45.7653631 9.1096709 52.3340469 8.74771444 52.3340469 15.0167598 52.5586592 15.0167598 52.5586592 8.22346369 52.4863026 8.22346369"></polygon>
            <path d="M52.1125261,11.0837989 L52.1109987,11.0837989 C52.0620597,11.0837989 52.0223464,11.1167194 52.0223464,11.1572876 L52.0223464,11.725394 C52.0223464,11.7659622 52.0620597,11.7988827 52.1109987,11.7988827 L52.1125261,11.7988827 C52.1614651,11.7988827 52.2011173,11.7659622 52.2011173,11.725394 L52.2011173,11.1572876 C52.2011173,11.1167194 52.1614651,11.0837989 52.1125261,11.0837989" id="Fill-50" fill="#FF97A6" mask="url(#mask-10)"></path>
            <path d="M53.1850907,11.0837989 L53.1836855,11.0837989 C53.1346854,11.0837989 53.0949721,11.1167194 53.0949721,11.1572876 L53.0949721,11.725394 C53.0949721,11.7659622 53.1346854,11.7988827 53.1836855,11.7988827 L53.1850907,11.7988827 C53.2340908,11.7988827 53.273743,11.7659622 53.273743,11.725394 L53.273743,11.1572876 C53.273743,11.1167194 53.2340908,11.0837989 53.1850907,11.0837989" id="Fill-51" fill="#FF97A6" mask="url(#mask-10)"></path>
            <polygon id="Fill-52" fill="#0065C4" mask="url(#mask-10)" points="60.603352 15.1955307 62.2122905 15.1955307 62.2122905 7.86592179 60.603352 7.86592179"></polygon>
            <polygon id="Fill-53" fill="#3CA1FF" mask="url(#mask-10)" points="60.424581 15.1955307 60.7821229 15.1955307 60.7821229 7.86592179 60.424581 7.86592179"></polygon>
            <polygon id="Fill-54" fill="#1C417D" mask="url(#mask-10)" points="60.0670391 15.1955307 60.424581 15.1955307 60.424581 7.86592179 60.0670391 7.86592179"></polygon>
            <polygon id="Fill-55" fill="#1C417D" mask="url(#mask-10)" points="52.5586592 15.0167598 52.7374302 15.0167598 52.7374302 8.22346369 52.5586592 8.22346369"></polygon>
            <polygon id="Fill-56" fill="#1C417D" mask="url(#mask-10)" points="52.7374302 7.86592179 52.7374302 15.1955307 52.8552645 15.1955307 52.9162011 15.1955307 52.9162011 7.86592179 52.8552645 7.86592179"></polygon>
            <polygon id="Fill-57" fill="#1C417D" mask="url(#mask-10)" points="59.8882682 15.0167598 60.0670391 15.0167598 60.0670391 8.22346369 59.8882682 8.22346369"></polygon>
            <path d="M52.1125261,11.0837989 L52.1109987,11.0837989 C52.0620597,11.0837989 52.0223464,11.1167194 52.0223464,11.1572876 L52.0223464,11.725394 C52.0223464,11.7659622 52.0620597,11.7988827 52.1109987,11.7988827 L52.1125261,11.7988827 C52.1614651,11.7988827 52.2011173,11.7659622 52.2011173,11.725394 L52.2011173,11.1572876 C52.2011173,11.1167194 52.1614651,11.0837989 52.1125261,11.0837989" id="Fill-58" fill="#0065C4" mask="url(#mask-10)"></path>
            <path d="M52.6265641,14.9840199 L52.4856772,14.9840199 L45.6192162,14.9840199 L45.6192162,8.07743266 L52.4856772,8.07743266 L52.6265641,8.07743266 L52.6265641,14.9840199 Z M45.4176846,7.86592179 L45.4078212,7.86592179 L45.4078212,15.1955307 L45.4176846,15.1955307 L52.6970722,15.1955307 L52.7374302,15.1955307 L52.7374302,7.86592179 L52.6970722,7.86592179 L45.4176846,7.86592179 Z" id="Fill-59" fill="#0065C4" mask="url(#mask-10)"></path>
            <path d="M59.8608013,14.9840199 L59.7233514,14.9840199 L53.1224809,14.9840199 L53.1224809,8.07743266 L59.7233514,8.07743266 L59.8608013,8.07743266 L59.8608013,14.9840199 Z M59.9295893,7.86592179 L52.9258239,7.86592179 L52.9162011,7.86592179 L52.9162011,15.1955307 L52.9258239,15.1955307 L59.9295893,15.1955307 L60.0670391,15.1955307 L60.0670391,7.86592179 L59.9295893,7.86592179 Z" id="Fill-60" fill="#0065C4" mask="url(#mask-10)"></path>
            <path d="M53.3639228,11.0837989 L53.3624564,11.0837989 C53.3134563,11.0837989 53.273743,11.1167194 53.273743,11.1572876 L53.273743,11.725394 C53.273743,11.7659622 53.3134563,11.7988827 53.3624564,11.7988827 L53.3639228,11.7988827 C53.4128618,11.7988827 53.452514,11.7659622 53.452514,11.725394 L53.452514,11.1572876 C53.452514,11.1167194 53.4128618,11.0837989 53.3639228,11.0837989" id="Fill-61" fill="#0065C4" mask="url(#mask-10)"></path>
            <polygon id="Fill-62" fill="#3CA1FF" mask="url(#mask-10)" points="30.2122905 7.15083799 30.2122905 15.2293996 33.5621273 15.2293996 33.5621273 16.9832402 45.2290503 16.9832402 45.2290503 7.15083799"></polygon>
            <path d="M45.5727544,15.2108275 L62.2261283,15.2108275 L62.2261283,7.92245926 L45.5727544,7.92245926 L45.5727544,15.2108275 Z M62.4848413,7.15083799 L45.2290503,7.15083799 L45.2290503,15.2108275 L45.2290503,16.9832402 L62.4848413,16.9832402 C62.5317564,16.9832402 62.5698324,16.9448522 62.5698324,16.8974569 L62.5698324,15.2108275 L62.5698324,7.23662134 C62.5698324,7.18918315 62.5317564,7.15083799 62.4848413,7.15083799 L62.4848413,7.15083799 Z" id="Fill-63" fill="#B8DDFF" mask="url(#mask-10)"></path>
            <polygon id="Fill-64" fill="#FF97A6" mask="url(#mask-10)" points="45.5865922 15.1955307 60.2458101 15.1955307 60.2458101 13.2290503 45.5865922 13.2290503"></polygon>
            <polygon id="Fill-65" fill="#1C417D" mask="url(#mask-10)" points="60.603352 15.1955307 62.2122905 15.1955307 62.2122905 13.2290503 60.603352 13.2290503"></polygon>
            <polygon id="Fill-66" fill="#0065C4" mask="url(#mask-10)" points="60.424581 15.1955307 60.7821229 15.1955307 60.7821229 13.2290503 60.424581 13.2290503"></polygon>
            <polygon id="Fill-67" fill="#001828" mask="url(#mask-10)" points="60.0670391 15.1955307 60.424581 15.1955307 60.424581 13.2290503 60.0670391 13.2290503"></polygon>
            <polygon id="Fill-68" fill="#1C417D" mask="url(#mask-10)" points="55.5977654 15.1955307 55.7765363 15.1955307 55.7765363 13.2290503 55.5977654 13.2290503"></polygon>
            <polygon id="Fill-69" fill="#0065C4" mask="url(#mask-10)" points="55.7765363 15.1955307 55.9553073 15.1955307 55.9553073 13.2290503 55.7765363 13.2290503"></polygon>
            <polygon id="Fill-70" fill="#1C417D" mask="url(#mask-10)" points="52.3798883 15.1955307 52.5586592 15.1955307 52.5586592 13.2290503 52.3798883 13.2290503"></polygon>
            <polygon id="Fill-71" fill="#0065C4" mask="url(#mask-10)" points="52.5586592 15.1955307 52.7374302 15.1955307 52.7374302 13.2290503 52.5586592 13.2290503"></polygon>
            <polygon id="Fill-72" fill="#1C417D" mask="url(#mask-10)" points="47.7318436 15.1955307 47.9106145 15.1955307 47.9106145 13.2290503 47.7318436 13.2290503"></polygon>
            <polygon id="Fill-73" fill="#0065C4" mask="url(#mask-10)" points="47.7318436 15.1955307 47.9106145 15.1955307 47.9106145 13.2290503 47.7318436 13.2290503"></polygon>
            <polygon id="Fill-74" fill="#0080F6" mask="url(#mask-10)" points="45.5865922 13.2290503 45.5865922 13.4078212 47.8879331 13.4078212 47.9519948 13.4078212 48.016014 13.4078212 52.5921804 13.4078212 52.6561996 13.4078212 52.7202189 13.4078212 55.8115123 13.4078212 55.8755315 13.4078212 55.9395507 13.4078212 60.1659234 13.4078212 60.45471 13.4078212 60.6787561 13.4078212 62.2122905 13.4078212 62.2122905 13.2290503"></polygon>
            <polygon id="Fill-75" fill="#FF97A6" mask="url(#mask-10)" points="31.8212291 13.4078212 33.4301676 13.4078212 33.4301676 8.40223464 31.8212291 8.40223464"></polygon>
            <polygon id="Fill-76" fill="#001828" mask="url(#mask-10)" points="31.8212291 13.4078212 32 13.4078212 32 8.58100559 31.8212291 8.58100559"></polygon>
            <path d="M32.0125297,13.2951388 L31.9360183,13.2951388 L31.9360183,8.51496024 L32.0125297,8.51496024 L33.3153784,8.51496024 L33.3153784,13.2951388 L32.0125297,13.2951388 Z M33.42485,8.40223464 L31.8977405,8.40223464 L31.8212291,8.40223464 L31.8212291,13.4078212 L31.8977405,13.4078212 L33.42485,13.4078212 L33.4301676,13.4078212 L33.4301676,8.40223464 L33.42485,8.40223464 Z" id="Fill-77" fill="#1C417D" mask="url(#mask-10)"></path>
            <polygon id="Fill-78" fill="#0065C4" mask="url(#mask-10)" points="31.6424581 13.4078212 31.8212291 13.4078212 31.8212291 8.40223464 31.6424581 8.40223464"></polygon>
            <polygon id="Fill-79" fill="#FF97A6" mask="url(#mask-10)" points="35.0391061 13.4078212 36.6480447 13.4078212 36.6480447 8.40223464 35.0391061 8.40223464"></polygon>
            <polygon id="Fill-80" fill="#001828" mask="url(#mask-10)" points="35.0391061 13.4078212 35.2178771 13.4078212 35.2178771 8.58100559 35.0391061 8.58100559"></polygon>
            <path d="M35.2304016,13.2951388 L35.1538922,13.2951388 L35.1538922,8.51496024 L35.2304016,8.51496024 L36.5332147,8.51496024 L36.5332147,13.2951388 L35.2304016,13.2951388 Z M36.6426833,8.40223464 L35.1156155,8.40223464 L35.0391061,8.40223464 L35.0391061,13.4078212 L35.1156155,13.4078212 L36.6426833,13.4078212 L36.6480447,13.4078212 L36.6480447,8.40223464 L36.6426833,8.40223464 Z" id="Fill-81" fill="#1C417D" mask="url(#mask-10)"></path>
            <polygon id="Fill-82" fill="#0065C4" mask="url(#mask-10)" points="34.8603352 13.4078212 35.0391061 13.4078212 35.0391061 8.40223464 34.8603352 8.40223464"></polygon>
            <polygon id="Fill-83" fill="#FF97A6" mask="url(#mask-10)" points="38.2569832 13.4078212 39.8659218 13.4078212 39.8659218 8.40223464 38.2569832 8.40223464"></polygon>
            <polygon id="Fill-84" fill="#001828" mask="url(#mask-10)" points="38.2569832 13.4078212 38.4357542 13.4078212 38.4357542 8.58100559 38.2569832 8.58100559"></polygon>
            <path d="M38.4482787,13.2951388 L38.3717693,13.2951388 L38.3717693,8.51496024 L38.4482787,8.51496024 L39.7510918,8.51496024 L39.7510918,13.2951388 L38.4482787,13.2951388 Z M39.8605604,8.40223464 L38.3335366,8.40223464 L38.2569832,8.40223464 L38.2569832,13.4078212 L38.3335366,13.4078212 L39.8605604,13.4078212 L39.8659218,13.4078212 L39.8659218,8.40223464 L39.8605604,8.40223464 Z" id="Fill-85" fill="#1C417D" mask="url(#mask-10)"></path>
            <polygon id="Fill-86" fill="#0065C4" mask="url(#mask-10)" points="38.0782123 13.4078212 38.2569832 13.4078212 38.2569832 8.40223464 38.0782123 8.40223464"></polygon>
            <polygon id="Fill-87" fill="#FFD4C8" mask="url(#mask-10)" points="25.2067039 15.3743017 25.05858 15.3743017 21.6312849 15.3743017 21.6312849 1.4301676 25.2067039 1.4301676"></polygon>
            <polygon id="Fill-88" fill="#FF97A6" mask="url(#mask-10)" points="24.6250731 15.1955307 24.849162 15.1955307 24.849162 1.4301676 24.6250731 1.4301676 21.6312849 1.4301676 21.6312849 1.92869232 24.6250731 1.58841237"></polygon>
            <polygon id="Fill-89" fill="#1C417D" mask="url(#mask-10)" points="24.849162 15.1955307 25.027933 15.1955307 25.027933 1.4301676 24.849162 1.4301676"></polygon>
            <path d="M24.9992301,15.1644876 L24.860886,15.1644876 L21.6599878,15.1644876 L21.6599878,1.95744571 L21.6599878,1.46116795 L24.6379795,1.46116795 L24.860886,1.46116795 L24.9992301,1.46116795 L24.9992301,15.1644876 Z M25.0684021,1.25139665 L21.4621541,1.25139665 L21.452514,1.25139665 L21.452514,15.3743017 L21.4621541,15.3743017 L25.0684021,15.3743017 L25.2067039,15.3743017 L25.2067039,1.25139665 L25.0684021,1.25139665 Z" id="Fill-90" fill="#0065C4" mask="url(#mask-10)"></path>
            <polygon id="Fill-91" fill="#3CA1FF" mask="url(#mask-10)" points="25.2067039 15.3743017 25.5642458 15.3743017 25.5642458 1.25139665 25.2067039 1.25139665"></polygon>
            <polygon id="Fill-92" fill="#FFD4C8" mask="url(#mask-10)" points="26.4581006 15.3743017 29.1396648 15.3743017 29.1396648 8.58100559 26.4581006 8.58100559"></polygon>
            <polygon id="Fill-93" fill="#FF97A6" mask="url(#mask-10)" points="28.9608939 15.1955307 28.9608939 8.58100559 26.8156425 8.58100559 26.8156425 9.01527687 28.7760507 8.69156675 28.7760507 15.1955307"></polygon>
            <polygon id="Fill-94" fill="#1C417D" mask="url(#mask-10)" points="28.9608939 15.1955307 29.1396648 15.1955307 29.1396648 8.58100559 28.9608939 8.58100559"></polygon>
            <path d="M29.1056115,15.3402994 L28.9637721,15.3402994 L26.6709248,15.3402994 L26.6709248,8.61500791 L28.9637721,8.61500791 L29.1056115,8.61500791 L29.1056115,15.3402994 Z M29.1765529,8.40223464 L26.4679873,8.40223464 L26.4581006,8.40223464 L26.4581006,15.5530726 L26.4679873,15.5530726 L29.1765529,15.5530726 L29.3184358,15.5530726 L29.3184358,8.40223464 L29.1765529,8.40223464 Z" id="Fill-95" fill="#0065C4" mask="url(#mask-10)"></path>
            <polygon id="Fill-96" fill="#3CA1FF" mask="url(#mask-10)" points="29.3184358 15.5530726 29.6759777 15.5530726 29.6759777 8.40223464 29.3184358 8.40223464"></polygon>
            <polygon id="Fill-97" fill="#FFD4C8" mask="url(#mask-10)" points="21.9888268 25.5642458 26.9944134 25.5642458 26.9944134 16.9832402 21.9888268 16.9832402"></polygon>
            <polygon id="Fill-98" fill="#FFD4C8" mask="url(#mask-10)" points="26.9944134 25.5642458 32 25.5642458 32 16.9832402 26.9944134 16.9832402"></polygon>
            <polygon id="Fill-99" fill="#FFD4C8" mask="url(#mask-10)" points="16.4469274 25.5642458 21.452514 25.5642458 21.452514 16.9832402 16.4469274 16.9832402"></polygon>
            <path d="M26.2793296,20.7477312 C26.2617296,20.7413375 26.2416036,20.7374302 26.2197665,20.7374302 C26.1538477,20.7374302 26.1005587,20.7706675 26.1005587,20.8116686 L26.1005587,21.3782756 C26.1005587,21.4192259 26.1538477,21.452514 26.2197665,21.452514 C26.2416036,21.452514 26.2617296,21.4486067 26.2793296,21.4422129 C26.243885,21.4293747 26.2197665,21.4056773 26.2197665,21.3782756 L26.2197665,20.8116686 C26.2197665,20.7842668 26.243885,20.7605694 26.2793296,20.7477312" id="Fill-100" fill="#FF97A6" mask="url(#mask-10)"></path>
            <path d="M27.5307263,20.7477312 C27.5131342,20.7413375 27.492936,20.7374302 27.4711902,20.7374302 C27.4053015,20.7374302 27.3519553,20.7706675 27.3519553,20.8116686 L27.3519553,21.3782756 C27.3519553,21.4192259 27.4053015,21.452514 27.4711902,21.452514 C27.492936,21.452514 27.5131342,21.4486067 27.5307263,21.4422129 C27.4952164,21.4293747 27.4711902,21.4056773 27.4711902,21.3782756 L27.4711902,20.8116686 C27.4711902,20.7842668 27.4952164,20.7605694 27.5307263,20.7477312" id="Fill-101" fill="#FF97A6" mask="url(#mask-10)"></path>
            <path d="M21.0949721,20.7477312 C21.07738,20.7413375 21.0571818,20.7374302 21.035436,20.7374302 C20.9695473,20.7374302 20.9162011,20.7706675 20.9162011,20.8116686 L20.9162011,21.3782756 C20.9162011,21.4192259 20.9695473,21.452514 21.035436,21.452514 C21.0571818,21.452514 21.07738,21.4486067 21.0949721,21.4422129 C21.0594622,21.4293747 21.035436,21.4056773 21.035436,21.3782756 L21.035436,20.8116686 C21.035436,20.7842668 21.0594622,20.7605694 21.0949721,20.7477312" id="Fill-102" fill="#FF97A6" mask="url(#mask-10)"></path>
            <path d="M26.3687151,21.452514 C26.4028685,21.452514 26.4321953,21.4364281 26.4472863,21.4130352 C26.4539459,21.4026327 26.4581006,21.3909108 26.4581006,21.3782756 L26.4581006,20.8116686 C26.4581006,20.7990333 26.4539459,20.7873622 26.4472863,20.7769597 C26.4321953,20.7535667 26.4028685,20.7374302 26.3687151,20.7374302 C26.352341,20.7374302 26.3371888,20.7413375 26.3239918,20.7477312 C26.2974144,20.7605694 26.2793296,20.7842668 26.2793296,20.8116686 L26.2793296,21.3782756 C26.2793296,21.4056773 26.2974144,21.4293747 26.3239918,21.4422129 C26.3371888,21.4486067 26.352341,21.452514 26.3687151,21.452514" id="Fill-103" fill="#0065C4" mask="url(#mask-10)"></path>
            <polygon id="Fill-104" fill="#1C417D" mask="url(#mask-10)" points="26.6368715 17.1620112 26.6368715 17.676744 26.6368715 25.5642458 26.8156425 25.5642458 26.8156425 17.1620112"></polygon>
            <polygon id="Fill-105" fill="#0065C4" mask="url(#mask-10)" points="26.9543913 16.9832402 21.8197841 16.9832402 21.8100559 16.9832402 21.8100559 25.5642458 22.0194253 25.5642458 22.0194253 18.0712549 22.0194253 17.1898157 26.5200361 17.1898157 26.7449792 17.1898157 26.8845873 17.1898157 26.8845873 25.5642458 26.9944134 25.5642458 26.9944134 16.9832402"></polygon>
            <polygon id="Fill-106" fill="#3CA1FF" mask="url(#mask-10)" points="32.1787709 25.5642458 32.8938547 25.5642458 32.8938547 16.9832402 32.1787709 16.9832402"></polygon>
            <polygon id="Fill-107" fill="#1C417D" mask="url(#mask-10)" points="27.1121973 16.9832402 26.9944134 16.9832402 26.9944134 25.5642458 27.1731844 25.5642458 27.1731844 16.9832402"></polygon>
            <polygon id="Fill-108" fill="#1C417D" mask="url(#mask-10)" points="31.8212291 17.1620112 31.8212291 17.2825758 31.8212291 25.5642458 32 25.5642458 32 17.1620112"></polygon>
            <polygon id="Fill-109" fill="#0065C4" mask="url(#mask-10)" points="32.044017 16.9832402 27.1825772 16.9832402 27.1731844 16.9832402 27.1731844 25.5642458 27.3753358 25.5642458 27.3753358 17.6706466 27.3753358 17.1898157 31.6246774 17.1898157 31.8418656 17.1898157 31.9766195 17.1898157 31.9766195 25.5642458 32.1787709 25.5642458 32.1787709 16.9832402"></polygon>
            <path d="M27.4413408,21.452514 C27.4907075,21.452514 27.5307263,21.4192767 27.5307263,21.3782756 L27.5307263,20.8116686 C27.5307263,20.7706675 27.4907075,20.7374302 27.4413408,20.7374302 C27.4249667,20.7374302 27.4098145,20.7413375 27.3966786,20.7477312 C27.3700401,20.7605694 27.3519553,20.7842668 27.3519553,20.8116686 L27.3519553,21.3782756 C27.3519553,21.4056773 27.3700401,21.4293747 27.3966786,21.4422129 C27.4098145,21.4486067 27.4249667,21.452514 27.4413408,21.452514" id="Fill-110" fill="#0065C4" mask="url(#mask-10)"></path>
            <path d="M21.1843575,21.452514 C21.218511,21.452514 21.2478988,21.4364281 21.2629288,21.4130352 C21.2695884,21.4026327 21.273743,21.3909108 21.273743,21.3782756 L21.273743,20.8116686 C21.273743,20.7990333 21.2695884,20.7873622 21.2629288,20.7769597 C21.2478988,20.7535667 21.218511,20.7374302 21.1843575,20.7374302 C21.1679834,20.7374302 21.1528313,20.7413375 21.1396954,20.7477312 C21.1130569,20.7605694 21.0949721,20.7842668 21.0949721,20.8116686 L21.0949721,21.3782756 C21.0949721,21.4056773 21.1130569,21.4293747 21.1396954,21.4422129 C21.1528313,21.4486067 21.1679834,21.452514 21.1843575,21.452514" id="Fill-111" fill="#0065C4" mask="url(#mask-10)"></path>
            <polygon id="Fill-112" fill="#1C417D" mask="url(#mask-10)" points="21.273743 17.1620112 21.273743 18.0990368 21.273743 25.5642458 21.452514 25.5642458 21.452514 17.1620112"></polygon>
            <polygon id="Fill-113" fill="#0065C4" mask="url(#mask-10)" points="21.4124918 16.9832402 16.2778846 16.9832402 16.2681564 16.9832402 16.2681564 25.5642458 16.4775259 25.5642458 16.4775259 18.4921503 16.4775259 17.1898157 20.9781367 17.1898157 21.2031224 17.1898157 21.3426878 17.1898157 21.3426878 25.5642458 21.452514 25.5642458 21.452514 16.9832402"></polygon>
            <polygon id="Fill-114" fill="#1C417D" mask="url(#mask-10)" points="21.5631727 16.9832402 21.452514 16.9832402 21.452514 25.5642458 21.6312849 25.5642458 21.6312849 16.9832402"></polygon>
            <path d="M26.6368715,17.6767465 L26.6368715,17.1620112 L26.4071082,17.1620112 L21.8100559,17.1620112 L21.8100559,18.0463391 L26.4071082,17.694314 L26.4071082,20.8027853 C26.4118586,20.8114423 26.4148222,20.8211973 26.4148222,20.8317125 L26.4148222,21.3032471 C26.4148222,21.3137622 26.4118586,21.323475 26.4071082,21.3321743 L26.4071082,25.5642458 L26.6368715,25.5642458 L26.6368715,17.6767465 Z" id="Fill-115" fill="#FF97A6" mask="url(#mask-10)"></path>
            <polygon id="Fill-116" fill="#FF97A6" mask="url(#mask-10)" points="31.8212291 17.2825764 31.8212291 17.1620112 31.5952146 17.1620112 27.1731844 17.1620112 27.1731844 17.6443987 31.5952146 17.3001861 31.5952146 25.5642458 31.8212291 25.5642458"></polygon>
            <path d="M21.452514,18.0990415 L21.452514,17.1620112 L21.2227507,17.1620112 L16.6256983,17.1620112 L16.6256983,18.4686341 L21.2227507,18.116609 L21.2227507,20.8027853 C21.2275011,20.8114423 21.2304647,20.8211973 21.2304647,20.8317125 L21.2304647,21.3032471 C21.2304647,21.3137622 21.2275011,21.323475 21.2227507,21.3321743 L21.2227507,25.5642458 L21.452514,25.5642458 L21.452514,18.0990415 Z" id="Fill-117" fill="#FF97A6" mask="url(#mask-10)"></path>
            <path d="M1.87265937,26.2793296 L61.9485697,26.2793296 C61.9955045,26.2793296 62.0335196,26.2401805 62.0335196,26.1919431 L62.0335196,25.6516323 C62.0335196,25.6033513 61.9955045,25.5642458 61.9485697,25.5642458 L1.87265937,25.5642458 C1.82576704,25.5642458 1.7877095,25.6033513 1.7877095,25.6516323 L1.7877095,26.1919431 C1.7877095,26.2401805 1.82576704,26.2793296 1.87265937,26.2793296" id="Fill-118" fill="#DFF0FF" mask="url(#mask-10)"></path>
            <path d="M0,25.544779 L0,25.2886712 C0,24.5004812 0.441254562,23.779499 1.14072662,23.4249044 L1.5333869,23.2258174 C1.723018,23.1296555 1.85611678,22.9486596 1.89198498,22.7380332 L1.9631334,22.320331 C2.15410851,21.199315 3.11982011,20.3798883 4.24992068,20.3798883 L4.24992068,20.3798883 C5.28203467,20.3798883 6.24442826,20.9039393 6.80907953,21.7733702 L7.71317678,23.1655418 C8.05262275,23.688198 8.63117611,24.0032288 9.25156172,24.0032288 L10.1424289,24.0032288 C10.5203891,24.0032288 10.8884372,24.1250057 11.192645,24.3507222 L11.8638509,24.8486932 C12.047854,24.9852221 12.1564246,25.201597 12.1564246,25.4316249 L12.1564246,25.6022226 C12.1564246,25.9761764 11.8552408,26.2793296 11.4836647,26.2793296 L0.729880238,26.2793296 C0.326761897,26.2793296 0,25.9504768 0,25.544779" id="Fill-119" fill="#0097B8" mask="url(#mask-10)"></path>
            <path d="M9.06283574,25.7686293 L9.06283574,25.7306292 C9.06283574,25.6032097 9.01092042,25.4814136 8.91925544,25.3937408 L7.98672274,24.5017618 C7.64008551,24.1701985 7.18053563,23.9853955 6.70277947,23.9853955 L5.55096894,23.9853955 C5.16711658,23.9853955 4.78968499,23.8861779 4.45462205,23.6972852 L4.2067042,23.5574688 C3.54489999,23.1843696 3.18292894,22.4356151 3.29900975,21.6799592 L3.40229125,21.0078012 C3.42869246,20.8359915 3.37656592,20.6767917 3.27793103,20.5586592 C2.60780515,20.878209 2.10660473,21.5117706 1.97442975,22.2892382 L1.90287193,22.7102209 C1.89163558,22.7761672 1.87000772,22.8386628 1.84119872,22.8971965 L1.82641405,22.9976922 C1.7505898,23.5135899 1.37290476,23.9320165 0.870690529,24.0564113 L0.84699281,24.0622477 C0.540696622,24.13812 0.285301952,24.3269274 0.119882579,24.5784009 C0.0418617463,24.8004372 0,25.0374689 0,25.2809334 L0,25.5390101 C0,25.9478941 0.328642166,26.2793296 0.734080148,26.2793296 L2.23844177,26.2793296 L2.24266597,26.1958743 C2.25876014,25.8796048 2.52120921,25.633499 2.83515119,25.64023 L3.18360481,25.6477703 C3.41732938,25.6527972 3.63403045,25.5249091 3.74415514,25.3169738 L3.8131362,25.1867001 C3.92604886,24.9734397 4.14013093,24.8340919 4.37934695,24.8181166 L4.7287299,24.794899 C5.11503229,24.7691255 5.47016014,25.0087985 5.59388673,25.3787452 L5.67026013,25.6070438 C5.7415645,25.8202616 5.66620491,26.0553337 5.48469136,26.1861613 L5.35530435,26.2793296 L9.65363128,26.2793296 L9.50929063,26.2651009 C9.25596582,26.2400941 9.06283574,26.0253001 9.06283574,25.7686293" id="Fill-120" fill="#00547A" mask="url(#mask-10)"></path>
            <path d="M11.7589909,25.5779399 L11.1865,25.5779399 C11.0328959,25.5779399 10.8849718,25.5153928 10.7724351,25.4029224 L10.7080758,25.3385719 C10.6233259,25.2538122 10.5118516,25.2067039 10.3961684,25.2067039 C10.2085663,25.2067039 10.0398838,25.3297748 9.97037577,25.5173281 L9.86135324,25.8117218 C9.79785211,25.9831326 9.84361869,26.1629445 9.95178309,26.2793296 L11.5785398,26.2793296 C11.8289484,26.2793296 12.0463396,26.1278882 12.1564246,25.9054985 C12.1095138,25.7208922 11.9537032,25.5779399 11.7589909,25.5779399" id="Fill-121" fill="#00547A" mask="url(#mask-10)"></path>
        </g>
    </g>
</svg>