<svg viewBox="0 0 106 106" xmlns="http://www.w3.org/2000/svg" xmlns:xlink="http://www.w3.org/1999/xlink"><defs><path d="M88 44c0 24.3-19.7 44-44.001 44S0 68.3 0 44 19.698 0 43.999 0C68.3 0 88 19.7 88 44" id="a"/></defs><g fill="none" fill-rule="evenodd"><use fill="#FFEACF" xlink:href="#a" transform="translate(9 9)"/><path d="M51.287 22.704c2.516 2.014 3.662 5.256 3.738 8.386.026.395-.02.784-.028 1.178l-.028.59-.084.58c-.06.385-.109.776-.18 1.16l-.286 1.13-.145.566-.195.547-.394 1.09-.669 1.893a16.025 16.025 0 0 0-.058 7.873c.61 2.651 1.8 5.266 3.303 7.693l.014.025a.367.367 0 0 1-.13.512.393.393 0 0 1-.452-.04c-1.178-1.005-2.13-2.175-2.994-3.434-.839-1.267-1.588-2.622-2.086-4.088-.145-.36-.26-.73-.358-1.106-.099-.375-.222-.747-.3-1.13-.124-.77-.283-1.542-.296-2.332-.154-1.577.094-3.168.441-4.718.23-.743.498-1.548.741-2.23.221-.64.517-1.266.685-1.916.43-1.284.67-2.595.818-3.915.261-2.623-.194-5.386-1.597-7.788l-.034-.057a.365.365 0 0 1 .144-.505.391.391 0 0 1 .43.036M46.601 50.758c-1.279-.767-2.215-1.864-2.959-3.094a9.933 9.933 0 0 1-1.335-4.077c-.106-.711-.097-1.44-.044-2.153.042-.357.076-.713.129-1.066.06-.353.173-.694.26-1.037.15-.695.483-1.332.765-1.969.313-.625.727-1.2 1.127-1.759a.423.423 0 0 1 .578-.1.399.399 0 0 1 .173.391l-.01.06c-.102.661-.289 1.272-.397 1.893-.08.629-.232 1.229-.25 1.845-.15 1.216-.062 2.414.088 3.588.187 1.174.502 2.324.93 3.464.403 1.15.96 2.284 1.524 3.441l.023.049c.1.205.01.448-.2.545a.434.434 0 0 1-.402-.021" fill="#E5916E"/><path d="M56.65 44.194c1.24-.923 2.306-2.124 3.01-3.425.728-1.298 1.108-2.72 1.214-4.16a13.78 13.78 0 0 0-.457-4.36 21.08 21.08 0 0 0-1.57-4.24c-.645-1.374-1.487-2.66-2.373-4.045-.86-1.386-1.8-2.921-2.301-4.636-.546-1.698-.67-3.465-.583-5.149.12-1.69.411-3.328.893-4.91a.388.388 0 0 1 .757.104c.027 3.224.151 6.426 1.334 9.129.595 1.348 1.4 2.6 2.358 3.914.932 1.32 1.894 2.762 2.673 4.314a22.06 22.06 0 0 1 1.677 4.91c.32 1.709.46 3.51.123 5.278a10.71 10.71 0 0 1-2.174 4.868c-1.146 1.38-2.56 2.48-4.255 3.08a.386.386 0 0 1-.49-.221.366.366 0 0 1 .126-.423l.037-.028zM68.423 56.165c0-2.243-3.095-2.99-7.704-3.238-2.303-.125-6.848-.125-6.357-.124-.611.916-.505 1.68-.293 2.175 7.557.003 13.542.1 13.542 2.536 0 .086-.026.163-.041.242v.081c.544-.436.853-.98.853-1.672" fill="#E5916E"/><path d="M37.448 56.87c-.02-.055-.044-.11-.06-.17.016.06.04.115.06.17M37.705 57.36" fill="#ACEDFB"/><path d="M38.623 57.465h.035c.088-2.485 6.53-2.488 14.472-2.488h.938c-.212-.495-.317-1.258.294-2.175H52.87c-8.59 0-15.554 0-15.554 3.363 0 .19.029.367.073.536.015.059.039.113.06.17a1.975 1.975 0 0 0 .257.49c.024.034.045.07.073.104h.844z" fill="#D76230"/><path d="M33.632 69.006v-6.917c0-.602.504-1.092 1.123-1.092h3.868v11.66h-1.235c-2.07 0-3.756-1.637-3.756-3.651m33.979-11.492c0-2.537-6.484-2.537-14.481-2.537-7.942 0-14.384.004-14.472 2.488h-3.903c-2.622 0-4.755 2.075-4.755 4.624v6.917c0 3.961 3.314 7.184 7.388 7.184h1.353c.643 3.86 4.076 6.81 8.228 6.81h12.256c4.609 0 8.345-3.632 8.345-8.114v-17.13c.015-.08.04-.157.04-.242" fill="#D76230"/><path d="M55.011 82.847c-2.194-1.25-3.551-3.528-3.572-6.001l-.17-19.352c-.01-1.1.725-2.077 1.807-2.4l.39-.117h-.336c-7.943 0-14.384.004-14.472 2.488h-.901L35.5 60.998h3.123v11.66h-1.235a3.783 3.783 0 0 1-3.116-1.616 2.91 2.91 0 0 1-.372.613 4.29 4.29 0 0 1-.299-.596 4.117 4.117 0 0 1-.308-1.083c-.062-.384-.044-.71-.046-1.18.017-1.76.013-3.52-.06-5.28l-.026-.66-.013-.324c.003-.081-.01-.165 0-.248.018-.328.116-.66.294-.957.347-.606 1.01-1.052 1.802-1.172l.012-.002a.36.36 0 0 0 .304-.306.356.356 0 0 0-.316-.396c-1.026-.126-2.145.328-2.828 1.179-.347.42-.572.939-.674 1.48-.03.134-.034.272-.05.41l-.015.337-.026.66c-.073 1.76-.076 3.52-.06 5.28-.002.408.02.966.13 1.45.101.496.268.98.499 1.428.134.255.291.495.46.727-.71.227-1.272.239-1.71.149a7.428 7.428 0 0 0 6.418 3.64h1.353C39.384 80.05 42.817 83 46.969 83h8.313l-.27-.153z" fill="#AA391B"/></g></svg>