<svg viewBox="0 0 106 106" xmlns="http://www.w3.org/2000/svg" xmlns:xlink="http://www.w3.org/1999/xlink"><defs><linearGradient x1="50%" y1="0%" x2="50%" y2="100%" id="c"><stop stop-color="#6FCFFF" stop-opacity="0" offset="0%"/><stop stop-color="#63C4FF" offset="74.214%"/><stop stop-color="#3CA1FF" offset="100%"/></linearGradient><linearGradient x1="50%" y1="0%" x2="50%" y2="100%" id="d"><stop stop-color="#00A1E6" stop-opacity="0" offset="0%"/><stop stop-color="#0095E0" offset="79.917%"/><stop stop-color="#0068C9" offset="100%"/></linearGradient><path d="M88 44c0 24.3-19.7 44-44.001 44S0 68.3 0 44 19.698 0 43.999 0C68.3 0 88 19.7 88 44" id="a"/></defs><g transform="translate(9 9)" fill="none" fill-rule="evenodd"><mask id="b" fill="#fff"><use xlink:href="#a"/></mask><use fill="#DFF0FF" xlink:href="#a"/><g fill-rule="nonzero" mask="url(#b)"><g fill="#3CA1FF"><path d="M51.747 47.813a6.303 6.303 0 0 1-2.638-4.055c-.194.115-.4.196-.628.23a6.97 6.97 0 0 0 2.89 4.378A13.548 13.548 0 0 1 57.24 59.55c0 3.756-1.485 7.257-4.191 9.838-2.706 2.58-6.246 3.893-9.98 3.686-6.498-.358-12.425-6.428-12.664-12.994-.183-4.71 2.032-9.1 5.903-11.737a6.843 6.843 0 0 0 2.855-4.355 1.648 1.648 0 0 1-.628-.23 6.153 6.153 0 0 1-2.603 4.032 14.16 14.16 0 0 0-6.19 12.313c.263 7.015 6.36 13.259 13.292 13.639.263.011.526.023.8.023 3.62 0 7.034-1.371 9.683-3.894a14.147 14.147 0 0 0 4.408-10.32 14.299 14.299 0 0 0-6.178-11.738z"/><path d="M41.527 58.606c.183 0 .331-.15.331-.334v-.23c.114.357.274.575.548.575.503 0 .617-.68.765-1.624.035-.184.069-.426.115-.633.045.219.08.46.114.633.16.945.262 1.624.765 1.624.502 0 .616-.68.765-1.624.034-.184.068-.426.114-.645.046.22.08.461.114.645.16.945.263 1.624.765 1.624.183 0 .332-.15.332-.334V44.035h-.663V55.84c-.114-.357-.274-.576-.548-.576-.502 0-.617.68-.765 1.625-.034.184-.069.426-.114.645-.046-.22-.08-.461-.114-.645-.16-.945-.263-1.625-.765-1.625-.503 0-.617.68-.766 1.625-.034.184-.068.426-.114.633-.045-.219-.08-.45-.114-.633-.114-.68-.205-1.221-.434-1.475v-11.38h-.662v14.248a.33.33 0 0 0 .331.323z"/></g><path d="M15.267 113.657V0h-1.495v113.555c-3.255.17-5.847 2.84-5.847 6.125v16.547c0 .977.8 1.773 1.781 1.773h8.782a1.78 1.78 0 0 0 1.781-1.773V119.68c0-2.977-2.158-5.466-5.002-6.023z" fill="url(#c)" transform="translate(29.731 -94)"/><path d="M17.174 114.375a6.191 6.191 0 0 0-3.083-.83c-.114 0-.217.012-.32.012V.012h-1.198v113.727a6.141 6.141 0 0 0-4.648 5.954v16.546c0 .977.8 1.773 1.781 1.773h6.178a1.78 1.78 0 0 1-1.781-1.773v-16.546c-.012-2.272 1.233-4.25 3.071-5.318z" fill="url(#d)" transform="translate(29.731 -94)"/></g></g></svg>