<?xml version="1.0" encoding="UTF-8"?>
<svg width="106px" height="106px" viewBox="0 0 106 106" version="1.1" xmlns="http://www.w3.org/2000/svg" xmlns:xlink="http://www.w3.org/1999/xlink">
    <title>4. Elements_Microillustrations/Idea</title>
    <defs>
        <path d="M88,44 C88,68.3004855 68.3000427,88 43.9990109,88 C19.6979792,88 0,68.3004855 0,44 C0,19.6995145 19.6979792,0 43.9990109,0 C68.3000427,0 88,19.6995145 88,44" id="path-1"></path>
        <linearGradient x1="50%" y1="0%" x2="50%" y2="100%" id="linearGradient-3">
            <stop stop-color="#6FCFFF" stop-opacity="0" offset="0%"></stop>
            <stop stop-color="#63C4FF" offset="74.2141404%"></stop>
            <stop stop-color="#3CA1FF" offset="100%"></stop>
        </linearGradient>
        <linearGradient x1="50%" y1="0%" x2="50%" y2="100%" id="linearGradient-4">
            <stop stop-color="#00A1E6" stop-opacity="0" offset="0%"></stop>
            <stop stop-color="#0095E0" offset="79.9172995%"></stop>
            <stop stop-color="#0065C4" offset="100%"></stop>
        </linearGradient>
    </defs>
    <g id="4.-Elements_Microillustrations/Idea" stroke="none" stroke-width="1" fill="none" fill-rule="evenodd">
        <g id="Vector-Smart-Object" transform="translate(9.000000, 9.000000)">
            <mask id="mask-2" fill="white">
                <use xlink:href="#path-1"></use>
            </mask>
            <use id="Mask" fill="#DFF0FF" xlink:href="#path-1"></use>
            <g id="Group" mask="url(#mask-2)">
                <g transform="translate(29.730958, -94.000000)">
                    <g id="Group" stroke-width="1" fill="none" fill-rule="evenodd">
                        <g transform="translate(0.000000, 137.758104)" fill="#3CA1FF" fill-rule="nonzero" id="Path">
                            <path d="M22.0162572,4.05463266 C20.6116851,3.08704987 19.6753038,1.62415683 19.3784024,0 C19.1842745,0.115188428 18.9787274,0.195820327 18.7503417,0.230376856 C19.1043395,1.98124096 20.1206559,3.57084126 21.6394208,4.60753711 C25.3164305,7.13016368 27.5089332,11.3115036 27.5089332,15.7923335 C27.5089332,19.5474762 26.0244262,23.0492044 23.3180557,25.6294252 C20.6116851,28.209646 17.0717068,29.5227941 13.3376006,29.3154549 C6.84002751,28.9583708 0.913418622,22.8879406 0.673613638,16.3222002 C0.490905079,11.6109935 2.70624636,7.22231443 6.57738395,4.58449943 C8.08472956,3.55932242 9.08962664,1.98124096 9.43220519,0.230376856 C9.20381949,0.195820327 8.98685307,0.115188428 8.80414452,0 C8.51866239,1.62415683 7.59370031,3.08704987 6.20054755,4.03159498 C2.13528211,6.80763609 -0.182832732,11.4151732 0.0112951118,16.3452379 C0.273938665,23.3602132 6.37183682,29.603426 13.3033428,29.9835478 C13.5659863,29.9950666 13.8286299,30.0065855 14.1026927,30.0065855 C17.7226061,30.0065855 21.1369723,28.6358432 23.7862464,26.1132166 C26.6296483,23.3947697 28.1940903,19.7317777 28.1940903,15.7923335 C28.1826711,11.1041644 25.8759755,6.71548534 22.0162572,4.05463266 Z"></path>
                            <path d="M11.7959972,14.8477884 C11.9787057,14.8477884 12.1271564,14.6980434 12.1271564,14.5137419 L12.1271564,14.2833651 C12.2413493,14.6404492 12.4012193,14.8593072 12.6752821,14.8593072 C13.1777306,14.8593072 13.2919235,14.1796955 13.4403742,13.2351504 C13.4746321,13.0508489 13.5088899,12.8089532 13.5545671,12.601614 C13.6002442,12.820472 13.634502,13.0623677 13.6687599,13.2351504 C13.8286299,14.1796955 13.9314035,14.8593072 14.433852,14.8593072 C14.9363005,14.8593072 15.0504934,14.1796955 15.1989441,13.2351504 C15.2332019,13.0508489 15.2674598,12.8089532 15.3131369,12.5900952 C15.3588141,12.8089532 15.3930719,13.0508489 15.4273298,13.2351504 C15.5871998,14.1796955 15.6899733,14.8593072 16.1924219,14.8593072 C16.3751304,14.8593072 16.5235811,14.7095622 16.5235811,14.5252608 L16.5235811,0.276452227 L15.8612626,0.276452227 L15.8612626,12.0832661 C15.7470698,11.726182 15.5871998,11.5073239 15.3131369,11.5073239 C14.8106884,11.5073239 14.6964955,12.1869357 14.5480448,13.1314808 C14.513787,13.3157823 14.4795291,13.557678 14.433852,13.776536 C14.3881749,13.557678 14.353917,13.3157823 14.3196591,13.1314808 C14.1597892,12.1869357 14.0570156,11.5073239 13.5545671,11.5073239 C13.0521185,11.5073239 12.9379257,12.1869357 12.789475,13.1314808 C12.7552171,13.3157823 12.7209593,13.557678 12.6752821,13.7650171 C12.629605,13.5461591 12.5953471,13.3157823 12.5610893,13.1314808 C12.4468964,12.4518691 12.3555421,11.9104834 12.1271564,11.6570689 L12.1271564,0.276452227 L11.4648379,0.276452227 L11.4648379,14.5252608 C11.4648379,14.6980434 11.6132886,14.8477884 11.7959972,14.8477884 Z"></path>
                        </g>
                        <path d="M15.2674598,113.657086 L15.2674598,0 L13.7715335,0 L13.7715335,113.554805 C10.5170373,113.725274 7.92485958,116.395948 7.92485958,119.68031 L7.92485958,136.227127 C7.92485958,137.20448 8.72420952,138 9.70626803,138 L18.4876981,138 C19.4697567,138 20.2691066,137.20448 20.2691066,136.227127 L20.2691066,119.68031 C20.2691066,116.702792 18.1108617,114.21395 15.2674598,113.657086 Z" id="Path" fill="url(#linearGradient-3)" fill-rule="nonzero"></path>
                    </g>
                    <path d="M17.1744804,114.375155 C16.2609376,113.852428 15.2103634,113.54561 14.0912734,113.54561 C13.9770806,113.54561 13.874307,113.556973 13.7715335,113.556973 L13.7715335,0.0115188428 L12.5725085,0.0115188428 L12.5725085,113.738792 C9.90039587,114.409246 7.92485958,116.818337 7.92485958,119.693337 L7.92485958,136.238792 C7.92485958,137.216064 8.72420952,138.011519 9.70626803,138.011519 L15.8841012,138.011519 C14.9020427,138.011519 14.1026927,137.216064 14.1026927,136.238792 L14.1026927,119.693337 C14.0912734,117.42061 15.3359755,115.443337 17.1744804,114.375155 Z" id="Path" fill="url(#linearGradient-4)" fill-rule="nonzero"></path>
                </g>
            </g>
        </g>
    </g>
</svg>