<?xml version="1.0" encoding="UTF-8"?>
<svg width="106px" height="106px" viewBox="0 0 106 106" version="1.1" xmlns="http://www.w3.org/2000/svg" xmlns:xlink="http://www.w3.org/1999/xlink">
    <title>4. Elements_Microillustrations/Ideation</title>
    <defs>
        <path d="M88,44 C88,68.3004855 68.3000427,88 43.9990109,88 C19.6979792,88 0,68.3004855 0,44 C0,19.6995145 19.6979792,0 43.9990109,0 C68.3000427,0 88,19.6995145 88,44" id="path-1"></path>
    </defs>
    <g id="4.-Elements_Microillustrations/Ideation" stroke="none" stroke-width="1" fill="none" fill-rule="evenodd">
        <g id="Vector-Smart-Object" transform="translate(9.000000, 9.000000)">
            <mask id="mask-2" fill="white">
                <use xlink:href="#path-1"></use>
            </mask>
            <use id="Mask" fill="#FFEACF" xlink:href="#path-1"></use>
        </g>
        <g id="Group-87" transform="translate(30.000000, 9.000000)">
            <path d="M21.2865592,13.7036839 C23.8032862,15.7184288 24.9486032,18.9599937 25.0253428,22.0900294 C25.0509226,22.4847943 25.0047139,22.8739425 24.9972875,23.267905 L24.9692322,23.8576451 L24.8850662,24.4377569 C24.8248298,24.8228933 24.7761456,25.2144486 24.704357,25.597178 L24.4188528,26.7285162 L24.2736253,27.2941853 L24.0788884,27.8405976 L23.6852888,28.9318175 L23.016087,30.8238001 C22.351011,33.3552697 22.3147041,36.0456081 22.9583261,38.6974328 C23.5689418,41.3484552 24.7588173,43.963371 26.2614271,46.3897305 L26.2754547,46.4146039 C26.3852005,46.5903224 26.3266144,46.8197995 26.14508,46.9265144 C25.997377,47.0131701 25.8158426,46.9915061 25.6928943,46.8871984 C24.514571,45.8818318 23.5623405,44.7119799 22.6992269,43.4530653 C21.8600429,42.1861269 21.1108009,40.8309281 20.6132316,39.3650026 C20.4680041,39.005542 20.3533073,38.6356505 20.2551137,38.2593402 C20.156095,37.8838322 20.0331467,37.512336 19.9547568,37.1296067 C19.8309834,36.3585315 19.6717282,35.5874562 19.6585257,34.7971242 C19.5050466,33.2196696 19.7534187,31.6285748 20.0999843,30.0792031 C20.3293778,29.3362107 20.5983788,28.5306337 20.8409748,27.8494237 C21.0621167,27.2091344 21.3583478,26.5832877 21.5258546,25.93337 C21.955761,24.6487795 22.1950564,23.337711 22.3435845,22.0178164 C22.6051591,19.3948769 22.150498,16.6323254 20.7469069,14.230037 L20.7130755,14.1730689 C20.6091058,13.9949433 20.673468,13.7686756 20.8566527,13.6675773 C20.9969293,13.5897477 21.1677367,13.6098069 21.2865592,13.7036839" id="Fill-69" fill="#E5916E"></path>
            <path d="M16.6011562,41.7575022 C15.3221638,40.9912412 14.3864365,39.8936024 13.6421455,38.6635729 C12.916833,37.4271245 12.4407178,36.0245861 12.3070424,34.5867434 C12.2005973,33.8758458 12.209674,33.1464937 12.2633091,32.4339913 C12.3053921,32.0769378 12.3392235,31.7206866 12.3920335,31.3676449 C12.4522699,31.0154055 12.5653164,30.6743993 12.6511326,30.330986 C12.8021363,29.6361357 13.1346743,28.9990559 13.4168778,28.361976 C13.729612,27.7369317 14.1438405,27.1624366 14.5440414,26.6031864 C14.6752412,26.4202466 14.9335152,26.375314 15.1216508,26.5020881 C15.2561513,26.593558 15.3180381,26.7468102 15.2949337,26.8944458 L15.285857,26.9546234 C15.1827124,27.6149719 14.9962271,28.2255736 14.8881316,28.8474084 C14.8072663,29.4756622 14.6562626,30.0758331 14.6372841,30.6920514 C14.4879307,31.9076382 14.5762225,33.105573 14.7264009,34.280239 C14.9128863,35.4541028 15.228096,36.6038954 15.6563522,37.7440597 C16.0590285,38.89305 16.6168342,40.0275978 17.1795909,41.1854141 L17.2026952,41.2335562 C17.3025392,41.4389623 17.2125971,41.6820796 17.0021822,41.7791661 C16.8693321,41.8409484 16.7183284,41.8265058 16.6011562,41.7575022" id="Fill-71" fill="#E5916E"></path>
            <path d="M26.6493331,35.1943764 C27.8903683,34.2708513 28.9556452,33.0697071 29.6595036,31.7690693 C30.3881166,30.4708387 30.7676886,29.0490434 30.8741338,27.6087936 C30.9549991,26.1653344 30.8064709,24.6937923 30.4169971,23.2495308 C30.0473271,21.8036645 29.5266534,20.3577981 28.8467245,19.0082159 C28.2022774,17.6345627 27.3597927,16.3491699 26.4735748,14.9642835 C25.6137618,13.5777924 24.6739087,12.0428633 24.1730388,10.3282039 C23.6267852,8.63039414 23.5030118,6.86277844 23.5896532,5.17941134 C23.710126,3.48962529 24.0014062,1.85119077 24.4832976,0.26972434 C24.543534,0.0707371893 24.7580746,-0.0431990018 24.9635386,0.0153738288 C25.1302202,0.0635158814 25.2383157,0.211953877 25.239966,0.373229753 C25.2671961,3.59714254 25.3909696,6.79939141 26.5742438,9.50176529 C27.1691816,10.8497428 27.9745342,12.1022385 28.9317156,13.4157142 C29.8641423,14.7356088 30.8262747,16.1782656 31.6052223,17.7300444 C32.3503385,19.3034872 32.9221719,20.9322933 33.2819401,22.6405338 C33.6021008,24.3487743 33.7415522,26.1492871 33.4048884,27.9177051 C33.1053566,29.6845185 32.3486882,31.3903519 31.2306013,32.785669 C30.0852842,34.1657412 28.6709662,35.2665895 26.976095,35.8667604 C26.7772323,35.9365664 26.5577407,35.8370728 26.4859521,35.6445046 C26.4265408,35.4880429 26.4834766,35.317941 26.612201,35.2216569 L26.6493331,35.1943764 Z" id="Fill-73" fill="#E5916E"></path>
            <path d="M38.4230769,47.1648978 C38.4230769,44.9222805 35.3279153,44.1752763 30.7194169,43.9265424 C28.4155803,43.8021754 23.8706189,43.8021754 24.361587,43.8029778 C23.7509713,44.7192815 23.8565913,45.482333 24.0686565,45.9781962 C31.6262638,45.9806033 37.611123,46.0776897 37.611123,48.51448 C37.611123,48.5995309 37.584718,48.6765582 37.5698652,48.7559926 L37.5698652,48.8370317 C38.1136433,48.4005438 38.4230769,47.8565386 38.4230769,47.1648978" id="Fill-75" fill="#E5916E"></path>
            <path d="M7.44827409,47.870901 C7.42764518,47.8147352 7.40371565,47.7593719 7.38886283,47.700799 C7.40371565,47.7593719 7.42847034,47.8147352 7.44827409,47.870901" id="Fill-77" fill="#ACEDFB"></path>
            <path d="M7.70531031,48.3605859 C7.66157702,48.3004083 7.62279467,48.2378236 7.58566263,48.1736342 C7.62196951,48.2378236 7.66157702,48.3004083 7.70531031,48.3605859" id="Fill-79" fill="#ACEDFB"></path>
            <path d="M8.62321427,48.4648134 L8.62321427,48.4648134 L8.65787084,48.4648134 C8.74616257,45.9798811 15.1881585,45.9766717 23.1302886,45.9766717 C23.4471487,45.9766717 23.7565823,45.9766717 24.0684914,45.977474 C23.8564263,45.4824133 23.7508062,44.7193617 24.3622471,43.8022556 C23.8704539,43.8014533 23.3728846,43.8014533 22.8695392,43.8014533 C14.2796613,43.8014533 7.31616656,43.8014533 7.31616656,47.164978 C7.31616656,47.3551391 7.34504703,47.53166 7.38878032,47.7009595 C7.40363313,47.7595323 7.42756267,47.8140933 7.44819158,47.8710614 C7.48697393,47.9761716 7.53070722,48.0772699 7.58599269,48.173554 C7.62312473,48.2377434 7.66108192,48.3003281 7.70564037,48.3605056 C7.73039506,48.3950074 7.75102397,48.4319163 7.77907929,48.4648134 L8.62321427,48.4648134 Z" id="Fill-81" fill="#D95B26"></path>
            <path d="M3.6323384,60.0059077 L3.6323384,53.0894995 C3.6323384,52.4869214 4.13568379,51.9974772 4.75455108,51.9974772 L8.6228842,51.9974772 L8.6228842,63.6574824 L7.3876251,63.6574824 C5.31730773,63.6574824 3.6323384,62.0198502 3.6323384,60.0059077 M37.6106279,48.5143997 C37.6106279,45.9773136 31.1273742,45.9773136 23.1299586,45.9773136 C15.1878284,45.9773136 8.74583251,45.980523 8.65754077,48.4646529 L8.6228842,48.4646529 L4.75455108,48.4646529 C2.13302925,48.4646529 0,50.5395754 0,53.0894995 L0,60.0059077 C0,63.9671962 3.31382804,67.1895043 7.3876251,67.1895043 L8.74088157,67.1895043 C9.38367839,71.0504969 12.8171541,74 16.9685159,74 L29.2245636,74 C33.8338872,74 37.5701953,70.3676821 37.5701953,65.885657 L37.5701953,48.7559124 C37.5850481,48.676478 37.6106279,48.5994507 37.6106279,48.5143997" id="Fill-83" fill="#D95B26"></path>
            <path d="M25.0114802,73.8467478 C22.8173893,72.5966592 21.4600071,70.3187377 21.438553,67.8458409 L21.2685708,48.4943405 C21.2586689,47.3934923 21.9938833,46.417011 23.0764884,46.0936569 L23.4651371,45.9773136 L23.1301236,45.9773136 C15.1871683,45.9773136 8.74599754,45.980523 8.6577058,48.4646529 L8.62304924,48.4646529 L7.75663503,48.4654553 L5.49983233,51.9982796 L8.62304924,51.9982796 L8.62304924,63.6582847 L7.38779013,63.6582847 C6.09146945,63.6582847 4.94697755,63.0155883 4.27199963,62.0415141 C4.16637961,62.2701889 4.04343131,62.4771997 3.8998541,62.6545229 C3.78598252,62.4627571 3.68283797,62.2637699 3.60114749,62.0591662 C3.4476684,61.7117411 3.34534901,61.3466638 3.292539,60.97597 C3.23065227,60.5924384 3.24880571,60.2658748 3.2471554,59.7964898 C3.26365853,58.0360954 3.2603579,56.2765033 3.18691898,54.516109 L3.16133914,53.8565628 L3.14813663,53.5324063 C3.1506121,53.4505649 3.1374096,53.3671186 3.14731148,53.2844748 C3.16629007,52.9555041 3.26448368,52.6249287 3.44189231,52.3272503 C3.78928314,51.7214628 4.45270888,51.2753464 5.24403385,51.1549913 L5.25558604,51.1533866 C5.41154059,51.1293156 5.53943983,51.0073557 5.56006874,50.8468822 C5.58564859,50.6527092 5.44372169,50.4745836 5.24403385,50.4505126 C4.21836446,50.3253433 3.09945241,50.7794833 2.41622292,51.6299929 C2.06883208,52.0496311 1.84438955,52.5687629 1.74207016,53.1095586 C1.71153937,53.2443564 1.70823874,53.3823636 1.69256077,53.5203708 L1.6768828,53.8565628 L1.65130295,54.516109 C1.57786404,56.2765033 1.57456341,58.0360954 1.59189169,59.7964898 C1.58859107,60.2048948 1.61169545,60.7633426 1.72061609,61.2471703 C1.82211033,61.7430334 1.98879191,62.2260587 2.2198357,62.6753845 C2.35433619,62.929735 2.51111591,63.1696429 2.68027296,63.4015271 C1.96981332,63.6293995 1.40788182,63.6406327 0.969723782,63.5507675 C2.24294008,65.7203693 4.64001937,67.1903067 7.38779013,67.1903067 L8.7410466,67.1903067 C9.38384342,71.0504969 12.8173191,74 16.9686809,74 L25.2821315,74 L25.0114802,73.8467478 Z" id="Fill-85" fill="#AA391B"></path>
        </g>
    </g>
</svg>