<?xml version="1.0" encoding="UTF-8"?>
<svg width="106px" height="106px" viewBox="0 0 106 106" version="1.1" xmlns="http://www.w3.org/2000/svg" xmlns:xlink="http://www.w3.org/1999/xlink">
    <title>4. Elements_Microillustrations/Info</title>
    <g id="4.-Elements_Microillustrations/Info" stroke="none" stroke-width="1" fill="none" fill-rule="evenodd">
        <path d="M52.9990559,11 C76.1954953,11 95,29.804082 95,53 C95,76.195918 76.1954953,95 52.9990559,95 C29.8026165,95 11,76.195918 11,53 C11,29.804082 29.8026165,11 52.9990559,11 Z M52.9991683,16 C32.5642098,16 16,32.5655008 16,53 C16,73.4344992 32.5642098,90 52.9991683,90 C73.4341268,90 90,73.4344992 90,53 C90,32.5655008 73.4341268,16 52.9991683,16 Z" id="Combined-Shape" fill="#004EBD"></path>
        <circle id="Oval" fill="#DFF0FF" cx="53" cy="53" r="33"></circle>
        <path d="M53.3631436,41.596206 C54.1436314,41.596206 54.736224,41.3794038 55.1409214,40.9457995 C55.5456188,40.5121951 55.7479675,39.9701897 55.7479675,39.3197832 C55.7479675,38.6693767 55.5456188,38.1201445 55.1409214,37.6720867 C54.736224,37.2240289 54.1436314,37 53.3631436,37 C52.5826558,37 51.9936766,37.2240289 51.596206,37.6720867 C51.1987353,38.1201445 51,38.6693767 51,39.3197832 C51,39.9701897 51.1987353,40.5121951 51.596206,40.9457995 C51.9936766,41.3794038 52.5826558,41.596206 53.3631436,41.596206 Z M55.3360434,69 L55.3360434,45.5420054 L51.3252033,45.5420054 L51.3252033,69 L55.3360434,69 Z" id="i" fill="#000000" fill-rule="nonzero"></path>
    </g>
</svg>