<?xml version="1.0" encoding="UTF-8"?>
<svg version="1.1" viewBox="0 0 106 106" xmlns="http://www.w3.org/2000/svg">
<title>4. Elements_Microillustrations/Info</title>
<g fill-rule="evenodd">
<path d="m52.999 11c23.196 0 42.001 18.804 42.001 42s-18.805 42-42.001 42-41.999-18.804-41.999-42 18.803-42 41.999-42zm1.124e-4 5c-20.435 0-36.999 16.566-36.999 37s16.564 37 36.999 37 37.001-16.566 37.001-37-16.566-37-37.001-37z" fill="#0059C4"/>
<circle cx="53" cy="53" r="33" fill="#DFF0FF"/>
<path d="m53.363 41.596c0.78049 0 1.3731-0.2168 1.7778-0.65041 0.4047-0.4336 0.60705-0.97561 0.60705-1.626s-0.20235-1.1996-0.60705-1.6477-0.99729-0.67209-1.7778-0.67209-1.3695 0.22403-1.7669 0.67209c-0.39747 0.44806-0.59621 0.99729-0.59621 1.6477s0.19874 1.1924 0.59621 1.626c0.39747 0.4336 0.98645 0.65041 1.7669 0.65041zm1.9729 27.404v-23.458h-4.0108v23.458h4.0108z" fill-rule="nonzero"/>
</g>
</svg>
