<?xml version="1.0" encoding="UTF-8"?>
<svg version="1.1" viewBox="0 0 106 106" xmlns="http://www.w3.org/2000/svg" xmlns:xlink="http://www.w3.org/1999/xlink">
<title>4. Elements_Microillustrations/Leaf</title>
<defs>
<path id="a" d="m88 44c0 24.3-19.7 44-44.001 44-24.301 0-43.999-19.7-43.999-44s19.698-44 43.999-44c24.301 0 44.001 19.7 44.001 44"/>
<polygon id="b" points="0 0.0025193 42.668 0.0025193 42.668 65.869 0 65.869"/>
</defs>
<g fill="none" fill-rule="evenodd">
<g transform="translate(9 9)">
<mask fill="white">
<use xlink:href="#a"/>
</mask>
<use fill="#D5F8FF" xlink:href="#a"/>
</g>
<g transform="translate(32 20)">
<g transform="translate(0 .12872)">
<mask id="c" fill="white">
<use xlink:href="#b"/>
</mask>
<path d="m35.124 34.259-0.4435 0.090143c-2.2376 0.45505-3.7835-2.1798-2.2948-3.9111l2.5517-2.9675c1.6639-1.9349 2.0381-4.6657 0.95628-6.9767l-0.088962-0.19013c-0.85656-1.8302-2.7131-2.9818-4.7334-2.9363l-1.2381 0.027948c-1.3912 0.03136-2.146-1.6159-1.2137-2.6491l1.7526-1.9425c0.8088-0.89631 0.96901-2.2035 0.40046-3.2685-0.65357-1.2242-2.0903-1.8042-3.4105-1.3764l-1.4512 0.47c-1.1272 0.36517-2.2424-0.58928-2.0557-1.7593l0.53968-3.381c0.16953-1.0623-0.27004-2.1298-1.1385-2.7647l-0.23198-0.16953c-1.0069-0.7361-2.3744-0.7361-3.3814 0l-0.23198 0.16953c-0.86837 0.63481-1.3082 1.7024-1.1385 2.7647l0.53968 3.381c0.18672 1.17-0.92846 2.1245-2.0556 1.7593l-1.4512-0.47c-1.3203-0.42775-2.7572 0.15221-3.4105 1.3764-0.56854 1.0651-0.40833 2.3722 0.40033 3.2685l1.7526 1.9425c0.93227 1.0332 0.17766 2.6804-1.2137 2.6491l-1.2383-0.027948c-2.0202-0.045531-3.8765 1.1061-4.7334 2.9363l-0.088831 0.19013c-1.0818 2.311-0.7075 5.0418 0.95628 6.9767l2.5518 2.9675c1.4887 1.7312-0.057471 4.3661-2.2948 3.9111l-0.44363-0.090143c-3.0748-0.62549-6.1274 1.1645-7.0831 4.1531-1.0093 3.157-0.33643 6.6106 1.7844 9.1576l1.2041 1.4461c2.4911 2.9919 5.5859 5.4239 9.0819 7.1371l1.6406 0.80407c1.9654 0.9631 3.4521 2.6874 4.1155 4.773l0.792 2.4896c0.31242 0.98213 1.2245 1.6491 2.255 1.6491 1.0307 0 1.9427-0.66695 2.2552-1.6491l0.79187-2.4896c0.66354-2.0856 2.1502-3.8099 4.1155-4.773l1.6406-0.80407c3.496-1.7131 6.5908-4.1451 9.0819-7.1371l1.2043-1.4461c2.1207-2.547 2.7937-6.0006 1.7841-9.1576-0.95562-2.9886-4.008-4.7786-7.083-4.1531" fill="#3CA1FF" mask="url(#c)"/>
</g>
<path d="m21.538 63.95c-0.0048549 0.17504-0.0094473 0.34994-0.014433 0.52498 0.017189-0.010891 0.033197-0.024012 0.045531-0.040938 0.6827-0.92794 1.577-1.451 2.5741-1.8281l0.12557-0.39482c-1.0332 0.36215-1.9762 0.85459-2.7308 1.7388" fill="#0064D7"/>
<path d="m40.619 43.802c-1.3514-0.38078-2.7488-0.77455-5.3421 0.42211-1.3843 0.63874-2.3654 2.1024-3.4041 3.652-0.89159 1.3301-1.8136 2.7055-3.0146 3.5298-1.1001 0.75487-2.3366 1.0266-3.5328 1.2893-1.3351 0.29339-2.6065 0.57445-3.5742 1.4899-0.0026242 0.16034-0.0057733 0.32082-0.0083976 0.48116 0.92728-1.0501 2.2538-1.3431 3.6528-1.6505 1.2268-0.26964 2.4954-0.54834 3.6481-1.3394 1.253-0.85984 2.1927-2.2618 3.1015-3.6177 1.0124-1.5101 1.9686-2.9365 3.2692-3.5368 2.4832-1.1456 3.762-0.78544 5.1156-0.40414 0.52406 0.14761 1.0565 0.29707 1.6652 0.36595 0.034378-0.10668 0.066787-0.21414 0.097754-0.322-0.61473-0.062588-1.149-0.21178-1.674-0.35965" fill="#0064D7"/>
<path d="m30.432 39.284c-0.7113 1.2758-1.4469 2.5947-2.4908 3.3378-0.97649 0.69503-2.1098 0.8681-3.2057 1.0353-1.056 0.16126-2.0665 0.31583-2.8649 0.91652l-0.003674 0.43313c0.76471-0.69464 1.8147-0.85695 2.918-1.0253 1.1338-0.17307 2.3063-0.35204 3.3466-1.0922 1.104-0.7861 1.8578-2.138 2.587-3.4455 0.78098-1.4006 1.5185-2.7235 2.609-3.2652 2.1048-1.0456 3.2595-0.67745 4.482-0.28801 0.87939 0.28014 1.7833 0.56828 3.0524 0.3464-0.092636-0.099853-0.1875-0.19748-0.28618-0.29064-1.0797 0.13633-1.8837-0.11875-2.6669-0.36831-1.2306-0.39246-2.5035-0.7979-4.7272 0.30691-1.1816 0.58691-1.9433 1.953-2.7497 3.3992" fill="#0064D7"/>
<path d="m29.273 30.831c0.55267-1.2902 1.0749-2.5089 1.961-2.9924 1.6442-0.89723 2.6635-0.60712 3.7036-0.23881l5.249e-4 -5.248e-4c0.075841-0.088175 0.14801-0.17832 0.21834-0.2699-1.1015-0.39324-2.2508-0.77639-4.0795 0.22122-0.98593 0.5381-1.5297 1.8073-2.1054 3.1513-0.52 1.2138-1.0577 2.469-1.9372 3.1261-0.84199 0.62916-1.8653 0.69792-2.8548 0.76445-0.8189 0.055109-1.6058 0.10838-2.2481 0.46751-3.936e-4 0.1299-0.0011809 0.2598-0.0017057 0.38944 0.59938-0.41542 1.3884-0.47027 2.2718-0.52971 1.0371-0.069674 2.1094-0.14184 3.0292-0.829 0.94998-0.70973 1.5053-2.006 2.0423-3.2597" fill="#0064D7"/>
<path d="m28.956 19.227c-0.79712 0.49231-1.1213 1.6643-1.4645 2.9049-0.31544 1.1409-0.64189 2.3208-1.3498 2.8867-0.69661 0.55713-1.6049 0.51816-2.4825 0.48103-0.59662-0.025718-1.2055-0.051042-1.719 0.13069v0.35086c0.45898-0.20614 1.0505-0.18173 1.7048-0.15391 0.89474 0.038183 1.9088 0.081089 2.7017-0.55241 0.79082-0.63231 1.1314-1.8641 1.4611-3.0556 0.32541-1.1768 0.63297-2.2885 1.3205-2.7132 1.3616-0.84107 2.2958-0.47381 3.2848-0.085026 0.86351 0.33932 1.7556 0.6886 2.92 0.2106-0.066394-0.09303-0.13567-0.1833-0.20758-0.27109-1.0029 0.37789-1.777 0.075841-2.5925-0.24484-1.0206-0.40112-2.0759-0.81575-3.577 0.11127" fill="#0064D7"/>
<path d="m21.86 16.264c0.0019682 0.11035 0.0028867 0.2207 0.0047237 0.33105 0.33997-0.069936 0.77625 0.0095785 1.2545 0.097491 0.80263 0.14735 1.7123 0.31439 2.3723-0.26925 0.6268-0.5549 0.73072-1.7071 0.83136-2.8213 0.09093-1.0094 0.18514-2.0535 0.68034-2.4172 0.99722-0.73243 1.8452-0.38419 2.7429-0.015352 0.42552 0.17478 0.85839 0.35244 1.3077 0.40978 0.021781-0.10799 0.035559-0.21742 0.044612-0.32738-0.4082-0.050123-0.81194-0.21506-1.2276-0.3859-0.89815-0.36871-1.9162-0.78688-3.0617 0.054322-0.61447 0.45163-0.71091 1.5205-0.81299 2.6522-0.094736 1.0505-0.19262 2.1367-0.72206 2.6051-0.54007 0.47801-1.3306 0.33289-2.0956 0.19236-0.45557-0.083714-0.91993-0.16848-1.3184-0.10589" fill="#0064D7"/>
<path d="m22.627 7.4965c0.42001 0.14945 0.87283 0.31045 1.2806 0.31045 0.0091849 0 0.018107-7.8728e-4 0.027424-0.0010497-0.039495-0.10471-0.067575-0.21506-0.083845-0.32934-0.33512-0.012728-0.72836-0.15194-1.1143-0.28906-0.37907-0.13476-0.76523-0.27135-1.0884-0.26781 0.0034115 0.1093 0.0069542 0.21834 0.010366 0.32738 0.25363-0.0041988 0.60397 0.11993 0.96809 0.24944" fill="#0064D7"/>
<path d="m15.735 43.484c-0.39036-0.14551-0.77179-0.33525-1.1367-0.59492-1.1043-0.78596-1.8582-2.1381-2.5874-3.4456-0.78111-1.4007-1.5189-2.7236-2.6097-3.2655-2.1045-1.0452-3.2591-0.67758-4.4814-0.28788-0.89133 0.28408-1.8085 0.57511-3.1041 0.33643-0.60017 0.64465-1.0707 1.426-1.3548 2.3145-0.59374 1.8568-0.60476 3.8159-0.082139 5.6332 0.6705-0.053404 1.2425-0.21401 1.8043-0.37225 1.3514-0.38104 2.7488-0.77468 5.3421 0.42211 1.3843 0.63874 2.3654 2.1024 3.4041 3.6522 0.89172 1.33 1.8136 2.7055 3.0147 3.5298 1.1 0.75487 2.3368 1.0266 3.5328 1.2893 0.42264 0.092899 0.83845 0.18501 1.2407 0.29575-1.6799-2.0393-3.1973-3.8136-3.2798-7.3643-0.019813-0.85498 0.094211-1.5403 0.29733-2.1427" fill="#0064D7"/>
<path d="m18.456 34.92c-1.0371-0.069674-2.1094-0.14184-3.0292-0.829-0.94998-0.70986-1.5054-2.0061-2.0425-3.2598-0.5528-1.2902-1.0752-2.5089-1.9614-2.9926-1.6394-0.89435-2.6576-0.6087-3.6947-0.24183 7.8727e-4 7.873e-4 0.0014433 0.0017058 0.0022306 0.0026243l2.5518 2.9675c1.4887 1.7314-0.05734 4.3664-2.2948 3.9112l-0.44363-0.090274c-2.0204-0.41083-4.031 0.22096-5.4435 1.5505 1.1063 0.15155 1.9241-0.10707 2.7196-0.3607 1.2309-0.39233 2.5035-0.79804 4.7272 0.30678 1.1817 0.58691 1.9434 1.953 2.75 3.3993 0.71157 1.2757 1.4473 2.595 2.4912 3.3381 0.33735 0.24012 0.69372 0.41699 1.0606 0.55372 0.87506-2.1629 2.9032-3.3626 3.7497-8.1421-0.35546-0.059702-0.73912-0.086207-1.1427-0.11337" fill="#0064D7"/>
<path d="m18.131 25.844c-0.66144-0.012334-1.3327-0.1215-1.8934-0.56946-0.79082-0.63231-1.1317-1.8643-1.4612-3.0557-0.32554-1.177-0.6331-2.2885-1.3207-2.7133-1.3616-0.84107-2.2958-0.47381-3.2846-0.085026-0.8475 0.33315-1.7223 0.67548-2.8548 0.23697-0.1711 0.24248-0.32475 0.50005-0.45347 0.77507l-0.088962 0.18986c-1.0319 2.2048-0.73794 4.7906 0.73558 6.7039 1.0988-0.39259 2.2468-0.77087 4.0703 0.22411 0.98593 0.53797 1.5298 1.8075 2.1057 3.1513 0.52013 1.2138 1.0578 2.4692 1.9374 3.1264 0.84212 0.62916 1.8653 0.69792 2.8548 0.76445 0.40414 0.027161 0.80027 0.05406 1.1754 0.11717 0.0060358-0.037264 0.012203-0.07361 0.018107-0.1114 0.61447-3.9651-0.4452-6.576-1.5402-8.7544" fill="#0064D7"/>
<path d="m17.449 16.691c-0.15116-0.062982-0.29549-0.14919-0.42907-0.26741-0.62707-0.55516-0.73112-1.7073-0.83176-2.8217-0.091324-1.0094-0.1854-2.0533-0.68086-2.4173-0.99695-0.73269-1.845-0.38393-2.7425-0.01509-0.37697 0.15496-0.75985 0.31189-1.1549 0.3855 0.096573 0.50215 0.32698 0.98029 0.68559 1.3777l1.7526 1.9425c0.93227 1.0332 0.17766 2.6804-1.2137 2.6491l-1.2381-0.027948c-1.5992-0.036084-3.0937 0.68008-4.073 1.8872 0.9715 0.34102 1.7299 0.045268 2.5277-0.26807 1.0206-0.40138 2.0757-0.81627 3.5771 0.11114 0.79712 0.49244 1.1213 1.6643 1.4645 2.9049 0.31557 1.141 0.64202 2.3209 1.3499 2.8869 0.44192 0.35322 0.96901 0.46646 1.5193 0.4927-0.86837-1.6954-1.7059-3.1482-1.6933-4.8187 0.010759-1.4241 0.52577-2.7288 1.1805-4.0015" fill="#0064D7"/>
<path d="m19.011 1.209c-0.59794 0.63874-0.87939 1.5251-0.73833 2.4084l0.53955 3.381c0.02493 0.15536 0.026243 0.30678 0.008004 0.45203 0.27791-0.049074 0.5818-0.15654 0.88136-0.26295 0.021519-0.0076103 0.043038-0.015352 0.064557-0.022962-0.29995-0.97176-0.6747-1.9362-0.89697-2.925-0.24392-1.0863-0.21886-2.1255 0.14184-3.0305" fill="#0064D7"/>
<path d="m19.861 7.4792c-0.01627 0.0057734-0.03241 0.011547-0.048811 0.01732-0.35047 0.12465-0.72351 0.25665-1.0745 0.29707-0.2787 0.7592-1.1258 1.241-1.9803 0.96415l-1.4512-0.47c-1.3201-0.42775-2.7572 0.15221-3.4105 1.3764-0.26216 0.49113-0.36753 1.0336-0.32764 1.5635 0.35572-0.067837 0.70973-0.2127 1.0728-0.36162 0.89789-0.36897 1.9158-0.78715 3.0613 0.05406 0.61447 0.4515 0.71104 1.5206 0.81326 2.6523 0.094867 1.0505 0.19301 2.1368 0.72246 2.6054 0.1114 0.098803 0.23421 0.16966 0.36464 0.22083 1.1166-2.1008 2.5411-4.1322 2.6235-6.4894 0.028867-0.82913-0.13502-1.6332-0.36503-2.4301" fill="#0064D7"/>
<path d="m21.686 57.86c-0.031622 1.5869-0.069149 3.1736-0.11074 4.7603 0.36057-1.6193 0.59741-3.0722 0.11074-4.7603" fill="#0064D7"/>
<path d="m18.498 62.521 0.58127 1.827c0.23828 0.74949 0.82651 1.3142 1.5494 1.5404 0.29274-0.36254 0.41804-0.84357 0.5116-1.3061 0.019157-0.095523 0.03897-0.18947 0.058783-0.28329-0.72259-0.91153-1.6614-1.4121-2.701-1.7781" fill="#0064D7"/>
<path d="m21.235 45.065-0.01194-4.1146c0.0048548-2.743-0.0020994-5.486 0.012596-8.229l0.080433-16.457 0.028211-7.9309-5.248e-4 -0.2972c-0.0011809-0.21611-9.185e-4 -0.43208-0.0015746-0.64819 0.0020994-0.002493 0.0047237-0.0045924 0.0065607-0.0070855 9.185e-4 -0.13528 0.0015745-0.27043 0.0022306-0.40571-0.0034115 0.0014433-0.0065607 0.0030179-0.0097098 0.0045924-0.0052485-2.2824 0.0070855-4.5648 0.017845-6.8476-0.0051173-1.3121e-4 -0.010366-7.8728e-4 -0.015483-7.8728e-4 -0.12531 2.2746-0.22332 4.5503-0.30192 6.8269-0.34483-0.11271-0.81221 0.041988-1.2749 0.206 0.03241 0.10484 0.063769 0.20968 0.09408 0.31478 0.48955-0.17386 0.94736-0.32803 1.1683-0.15929-0.099984 2.9797-0.16782 5.9606-0.21598 8.9411-2.624e-4 0.012859-3.936e-4 0.025849-6.56e-4 0.038576-0.43103-0.12072-0.96061-0.024668-1.4792 0.070592-0.60686 0.11127-1.2296 0.22464-1.731 0.028342-0.051698 0.09736-0.10274 0.19485-0.15299 0.29247 0.59531 0.24799 1.3029 0.11914 1.9431 0.001837 0.55726-0.10235 1.0578-0.19393 1.4147-0.049992-0.045006 2.6164-0.061145 5.233-0.079777 7.8498-0.0015745 0.3897-0.0019682 0.77927-0.0028866 1.169-0.52957-0.21506-1.1709-0.18895-1.7993-0.16231-0.32095 0.013384-0.6457 0.02703-0.96297 0.011809 0.05629 0.10982 0.11271 0.22083 0.16913 0.33302 0.27384 0.0051173 0.54611-0.0060358 0.80801-0.017189 0.6928-0.02926 1.3153-0.054978 1.7844 0.19288-0.0035428 2.2351 0.0039364 4.47 0.013384 6.7047 0.001837 0.7836 0.0077415 1.5671 0.014696 2.3505-0.33184-0.19118-0.7033-0.29851-1.0985-0.36516-0.017582 0.10969-0.03569 0.21729-0.054584 0.32344 0.43445 0.072954 0.82546 0.19761 1.1572 0.43615 0.00433 0.45688 0.00866 0.91363 0.013384 1.3705l0.046056 4.1154c0.018763 1.21 0.038445 2.4203 0.059177 3.6307-0.80092-0.6108-1.8174-0.76681-2.8804-0.92899-0.71721-0.10943-1.4503-0.22254-2.1451-0.48155-0.040545 0.10051-0.078728 0.20338-0.11402 0.30848 0.72167 0.26912 1.4737 0.38498 2.2096 0.4973 1.1123 0.16966 2.1708 0.33276 2.9369 1.0422 0.024274 1.3872 0.051042 2.7741 0.082533 4.1611 0.037002 1.679 0.078072 3.358 0.12373 5.0369-0.6684-0.64872-1.4852-0.98685-2.3704-1.2305 0.124 0.1505 0.24878 0.30258 0.37383 0.45675 0.76838 0.25652 1.4618 0.623 2.0099 1.2658 0.016533 0.59466 0.033853 1.1896 0.051698 1.7841-0.29838-0.60791-0.6911-1.2524-1.2044-1.9496-0.28368-0.38524-0.5713-0.74857-0.85721-1.1003-0.53351-0.17832-1.1027-0.30415-1.685-0.43195-1.2266-0.26964-2.4951-0.54834-3.648-1.3394-1.2528-0.85971-2.1926-2.2618-3.1015-3.6177-1.0123-1.5101-1.9685-2.9367-3.2692-3.537-2.4832-1.1459-3.762-0.7857-5.1157-0.40414-0.5608 0.15798-1.1318 0.31727-1.795 0.37855 0.3754 1.1534 0.96887 2.2423 1.7682 3.2022l1.2041 1.4462c2.4911 2.9918 5.586 5.4239 9.0819 7.1371l1.6407 0.80407c1.9653 0.9631 3.4519 2.6874 4.1154 4.773l0.086994 0.27332c1.101 0.36267 2.1103 0.84737 2.9131 1.7601 0.036215-0.16323 0.072561-0.3237 0.10878-0.48247 0.0089224 0.21348 0.018107 0.4271 0.027161 0.64084-0.04435-0.054847-0.090274-0.10628-0.13594-0.15837-0.029654 0.1341-0.059177 0.2699-0.088175 0.40728 0.035427 0.044744 0.071773 0.087519 0.10628 0.13423 0.030835 0.041988 0.079908 0.066787 0.13213 0.066787 0.001837 0 0.0032803-5.249e-4 0.0051173-6.561e-4 0.01627 0.37986 0.032016 0.75946 0.049205 1.1392-0.13777-5.4871-0.20181-10.973-0.23697-16.46l-0.020076-4.1146z" fill="#0064D7"/>
<path d="m21.575 62.621c0.041463-1.5868 0.079121-3.1735 0.11074-4.7603 0.021256-1.0648 0.039626-2.1296 0.057209-3.1942 0.0027555-0.16034 0.0057734-0.32068 0.0085288-0.48116 0.026767-1.6678 0.051042-3.336 0.07138-5.0041l0.043694-4.1146 5.248e-4 -0.059833 0.003674-0.43326 0.03136-3.6219c0.0072167-1.8338 0.019551-3.6678 0.027292-5.5019 5.248e-4 -0.12964 0.0013121-0.25967 0.0017057-0.38944 0.0030179-0.7794 0.0053798-1.5588 0.0056422-2.3381l0.0034115-6.7413 1.312e-4 -0.35086 6.561e-4 -1.1376c-0.01837-2.6323-0.03359-5.2646-0.076235-7.8969-0.001837-0.11035-0.0027555-0.2207-0.0047237-0.33105 0-0.0010497 0-0.0019682-1.312e-4 -0.0027555-0.044612-3.0052-0.10799-6.0102-0.20076-9.0146-0.0035428-0.10904-0.0069543-0.21808-0.010366-0.32724-0.071642-2.2629-0.16047-4.5254-0.27292-6.7874h-0.015614c-0.001837 2.2814 0.0022306 4.5621-0.0097098 6.843-6.56e-4 0.13528-0.0013121 0.27056-0.0022306 0.40571-0.0011809 0.21834-0.0017057 0.43668-0.0034115 0.65501l-0.0010497 0.29759-0.028211 7.9308-0.080433 16.457c-0.014696 2.743-0.0076104 5.486-0.012596 8.229l0.01194 4.1146 0.020207 4.1147c0.035034 5.4861 0.099066 10.973 0.23684 16.459 0.01194-0.38813 0.020863-0.77625 0.032147-1.1644 0.0049861-0.17504 0.0097098-0.34994 0.014565-0.52498 0.012465-0.44297 0.025062-0.88595 0.03674-1.3289" fill="#FC95A4"/>
</g>
</g>
</svg>
