<?xml version="1.0" encoding="UTF-8"?>
<svg version="1.1" viewBox="0 0 106 106" xmlns="http://www.w3.org/2000/svg" xmlns:xlink="http://www.w3.org/1999/xlink">
<title>4. Elements_Microillustrations/Leaf 2</title>
<defs>
<path id="a" d="m88 44c0 24.3-19.7 44-44.001 44-24.301 0-43.999-19.7-43.999-44s19.698-44 43.999-44c24.301 0 44.001 19.7 44.001 44"/>
</defs>
<g fill="none" fill-rule="evenodd">
<g transform="translate(11 9)">
<mask id="b" fill="white">
<use xlink:href="#a"/>
</mask>
<use fill="#FFEACF" xlink:href="#a"/>
<g mask="url(#b)">
<g transform="translate(25.143 16.762)">
<path d="m19.99 0.84842c-0.81102-1.1312-2.5019-1.1312-3.3129 0-1.6308 2.2743-4.2298 5.8809-6.7054 9.2388-5.1915 7.0418-12.271 17.471-9.2451 29.319 2.6778 10.485 9.7987 16.117 17.607 16.117 7.8084 0 14.929-5.6316 17.607-16.117 3.0256-11.848-4.0537-22.278-9.2451-29.319-2.4756-3.3579-5.0746-6.9645-6.7054-9.2388z" fill="#D76230"/>
<path d="m36.667 33.074c-0.010586-0.19999-0.023818-0.39926-0.040164-0.59795-3.1255 6.2847-7.7149 9.3793-11.036 10.87-1.808 0.81118-3.4434 1.2476-4.6377 1.482 0.12205 0.074869 0.24332 0.14801 0.36397 0.21986 1.1797-0.25009 2.7147-0.68376 4.3956-1.4365 3.2869-1.4722 7.7957-4.488 10.955-10.537" fill="#AA391B"/>
<path d="m18.858 30.085c-2.941e-4 0.098375-4.412e-4 0.19689-8.824e-4 0.29556 0.90498-0.22424 3.132-0.8944 5.6184-2.5232 2.1688-1.4208 4.8663-3.8064 6.953-7.6468-0.055743-0.10238-0.11134-0.20463-0.16767-0.30615-2.0688 3.8853-4.7709 6.286-6.9376 7.7075-2.394 1.5709-4.5402 2.2376-5.4653 2.4731" fill="#AA391B"/>
<path d="m18.861 16.762c0.65797-0.26583 2.1563-0.96238 3.7444-2.3217 1.1984-1.0257 2.5838-2.5646 3.5846-4.7368-0.076531-0.091472-0.1529-0.18309-0.22943-0.27484-0.9831 2.2111-2.3738 3.7687-3.573 4.7973-1.4426 1.2374-2.8356 1.9226-3.5309 2.2187l0.0042608 0.31736z" fill="#AA391B"/>
<path d="m20.86 6.4998c0.3961-0.51854 0.81146-1.1934 1.1395-2.0251-0.074871-0.094975-0.15052-0.19108-0.22384-0.28422-0.795 2.1488-2.27 3.3806-2.919 3.8401 0.0024853 0.11674 0.0043493 0.23348 0.0066793 0.35036 0.34826-0.22344 1.19-0.82509 1.9967-1.8811" fill="#AA391B"/>
<path d="m18.857 55.524c2.9565-0.049904 5.8055-0.88923 8.338-2.4774 0.43469-3.8485-2.4908-4.7475-6.0655-6.9512-0.95159 0.20866-1.6747 0.29535-2.0593 0.32988-0.055911 3.0331-0.12332 6.0661-0.21325 9.0987" fill="#AA391B"/>
<path d="m10.323 20.573c0.32065-2.9113 0.13703-6.6168-0.5334-10.096-0.031268 0.044969-0.06269 0.090587-0.093804 0.13588-1.7786 2.5731-3.7873 5.588-5.505 8.9524 1.7248 3.5439 3.8769 6.003 5.8291 7.6736-0.074798-2.191 0.054872-4.4112 0.30318-6.6655" fill="#AA391B"/>
<path d="m18.887 45.203c-0.0092017 0.64662-0.020557 1.2932-0.030346 1.9396 0.41995-0.046476 1.1467-0.15178 2.0952-0.38259-0.67583-0.5146-1.3673-1.0791-2.0629-1.7127-7.832e-4 0.05164-0.0013705 0.10395-0.0019578 0.15559" fill="#AA391B"/>
<path d="m17.644 29.128c-3.081e-4 -0.2333-0.0013868-0.4669-0.0015409-0.7002-7.705e-4 -0.35926 1.541e-4 -0.71868 3.082e-4 -1.0779 0.0012327-2.3167 0.018337-4.6335 0.022652-6.9503l0.054395-8.0299 0.07828-11.321c-0.06888-0.0027958-0.13761-0.0015401-0.20633 0.0026405-0.11465 2.4655-0.21481 4.9315-0.29894 7.3982-0.40111-0.32059-1.0531-0.91781-1.6719-1.8184-0.41297-0.60095-0.84782-1.3998-1.172-2.398-0.0715 0.10065-0.14454 0.20332-0.21743 0.30599 0.87109 2.4673 2.4498 3.8398 3.0495 4.2905-0.039294 1.1766-0.076739 2.3532-0.10987 3.5297l-0.10401 4.0157-0.017258 0.91315c-0.69558-0.35989-1.9009-1.0874-3.1455-2.3191-1.1354-1.1239-2.4532-2.8294-3.3787-5.2548-0.071962 0.099718-0.14377 0.19897-0.21573 0.29853 0.94244 2.3824 2.255 4.0681 3.3896 5.1888 1.3645 1.3477 2.6584 2.0947 3.3437 2.4339l-0.052238 2.7561c-0.046536 2.6779-0.070421 5.3562-0.077201 8.0349-0.0026195 0.70564-0.0032359 1.4111-0.0024655 2.1166-1.0599-0.299-3.1733-1.0345-5.5136-2.6242-0.45858-0.31158-0.94043-0.66758-1.4349-1.0702 0.004931 0.13684 0.0093997 0.27384 0.01618 0.41052 0.4327 0.34342 0.85491 0.65158 1.2593 0.92589 2.427 1.646 4.619 2.3897 5.674 2.6803 0.0078588 4.1773 0.073657 8.3541 0.1789 12.529-0.61376-0.57517-1.2237-1.2241-1.8172-1.9686-3.6677-4.6004-5.0564-9.3075-5.295-14.167-2.0091-1.5946-4.2504-3.9684-6.0523-7.4211-1.9528 3.7102-3.4979 7.8546-3.8505 12.302 3.0947 6.8482 7.6665 10.211 10.971 11.827 2.788 1.3631 5.1617 1.746 6.1138 1.8504l0.0097079 0.31329c-0.9503-0.10096-3.3857-0.48228-6.2443-1.8774-3.2705-1.5964-7.764-4.8748-10.893-11.47-0.11804 2.2396 0.071808 4.5533 0.66846 6.9251 2.568 10.208 9.3646 15.725 16.843 15.81 0.058402 6.213e-4 0.11665 0.0038831 0.1752 0.0038831 0.030048 0 0.059942-0.0017085 0.089991-0.0020192-0.021881-3.6798-0.054395-7.3585-0.081516-11.037-0.044071-5.1196-0.076739-10.238-0.083519-15.357" fill="#AA391B"/>
<path d="m18.615 45.833c0.011016-0.44721 0.023574-0.89457 0.03415-1.3419 8.813e-4 -0.035727 0.0015423-0.07192 0.0022032-0.10765 0.090992-4.4867 0.17141-8.9737 0.19476-13.46 6.61e-4 -0.10718 8.813e-4 -0.2139 0.0015423-0.32077 0.0033048-0.7251 0.0090331-1.4499 0.0090331-2.1748-0.030404-2.6772-0.052216-5.3545-0.10311-8.0317l-0.044284-2.675-0.0057283-0.34422-0.016524-0.99647-0.087687-4.0157c-0.025777-1.1588-0.05486-2.3177-0.085484-3.4767-0.0033048-0.12831-0.0059487-0.25661-0.0094738-0.38492-0.066536-2.4815-0.14629-4.9626-0.23728-7.4436-0.078434-0.0066794-0.15709-0.0094754-0.23574-0.011495l-0.11214 11.321-0.077552 8.0305c-0.0063893 2.317-0.030624 4.6339-0.032607 6.9507 0.0019829 0.35913 0.0039658 0.71827 0.0057283 1.0774l-0.0039657 0.70087c0.0099143 5.1187 0.056402 10.238 0.11963 15.358 0.038556 3.6786 0.085043 7.3576 0.11633 11.038 0.087687 0 0.17471-0.0031067 0.26218-0.004194 0.1258-3.1244 0.21988-6.2493 0.29809-9.3741 0.0026438-0.10423 0.005508-0.20846 0.0079315-0.31253" fill="#FC95A4"/>
</g>
</g>
</g>
</g>
</svg>
