<svg viewBox="0 0 106 106" xmlns="http://www.w3.org/2000/svg" xmlns:xlink="http://www.w3.org/1999/xlink"><defs><path d="M88 44c0 24.3-19.7 44-44.001 44S0 68.3 0 44 19.698 0 43.999 0C68.3 0 88 19.7 88 44" id="a"/></defs><g fill="none" fill-rule="evenodd"><use fill="#D5FDF1" xlink:href="#a" transform="translate(9 9)"/><path d="M53.459 68.228a2.625 2.625 0 0 1-.675-1.28c-.02-.099-.023-.202-.031-.304-.005-.065-.02-.127-.02-.193v-3.682c0-.189.024-.37.062-.547.015-.068.041-.13.062-.197a2.542 2.542 0 0 1 2.428-1.808h30.756a.374.374 0 0 0 .374-.373v-.288a.374.374 0 0 0-.374-.374H26.87a3.591 3.591 0 0 0-3.588 3.587v3.682a3.592 3.592 0 0 0 3.588 3.587h59.17a.374.374 0 0 0 .374-.373v-.288a.374.374 0 0 0-.374-.375H55.285a2.54 2.54 0 0 1-1.826-.774" fill="#64CC75"/><path d="M43.773 66.502v-3.708c0-.98.395-1.868 1.031-2.52h-18.01a3.565 3.565 0 0 0-3.51 2.964v3.213a3.592 3.592 0 0 0 3.587 3.587h19.778a3.619 3.619 0 0 1-2.876-3.536" fill="#009F70"/><path d="M85.841 60.217H55.285c-1.15 0-2.11.765-2.428 1.808-.02.066-.047.13-.061.197a2.555 2.555 0 0 0-.062.547V66.45c0 .066.014.128.019.193.008.103.011.206.03.304.072.36.221.69.426.978a2.542 2.542 0 0 0 2.076 1.076h30.556v-8.785z" fill="#EFF7FF"/><path d="M55.285 60.217c-1.15 0-2.108.765-2.428 1.808l-.03.097a2.502 2.502 0 0 0-.093.647v.981c0-.056.013-.109.016-.164l31.937-.08a.07.07 0 0 0 .071-.072.072.072 0 0 0-.07-.072l-31.907-.08c.066-.358.205-.689.404-.977l30.009-.081c.04 0 .071-.032.071-.071a.072.072 0 0 0-.071-.072L53.435 62a2.538 2.538 0 0 1 1.85-.802H85.84v-.982H55.285zM85.196 65.043l-32.463-.08v.304l32.463-.08a.07.07 0 0 0 .072-.072.07.07 0 0 0-.072-.072M84.67 68.006l-31.46-.08c.076.107.158.209.249.303l31.212-.08c.039 0 .07-.032.072-.071a.072.072 0 0 0-.072-.072M81.88 66.796a.072.072 0 0 0-.071-.072l-29.056-.08c.008.102.011.206.031.304l29.025-.08c.04 0 .071-.032.071-.072" fill="#ACEDFB"/><g><path d="M48.351 56.885a3.294 3.294 0 0 1-.315-.382 3.212 3.212 0 0 1-.54-1.242c-.025-.123-.03-.254-.039-.383-.006-.083-.025-.162-.025-.247v-4.669a3.235 3.235 0 0 1 3.236-3.235h26.444a.474.474 0 0 0 .474-.474v-.365a.475.475 0 0 0-.474-.475h-46.86a4.556 4.556 0 0 0-4.55 4.55v4.668c0 2.51 2.041 4.55 4.55 4.55h46.86a.474.474 0 0 0 .474-.475v-.364a.475.475 0 0 0-.474-.475H50.668c-.91 0-1.73-.378-2.317-.982" fill="#CE643A"/><path d="M76.86 46.727H50.666a3.235 3.235 0 0 0-3.235 3.235V54.631c0 .085.018.164.025.247.01.128.014.26.038.383.091.457.281.876.542 1.242a3.22 3.22 0 0 0 2.631 1.364h26.191v-11.14z" fill="#EFF7FF"/><path d="m76.042 52.847-28.61-.102v.385l28.61-.101a.09.09 0 0 0 0-.182M75.375 56.604l-27.338-.1c.096.134.2.263.314.38l27.024-.099a.09.09 0 0 0 0-.181M71.836 55.07a.09.09 0 0 0-.09-.09l-24.289-.102c.01.129.015.26.039.384l24.25-.1c.05-.002.09-.042.09-.092M50.667 46.727a3.235 3.235 0 0 0-3.235 3.235v1.245c0-.072.017-.139.022-.21l20.669-.1a.09.09 0 0 0 0-.182l-20.63-.1c.083-.454.26-.875.512-1.241l25.497-.102c.05 0 .09-.04.09-.09a.09.09 0 0 0-.09-.092l-25.18-.1a3.218 3.218 0 0 1 2.345-1.018H76.86v-1.245H50.667z" fill="#ACEDFB"/><path d="M44.41 54.696v-4.702c0-1.242.498-2.368 1.304-3.194H30.152c-2.22 0-4.064 1.6-4.45 3.71v4.122c0 2.508 2.04 4.55 4.549 4.55h17.803a4.59 4.59 0 0 1-3.644-4.486" fill="#A53917"/></g><g><path d="M58.01 36.368a2.35 2.35 0 0 0-2.35 2.35v3.391a2.35 2.35 0 0 0 2.35 2.35h12.52v-8.091H58.01z" fill="#EFF7FF"/><path d="M70.53 37.272v-.904H58.01a2.35 2.35 0 0 0-2.35 2.35v.903c0-.052.012-.1.016-.152l13.792-.073c.035 0 .064-.03.065-.066a.066.066 0 0 0-.065-.066l-13.765-.072c.061-.33.19-.637.373-.903l12.016-.073c.036 0 .065-.03.066-.066a.066.066 0 0 0-.066-.066l-11.787-.072a2.339 2.339 0 0 1 1.705-.74h12.52zM69.937 40.945c.036 0 .065-.03.065-.066a.066.066 0 0 0-.065-.067L55.66 40.74v.278l14.277-.072zM57.067 44.259a2.385 2.385 0 0 1-.741-.515l13.126-.07c.037 0 .066-.03.066-.067a.065.065 0 0 0-.066-.065L56.1 43.47a2.336 2.336 0 0 1-.394-.905l11.11-.072c.036 0 .065-.03.065-.065a.065.065 0 0 0-.065-.067l-11.138-.072c-.005-.06-.018-.119-.018-.18 0 .961.58 1.786 1.407 2.15" fill="#ACEDFB"/><path d="M58.01 36.368H70.714c.19 0 .344-.155.344-.345v-.265a.345.345 0 0 0-.344-.345H32.615a3.309 3.309 0 0 0-3.304 3.305v3.391a3.308 3.308 0 0 0 3.304 3.304h38.099c.19 0 .344-.154.344-.344v-.265a.345.345 0 0 0-.344-.345H58.01c-.164 0-.325-.017-.48-.05-.02-.004-.04-.013-.06-.018a2.317 2.317 0 0 1-.388-.125l-.015-.007a2.349 2.349 0 0 1-1.407-2.15V38.717a2.35 2.35 0 0 1 2.35-2.35" fill="#3CA1FF"/><path d="M47.39 42.156V38.74c0-.903.364-1.721.95-2.321H32.542a3.282 3.282 0 0 0-3.232 2.73v2.96a3.307 3.307 0 0 0 3.304 3.303H50.04a3.332 3.332 0 0 1-2.65-3.257" fill="#0068C9"/></g></g></svg>