<?xml version="1.0" encoding="UTF-8"?>
<svg viewBox="0 0 106 106" version="1.1" xmlns="http://www.w3.org/2000/svg" xmlns:xlink="http://www.w3.org/1999/xlink">
    <title>4. Elements_Microillustrations/Molecules</title>
    <g id="4.-Elements_Microillustrations/Molecules" stroke="none" stroke-width="1" fill="none" fill-rule="evenodd">
        <path d="M52.4994718,12 C65.4784319,12 76,22.6480946 76,35.7831325 C76,40.4397153 74.6776316,44.7837349 72.3922037,48.4515615 C84.9571251,48.9251409 95,59.384106 95,72.2168675 C95,85.3519054 84.4784319,96 71.4994718,96 C63.9889196,96 57.3016049,92.4343736 52.999747,86.8845413 C48.6976924,92.4343736 42.0100239,96 34.4994718,96 C21.5205116,96 11,85.3519054 11,72.2168675 C11,59.7141682 20.5319503,49.4647262 32.6429899,48.5068582 C30.335745,44.827997 29,40.4634431 29,35.7831325 C29,22.6480946 39.5205116,12 52.4994718,12 Z" id="Combined-Shape" fill="#009BBD" transform="translate(53.000000, 54.000000) scale(1, -1) translate(-53.000000, -54.000000) "></path>
    </g>
</svg>