<svg viewBox="0 0 106 106" xmlns="http://www.w3.org/2000/svg"><g fill="none" fill-rule="evenodd"><path d="M53.5 7C68.687 7 81 19.312 81 34.5c0 3.377-.609 6.613-1.723 9.602C90.67 47.48 99 58.243 99 71c0 15.464-12.24 28-27.34 28-7.214 0-13.775-2.861-18.66-7.536 5.34-5.11 8.68-12.388 8.68-20.464 0-3.435-.605-6.726-1.71-9.767 8.92-2.15 16.147-8.65 19.307-17.13A26.72 26.72 0 0 0 71.66 43c-7.214 0-13.775 2.861-18.66 7.536a28.09 28.09 0 0 1 6.97 10.697A27.506 27.506 0 0 1 53.5 62c-2.558 0-5.033-.349-7.382-1.002A28.062 28.062 0 0 1 53 50.536l-.336-.315C47.816 45.733 41.39 43 34.34 43c-2.314 0-4.561.294-6.708.849 3.004 8.313 9.9 14.762 18.487 17.15A28.497 28.497 0 0 0 44.321 71c0 7.911 3.203 15.056 8.354 20.148l.324.316C48.114 96.139 41.553 99 34.34 99 19.239 99 7 86.464 7 71c0-13.094 8.775-24.088 20.631-27.151A27.412 27.412 0 0 1 26 34.5C26 19.312 38.311 7 53.5 7z" fill="#009BBD"/><path d="M62 71.5c0 8.276-3.466 15.728-9 20.934-5.535-5.207-9-12.658-9-20.934 0-8.276 3.465-15.727 8.999-20.934C58.534 55.772 62 63.224 62 71.5z" fill="#ACEDFB"/><path d="M71.66 43c2.601 0 5.118.379 7.502 1.086-3.233 8.52-10.44 15.026-19.306 17.162A28.618 28.618 0 0 0 53 50.671C57.885 45.913 64.446 43 71.66 43zm-37.321 0c7.054 0 13.483 2.784 18.333 7.357l.328.314a28.62 28.62 0 0 0-6.768 10.34c-8.534-2.374-15.412-8.829-18.488-17.176A26.33 26.33 0 0 1 34.34 43z" fill="#ACEDFB"/><path d="M52.999 50.566A28.565 28.565 0 0 1 60.115 61.2a27.533 27.533 0 0 1-6.616.801 27.52 27.52 0 0 1-7.521-1.041 28.565 28.565 0 0 1 7.02-10.393z" fill="#ACEDFB"/></g></svg>