<?xml version="1.0" encoding="UTF-8"?>
<svg width="98px" height="98px" viewBox="0 0 98 98" version="1.1" xmlns="http://www.w3.org/2000/svg" xmlns:xlink="http://www.w3.org/1999/xlink">
    <title>Microillustrations/Organized</title>
    <g id="Symbols" stroke="none" stroke-width="1" fill="none" fill-rule="evenodd">
        <g id="7.-Modules_desktop/1.-Cards/1.-Cards_module" transform="translate(-351.000000, -259.000000)">
            <g id="Content" transform="translate(216.000000, 88.000000)">
                <g id="Components/Cards" transform="translate(0.000000, 108.000000)">
                    <g id="Combined-Shape" transform="translate(135.396226, 63.396226)">
                        <path d="M49.1314223,-7.10542736e-15 C65.1792735,-7.10542736e-15 78.1886792,13.0091133 78.1886792,29.0566038 C78.1886792,32.6255656 77.5452111,36.044244 76.3679584,39.2029579 C88.4061207,42.7703416 97.2075472,54.1438687 97.2075472,67.6226415 C97.2075472,83.9619045 84.274011,97.2075472 68.3197494,97.2075472 C60.6975395,97.2075472 53.7651029,94.184246 48.6031156,89.2446882 C54.2468838,83.8449159 57.7742969,76.1556462 57.7742969,67.6226415 C57.7742969,63.9929868 57.1360584,60.5159947 55.9682479,57.302954 C65.3938363,55.0315281 73.0284888,48.163166 76.3679584,39.2029579 C73.8133443,38.4437013 71.1128379,38.0377358 68.3197494,38.0377358 C60.6975395,38.0377358 53.7651029,41.0610371 48.6039623,46.0008086 C51.8465738,49.1035756 54.3906368,52.9624135 55.9682479,57.302954 C53.7752849,57.8331404 51.4860603,58.1132075 49.1314223,58.1132075 C46.4293699,58.1132075 43.8134946,57.7443986 41.3313796,57.0543753 C42.9143833,52.8150086 45.4229828,49.0441429 48.6039623,46.0008086 L48.6039623,46.0008086 L48.2647902,45.6813835 C43.1398891,40.9311014 36.3431163,38.0377358 28.8864991,38.0377358 C26.4411394,38.0377358 24.066775,38.3489112 21.7990906,38.9347064 C24.9723495,47.7176264 32.2582052,54.5320499 41.3313796,57.0543753 C40.1048318,60.3364047 39.4332503,63.899196 39.4332503,67.6226415 C39.4332503,75.9884427 42.8234386,83.5432509 48.273642,88.9244363 L48.6031156,89.2446882 L48.6031156,89.2446882 C43.441642,94.1841588 36.5088189,97.2075472 28.8864991,97.2075472 C12.9322375,97.2075472 0,83.9619045 0,67.6226415 C0,53.7877486 9.27172083,42.1708156 21.7990906,38.9347064 C20.6831919,35.8518202 20.0754717,32.5251863 20.0754717,29.0566038 C20.0754717,13.0091133 33.0835712,-7.10542736e-15 49.1314223,-7.10542736e-15 Z" fill="#B8DDFF"></path>
                        <path d="M58.1132075,68.1509434 C58.1132075,76.8946854 54.4518774,84.7680454 48.604572,90.2693567 C42.7557191,84.7689422 39.0943396,76.8951834 39.0943396,68.1509434 C39.0943396,59.4067034 42.7557191,51.5329446 48.6032578,46.0315902 C54.4518774,51.5338414 58.1132075,59.4072014 58.1132075,68.1509434 Z" fill="#FFFFFF"></path>
                        <path d="M68.3197494,38.0377358 C71.0683991,38.0377358 73.7273893,38.4379065 76.2460296,39.1854073 C72.8308719,48.1873544 65.2162463,55.0617475 55.8481114,57.3188605 C54.2635545,53.0338698 51.7658613,49.2225691 48.6039623,46.1430063 C53.7651029,41.1150246 60.6975395,38.0377358 68.3197494,38.0377358 Z M28.8864991,38.0377358 C36.3431163,38.0377358 43.1398891,40.9827687 48.2647902,45.8178772 L48.6039623,46.1430063 L48.6039623,46.1430063 C45.5033191,49.1624533 43.0415226,52.8854915 41.4525343,57.0679887 C32.4361552,54.5599831 25.1686565,47.7402278 21.9184909,38.9203007 C24.1507217,38.3433715 26.4843563,38.0377358 28.8864991,38.0377358 Z" fill="#FFFFFF"></path>
                        <path d="M48.6032578,46.0315902 C51.8847024,49.1187003 54.4776063,52.9522159 56.1216271,57.2670818 C53.8816078,57.8199772 51.5407589,58.1132075 49.1314223,58.1132075 C46.3762366,58.1132075 43.7106504,57.7297514 41.1851097,57.0132971 C42.831955,52.8012062 45.3869079,49.0575266 48.6032578,46.0315902 Z" fill="#000000"></path>
                    </g>
                </g>
            </g>
        </g>
    </g>
</svg>