<svg viewBox="0 0 106 106" xmlns="http://www.w3.org/2000/svg"><path d="M30.5 11a5.5 5.5 0 0 1 5.495 5.263 5.5 5.5 0 1 1 6.544 8.822 5.5 5.5 0 1 1 1.198 10.91 5.5 5.5 0 0 1-7.743 7.743 5.5 5.5 0 1 1-10.91-1.2 5.5 5.5 0 1 1-8.822-6.543 5.5 5.5 0 1 1 1.204-10.91 5.5 5.5 0 1 1 7.5-7.795l.084-.043A5.5 5.5 0 0 1 30.5 11zm46 0a5.5 5.5 0 0 1 5.495 5.263 5.5 5.5 0 1 1 6.544 8.822 5.5 5.5 0 1 1 1.198 10.91 5.5 5.5 0 0 1-7.743 7.743 5.5 5.5 0 1 1-10.91-1.2 5.5 5.5 0 1 1-8.822-6.543 5.5 5.5 0 1 1 1.204-10.91 5.5 5.5 0 1 1 7.5-7.795l.084-.043A5.5 5.5 0 0 1 76.5 11zm-46 46a5.5 5.5 0 0 1 5.495 5.263 5.5 5.5 0 1 1 6.544 8.822 5.5 5.5 0 1 1 1.198 10.91 5.5 5.5 0 0 1-7.743 7.743 5.5 5.5 0 1 1-10.91-1.2 5.5 5.5 0 1 1-8.822-6.543 5.5 5.5 0 1 1 1.204-10.91 5.5 5.5 0 1 1 7.5-7.795l.084-.043A5.5 5.5 0 0 1 30.5 57zm46 0a5.5 5.5 0 0 1 5.495 5.263 5.5 5.5 0 1 1 6.544 8.822 5.5 5.5 0 1 1 1.198 10.91 5.5 5.5 0 0 1-7.743 7.743 5.5 5.5 0 1 1-10.91-1.2 5.5 5.5 0 1 1-8.822-6.543 5.5 5.5 0 1 1 1.204-10.91 5.5 5.5 0 1 1 7.5-7.795l.084-.043A5.5 5.5 0 0 1 76.5 57z" fill="#009BBD" fill-rule="evenodd"/></svg>