<svg viewBox="0 0 106 106" xmlns="http://www.w3.org/2000/svg"><g fill="none" fill-rule="evenodd"><path fill="#0059C4" d="m53 93.501-9.98 6.45L36.527 90l-11.74 1.833L22.901 80.1 11.43 77l3.05-11.484-9.218-7.499 7.458-9.25-5.372-10.6 10.576-5.418-.596-11.867 11.865-.648L33.477 9.15l11.102 4.234L53 5l8.42 8.384L72.524 9.15l4.283 11.084 11.865.648-.596 11.867 10.576 5.418-5.372 10.6 7.458 9.25-9.218 7.499L94.569 77 83.1 80.1l-1.885 11.733L69.474 90 62.98 99.95z"/><path d="M32.327 60.715c1.733 0 3.112-.385 4.136-1.155s1.536-1.831 1.536-3.185c0-1.217-.419-2.234-1.257-3.05-.838-.817-2.173-1.501-4.007-2.053-.995-.3-1.749-.623-2.26-.966-.513-.344-.769-.77-.769-1.279 0-.544.218-.983.655-1.316.437-.333 1.05-.5 1.837-.5.817 0 1.45.2 1.902.597.45.398.676.954.676 1.67H38c0-.938-.242-1.776-.725-2.513-.483-.738-1.162-1.309-2.036-1.714-.873-.404-1.869-.606-2.986-.606-1.11 0-2.11.186-3.002.558-.892.373-1.576.89-2.052 1.552a3.777 3.777 0 0 0-.715 2.262c0 1.625.888 2.918 2.664 3.878.652.35 1.537.707 2.654 1.068 1.117.362 1.89.706 2.32 1.032.43.325.645.793.645 1.401 0 .56-.215.994-.645 1.306-.43.311-1.028.467-1.794.467-2.062 0-3.094-.863-3.094-2.589H26c0 1.01.26 1.898.779 2.664.519.766 1.273 1.37 2.261 1.81.988.44 2.084.66 3.287.66zm11.44 0c1.203 0 2.18-.42 2.932-1.257.065.415.169.763.312 1.042h3.137v-.183c-.301-.565-.455-1.4-.462-2.503v-5.038c0-1.303-.421-2.315-1.262-3.034-.842-.72-1.979-1.08-3.411-1.08-.945 0-1.798.163-2.557.489-.759.326-1.346.775-1.761 1.348a3.118 3.118 0 0 0-.624 1.87h3.105c0-.438.149-.781.446-1.032.297-.25.707-.376 1.23-.376.594 0 1.03.161 1.305.483.276.323.414.752.414 1.29v.665h-1.43c-1.725.008-3.045.34-3.958 1-.913.658-1.37 1.604-1.37 2.835 0 1.003.375 1.834 1.123 2.493.749.658 1.692.988 2.83.988zm.677-2.374c-.473 0-.845-.126-1.118-.376a1.243 1.243 0 0 1-.408-.956l.01-.183c.101-1.074.928-1.611 2.482-1.611h1.16v1.998a2.01 2.01 0 0 1-.859.822c-.387.204-.81.306-1.267.306zM55.647 60.5V44h-3.115v16.5h3.115zm8.206.215c.967 0 1.848-.185 2.643-.553.795-.37 1.425-.883 1.89-1.542l-1.525-1.708c-.673.867-1.608 1.3-2.804 1.3-.773 0-1.412-.23-1.917-.688-.505-.458-.808-1.067-.908-1.826h7.401v-1.267c0-1.84-.456-3.262-1.37-4.265-.912-1.003-2.164-1.504-3.754-1.504-1.06 0-2.003.249-2.83.747-.827.497-1.467 1.206-1.918 2.127-.45.92-.676 1.964-.676 3.131v.3c0 1.741.535 3.134 1.606 4.18 1.07 1.045 2.458 1.568 4.162 1.568zm1.73-7.133h-4.319c.108-.773.353-1.368.736-1.783.383-.416.883-.623 1.499-.623.658 0 1.167.188 1.525.564.358.376.544.907.559 1.595v.247zm9.538 7.133c1.44 0 2.614-.328 3.523-.983.91-.655 1.365-1.513 1.365-2.573 0-1.482-.82-2.524-2.46-3.126a13.468 13.468 0 0 0-1.955-.52c-.774-.155-1.324-.337-1.65-.549-.325-.21-.488-.488-.488-.832 0-.365.143-.666.43-.903.286-.236.69-.354 1.213-.354.61 0 1.057.145 1.343.435.287.29.43.657.43 1.101h3.104c0-1.11-.442-2.012-1.326-2.707-.885-.695-2.065-1.042-3.54-1.042-1.382 0-2.501.346-3.357 1.037-.856.69-1.283 1.552-1.283 2.583 0 1.77 1.382 2.944 4.146 3.524.83.172 1.434.367 1.81.585.376.219.564.518.564.897 0 .365-.152.66-.457.886-.304.226-.753.339-1.348.339-.637 0-1.145-.147-1.525-.44-.38-.294-.584-.717-.612-1.268h-2.944c0 .702.215 1.355.645 1.96.43.605 1.022 1.082 1.778 1.429.755.347 1.62.52 2.594.52z" fill="#FFF"/></g></svg>