<svg viewBox="0 0 106 106" xmlns="http://www.w3.org/2000/svg"><g fill="none" fill-rule="evenodd"><path d="M53 11c23.195 0 42 18.804 42 42S76.195 95 53 95c-23.197 0-42-18.804-42-42s18.803-42 42-42zm0 5c-20.436 0-37 16.566-37 37s16.564 37 37 37c20.434 0 37-16.566 37-37S73.434 16 53 16z" fill="#008B63"/><circle fill="#D5FDF1" cx="53" cy="53" r="33"/><path d="M52.112 41.183a1.598 1.598 0 0 1 2.187 0l.016.015c1.91 1.88 4.147 2.831 7.038 2.994 1.386.078 2.488 1.236 2.509 2.635.004.287.012.544.022.788l.001.02c.056 2.98.126 6.69-1.106 10.06-.675 1.85-1.697 3.456-3.038 4.777-1.525 1.504-3.523 2.698-5.937 3.55a1.826 1.826 0 0 1-.599.103 1.791 1.791 0 0 1-.597-.102c-2.417-.851-4.417-2.045-5.944-3.549-1.34-1.32-2.363-2.927-3.038-4.775-1.227-3.36-1.157-7.063-1.1-10.038v-.046c.011-.245.019-.503.023-.788.02-1.4 1.123-2.557 2.509-2.635 2.89-.163 5.127-1.114 7.038-2.994zm3.701 9.08-4.456 5.005-.806-.765a.78.78 0 0 0-1.064 0 .69.69 0 0 0 0 1.01l1.338 1.273c.147.14.34.209.532.209a.77.77 0 0 0 .532-.21l4.989-5.51a.69.69 0 0 0 0-1.011.78.78 0 0 0-1.065 0z" fill="#000"/></g></svg>