<?xml version="1.0" encoding="UTF-8"?>
<svg width="106px" height="106px" viewBox="0 0 106 106" version="1.1" xmlns="http://www.w3.org/2000/svg" xmlns:xlink="http://www.w3.org/1999/xlink">
    <title>4. Elements_Microillustrations/Secure</title>
    <g id="4.-Elements_Microillustrations/Secure" stroke="none" stroke-width="1" fill="none" fill-rule="evenodd">
        <path d="M52.9990559,11 C76.1954953,11 95,29.804082 95,53 C95,76.195918 76.1954953,95 52.9990559,95 C29.8026165,95 11,76.195918 11,53 C11,29.804082 29.8026165,11 52.9990559,11 Z M52.9991683,16 C32.5642098,16 16,32.5655008 16,53 C16,73.4344992 32.5642098,90 52.9991683,90 C73.4341268,90 90,73.4344992 90,53 C90,32.5655008 73.4341268,16 52.9991683,16 Z" id="Combined-Shape" fill="#008B63"></path>
        <circle id="Oval" fill="#D5FDF1" cx="53" cy="53" r="33"></circle>
        <g id="3.-Elements_Icons/1.-Concepts/52.-Secure_filled" transform="translate(39.000000, 39.000000)" fill="#000000">
            <path d="M13.1119728,2.18254076 C13.7353926,1.60581975 14.6755095,1.60581975 15.2987375,2.18254076 L15.2987375,2.18254076 L15.3150423,2.19822203 C17.2257759,4.07784089 19.4620305,5.02916924 22.35278,5.1919831 C23.7392655,5.27019569 24.8412798,6.42750967 24.8618048,7.82662448 C24.8662166,8.11353306 24.8735059,8.37140224 24.8844397,8.61513901 L24.8844397,8.61513901 L24.885207,8.63488578 C24.9412188,11.6154824 25.01085,15.324966 23.7789726,18.6956576 C23.1035692,20.5441076 22.0815444,22.1509504 20.7414797,23.4718526 C19.2159236,24.975509 17.2181031,26.1699933 14.8036463,27.0222008 C14.7246158,27.0500785 14.6423244,27.0727292 14.5590739,27.089572 C14.441871,27.1131907 14.3235171,27.125 14.2053551,27.125 C14.0871931,27.125 13.9690311,27.1131907 13.8516363,27.089572 C13.7683859,27.0727292 13.6866699,27.0502722 13.6080231,27.022588 C11.190689,26.1719293 9.19075844,24.9780257 7.66385959,23.4741758 C6.32321939,22.1536607 5.30119463,20.5472051 4.6263667,18.6991423 C3.39909295,15.3385178 3.46891601,11.6360035 3.52511968,8.66102114 L3.52511968,8.66102114 L3.52627059,8.61513901 C3.5372044,8.3696599 3.54468545,8.11179067 3.54890555,7.82681807 C3.56943041,6.42750967 4.67163656,5.27019569 6.05793029,5.19217669 C8.94867973,5.02916924 11.1849344,4.07784089 13.095668,2.19822203 L13.095668,2.19822203 Z M16.8133308,11.2638055 L12.357035,16.2683733 L11.5512372,15.5025335 C11.2573303,15.2232009 10.7808569,15.2232009 10.48695,15.5025335 C10.1932389,15.781866 10.1932389,16.234712 10.48695,16.5138586 L11.8249893,17.785547 C11.9719427,17.9252133 12.1644888,17.9949534 12.357035,17.9949534 C12.5495811,17.9949534 12.7421273,17.9252133 12.8890807,17.785547 L17.8776179,12.2751307 C18.1713291,11.9957981 18.1713291,11.5429521 17.8776179,11.2638055 C17.5837111,10.984287 17.1072376,10.984287 16.8133308,11.2638055 Z" id="Combined-Shape"></path>
        </g>
    </g>
</svg>