<?xml version="1.0" encoding="UTF-8"?>
<svg viewBox="0 0 106 106" version="1.1" xmlns="http://www.w3.org/2000/svg" xmlns:xlink="http://www.w3.org/1999/xlink">
    <title>4. Elements_Microillustrations/Success</title>
    <g id="4.-Elements_Microillustrations/Success" stroke="none" stroke-width="1" fill="none" fill-rule="evenodd">
        <path d="M52.9990559,11 C76.1954953,11 95,29.804082 95,53 C95,76.195918 76.1954953,95 52.9990559,95 C29.8026165,95 11,76.195918 11,53 C11,29.804082 29.8026165,11 52.9990559,11 Z M52.9991683,16 C32.5642098,16 16,32.5655008 16,53 C16,73.4344992 32.5642098,90 52.9991683,90 C73.4341268,90 90,73.4344992 90,53 C90,32.5655008 73.4341268,16 52.9991683,16 Z" id="Combined-Shape" fill="#008B63"></path>
        <circle id="Oval" fill="#D5FDF1" cx="53" cy="53" r="33"></circle>
        <g id="4.-Icons/1.-Concepts/24.-Done" transform="translate(29.000000, 29.000000)" fill="#000000">
            <path d="M43.0699205,10.9304346 C42.4964813,10.3565218 41.5762452,10.3565218 41.0022646,10.9304346 L18.7619681,35.0074997 L6.99827659,23.4374153 C6.42416076,22.8635025 5.50405998,22.8635025 4.93048539,23.4374153 C4.35650487,24.0109223 4.35650487,24.9309146 4.93048539,25.5049628 L16.6948534,37.0743706 L18.751414,39.1417828 L20.829624,37.0743706 L43.0699205,12.9979821 C43.6433598,12.4239339 43.6433598,11.5039416 43.0699205,10.9304346 Z" id="Fill-4"></path>
        </g>
    </g>
</svg>