<svg viewBox="0 0 106 106" xmlns="http://www.w3.org/2000/svg"><g fill="none" fill-rule="evenodd"><path d="M53 11c23.195 0 42 18.804 42 42S76.195 95 53 95c-23.197 0-42-18.804-42-42s18.803-42 42-42zm0 5c-20.436 0-37 16.566-37 37s16.564 37 37 37c20.434 0 37-16.566 37-37S73.434 16 53 16z" fill="#008B63"/><circle fill="#D5FDF1" cx="53" cy="53" r="33"/><path d="M72.07 39.93a1.457 1.457 0 0 0-2.068 0l-22.24 24.077-11.764-11.57a1.457 1.457 0 0 0-2.068 0 1.457 1.457 0 0 0 0 2.068l11.765 11.57 2.056 2.067 2.079-2.068 22.24-24.076a1.457 1.457 0 0 0 0-2.068z" fill="#000"/></g></svg>