<?xml version="1.0" encoding="UTF-8"?>
<svg width="106px" height="106px" viewBox="0 0 106 106" version="1.1" xmlns="http://www.w3.org/2000/svg" xmlns:xlink="http://www.w3.org/1999/xlink">
    <title>4. Elements_Microillustrations/System Copy 1</title>
    <g id="4.-Elements_Microillustrations/System-Copy-1" stroke="none" stroke-width="1" fill="none" fill-rule="evenodd">
        <path d="M83.9787234,53 C90.5711086,49.083148 95,41.840584 95,33.5478877 C95,21.0951882 85.0195347,11 72.7083489,11 C64.1606321,11 56.7408237,15.868314 53,23.0104459 C49.2591763,15.868314 41.8393679,11 33.2916511,11 C20.9804653,11 11,21.0951882 11,33.5478877 C11,41.840584 15.4288914,49.083148 22.0212766,53 C15.4288914,56.916852 11,64.159416 11,72.4521123 C11,84.9048118 20.9804653,95 33.2916511,95 C41.8393679,95 49.2591763,90.131686 53,82.9895541 C56.7408237,90.131686 64.1606321,95 72.7083489,95 C85.0195347,95 95,84.9048118 95,72.4521123 C95,64.159416 90.5711086,56.916852 83.9787234,53" id="Fill-4" fill="#0096B2"></path>
    </g>
</svg>