<svg viewBox="0 0 106 106" xmlns="http://www.w3.org/2000/svg"><path d="M75.52 81c4.529 0 8.274-1.21 11.235-3.63 2.961-2.42 4.442-5.703 4.442-9.851 0-4.494-1.35-8.038-4.05-10.63-2.7-2.593-6.315-3.457-10.844-2.593-.348-4.494.784-8.296 3.397-11.407 2.613-3.111 6.01-5.617 10.19-7.519L82.836 25c-2.265.691-4.878 1.901-7.839 3.63-2.961 1.728-5.748 4.018-8.361 6.87-2.613 2.852-4.834 6.438-6.663 10.76-1.829 4.32-2.743 9.419-2.743 15.296 0 6.395 1.654 11.234 4.964 14.518C65.504 79.358 69.945 81 75.52 81zm-42.23 0c4.529 0 8.274-1.21 11.235-3.63 2.962-2.42 4.442-5.703 4.442-9.851 0-4.494-1.35-8.038-4.05-10.63-2.7-2.593-6.314-3.457-10.843-2.593-.348-4.494.784-8.296 3.397-11.407 2.612-3.111 6.01-5.617 10.19-7.519L40.606 25c-2.264.691-4.877 1.901-7.839 3.63-2.96 1.728-5.748 4.018-8.36 6.87-2.614 2.852-4.834 6.438-6.663 10.76C15.914 50.58 15 55.678 15 61.555c0 6.395 1.655 11.234 4.964 14.518C23.274 79.358 27.716 81 33.29 81z" fill="#009BBD" fill-rule="evenodd"/></svg>