<?xml version="1.0" encoding="UTF-8"?>
<svg width="106px" height="106px" viewBox="0 0 106 106" version="1.1" xmlns="http://www.w3.org/2000/svg" xmlns:xlink="http://www.w3.org/1999/xlink">
    <title>4. Elements_Microillustrations/Tools</title>
    <defs>
        <path d="M88,44 C88,68.3004855 68.3000427,88 43.9990109,88 C19.6979792,88 0,68.3004855 0,44 C0,19.6995145 19.6979792,0 43.9990109,0 C68.3000427,0 88,19.6995145 88,44" id="path-1"></path>
    </defs>
    <g id="4.-Elements_Microillustrations/Tools" stroke="none" stroke-width="1" fill="none" fill-rule="evenodd">
        <g id="Vector-Smart-Object" transform="translate(9.000000, 9.000000)">
            <mask id="mask-2" fill="white">
                <use xlink:href="#path-1"></use>
            </mask>
            <use id="Mask" fill="#DFF0FF" xlink:href="#path-1"></use>
        </g>
        <g id="Group" transform="translate(37.000000, 22.000000)" fill-rule="nonzero">
            <g transform="translate(16.555696, 0.000000)">
                <path d="M1.76594092,49.8181276 L2.29940224,49.8920692 C2.869654,49.9660107 3.27434879,50.5020871 3.20076792,51.0751342 L3.09039661,51.8884914 C3.0720014,51.9994037 3.05360618,52.110316 3.01681574,52.2212284 L1.34285091,57.1753131 C1.26927004,57.4156231 0.919760897,57.3786524 0.901365679,57.1198569 L0.459880449,51.9069767 C0.441485231,51.7960644 0.459880449,51.6666667 0.459880449,51.5557543 L0.570251756,50.7423971 C0.662227846,50.1508646 1.19568917,49.744186 1.76594092,49.8181276 Z" id="Path" fill="#FFEACF"></path>
                <polygon id="Path" fill="#FFCFA9" points="2.04186919 49.8550984 3.34792967 50.0214669 3.09039661 52.0733453 1.01173699 58.2289803 1.78433614 51.8884914"></polygon>
                <path d="M8.09389589,0.850327967 L8.62735721,0.924269529 C9.19760897,0.998211091 9.60230377,1.53428742 9.52872289,2.10733453 L3.09039661,51.9254621 C3.0720014,52.0178891 3.05360618,52.110316 3.01681574,52.202743 L2.70409704,51.9069767 L2.22582137,52.110316 L1.80273136,51.8515206 L1.21408438,51.9809183 L0.790994371,51.7036374 L0.441485231,51.8884914 C0.441485231,51.777579 0.441485231,51.6851521 0.441485231,51.5742397 L6.86141629,1.7561121 C6.99018282,1.183065 7.52364414,0.776386404 8.09389589,0.850327967 Z" id="Path" fill="#EE9554"></path>
                <path d="M8.29624329,3.54919499 L9.34477071,3.67859273 L3.12718705,51.9069767 C3.10879183,51.9994037 3.09039661,52.0918306 3.05360618,52.1842576 L2.74088747,51.8884914 L2.26261181,52.0918306 L2.09705485,51.8515206 L8.29624329,3.54919499 Z" id="Path" fill="#D95B26"></path>
                <path d="M6.58548802,4.25163983 L9.21600419,4.60286225 L9.51032768,2.29218843 C9.60230377,1.60822898 9.1240281,0.998211091 8.44340504,0.905784138 L8.25945286,0.887298748 C7.57882979,0.794871795 6.9717876,1.27549195 6.87981151,1.9594514 L6.58548802,4.25163983 Z" id="Path" fill="#0097B8"></path>
                <path d="M6.71425455,3.34585569 L9.34477071,3.69707812 L9.52872289,2.29218843 C9.62069898,1.60822898 9.14242332,0.998211091 8.46180025,0.905784138 L8.27784807,0.887298748 C7.59722501,0.794871795 6.99018282,1.27549195 6.89820673,1.9594514 L6.71425455,3.34585569 Z" id="Path" fill="#FF97A6"></path>
                <polygon id="Path" fill="#323232" points="0.901365679 56.8980322 1.01173699 58.2289803 1.434827 56.9719738"></polygon>
                <polygon id="Path" fill="#1B417D" points="2.13384528 51.8884914 8.25945286 4.45497913 8.16747677 4.45497913 2.04186919 51.870006"></polygon>
                <polygon id="Path" fill="#1B417D" points="1.06692264 51.7406082 7.19253022 4.3255814 7.10055413 4.307096 0.974946551 51.7406082"></polygon>
                <polygon id="Rectangle" fill="#E75B4B" transform="translate(8.912119, 2.323606) rotate(-172.611326) translate(-8.912119, -2.323606) " points="8.9112507 0.992760867 8.91133105 0.992760918 8.91298704 3.65445154 8.91290669 3.65445149"></polygon>
            </g>
            <g>
                <path d="M4.58040927,8.72510435 L4.06534317,8.90995826 C3.51348663,9.09481216 2.92483965,8.79904592 2.74088747,8.2444842 L2.48335442,7.46809779 C2.44656399,7.35718545 2.42816877,7.24627311 2.40977355,7.13536076 L1.7475457,1.94096601 C1.71075527,1.70065593 2.04186919,1.5712582 2.17063572,1.79308289 L4.85633754,6.2850328 C4.91152319,6.39594514 4.96670884,6.48837209 5.00349928,6.61776983 L5.26103233,7.39415623 C5.42658929,7.94871795 5.13226581,8.54025045 4.58040927,8.72510435 Z" id="Path" fill="#FFEACF"></path>
                <polygon id="Path" fill="#FFCFA9" points="4.32287622 8.81753131 3.0720014 9.24269529 2.40977355 7.30172928 1.58198874 0.850327967 3.66064837 6.8765653"></polygon>
                <path d="M20.3635063,55.4931425 L19.8484402,55.6779964 C19.2965836,55.8628503 18.7079366,55.5670841 18.5239845,55.0125224 L2.4649592,7.43112701 C2.42816877,7.33870006 2.40977355,7.24627311 2.39137833,7.15384615 L2.79607313,7.28324389 L3.12718705,6.89505069 L3.62385793,6.95050686 L4.08373838,6.56231366 L4.59880449,6.61776983 L4.8195471,6.30351819 C4.87473275,6.39594514 4.91152319,6.48837209 4.94831363,6.58079905 L21.0073389,54.143709 C21.2096863,54.7167561 20.9153628,55.3082886 20.3635063,55.4931425 Z" id="Path" fill="#EE9554"></path>
                <path d="M19.0022601,53.1639833 L18.0089184,53.4967203 L2.4649592,7.4496124 C2.42816877,7.35718545 2.40977355,7.2647585 2.39137833,7.17233154 L2.79607313,7.30172928 L3.12718705,6.91353608 L3.3847201,7.04293381 L19.0022601,53.1639833 Z" id="Path" fill="#D95B26"></path>
                <path d="M20.2163445,51.777579 L17.7145949,52.627907 L18.4504036,54.8276685 C18.6711462,55.4746571 19.3701645,55.8258795 20.0139971,55.6040549 L20.1795541,55.5485987 C20.8233867,55.326774 21.1728959,54.6243292 20.9521532,53.9773405 L20.2163445,51.777579 Z" id="Path" fill="#0097B8"></path>
                <path d="M20.510668,52.6463924 L18.0089184,53.4967203 L18.4687988,54.8461538 C18.6895414,55.4931425 19.3885597,55.8443649 20.0323923,55.6225403 L20.1979493,55.5670841 C20.8417819,55.3452594 21.1912911,54.6428145 20.9705485,53.9958259 L20.510668,52.6463924 Z" id="Path" fill="#FF97A6"></path>
                <polygon id="Path" fill="#323232" points="2.26261181 1.99642218 1.58198874 0.850327967 1.7475457 2.1627907"></polygon>
                <polygon id="Path" fill="#1B417D" points="18.6343558 52.3321407 18.7263319 52.2951699 3.43990576 7.00596303 3.34792967 7.04293381"></polygon>
                <polygon id="Path" fill="#1B417D" points="19.664488 51.9809183 19.7380689 51.9439475 4.45164274 6.673226 4.37806187 6.69171139"></polygon>
                <polygon id="Rectangle" fill="#E75B4B" transform="translate(19.007311, 54.530307) rotate(-18.741147) translate(-19.007311, -54.530307) " points="19.0092467 53.2000007 19.0093271 53.2000005 19.0053763 55.8606132 19.0052958 55.8606133"></polygon>
            </g>
            <g transform="translate(9.197609, 3.697078)">
                <path d="M1.85791701,54.3100775 L1.67396483,54.2915921 C0.993341769,54.1991652 0.496670884,53.5706619 0.570251756,52.8867024 L5.61054147,11.0172928 L8.27784807,11.3500298 L3.23755836,53.2194395 C3.1823727,53.9033989 2.55693529,54.4025045 1.85791701,54.3100775 Z" id="Path" fill="#ACEDFB"></path>
                <polygon id="Rectangle" fill="#3CA1FF" transform="translate(5.304714, 32.919026) rotate(6.903299) translate(-5.304714, -32.919026) " points="5.29207029 11.1991378 5.29207053 11.1991378 5.31735694 54.6389136 5.3173567 54.6389136"></polygon>
                <polygon id="Rectangle" fill="#EAFBFF" transform="translate(3.483683, 32.696768) rotate(6.903299) translate(-3.483683, -32.696768) " points="3.47103937 10.9768806 3.47103961 10.9768806 3.49632602 54.4166563 3.49632578 54.4166563"></polygon>
                <g transform="translate(3.679044, 0.000000)" id="Path">
                    <path d="M4.87473275,10.6845558 C4.87473275,10.6845558 5.70251756,1.47883125 4.48843318,1.33094812 C3.27434879,1.183065 1.89470745,10.3333333 1.89470745,10.3333333 L1.67396483,12.1264162 L4.67238536,12.496124 L4.87473275,10.6845558 Z" fill="#0065C4"></path>
                    <path d="M3.32953445,10.4997018 C3.32953445,10.4997018 4.56201405,1.33094812 4.48843318,1.33094812 C3.27434879,1.183065 1.89470745,10.3333333 1.89470745,10.3333333 L1.67396483,12.1264162 L3.12718705,12.3112701 L3.32953445,10.4997018 Z" fill="#1B417D"></path>
                    <g transform="translate(1.452254, 3.697078)">
                        <path d="M0.810357759,9.68634466 C0.810357759,9.68634466 0.221710785,15.7680382 0.828752977,15.8419797 C1.43579517,15.9159213 2.31876563,9.87119857 2.31876563,9.87119857 L2.46592737,8.68813357 L0.957519502,8.50327967 L0.810357759,9.68634466 Z" fill="#0065C4"></path>
                        <path d="M0.810357759,9.68634466 C0.810357759,9.68634466 0.221710785,15.7680382 0.828752977,15.8420219 C0.994309938,15.8604651 1.69332822,9.79725701 1.69332822,9.79725701 L1.84048996,8.61419201 L0.957519502,8.50327967 L0.810357759,9.68634466 Z" fill="#1B417D"></path>
                        <path d="M2.0796278,7.4496124 C2.0796278,7.4496124 2.72346042,1.3679189 2.31876563,1.33094812 C1.91407084,1.29397734 1.08628603,7.33870006 1.08628603,7.33870006 L0.939124284,8.52176506 L1.93246605,8.6326774 L2.0796278,7.4496124 Z" fill="#1B417D"></path>
                    </g>
                    <path d="M4.69078058,12.1264162 L1.71075527,11.7567084 C1.54519831,11.738223 1.37964135,11.8676208 1.36124613,12.0339893 L1.36124613,12.0894454 C1.34285091,12.2742993 1.47161744,12.4221825 1.6371744,12.4406679 L4.6171997,12.8103757 C4.80115188,12.8288611 4.94831363,12.6994633 4.96670884,12.5330948 L4.96670884,12.4776386 C4.98510406,12.3112701 4.85633754,12.163387 4.69078058,12.1264162 Z" fill="#1B417D"></path>
                </g>
            </g>
            <path d="M4.96670884,27.3583781 C4.96670884,27.3398927 4.96670884,27.3398927 4.96670884,27.3214073 C4.96670884,25.3804413 9.76786073,25.3804413 15.6727257,25.3804413 C21.5959859,25.3804413 26.3787425,25.3804413 26.3787425,27.3214073 C26.3787425,27.3398927 26.3787425,27.3398927 26.3787425,27.3583781 L26.3787425,27.3583781 L24.9623107,58.1365534 C24.8703347,60.2993441 23.0859985,62 20.933758,62 L10.3749029,62 C8.22266242,62 6.4567215,60.2993441 6.34635019,58.1365534 L4.92991841,27.3583781 L4.96670884,27.3583781 Z" id="Path" fill="#3CA1FF"></path>
            <path d="M14.936917,25.3804413 C15.1760548,25.3804413 15.4335879,25.3804413 15.6727257,25.3804413 C21.5959859,25.3804413 26.3787425,25.3804413 26.3787425,27.3214073 C26.3787425,27.3398927 26.3787425,27.3398927 26.3787425,27.3583781 L26.3787425,27.3583781 L24.9623107,58.1365534 C24.8703347,60.2993441 23.0859985,62 20.933758,62 L13.0238143,62 C15.0288931,61.6857484 16.5924866,59.966607 16.629277,57.8592725 L17.1259479,28.8002385 C17.1811336,27.2844365 16.2613727,25.9534884 14.936917,25.3804413 Z" id="Path" fill="#0064D7"></path>
        </g>
    </g>
</svg>