<svg viewBox="0 0 106 106" xmlns="http://www.w3.org/2000/svg" xmlns:xlink="http://www.w3.org/1999/xlink"><defs><path d="M88 44c0 24.3-19.7 44-44.001 44S0 68.3 0 44 19.698 0 43.999 0C68.3 0 88 19.7 88 44" id="a"/></defs><g fill="none" fill-rule="evenodd"><use fill="#DFF0FF" xlink:href="#a" transform="translate(9 9)"/><g fill-rule="nonzero"><path d="m55.322 71.818.533.074c.57.074.975.61.901 1.183l-.11.813c-.018.111-.037.222-.073.333l-1.674 4.954c-.074.24-.424.204-.442-.055l-.441-5.213c-.019-.11 0-.24 0-.351l.11-.814c.092-.591.625-.998 1.196-.924z" fill="#FFEACF"/><path fill="#FFD9AF" d="m55.598 71.855 1.306.166-.258 2.052-2.079 6.156.773-6.34z"/><path d="m61.65 22.85.533.074c.57.074.975.61.901 1.183l-6.438 49.818a1.546 1.546 0 0 1-.073.278l-.313-.296-.478.203-.424-.258-.588.129-.423-.277-.35.184v-.314l6.42-49.818c.129-.573.662-.98 1.233-.906z" fill="#ED985A"/><path d="m61.852 25.55 1.048.129-6.217 48.228a1.546 1.546 0 0 1-.074.277l-.312-.296-.479.204-.165-.24 6.199-48.303z" fill="#CE643A"/><path d="m60.141 26.252 2.63.35.295-2.31a1.23 1.23 0 0 0-1.067-1.386l-.184-.019a1.227 1.227 0 0 0-1.38 1.072l-.294 2.293z" fill="#0097B8"/><path d="m60.27 25.346 2.63.351.184-1.405a1.23 1.23 0 0 0-1.067-1.386l-.183-.019a1.227 1.227 0 0 0-1.38 1.072l-.184 1.387z" fill="#FC95A4"/><path fill="#323232" d="m54.457 78.898.11 1.331.424-1.257z"/><path fill="#1B417D" d="m55.69 73.888 6.125-47.433h-.092L55.598 73.87zM54.623 73.74l6.125-47.414-.092-.019-6.125 47.434z"/><path fill="#DB594B" d="m62.298 25.644.34-2.64z"/><g><path d="m41.58 30.725-.515.185a1.042 1.042 0 0 1-1.324-.666l-.258-.776a2.158 2.158 0 0 1-.073-.333l-.662-5.194c-.037-.24.294-.37.423-.148l2.685 4.492c.056.11.11.203.147.333l.258.776a1.074 1.074 0 0 1-.68 1.331z" fill="#FFEACF"/><path fill="#FFD9AF" d="m41.323 30.818-1.251.425-.662-1.941-.828-6.452 2.079 6.027z"/><path d="m57.364 77.493-.516.185a1.042 1.042 0 0 1-1.324-.665L39.465 29.43a1.546 1.546 0 0 1-.074-.277l.405.13.331-.389.497.056.46-.389.515.056.22-.314c.056.092.093.184.13.277l16.058 47.563a1.038 1.038 0 0 1-.643 1.35z" fill="#ED985A"/><path d="m56.002 75.164-.993.333L39.465 29.45a1.546 1.546 0 0 1-.074-.278l.405.13.331-.388.258.129 15.617 46.121z" fill="#CE643A"/><path d="m57.216 73.778-2.501.85.735 2.2c.221.647.92.998 1.564.776l.166-.055c.643-.222.993-.925.772-1.572l-.736-2.2z" fill="#0097B8"/><path d="m57.51 74.646-2.501.85.46 1.35c.22.647.92.998 1.563.777l.166-.056c.644-.222.993-.924.773-1.571l-.46-1.35z" fill="#FC95A4"/><path fill="#323232" d="m39.263 23.996-.681-1.146.166 1.313z"/><path fill="#1B417D" d="m55.634 74.332.092-.037L40.44 29.006l-.092.037zM56.664 73.98l.074-.036-15.286-45.27-.074.018z"/><path fill="#DB594B" d="m55.582 75.27.85 2.52z"/></g><g><path d="m48.056 80.007-.184-.018a1.29 1.29 0 0 1-1.104-1.405l5.04-41.87 2.667.333-5.04 41.87a1.211 1.211 0 0 1-1.38 1.09z" fill="#ACEDFB"/><path fill="#3CA1FF" d="M54.1 37.052 48.904 80.18z"/><path fill="#EAFBFF" d="m52.28 36.83-5.197 43.128z"/><path d="M54.751 36.382s.828-9.206-.386-9.354c-1.214-.148-2.594 9.002-2.594 9.002l-.22 1.793 2.998.37.202-1.811z" fill="#0068C9"/><path d="M53.206 36.197s1.233-9.169 1.16-9.169c-1.215-.148-2.595 9.002-2.595 9.002l-.22 1.793 1.453.185.202-1.811z" fill="#1B417D"/><path d="M52.14 39.08s-.59 6.082.018 6.156c.607.074 1.49-5.97 1.49-5.97l.147-1.184-1.509-.185-.147 1.184z" fill="#0068C9"/><path d="M52.14 39.08s-.59 6.082.018 6.156c.165.019.864-6.045.864-6.045l.147-1.183-.883-.11-.147 1.183z" fill="#1B417D"/><path d="M53.409 36.844s.643-6.082.239-6.119c-.405-.037-1.233 6.008-1.233 6.008l-.147 1.183.993.11.148-1.182z" fill="#1B417D"/><path d="m54.567 37.823-2.98-.37a.325.325 0 0 0-.35.278v.056a.315.315 0 0 0 .277.35l2.98.37a.314.314 0 0 0 .35-.277v-.055c.018-.167-.111-.315-.277-.352z" fill="#1B417D"/></g><path d="M41.967 49.358v-.037c0-1.94 4.8-1.94 10.706-1.94 5.923 0 10.706 0 10.706 1.94v.037l-1.417 30.779A4.037 4.037 0 0 1 57.934 84h-10.56c-2.151 0-3.917-1.7-4.028-3.863L41.93 49.358h.037z" fill="#3CA1FF"/><path d="M51.937 47.38h.736c5.923 0 10.706 0 10.706 1.941v.037l-1.417 30.779A4.037 4.037 0 0 1 57.934 84h-7.91a4.274 4.274 0 0 0 3.605-4.14l.497-29.06c.055-1.516-.865-2.847-2.19-3.42z" fill="#0064D7"/></g></g></svg>