<?xml version="1.0" encoding="UTF-8" standalone="no"?><!DOCTYPE svg PUBLIC "-//W3C//DTD SVG 1.1//EN" "http://www.w3.org/Graphics/SVG/1.1/DTD/svg11.dtd"><svg width="106" height="106" viewBox="0 0 106 106" version="1.1" xmlns="http://www.w3.org/2000/svg" xmlns:xlink="http://www.w3.org/1999/xlink" xml:space="preserve" xmlns:serif="http://www.serif.com/" style="fill-rule:evenodd;clip-rule:evenodd;stroke-linejoin:round;stroke-miterlimit:2;"><path d="M52.999,0c14.165,0 27.46,5.51 37.476,15.525c10.015,10.016 15.525,23.311 15.525,37.474c0,14.165 -5.51,27.46 -15.525,37.476c-10.016,10.015 -23.311,15.525 -37.476,15.525c-14.163,0 -27.458,-5.51 -37.474,-15.525c-10.015,-10.016 -15.525,-23.311 -15.525,-37.476c0,-14.163 5.51,-27.458 15.525,-37.474c10.016,-10.015 23.311,-15.525 37.474,-15.525Zm0,3.312c-13.266,0 -25.754,5.167 -35.15,14.557c-19.382,19.371 -19.382,50.891 -0,70.261c9.396,9.391 21.884,14.558 35.15,14.558c13.268,-0 25.756,-5.168 35.152,-14.558c19.382,-19.37 19.382,-50.89 0,-70.261c-9.396,-9.39 -21.884,-14.557 -35.152,-14.557l0,0Zm22.032,30.584c0.341,-0.346 0.808,-0.541 1.294,-0.541c0.487,0 0.953,0.195 1.295,0.541c0.345,0.344 0.539,0.812 0.539,1.299c-0,0.487 -0.194,0.955 -0.539,1.299l-29.542,33.783l-2.602,2.598l-2.576,-2.598l-13.188,-12.633c-0.345,-0.344 -0.539,-0.812 -0.539,-1.299c0,-0.487 0.194,-0.955 0.539,-1.299c0.342,-0.346 0.809,-0.541 1.295,-0.541c0.486,0 0.953,0.195 1.295,0.541l13.187,12.634l29.542,-33.784Z" style="fill-opacity:0.5;"/></svg>