<svg width="112" height="112" viewBox="0 0 112 112" xmlns="http://www.w3.org/2000/svg">
    <g fill="none" fill-rule="evenodd">
        <path d="M56.528 7.396c16.047 0 29.057 13.01 29.057 29.057 0 3.569-.644 6.987-1.82 10.146 12.037 3.568 20.839 14.941 20.839 28.42 0 16.34-12.934 29.585-28.888 29.585-7.622 0-14.555-3.024-19.717-7.963 5.644-5.4 9.172-13.09 9.172-21.622 0-3.63-.639-7.107-1.807-10.32 9.426-2.271 17.06-9.14 20.4-18.1a28.204 28.204 0 0 0-8.048-1.165c-7.622 0-14.555 3.023-19.716 7.963a29.68 29.68 0 0 1 7.364 11.302 29.06 29.06 0 0 1-6.836.81c-2.702 0-5.318-.368-7.8-1.058A29.663 29.663 0 0 1 56 53.397l-.339-.32c-5.125-4.75-11.922-7.643-19.378-7.643a28.3 28.3 0 0 0-7.088.897c3.174 8.783 10.46 15.597 19.533 18.12a30.135 30.135 0 0 0-1.899 10.568c0 8.366 3.39 15.92 8.84 21.302l.33.32c-5.161 4.94-12.094 7.963-19.716 7.963-15.955 0-28.887-13.246-28.887-29.585 0-13.835 9.272-25.452 21.8-28.688a28.967 28.967 0 0 1-1.724-9.878c0-16.048 13.008-29.057 29.056-29.057z" fill="#0049A0"/>
        <path d="M65.51 75.547c0 8.744-3.662 16.617-9.51 22.119-5.848-5.5-9.51-13.375-9.51-22.119S50.153 58.93 56 53.427c5.848 5.503 9.51 13.376 9.51 22.12z" fill="#3CA1FF"/>
        <path d="M75.716 45.434c2.749 0 5.408.4 7.927 1.148-3.416 9.002-11.03 15.876-20.399 18.133A30.242 30.242 0 0 0 56 53.54c5.161-5.028 12.094-8.105 19.716-8.105zm-39.433 0c7.456 0 14.253 2.945 19.378 7.78l.34.325a30.239 30.239 0 0 0-7.152 10.925c-9.017-2.508-16.284-9.328-19.534-18.147a27.806 27.806 0 0 1 6.968-.883z" fill="#3CA1FF"/>
        <path d="M56 53.428a30.192 30.192 0 0 1 7.518 11.234 29.09 29.09 0 0 1-6.99.847c-2.756 0-5.421-.383-7.947-1.1A30.167 30.167 0 0 1 56 53.429z" fill="#DFF0FF"/>
    </g>
</svg>
