<?xml version="1.0" encoding="UTF-8"?>
<svg width="240px" height="30px" viewBox="0 0 240 30" version="1.1" xmlns="http://www.w3.org/2000/svg" xmlns:xlink="http://www.w3.org/1999/xlink">
    <title>1. Element_Assets/1. Logos/Resource_logos/3. Brandemic</title>
    <g id="1.-Element_Assets/1.-Logos/Resource_logos/3.-Brandemic" stroke="none" stroke-width="1" fill="none" fill-rule="evenodd">
        <g id="Logo" transform="translate(0.000000, 0.000000)" fill="#000000" fill-rule="nonzero">
            <path d="M39.57078,1.14583482 L52.2988031,1.14583482 C55.4189022,1.14583482 57.8951713,1.99275622 59.4304581,3.58696119 C60.6685927,4.83243383 61.3124226,6.37681989 61.3124226,8.2699383 L61.3124226,8.36957611 C61.3124226,11.4583482 59.678085,13.2020099 57.6970697,14.2980259 C60.8666942,15.4936796 62.7981841,17.386798 62.7981841,21.073397 L62.7981841,21.1730348 C62.7981841,26.2047442 58.7371028,28.7455084 52.54643,28.7455084 L39.5212546,28.7455084 L39.5212546,1.14583482 L39.57078,1.14583482 Z M55.3693768,9.31613531 C55.3693768,7.52265472 53.9826661,6.4764577 51.4073463,6.4764577 L45.4643005,6.4764577 L45.4643005,12.3052696 L51.0111432,12.3052696 C53.6855138,12.3052696 55.3693768,11.4583482 55.3693768,9.41577312 L55.3693768,9.31613531 Z M52.3978539,17.3369791 L45.4147751,17.3369791 L45.4147751,23.4148855 L52.54643,23.4148855 C55.2208007,23.4148855 56.8056129,22.4683263 56.8056129,20.4257512 L56.8056129,20.3261134 C56.8551383,18.4828139 55.517953,17.3369791 52.3978539,17.3369791 Z M66.2154354,7.62229253 L72.1584812,7.62229253 L72.1584812,11.8568995 C73.3470904,8.96740297 75.3281057,7.07428457 78.8444078,7.22374129 L78.8444078,13.5009234 L78.5472555,13.5009234 C74.5852249,13.5009234 72.1584812,15.8922308 72.1584812,20.9239403 L72.1584812,28.6956895 L66.2154354,28.6956895 L66.2154354,7.62229253 Z M79.3396616,22.6177831 L79.3396616,22.5181452 C79.3396616,17.9348059 82.8064383,15.792593 87.8085019,15.792593 C89.9380933,15.792593 91.4238547,16.1413254 92.9096162,16.6395144 L92.9096162,16.2907821 C92.9096162,13.7998368 91.3743293,12.4547264 88.4028064,12.4547264 C86.1246389,12.4547264 84.5398267,12.9030965 82.6083368,13.6005612 L81.1225753,9.01722188 C83.4502683,7.97102487 85.6789104,7.3233791 89.2447379,7.3233791 C92.5134131,7.3233791 94.8411061,8.17030049 96.3268675,9.66486765 C97.9116797,11.2590726 98.6050351,13.5507423 98.6050351,16.3904199 L98.6050351,28.6458706 L92.8600908,28.6458706 L92.8600908,26.4040199 C91.4238547,27.9982248 89.4428395,29.0942408 86.5208419,29.0942408 C82.6083368,29.0942408 79.3396616,26.8025711 79.3396616,22.6177831 Z M93.0086669,21.2726726 L93.0086669,20.2264756 C91.9686339,19.7781055 90.680974,19.4293731 89.1952125,19.4293731 C86.6694181,19.4293731 85.0846059,20.4755701 85.0846059,22.3188696 L85.0846059,22.4185074 C85.0846059,24.0127124 86.4217912,24.9592716 88.3532811,24.9592716 C91.1267024,24.9592716 93.0086669,23.4148855 93.0086669,21.2726726 Z M102.765167,7.62229253 L108.708213,7.62229253 L108.708213,10.6114269 C110.094924,8.81794626 111.828312,7.22374129 114.84936,7.22374129 C119.35617,7.22374129 121.981015,10.2128756 121.981015,15.0453094 L121.981015,28.6956895 L116.037969,28.6956895 L116.037969,16.9384278 C116.037969,14.0987502 114.700784,12.654002 112.422617,12.654002 C110.144449,12.654002 108.708213,14.0987502 108.708213,16.9384278 L108.708213,28.6956895 L102.765167,28.6956895 L102.765167,7.62229253 L102.765167,7.62229253 Z M125.24969,18.1839005 L125.24969,18.0842627 C125.24969,11.059797 129.806026,7.17392238 134.808089,7.17392238 C137.977714,7.17392238 139.909203,8.61867064 141.34544,10.3125134 L141.34544,0 L147.288485,0 L147.288485,28.6956895 L141.34544,28.6956895 L141.34544,25.6567363 C139.909203,27.5996736 137.928188,29.0942408 134.808089,29.0942408 C129.905076,29.0942408 125.24969,25.258185 125.24969,18.1839005 Z M141.394965,18.1839005 L141.394965,18.0842627 C141.394965,14.5969393 139.067272,12.2554507 136.293851,12.2554507 C133.520429,12.2554507 131.192736,14.5471204 131.192736,18.0842627 L131.192736,18.1839005 C131.192736,21.6712239 133.520429,24.0127124 136.293851,24.0127124 C139.067272,24.0127124 141.394965,21.7210428 141.394965,18.1839005 Z M150.557161,18.2835383 L150.557161,18.1839005 C150.557161,12.1558129 154.816343,7.22374129 160.907965,7.22374129 C167.891044,7.22374129 171.110194,12.7038209 171.110194,18.6820895 C171.110194,19.1304597 171.060669,19.7282865 171.011143,20.2762945 L156.450681,20.2762945 C157.044986,22.9665154 158.92695,24.4112637 161.551795,24.4112637 C163.532811,24.4112637 164.969047,23.7636179 166.65291,22.2690507 L170.070161,25.308004 C168.138671,27.7491303 165.315724,29.2436975 161.50227,29.2436975 C155.212546,29.1938786 150.557161,24.7101771 150.557161,18.2835383 Z M165.36525,16.4900577 C165.018572,13.7998368 163.43376,12.0063562 160.957491,12.0063562 C158.481222,12.0063562 156.896409,13.7998368 156.401156,16.4900577 L165.36525,16.4900577 Z M174.576971,7.62229253 L180.520017,7.62229253 L180.520017,10.6114269 C181.906727,8.81794626 183.689641,7.22374129 186.710689,7.22374129 C189.434585,7.22374129 191.514651,8.41939502 192.60421,10.5616079 C194.436649,8.41939502 196.615766,7.22374129 199.488238,7.22374129 C203.895997,7.22374129 206.570367,9.91396218 206.570367,14.9954905 L206.570367,28.7455084 L200.627322,28.7455084 L200.627322,16.9384278 C200.627322,14.0987502 199.389187,12.654002 197.160545,12.654002 C194.931903,12.654002 193.545192,14.0987502 193.545192,16.9384278 L193.545192,28.6956895 L187.602146,28.6956895 L187.602146,16.9384278 C187.602146,14.0987502 186.364012,12.654002 184.135369,12.654002 C181.906727,12.654002 180.520017,14.0987502 180.520017,16.9384278 L180.520017,28.6956895 L174.576971,28.6956895 L174.576971,7.62229253 L174.576971,7.62229253 Z M210.879076,0 L217.119274,0 L217.119274,5.33062288 L210.879076,5.33062288 L210.879076,0 Z M211.027652,7.62229253 L216.970697,7.62229253 L216.970697,28.6956895 L211.027652,28.6956895 L211.027652,7.62229253 Z M220.536525,18.2835383 L220.536525,18.1839005 C220.536525,12.1558129 225.09286,7.22374129 231.53116,7.22374129 C235.49319,7.22374129 237.919934,8.56885173 239.900949,10.7608836 L236.285596,14.6965771 C234.948411,13.3016477 233.611226,12.3550885 231.53116,12.3550885 C228.559637,12.3550885 226.430045,14.9954905 226.430045,18.0842627 L226.430045,18.1839005 C226.430045,21.4221293 228.510111,24.0127124 231.729261,24.0127124 C233.710277,24.0127124 235.096987,23.165791 236.533223,21.7708617 L240,25.308004 C237.969459,27.5498547 235.641766,29.1440597 231.432109,29.1440597 C225.191911,29.1938786 220.536525,24.3116258 220.536525,18.2835383 Z M5.59636814,23.5145234 L21.7416426,23.5145234 L21.7416426,7.27356019 L5.59636814,7.27356019 L5.59636814,23.5145234 Z M0,1.59420497 L27.3380107,1.59420497 L27.3380107,29.1440597 L3.55271368e-15,29.1440597 L0,1.59420497 Z" id="Combined-Shape"></path>
        </g>
    </g>
</svg>