<?xml version="1.0" encoding="UTF-8"?>
<svg width="150px" height="28px" viewBox="0 0 150 28" version="1.1" xmlns="http://www.w3.org/2000/svg">
    <g stroke="none" stroke-width="1" fill="none" fill-rule="evenodd">
        <path d="M20.5811337,0 C24.6871933,0 28.0159049,3.36506272 28.0159049,7.51596258 C28.0159049,10.2801947 26.5387692,12.6943827 24.3400592,14 C26.5387692,15.3056173 28.0159049,17.7198053 28.0159049,20.4840374 C28.0159049,24.6349373 24.6871933,28 20.5811337,28 C17.7302763,28 15.255602,26.3772287 14.0079524,23.996518 C12.7603029,26.3772287 10.2856285,28 7.43477115,28 C3.32871152,28 0,24.6349373 0,20.4840374 C0,17.7198053 1.47713571,15.3056173 3.67584567,14 C1.47713571,12.6943827 0,10.2801947 0,7.51596258 C0,3.36506272 3.32871152,0 7.43477115,0 C10.2856285,0 12.7603029,1.62277132 14.0079524,4.00348198 C15.255602,1.62277132 17.7302763,0 20.5811337,0 Z M86.0216868,9.80615234 L88.4275937,17.8571777 L90.8215308,9.80615234 L94.5321335,9.80615234 L89.3253201,24.7597656 L89.0380476,25.4416504 L88.9342349,25.6573895 C88.1520344,27.2043186 86.9098722,27.9777832 85.2077481,27.9777832 C84.7050213,27.9777832 84.1943147,27.9020182 83.6756284,27.7504883 L83.6756284,27.7504883 L83.6756284,25.1306152 L84.2022945,25.1425781 L84.4399115,25.1379051 C84.9762407,25.1160978 85.3857972,25.0179647 85.6685811,24.8435059 C85.9917626,24.6441243 86.2451209,24.313151 86.4286561,23.8505859 L86.4286561,23.8505859 L86.8356254,22.7858887 L82.2991145,9.80615234 L86.0216868,9.80615234 Z M68.9347892,22.75 L68.9347892,25.4536133 L58.0304053,25.4536133 L58.0304053,22.75 L68.9347892,22.75 Z M75.5571034,9.56689453 C77.2009402,9.56689453 78.5156108,9.95369466 79.5011149,10.7272949 C80.486619,11.5008952 80.9793711,12.505778 80.9793711,13.7419434 L80.9793711,13.7419434 L77.5201319,13.7419434 L77.5126508,13.5605373 C77.4777392,13.1466338 77.3206371,12.7983704 77.0413444,12.5157471 C76.7221528,12.192749 76.2234159,12.03125 75.5451337,12.03125 C74.962609,12.03125 74.5117508,12.1628418 74.1925592,12.4260254 C73.8733676,12.689209 73.7137718,13.0241699 73.7137718,13.4309082 C73.7137718,13.8137207 73.895312,14.122762 74.2583925,14.3580322 C74.6214729,14.5933024 75.2339219,14.7966715 76.0957392,14.9681396 C76.9575566,15.1396077 77.6837176,15.3330078 78.2742221,15.5483398 C80.1015941,16.2182617 81.0152802,17.3786621 81.0152802,19.029541 C81.0152802,20.2098796 80.5085635,21.164917 79.49513,21.8946533 C78.4816966,22.6243896 77.173011,22.9892578 75.5690731,22.9892578 C74.4838215,22.9892578 73.5202618,22.7958577 72.6783939,22.4090576 C71.836526,22.0222575 71.1761983,21.4919027 70.6974109,20.8179932 C70.2186235,20.1440837 69.9792297,19.4163411 69.9792297,18.6347656 L69.9792297,18.6347656 L73.2589237,18.6347656 L73.2768043,18.8341471 C73.3437952,19.3516529 73.565259,19.7557328 73.9411958,20.0463867 C74.3641247,20.3733724 74.9306898,20.5368652 75.6408912,20.5368652 C76.3032138,20.5368652 76.8039457,20.4112549 77.1430868,20.1600342 C77.4822279,19.9088135 77.6517984,19.579834 77.6517984,19.1730957 C77.6517984,18.7504069 77.4423289,18.4174398 77.0233899,18.1741943 C76.6044509,17.9309489 75.9321535,17.713623 75.0064978,17.5222168 C71.9262987,16.8762207 70.3861991,15.568278 70.3861991,13.5983887 C70.3861991,12.4499512 70.8629916,11.4909261 71.8165765,10.7213135 C72.7701615,9.95170085 74.0170038,9.56689453 75.5571034,9.56689453 Z M101.166417,9.56689453 C102.810254,9.56689453 104.124925,9.95369466 105.110429,10.7272949 C106.095933,11.5008952 106.588685,12.505778 106.588685,13.7419434 L106.588685,13.7419434 L103.129446,13.7419434 L103.121965,13.5605373 C103.087053,13.1466338 102.929951,12.7983704 102.650658,12.5157471 C102.331467,12.192749 101.83273,12.03125 101.154448,12.03125 C100.571923,12.03125 100.121065,12.1628418 99.8018732,12.4260254 C99.4826816,12.689209 99.3230858,13.0241699 99.3230858,13.4309082 C99.3230858,13.8137207 99.504626,14.122762 99.8677065,14.3580322 C100.230787,14.5933024 100.843236,14.7966715 101.705053,14.9681396 C102.566871,15.1396077 103.293032,15.3330078 103.883536,15.5483398 C105.710908,16.2182617 106.624594,17.3786621 106.624594,19.029541 C106.624594,20.2098796 106.117877,21.164917 105.104444,21.8946533 C104.091011,22.6243896 102.782325,22.9892578 101.178387,22.9892578 C100.093136,22.9892578 99.1295758,22.7958577 98.2877079,22.4090576 C97.44584,22.0222575 96.7855123,21.4919027 96.3067249,20.8179932 C95.8279375,20.1440837 95.5885438,19.4163411 95.5885438,18.6347656 L95.5885438,18.6347656 L98.8682377,18.6347656 L98.8861183,18.8341471 C98.9531092,19.3516529 99.174573,19.7557328 99.5505098,20.0463867 C99.9734387,20.3733724 100.540004,20.5368652 101.250205,20.5368652 C101.912528,20.5368652 102.41326,20.4112549 102.752401,20.1600342 C103.091542,19.9088135 103.261112,19.579834 103.261112,19.1730957 C103.261112,18.7504069 103.051643,18.4174398 102.632704,18.1741943 C102.213765,17.9309489 101.541468,17.713623 100.615812,17.5222168 C97.5356127,16.8762207 95.9955131,15.568278 95.9955131,13.5983887 C95.9955131,12.4499512 96.4723056,11.4909261 97.4258905,10.7213135 C98.3794755,9.95170085 99.6263178,9.56689453 101.166417,9.56689453 Z M113.342666,6.62402344 L113.342666,9.80615234 L115.557058,9.80615234 L115.557058,12.3422852 L113.342666,12.3422852 L113.342666,18.8022461 L113.346967,18.9753342 C113.367042,19.3643773 113.457375,19.6496175 113.617969,19.8310547 C113.801504,20.0384115 114.152615,20.1420898 114.671301,20.1420898 C115.054331,20.1420898 115.393472,20.1141764 115.688724,20.0583496 L115.688724,20.0583496 L115.688724,22.6782227 L115.347921,22.7732612 C114.777144,22.9172589 114.192514,22.9892578 113.594029,22.9892578 C111.168173,22.9892578 109.931305,21.7650553 109.883427,19.3166504 L109.883427,19.3166504 L109.883427,12.3422852 L107.992216,12.3422852 L107.992216,9.80615234 L109.883427,9.80615234 L109.883427,6.62402344 L113.342666,6.62402344 Z M123.41225,9.56689453 C125.183763,9.56689453 126.578232,10.1251628 127.595655,11.2416992 C128.613078,12.3582357 129.12179,13.9413249 129.12179,15.9909668 L129.12179,15.9909668 L129.12179,17.4025879 L120.874676,17.4025879 L120.914954,17.6511768 C121.056077,18.3818701 121.379797,18.9769043 121.886115,19.4362793 C122.44869,19.946696 123.160886,20.2019043 124.022704,20.2019043 C125.355329,20.2019043 126.396691,19.719401 127.146792,18.7543945 L127.146792,18.7543945 L128.846487,20.6564941 L128.666794,20.8950873 C128.169486,21.5153854 127.527162,22.0080792 126.739822,22.3731689 C125.854066,22.7838949 124.872551,22.9892578 123.79528,22.9892578 C121.896089,22.9892578 120.350005,22.4070638 119.157026,21.2426758 C117.964048,20.0782878 117.367558,18.5270996 117.367558,16.5891113 L117.367558,16.5891113 L117.367558,16.2541504 L117.375099,15.8682874 C117.420345,14.7230798 117.669194,13.6893066 118.121648,12.7669678 C118.624375,11.7421468 119.336572,10.952596 120.258237,10.3983154 C121.179903,9.84403483 122.231241,9.56689453 123.41225,9.56689453 Z M49.6844563,5.33203125 L50.0523274,5.33623275 C51.9860322,5.38104875 53.4673464,5.78439271 54.49627,6.54626465 C55.5895013,7.35575358 56.136117,8.54207357 56.136117,10.1052246 C56.136117,10.9585775 55.9166727,11.7102458 55.4777843,12.3602295 C55.0388958,13.0102132 54.4284418,13.486735 53.6464223,13.7897949 C54.5401589,14.0131022 55.2443754,14.4637044 55.7590719,15.1416016 C56.2737684,15.8194987 56.5311166,16.6489258 56.5311166,17.6298828 C56.5311166,19.3046875 55.9964707,20.5727539 54.9271787,21.434082 C53.8578868,22.2954102 52.3337468,22.7340495 50.3547587,22.75 L50.3547587,22.75 L43.5799165,22.75 L43.5799165,5.33203125 L49.6844563,5.33203125 Z M145.834549,9.56689453 C147.238992,9.56689453 148.284345,9.97562663 148.970607,10.7930908 C149.656869,11.610555 150,12.8407389 150,14.4836426 L150,14.4836426 L150,22.75 L146.528791,22.75 L146.528791,14.4956055 L146.523471,14.2583415 C146.495099,13.6451326 146.353236,13.1878843 146.097882,12.8865967 C145.81061,12.5476481 145.303893,12.3781738 144.577732,12.3781738 C143.54036,12.3781738 142.822178,12.87264 142.423189,13.8615723 L142.423189,13.8615723 L142.435159,22.75 L138.975919,22.75 L138.975919,14.5075684 L138.97149,14.2888867 C138.944918,13.6515039 138.798768,13.1820801 138.533041,12.8806152 C138.237789,12.5456543 137.735062,12.3781738 137.02486,12.3781738 C136.043346,12.3781738 135.333145,12.7849121 134.894256,13.5983887 L134.894256,13.5983887 L134.894256,22.75 L131.435017,22.75 L131.435017,9.80615234 L134.678802,9.80615234 L134.786529,11.2536621 L134.951827,11.0610554 C135.851307,10.0649482 137.037065,9.56689453 138.509102,9.56689453 C140.176878,9.56689453 141.321978,10.2248535 141.944401,11.5407715 C142.854098,10.2248535 144.150813,9.56689453 145.834549,9.56689453 Z M50.4624859,15.1655273 L47.1708222,15.1655273 L47.1708222,19.8669434 L50.2470315,19.8669434 C51.0928893,19.8669434 51.753217,19.665568 52.2280145,19.2628174 C52.7028121,18.8600667 52.9402108,18.3037923 52.9402108,17.5939941 C52.9402108,15.9989421 52.1143025,15.1894531 50.4624859,15.1655273 L50.4624859,15.1655273 Z M123.40028,12.3662109 C122.714018,12.3662109 122.157428,12.5974935 121.730509,13.0600586 C121.30359,13.5226237 121.030282,14.1845703 120.910585,15.0458984 L120.910585,15.0458984 L125.722399,15.0458984 L125.722399,14.770752 L125.711866,14.5462683 C125.663029,13.888429 125.459066,13.3710938 125.099975,12.9942627 C124.700986,12.5755615 124.134421,12.3662109 123.40028,12.3662109 Z M49.6844563,8.23901367 L47.1708222,8.23901367 L47.1708222,12.6293945 L49.8280925,12.6293945 C51.639505,12.5974935 52.5452112,11.8757324 52.5452112,10.4641113 C52.5452112,9.67456055 52.3157922,9.10632324 51.8569543,8.75939941 C51.3981163,8.41247559 50.6739503,8.23901367 49.6844563,8.23901367 L49.6844563,8.23901367 Z"
              id="Combined-Shape" fill="#6e6e6e"></path>
    </g>
</svg>