<?xml version="1.0" encoding="UTF-8"?>
<svg width="56px" height="56px" viewBox="0 0 56 56" version="1.1" xmlns="http://www.w3.org/2000/svg" xmlns:xlink="http://www.w3.org/1999/xlink">
    <title>B9651644-B9E6-4CD1-A996-82FD555B00AA</title>
    <g id="Components-✅" stroke="none" stroke-width="1" fill="none" fill-rule="evenodd">
        <g id="Cards--✔" transform="translate(-372.000000, -2468.000000)" fill="#000000">
            <g id="Group-2" transform="translate(216.000000, 180.000000)">
                <g id="Group" transform="translate(0.000000, 124.000000)">
                    <g id="6.-Components/6.-Cards/4.-Testimonials/1.-Testimonial" transform="translate(0.000000, 2132.000000)">
                        <g id="4.-Elements_Microillustrations/Testimonial" transform="translate(156.000000, 32.000000)">
                            <path d="M39.8971187,42.7924528 C42.2897777,42.7924528 44.2683227,42.1532728 45.8327536,40.8749126 C47.3971845,39.5965525 48.1793999,37.8616352 48.1793999,35.6701607 C48.1793999,33.2960634 47.4662035,31.4241789 46.0398106,30.0545073 C44.6134177,28.6848358 42.7038918,28.2282786 40.3112327,28.6848358 C40.127182,26.3107384 40.7253468,24.3018868 42.105727,22.6582809 C43.4861072,21.0146751 45.2806015,19.6906592 47.4892098,18.6862334 L47.4892098,18.6862334 L43.7621833,13.2075472 C42.5658537,13.5727929 41.1854735,14.211973 39.6210426,15.1250874 C38.0566117,16.0382017 36.5842061,17.2480783 35.2038259,18.754717 C33.8234457,20.2613557 32.6501225,22.156068 31.6838564,24.4388539 C30.7175902,26.7216399 30.2344572,29.4153273 30.2344572,32.5199161 C30.2344572,35.8984393 31.108698,38.4551596 32.8571796,40.1900769 C34.6056612,41.9249942 36.9523075,42.7924528 39.8971187,42.7924528 Z M17.5871898,42.7924528 C19.9798488,42.7924528 21.9583938,42.1532728 23.5228247,40.8749126 C25.0872556,39.5965525 25.8694711,37.8616352 25.8694711,35.6701607 C25.8694711,33.2960634 25.1562746,31.4241789 23.7298817,30.0545073 C22.3034889,28.6848358 20.3939629,28.2282786 18.0013039,28.6848358 C17.8172532,26.3107384 18.4154179,24.3018868 19.7957981,22.6582809 C21.1761784,21.0146751 22.9706726,19.6906592 25.179281,18.6862334 L25.179281,18.6862334 L21.4522544,13.2075472 C20.2559249,13.5727929 18.8755447,14.211973 17.3111138,15.1250874 C15.7466828,16.0382017 14.2742773,17.2480783 12.8938971,18.754717 C11.5135169,20.2613557 10.3401937,22.156068 9.37392753,24.4388539 C8.40766138,26.7216399 7.9245283,29.4153273 7.9245283,32.5199161 C7.9245283,35.8984393 8.7987691,38.4551596 10.5472507,40.1900769 C12.2957323,41.9249942 14.6423787,42.7924528 17.5871898,42.7924528 Z" id="“"></path>
                        </g>
                    </g>
                </g>
            </g>
        </g>
    </g>
</svg>