<svg viewBox="0 0 668 818" xmlns="http://www.w3.org/2000/svg" xmlns:xlink="http://www.w3.org/1999/xlink"><defs><path id="o" d="M.338 2.027c-.822 1.745-.093 3.81 1.627 4.61l.098.045c1.72.801 3.779.036 4.6-1.71.82-1.745.092-3.808-1.628-4.609L4.937.317A3.383 3.383 0 0 0 3.505 0 3.51 3.51 0 0 0 .337 2.027z"/><path id="a" d="M0 0h166.13v143.45H0z"/><path id="e" d="M5.004 11.552.072 34.367C-.22 35.716.39 37.1 1.57 37.747c2.885 1.583 8.477 4.323 13.744 5.033 5.267.71 11.349-.46 14.53-1.225 1.298-.314 2.23-1.49 2.281-2.87l.861-23.364C33.31 7.71 27.956 1.106 20.665.123A13.837 13.837 0 0 0 18.824 0C12.26 0 6.436 4.737 5.005 11.552"/><path id="g" d="M0 0h29.096v16.719H0z"/><path id="i" d="m15.492.016-13.55 1.5C.537 1.672-.29 2.889.095 4.234L8.268 32.83c.385 1.346 1.836 2.31 3.24 2.155l13.551-1.5c1.404-.155 2.232-1.372 1.847-2.717L18.732 2.171C18.374.921 17.097 0 15.792 0c-.1 0-.2.005-.3.016"/><path id="k" d="M4.97 8.087c-1.688 3.97-3.914 6.789-4.97 6.292l3.333 1.565c1.056.495 3.281-2.323 4.971-6.294 1.69-3.97 2.203-7.591 1.147-8.087L6.118 0c1.056.495.542 4.116-1.147 8.087"/><path id="m" d="m.437 1.978-.061.115C-.54 3.795.273 5.808 2.19 6.589l.247.101c1.916.781 4.211.034 5.125-1.668l.063-.115C8.538 3.204 7.727 1.192 5.81.41L5.562.31A4.23 4.23 0 0 0 3.968 0C2.512 0 1.106.733.438 1.978z"/><path id="c" d="M0 0h58.596v125.09H0z"/><path id="q" d="M0 0h33.864v54.258H0z"/><path id="s" d="M0 0h170.16v143.19H0z"/><path id="u" d="M0 0h58.403v124.86H0z"/><path id="w" d="M0 0h66v66H0z"/><path id="y" d="M0 0h66v34H0z"/><path id="A" d="M0 0h43v43H0z"/></defs><g fill="none" fill-rule="evenodd"><path d="m495.85 411.593-2.3-2.268a3.742 3.742 0 0 0-2.627-1.077h-.937c1.28 0 2.243 1.17 1.997 2.427l-23.997 122.89 5.626.906 23.314-119.39a3.852 3.852 0 0 0-1.077-3.482" fill="#FFDAAB"/><path d="m467.99 533.56 23.997-122.89a2.036 2.036 0 0 0-1.997-2.427H363.647a2.85 2.85 0 0 0-2.809 2.37l-18.399 107.24h28.036l97.513 15.706z" fill="#E99462"/><g transform="translate(207 472.55)"><mask id="b" fill="#fff"><use xlink:href="#a"/></mask><path d="M166.01 140.47 124.244 19.03l4.681.26.11.006c.22.012.438 0 .655-.034l8.222-1.323a3.054 3.054 0 0 0 2.561-2.81l.03-.455c.006-.043.013-.084.017-.128l.082-1.22c.002-.024-.004-.045-.002-.068l.001-.027a3.053 3.053 0 0 0-2.794-3.25L54.129 3.047 24.408.549c-.113-.01-.222.003-.332.006l-6.51-.54a4.942 4.942 0 0 0-5.34 4.595 3.054 3.054 0 0 0 2.03 3.086l17.132 6.055a3 3 0 0 0 .42.115L.07 140.656a2.242 2.242 0 0 0 2.174 2.786H18.96a2.241 2.241 0 0 0 2.16-1.64L56.33 15.262l51.108 2.837L154.38 142a2.24 2.24 0 0 0 2.096 1.448h7.417a2.242 2.242 0 0 0 2.118-2.971" fill="#E99462" mask="url(#b)"/></g><path d="m245.139 486.8-5.905-.328a3 3 0 0 1-.428-.055l-31.737 126.79a2.242 2.242 0 0 0 2.174 2.786h6.429a2.242 2.242 0 0 1-2.174-2.786l31.64-126.41zM228.103 475.94a3.043 3.043 0 0 1 2.97-2.832l-6.51-.54a4.942 4.942 0 0 0-5.338 4.582l9.298.533a3.032 3.032 0 0 1-.42-1.743" fill="#FFDAAB"/><g transform="translate(319.13 490.91)"><mask id="d" fill="#fff"><use xlink:href="#c"/></mask><path d="M58.472 122.12 16.795.94-.001.007l46.841 123.64a2.24 2.24 0 0 0 2.095 1.448h7.417a2.242 2.242 0 0 0 2.12-2.972" fill="#FFDAAB" mask="url(#d)"/></g><path d="m479.93 408.084-2.864-1.934a17.255 17.255 0 0 0-9.655-2.955h-2.733c4.152 0 7.272 3.79 6.476 7.867l-18.537 99.568a6.96 6.96 0 0 1-7.025 5.685l9.495 1.274a8.987 8.987 0 0 0 10.02-7.225l18.027-94.529a7.596 7.596 0 0 0-3.203-7.751" fill="#0097B8"/><path d="m452.61 510.63 18.537-99.568c.796-4.077-2.324-7.868-6.476-7.868H351.348a11.717 11.717 0 0 0-11.546 9.737l-13.227 82.056a5.885 5.885 0 0 0 5.06 6.775l113.25 14.499a6.96 6.96 0 0 0 7.724-5.63" fill="#00547A"/><path d="m459.54 514.11-90.576-14.765a6.04 6.04 0 0 0-.97-.079h-4.43a4.92 4.92 0 0 1 4.918 4.921v9.844a4.92 4.92 0 0 1-4.919 4.92h4.919v-.093l88.538 14.026a6.032 6.032 0 0 0 6.952-5.43l.606-6.856a6.034 6.034 0 0 0-5.039-6.487" fill="#0097B8"/><path d="M368.48 514.03v-9.844a4.92 4.92 0 0 0-4.918-4.92H223.157a4.92 4.92 0 0 0-4.918 4.92V514.03a4.92 4.92 0 0 0 4.918 4.92h140.405a4.92 4.92 0 0 0 4.918-4.92" fill="#00547A"/><path d="M370.48 517.86H217.634a1.977 1.977 0 0 0-1.976 1.976v3.426c0 1.092.885 1.977 1.976 1.977h12.029v.013l9.437 2.97a5.08 5.08 0 0 1 3.396 3.587l1.187 4.64a4.346 4.346 0 0 0 4.164 3.269l160.18 1.705 81.798 12.927-4.607-18.009-11.598-1.868-103.14-16.613z" fill="#E99462"/><path d="M447.25 374.582a12.899 12.899 0 0 0-5.542-16.057l-4.984-2.852-18.9-10.07-20.44-3.502-.536-.092-11.821-2.025-21.516 4.998c-1.6.372-3.183.84-4.738 1.403l-9.044 4.003c-6.976 2.523-11.28 9.592-9.941 16.329l2.314 36.954-15.189 57.236c-.392 1.62.254 3.217 1.64 4.044 2.33 1.391 6.09 3.846 9.663 7.085 10.228 9.272 28.675 12.438 28.675 12.438s18.45 3.156 32.582-1.942c4.816-1.738 9.404-2.737 12.269-3.253 1.794-.323 3.264-1.719 3.645-3.442l13.423-55.917 18.44-45.337z" fill="#FC95A4"/><path d="M395.59 371.557c.259.026.454.22.506.461l6.205-1.85a.727.727 0 0 1 .44.007l6.885 2.328a1.5 1.5 0 0 0 1.911-.972l3.146-10.032 2.18-16.061-19.477-3.338-.537-.092-11.821-2.025-21.516 4.998c-1.6.373-3.182.841-4.738 1.403l-.024.01 21.136 22.027c.352.367.866.53 1.366.434l6.88-1.329a.728.728 0 0 1 .534.105l6.397 4.172a.593.593 0 0 1 .527-.247M338.21 472.04c6.733 6.104 17.028 9.561 23.277 11.212l-9.823-113.16c-.055-.634-.936-.744-1.145-.143l-9.629 27.66 1.207 6.07-7.262 27.365-3.641 35.585c2.09 1.387 4.595 3.22 7.016 5.415M369.36 484.3c-.038.21.049.41.199.541l.653.074a.58.58 0 0 0 .303-.405c.067-.37 5.271-28.941 10.667-50.42l-1.21.007c-5.384 21.504-10.545 49.835-10.612 50.203" fill="#DB594A"/><path d="M396.11 372.201a.574.574 0 0 0-.018-.183.582.582 0 0 0-.506-.461.593.593 0 0 0-.528.247.557.557 0 0 0-.115.278c-.02.199-1.805 17.216-7.185 35.953l.614 2.078c5.812-19.527 7.717-37.706 7.738-37.912M404.13 400.165a.882.882 0 0 1 .608 1.062c-.097.385-.198.768-.296 1.153l.95.623 3.865 2.51.97.62c.356.226.749.438 1.145.607a7.883 7.883 0 0 0 2.503.607 8.62 8.62 0 0 0 2.545-.21c.757-.174 1.493-.372 2.24-.56 2.618-.68 5.227-1.398 7.81-2.233l.401-.844c-2.884.388-5.735.919-8.576 1.493-.75.155-1.51.305-2.25.472a6.864 6.864 0 0 1-2.035.13 6.313 6.313 0 0 1-1.957-.466 6.474 6.474 0 0 1-.891-.467l-.974-.616-3.917-2.43-.98-.603a2.243 2.243 0 0 1-.626-.56 2.27 2.27 0 0 1-.427-1.638c.025-.264.137-.664.223-1.036l.269-1.121c.182-.747.355-1.496.523-2.246.338-1.5.692-2.997 1-4.506a.365.365 0 0 0-.702-.19c-.497 1.457-.949 2.926-1.417 4.392-.234.732-.465 1.465-.685 2.201l-.335 1.104c-.105.37-.239.704-.325 1.2a3.81 3.81 0 0 0 .263 2.122.878.878 0 0 1 1.078-.57" fill="#DB594A"/><path d="M416.69 420.24c-1.558.586-3.11 1.189-4.653 1.81-.202.083-.373.147-.537.205-.169.054-.34.106-.512.142-.345.084-.7.11-1.047.112-.696-.01-1.39-.156-1.982-.48a3.588 3.588 0 0 1-.814-.582 5.262 5.262 0 0 1-.358-.386l-.406-.473-1.62-1.898-1.622-1.896-.81-.948-.203-.238c-.063-.077-.1-.12-.146-.185a2.9 2.9 0 0 1-.23-.381c-.266-.535-.326-1.174-.184-1.784l.639-2.375a524.746 524.746 0 0 0 2.235-8.503c.098-.384.199-.767.296-1.153a.878.878 0 0 0-1.686-.492c-.004.011-.01.02-.013.03a554.91 554.91 0 0 0-2.701 9.609l-.662 2.443c-.24 1.005-.15 2.121.325 3.082a4.282 4.282 0 0 0 .664.982l.207.234.825.935 1.653 1.869 1.652 1.87.413.467c.127.144.326.359.5.517.365.343.785.619 1.224.845.88.454 1.866.657 2.829.626.48-.02.96-.077 1.42-.204.232-.058.458-.135.68-.217.227-.09.442-.178.62-.265 1.512-.69 3.017-1.401 4.515-2.129.499-.236.995-.482 1.491-.726l.697-1.465c-.904.325-1.805.657-2.699 1.002M412.83 400.432c-.294 1.081.36 2.11 1.461 2.3 1.1.188 2.232-.535 2.526-1.617.293-1.082-.36-2.111-1.462-2.3-1.1-.188-2.232.535-2.525 1.617M420.07 456.32l-7.307-3.265s-1.382-.612-.858-2.036l-31.474-6.743 12.295 14.059 23.55 13.789 3.794-15.803z" fill="#DB594A"/><path d="M421.01 429.99c.227-.508.623-.735.996-.829.446-.112.92-.025 1.325.192l2.846 1.523 2.63-10.957 5.224-12.985-1.617-15.102-5.547 11.667-.69-.74-6.79 16.478-.696 1.464-4.413 9.283 6.734 2.776c.26-1.282.317-2.314-.002-2.77" fill="#DB594A"/><path d="M418.12 441.21c.889-1.995 2.343-5.772 2.889-8.448l-6.734-2.775-16.54-6.819a6.913 6.913 0 0 0-.878-.289l-1.915-1.132-1.391-6.19a2.54 2.54 0 0 0-.992-.835l-3.023-1.063.865 2.875-.12.036-1.911-6.456-.615-2.078-2.248-7.592c-.505-1.71-2.394-2.94-4.217-2.75l-12.936 1.35c-1.853.193-2.938 1.758-2.424 3.495l3.874 13.088a2.7 2.7 0 0 0-1.777.616l-.595.495a.467.467 0 0 0 .088.778l2.441 1.29-.318 2.459a2.43 2.43 0 0 0 .229 1.381l4.302 8.813a3.475 3.475 0 0 0 2.149 1.796l2.371.696c.332.098.675.146 1.021.144h.253l1.21-.007 9.573-.046c.066.057.128.116.196.17l21.084 16.646c1.306-.307 4.96-7.11 6.09-9.648" fill="#DB594A"/><path d="m412.76 453.05 7.307 3.265 6.107-25.443-2.845-1.523c-.406-.216-.88-.304-1.326-.192-.374.094-.77.32-.996.83.319.457.263 1.489.002 2.77-.546 2.676-2 6.452-2.89 8.447-1.13 2.538-4.783 9.34-6.088 9.648-.025.006-.05.014-.074.015-.022.05-.037.098-.055.147-.524 1.424.858 2.036.858 2.036" fill="#DB594A"/><path fill="#fff" d="m395.28 371.899 17.62-19.323-28.61-2.675z"/><path d="M414.41 352.154a3.02 3.02 0 0 1-2.331 2.831c-3.25.756-9.463 1.908-14.843 1.209-5.381-.7-11.094-3.403-14.042-4.964a3.022 3.022 0 0 1-1.53-3.334l5.038-22.502c1.599-7.344 8.55-12.241 16-11.272 7.45.968 12.919 7.48 12.588 14.99l-.88 23.042z" fill="#FFDAAB"/><g transform="translate(383 313)"><mask id="f" fill="#fff"><use xlink:href="#e"/></mask><path d="M33.235 19.285s-12.739 18.01-34.248 8.797c0 0-5.245-12.389 2.31-16.61s32.598-2.365 31.938 7.813" fill="#E99462" mask="url(#f)"/></g><g><path d="m405.39 334.207-1.844.398a13.694 13.694 0 0 1-5.782 0l-1.843-.398c-7.689-1.66-13.381-8.273-13.977-16.238l-.433-5.78a26.31 26.31 0 0 1-.02-3.623l1.052-16.62c.239-3.771 2.974-6.892 6.633-7.568l5.627-1.038a32.243 32.243 0 0 1 11.704 0l5.627 1.038c3.658.676 6.394 3.797 6.633 7.567l1.052 16.621a26.31 26.31 0 0 1-.02 3.623l-.433 5.78c-.596 7.965-6.288 14.578-13.977 16.238" fill="#FFD9AF"/><path d="M378.229 301.605c-1.753.088-3.858 2.421-2.315 7.485 1.543 5.063 2.99 7.906 5.402 7.366 2.712-.606 1.803-6.722 1.448-9.018-.386-2.5-1.641-5.98-4.535-5.833M423.15 301.605c1.753.088 3.859 2.421 2.315 7.485-1.543 5.063-2.99 7.906-5.402 7.366-2.712-.606-1.803-6.722-1.448-9.018.386-2.5 1.641-5.98 4.535-5.833" fill="#FFD9AF"/><path d="M382.764 307.437c-.303-1.966-1.149-4.532-2.903-5.468.712.886 1.276 2.034 1.276 3.732 0 3.373-.348 7.336-2.589 7.695-.425.069-.767.074-1.057.022 1.058 2.265 2.23 3.394 3.824 3.038 2.713-.606 1.803-6.722 1.449-9.019M421.71 315.72c-2.24-.36-1.47-6.645-1.47-10.018 0-1.167.108-2.143.302-2.974-1.108 1.204-1.689 3.148-1.93 4.71-.354 2.297-1.263 8.413 1.449 9.019.901.201 1.668-.07 2.354-.753a2.008 2.008 0 0 1-.705.016" fill="#E99462"/><path d="M404.514 331.533c-11.576-1.177-19.63-9.254-20.193-15.293-.399-4.278-.532-5.998-.666-9.121a5.1 5.1 0 0 0-1.835-3.753l-.33 5.2a26.401 26.401 0 0 0 .021 3.623l.433 5.78c.596 7.965 6.288 14.578 13.976 16.238l1.844.398c1.906.411 3.876.411 5.782 0l1.844-.398a17.499 17.499 0 0 0 5.975-2.534c-1.792.152-4.038.145-6.85-.14" fill="#E99462"/><path d="M400.655 278.46c-12.155 0-20.548 6.97-20.548 12.166l.553 11.55c.014.326.142.63.332.894.283.39.66 1.28.66 3.24v5.999a.76.76 0 0 0 .753.765h.891c.42 0 .76-.348.753-.774-.022-1.4-.057-4.418.014-6.676.097-3.04 1.448-5.294 1.544-7.183.096-1.89-2.412-6.442 1.736-9.677 2.667-2.08 7.406-1.241 10.451-.377 1.87.53 3.853.53 5.722 0 3.045-.864 7.785-1.703 10.451.377 4.148 3.235 1.64 7.788 1.736 9.677.097 1.89 1.447 4.144 1.544 7.183.072 2.258.037 5.275.014 6.676a.757.757 0 0 0 .753.774h.891a.76.76 0 0 0 .753-.765v-6c0-1.96.377-2.849.66-3.24a1.66 1.66 0 0 0 .332-.893l.553-11.55c0-5.196-8.394-12.166-20.548-12.166" fill="#0097B8"/><path d="m380.107 290.626.553 11.55c.014.326.142.63.332.893.283.392.66 1.28.66 3.241v5.999a.76.76 0 0 0 .753.765h.044c.192-1.332.26-4.229.284-7.28.014-1.805.762-4.4.762-6.016 0-4.993-2.304-4.457-1.457-9.705.636-3.938 6.114-2.136 7.076-5.694.51-1.885-.601-2.522-1.76-2.704-4.549 2.493-7.247 6.006-7.247 8.951" fill="#00547A"/><g transform="translate(384.287 276)"><mask id="h" fill="#fff"><use xlink:href="#g"/></mask><path d="M1.359 3.413a.99.99 0 0 0-1.284.857c-.333 3.427.003 12.45 10.502 12.45 12.81 0 17.413-5.562 18.401-7.44C29.66 7.987 27.555.81 17.898.086 8.237-.638 6.001 3.492 3.967 3.698c-1.02.104-1.943-.078-2.61-.285" fill="#0097B8" mask="url(#h)"/></g><path d="M409.337 285.18c-3.327-.534-12.869 2.402-19.347.178-3.833-1.316-4.018-3.878-3.531-5.75a7.287 7.287 0 0 1-.813-.195.99.99 0 0 0-1.284.858c-.332 3.425.003 12.449 10.502 12.449 8.51 0 13.394-2.454 16.007-4.652.684-1.099 1.346-2.426-1.533-2.888" fill="#00547A"/><path d="M419.65 313.209c0-1.92.003-3.34.006-4.097a.613.613 0 0 0-.612-.62h-1.117a.646.646 0 0 0-.639.65c-.01 1.972-.094 2.117-.708 3.142-1.007 1.683-2.345 2.468-5.608 2.468-3.236 0-5.156-.958-10.317-.958-5.16 0-7.081.958-10.318.958-3.262 0-4.6-.785-5.607-2.468-.614-1.025-.698-1.17-.708-3.142a.646.646 0 0 0-.638-.65h-.99c-.467 0-.741.276-.74.62.002.756.006 2.176.006 4.097 0 2.948-1.063 3.715-1.063 7.124 0 4.533 4.93 15.825 20.058 15.825s20.058-11.292 20.058-15.825c0-3.409-1.063-4.176-1.063-7.124" fill="#0097B8"/><path d="M404.514 331.533c-11.576-1.177-14.099-4.69-15.249-9.208-1.15-4.517-3.787-4.517-4.944-6.085-1.062-1.44-1.82-3.947-1.63-7.748h-.296c-.469 0-.742.276-.741.62.003.756.006 2.176.006 4.097 0 2.948-1.063 3.715-1.063 7.124 0 4.533 4.929 15.825 20.058 15.825 6.856 0 11.611-2.321 14.768-5.279-1.985.696-5.338 1.22-10.909.654" fill="#00547A"/><path d="M404.681 306.409c.406-.87 1.352-1.461 2.329-1.55.49-.044.992.024 1.443.215.45.187.853.488 1.124.88a.308.308 0 0 1-.073.426.296.296 0 0 1-.285.033l-.013-.006c-.732-.305-1.403-.437-2.09-.376-.688.06-1.33.316-1.989.755l-.011.007a.295.295 0 0 1-.415-.086.31.31 0 0 1-.02-.298M395.006 306.786c-.66-.44-1.3-.696-1.988-.755-.688-.061-1.36.072-2.09.376l-.013.005a.298.298 0 0 1-.391-.166.313.313 0 0 1 .032-.292 2.544 2.544 0 0 1 1.125-.88c.45-.191.952-.26 1.442-.216.977.09 1.923.682 2.33 1.55a.307.307 0 0 1-.143.406.296.296 0 0 1-.292-.02l-.012-.008z" fill="#1C417D"/><path d="M392.888 312.178h-2.462a1.414 1.414 0 0 1-1.402-1.426c0-.787.627-1.425 1.402-1.425h2.462c.775 0 1.403.638 1.403 1.425 0 .788-.629 1.426-1.403 1.426M409.707 312.178h-2.462a1.414 1.414 0 0 1-1.403-1.426c0-.787.628-1.425 1.403-1.425h2.462c.775 0 1.403.638 1.403 1.425 0 .788-.629 1.426-1.403 1.426" fill="#FC95A4"/><path d="m396.484 299.031-.717-1.478c-.277-.57-.715-.752-1.115-.61-1.325.474-4.25 1.703-6.427 3.96a.716.716 0 0 0-.191.588l.13 1.037a.332.332 0 0 0 .509.243c1.003-.651 3.662-2.18 7.355-2.821a.645.645 0 0 0 .456-.919M403.605 299.342l.612-1.526c.236-.589.66-.803 1.069-.69 1.355.376 4.358 1.391 6.689 3.484a.72.72 0 0 1 .232.573l-.058 1.044a.333.333 0 0 1-.49.28c-1.046-.577-3.806-1.911-7.535-2.283-.42-.041-.678-.486-.519-.882" fill="#00547A"/><path d="m399.109 305.267-.24 7.057c-.03.87.704 1.568 1.556 1.48l1.578-.163c.295-.03.57-.167.773-.385l.297-.316" fill="#FFD9AF"/><path d="M399.478 305.28c.098 1.042.134 2.082.154 3.122.02 1.04.01 2.077-.017 3.115l-.021.778a.762.762 0 0 0 .674.836c.038.001.058.005.113.005l.192-.007.383-.018.768-.018c.517.017.57-.01 1.072-.421a.382.382 0 0 1 .542.06c.111.138.112.33.016.47l-.004.006-.223.322a1.71 1.71 0 0 1-.362.364c-.145.106-.31.187-.483.243-.081.028-.19.049-.255.062l-.188.036-.756.14-.38.06-.189.032c-.071.01-.18.02-.268.024a2.073 2.073 0 0 1-1.862-1.138 2.228 2.228 0 0 1-.236-1.109l.031-.778c.043-1.037.103-2.073.195-3.108.09-1.036.197-2.07.366-3.104a.373.373 0 0 1 .428-.311c.17.029.294.17.31.337" fill="#E99462"/><path d="m399.537 319.852 2.264.02a6.4 6.4 0 0 0 2.53-.498l3.406-1.425c.49-.204 1.012.213.932.746l-.322 2.146a2.64 2.64 0 0 1-2.325 2.248l-1.269.132a4.21 4.21 0 0 1-1.61-.144l-1.857-.537a3.138 3.138 0 0 1-1.582-1.065l-.587-.74c-.283-.357-.03-.887.42-.883" fill="#fff"/><path d="m414.73 340.335-.41 9.141-12.978 10.953a7.349 7.349 0 0 0-1.968 2.62l-4.18 9.374 8.48-8.252a.71.71 0 0 1 1.098.13l5.061 7.936a.748.748 0 0 0 1.28-.02c1.673-2.813 6.312-10.969 9.443-19.876a6.108 6.108 0 0 0-.404-4.988l-2.963-5.334a3.31 3.31 0 0 0-2.459-1.685M384.378 336.326l-1.903 8.944 9.791 13.96a7.418 7.418 0 0 1 1.243 3.046l1.684 10.148-6.122-10.181a.711.711 0 0 0-1.096-.16l-6.888 6.358a.75.75 0 0 1-1.233-.352c-.91-3.155-3.343-12.245-4.128-21.668-.146-1.742.444-3.465 1.645-4.718l4.206-4.387a3.283 3.283 0 0 1 2.801-.99M341.108 358.905l-29.648 56.297c-2.909 5.524-1.354 12.382 3.64 16.055 5.613 4.128 13.469 2.744 17.388-3.062l35.542-52.655c5.21-7.72 2.832-18.315-5.156-22.975-7.717-4.501-17.567-1.632-21.765 6.34" fill="#FC95A4"/><path d="m352.944 370.218-19.43 22.988a24.417 24.417 0 0 1-3.264 3.2l-15.526 12.598-3.264 6.198c-2.909 5.523-1.353 12.382 3.64 16.055 5.613 4.128 13.469 2.745 17.388-3.061l22.733-33.68-.562-23.677c-.021-.907-1.133-1.31-1.714-.622" fill="#DB594A"/><path d="M357.181 393.97c3.274 1.717 7.295.307 8.83-3.097l2.667-5.915s3.661-1.443 6.337-4.672c2.224-2.683 3.799-4.38 4.515-4.949.144-.114.263-.249.358-.407.29-.484.995-1.641 1.608-2.506.437-.615.03-1.476-.717-1.51-.713-.03-1.686.225-2.912 1.211-1.854 1.493-3.085 2.173-3.085 2.173s-.474-1.62 2.21-5.924c2.683-4.304 4.674-8.014 5.087-9.87.194-.876-.172-1.605-.614-2.132a1.045 1.045 0 0 0-1.71.158l-1.069 1.85s-4.364 1.795-5.32 2.266c-.956.472-2.6 2.942-2.6 2.942l-6.964 3.87a7.486 7.486 0 0 0-3.19 3.49l-2.771 6.196-2.091 5.783-1.06 1.7c-2.03 3.253-.878 7.576 2.49 9.343" fill="#FFDAAB"/><path d="m316.168 411.89 39.9-29.112c2.91-2.124 6.952-1.52 9.138 1.364 1.994 2.632 1.81 6.346-.436 8.76l-33.75 36.268a11.21 11.21 0 0 1-15.645.808c-5.556-4.87-5.167-13.739.793-18.088" fill="#FFDAAB"/><path d="M323.524 432.74a11.226 11.226 0 0 0 7.497-3.575l33.749-36.268a6.753 6.753 0 0 0 1.515-2.635l2.393-5.307s1.815-.72 3.823-2.27c-2.54.437-4.164-.85-6.378 1.146l-22.075 19.892a14.03 14.03 0 0 1-11.265 2.946l-7.637-1.334-8.978 6.55c-2.919 2.13-4.498 5.345-4.7 8.643l12.056 12.212zM369.409 372.637s-2.518 2.061-1.863 1.833c1.565-.543 2.851.583 3.755 1.982.762 1.181.428 1.407-.061 2.558-.142.332 2.051-.483 2.784-2.378.181-.47 2.373-2.113 3.567-3.053 1.042-.821 1.984-1.097 2.967-1.92.267-.223.398-.462.431-.708a.93.93 0 0 0-.209-.04c-.713-.03-1.687.225-2.911 1.211-1.855 1.493-3.086 2.172-3.086 2.172s-.474-1.62 2.21-5.923a109.95 109.95 0 0 0 2.379-3.99c.901-1.862 1.607-4.006.944-5.061 0 0-.347 3.118-3.097 4.336l1.25.165s-.11 1.567-2.228 2.408c-.899.356-1.08 1.752-1.825 2.955-.239.384-1.187.527-1.387.898-.148.275-.284.54-.406.784-.41.828-3.214 1.771-3.214 1.771" fill="#E99462"/><path d="m329.43 431.43 6.183-4.956-11.384-19.902-8.375 5.41c-5.765 3.723-7.2 11.642-3.119 17.207 3.952 5.39 11.502 6.404 16.695 2.241" fill="#DB594A"/><path d="M338.837 423.12s1.22-1.43.252-2.574c-1.143.61-6.357-4.518-8.07-6.548-1.94-2.298-5.925-7.817-5-9.315-.327-.386-.804-.477-1.242-.464-.523.018-1.051.216-1.481.513a479.584 479.584 0 0 0-8.834 6.255c-.824.595-1.314 1.47-1.296 2.41.02 1.96.951 5.841 5.484 11.259 4.528 5.412 8.398 7.184 10.481 7.665 1.031.248 2.11-.195 2.88-1.116 2.27-2.703 4.544-5.398 6.826-8.085" fill="#FC95A4"/><path d="M335.09 424.97c-1.054.393-2.04.078-3.11-.375-1.097-.46-2.381.242-2.316 1.667.034.68 1.007 1.213 1.34 2.087.173.457-.181.968-.611.877-1.614-.333-4.899-1.675-8.948-6.302-3.508-4.008-4.032-7.205-3.805-9.046.07-.6.978-.676 1.197-.104.81 2.135 2.658 5.72 5.651 7.176 7.6 3.685-6.862-7.57-2.17-13.663.297-.377.96-.3 1.093.125.765 2.673 4.471 11.718 11.842 16.438.39.245.29.95-.163 1.12m3.999-4.42c-1.144.61-6.357-4.518-8.07-6.548-1.94-2.297-5.925-7.817-5.002-9.315-.325-.385-.802-.477-1.241-.463-.523.017-1.05.216-1.48.513a474.977 474.977 0 0 0-8.834 6.254c-.825.595-1.315 1.47-1.297 2.411.02 1.96.951 5.84 5.484 11.259 4.528 5.411 8.398 7.184 10.481 7.665 1.03.248 2.11-.195 2.88-1.116 2.27-2.703 4.544-5.398 6.826-8.085 0 0 1.22-1.43.252-2.575" fill="#DB594A"/><path d="M363.427 386.05a12.305 12.305 0 0 0 2.047-6.303c.125-2.937.377-6.724.85-6.79.773-.109 2.894-.343 4.084-.76.71-.25-.364 1.44-2.104 2.164-.524.217 2.204 2.97.861 6.156-1.142 2.711-6.976 7.389-6.976 7.389l1.238-1.856z" fill="#E99462"/><path d="m391.696 418.48-14.483 1.639c-1.45.164-2.948-.854-3.345-2.274l-8.115-29.029c-.518-1.852.596-3.528 2.489-3.742l13.213-1.495c1.862-.211 3.785 1.096 4.295 2.92l8.054 28.81c.439 1.57-.505 2.99-2.108 3.171" fill="#009F70"/><path d="m390.424 418.62-13.334 1.509c-1.383.155-2.81-.814-3.188-2.168l-8.043-28.773c-.379-1.353.435-2.577 1.817-2.733l13.334-1.51c1.383-.156 2.81.815 3.188 2.168l8.044 28.773c.378 1.353-.436 2.577-1.818 2.734" fill="#005639"/></g><g transform="translate(366 383)"><mask id="j" fill="#fff"><use xlink:href="#i"/></mask><path d="M5.662 8.03 3.21 2.996c-.383-.786-1.407-1.141-2.094-.728C.513 2.633.255 3.33.46 4.046L8.588 32.48c.433 1.514 2.064 2.598 3.645 2.423l15.776-1.745c-.504-1.764-1.704-3.38-3.345-4.509l-2.46-1.69C15.032 22.032 9.279 15.447 5.663 8.029" fill="#002316" mask="url(#j)"/></g><g><path d="m373.695 392.86-3.497.39c-.864.097-1.756-.501-1.992-1.335l-1.148-4.052c-.236-.834.272-1.588 1.136-1.685l3.497-.39c.863-.096 1.755.502 1.991 1.336l1.148 4.051c.237.834-.272 1.589-1.135 1.685" fill="#009F70"/><path d="m373.784 392.851-3.296.368c-.814.09-1.655-.473-1.878-1.26l-1.081-3.818c-.223-.786.256-1.498 1.07-1.588l3.296-.368c.815-.09 1.655.473 1.878 1.26l1.082 3.818c.223.786-.256 1.497-1.07 1.588" fill="#1C417D"/><path d="M369.417 387.583a.848.848 0 0 0-.102.006.717.717 0 0 0-.53.304.717.717 0 0 0-.082.602c.132.462.628.801 1.104.74a.717.717 0 0 0 .53-.305.712.712 0 0 0 .082-.601c-.122-.43-.558-.746-1.002-.746m.29 1.809c-.51 0-1.009-.363-1.148-.856a.862.862 0 0 1 .1-.726c.141-.21.367-.341.64-.372.542-.055 1.115.32 1.265.85a.862.862 0 0 1-.102.726.864.864 0 0 1-.638.371 1.097 1.097 0 0 1-.116.007" fill="#B8DDFF"/><path d="M369.581 388.117a.37.37 0 0 0-.05.003.338.338 0 0 0-.25.152.38.38 0 0 0-.038.302c.064.241.31.417.544.387a.337.337 0 0 0 .251-.153.38.38 0 0 0 .038-.301.533.533 0 0 0-.495-.39m.159 1.038a.72.72 0 0 1-.67-.529.577.577 0 0 1 .061-.46.512.512 0 0 1 .38-.236.723.723 0 0 1 .737.525.573.573 0 0 1-.06.46.515.515 0 0 1-.448.24M370.417 391.066c-.016 0-.033 0-.05.003a.336.336 0 0 0-.251.152.379.379 0 0 0-.037.301c.064.242.306.42.543.388a.336.336 0 0 0 .252-.152.38.38 0 0 0 .037-.302.533.533 0 0 0-.494-.39m.158 1.038a.72.72 0 0 1-.669-.529.576.576 0 0 1 .061-.461.512.512 0 0 1 .38-.235.721.721 0 0 1 .737.524.577.577 0 0 1-.061.461.512.512 0 0 1-.448.24M372.277 389.005a.37.37 0 0 0-.05.003.337.337 0 0 0-.25.152.377.377 0 0 0-.038.301c.065.241.306.423.544.388a.336.336 0 0 0 .251-.152.38.38 0 0 0 .038-.303.533.533 0 0 0-.495-.389m.158 1.038a.72.72 0 0 1-.668-.529.575.575 0 0 1 .06-.46.516.516 0 0 1 .38-.236c.32-.032.65.197.737.524a.574.574 0 0 1-.061.461.51.51 0 0 1-.448.24" fill="#0080F6"/><path d="M370.252 390.532a.848.848 0 0 0-.102.006.717.717 0 0 0-.53.305.715.715 0 0 0-.08.601c.13.462.624.794 1.103.74a.717.717 0 0 0 .53-.305.713.713 0 0 0 .081-.601c-.122-.43-.557-.746-1.002-.746m.291 1.809c-.51 0-1.01-.363-1.149-.856a.863.863 0 0 1 .101-.726c.14-.21.367-.341.639-.372.546-.056 1.115.32 1.265.85a.862.862 0 0 1-.1.726.865.865 0 0 1-.64.371c-.039.004-.077.007-.116.007M372.113 388.47a.848.848 0 0 0-.102.006.716.716 0 0 0-.53.305.715.715 0 0 0-.082.601c.132.462.626.8 1.104.74a.717.717 0 0 0 .53-.305.711.711 0 0 0 .082-.601c-.122-.43-.558-.746-1.002-.746m.29 1.809c-.51 0-1.009-.363-1.148-.856a.863.863 0 0 1 .1-.726c.141-.21.368-.341.64-.372.542-.054 1.115.32 1.265.85a.862.862 0 0 1-.102.726.864.864 0 0 1-.638.371 1.097 1.097 0 0 1-.116.007M372.072 387.409a.28.28 0 0 1-.247.366.417.417 0 0 1-.433-.29.28.28 0 0 1 .247-.366.416.416 0 0 1 .433.29" fill="#B8DDFF"/><path d="M382.632 401.168c.448 1.58-.515 3.01-2.151 3.192-1.636.182-3.325-.95-3.773-2.531-.447-1.58.515-3.009 2.151-3.192 1.636-.183 3.325.95 3.773 2.531" fill="#005639"/><path d="m450.402 370.492 4.57 68.623c.399 5.975-3.648 11.334-9.492 12.57-6.665 1.41-13.162-3.02-14.303-9.754l-11.49-67.803c-1.509-8.9 4.845-17.209 13.81-18.058 8.678-.822 16.324 5.7 16.905 14.422" fill="#FC95A4"/><path d="M440.796 431.344a42.672 42.672 0 0 0-1.133-8.312l-9.74-40.864-4.73 24.447 5.984 35.314a12.013 12.013 0 0 0 10.379 9.926l-.76-20.512z" fill="#DB594A"/><path d="m437.015 451.558-7.173-3.85 8.028-22.04 9.483 3.907c6.528 2.688 9.4 10.373 6.242 16.7-3.058 6.127-10.555 8.516-16.58 5.283" fill="#FC95A4"/><path d="M439.582 444.238c-3.71-4.887-3.169-12.024-3.283-12.171l-3.179 6.639-3.279 9.002 7.174 3.85c4.928 2.644 10.84 1.522 14.502-2.327-2.948-.103-8.794-.854-11.935-4.993" fill="#DB594A"/><path d="m415.719 440.796-23.801-19.358a6.954 6.954 0 0 1-1.49-9.099 6.912 6.912 0 0 1 8.537-2.689l28.246 11.925c5.82 2.457 8.497 9.223 5.942 15.012-3.01 6.819-11.658 8.907-17.434 4.21" fill="#FFDAAB"/><path d="m427.211 421.575-1.032-.436-.295.732c-3.764 9.365-14.987 9.034-31.438-.816l-1.677 1.074 22.95 18.667c5.776 4.698 14.425 2.61 17.435-4.209 2.555-5.79-.123-12.555-5.942-15.011" fill="#E99462"/><path d="M418.653 444.488s-1.483-.653-.802-2.187c1.236-.055 5.007-7.086 6.157-9.676 1.314-2.954 3.87-9.818 2.885-11.234.227-.509.622-.736.995-.83.446-.113.919-.025 1.325.192l8.395 4.502a3.01 3.01 0 0 1 1.538 2.046c.375 1.854.466 5.493-2.057 11.17-2.52 5.67-5.46 8.338-7.213 9.514a3.003 3.003 0 0 1-2.901.23l-8.322-3.727z" fill="#FC95A4"/><path d="M431.607 440.201c1.276-1.515 3.094-4.234 2.66-7.035-1.103-7.132-2.258 7.892-9.86 7.723-.476-.01-.772-.516-.49-.833 1.872-2.096 7.127-8.691 7.198-16.72.004-.434.599-.605.948-.27.811.777 1.048 1.73 1.227 2.79.184 1.086 1.379 1.863 2.442 1.312.506-.262.427-1.24.93-1.807.262-.295.827-.166.972.216.548 1.45 1.203 4.487-.219 9.105-1.23 3.997-3.46 5.627-5.066 6.292-.52.215-1.082-.369-.742-.773m5.482-1.73c2.523-5.677 2.432-9.316 2.057-11.17a3.009 3.009 0 0 0-1.539-2.047l-8.394-4.5c-.406-.218-.88-.306-1.325-.193a1.423 1.423 0 0 0-.995.83c.984 1.415-1.57 8.28-2.884 11.234-1.151 2.589-4.922 9.62-6.158 9.675-.681 1.533.802 2.187.802 2.187l8.322 3.727a3.004 3.004 0 0 0 2.9-.23c1.754-1.175 4.693-3.844 7.214-9.514" fill="#DB594A"/><path d="m399.396 410.159-3.307-2.012-1.41-6.583a2.616 2.616 0 0 0-1.02-.886l-3.114-1.12.88 3.058-6.982 2.16c-.43.064-.865.065-1.294.002l-5.654-.832-6.514-2.086a2.757 2.757 0 0 0-2.64.536l-.616.53a.506.506 0 0 0 .089.828l2.513 1.364-.339 2.62a2.653 2.653 0 0 0 .23 1.47l4.404 9.365a3.574 3.574 0 0 0 2.21 1.904l2.444.732c.34.102.696.153 1.053.149l12.764-.113c3.54 2.43 8.384.188 8.836-4.09l.163-1.538a5.686 5.686 0 0 0-2.696-5.458" fill="#FFDAAB"/><path d="M393.092 421.245c.031.021.063.036.095.056a3.908 3.908 0 0 0 2.025-1.63c.907-1.44.816-3.204-.114-4.326l-3.704 5.915 1.698-.015zM392.558 414.007c-.919-.049-1.87.308-2.614 1.013-.003-.003-.003-.01-.006-.012l-.287-.187c-.125-.082-.425.164-.668.55-.244.387-.34.766-.213.848l.23.15c-.176.403-.282.82-.323 1.234.787-.183 1.474-.526 1.973-1.105.71-.823 1.34-1.663 1.908-2.49" fill="#E99462"/><path d="m396.089 408.147-.123-.571a32.816 32.816 0 0 1-3.408 6.43 28.332 28.332 0 0 1-1.907 2.491c-.5.579-1.187.922-1.973 1.106-2.136.5-5.02-.214-6.993-.843-1.955-.622-6.562-4.596-9.592-7.343-.662-.6-.326-1.7.557-1.831l3.776-.558-8.795-3.443a.497.497 0 0 0 .182.168l2.514 1.364-.339 2.62a2.654 2.654 0 0 0 .231 1.47l4.404 9.365a3.574 3.574 0 0 0 2.209 1.905l2.443.731c.342.103.697.153 1.053.15l11.066-.099 3.705-5.915 3.537-5.648-2.547-1.55z" fill="#E99462"/><path d="M392.906 422.837c1.048.47 3.256-2.2 4.932-5.963 1.677-3.762 2.187-7.193 1.139-7.662l-2.812-1.259-.14.152c.523 1.082-.056 4.064-1.494 7.288-1.436 3.225-3.264 5.647-4.417 5.977l-.02.207 2.812 1.26z" fill="#1C417D"/><path d="M393.655 423.173c1.048.47 3.256-2.2 4.932-5.963 1.677-3.762 2.187-7.192 1.139-7.661l-3.307-1.482c1.047.47.538 3.9-1.139 7.662-1.676 3.762-3.885 6.432-4.932 5.962l3.307 1.482z" fill="#ED985A"/></g><g transform="translate(391 409)"><mask id="l" fill="#fff"><use xlink:href="#k"/></mask><path d="m2.779 15-.098-.046c-1.724-.809-2.496-2.93-1.727-4.74.77-1.81 2.792-2.622 4.515-1.814l.098.046c1.724.81 2.497 2.931 1.727 4.741-.77 1.81-2.791 2.621-4.515 1.813" fill="#1C417D" mask="url(#l)"/></g><path d="m394.13 421.69-.217-.101c-1.677-.781-2.387-2.794-1.588-4.496l.055-.116c.8-1.702 2.807-2.448 4.484-1.668l.217.102c1.677.781 2.388 2.793 1.587 4.496l-.054.115c-.8 1.703-2.807 2.45-4.484 1.668" fill="#0080F6"/><g transform="translate(393 414)"><mask id="n" fill="#fff"><use xlink:href="#m"/></mask><path d="M6 1.214S3.52 8.817 3.506 8.848c-.011.032-7.089-3.616-7.089-3.616L-1.51-.551.172-1.36l3.892.85L6 1.214z" fill="#1C417D" mask="url(#n)"/></g><path d="m394.06 421.68-.098-.046c-1.72-.8-2.448-2.864-1.628-4.609.82-1.745 2.88-2.51 4.6-1.71l.097.046c1.72.8 2.45 2.864 1.629 4.609-.82 1.745-2.88 2.51-4.6 1.71" fill="#0080F6"/><g transform="translate(392 414)"><mask id="p" fill="#fff"><use xlink:href="#o"/></mask><path d="M7.57.635C7.456.663-.71 5.983-.71 5.983s-2.016-2.207-2.03-2.295C-2.752 3.601.2-2.1.2-2.1L7.57.635z" fill="#1C417D" mask="url(#p)"/></g><g><path d="m394.26 421.357-.082-.037c-1.45-.65-2.064-2.325-1.373-3.74.692-1.417 2.428-2.039 3.877-1.389l.082.037c1.45.65 2.064 2.324 1.372 3.74-.692 1.417-2.427 2.038-3.876 1.389" fill="#DFF0FF"/><path d="m395.3 419.136-.012-.005a.386.386 0 0 1-.192-.524.417.417 0 0 1 .543-.194l.012.005a.387.387 0 0 1 .192.524.418.418 0 0 1-.543.194" fill="#1C417D"/><path d="m396.6 419.483-1.442-.647a.153.153 0 0 1-.077-.208l.021-.043a.165.165 0 0 1 .216-.077l1.442.646c.081.037.115.13.077.209l-.021.043a.166.166 0 0 1-.216.077" fill="#1C417D"/><path d="m395.29 419.134-.002-.001a.158.158 0 0 1-.08-.215l1.017-2.082a.17.17 0 0 1 .222-.08l.003.001a.159.159 0 0 1 .079.216l-1.017 2.081a.171.171 0 0 1-.222.08" fill="#1C417D"/><path d="M396.72 416.21c-.032-.014-.064-.025-.095-.037 1.405.687 2 2.327 1.323 3.713-.678 1.386-2.371 2-3.823 1.407.031.014.06.032.09.045 1.473.66 3.226.047 3.918-1.369.691-1.416.06-3.1-1.413-3.759" fill="#1C417D"/><path d="M392.41 417.144c-.182.374-.447.625-.591.56-.145-.064-.113-.42.07-.793.182-.375.447-.625.59-.56.145.063.113.42-.069.793" fill="#0080F6"/><path fill="#0080F6" d="m391.49 417.556.33.148.66-1.354-.33-.149z"/><path d="M392.08 416.996c-.182.374-.447.625-.591.56-.144-.064-.113-.42.07-.794.182-.374.447-.625.591-.56.144.064.112.42-.07.794" fill="#1C417D"/><path d="M255.509 611.71v-6.184c0-.825.29-1.624.817-2.256l3.095-3.707a3.505 3.505 0 0 1 2.692-1.26h2.223c.639 0 1.267-.171 1.819-.495l7.904-4.63a8.515 8.515 0 0 0 4.207-7.347v-7.223c0-.563.455-1.019 1.017-1.019h20.185c.561 0 1.016.456 1.016 1.02v11.31c0 1.316.267 2.618.782 3.829l1.629 3.822a9.593 9.593 0 0 1 .767 3.76v10.38h-48.153z" fill="#D9642E"/><path d="M274.268 605.17a8.328 8.328 0 0 0 6.179-2.747l7.544-8.35c.39-.433.718-.918.974-1.44l7.36-15.036h-17.042c-.562 0-1.017.457-1.017 1.02v7.222a8.514 8.514 0 0 1-4.207 7.347l-7.905 4.63a3.596 3.596 0 0 1-1.818.494h-2.223c-1.04 0-2.025.461-2.692 1.26l-.201.241 14.107.3 2.47.05c.754.005 1.455-.328 2.006-.926a.229.229 0 0 1 .345.3l-.02.026c-.529.652-1.403 1.168-2.315 1.197l-2.486.054-4.955.105-9.91.21a.65.65 0 0 1-.287-.065l-1.85 2.215a3.51 3.51 0 0 0-.785 1.893h18.727z" fill="#AD330D"/><path d="m268.373 600.91 4.955-.105 2.486-.054c.912-.03 1.786-.545 2.314-1.197l.021-.027a.23.23 0 0 0-.022-.312.23.23 0 0 0-.323.013c-.55.597-1.252.93-2.007.926l-2.47-.05-4.954-.106-9.152-.194-1.045 1.251c.088.04.184.067.287.065l9.91-.21z" fill="#D9642E"/><path d="M303.206 615.12h-47.825c-.646 0-1.17-.525-1.17-1.172v-4.477c0-.647.524-1.172 1.17-1.172h47.825c.646 0 1.17.525 1.17 1.172v4.477c0 .647-.524 1.172-1.17 1.172" fill="#001828"/><path d="m208.187 436.293 6.516-3.61 7.597 1.475 6.801 12.035c.009.014.02.026.034.034l13.441 8.7 14.294-1.223 10.185 18.456-15.343 1.803-4.976 6.395-10.777 5.97-27.773-50.034z" fill="#D9642E"/><path d="m246.737 480.358 4.976-6.395 15.342-1.803-10.185-18.456-10.649.91-3.599 8.265a9.067 9.067 0 0 1-9.179 5.411l-7.918-.763 10.436 18.8 10.777-5.97zM217.65 434.139a151.489 151.489 0 0 0 2.425 4.93c.824 1.636 1.685 3.25 2.547 4.866a228.2 228.2 0 0 0 2.656 4.805c.906 1.591 1.819 3.179 2.785 4.736l.034.055a.25.25 0 0 0 .171.113l1.494.25a.15.15 0 0 0 .158-.084.149.149 0 0 0-.072-.197l-1.215-.564a148.764 148.764 0 0 0-2.377-4.837 230.174 230.174 0 0 0-2.554-4.861 235.5 235.5 0 0 0-2.662-4.804 153.045 153.045 0 0 0-2.741-4.666l.01-.498-.539-.105-.159.652a.245.245 0 0 0 .016.16l.023.05z" fill="#AD330D"/><g transform="translate(205 433.925)"><mask id="r" fill="#fff"><use xlink:href="#q"/></mask><path d="M27.76 53.653.146 3.906a1.174 1.174 0 0 1 .457-1.593L4.513.146a1.17 1.17 0 0 1 1.59.46l27.614 49.747c.313.566.108 1.28-.458 1.592l-3.91 2.166a1.169 1.169 0 0 1-1.589-.458" fill="#001828" mask="url(#r)"/></g><path d="m341.75 421.887-94.102 30.716a1.173 1.173 0 0 0-.778 1.376l5.136 22.529a1.17 1.17 0 0 0 1.382.886l97.678-20.58c9.884-2.082 16.146-11.88 13.896-21.746-2.366-10.375-13.111-16.478-23.211-13.181" fill="#1C417D"/><path d="M306.29 466.248c-20.147.415-42.438.85-56.37 1.12l2.084 9.14a1.17 1.17 0 0 0 1.381.886l52.904-11.146z" fill="#001828"/><path d="m259.059 474.216-5.332-21.913a.586.586 0 1 1 1.137-.278l.004.015 4.725 22.053a.275.275 0 0 1-.535.123" fill="#00B3DA"/><path d="M277.056 583.61h24.582c.643 0 1.166-.52 1.17-1.165l.572-98.911c.058-10.096-8.095-18.312-18.172-18.312-10.68 0-19.058 9.185-18.098 19.842l8.781 97.479a1.17 1.17 0 0 0 1.165 1.066" fill="#1C417D"/><path d="M285.412 465.224c-.068 0-.136-.005-.204-.005-10.681 0-19.058 9.185-18.098 19.843l8.78 97.478a1.17 1.17 0 0 0 1.165 1.066h12.05l-3.694-118.38z" fill="#001828"/><path d="m300.472 574.74-22.512.096a.585.585 0 0 1-.005-1.172h.016l22.506.527a.274.274 0 0 1-.005.549" fill="#00B3DA"/><path d="M266.955 480.692c.012 9.952 7.965 18.067 17.897 18.263l84.619 1.664c13.314.26 24.242-10.49 24.225-23.831-.018-14.172-12.315-25.19-26.375-23.63l-84.121 9.333c-9.256 1.027-16.258 8.871-16.246 18.202" fill="#1C417D"/><path d="m383.47 469.865-34.142-14.712-66.13 7.336c-9.256 1.028-16.257 8.872-16.246 18.202.013 9.952 7.966 18.067 17.897 18.263l1.614.031-.132-4.23 1.546-7.243c1.034-4.848 5.915-7.837 10.693-6.549l72.76 19.611c6.103-.353 11.595-3.018 15.61-7.142l-3.47-23.567z" fill="#001828"/><path d="m334.95 453.173 31.123 40.25c4.031 5.214 9.951 8.248 16.206 8.305l6.983.065c15.065.14 26.94-13.948 25.538-30.301l-.585-6.84c-.346-4.044-2.506-7.641-5.769-9.605l-51.54-31.025c-7.387-4.447-16.629-2.55-22.027 4.519-5.455 7.144-5.426 17.525.07 24.633" fill="#1C417D"/><path d="M414.22 464.652c-.346-4.046-2.506-7.642-5.768-9.606l-30.59-18.413c8.179 10.7 22.949 36.387 4.423 65.095l6.983.065c15.065.14 26.939-13.948 25.538-30.3l-.586-6.84zM340.73 460.641l4.329-.982a23.189 23.189 0 0 0 8.146-3.6l4.655-3.25s-11.647 2.59-20.361 3.653l3.231 4.179z" fill="#001828"/><path d="m370.7 518.03 90.597 14.614a4.895 4.895 0 0 0 2.489-3.846l.8-9.061a4.91 4.91 0 0 0-4.096-5.28L374.405 500.4c-2.982-.486-5.69 1.82-5.69 4.848v9.584c0 1.211.44 2.331 1.18 3.196h.805z" fill="#0097B8"/><path fill="#FFDAAB" d="M485.06 536.48 370.7 518.03v7.38l23.74 3.81 2.7 10.59 92.51 14.64z"/><g transform="translate(357.14 472.81)"><mask id="t" fill="#fff"><use xlink:href="#s"/></mask><path d="m119.9 66.84-72.971-6.69 1.644-9.281-2.234-.36 9.8-35.276 50.94 2.833 17.016 44.985-4.405-.711.21 4.5zm50.135 73.384-41.539-120.97.11.006c.218.012.436.001.652-.034l8.195-1.32c1.4-.227 2.427-1.562 2.522-2.978l-.002-.009c.038-.161.067-.326.079-.498l.081-1.218a3.046 3.046 0 0 0-2.781-3.244L24.322.45a3.004 3.004 0 0 0-.85.062l-5.97-.496A4.93 4.93 0 0 0 12.18 4.6a3.049 3.049 0 0 0 2.023 3.08l17.077 6.045c.137.048.276.087.418.115l-8.24 32.974-4.62-.745-1.17 7.187 4.018.645-21.62 86.505a2.236 2.236 0 0 0 2.166 2.78h16.661c1.003 0 1.883-.669 2.152-1.637l20.638-74.283 89.36 14.144 22.822 60.332c.329.87 1.16 1.445 2.089 1.445h11.969a2.238 2.238 0 0 0 2.112-2.966z" fill="#E99462" mask="url(#t)"/></g><path d="M363.61 613.22a2.237 2.237 0 0 0 2.167 2.781h10.253c1.003 0 1.883-.67 2.152-1.638l35.096-126.32-18.13-1.009-31.537 126.18z" fill="#FFDAAB"/><g transform="translate(468.9 491.136)"><mask id="v" fill="#fff"><use xlink:href="#u"/></mask><path d="M58.28 121.9 16.741.93.001-.001l46.687 123.42a2.234 2.234 0 0 0 2.088 1.445h7.393a2.237 2.237 0 0 0 2.112-2.966" fill="#FFDAAB" mask="url(#v)"/></g><path d="m497.27 486.015-.082 1.219a3.044 3.044 0 0 1-3.297 2.832l-103.04-8.878a15.037 15.037 0 0 1-1.907-.252l-8.325-1.645a3.047 3.047 0 0 1-2.448-3.197 3.045 3.045 0 0 1 3.29-2.833l113.03 9.51a3.047 3.047 0 0 1 2.782 3.244" fill="#FFDAAB"/><path d="M549.07 394.847a2.61 2.61 0 1 1-5.181.609c-.168-1.433.855-2.732 2.286-2.9s2.727.858 2.895 2.291" fill="#E99462"/><path d="M548.25 395.113c-.437.453-1.231.393-1.773-.133-.542-.526-.627-1.32-.189-1.772.438-.451 1.231-.392 1.773.135.542.525.626 1.319.189 1.77" fill="#FFDAAB"/><path d="M539.4 412.728a4.3 4.3 0 0 1-1.98 5.743 4.284 4.284 0 0 1-5.731-1.984 4.3 4.3 0 0 1 1.98-5.743 4.284 4.284 0 0 1 5.731 1.984" fill="#E99462"/><path d="M538.26 413.589c-.434.94-1.698 1.278-2.824.755-1.125-.522-1.685-1.707-1.251-2.646.434-.94 1.698-1.277 2.823-.755 1.126.522 1.686 1.706 1.252 2.646" fill="#FFDAAB"/><path d="M542.22 402.758a3.265 3.265 0 1 1-6.484.762 3.27 3.27 0 0 1 2.861-3.63 3.266 3.266 0 0 1 3.623 2.868" fill="#E99462"/><path d="M541.18 403.091c-.547.566-1.541.491-2.219-.168-.678-.658-.784-1.65-.236-2.216.547-.566 1.54-.49 2.219.167.678.659.783 1.65.236 2.217" fill="#FFDAAB"/><path d="M555.39 393.377a1.556 1.556 0 1 1-3.09.363 1.556 1.556 0 1 1 3.09-.363" fill="#E99462"/><path d="M554.9 393.536c-.26.27-.734.234-1.057-.08-.323-.314-.374-.787-.113-1.056.261-.27.734-.234 1.058.08.323.313.373.786.112 1.056" fill="#FFDAAB"/><path d="M553.88 393.536a.248.248 0 0 0-.35.035c-1.848 2.268-3.504 4.669-5.027 7.154l-1.055-3.547a.347.347 0 1 0-.665.199l1.158 3.895a.347.347 0 0 0 .121.176 87.765 87.765 0 0 0-1.643 2.868 78.948 78.948 0 0 0-3.155 6.51l-2.767-5.413a.347.347 0 1 0-.618.318l3.03 5.928a71.988 71.988 0 0 0-1.684 4.467 67.763 67.763 0 0 0-1.744 6.052l-2.519-4.927a.348.348 0 1 0-.618.317l2.898 5.67a60.202 60.202 0 0 0-.952 5.483c-.568 4.289-.583 8.652-.151 12.969l.001.011a.695.695 0 1 0 1.38-.162v-.012c-.493-4.195-.556-8.456-.071-12.67.114-1.067.259-2.13.432-3.19l4.752-1.186a.349.349 0 0 0-.168-.677l-4.451 1.113a65.394 65.394 0 0 1 2.106-8.495c.296-.925.614-1.845.949-2.757.021-.002.042-.003.064-.008l4.84-1.21a.348.348 0 0 0-.168-.675l-4.443 1.11a77.309 77.309 0 0 1 3.692-8.226c.228-.435.462-.868.697-1.3l3.682.364a.348.348 0 0 0 .068-.693l-3.38-.333c1.715-3.072 3.622-6.048 5.789-8.802l.008-.01a.248.248 0 0 0-.038-.346" fill="#AD330D"/><path d="M555.73 403.137a2.61 2.61 0 1 1-5.181.609 2.612 2.612 0 0 1 2.287-2.9 2.61 2.61 0 0 1 2.894 2.291" fill="#E99462"/><path d="M554.9 403.404c-.437.452-1.231.392-1.773-.134-.542-.526-.626-1.319-.189-1.772.438-.451 1.231-.392 1.773.135.542.525.626 1.319.189 1.771" fill="#FFDAAB"/><path d="M553.37 411.457a2.936 2.936 0 0 1-2.57 3.259c-1.608.188-3.064-.964-3.252-2.575s.962-3.07 2.57-3.26a2.933 2.933 0 0 1 3.252 2.576" fill="#E99462"/><path d="M552.44 411.756c-.492.507-1.384.44-1.993-.15-.608-.592-.703-1.483-.212-1.991.492-.508 1.384-.44 1.993.15.609.591.703 1.483.212 1.991" fill="#FFDAAB"/><path d="M551.11 423.076a3.813 3.813 0 0 1-3.338 4.232 3.808 3.808 0 0 1-4.224-3.344 3.813 3.813 0 0 1 3.338-4.232 3.809 3.809 0 0 1 4.224 3.344" fill="#E99462"/><path d="M549.9 423.465c-.639.66-1.797.573-2.588-.195-.79-.768-.914-1.926-.275-2.585.638-.66 1.797-.573 2.588.195.79.767.913 1.925.275 2.585" fill="#FFDAAB"/><path d="m552.1 462.218-4.73-3.325a1.981 1.981 0 0 1-.841-1.62v-18.349h-.002c-.02-.436-3.433-.79-7.642-.79-4.209 0-7.622.354-7.642.79h-.002v18.348c0 .646-.314 1.25-.841 1.621l-4.73 3.325a.875.875 0 0 0-.372.716v30.744c0 5.324 4.308 9.64 9.621 9.64h7.932c5.314 0 9.62-4.316 9.62-9.64v-30.744a.875.875 0 0 0-.37-.716" fill="#FAD1C5"/><path d="M538.89 461.981c6.162 0 11.418.288 13.559.736a.878.878 0 0 0-.343-.5l-4.73-3.324a1.953 1.953 0 0 1-.538-.588c-1.716-.191-4.28-.307-7.948-.307-3.556 0-6.146.109-7.935.288-.14.235-.32.446-.55.607l-4.73 3.325a.874.874 0 0 0-.343.499c2.139-.448 7.395-.736 13.558-.736" fill="#FFE8EB"/><path d="m534.15 493.14-.079-30.581c0-.295.11-.58.308-.799l3.484-3.817.044-19.801c-3.745.05-6.641.38-6.66.783v18.347c0 .645-.315 1.25-.842 1.621l-4.73 3.324a.875.875 0 0 0-.372.716v30.744c0 5.324 4.307 9.64 9.621 9.64h3.356a14.704 14.704 0 0 1-4.13-10.178" fill="#FC95A4"/><path d="M571.9 501.35a2.108 2.108 0 0 1-.543-1.031c-.016-.08-.018-.163-.025-.245-.004-.052-.016-.103-.016-.156V496.95c0-.151.019-.298.05-.44.012-.055.033-.105.05-.158a2.046 2.046 0 0 1 1.952-1.458H598.1a.301.301 0 0 0 .301-.3v-.233a.301.301 0 0 0-.3-.3h-47.583a2.89 2.89 0 0 0-2.886 2.89v2.966a2.891 2.891 0 0 0 2.885 2.89h47.583a.301.301 0 0 0 .3-.3v-.233a.302.302 0 0 0-.3-.302h-24.733a2.04 2.04 0 0 1-1.469-.623" fill="#64CC75"/><path d="M564.11 499.96v-2.988a2.9 2.9 0 0 1 .83-2.03h-14.486a2.868 2.868 0 0 0-2.822 2.389v2.587a2.891 2.891 0 0 0 2.885 2.891h15.905a2.913 2.913 0 0 1-2.313-2.849" fill="#009F70"/><path d="M597.94 494.9h-24.573c-.923 0-1.695.616-1.953 1.457-.016.053-.037.103-.049.158-.03.143-.05.29-.05.44V499.923c0 .054.012.104.016.156.007.083.01.165.025.245.057.29.177.556.342.788a2.04 2.04 0 0 0 1.67.867h24.572V494.9z" fill="#EFF7FF"/><path d="M573.36 494.9c-.923 0-1.696.616-1.953 1.457l-.024.078c-.044.167-.075.34-.075.52v.791c0-.045.01-.087.014-.132l25.683-.065a.057.057 0 0 0 .057-.057.058.058 0 0 0-.057-.058l-25.658-.065a2.04 2.04 0 0 1 .325-.787l24.132-.065a.058.058 0 0 0 .058-.058.057.057 0 0 0-.058-.057l-23.931-.065c.374-.396.9-.646 1.487-.646h24.573v-.791H573.36zM597.42 498.79l-26.106-.064v.244l26.106-.065a.057.057 0 0 0 .057-.057.058.058 0 0 0-.057-.058M596.99 501.17l-25.3-.064c.061.086.127.168.2.243l25.1-.064a.057.057 0 0 0 .058-.057.058.058 0 0 0-.057-.058M594.75 500.2a.058.058 0 0 0-.057-.058l-23.366-.064c.006.082.008.165.024.244l23.341-.064a.058.058 0 0 0 .058-.058" fill="#ACEDFB"/><path d="M567.79 492.21a2.642 2.642 0 0 1-.253-.306 2.586 2.586 0 0 1-.435-1.001c-.02-.1-.023-.205-.03-.31-.006-.066-.02-.13-.02-.198V486.633a2.604 2.604 0 0 1 2.6-2.607h21.267a.382.382 0 0 0 .382-.382v-.294a.382.382 0 0 0-.382-.382h-37.684a3.666 3.666 0 0 0-3.66 3.665v3.762a3.667 3.667 0 0 0 3.66 3.666h37.684a.382.382 0 0 0 .382-.382v-.295a.382.382 0 0 0-.382-.382h-21.265c-.732 0-1.39-.304-1.864-.792" fill="#D9642E"/><path d="M590.71 484.03h-21.063a2.604 2.604 0 0 0-2.601 2.606v3.763c0 .067.014.132.02.198.008.104.011.209.03.309.074.368.226.706.436 1a2.587 2.587 0 0 0 2.116 1.099h21.062v-8.975z" fill="#EFF7FF"/><path d="m590.06 488.96-23.007-.081v.31l23.007-.083c.04 0 .073-.032.073-.072a.074.074 0 0 0-.073-.074M589.52 491.987l-21.985-.08c.077.108.16.211.253.306l21.732-.08c.04 0 .072-.032.073-.073a.074.074 0 0 0-.073-.073M586.67 490.752a.074.074 0 0 0-.073-.074l-19.532-.081c.008.104.012.209.031.31l19.5-.082c.04 0 .074-.033.074-.073M569.65 484.03a2.604 2.604 0 0 0-2.601 2.606v1.003c0-.057.012-.111.017-.168l16.622-.082c.04 0 .072-.032.072-.072a.073.073 0 0 0-.072-.074l-16.591-.08c.067-.367.209-.705.412-1l20.504-.083a.073.073 0 0 0 0-.146l-20.25-.081a2.584 2.584 0 0 1 1.887-.82h21.063v-1.003H569.65z" fill="#ACEDFB"/><path d="M564.62 490.451v-3.789c0-1 .401-1.908 1.049-2.573h-12.514a3.641 3.641 0 0 0-3.58 2.989v3.32a3.666 3.666 0 0 0 3.66 3.666h14.316a3.695 3.695 0 0 1-2.93-3.613" fill="#AD330D"/><path d="M575.55 475.683a1.89 1.89 0 0 0-1.89 1.893v2.733c0 1.046.847 1.894 1.89 1.894h10.069v-6.52H575.55z" fill="#EFF7FF"/><path d="M585.62 476.411v-.728h-10.069c-1.043 0-1.89.848-1.89 1.893v.728c0-.041.01-.08.013-.122l11.09-.059c.03 0 .053-.023.053-.053a.053.053 0 0 0-.052-.053l-11.068-.058c.049-.266.152-.513.3-.728l9.662-.059c.03 0 .053-.024.053-.053a.053.053 0 0 0-.053-.053l-9.479-.058c.345-.366.83-.597 1.371-.597h10.07zM585.15 479.37a.053.053 0 0 0 0-.107l-11.481-.058v.224l11.481-.059zM574.8 482.041c-.225-.1-.427-.24-.596-.415l10.556-.057c.029 0 .053-.024.053-.053s-.024-.053-.053-.053l-10.738-.058a1.888 1.888 0 0 1-.317-.729l8.935-.058a.053.053 0 0 0 0-.106l-8.957-.058c-.004-.049-.015-.096-.015-.146 0 .776.466 1.44 1.132 1.733" fill="#ACEDFB"/><path d="M575.55 475.683H585.766a.278.278 0 0 0 .278-.278v-.214a.277.277 0 0 0-.278-.277H555.13a2.663 2.663 0 0 0-2.658 2.662v2.733a2.663 2.663 0 0 0 2.658 2.662h30.637a.277.277 0 0 0 .277-.277v-.214a.277.277 0 0 0-.277-.277h-10.217c-.132 0-.26-.014-.385-.04-.017-.004-.032-.012-.049-.016a1.866 1.866 0 0 1-.312-.1c-.004-.001-.008-.004-.011-.006a1.892 1.892 0 0 1-1.132-1.732v-2.734a1.89 1.89 0 0 1 1.89-1.892" fill="#46CFED"/><path d="M567.01 480.347v-2.752c0-.727.292-1.386.764-1.87H555.07a2.642 2.642 0 0 0-2.6 2.2v2.384a2.663 2.663 0 0 0 2.658 2.663h14.01a2.684 2.684 0 0 1-2.13-2.625" fill="#0068C9"/><path d="M515.73 459.339c1.784 1.471 2.596 3.838 2.65 6.124.018.289-.015.573-.02.86l-.02.43-.06.425c-.042.281-.077.567-.128.846l-.202.827-.103.413-.138.399-.279.797-.474 1.382a12.038 12.038 0 0 0-.041 5.75c.433 1.936 1.276 3.845 2.341 5.618l.01.017a.272.272 0 0 1-.413.346c-.835-.734-1.51-1.588-2.122-2.508-.595-.925-1.126-1.915-1.478-2.986a6.693 6.693 0 0 1-.254-.807c-.07-.274-.157-.545-.213-.825-.088-.564-.2-1.127-.21-1.704-.109-1.151.067-2.313.313-3.445.163-.543.353-1.131.525-1.629.157-.467.367-.924.486-1.399.304-.938.474-1.895.58-2.86.185-1.915-.138-3.933-1.133-5.687l-.023-.042a.27.27 0 0 1 .406-.342M512.41 479.827c-.907-.56-1.57-1.362-2.097-2.26a7.404 7.404 0 0 1-.946-2.977 7.249 7.249 0 0 1-.031-1.573c.03-.26.053-.52.09-.778.044-.257.124-.506.184-.757.107-.507.344-.973.543-1.438.222-.457.516-.876.799-1.285a.295.295 0 0 1 .533.213l-.007.044c-.073.482-.205.928-.282 1.382-.057.459-.164.898-.178 1.347-.106.889-.043 1.764.064 2.621.131.857.355 1.697.658 2.53.286.84.682 1.667 1.08 2.513l.017.036a.299.299 0 0 1-.427.382" fill="#DFF0FF"/><path d="M519.53 475.033a7.765 7.765 0 0 0 2.133-2.502c.517-.947.786-1.986.861-3.037a10.375 10.375 0 0 0-.324-3.184 15.674 15.674 0 0 0-1.113-3.097c-.456-1.004-1.054-1.942-1.682-2.954-.609-1.013-1.275-2.134-1.63-3.385-.387-1.24-.475-2.531-.414-3.761.086-1.234.292-2.43.634-3.586a.274.274 0 0 1 .536.076c.02 2.354.107 4.693.946 6.666.421.985.992 1.9 1.67 2.859.662.964 1.343 2.017 1.896 3.151a16.429 16.429 0 0 1 1.188 3.586c.227 1.247.326 2.562.087 3.854a7.936 7.936 0 0 1-1.54 3.556c-.813 1.007-1.815 1.811-3.016 2.25a.271.271 0 0 1-.258-.471l.026-.02zM527.88 483.775c0-1.637-2.194-2.183-5.46-2.365-1.633-.09-4.855-.09-4.506-.09-.433.669-.358 1.226-.208 1.588 5.357.003 9.598.074 9.598 1.853 0 .062-.018.118-.029.176v.06c.386-.32.605-.716.605-1.222" fill="#DFF0FF"/><path d="M505.92 484.292c-.015-.041-.032-.082-.042-.125.01.043.028.083.042.125M506.11 484.649" fill="#A3F1D9"/><path d="M506.76 484.725h.025c.062-1.815 4.628-1.818 10.258-1.818h.665c-.15-.36-.226-.918.207-1.588h-1.057c-6.089 0-11.024 0-11.024 2.456 0 .139.02.268.051.392.01.042.028.083.042.124a1.432 1.432 0 0 0 .182.357c.018.025.033.052.053.077h.598z" fill="#B8DDFF"/><path d="M503.22 493.15v-5.052c0-.44.357-.797.795-.797h2.742v8.516h-.875a2.668 2.668 0 0 1-2.662-2.667m24.083-8.393c0-1.853-4.595-1.853-10.264-1.853-5.63 0-10.195.003-10.258 1.817h-2.766a3.377 3.377 0 0 0-3.37 3.377v5.052c0 2.893 2.349 5.246 5.236 5.246h.96c.455 2.82 2.888 4.974 5.83 4.974h8.688a5.92 5.92 0 0 0 5.915-5.927v-12.509c.01-.058.028-.114.028-.177" fill="#0097B8"/><path d="M518.37 503.26a5.13 5.13 0 0 1-2.532-4.383l-.121-14.133a1.818 1.818 0 0 1 1.28-1.753l.277-.084h-.237c-5.63 0-10.195.002-10.258 1.816h-.639l-1.6 2.58h2.214v8.516h-.876a2.66 2.66 0 0 1-2.208-1.18 2.158 2.158 0 0 1-.264.447 3.178 3.178 0 0 1-.211-.435 3.048 3.048 0 0 1-.22-.791c-.043-.28-.03-.518-.031-.861.011-1.285.009-2.571-.043-3.857l-.018-.481-.01-.237c.002-.06-.007-.12 0-.18.013-.241.083-.483.209-.7.246-.443.716-.768 1.277-.856l.008-.001a.258.258 0 0 0-.008-.513c-.727-.092-1.52.24-2.004.86a2.427 2.427 0 0 0-.478 1.081c-.022.1-.024.2-.035.3l-.011.246-.019.481a77.085 77.085 0 0 0-.042 3.857c-.002.298.014.706.092 1.059.071.362.19.715.353 1.043.096.186.207.362.327.53-.504.167-.902.175-1.213.11a5.234 5.234 0 0 0 4.55 2.657h.959c.455 2.82 2.889 4.974 5.831 4.974h5.893l-.192-.112z" fill="#00547A"/><path d="m605.81 612.33-48.173-103.06c25.662-.122 44.948-.643 44.948-1.267v-4.98c0-.716-25.284-1.827-56.474-1.827-31.189 0-56.474 1.111-56.474 1.826v4.981c0 .615 18.717 1.13 43.809 1.261l-47.902 102.48a1.962 1.962 0 0 0 .942 2.608 1.956 1.956 0 0 0 2.603-.944l48.537-103.84c.043-.094.072-.19.1-.287 2.19.007 4.42.012 6.684.014a1.789 1.789 0 0 0-.11.596v103.38c0 1.002.811 1.814 1.81 1.814 1 0 1.812-.812 1.812-1.814v-103.38c0-.21-.043-.409-.11-.596 1.94-.002 3.854-.005 5.739-.01-.006.29.045.587.177.869l48.537 103.84a1.956 1.956 0 0 0 2.603.944c.978-.46 1.4-1.627.942-2.608" fill="#0068C9"/><path d="M602.59 508.01c0-.715-25.285-1.294-56.474-1.294-10.15 0-19.672.061-27.904.168l3.06-5.444c-18.733.366-31.63 1.079-31.63 1.59v4.98c0 .013.011.026.029.04l.019.012a.477.477 0 0 0 .096.04c.036.012.077.023.126.035l.017.004c.057.013.124.026.197.039l.066.01a5.747 5.747 0 0 0 .272.041l.254.032.054.005.358.039.096.008c.102.01.207.02.319.028.042.005.084.008.128.012l.382.03.082.006c.167.013.34.025.522.037l.096.007c.149.01.301.02.46.029l.183.01.463.028.15.008c.215.012.436.023.665.034l.079.005.623.03.207.009c.19.01.384.018.583.026l.177.008a394.45 394.45 0 0 0 1.63.065l.274.01.637.023.256.008c.602.021 1.229.041 1.88.06l.277.01.779.022.24.007.99.027.072.002 1.089.028.282.007.863.02c.097.003.193.006.29.007a1773.875 1773.875 0 0 0 1.167.027l1.213.026.279.005.937.02.384.006 1.07.02.167.004 1.342.023.153.002 1.187.02.32.005 1.105.018.296.004 1.395.02h.038c5.037.07 10.589.123 16.494.153l-30.714 65.707 6.26-4.145 28.634-61.257c.044-.093.072-.19.1-.286 2.19.007 4.42.012 6.684.013a1.79 1.79 0 0 0-.109.598v82.143l3.621-3.945V509.9c0-.21-.043-.41-.108-.597 1.939-.002 3.852-.005 5.738-.01-.006.29.045.587.177.869l11.223 24.009 2.998-2.834-10.312-22.06c25.662-.122 44.949-.643 44.949-1.267" fill="#1C417D"/></g><g><g transform="translate(117 333)"><mask id="x" fill="#fff"><use xlink:href="#w"/></mask><path d="M37.119 23.845c-2.113-4.602 4.426-2.043 6.604 1.056.22.314.412.623.58.927.947 1.722-.33 3.882-1.935 3.438-2.336-.648-4.123-2.968-5.249-5.421m4.356 25.281c-.555-2.156 1.646-2.767 3.026-1.229 2.232 2.487 3.796 5.661 5.773 8.813a1.22 1.22 0 0 0 1.873.243 48.576 48.576 0 0 0 2.46-2.515 1.418 1.418 0 0 0 .156-1.718c-3.073-4.81-7.65-12.04-10.244-13.994-3.686-2.776 1.066-7.723 5.984-1.55 3.07 3.852 4.825 9.029 6.085 13.09a.718.718 0 0 0 1.266.212 47.473 47.473 0 0 0 2.346-3.512 1.778 1.778 0 0 0 .145-1.52C51.263 20.3 44.784 25.499 43.579 20.813c-.555-2.156 8.748.042 12.59 4.67 2.689 3.239 4.824 7.779 6.075 14.51.128.689 1.077.781 1.328.126 1.8-4.692 2.765-9.87 2.321-15.352-.44-5.427-3.326-10.751-7.583-15.425-8.938-9.811-23.724.154-26.098-.2C29.838 8.79 14.72-4.583 6.62 1.658 2.527 4.81-.396 10.077.044 15.504l.029.334a.992.992 0 0 0 1.642.655c2.377-2.094 4.558-3.525 7.156-3.987 6.208-1.106 16.898 1.687 14.182 5.399-2.54 3.473-6.217-4.319-20.749 3.584a1.917 1.917 0 0 0-.93 2.146 52.6 52.6 0 0 0 3.913 10.664.98.98 0 0 0 1.56.282c3.077-2.952 7.126-6.604 11.85-8.445 7.644-2.978 10.064 3.843 5.176 4.43-3.207.386-10.197 3.97-15.35 6.649a1.364 1.364 0 0 0-.517 1.94 53.148 53.148 0 0 0 8.362 10.194c.628.594 1.644.44 2.074-.312 3.184-5.58 5.223-8.856 8.734-11.217 5.521-3.712 6.936.208 5.066 1.075-5.364 2.488-10.039 5.253-11.436 13.24-.09.519.11 1.052.534 1.362a49.984 49.984 0 0 0 7.347 4.488l.009.004c.47.234 1.033.078 1.322-.36.658-.994 1.449-1.985 2.242-2.518 1.84-1.238 3.07.614 2.151 2.468-.26.527-.62 1.164-1 1.808a1.566 1.566 0 0 0 .328 1.982 25.756 25.756 0 0 1 3.621 3.852 1.958 1.958 0 0 0 2.69.421 87.08 87.08 0 0 1 5.4-3.494c.535-.32 1.087-.675 1.65-1.064.637-.44.832-1.307.445-1.979-2.547-4.418-5.114-6.264-6.069-9.978" fill="#00547A" mask="url(#x)"/></g><g transform="translate(119 335)"><mask id="z" fill="#fff"><use xlink:href="#y"/></mask><path d="M58.183 9.204c-9.085-9.666-24.115.152-26.527-.196-2.413-.348-17.78-13.524-26.013-7.375C3.198 3.458 1.171 6.006 0 8.879c.215-.374.46-.73.745-1.059 3.152-3.637 9.643-2.583 14.88.747 3.693 2.347 10.259 2.04 13.813 1.655a9.01 9.01 0 0 1 4.54.665c1.98.85 5.071 1.933 7.985 1.944 4.204.015 11.583-.762 15.479 2.712 3.834 3.42 8.309 9.923 7.789 18.457.673-3.058.94-6.271.661-9.599-.447-5.347-3.38-10.592-7.708-15.197" fill="#0097B8" mask="url(#z)"/></g><path d="M156.65 380.578a255.3 255.3 0 0 0-.208-3.232c-.075-1.077-.135-2.156-.243-3.23l-.294-3.225c-.107-1.074-.248-2.144-.37-3.216a84.36 84.36 0 0 0-.428-3.209l-.232-1.601c-.083-.533-.186-1.062-.278-1.593l-.285-1.59c-.104-.53-.227-1.053-.34-1.58-.12-.523-.22-1.053-.356-1.572l-.407-1.558c-.126-.522-.3-1.029-.452-1.541a24.25 24.25 0 0 0-.504-1.52c-.353-1.004-.749-1.997-1.253-2.91.37.992.658 2.015.921 3.045.276 1.026.5 2.07.731 3.108.219 1.044.435 2.086.623 3.138.203 1.047.377 2.102.553 3.157.697 4.218 1.24 8.476 1.64 12.756.223 2.136.35 4.285.547 6.427.133 2.148.292 4.295.403 6.445l.299 6.457c.071 2.155.138 4.31.23 6.466.033-2.157.04-4.315.053-6.473.002-2.16-.056-4.317-.1-6.476-.06-2.158-.168-4.314-.25-6.473" fill="#0097B8"/><path d="M126.844 517.92c-.08-5.461-.272-10.972-.51-16.459a726.798 726.798 0 0 0-.904-16.47c-.737-10.973-1.685-21.935-2.972-32.857a465.729 465.729 0 0 0-2.18-16.349c-.395-2.72-.86-5.43-1.302-8.142-.488-2.704-.95-5.414-1.495-8.107-1.052-5.393-2.228-10.764-3.624-16.075-1.388-5.313-2.952-10.58-4.823-15.74l-.002-.003a.534.534 0 0 1 1-.38c2.007 5.155 3.706 10.423 5.228 15.736 1.53 5.313 2.839 10.686 4.023 16.084.611 2.695 1.139 5.407 1.693 8.115.508 2.715 1.038 5.427 1.498 8.151a467.269 467.269 0 0 1 2.574 16.372c1.55 10.941 2.758 21.926 3.755 32.93.494 5.501.926 11.01 1.296 16.524.367 5.52.689 11.02.9 16.58a2.084 2.084 0 0 1-1.998 2.165 2.082 2.082 0 0 1-2.156-2.007v-.068z" fill="#009F70"/><path d="M125.74 516.87c-.128-10.908-.599-21.851-1.279-32.762-.7-10.913-1.62-21.815-2.892-32.678a444.374 444.374 0 0 0-2.167-16.26c-.393-2.706-.859-5.4-1.302-8.098-.49-2.69-.953-5.384-1.504-8.062-.51-2.686-1.114-5.353-1.696-8.024l-.95-3.989c-.308-1.332-.682-2.647-1.02-3.971-1.408-5.282-3-10.517-4.911-15.641a.288.288 0 0 1 .17-.373.293.293 0 0 1 .373.167c1.985 5.122 3.65 10.359 5.132 15.64.356 1.326.748 2.641 1.075 3.974l1.004 3.99c.619 2.672 1.257 5.34 1.804 8.028.586 2.68 1.085 5.376 1.612 8.068.479 2.7.98 5.396 1.41 8.104a444.816 444.816 0 0 1 2.38 16.276c1.414 10.874 2.477 21.79 3.318 32.723.822 10.937 1.434 21.875 1.703 32.863a1.126 1.126 0 0 1-1.102 1.15 1.127 1.127 0 0 1-1.157-1.096V516.87z" fill="#00547A"/><g transform="translate(63 446)"><mask id="B" fill="#fff"><use xlink:href="#A"/></mask><path d="M26.582 16.611c-1.52-.55-2.147-2.611-.293-3.44 1.043-.466 3.51 1.803 3.597 3.749.084 1.845-1.401.38-3.304-.309M10.681 37.994c-1.512 1.162-1.077-1.844-.116-2.959.097-.112.196-.212.294-.302.553-.504 1.396-.056 1.394.678-.003.832-.767 1.963-1.572 2.583M27.3 8.87c-.636-1.653 6.816-2.71 10.06.167 1.56 1.383 2.77 3.547 3.875 6.505.268.715 1.295.613 1.432-.138.773-4.249.393-9.59-3.311-12.24-9.768-6.987-16.632.929-18.011.547C19.966 3.33 19.986-.013 9.362 0 4.215.005-2.693 1.883 1.082 14.974c.11.379.6.475.837.161.402-.534.89-1.172 1.013-1.33 3.525-4.488 4.133-6.48 7.05-7.248 3.438-.906 9.662.703 8.367 3.277-1.405 2.793-4.653-4.598-15.594 6.59l-.137.069c-.512.254-.74.877-.498 1.398.416.895.892 1.719 1.35 2.533a.752.752 0 0 0 1.234.118c1.395-1.658 3.036-3.317 4.889-4.391 4.33-2.508 5.929 2.086 3.122 2.776-1.455.358-4.35 2.336-6.905 4.196a1.88 1.88 0 0 0-.743 1.799c.05.334.081.68.102 1.044.083 1.448.536 3.436.724 4.865.627-.209.907-.7.956-1.126.035-.302.254-.886.403-1.042 2.394-2.477 3.876-3.704 6.116-4.517 4.224-1.534 4.189 1.699 2.848 1.928-3.669.625-7.014 1.578-9.644 6.551a1.653 1.653 0 0 0-.147 1.134c.556 2.447 1.362 4.666 2.528 6.383 2.311 3.402 3.415 2.819 3.415 2.819s1.19-1.915 4.359-4.254a1.14 1.14 0 0 0 .428-1.17c-.201-.893-.24-2.029-.022-2.93a7.6 7.6 0 0 1 .196-.677c.41-1.2 1.742-1.616 2.167-.76.297.599.292 1.652.089 2.75a.49.49 0 0 0 .716.525c.643-.36 1.492-.832 2.2-1.222.439-.242.732-.69.775-1.192.345-4.035-1.088-4.987-.192-6.753.784-1.546 2.158-.971 2.66.36.412 1.09.448 2.3.321 3.554-.094.922.877 1.574 1.671 1.108.59-.347 1.184-.705 1.776-1.073a1.906 1.906 0 0 0 .72-2.401c-1.197-2.644-2.476-5.075-3.57-5.766-2.533-1.603.524-5.938 3.965-1.945 1.194 1.385 1.894 3.357 2.344 5.425.21.96 1.338 1.358 2.087.73 1.739-1.455 3.324-3.06 4.618-4.844.31-.425.347-.992.086-1.45C32.043 7.425 28.568 12.165 27.3 8.87" fill="#0097B8" mask="url(#B)"/></g><path d="M92.504 461.57c.085 1.873-1.421.386-3.35-.313-1.541-.559-2.177-2.651-.298-3.492 1.058-.473 3.559 1.83 3.648 3.805m-7.334-6.743c-.013 1.688-.16 3.373-.387 5.047-.463 3.342-1.36 6.65-2.838 9.695-1.475 3.044-3.417 5.794-5.068 8.7-.82 1.457-1.576 2.955-2.1 4.542-.522 1.582-.77 3.284-.515 4.953-.307-1.66-.113-3.385.363-5 .472-1.625 1.206-3.155 2.009-4.631 1.608-2.954 3.491-5.74 4.942-8.745 1.452-3.004 2.275-6.277 2.774-9.578.484-3.31.664-6.666.566-10.027.218 1.67.28 3.359.254 5.044m-12.138 28.135c-1.533 1.18-1.092-1.871-.118-3.003.099-.114.198-.216.298-.306.56-.512 1.416-.058 1.414.687-.003.845-.778 1.994-1.594 2.622m26.93-36.592c-4.95-1.704-4.337 3.114-7.9 3.05-3.848-.068-7.003-.862-8.056-.946-1.562-.124-2.72-2.11-5.156-1.257-1.718.602-2.22 2.781-5.622 2.502-3.852-.316-8.17-4.973-9.7 2.017-.669 3.055-.663 5.516-.196 7.798a.47.47 0 0 0 .84.188c.483-.649 1.098-1.464 1.23-1.633 3.574-4.556 3.963-6.257 6.921-7.037 3.486-.92 9.797.714 8.484 3.327-1.424 2.835-4.718-4.668-15.81 6.688 0 0-.09.048-.227.114a1.09 1.09 0 0 0-.542 1.366c.352.926.77 1.854 1.236 2.813a.768.768 0 0 0 1.285.158c1.462-1.772 3.2-3.578 5.18-4.727 4.39-2.547 6.012 2.117 3.166 2.818-1.442.355-4.146 2.184-6.657 4.006a1.911 1.911 0 0 0-.577 2.419c.454.883.924 1.815 1.402 2.81.105.221.197.438.288.655 2.287-2.345 4.022-3.8 6.206-4.593 4.283-1.556 4.247 1.725 2.888 1.957-3.129.534-6.024 1.305-8.452 4.537.88 3.406.318 6.338 1.061 8.603 1.343 4.096 3.472 3.982 3.488 4.002.001 0 0 0 0 0 .015-.023 1.23-1.961 4.429-4.324.365-.269.527-.734.427-1.178-.204-.907-.245-2.062-.023-2.978.058-.242.125-.471.199-.687.416-1.218 1.766-1.64 2.196-.772.302.608.297 1.676.091 2.79-.077.419.36.74.728.534.65-.365 1.51-.844 2.227-1.239a1.54 1.54 0 0 0 .788-1.213c.348-4.094-1.104-5.06-.196-6.852.795-1.57 2.189-.987 2.698.366.417 1.106.454 2.333.325 3.607-.095.935.89 1.598 1.695 1.124.599-.352 1.2-.715 1.8-1.09a1.935 1.935 0 0 0 .731-2.435c-1.214-2.685-2.511-5.152-3.62-5.854-2.569-1.628.531-6.028 4.02-1.975 1.21 1.407 1.92 3.409 2.378 5.507.21.975 1.356 1.378 2.115.742 1.763-1.478 3.37-3.107 4.683-4.918.313-.432.35-1.006.087-1.47-7.827-13.758-11.35-8.946-12.636-12.29-.645-1.678 6.91-2.751 10.201.17 1.609 1.428 2.85 3.677 3.988 6.76.261.709 1.276.625 1.438-.114 1.087-4.94.82-11.653-5.547-13.846" fill="#00547A"/><path d="M131.95 519.83c-.297-2.826-.48-5.548-.632-8.318-.145-2.759-.242-5.517-.286-8.276-.09-5.517.01-11.035.32-16.544.639-11.009 2.077-22.017 4.945-32.705 1.424-5.341 3.256-10.584 5.557-15.62a74.681 74.681 0 0 1 3.903-7.326c1.438-2.365 3.024-4.644 4.793-6.773 3.52-4.26 7.697-8.01 12.465-10.756a43.911 43.911 0 0 1 7.441-3.463 51.398 51.398 0 0 1 7.907-2.04.545.545 0 0 1 .629.45.552.552 0 0 1-.427.637l-.01.003a50.211 50.211 0 0 0-7.647 2.21 42.527 42.527 0 0 0-7.102 3.558c-4.52 2.78-8.426 6.497-11.697 10.692-1.643 2.095-3.108 4.334-4.43 6.657a72.352 72.352 0 0 0-3.573 7.188c-2.091 4.942-3.73 10.084-4.97 15.33-2.502 10.494-3.61 21.315-3.932 32.129-.153 5.41-.099 10.83.142 16.237.12 2.704.29 5.404.508 8.098.222 2.68.486 5.407.834 8.007l.005.04c.178 1.33-.738 2.554-2.045 2.734-1.308.181-2.512-.75-2.69-2.08a1.766 1.766 0 0 1-.008-.068" fill="#009F70"/><path d="M132.079 517.98c-.59-5.44-.877-10.833-1.015-16.259-.127-5.42-.068-10.843.198-16.257.549-10.82 1.882-21.641 4.618-32.145 1.357-5.25 3.115-10.401 5.33-15.349a73.082 73.082 0 0 1 3.767-7.199c1.388-2.324 2.921-4.564 4.634-6.657 3.408-4.19 7.46-7.884 12.099-10.605a42.935 42.935 0 0 1 7.253-3.445 50.289 50.289 0 0 1 7.733-2.057.262.262 0 0 1 .095.514l-.004.001a49.74 49.74 0 0 0-7.61 2.139c-2.47.93-4.84 2.114-7.093 3.489-4.523 2.736-8.446 6.415-11.736 10.574-1.653 2.077-3.13 4.299-4.463 6.603a72.124 72.124 0 0 0-3.61 7.133c-2.116 4.904-3.782 10.007-5.053 15.211-2.562 10.412-3.74 21.145-4.14 31.873a221.756 221.756 0 0 0 .022 16.111c.207 5.359.57 10.748 1.215 16.028l.003.029a1.145 1.145 0 0 1-.981 1.282 1.133 1.133 0 0 1-1.26-.999l-.002-.016" fill="#00547A"/><path d="M140.21 521.27c-.204-3.262-.234-6.425-.195-9.63.043-3.195.182-6.386.42-9.571.478-6.369 1.324-12.72 2.726-18.977a92.086 92.086 0 0 1 2.548-9.289c.484-1.534 1.074-3.039 1.643-4.547.635-1.489 1.24-2.986 1.974-4.436 2.791-5.84 6.636-11.323 11.7-15.674a.61.61 0 0 1 .822.033.52.52 0 0 1-.02.757l-.01.008c-4.75 4.375-8.28 9.797-10.79 15.569-.664 1.43-1.2 2.913-1.766 4.38-.5 1.49-1.023 2.973-1.44 4.488a89.632 89.632 0 0 0-2.16 9.16c-1.15 6.168-1.752 12.425-1.995 18.687-.12 3.131-.141 6.267-.07 9.398.074 3.119.224 6.284.526 9.33l.004.036c.1 1.012-.693 1.909-1.774 2.003-1.08.094-2.037-.65-2.137-1.662l-.005-.063" fill="#009F70"/><path d="M140.247 521.91c-.211-3.262-.26-6.465-.244-9.695.02-3.223.13-6.443.335-9.659.412-6.427 1.17-12.84 2.454-19.16a97.648 97.648 0 0 1 2.346-9.381c.447-1.55.995-3.07 1.521-4.594.59-1.503 1.15-3.017 1.835-4.481 2.595-5.9 6.184-11.442 10.928-15.851a.343.343 0 0 1 .473.498l-.005.006c-4.56 4.425-7.962 9.927-10.392 15.785-.642 1.452-1.162 2.956-1.71 4.445-.487 1.514-.995 3.019-1.403 4.557a96.336 96.336 0 0 0-2.117 9.299c-1.134 6.263-1.749 12.617-2.02 18.979-.135 3.18-.177 6.366-.13 9.549.05 3.175.171 6.379.44 9.505l.002.024a1.162 1.162 0 1 1-2.312.2l-.002-.026" fill="#00547A"/><path d="M123.348 507.71a3.75 3.75 0 0 1-.182-.2c-.055-.067-.065-.086-.1-.13l-.168-.228-.312-.43-.62-.843a56.978 56.978 0 0 0-1.275-1.644 45.391 45.391 0 0 0-2.742-3.107c-1.92-1.973-4.039-3.75-6.392-5.09-2.349-1.328-4.986-2.144-7.657-2.02-1.33.082-2.643.404-3.893.91l-.926.418c-.3.158-.59.338-.887.506l-.443.257-.42.298-.84.597-.02.016a.295.295 0 0 1-.418-.08.316.316 0 0 1 .066-.423l.845-.655.423-.328.45-.288c.303-.188.6-.388.91-.567l.957-.482c1.3-.593 2.695-1 4.128-1.147 2.879-.26 5.769.51 8.315 1.815 2.553 1.318 4.842 3.09 6.922 5.056a46.746 46.746 0 0 1 2.973 3.104c.47.54.935 1.086 1.385 1.644l1.207 1.517.146.183a1.02 1.02 0 0 1-.134 1.406.95.95 0 0 1-1.298-.065" fill="#009F70"/><path d="M121.778 505.79a2.94 2.94 0 0 1-.161-.177c-.05-.059-.062-.08-.094-.122l-.16-.217-.297-.415-.59-.815a52.914 52.914 0 0 0-1.219-1.592 41.078 41.078 0 0 0-2.646-3c-1.857-1.907-3.937-3.612-6.268-4.866-2.317-1.272-4.948-1.984-7.587-1.841-2.648.132-5.186 1.193-7.406 2.68l-.003.002a.223.223 0 0 1-.254-.366c2.219-1.588 4.82-2.783 7.613-3.01 2.781-.24 5.604.436 8.07 1.693 2.488 1.241 4.702 2.948 6.68 4.858.993.955 1.931 1.963 2.823 3.008.442.526.88 1.054 1.302 1.595l1.15 1.492.121.158a.712.712 0 0 1-1.074.935" fill="#00547A"/><path d="M121.241 517.14a99.245 99.245 0 0 0-.249-5.18 136.122 136.122 0 0 0-.473-5.212 139.06 139.06 0 0 0-1.527-10.366c-1.286-6.864-3.102-13.644-5.76-20.09-2.656-6.42-6.214-12.558-11.188-17.422-2.494-2.403-5.327-4.486-8.48-5.964a29.876 29.876 0 0 0-4.892-1.828 34.604 34.604 0 0 0-5.16-.966l-.01-.001a.56.56 0 0 1-.498-.618.564.564 0 0 1 .607-.495c1.81.147 3.614.42 5.389.841a31.302 31.302 0 0 1 5.177 1.758c3.357 1.451 6.406 3.551 9.099 5.992 2.686 2.46 5.005 5.281 7.014 8.283 2.007 3.007 3.716 6.192 5.19 9.47 2.946 6.562 5.02 13.456 6.552 20.436.765 3.492 1.391 7.013 1.89 10.552.251 1.77.468 3.544.651 5.325.18 1.79.335 3.546.425 5.395a1.866 1.866 0 0 1-1.787 1.945 1.87 1.87 0 0 1-1.968-1.767l-.002-.049v-.04z" fill="#009F70"/><path d="M122.569 517.81c-.097-3.498-.397-7.069-.804-10.59-.41-3.53-.95-7.046-1.628-10.536-1.36-6.975-3.264-13.866-6.033-20.417-2.768-6.525-6.466-12.77-11.624-17.712-2.586-2.442-5.52-4.555-8.78-6.048a30.912 30.912 0 0 0-5.053-1.839 35.86 35.86 0 0 0-5.315-.955h-.006a.36.36 0 0 1-.325-.395.364.364 0 0 1 .396-.318c1.837.157 3.666.442 5.462.875a31.868 31.868 0 0 1 5.237 1.793c3.392 1.476 6.466 3.6 9.18 6.066 2.707 2.484 5.043 5.332 7.065 8.363 2.019 3.035 3.736 6.251 5.215 9.56 2.956 6.627 5.027 13.59 6.546 20.64a142.665 142.665 0 0 1 1.864 10.655c.483 3.581.858 7.144 1.032 10.799a1.2 1.2 0 0 1-1.157 1.245 1.205 1.205 0 0 1-1.27-1.134l-.001-.018-.001-.036z" fill="#00547A"/><path d="M86.756 497.3c.477-1.164 1.394-2.108 2.552-2.815 2.366-1.458 5.438.828 6.052.877.574.065 4.768-1.221 6.692.434.954.844 1.167 1.944.734 3.09-1.753 4.56-9.534 8.495-12.779 9.968-.792.36-1.874.025-2.236-.694-1.103-2.202-2.75-6.797-1.015-10.86" fill="#0097B8"/><path d="M94 494.98c-1.32-.597-3.606-1.582-5.478-.498-1.233.707-2.209 1.653-2.717 2.817-1.848 4.067-.094 8.665 1.081 10.868.258.484.862.787 1.486.83-.027-.113-2.672-11.296 5.628-14.016" fill="#00547A"/><path d="M94.615 499.77c3.692-3.011 4.326-5.266 2.089-5.766-.545.076-1.034.178-1.406.253-1.277 1.174-5.094 5.392-6.298 14.748h.001c.038-.128 1.798-6.122 5.614-9.235" fill="#00547A"/><path d="M130.19 520.27a.508.508 0 0 0-.079.213l.036-.169.077-.392.163-.882c.113-.601.238-1.207.371-1.812.272-1.21.6-2.41.969-3.598.767-2.366 1.75-4.67 3.013-6.815 1.264-2.141 2.828-4.104 4.643-5.759a22.403 22.403 0 0 1 6.075-3.953c2.202-.947 4.508-1.516 6.819-1.839l1.737-.18c.58-.054 1.16-.04 1.738-.062 1.159-.066 2.309.045 3.46.093.576.01 1.142.121 1.714.177l1.709.21c1.125.217 2.256.405 3.373.647 1.11.282 2.223.538 3.324.842l3.274 1.006c.29.09.457.41.373.717a.544.544 0 0 1-.653.401l-.026-.007-3.263-.833c-1.092-.246-2.193-.443-3.287-.667-1.1-.184-2.206-.312-3.307-.471l-1.658-.122c-.553-.027-1.105-.11-1.657-.092-1.103.01-2.208-.046-3.3.072-.547.048-1.097.059-1.638.137l-1.62.248c-2.141.406-4.232 1.034-6.176 1.98a20.087 20.087 0 0 0-5.245 3.77 22.163 22.163 0 0 0-3.878 5.284c-1.039 1.96-1.833 4.07-2.436 6.246a42.653 42.653 0 0 0-1.013 5.022l-.124.88-.074.488-.046.27c-.05.217-.118.435-.201.64-.441.932-1.512 1.308-2.392.841-.88-.467-1.236-1.6-.795-2.53" fill="#009F70"/><path d="M130.125 521.32c-.015.006-.022.018-.02.03l.044-.178.091-.391.187-.835c.129-.563.266-1.128.414-1.69a42.087 42.087 0 0 1 1.034-3.344 33.176 33.176 0 0 1 3.028-6.341c1.242-2 2.741-3.863 4.501-5.46a22.402 22.402 0 0 1 5.946-3.889c2.171-.967 4.475-1.604 6.81-1.941.583-.078 1.171-.117 1.756-.177.293-.024.585-.061.879-.075l.88-.013c.586-.004 1.173-.03 1.758-.014l1.751.102c4.669.322 9.203 1.472 13.573 2.958a.353.353 0 0 1 .223.451.364.364 0 0 1-.45.223c-4.37-1.346-8.871-2.343-13.412-2.522l-1.7-.05c-.565.002-1.13.043-1.694.063l-.846.037c-.28.021-.56.065-.839.097-.558.074-1.12.126-1.673.216-2.213.387-4.362 1.053-6.359 2.013s-3.825 2.236-5.407 3.763c-1.584 1.526-2.923 3.293-4.027 5.195a31.176 31.176 0 0 0-2.666 6.038 39.832 39.832 0 0 0-.883 3.196c-.125.54-.24 1.081-.348 1.63l-.161.832-.089.441-.051.237a3.941 3.941 0 0 1-.15.436c-.291.571-.997.803-1.577.515a1.15 1.15 0 0 1-.523-1.553" fill="#00547A"/><path d="M192.74 450.46c-1.062-1.105-1.956-2.852-1.788-3.923.148-.944 1.485-1.197 2.199-.337.126.152.25.318.37.5 1.189 1.801 1.211 5.833-.781 3.76m-1.9-23.868c-1.365-4.223 4.2-.224 5.795 2.852.16.31.297.61.413.898.65 1.628-.839 1.874-2.176 1.09-2.3-1.35-3.303-2.59-4.031-4.84m-8.72 4.698c-.427 3.13-4.256 7.541-4.443 3.325-.1-2.247.597-5.028 1.804-6.03 1.063-.881 2.76.16 2.715 1.797a8.368 8.368 0 0 1-.075.908m11.716-9.64c-4.59-1.742-1.111-7.747 4.968-2.223 1.718 1.562 3.172 3.428 4.42 5.364.552.857 1.865.393 1.77-.627a29.889 29.889 0 0 0-.654-4.007 18.934 18.934 0 0 0-1.225-3.544c-7.052-7.678-12.75-3.573-11.206-5.893 1.018-1.53 2.694-1.733 4.578-1.235.648.172 1.11-.636.628-1.108-.292-.285-.59-.567-.895-.845-8.452-7.72-19.122-.798-21.066-.922-1.944-.123-10.076-11.283-21.263-1.768-2.596 2.21-3.17 5.864-2.783 9.56.087.835 1.095 1.194 1.665.586 1.958-2.086 3.884-3.606 5.946-4.536 5.453-2.459 15.391.44 13.954 2.135-2.657 3.136-5.604-1.875-18.181 8.023a2.44 2.44 0 0 0-.732 2.877c.198.457.404.912.618 1.364.648 1.286.75 1.493 1.627 3.152l.938 1.66a.816.816 0 0 0 1.505-.204c.47-1.88 1.077-3.568 2.28-5.086 2.21-2.785 7.06-6.03 9.774-6.418 3.315-.474 4.748 3.32 2.257 3.709-9.383 1.466-12.532 9.634-12.335 13.153a87.546 87.546 0 0 0 5.537 6.753c.555.615 1.566.292 1.673-.535.409-3.172.778-6.421 2.805-8.804 1.34-1.574 3.588-1.94 4.008.254.577 3.022-3.18 3.62-4.044 12.468-.071.726.197 1.449.717 1.953a127.047 127.047 0 0 0 3.653 3.405c.557.5 1.434.196 1.58-.544.874-4.414 2.371-9.719 3.779-7.287 1.29 2.23.37 6.63-.621 9.906-.289.956.02 1.996.792 2.616 2.648 2.13 4.82 3.714 6.12 4.634.781.552 1.839.477 2.534-.182 1.777-1.686 5.241-5.23 8.51-10.066.537-.797.554-1.85.031-2.657-2.413-3.728-4.672-8.304-1.76-8.253 1.656.03 3.2 1.38 4.513 3.14a.96.96 0 0 0 1.65-.193 39.628 39.628 0 0 0 2.396-7.185 2.388 2.388 0 0 0-.116-1.422c-2.344-5.78-5.638-9.385-10.345-11.17" fill="#0097B8"/><path d="M159.29 410.692c.052-.02.107-.037.16-.056.13-.048.26-.096.393-.138.066-.021.135-.039.202-.059.123-.036.246-.073.371-.105.072-.02.147-.034.22-.05.124-.03.246-.06.372-.085.072-.015.146-.026.218-.039.13-.024.258-.048.389-.068.069-.01.139-.017.208-.027.137-.018.274-.038.412-.052.062-.007.124-.011.186-.017.147-.014.294-.028.442-.037.058-.004.116-.006.175-.009.153-.008.306-.017.46-.021.051-.002.102 0 .154-.002.161-.003.323-.005.485-.004l.123.002c.173.003.345.006.517.013l.088.005c.183.008.366.018.549.032l.058.005c.192.014.383.03.572.05l.034.004c.198.021.394.044.588.07l.016.003c.2.027.398.056.593.088h.003c.4.066.79.141 1.165.225.925-3.167 1.81-5.225 2.557-6.559a23.001 23.001 0 0 0-.738-.494l-.027-.017a21.462 21.462 0 0 0-.343-.215l-.055-.033a17.922 17.922 0 0 0-.791-.456l-.02-.01a16.062 16.062 0 0 0-.797-.405l-.079-.037c-.277-.129-.56-.25-.85-.363l-.104-.04c-.11-.042-.223-.083-.335-.123l-.121-.042a15.43 15.43 0 0 0-.383-.123l-.062-.019c-.15-.045-.303-.087-.457-.127l-.1-.024a10.65 10.65 0 0 0-.856-.179l-.126-.021a11.736 11.736 0 0 0-.48-.066l-.053-.005a11.312 11.312 0 0 0-.433-.037l-.153-.009a9.488 9.488 0 0 0-.355-.013c-.053 0-.105-.002-.158-.003-.142 0-.284.002-.428.007-.027.001-.053 0-.08.002-.168.008-.338.02-.51.035a10.305 10.305 0 0 0-1.09.157l-.15.029c-.176.037-.354.078-.534.125l-.104.03c-.147.039-.294.081-.443.128-.06.018-.12.039-.18.059-.131.043-.261.088-.392.136-.06.022-.119.043-.178.066-.167.064-.334.133-.503.206l-.061.025c-.188.082-.377.172-.567.266-.057.028-.114.058-.17.087-.138.07-.277.144-.416.22l-.194.11c-.147.083-.294.17-.442.262l-.149.09c-.195.123-.392.252-.59.388l-.131.093a19.819 19.819 0 0 0-1.104.832l-.186.15c-.203.169-.408.343-.614.526-2.61 2.318-3.187 6.156-2.798 10.037.088.876 1.1 1.254 1.674.615 1.968-2.19 3.904-3.786 5.977-4.762.172-.08.348-.156.53-.227M161.173 424.226c.046-.051.096-.103.144-.154.098-.105.195-.209.299-.314.06-.062.124-.123.187-.184.097-.096.195-.19.297-.286l.212-.194a19.237 19.237 0 0 1 .861-.737l.237-.192c.115-.09.23-.179.347-.267l.236-.18c.133-.098.268-.194.402-.29l.204-.145c.191-.133.384-.262.577-.389.092-.06.184-.116.276-.174l.331-.209c.102-.062.204-.121.305-.18.102-.06.202-.12.303-.177a23.014 23.014 0 0 1 .916-.486 17.439 17.439 0 0 1 .586-.277c.088-.039.175-.075.262-.111.102-.043.205-.087.304-.125.085-.033.166-.06.25-.09.097-.035.196-.073.291-.103-.544-1.379-.953-2.721-1.16-3.962h-.001c-.104.01-.212.02-.32.032l-.119.013c-.115.013-.234.028-.355.045l-.112.015c-.128.019-.258.039-.392.062l-.09.016c-.138.025-.278.051-.423.081l-.054.011c-.149.032-.303.068-.46.106l-.087.02c-.158.04-.321.085-.488.132l-.105.03a16.68 16.68 0 0 0-1.184.393l-.068.026c-.195.074-.395.153-.6.237l-.045.018c-.209.088-.425.182-.644.282l-.103.046a26.152 26.152 0 0 0-1.48.742l-.113.061c-.249.136-.503.279-.765.43-.014.01-.03.019-.044.027-.261.153-.528.314-.8.483l-.083.05c-.27.17-.548.35-.832.536l-.14.092c-.28.186-.565.38-.856.584l-.156.11c-.297.209-.6.425-.91.654l-.126.094c-.328.243-.662.494-1.004.76a2.247 2.247 0 0 0-.693 2.677c.188.424.382.848.585 1.269.612 1.196.708 1.388 1.538 2.932l.886 1.544c.346.601 1.253.483 1.423-.19.444-1.75 1.018-3.319 2.156-4.73.124-.154.257-.309.397-.464" fill="#00547A"/><path d="M186.99 459.88c.103.038.207.068.313.088l.077.014c.279.04.562.022.833-.058a2.018 2.018 0 0 0 .571-.277c.08-.057.159-.116.231-.186.115-.111.238-.23.366-.357l.044-.044a40.213 40.213 0 0 0 .823-.83l.002-.002c.779-.802 1.7-1.798 2.695-2.964v-.001c.123-1.353.045-2.972-.332-4.91-.99-1.106-1.8-2.754-1.64-3.783.065-.423.366-.706.742-.812-2.353-13.836.713-18.113-3.329-29.252-2.024-5.577.255-9.788 1.646-12.154-5.565-1.276-10.978 1.302-13.459 2.13l-.013.005c-.12.039-.233.076-.338.106l-.006.002c-.093.027-.179.05-.26.069l-.071.015a2.628 2.628 0 0 1-.233.04c-.068.007-.13.011-.184.008h-.001c2.518 3.832 4.534 7.942 6.286 12.162 1.75 4.222 3.128 8.604 4.164 13.077.245 1.12.445 2.252.67 3.378.105.565.227 1.126.32 1.693l.24 1.707c.126.936.264 1.87.386 2.807-1.416-2.6-3.524-5-6.586-6.892-1.243 1.839-2.885 2.76-3.005.014-.036-.83.035-1.732.199-2.59-2.056-2.387-4.628-6.124-6.603-10.001-.208.054-.41.114-.61.175-.048.014-.096.027-.142.042-.183.057-.36.12-.536.183-.061.022-.124.042-.185.065-.167.062-.329.128-.49.195l-.198.082a14.31 14.31 0 0 0-.456.208c-.067.032-.135.063-.2.096-.146.072-.289.146-.43.223l-.196.106a14.538 14.538 0 0 0-1.526.988c-.057.042-.112.085-.167.127-.12.092-.237.184-.351.279-.052.042-.102.085-.153.128-.115.097-.227.194-.337.293l-.137.127c-.11.103-.22.206-.326.31l-.116.12c-.108.11-.216.219-.319.331l-.088.098c-.109.12-.217.242-.32.364l-.034.04a14.41 14.41 0 0 0-1.278 1.785l-.035.055c-.071.119-.138.237-.205.355-.026.046-.054.092-.079.139-.059.107-.115.214-.17.321l-.089.171c-.05.1-.098.202-.146.302l-.089.19c-.043.095-.084.19-.125.284a12.007 12.007 0 0 0-.276.688 13.748 13.748 0 0 0-.308.94 8.99 8.99 0 0 0-.175.677l-.048.224c-.014.069-.028.138-.04.206-.015.075-.027.15-.04.223l-.03.192-.028.22c-.007.06-.015.119-.02.176-.008.076-.013.15-.019.223-.003.051-.008.104-.01.155-.005.081-.007.16-.008.238l-.003.117c0 .115.002.226.008.333a87.21 87.21 0 0 0 5.435 6.738c.136.153.3.249.472.292a.947.947 0 0 0 .946-.308.978.978 0 0 0 .224-.517c.125-.99.247-1.986.416-2.962.034-.195.07-.39.107-.582.076-.387.16-.769.258-1.145.049-.188.1-.374.156-.558.11-.37.235-.732.377-1.085.355-.883.818-1.71 1.44-2.454 1.314-1.571 3.522-1.936 3.934.254.407 2.167-1.383 3.085-2.738 6.708-.53 1.418-.993 3.25-1.232 5.734a2.428 2.428 0 0 0 .704 1.949 125.57 125.57 0 0 0 3.586 3.397.906.906 0 0 0 .694.242.94.94 0 0 0 .447-.157.966.966 0 0 0 .41-.627c.268-1.377.596-2.84.962-4.127a28.665 28.665 0 0 1 .34-1.104c.077-.232.155-.453.235-.663.2-.523.407-.969.617-1.305.085-.135.17-.252.255-.349.214-.243.431-.364.648-.329.218.035.436.226.652.605.238.417.399.91.497 1.458.033.183.06.372.079.566.04.388.053.796.044 1.22-.036 1.904-.511 4.105-1.048 6.016-.06.213-.12.421-.181.626-.283.953.02 1.99.777 2.61 2.6 2.125 4.73 3.706 6.008 4.624a1.9 1.9 0 0 0 .363.2c.032.015.065.026.098.038" fill="#00547A"/><path d="M189.99 446.73c.013-1.199-.08-2.393-.127-3.591l-.143-1.792a33.874 33.874 0 0 0-.174-1.79l-.208-1.787-.277-1.777c-.085-.594-.2-1.183-.313-1.772-.117-.587-.21-1.181-.35-1.764-.484-2.351-1.135-4.664-1.873-6.945-.75-2.277-1.588-4.528-2.6-6.699-.26-.54-.505-1.085-.774-1.62-.282-.528-.546-1.064-.841-1.584a43.6 43.6 0 0 0-1.841-3.072c-1.316-1.985-2.75-3.905-4.467-5.537 1.58 1.74 2.895 3.718 4.114 5.742.586 1.027 1.19 2.048 1.694 3.12l.794 1.592.703 1.635.7 1.636.61 1.675.605 1.674c.206.558.355 1.134.535 1.7l.519 1.705.26.853c.082.285.144.576.218.864l.838 3.465c.24 1.164.433 2.338.652 3.506.102.586.222 1.168.31 1.756l.205 1.771c.13 1.181.286 2.36.396 3.542l.196 3.559.098 1.777-.007 1.781-.049 3.559c.006.593-.042 1.184-.09 1.775l-.136 1.773-.29 3.54c.171-1.177.38-2.353.52-3.537.114-1.187.28-2.371.353-3.564.083-1.191.186-2.383.207-3.58l.045-1.794-.012-1.795z" fill="#64CC75"/><path d="M108.875 406.819c-1.42-.505-2.968-1.65-3.282-2.67-.277-.898.8-1.713 1.805-1.27.177.078.359.17.544.277 1.833 1.063 3.596 4.61.933 3.663m-12.814-11.303c-3.01-.535-7.611 1.983-4.593-.841 1.961-1.836 6.652-2.823 7.632-1.621 1.743 2.135-.635 2.89-3.039 2.462m-1.739 26.874c-.04.282-.096.575-.172.879-.75 3.008-4.844 6.86-4.55 2.719.156-2.207 1.121-4.842 2.368-5.677 1.099-.735 2.579.484 2.354 2.079m16.701-29.128c-2.753-2.829 5.99-6.512 11.394-6.329 3.437.117 6.324 2.248 10.368 5.24.501.37 1.206-.058 1.102-.676-.493-2.956-1.807-5.824-4.596-7.823-6.246-4.479-18.015 4.182-19.784 4.471-1.769.29-10.156-12.489-23.727-4.532-1.538.902-3.202 2.461-4.765 4.311.189-.101.377-.204.567-.296 5.34-2.547 15.236.073 13.853 1.776-2.725 3.355-5.99-2.395-20.356 10.517a1.92 1.92 0 0 0-.616 1.161c-.594 4.355-.602 8.387-.107 12.027a.65.65 0 0 0 1.183.276c2.62-3.89 6.132-9.232 10.903-11.17 7.187-2.918 8.894 3.658 4.395 4.252-3.312.438-10.396 6.498-14.866 10.024a1.586 1.586 0 0 0-.529 1.703c.63 2.104 1.454 4.03 2.45 5.757a.731.731 0 0 0 1.291-.048c1.59-3.261 2.85-6.96 5.905-8.87 1.724-1.078 3.955-.749 3.71 1.438-.339 3.01-4.061 2.447-7.464 10.502-.275.651-.11 1.41.401 1.895a18.925 18.925 0 0 0 3.602 2.69c4.931 2.827 7.838 5.03 9.22 6.176.52.431 1.296.327 1.68-.23 1.152-1.674 3.793-4.834 8.197-6.515.239-.091.477-.184.715-.28a1.26 1.26 0 0 0 .786-1.324c-.284-2.252-1.18-5.43-3.924-6.622-1.864-.81.398-4.476 4.132-1.53 1.28 1.01 1.272 4.49 1.978 6.936.166.577.806.873 1.34.605a53.671 53.671 0 0 0 7.578-4.613 1.33 1.33 0 0 0 .446-1.544c-2.482-6.52-7.11-8.499-12.297-10.166-1.933-.621-1.022-4.639 4.824-1.675 3.511 1.78 5.84 4.526 9.277 9.103a1.76 1.76 0 0 0 2.618.231 43.728 43.728 0 0 0 5.46-6.243c.478-.668.337-1.6-.324-2.084-4.67-3.424-11.86-8.775-15.212-9.713-4.673-1.308-1.307-7.606 5.697-3.549 4.586 2.657 8.133 7.184 10.738 10.614.557.732 1.686.64 2.105-.179a35.091 35.091 0 0 0 3.414-10.292c.08-.483.149-.985.204-1.502a1.678 1.678 0 0 0-.947-1.687c-16.86-8.037-19.207.677-22.02-2.214" fill="#0097B8"/><path d="M108.069 406.03c-1.468-.509-3.07-1.664-3.394-2.692-.287-.905.827-1.727 1.866-1.28.184.079.372.171.563.28 1.897 1.07 3.72 4.647.965 3.692m14.92-14.726c-8.532-1.295-10.479 3.282-12.698 1.058-2.692-2.697 5.25-6.164 10.848-6.374-1.12-1.512-2.58-2.513-3.936-2.835a42.72 42.72 0 0 0-1.359.583c-3.472 1.556-6.311 3.339-7.122 3.468-1.83.292-10.503-12.59-24.538-4.57-1.59.91-3.312 2.482-4.928 4.347.195-.102.389-.206.587-.298 5.52-2.568 15.757.074 14.328 1.79-2.82 3.383-6.196-2.414-21.053 10.603a1.92 1.92 0 0 0-.637 1.171c-.615 4.39-.624 8.453-.11 12.123a.64.64 0 0 0 .176.365c-.478-5.453 1.554-8.818 5.463-12.038 3.348-2.758 7.618-5.032 11.92-6.78.046-.044.088-.085.138-.13 1.497-1.366 4.529-2.263 6.423-2.154 2.749-.802 5.303-1.36 7.395-1.657-.153.167-.315.33-.449.51l-.472.637c-1.29 1.688-2.24 3.578-3.096 5.491-.402.967-.752 1.951-1.113 2.932-.194.487-.318.993-.47 1.491l-.441 1.499c-.14.501-.308.996-.425 1.502l-.351 1.518c-.226 1.013-.475 2.023-.663 3.042a111.157 111.157 0 0 0-1.555 12.309c-.083 1.563-.213 3.12-.271 4.683-.25 3.317-.341 6.134-.37 8.09-.005.368.518.444.631.094.9-2.77 2.922-6.485 7.383-10.156.15-.124.295-.25.443-.373a5.406 5.406 0 0 0-1.695-1.142c-1.927-.816.412-4.512 4.274-1.542.086.066.166.144.241.23 2.114-1.913 4.105-3.871 6.076-5.864-2.165-1.487-4.664-2.392-7.304-3.22-1.999-.625-1.057-4.676 4.989-1.687 1.572.777 2.915 1.737 4.22 2.95 2.502-2.658 4.324-5.09 5.661-7.344-3.132-2.083-6.138-3.876-8-4.384-4.833-1.319-1.352-7.668 5.892-3.578 1.577.89 3.031 1.99 4.374 3.188 1.092-3.06 1.397-5.793 1.584-8.36.029-.407.027-.802.011-1.189" fill="#00547A"/><path d="M106.891 386.954c-.341.356-.672.726-.97 1.125l-.46.591-.414.625c-.276.417-.564.83-.796 1.277l-.736 1.318c-.223.452-.43.913-.646 1.37-.453.903-.797 1.857-1.163 2.801-.389.936-.666 1.913-.98 2.877-.149.485-.319.963-.45 1.453l-.391 1.47c-.56 1.952-.957 3.945-1.383 5.93-.21.993-.354 2-.534 3-.163 1.001-.363 1.997-.48 3.007l-.38 3.023c-.124 1.008-.265 2.012-.341 3.026-.174 2.023-.392 4.042-.491 6.07-.084 1.747-.169 3.492-.24 5.237-.01.282-.025.564-.036.846.216-2.018.404-4.035.596-6.051.08-1.01.239-2.01.356-3.015l.359-3.013c.104-1.006.274-2.003.426-3l.463-2.994c.07-.5.169-.995.266-1.489l.277-1.485c.194-.99.351-1.986.573-2.967.85-3.932 1.869-7.821 3.216-11.57.356-.927.669-1.877 1.072-2.78l.576-1.371.639-1.337c.204-.453.446-.878.68-1.312l.353-.65.387-.625c.51-.84 1.076-1.646 1.761-2.342-.39.263-.748.587-1.084.93l-.025.025" fill="#64CC75"/><path d="M170.44 477.97c-1.325-1.211-2.441-3.126-2.231-4.3.185-1.035 1.854-1.312 2.744-.37.157.167.312.349.462.548 1.484 1.974 1.512 6.394-.975 4.122m-3.53-26.731c-3.765-.103-3.533 1.846-4.67 1.443-1.003-.355-.793-2.575 1-3.576 3.661-2.041 7.058 2.226 3.67 2.133m-10.574 21.378c-.345-1.665-.144-3.825.663-4.717.71-.786 2.137-.212 2.298 1.016.029.217.047.446.052.687.046 2.388-2.365 6.14-3.013 3.014m13.532-12.012c-3.616-1.176.226-5.925 4.949-1.749.325.288.638.592.94.905-.094-.639-.2-1.282-.33-1.93-1.14-5.713-4.3-10.965-7.843-13.372-7.435-5.053-10.148 4.67-11.593 4.791-1.444.122-6.445-6.586-10.562-2.01-2.602 2.892-3.755 6.575-3.355 10.846a44.083 44.083 0 0 1 2.869-3.91c3.358-4.125 9.067-3.015 8.164-1.579-1.849 2.946-6.713.492-10.204 9.64.653 2.188 1.658 4.495 3.035 6.898h.004c.406-2.623 1.143-5.313 2.745-7.278 3.813-4.676 7.482-.917 4.627 1.184-1.591 1.171-3.438 5.32-4.988 9.025 2.878 2.683 6.801 4.419 9.711 6.589 3.865 2.881 2.044 4.655 4.365 7.227 1.442 1.598 4.798 2.65 6.409 3.08a1.198 1.198 0 0 0 1.356-.559c1.3-2.289 4.948-9.418 5.83-18.706-.77-3.432-2.053-7.766-6.13-9.092" fill="#0097B8"/><path d="M163.4 481.2c-.12-7.05-6.98-2.55-14.396-7.204 2.742 2.08 6.118 3.576 8.701 5.392 3.873 2.722 2.048 4.398 4.374 6.828 1.31 1.37 4.195 2.313 5.925 2.78-1.652-.878-4.524-3.08-4.604-7.796M166.19 451.89c-3.501-.102-3.286 1.816-4.344 1.42-.931-.35-.736-2.534.932-3.519 3.403-2.008 6.561 2.19 3.412 2.099m2.836-1.894c-4.535-6.028-9.014-3.953-11.413-2.014-.549.855-.98 1.573-1.333 1.838-.016.013-.033.022-.049.032-.02.013-.04.03-.06.04a.377.377 0 0 1-.133.04c-.012.001-.027-.002-.04-.002.34.314 1.147 1.125 2.2 2.584l.01.016.357.556.325.58c.886 1.535 1.61 3.165 2.315 4.798 1.374 3.29 2.446 6.713 3.394 10.17.42 1.745.87 3.483 1.253 5.238l.557 2.638.278 1.319c.09.44.16.885.24 1.328l.469 2.657c.156.886.334 1.769.456 2.66l.691 4.527a.478.478 0 0 0 .027-.009l.02-.006-.392-4.558c-.12-1.442-.32-2.873-.51-4.306.305-.374.867-1.157 1.368-2.37-1.038-1.179-1.832-2.77-1.66-3.793.173-1.018 1.725-1.29 2.553-.364.018.02.035.047.053.068.13-1.622.031-3.544-.48-5.784-.596-2.605-.364-4.679.074-6.507a6.32 6.32 0 0 0-.656-.268c-2.556-.88-1.102-3.788 1.671-3.327.622-2.388.75-4.68-1.585-7.781" fill="#00547A"/><path d="m168.62 477.48-.255-1.362-.511-2.725c-.15-.913-.382-1.81-.602-2.71l-.66-2.7c-1.021-3.564-2.135-7.124-3.762-10.51-.837-1.68-1.748-3.337-2.914-4.846l-.426-.57c-.152-.184-.316-.36-.474-.54-.319-.356-.622-.723-.991-1.038l-.529-.489-.572-.445a6.157 6.157 0 0 0-.867-.55c-.019.013-.037.022-.056.033a.054.054 0 0 0 .009.006l.005.004c.193.141.38.293.556.452l.03.027c.065.056.137.104.199.162l.285.276.019.017.014.015.188.182.158.181.132.14c.344.335.627.715.924 1.085l.441.558.403.583c.262.391.552.77.792 1.174l.715 1.216c.493.804.865 1.662 1.294 2.495 1.594 3.388 2.759 6.925 3.824 10.476l.708 2.687c.23.897.488 1.787.661 2.695l.577 2.713.288 1.356c.093.453.163.909.245 1.363.307 1.82.666 3.633.904 5.462l.607 4.643.022-.007-.443-4.655c-.136-1.471-.363-2.933-.579-4.396-.053-.362-.107-.725-.157-1.088l-.202-1.37z" fill="#64CC75"/><path d="M178.53 501.02c-.528-1.389-1.6-2.538-2.971-3.418-2.806-1.813-6.628.749-7.373.78-.7.053-2.719-3.985-7.384-1.662-1.375.684-.88 3.895.772 6.09 3.497 4.647 11.723 9.265 11.698 11.315-.012.982 1.284 1.619 1.88 1.86.134.053.277-.045.27-.184-.035-.633.007-2.184 1.035-3.523 1.814-2.364 3.36-8.021 2.073-11.258" fill="#00547A"/><path d="M178.53 501.02c-.529-1.389-1.6-2.538-2.971-3.417-2.806-1.813-6.628.748-7.373.78-.7.052-2.719-3.985-7.384-1.663-1.375.685-.88 3.896.771 6.09 2.405 3.195 8.3 3.716 10.98 6.266 1.218 1.16.281 3.842.762 5.425.229.754 1.304 1.276 1.852 1.491a.09.09 0 0 0 .11-.134c-1.439-2.156-.281-5.803-1.278-9.406-1.038-3.748-4.734-6.806-4.734-6.806 5.384-.53 7.416 3.059 7.42 7.278.003 1.625-.845 5.575-1.05 6.675-.078.411-.128.777-.162 1.097.1-.716.359-1.605.983-2.42 1.814-2.362 3.36-8.02 2.074-11.256" fill="#0097B8"/><path d="M137.25 519.99c-1.165-14.653-1.97-29.274-2.538-43.933-.55-14.654-.828-29.322-.667-43.993.18-14.667.742-29.351 2.322-43.949.797-7.294 1.87-14.571 3.52-21.722.836-3.571 1.827-7.11 3.11-10.544 1.272-3.429 2.885-6.762 5.103-9.655.18-.234.5-.266.716-.072a.582.582 0 0 1 .073.766l-.01.014c-2.061 2.792-3.576 6.05-4.76 9.428-1.196 3.38-2.112 6.88-2.874 10.419-1.507 7.087-2.447 14.32-3.112 21.574-1.32 14.52-1.627 29.144-1.554 43.748.092 14.609.62 29.217 1.421 43.806.818 14.58 1.875 29.177 3.28 43.671l.003.024c.117 1.204-.69 2.283-1.803 2.41-1.113.126-2.11-.748-2.227-1.953l-.003-.04" fill="#009F70"/><path d="M148 346.004a.502.502 0 0 0-.46.186c-2.288 2.91-3.95 6.261-5.262 9.71-1.323 3.451-2.345 7.01-3.206 10.602-1.702 7.19-2.809 14.509-3.63 21.844-1.63 14.68-2.21 29.446-2.395 44.194-.166 14.753.12 29.503.687 44.239.315 7.92.703 15.83 1.18 23.739.438 6.81.945 13.618 1.54 20.425v.011c.062.64.604 1.106 1.21 1.04.606-.065 1.048-.636.986-1.276l-.001-.014c-1.421-14.686-2.453-29.449-3.216-44.207-.748-14.763-1.193-29.547-1.156-44.33.056-14.777.539-29.573 2.105-44.254.803-7.333 1.866-14.647 3.557-21.804.85-3.575 1.855-7.111 3.135-10.535 1.275-3.388 2.857-6.664 4.926-9.57" fill="#00547A"/><path d="M167 517.63c0-.902-15.67-1.633-35-1.633s-35 .731-35 1.633c0 .016.016.032.026.048H97v75.257c0 12.737 10.469 23.062 23.382 23.062h23.236c12.914 0 23.382-10.325 23.382-23.062v-75.257h-.026c.01-.016.026-.032.026-.048" fill="#E99462"/><path d="M143.529 613.59c-12.848 0-23.263-10.194-23.263-22.769v-65.825c-10.791.165-18.699.55-22.266.972v67.259c0 12.575 10.416 22.769 23.264 22.769h22.239c3.77 0 7.334-.869 10.497-2.406h-10.471zM120 523.88V520c-10.662.19-18.476.637-22 1.124V525c1.655-.229 4.168-.443 7.99-.65 4.004-.217 8.79-.376 14.01-.47M120 517.8v-3.796c-10.453.209-18.671.698-22 1.314v3.686c1.655-.246 4.168-.476 7.99-.699 4.004-.233 8.79-.404 14.01-.505M133.276 518.56c18.831 0 32.124.725 34.724 1.445v-1.574c-1.44-.322-4.206-.61-9.534-.887-6.73-.348-15.676-.54-25.19-.54-3.893 0-7.687.033-11.276.095v1.554c3.473-.059 7.245-.093 11.276-.093" fill="#D76230"/><path d="M97 519.44V522c.434-.157 1.105-.313 2-.466V519c-.83.143-1.482.289-2 .44M133.276 524.56c18.831 0 32.124.725 34.724 1.445v-1.574c-1.44-.322-4.206-.61-9.534-.887-6.73-.348-15.676-.54-25.19-.54-3.893 0-7.687.033-11.276.095v1.554a657.94 657.94 0 0 1 11.276-.093M97 523.44V526c.434-.156 1.105-.312 2-.466V523c-.83.143-1.482.29-2 .44" fill="#D76230"/></g></g></svg>