<svg viewBox="0 0 668 818" xmlns="http://www.w3.org/2000/svg"><defs><linearGradient id="a" x1="50%" x2="50%" y1="3.064%" y2="100%"><stop stop-color="#C4F6FF" offset="0"/><stop stop-color="#D5F8FF" stop-opacity="0" offset="1"/></linearGradient><linearGradient id="b" x1="50%" x2="50%" y2="100%"><stop stop-color="#6FCFFF" stop-opacity="0" offset="0"/><stop stop-color="#63C4FF" offset=".742"/><stop stop-color="#3CA1FF" offset="1"/></linearGradient><linearGradient id="c" x1="50%" x2="50%" y2="100%"><stop stop-color="#00A1E6" stop-opacity="0" offset="0"/><stop stop-color="#0095E0" offset=".799"/><stop stop-color="#0068C9" offset="1"/></linearGradient></defs><g fill="none" fill-rule="evenodd"><g fill-rule="nonzero"><path d="M244.18 15.817.1 516.117c-.31.644.161 1.404.874 1.404h537.05a.972.972 0 0 0 .874-1.404l-244.08-500.3c-10.301-21.089-40.343-21.089-50.633 0z" fill="url(#a)" opacity=".16" transform="translate(64.144 164.61)"/><path d="M339.044 174.84v-2.91a.903.903 0 0 0-.908-.91h-7.956a.903.903 0 0 0-.909.91v2.91a6.528 6.528 0 0 1-2.874 5.396c-3.817 2.589-6.277 7.018-6.082 12.01.253 6.766 6.312 12.933 13.072 13.3 8.002.438 14.624-5.924 14.624-13.84 0-4.763-2.403-8.951-6.059-11.448-1.805-1.22-2.908-3.233-2.908-5.419z" fill="#EAFBFF"/></g><g fill-rule="nonzero"><path d="M290.32 484.82c2.636 3.318 3.476 7.566 2.29 11.63l-12.303 42.48a18.696 18.696 0 0 1-5.675 8.885 16.386 16.386 0 0 0 6.687-9.092l12.626-43.593c.956-3.295.277-6.74-1.864-9.438a10.47 10.47 0 0 0-3.96-3.076 14.768 14.768 0 0 1 2.199 2.204zM236.177 486.037c-.483.046-.955.195-1.427.299-.472.126-.921.298-1.381.447-.438.196-.898.345-1.312.586l-.645.333c-.207.115-.403.252-.61.379-.414.24-.794.54-1.174.815-.391.275-.725.62-1.093.93-.323.356-.68.677-.967 1.045-1.209 1.47-2.13 3.168-2.613 4.994-.104.46-.242.918-.288 1.39l-.103.7-.081.757-.3 3.077-1.254 12.307-.633 6.154-.403 3.846-.034.723-.07 1.458c-.091 3.88.944 7.738 2.809 11.125l-.023.012a23.203 23.203 0 0 0 15.262 12.147c.415.091.829.24 1.243.286a24.71 24.71 0 0 1-10.22-6.061c-5.41-5.316-8.058-12.698-7.252-20.23l2.601-24.407c.794-7.44 6.803-13.1 14.295-13.478l40.952-2.033a10.12 10.12 0 0 0-1.323-.103c-.161 0-.323 0-.484.012l-36.51 1.814c-1.83.149-3.66.333-5.49.505-.506.034-.99.103-1.473.172z" fill="#3CA1FF"/><path d="M293.946 484.82a12.798 12.798 0 0 0-4.282-3.513c1.474.78 2.786 1.883 3.88 3.25 2.52 3.168 3.314 7.22 2.186 11.101l-12.626 43.593a18.28 18.28 0 0 1-15.389 13.065l-16.885 2.044c-.472.057-.944.092-1.416.126.772-.034 1.531-.08 2.302-.172l16.46-1.986c7.48-.907 13.673-6.154 15.756-13.375l12.304-42.48c1.174-4.087.346-8.323-2.29-11.652z" fill="#3CA1FF"/><path d="M267.703 552.316a18.267 18.267 0 0 0 15.389-13.065l12.626-43.593c1.128-3.88.322-7.933-2.187-11.102a12.472 12.472 0 0 0-3.879-3.25 12.388 12.388 0 0 0-6.457-1.423l-1.807.092a12.756 12.756 0 0 1 6.722 2.664c1.52.677 2.877 1.71 3.96 3.077 2.14 2.698 2.82 6.13 1.864 9.437l-12.626 43.593a16.332 16.332 0 0 1-6.687 9.093 18.705 18.705 0 0 1-10.094 4.489l-16.46 1.986c-.874.103-1.737.16-2.6.184.632.045 1.254.068 1.898.068.68 0 1.359-.034 2.038-.08.472-.034.943-.069 1.415-.126l16.885-2.044z" fill="#0068C9"/><path d="m248.078 554.302 16.459-1.986a18.742 18.742 0 0 0 10.094-4.49 18.695 18.695 0 0 0 5.674-8.885l12.304-42.48c1.174-4.064.346-8.312-2.29-11.63a13.222 13.222 0 0 0-2.199-2.192 12.756 12.756 0 0 0-6.721-2.664 13.198 13.198 0 0 0-1.911-.046l-42.771 2.124c-9.289.46-16.736 7.486-17.714 16.705l-2.601 24.408c-.921 8.645 2.106 17.095 8.31 23.191 5.375 5.281 12.477 8.163 19.9 8.163.289 0 .576-.023.876-.023.851-.034 1.715-.08 2.59-.195zm-26.116-15.465c-2.083-3.846-3.2-8.243-3.062-12.606l.138-2.445.093-.77.356-3.077 2.176-18.427.38-3.065.092-.77.138-.826c.069-.55.253-1.09.38-1.63.621-2.147 1.75-4.133 3.21-5.81 1.451-1.687 3.316-3.007 5.341-3.891.495-.241 1.036-.38 1.554-.563.53-.138 1.07-.275 1.612-.367.54-.07 1.082-.184 1.634-.184a19.152 19.152 0 0 1 1.6-.046c2.072 0 4.144.012 6.204-.011 2.072-.035 4.132-.092 6.204-.15 8.264-.218 16.528-.459 24.792-.803-8.253.413-16.505.93-24.758 1.48-2.06.138-4.12.265-6.181.425-.23.023-.46.046-.69.058l36.51-1.814c.16-.012.322-.012.483-.012.449 0 .886.046 1.323.104a9.29 9.29 0 0 1 5.997 3.433c1.9 2.388 2.498 5.441 1.646 8.38l-12.304 42.48a15.111 15.111 0 0 1-12.707 10.792l-10.486 1.262 7.148-.23-10.51 1.08-3.936.413-1.347.07-1.346.057c-.45.011-.898-.046-1.347-.07l-1.358-.091c-.449-.023-.898-.15-1.347-.218a24.929 24.929 0 0 1-10.07-4.11 25.726 25.726 0 0 1-7.505-8.071l-.058.023z" fill="#B8DDFF"/><path d="M229.49 546.886c3.027 2.09 6.492 3.513 10.071 4.11.449.069.886.184 1.347.218l1.358.092c.449.023.898.08 1.347.069l1.346-.057 1.347-.07 3.936-.413 10.51-1.079-7.148.23-3.419.115-2.636.091-1.323.046-2.578-.069c-.426-.022-.852-.103-1.278-.16l-1.266-.172c-.426-.046-.829-.196-1.243-.287a23.2 23.2 0 0 1-15.262-12.147l.023-.012c-1.865-3.375-2.912-7.244-2.809-11.125l.07-1.458.034-.723.403-3.846.633-6.154 1.254-12.307.3-3.077.08-.757.104-.7c.046-.472.184-.92.287-1.39.472-1.826 1.405-3.536 2.613-4.994.288-.38.645-.7.967-1.045.368-.31.702-.654 1.094-.93.38-.287.76-.585 1.174-.815.207-.126.402-.264.61-.379l.644-.333c.414-.241.875-.379 1.312-.585.46-.15.91-.322 1.381-.448.472-.104.944-.253 1.428-.299.472-.069.966-.137 1.496-.183 1.83-.173 3.66-.345 5.49-.506.23-.022.46-.045.69-.057 2.061-.16 4.121-.298 6.182-.425 8.252-.55 16.505-1.067 24.758-1.48-8.264.344-16.517.596-24.792.803-2.072.057-4.132.115-6.204.15-2.072.022-4.132.01-6.204.01a19.153 19.153 0 0 0-1.6.047c-.552 0-1.082.114-1.634.183a19.25 19.25 0 0 0-1.612.368c-.518.195-1.059.321-1.554.562-2.025.884-3.89 2.205-5.34 3.892-1.45 1.676-2.59 3.663-3.211 5.81-.139.54-.311 1.079-.38 1.63l-.138.826-.093.77-.38 3.065-2.175 18.427-.357 3.077-.092.77-.138 2.445c-.15 4.374.979 8.76 3.062 12.606l.023-.012a25.607 25.607 0 0 0 7.493 8.083z" fill="#1B417D"/><path d="M255.568 681.826c-2.728 0-4.937-2.216-4.937-4.925 0-2.71 2.221-4.926 4.937-4.926h3.212c2.728 0 4.938 2.216 4.938 4.926s-2.222 4.925-4.938 4.925h-3.212z" fill="#001828"/><path d="M258.78 672.263c2.555 0 4.638 2.078 4.638 4.627s-2.083 4.626-4.638 4.626h-3.212c-2.555 0-4.638-2.078-4.638-4.626s2.083-4.627 4.638-4.627h3.212m0-.597h-3.212c-2.9 0-5.248 2.342-5.248 5.235s2.348 5.235 5.248 5.235h3.212c2.9 0 5.248-2.342 5.248-5.235s-2.36-5.235-5.248-5.235z" fill="#3CA1FF"/><g fill="#3CA1FF"><path d="M261.968 677.2c0-3.215-2.613-5.81-5.824-5.81a5.816 5.816 0 0 0-5.824 5.81"/><path d="M261.968 678.026a.824.824 0 0 1-.829-.826c0-2.744-2.244-4.983-4.995-4.983-2.75 0-4.995 2.239-4.995 4.983 0 .459-.369.826-.829.826s-.829-.367-.829-.826c0-3.663 2.993-6.648 6.665-6.648 3.671 0 6.664 2.985 6.664 6.648a.852.852 0 0 1-.852.826z"/></g><path d="M254.509 673.71c-.414-1.929-1.128-3.731-1.819-5.534l-1.047-2.71-.53-1.354c-.08-.23-.184-.448-.276-.666a3.028 3.028 0 0 0-.207-.436 3.74 3.74 0 0 0-1.323-1.355l-1.163-.62-1.3-.666-5.192-2.663-5.225-2.606-5.26-2.55c-3.522-1.675-7.067-3.317-10.681-4.867-2.958-1.263-4.328-4.673-3.062-7.612a5.815 5.815 0 0 1 9.15-2.1c2.97 2.56 6.009 5.016 9.059 7.45l4.604 3.605 4.638 3.548 4.673 3.49 1.174.873.587.424.311.219c.138.091.265.195.392.298a9.657 9.657 0 0 1 2.532 2.928c.16.275.31.574.437.86.104.23.196.448.3.667l.62 1.308 1.256 2.63c.828 1.745 1.657 3.501 2.762 5.131a3.003 3.003 0 0 1-.783 4.18 3.02 3.02 0 0 1-4.19-.781 3.8 3.8 0 0 1-.437-1.091z" fill="#B8DDFF"/><path d="M254.44 673.216c-.564-1.86-1.3-3.65-2.014-5.453l-1.082-2.698-.541-1.344-.276-.666a7.456 7.456 0 0 0-.254-.528 5.042 5.042 0 0 0-1.576-1.687 1.833 1.833 0 0 0-.254-.15l-.31-.172-.633-.367-1.267-.712-5.087-2.836-5.099-2.813-5.133-2.767a463.498 463.498 0 0 0-10.336-5.418 3.32 3.32 0 0 1-1.45-4.478 3.336 3.336 0 0 1 4.983-1.137 458.808 458.808 0 0 0 9.404 6.9l4.73 3.399 4.766 3.352 4.788 3.318 2.463 1.7a8.35 8.35 0 0 1 2.279 2.594c.15.253.276.505.391.77l.3.665.598 1.32 1.208 2.641c.806 1.757 1.6 3.525 2.567 5.212a1.712 1.712 0 0 1-.644 2.342 1.72 1.72 0 0 1-2.348-.643.971.971 0 0 1-.173-.344z" fill="#3CA1FF"/><path d="M258.78 681.826c-2.728 0-4.938-2.216-4.938-4.925 0-2.71 2.221-4.926 4.938-4.926 2.728 0 4.938 2.216 4.938 4.926s-2.222 4.925-4.938 4.925z" fill="#001828"/><path d="M258.78 672.263c2.555 0 4.638 2.078 4.638 4.627s-2.083 4.626-4.638 4.626c-2.555 0-4.639-2.078-4.639-4.626s2.084-4.627 4.639-4.627m0-.597c-2.9 0-5.249 2.342-5.249 5.235s2.348 5.235 5.249 5.235c2.9 0 5.248-2.342 5.248-5.235s-2.36-5.235-5.248-5.235z" fill="#3CA1FF"/><path d="M264.604 678.027a.824.824 0 0 1-.829-.827c0-2.744-2.244-4.982-4.995-4.982s-4.995 2.238-4.995 4.982c0 .46-.369.827-.829.827s-.829-.367-.829-.827c0-3.662 2.993-6.647 6.665-6.647 3.671 0 6.664 2.985 6.664 6.647a.86.86 0 0 1-.852.827z" fill="#B8DDFF"/><g><path d="M181.893 681.826c-2.728 0-4.938-2.216-4.938-4.925 0-2.71 2.222-4.926 4.938-4.926h3.211c2.728 0 4.938 2.216 4.938 4.926s-2.221 4.925-4.938 4.925h-3.211z" fill="#001828"/><path d="M185.104 672.263c2.555 0 4.639 2.078 4.639 4.627s-2.084 4.626-4.639 4.626h-3.211c-2.555 0-4.639-2.078-4.639-4.626s2.084-4.627 4.639-4.627h3.211m0-.597h-3.211c-2.9 0-5.249 2.342-5.249 5.235s2.348 5.235 5.249 5.235h3.211c2.9 0 5.249-2.342 5.249-5.235s-2.348-5.235-5.249-5.235z" fill="#3CA1FF"/><g fill="#3CA1FF"><path d="M178.693 677.2c0-3.215 2.613-5.81 5.824-5.81a5.816 5.816 0 0 1 5.824 5.81"/><path d="M190.353 678.026a.824.824 0 0 1-.829-.826c0-2.744-2.244-4.983-4.995-4.983s-4.995 2.239-4.995 4.983c0 .459-.369.826-.829.826a.824.824 0 0 1-.829-.826c0-3.663 2.993-6.648 6.665-6.648 3.671 0 6.664 2.985 6.664 6.648a.86.86 0 0 1-.852.826z"/></g><path d="M180.73 671.391c1.117-1.63 1.934-3.387 2.763-5.132l1.254-2.629.622-1.309c.104-.218.196-.436.3-.666.137-.298.275-.585.437-.86a9.794 9.794 0 0 1 2.532-2.928c.126-.104.265-.196.391-.299l.31-.218.588-.425 1.174-.872 4.673-3.49 4.638-3.548 4.604-3.605c3.05-2.434 6.09-4.89 9.059-7.451 2.428-2.101 6.1-1.837 8.206.585s1.842 6.085-.587 8.186c-.46.402-.99.723-1.519.953-3.614 1.538-7.148 3.192-10.68 4.868l-5.261 2.549-5.226 2.606-5.19 2.663-1.301.666-1.163.62a3.832 3.832 0 0 0-1.323 1.355c-.08.138-.138.287-.207.436-.092.218-.185.448-.277.666l-.53 1.355-1.046 2.71c-.691 1.802-1.405 3.604-1.82 5.533a3.006 3.006 0 0 1-3.579 2.308 2.999 2.999 0 0 1-2.313-3.57c.092-.38.265-.747.472-1.057z" fill="#B8DDFF"/><path d="M183.078 671.873c.967-1.688 1.761-3.456 2.567-5.212l1.209-2.64.598-1.321.3-.666c.114-.264.241-.528.39-.77a8.351 8.351 0 0 1 2.28-2.594l2.463-1.7 4.788-3.317 4.765-3.353 4.73-3.398a419.234 419.234 0 0 0 9.404-6.9c1.474-1.102 3.568-.815 4.673.655a3.324 3.324 0 0 1-1.15 4.97 490.466 490.466 0 0 0-10.337 5.42l-5.133 2.766-5.1 2.813-5.086 2.836-1.267.712-.633.367-.31.172c-.081.046-.173.092-.254.15a4.93 4.93 0 0 0-1.577 1.687 7.453 7.453 0 0 0-.253.529l-.276.665-.54 1.344-1.083 2.698c-.725 1.79-1.45 3.593-2.014 5.453a1.725 1.725 0 0 1-2.152 1.148 1.72 1.72 0 0 1-1.151-2.147c.034-.137.092-.264.15-.367z" fill="#3CA1FF"/><path d="M181.893 681.826c-2.728 0-4.938-2.216-4.938-4.925 0-2.71 2.222-4.926 4.938-4.926 2.728 0 4.938 2.216 4.938 4.926s-2.21 4.925-4.938 4.925z" fill="#001828"/><path d="M181.893 672.263c2.555 0 4.638 2.078 4.638 4.627s-2.083 4.626-4.638 4.626c-2.555 0-4.639-2.078-4.639-4.626s2.084-4.627 4.639-4.627m0-.597c-2.9 0-5.249 2.342-5.249 5.235s2.348 5.235 5.249 5.235c2.9 0 5.248-2.342 5.248-5.235s-2.36-5.235-5.248-5.235z" fill="#3CA1FF"/><path d="M187.717 678.027a.824.824 0 0 1-.829-.827c0-2.744-2.244-4.982-4.995-4.982-2.75 0-4.995 2.238-4.995 4.982 0 .46-.369.827-.829.827a.824.824 0 0 1-.829-.827c0-3.662 2.993-6.647 6.665-6.647 3.671 0 6.664 2.985 6.664 6.647a.86.86 0 0 1-.852.827z" fill="#B8DDFF"/></g><g><path d="M301.067 681.827c-2.728 0-4.938-2.216-4.938-4.925 0-2.71 2.222-4.926 4.938-4.926h3.211c2.728 0 4.938 2.216 4.938 4.926s-2.221 4.925-4.938 4.925h-3.211z" fill="#001828"/><path d="M304.278 672.264c2.555 0 4.639 2.078 4.639 4.627s-2.084 4.626-4.639 4.626h-3.211c-2.555 0-4.639-2.078-4.639-4.626s2.084-4.627 4.639-4.627h3.211m0-.597h-3.211c-2.9 0-5.249 2.342-5.249 5.235s2.348 5.235 5.249 5.235h3.211c2.9 0 5.249-2.342 5.249-5.235s-2.348-5.235-5.249-5.235z" fill="#3CA1FF"/><g fill="#3CA1FF"><path d="M307.479 677.2c0-3.215-2.613-5.81-5.824-5.81a5.816 5.816 0 0 0-5.824 5.81"/><path d="M307.467 678.026a.824.824 0 0 1-.829-.826c0-2.744-2.244-4.983-4.995-4.983-2.75 0-4.995 2.239-4.995 4.983 0 .459-.369.826-.829.826a.824.824 0 0 1-.829-.826c0-3.663 2.993-6.648 6.665-6.648 3.671 0 6.664 2.985 6.664 6.648a.852.852 0 0 1-.852.826z"/></g><path d="M300.584 673.641a391.947 391.947 0 0 0-1.738-5.19l-.898-2.582c-.172-.506-.23-.69-.368-.965a3.013 3.013 0 0 0-.472-.723 3.663 3.663 0 0 0-1.427-.93 4.129 4.129 0 0 0-.403-.126l-.553-.127-1.335-.31-5.34-1.251-42.725-9.988-21.386-4.937a5.734 5.734 0 0 1-4.305-6.877c.714-3.088 3.81-5.006 6.894-4.294.173.034.346.092.507.138l20.845 6.865 46.926 15.292 1.3.425.76.253c.3.114.587.23.875.367 1.14.551 2.13 1.355 2.958 2.285.414.47.794.964 1.128 1.492.322.517.61 1.183.771 1.527l1.14 2.491c.76 1.654 1.542 3.307 2.325 4.96.702 1.47.08 3.238-1.393 3.938a2.968 2.968 0 0 1-4.086-1.734z" fill="#B8DDFF"/><path d="m302.345 673.182-1.9-5.224-.954-2.606-.116-.321-.103-.253c-.07-.16-.15-.333-.242-.482a4.346 4.346 0 0 0-.644-.884c-.507-.528-1.14-.919-1.819-1.183-.173-.057-.345-.114-.495-.16l-.656-.15-1.358-.31-5.444-1.217-21.754-4.868-43.508-9.7c-1.796-.403-2.924-2.17-2.521-3.962s2.175-2.916 3.97-2.514c.047.011.116.023.162.046l43 11.883 26.877 7.405 1.347.367.69.196c.288.091.553.195.817.298 1.048.448 1.969 1.137 2.74 1.952.391.413.736.86 1.036 1.332.15.24.288.482.414.734l.173.39.138.322 1.105 2.549 2.233 5.097a1.703 1.703 0 0 1-.886 2.25 1.71 1.71 0 0 1-2.256-.883.407.407 0 0 1-.047-.104z" fill="#3CA1FF"/><path d="M304.279 681.827c-2.728 0-4.938-2.216-4.938-4.925 0-2.71 2.221-4.926 4.938-4.926 2.728 0 4.938 2.216 4.938 4.926s-2.21 4.925-4.938 4.925z" fill="#001828"/><path d="M304.279 672.264c2.555 0 4.638 2.078 4.638 4.627s-2.083 4.626-4.638 4.626c-2.555 0-4.639-2.078-4.639-4.626s2.084-4.627 4.639-4.627m0-.597c-2.9 0-5.249 2.342-5.249 5.235s2.348 5.235 5.249 5.235 5.248-2.342 5.248-5.235-2.348-5.235-5.248-5.235z" fill="#3CA1FF"/><path d="M310.103 678.027a.824.824 0 0 1-.829-.827c0-2.744-2.244-4.982-4.995-4.982-2.75 0-4.995 2.238-4.995 4.982 0 .46-.369.827-.829.827s-.829-.367-.829-.827c0-3.662 2.993-6.647 6.665-6.647 3.671 0 6.664 2.985 6.664 6.647a.86.86 0 0 1-.852.827z" fill="#B8DDFF"/></g><g><path d="M216.193 593.092c-.31 0-.61-.057-.886-.138v28.013h10.06v-28.013c-.288.08-.576.138-.887.138h-8.287z" fill="#0068C9"/><path d="M227.104 620.968H213.568c-.667 0-1.208.54-1.208 1.206v24.04a4.136 4.136 0 0 0 4.143 4.134h7.666a4.136 4.136 0 0 0 4.143-4.133v-24.041c0-.666-.54-1.206-1.208-1.206z" fill="#B8DDFF"/><path d="M204.614 575.768c-8.506 0-17.023-.666-25.472-2.01l-3.66-.585a31.033 31.033 0 0 1-19.498-11.4l-2.475-3.134a9.168 9.168 0 0 0-4.972-3.203l-7.965-1.963a3.62 3.62 0 0 1-2.647-4.386 3.63 3.63 0 0 1 4.396-2.64l7.965 1.963c3.51.872 6.688 2.904 8.92 5.74l2.475 3.134a23.765 23.765 0 0 0 14.94 8.737l3.66.586a154.825 154.825 0 0 0 47.962.103l6.607-1.022a52.81 52.81 0 0 0 15.654-4.982 50.808 50.808 0 0 1 22.617-5.339h1.404a3.62 3.62 0 0 1 3.626 3.617 3.62 3.62 0 0 1-3.626 3.616h-1.404a43.427 43.427 0 0 0-19.325 4.558 60.274 60.274 0 0 1-17.84 5.683l-6.607 1.022a162.594 162.594 0 0 1-24.735 1.906z" fill="#0068C9"/><path d="M218.08 650.35h-.725c-2.751 0-4.995-2.227-4.995-4.983v-22.95a1.45 1.45 0 0 1 1.45-1.446h7.804c.805 0 1.45.654 1.45 1.446v22.95a4.982 4.982 0 0 1-4.984 4.983z" fill="#3CA1FF"/><path d="M215.306 592.954v28.013h5.03v-27.875h-4.144c-.31 0-.598-.057-.886-.138z" fill="#001828"/><path d="M296.786 555.366h-1.255c-7.826 0-15.665 1.86-22.698 5.385-4.891 2.457-10.163 4.098-15.573 4.936l-6.606 1.022a155.177 155.177 0 0 1-47.962-.103l-3.66-.586a23.816 23.816 0 0 1-14.94-8.737l-2.487-3.134a16.43 16.43 0 0 0-8.92-5.74l-7.965-1.963a3.627 3.627 0 0 0-4.42 2.755c-.414 1.94.898 3.835 2.82 4.305l7.816 1.929a9.065 9.065 0 0 1 4.972 3.203l2.486 3.134a31.06 31.06 0 0 0 19.498 11.4l3.66.586c.852.138 1.704.264 2.567.39 4.167.597 7.435 3.87 7.942 8.025l.99 8.152a3.18 3.18 0 0 0 2.256 2.64c.288.08.575.138.886.138H224.48c.311 0 .61-.057.887-.138a3.152 3.152 0 0 0 2.256-2.64l.828-6.774c.541-4.397 4.12-7.818 8.552-8.094 4.926-.298 9.853-.827 14.756-1.584l6.607-1.022a60.262 60.262 0 0 0 17.84-5.683 43.428 43.428 0 0 1 19.325-4.558h1.404a3.625 3.625 0 0 0 3.626-3.731c-.058-1.986-1.784-3.513-3.776-3.513z" fill="#3CA1FF"/><path d="M296.116 555.366h-.576c-7.826 0-15.665 1.86-22.698 5.385-4.891 2.457-10.162 4.098-15.572 4.936l-6.607 1.022a155.177 155.177 0 0 1-47.962-.103l-3.66-.586a23.783 23.783 0 0 1-10.152-4.167 23.716 23.716 0 0 1-9.024-6.98l-2.486-3.135a17.012 17.012 0 0 0-2.694-2.686 16.775 16.775 0 0 0-1.99-.643l-7.966-1.963a3.627 3.627 0 0 0-4.42 2.755 3.48 3.48 0 0 0 .311 2.32l6.089 1.503a9.169 9.169 0 0 1 4.282 2.423 9.097 9.097 0 0 1 4.926 3.191l2.486 3.135a30.927 30.927 0 0 0 6.94 6.429 31.524 31.524 0 0 0 8.322 2.56l3.66.586c.852.137 1.704.264 2.567.39a9.382 9.382 0 0 1 5.295 2.63c3.649.952 6.411 4.006 6.871 7.806l.887 7.302a9.5 9.5 0 0 0 4.638 1.217c3.12 0 5.744-2.32 6.112-5.408l.506-4.144c.541-4.397 4.121-7.819 8.552-8.094 4.927-.299 9.853-.827 14.756-1.585l6.607-1.021a60.262 60.262 0 0 0 17.84-5.683 43.428 43.428 0 0 1 19.325-4.558h1.404a3.625 3.625 0 0 0 3.626-3.732c.011-.39-.07-.757-.196-1.102z" fill="#0068C9"/></g><g><path d="M136.394 681.827c-2.728 0-4.938-2.216-4.938-4.925 0-2.71 2.222-4.926 4.938-4.926h3.211c2.728 0 4.938 2.216 4.938 4.926s-2.221 4.925-4.938 4.925h-3.211z" fill="#001828"/><path d="M139.605 672.264c2.555 0 4.639 2.078 4.639 4.627s-2.084 4.626-4.639 4.626h-3.211c-2.555 0-4.639-2.078-4.639-4.626s2.084-4.627 4.639-4.627h3.211m0-.597h-3.211c-2.9 0-5.249 2.342-5.249 5.235s2.348 5.235 5.249 5.235h3.211c2.9 0 5.249-2.342 5.249-5.235s-2.36-5.235-5.249-5.235z" fill="#3CA1FF"/><g fill="#3CA1FF"><path d="M133.194 677.2c0-3.215 2.613-5.81 5.824-5.81a5.816 5.816 0 0 1 5.824 5.81"/><path d="M144.843 678.026a.824.824 0 0 1-.83-.826c0-2.744-2.244-4.983-4.994-4.983s-4.996 2.239-4.996 4.983c0 .459-.368.826-.828.826a.824.824 0 0 1-.83-.826c0-3.663 2.993-6.648 6.654-6.648 3.671 0 6.652 2.985 6.652 6.648a.817.817 0 0 1-.828.826z"/></g><path d="M134.598 671.448a319.34 319.34 0 0 0 2.325-4.96l1.14-2.491c.16-.344.449-1.01.771-1.527.334-.528.714-1.033 1.128-1.492.829-.93 1.819-1.734 2.958-2.285.288-.138.576-.264.875-.367l.76-.253 1.3-.425 46.926-15.292 20.845-6.865c3.016-1 6.273.643 7.263 3.65 1.001 3.009-.645 6.258-3.66 7.245a4.148 4.148 0 0 1-.507.138l-21.386 4.937-42.725 9.988-5.34 1.251-1.336.31-.552.126c-.138.035-.276.08-.403.127a3.662 3.662 0 0 0-1.427.93c-.196.218-.345.459-.472.723-.127.276-.184.46-.368.964l-.898 2.584a274.382 274.382 0 0 0-1.738 5.189c-.507 1.55-2.175 2.4-3.73 1.894s-2.405-2.17-1.898-3.72a2.89 2.89 0 0 1 .15-.378z" fill="#B8DDFF"/><path d="m135.15 671.919 2.234-5.098 1.105-2.548.138-.322.172-.39c.127-.253.265-.494.415-.735.3-.47.644-.918 1.036-1.332a8.019 8.019 0 0 1 2.74-1.951c.264-.104.529-.207.816-.299l.69-.195 1.348-.367 26.876-7.405 43-11.883a3.334 3.334 0 0 1 4.098 2.307c.495 1.768-.552 3.594-2.313 4.087-.046.012-.115.035-.161.046l-43.508 9.702-21.754 4.867-5.445 1.217-1.358.31-.656.15a3.094 3.094 0 0 0-.495.16 4.98 4.98 0 0 0-1.818 1.183 4.052 4.052 0 0 0-.645.884c-.092.16-.173.321-.242.482l-.103.253-.115.321-.956 2.606-1.899 5.224a1.717 1.717 0 0 1-2.198 1.022 1.7 1.7 0 0 1-1.025-2.193.11.11 0 0 1 .023-.103z" fill="#3CA1FF"/><path d="M136.394 681.827c-2.728 0-4.938-2.216-4.938-4.925 0-2.71 2.222-4.926 4.938-4.926 2.728 0 4.938 2.216 4.938 4.926s-2.222 4.925-4.938 4.925z" fill="#001828"/><path d="M136.394 672.264c2.555 0 4.638 2.078 4.638 4.627s-2.083 4.626-4.638 4.626c-2.555 0-4.639-2.078-4.639-4.626s2.084-4.627 4.639-4.627m0-.597c-2.9 0-5.249 2.342-5.249 5.235s2.348 5.235 5.249 5.235c2.9 0 5.248-2.342 5.248-5.235s-2.36-5.235-5.248-5.235z" fill="#3CA1FF"/><path d="M142.218 678.027a.824.824 0 0 1-.829-.827c0-2.744-2.244-4.982-4.995-4.982-2.75 0-4.995 2.238-4.995 4.982 0 .46-.369.827-.829.827s-.829-.367-.829-.827c0-3.662 2.993-6.647 6.653-6.647s6.664 2.985 6.664 6.647a.842.842 0 0 1-.84.827z" fill="#B8DDFF"/></g><path d="M210.977 556.32c-1.22 0-2.21.987-2.21 2.204s.99 2.205 2.21 2.205 2.21-.988 2.21-2.205-1.002-2.204-2.21-2.204zM206.237 555.14l-.104-.023a5.754 5.754 0 0 0-.748 5.098 5.795 5.795 0 0 1-.253-1.677 5.849 5.849 0 0 1 1.105-3.398zM96.708 414.087c-1.22 0-2.21.987-2.21 2.204s.99 2.204 2.21 2.204 2.21-.987 2.21-2.204a2.223 2.223 0 0 0-2.21-2.204z" fill="#001828"/><path d="M314.607 558.58a2.606 2.606 0 0 0-.3-2.124 2.64 2.64 0 0 0-1.783-1.206l-19.187-3.375a73.073 73.073 0 0 0-16.448-.999l-31.756 1.676c-8.564.46-16.666-2.996-22.25-9.483-5.582-6.475-7.803-14.994-6.077-23.363l3.787-18.346a49.772 49.772 0 0 0-1.047-24.19l-18.44-61.8a3.12 3.12 0 0 0-2.98-2.217H102.65c.276.437.506.919.667 1.436l18.44 61.8a52.47 52.47 0 0 1 1.104 25.51l-3.786 18.347c-1.554 7.542.437 15.212 5.467 21.044s12.339 8.955 20.039 8.541l31.756-1.676a75.8 75.8 0 0 1 17.058 1.033l19.187 3.376a5.363 5.363 0 0 1 3.625 2.445c.714 1.137.956 2.491.714 3.8h97.593l.092-.23z" fill="#1B417D"/><path d="M316.617 555.01a5.4 5.4 0 0 0-3.626-2.445l-19.187-3.376a75.799 75.799 0 0 0-17.058-1.033l-31.756 1.676c-7.7.413-15.009-2.71-20.039-8.542s-7.032-13.5-5.467-21.044l3.787-18.346a52.468 52.468 0 0 0-1.105-25.51l-18.439-61.8c-.725-2.446-3.027-4.157-5.582-4.157h-1.036c-.035 0-.08 0-.115.012-.035 0-.08-.012-.115-.012H96.696a5.23 5.23 0 0 0-.599.035 5.835 5.835 0 0 0-5.237 5.798c0 3.214 2.613 5.82 5.836 5.82h5.064l16.517 55.338a48.797 48.797 0 0 1 1.025 23.742l-3.787 18.346c-1.784 8.645.506 17.44 6.273 24.133s14.146 10.252 22.985 9.793l31.756-1.676a71.959 71.959 0 0 1 16.24.988l13.353 2.353.103.023a5.769 5.769 0 0 0-1.105 3.398c0 .586.092 1.149.253 1.677.726 2.388 2.959 4.144 5.583 4.144.38 0 .748-.034 1.105-.103h98.18c.357.069.725.103 1.105.103a5.805 5.805 0 0 0 4.155-1.745 5.848 5.848 0 0 0 1.76-3.593 5.197 5.197 0 0 0-.644-3.996zM94.497 416.29c0-1.217.99-2.204 2.21-2.204s2.21.987 2.21 2.204-.99 2.204-2.21 2.204-2.21-.987-2.21-2.204zm116.48 144.44c-1.22 0-2.21-.987-2.21-2.204s.99-2.205 2.21-2.205 2.21.988 2.21 2.205-1.001 2.204-2.21 2.204zm103.62-2.147-.07.241h-97.592a5.374 5.374 0 0 0-.714-3.8 5.4 5.4 0 0 0-3.625-2.445l-19.187-3.376a75.799 75.799 0 0 0-17.058-1.033l-31.756 1.676c-7.7.413-15.01-2.71-20.04-8.542s-7.02-13.5-5.466-21.044l3.786-18.346a52.468 52.468 0 0 0-1.105-25.51l-18.439-61.8a5.277 5.277 0 0 0-.667-1.436h95.475c1.358 0 2.59.907 2.98 2.216l18.44 61.801a49.772 49.772 0 0 1 1.047 24.19l-3.787 18.346c-1.726 8.37.484 16.888 6.078 23.363 5.582 6.475 13.685 9.931 22.249 9.483l31.756-1.676a73.117 73.117 0 0 1 16.448.999l19.187 3.375a2.603 2.603 0 0 1 1.784 1.206 2.64 2.64 0 0 1 .276 2.112z" fill="#001828"/><g fill="#001828"><path d="M202.45 415.683h-93.035c-.806 0-1.393.78-1.163 1.55l2.475 8.312c.15.516.622.86 1.163.86h93.035c.805 0 1.392-.78 1.162-1.55l-2.474-8.311a1.233 1.233 0 0 0-1.163-.861zM220.832 537.792h-92.713a1.207 1.207 0 0 0-1.013 1.872 26.688 26.688 0 0 0 9.346 8.69c.184.104.392.15.599.15h91.136c1.15 0 1.657-1.47.736-2.158a26.974 26.974 0 0 1-7.044-7.957 1.239 1.239 0 0 0-1.047-.597zM217.162 524.222h-93.139c-.68 0-1.22.551-1.209 1.217a25.967 25.967 0 0 0 1.543 8.726c.172.47.633.78 1.14.78h93c.818 0 1.393-.803 1.14-1.584a26.171 26.171 0 0 1-1.278-7.956 1.2 1.2 0 0 0-1.197-1.183zM313.892 554.362l-19.383-3.41c-.035 0-.08-.011-.115-.011h-29.777l-13.49.712a26.778 26.778 0 0 1-7.665-.7c-.046-.012-.092-.023-.15-.023h-44.44c.092.011.184.023.265.045l19.187 3.376a3.54 3.54 0 0 1 1.991 1.08c.138.148.31.24.507.24h92.932c.794 0 .932-1.17.15-1.309h-.012zM316.672 558.832c.104-.367.15-.734.138-1.09-.011-.345-.31-.62-.667-.62h-94.198c-.38 0-.703.298-.691.677.011.344-.035.689-.138 1.033l-.253.884h95.06c.3 0 .553-.195.645-.482l.104-.402zM127.324 507.816h93.081c.576 0 1.07-.402 1.186-.964l1.093-5.293c.219-1.033.391-2.066.54-3.111a1.206 1.206 0 0 0-1.196-1.366h-93.116c-.61 0-1.117.447-1.197 1.056a43.347 43.347 0 0 1-.587 3.421l-.99 4.8a1.217 1.217 0 0 0 1.186 1.457zM127.992 480.687h93.07c.794 0 1.358-.734 1.174-1.504a49.415 49.415 0 0 0-.61-2.238l-1.83-6.12a1.198 1.198 0 0 0-1.163-.86h-93.035c-.805 0-1.392.78-1.162 1.549l1.623 5.43c.276.93.53 1.872.748 2.813.138.54.621.93 1.185.93zM129.35 494.246h93.139c.645 0 1.186-.505 1.209-1.16a50.34 50.34 0 0 0-.438-8.53 1.203 1.203 0 0 0-1.197-1.033h-93.116a1.21 1.21 0 0 0-1.197 1.378c.345 2.686.484 5.384.391 8.094a1.203 1.203 0 0 0 1.209 1.251zM124.527 521.382h93.093c.587 0 1.082-.413 1.185-.987.035-.16.058-.333.093-.494l1.611-7.795a1.206 1.206 0 0 0-1.186-1.447h-93.08c-.576 0-1.07.402-1.186.965l-1.704 8.277c0 .012-.011.035-.011.046a1.202 1.202 0 0 0 1.185 1.435zM218.232 465.566l-2.475-8.312a1.198 1.198 0 0 0-1.162-.86H121.56c-.806 0-1.393.78-1.163 1.549l2.475 8.312c.15.517.622.861 1.163.861h93.035c.805 0 1.392-.78 1.162-1.55zM214.182 451.996l-2.475-8.312a1.198 1.198 0 0 0-1.162-.86H117.51c-.806 0-1.393.78-1.163 1.549l2.475 8.312c.15.517.622.861 1.163.861h93.035c.817 0 1.392-.78 1.162-1.55zM210.132 438.426l-2.475-8.312a1.198 1.198 0 0 0-1.162-.86H113.46c-.806 0-1.393.78-1.163 1.549l2.475 8.312c.15.517.622.861 1.163.861h93.034c.818 0 1.393-.769 1.163-1.55z"/></g><path d="M98.906 416.291c0-1.217-.99-2.204-2.21-2.204s-2.21.987-2.21 2.204.99 2.204 2.21 2.204 2.21-.987 2.21-2.204zM213.187 558.53c0-1.217-.99-2.204-2.21-2.204s-2.21.987-2.21 2.204.99 2.204 2.21 2.204c1.209 0 2.21-.987 2.21-2.204z" fill="#0068C9"/></g><g fill-rule="nonzero"><path d="m242.728 666.236 9.273 6.83a7.94 7.94 0 0 0 4.728 1.555H279.198v-2.626c0-.945-.333-1.855-.931-2.58l-2.992-3.582a4.013 4.013 0 0 0-3.083-1.44h-3.13l-3.796-3.939a5.428 5.428 0 0 1-1.496-3.225l-.103-1.048a7.927 7.927 0 0 1 .702-4.181l5.004-10.792-18.028-13.868-7.558 14.305a12.111 12.111 0 0 1-4.568 4.791l-3.267 1.935a5.384 5.384 0 0 0-1.645 1.498l-4.948 6.726c.208.023.403.092.587.219l12.782 9.421z" fill="#CE643A"/><path d="m261.722 666.858-2.554.058c-.782 0-1.507-.334-2.071-.956a.233.233 0 0 0-.322-.023.237.237 0 0 0-.035.334l.023.023c.541.68 1.45 1.209 2.393 1.232l2.566.058 5.12.103 10.136.22-1.128-1.348-9.008.195-5.12.104zM242.728 666.236l1.185-8.57a7.958 7.958 0 0 1 1.967-4.215l5.293-5.816h15.198l2.818-6.082a40.546 40.546 0 0 1-.172-.599l-17.694-13.614-7.56 14.305a12.111 12.111 0 0 1-4.566 4.792l-3.268 1.935a5.384 5.384 0 0 0-1.645 1.497l-4.947 6.726c.207.024.403.093.587.22l12.805 9.42z" fill="#A53917"/><path d="M279.187 674.621H256.718a7.94 7.94 0 0 1-4.729-1.555l-9.272-6.83-12.793-9.422a1.149 1.149 0 0 0-.587-.218c-.495-.058-1.001.195-1.22.68l-2.001 4.284a1.216 1.216 0 0 0 .38 1.486l23.227 17.058a7.998 7.998 0 0 0 4.717 1.543h24.701c.667 0 1.208-.541 1.208-1.21v-4.618c0-.645-.518-1.175-1.162-1.198z" fill="#8A381E"/></g><path d="M336.411 538.95c-1.668 10.136-11.137 17.081-21.296 15.618l-86.586-12.462c-13.622-1.958-22.975-14.743-20.732-28.346 2.381-14.443 16.763-23.612 30.845-19.673l84.25 23.589c9.261 2.603 15.094 11.771 13.518 21.274z" fill="#D76230" fill-rule="nonzero"/><g fill-rule="nonzero"><path d="m269.891 645.36-23.332-10.32a1.213 1.213 0 0 1-.575-1.682l56.339-105.81c4.682-8.788 15.394-12.416 24.436-8.27 10.423 4.78 14.186 17.692 7.973 27.344l-63.346 98.282a1.18 1.18 0 0 1-1.496.46z" fill="#ED985A"/><path d="M326.759 519.296c-9.043-4.147-19.754-.53-24.436 8.27l-56.339 105.81a1.213 1.213 0 0 0 .575 1.681l21.376 9.457 48.758-102.21a36.242 36.242 0 0 1 17.27-17.196 18.559 18.559 0 0 0-7.203-5.817z" fill="#CE643A" opacity=".9"/><path d="m253.53 627.83 18.604 8.466c.299.138.437.495.299.806-.138.3-.495.438-.805.3l-.012-.012-18.327-9.053a.286.286 0 0 1-.126-.38c.057-.139.23-.196.368-.127z" fill="#AD330D"/></g><g fill-rule="nonzero"><path d="m249.158 424.259 27.048 59.11a12.724 12.724 0 0 0 15.278 6.888c6.857-2.085 10.642-9.41 8.399-16.206l-20.41-61.724c-2.991-9.053-13.058-13.614-21.825-9.906-8.48 3.582-12.322 13.464-8.49 21.838z" fill="#46CFED"/><path d="m273.1 451.649 2.416-26.192-19.029 14.812 19.719 43.1a12.761 12.761 0 0 0 10.757 7.418c4.51-1.774 7.605-2.995 7.605-2.995l-10.907-17.68-9.09-12.946a8.332 8.332 0 0 1-1.472-5.517z" fill="#0068C9"/></g><g fill-rule="nonzero"><path d="M372.847 470.347c.771-.057 4.844-.852 5.592-.645.805.219 1.22 1.014 1.864 1.544 2.001 1.612 3.451 3.72 4.958 5.805.3.426.598 1.025.253 1.428-.16.184-.414.253-.655.288-1.347.219-2.934-.795-3.993-1.682-.978-.806-1.185-.818-1.587-1.013 1.46 1.485 1.403 1.382 2.864 2.868.334.334.265 1.278.599 1.612 1.058 1.037-.012 3.167-.046 4.204-.023.541-2.21.323-2.716.507-.851.3-4.015.956-4.625.046-.16-.23-.448-.956 0-1.509-.966.046-3.279 1.451-4.015 1.659-1.46.403-2.761 0-4.521 0 .702.956.679 3.26-.598 3.42-1.542.196-5.281-.91-6.984-1.209-2.255-.403-3.118-2.603-5.28-3.375-.749-.264-2.118-.495-3.602-.68-2.98-.356-5.223-2.89-5.177-5.896v-.23A5.822 5.822 0 0 1 351 471.74c7.248 0 14.22-.864 21.848-1.394z" fill="#FFD9AF"/><g fill="#E99462"><path d="M366.807 488.131a3.983 3.983 0 0 0-2.853-2.027l-2.048-.346a4.895 4.895 0 0 1-2.726-1.44l-1.956-2.038a3.978 3.978 0 0 0-2.9-1.21l-8.053.15a5.888 5.888 0 0 0 4.084 2.408c1.484.172 2.854.414 3.601.68 2.163.76 3.026 2.97 5.281 3.374 1.714.3 5.453 1.405 6.984 1.21.322-.047.563-.22.736-.473l-.15-.288zM378.278 481.9l.265-.461a2.418 2.418 0 0 0-.31-2.868L377 477.235a.637.637 0 0 1 .426-1.071l1.714-.127-2.6-.691a2.04 2.04 0 0 0-.874-.035l-3.383.657-5.982 2.937a3.917 3.917 0 0 1-1.231.38l-2.198.334a1.83 1.83 0 0 0-1.495 2.246c.115.45.472.806.932.91l1.714.392a4.007 4.007 0 0 1 2.589 1.888l.241.415c1.749 0 3.049.403 4.499 0 .747-.207 3.048-1.612 4.015-1.659-.115.139-.184.3-.219.45a2.54 2.54 0 0 1 1.208-1.221l1.438-.68c.207-.115.368-.265.483-.46z"/></g><path d="m295.684 466.742 57.651 5.01-.667 12.105-56.788 6.439c-6.282.656-11.965-3.743-12.908-9.998-1.139-7.578 5.097-14.213 12.713-13.557z" fill="#FFD9AF"/><g fill="#E99462"><path d="M287.574 487.981a11.773 11.773 0 0 0 8.318 2.304l52.6-5.967c-.23-.806-.403-1.888-.507-3.144l-27.382.45a16.172 16.172 0 0 1-13.99-7.625l-4.164-6.68-6.765-.588c-3.728-.323-7.122 1.105-9.492 3.536l1.38 17.715zM352.668 483.857l.15-2.741-.875.011c.104.98.253 1.947.449 2.765l.276-.035z"/><path d="M352.392 483.892a24.368 24.368 0 0 1-.449-2.764 23.837 23.837 0 0 1-.15-2.592c0-2.43.265-4.572.656-5.897.3 0 .587-.011.852-.023l.046-.864-5.833-.506-.08.702c-.047.357.402.541 1.127.622-.403 1.313-.668 3.49-.668 5.966 0 .945.035 1.832.104 2.661.104 1.255.276 2.338.506 3.144l3.889-.449z"/></g><path d="m287.102 466.373 8.203-.16 3.797 23.323-10.262 1.256c-7.064.863-13.37-4.47-13.714-11.575-.334-6.9 5.085-12.704 11.977-12.842z" fill="#46CFED"/><path d="M275.114 479.204c.334 7.118 6.65 12.451 13.714 11.575l10.262-1.255-3.118-19.177-14.024-2.719c-4.234 2.097-7.064 6.543-6.834 11.575z" fill="#0068C9"/><path d="M305.487 491.148s1.956-.276 1.967-1.854c-1.334-.311-2.002-8.005-1.99-10.804.023-3.168.61-10.32 2.37-10.861 0-.53-.322-.933-.679-1.233a3.029 3.029 0 0 0-1.541-.622c-3.797-.449-7.582-.852-11.378-1.22-1.07-.104-2.06.241-2.693 1.001-1.323 1.567-3.244 5.287-3.324 12.727-.081 7.441 1.817 11.541 3.152 13.372.656.91 1.83 1.313 3.072 1.13 3.693-.554 7.374-1.095 11.045-1.636z" fill="#46CFED"/><g fill="#0068C9"><path d="M300.218 466.074c.288-.3.587-.576.909-.806l-3.923-.415c-.07.288-.092.553.034.783.667 1.14 2.21 1.221 2.98.438z"/><path d="M307.167 466.397a3.029 3.029 0 0 0-1.542-.622l-2.105-.242c-4.21 6.53-2.934 15.03-2.255 17.427.103.391-.472.702-.932.518-7.444-3.052-.035-17.473-5.085-11.668-1.979 2.292-1.818 5.84-1.461 7.844.092.541-.771.817-1.15.368-1.163-1.37-2.336-4.112-1.197-8.627.84-3.317 2.082-5.46 3.21-6.807a4.787 4.787 0 0 1-.403-.046c-1.07-.104-2.06.242-2.692 1.002-1.323 1.567-3.245 5.287-3.325 12.727-.08 7.44 1.806 11.541 3.152 13.372.656.91 1.83 1.313 3.072 1.129 3.67-.553 7.352-1.094 11.022-1.624 0 0 1.956-.276 1.967-1.854-1.334-.311-2.001-8.005-1.99-10.804.023-3.168.61-10.32 2.37-10.861.023-.53-.288-.933-.656-1.233z"/></g></g><path d="M249.653 496.244a2.11 2.11 0 0 1-1.254 1.463c-1.3.518-3.958 1.843-8.341 5.24-6.005 4.654-10.147 14.628-20.985 15.687-9.664.945-21.698-9.064-36.229-14.397-11.091-4.065-21.365 4.596-23.447 7.786a4.276 4.276 0 0 1-2.393-4.468l2.048-13.994c.172-1.152.391-2.293.667-3.421l10.216-41.983a42.695 42.695 0 0 0 1.116-12.9l-2.6-39.115c-.621-9.353 5.994-17.645 15.255-19.085l.978-.15 21.882-2.753 20.962 4.147.552.103 12.126 2.396 19.18 10.527 12.275 9.364c7.812 5.966 10.067 16.782 5.28 25.374l-12.965 23.278a82.466 82.466 0 0 0-8.203 21.135l-6.12 25.766z" fill="#46CFED" fill-rule="nonzero"/><path d="M249.653 496.244a2.11 2.11 0 0 1-1.254 1.463c-1.3.518-3.958 1.843-8.341 5.24-6.005 4.654-10.147 14.628-20.985 15.687-9.664.945-21.917-8.5-36.229-14.397-5.591-2.303-13.461.185-19.133 2.707-3.072 1.37-6.443-1.163-5.96-4.503l1.3-8.87c.173-1.151.392-2.291.668-3.42l10.216-41.983a42.695 42.695 0 0 0 1.116-12.9l-2.6-39.115c-.621-9.353 5.994-17.645 15.255-19.085l.978-.15 21.882-2.753 20.962 4.147.552.104 12.126 2.395 19.179 10.527 12.276 9.364c7.812 5.967 10.067 16.782 5.28 25.374l-12.965 23.278a82.466 82.466 0 0 0-8.203 21.135l-6.121 25.754z"/><g fill="#0068C9" fill-rule="nonzero"><path d="m274.881 429.73-21.951 23.784-12.598 49.216c4.21-3.237 6.788-4.527 8.065-5.022a2.088 2.088 0 0 0 1.254-1.463l6.097-25.766a82.614 82.614 0 0 1 8.204-21.135l10.93-19.615zM203.381 478.924l15.9-22.483-16.199-6.323a25.098 25.098 0 0 1-12.644-10.907l-21.641-37.79 2.255 33.85a42.724 42.724 0 0 1-1.116 12.9l-10.216 41.984a38.205 38.205 0 0 0-.667 3.42l-2.048 13.994a4.26 4.26 0 0 0 2.393 4.47c2.082-3.191 12.356-11.853 23.447-7.787 5.304 1.947 10.285 4.515 14.922 6.946l17.556-1.394-10.285-15.941a15.993 15.993 0 0 1-2.301-11.472l.644-3.467zM233.19 402.26l6.96 2.96c.541.23 1.162 0 1.427-.518l9.192-18.095-10.573-5.805-12.126-2.396-.552-.104-20.962-4.146-15.888 1.993 18.477 25.455a1.11 1.11 0 0 0 1.105.437l7.098-1.301c.288-.058.575.011.817.173l6.477 4.307c.322.22.737.242 1.082.08l6.58-3.04c.265-.115.599-.115.886 0z"/></g><g transform="translate(230.532 428.74)" fill="#0068C9" fill-rule="nonzero"><path d="M5.591.806c-.218 1.578-.483 3.133-.724 4.7-.127.783-.254 1.566-.392 2.35L4.268 9.03c-.057.392-.15.806-.16 1.083a2.36 2.36 0 0 0 .551 1.658c.196.22.426.403.68.542l1.046.552 4.188 2.235 1.047.564c.31.173.621.311.943.426a6.476 6.476 0 0 0 2.048.346 7.082 7.082 0 0 0 2.083-.265c.747-.219 1.518-.426 2.278-.633 3.06-.83 6.12-1.613 9.25-2.223.16-.035.322.08.356.242a.324.324 0 0 1-.184.345c-2.945 1.21-5.936 2.246-8.94 3.237-.759.241-1.495.495-2.266.725a8.614 8.614 0 0 1-2.6.38 7.796 7.796 0 0 1-2.611-.46 7.755 7.755 0 0 1-1.22-.553l-1.035-.576-4.142-2.327-1.036-.587a4.003 4.003 0 0 1-1.127-.98 3.95 3.95 0 0 1-.805-2.775c.057-.518.172-.864.253-1.255l.276-1.152c.172-.772.368-1.544.552-2.315.38-1.544.748-3.076 1.162-4.619.058-.196.265-.323.46-.265.184.07.3.242.276.426z"/><path d="M4.786 12.554A600.968 600.968 0 0 1 2.83 22.655l-.495 2.488c-.103.633 0 1.29.311 1.82.08.126.161.265.265.38.057.069.092.103.16.184l.22.23 4.935 5.068c.161.162.253.254.391.369.265.23.564.403.875.541.632.3 1.357.403 2.07.357a4.842 4.842 0 0 0 1.588-.368c.161-.07.334-.15.54-.242a288.039 288.039 0 0 1 4.66-2.177c1.554-.726 3.13-1.405 4.717-2.073a.381.381 0 0 1 .495.196.38.38 0 0 1-.15.46 131.718 131.718 0 0 1-4.452 2.592 192.176 192.176 0 0 1-4.498 2.488 6.235 6.235 0 0 1-.622.31 4.507 4.507 0 0 1-.69.266c-.46.16-.955.253-1.45.31a6.03 6.03 0 0 1-2.945-.449c-.46-.207-.92-.46-1.311-.783a6.136 6.136 0 0 1-.552-.495l-.46-.45-3.636-3.616-1.14-1.14c-.08-.08-.183-.196-.275-.288a4.39 4.39 0 0 1-.472-.668c-.552-.956-.725-2.097-.54-3.156l.517-2.557a505.786 505.786 0 0 1 2.14-10.067.902.902 0 0 1 1.081-.691c.46.115.771.587.68 1.06z"/><ellipse transform="rotate(-37.136 15.116 11.428)" cx="15.116" cy="11.428" rx="2.187" ry="1.98"/></g><path d="M224.929 403.873c-.334.035-.54.587-.518.921.035.346 3.015 34.968-4.257 57.97-5.384 17.035-7.305 43.468-7.938 55.54.403.08.805.16 1.197.218.61-11.933 2.52-38.4 7.892-55.39 7.34-23.232 4.464-58.396 4.43-58.753-.024-.334-.472-.541-.806-.507z" fill="#0068C9" fill-rule="nonzero"/><path fill="#fff" fill-rule="nonzero" d="m225.136 405.635 17.729-20.168-29.452-2.914z"/><g fill-rule="nonzero"><path d="M244.43 385.04a3.103 3.103 0 0 1-2.415 2.902c-3.348.76-9.757 1.912-15.301 1.164-5.534-.749-11.413-3.57-14.44-5.195a3.095 3.095 0 0 1-1.553-3.444l5.316-23.174c1.69-7.567 8.881-12.578 16.544-11.529 7.673 1.037 13.265 7.786 12.885 15.526l-1.036 23.75z" fill="#FFD9AF"/><path d="M232.58 345.764c-7.673-1.036-14.852 3.974-16.543 11.53l-4.05 17.68c18.868 6.518 30.902-6.266 33.284-9.111l.195-4.573c.38-7.74-5.223-14.489-12.885-15.526z" fill="#E99462"/><path d="m240.599 366.313-1.887.564a14.697 14.697 0 0 1-6.005.484l-1.945-.254c-8.122-1.06-14.577-7.36-15.842-15.457l-.92-5.874c-.196-1.22-.3-2.464-.322-3.708l-.265-17.093a8.445 8.445 0 0 1 6.27-8.293l5.764-1.532a34.065 34.065 0 0 1 12.161-.968l5.925.6a8.435 8.435 0 0 1 7.502 7.186l2.45 16.92c.173 1.233.265 2.465.276 3.71l.023 5.954a18.458 18.458 0 0 1-13.185 17.76z" fill="#FFD9AF"/><path d="M209.731 335.203c-1.817.242-3.808 2.799-1.794 7.855 2.013 5.056 3.75 7.844 6.212 7.095 2.773-.84 1.323-7.026.771-9.353-.61-2.522-2.197-5.989-5.189-5.597z" fill="#FFD9AF"/><path d="M214.138 350.142c2.773-.841 1.323-7.026.77-9.353-.598-2.5-2.162-5.92-5.108-5.597.967.886 1.853 2.084 2.014 4.088.264 3.375.23 7.337-1.91 8.04 1.289 2.257 2.6 3.328 4.234 2.822z" fill="#E99462"/><path d="M255.337 332.37c1.83-.058 4.21 2.154 3.014 7.463-1.185 5.31-2.462 8.34-5.016 7.982-2.864-.391-2.416-6.726-2.243-9.11.207-2.58 1.23-6.243 4.245-6.335z" fill="#FFD9AF"/><path d="M255.728 346.859c-.23.057-.472.092-.736.08-2.359-.184-2.071-6.68-2.347-10.124-.092-1.198-.058-2.2.069-3.075-1.059 1.325-1.496 3.363-1.622 4.987-.185 2.384-.633 8.708 2.243 9.11.966.128 1.737-.218 2.393-.978z" fill="#E99462"/><g><path d="M231.13 309.668c-12.62 1.002-20.777 8.834-20.351 14.155l1.518 11.77c.046.335.196.634.414.888.323.38.794 1.255.944 3.26l.483 6.138c.034.438.414.76.84.726l.92-.07a.789.789 0 0 0 .725-.852c-.138-1.428-.414-4.515-.53-6.83-.149-3.121 1.07-5.54 1.013-7.475-.057-1.946-3.026-6.392 1.013-10.044 2.6-2.35 7.593-1.889 10.826-1.255 1.99.391 4.05.219 5.948-.472 3.094-1.14 7.95-2.385 10.884-.484 4.567 2.971 2.335 7.832 2.588 9.755.253 1.924 1.841 4.124 2.186 7.222.253 2.304.472 5.39.564 6.83.023.438.414.76.84.726l.92-.07a.785.785 0 0 0 .725-.84l-.483-6.14c-.161-2.003.16-2.948.425-3.374.173-.288.288-.61.277-.944l-.369-11.863c-.402-5.333-9.687-11.771-22.319-10.758z" fill="#0097B8"/><path d="m210.778 323.812 1.519 11.771c.046.334.196.633.414.887.322.38.794 1.255.944 3.26l.483 6.138c.034.438.414.76.84.726h.046c.092-1.382-.08-4.354-.3-7.475-.126-1.843.438-4.561.3-6.22-.403-5.114-1.899-3.133-1.611-8.58.115-2.189 2.485-2.12 4.395-2.696.103-.103.207-.207.31-.3a5.888 5.888 0 0 1 1.692-1.047 3.09 3.09 0 0 0 .356-.933c.449-2.373-.023-4.964-.437-6.53-5.844 3.005-9.227 7.532-8.95 11z" fill="#00547A"/><path d="M244.499 308.723a1.034 1.034 0 0 1 1.45.691c.828 3.433 1.76 12.658-9.078 14.167-13.219 1.843-18.753-3.156-20.04-4.918-.887-1.22.275-8.823 10.135-10.942 9.871-2.12 12.76 1.75 14.887 1.67a6.997 6.997 0 0 0 2.646-.668z" fill="#0097B8"/><path d="M236.871 323.581c4.567-.633 7.03-2.638 8.306-4.999-1.23.83-4.716 2.753-10.33 2.523-7.122-.288-9.998-5.172-13.426-5.91-2.336-.494-4.096.68-4.844 2.408.011.484.092.852.242 1.06 1.288 1.762 6.822 6.75 20.053 4.918z" fill="#00547A"/></g><g><path d="M253.692 343.646c-.161-1.97-.265-3.421-.322-4.193a.636.636 0 0 0-.69-.587l-1.186.092a.644.644 0 0 0-.586.691c.172 2.235.172 3.398-.38 4.515-.909 1.808-2.232 2.718-5.626 2.995-3.36.265-5.534-1.762-10.895-1.336-5.361.426-7.179 2.775-10.538 3.04-3.394.265-4.843-.426-6.028-2.061-.725-1.002-.898-2.154-1.093-4.389a.651.651 0 0 0-.69-.587l-1.186.092a.633.633 0 0 0-.586.68c.069.771.184 2.223.345 4.192.241 3.018-.806 3.893-.53 7.383.369 4.642 6.409 15.78 22.124 14.536 15.716-1.255 19.915-13.21 19.547-17.853-.264-3.49-1.438-4.192-1.68-7.21z" fill="#0097B8"/><path d="M239.472 363.652c-12.115-.242-15.025-3.628-16.59-8.155-1.565-4.526-4.303-4.307-5.626-5.816-1.22-1.382-2.209-3.893-2.324-7.798l-.437.035a.633.633 0 0 0-.587.68c.07.771.184 2.222.345 4.192.242 3.018-.805 3.893-.529 7.371.368 4.642 6.408 15.78 22.124 14.536 7.121-.564 11.873-3.34 14.91-6.623-2.013.876-5.465 1.694-11.286 1.578z" fill="#00547A"/></g><g><g fill="#1B417D"><path d="m229.037 341.273-.184.011a1.267 1.267 0 0 1-1.37-1.163l-.149-1.808a1.267 1.267 0 0 1 1.162-1.371l.184-.011a1.267 1.267 0 0 1 1.37 1.163l.149 1.808a1.267 1.267 0 0 1-1.162 1.37zM243.752 340.098l-.184.011a1.267 1.267 0 0 1-1.37-1.163l-.149-1.808a1.267 1.267 0 0 1 1.162-1.37l.184-.012a1.267 1.267 0 0 1 1.37 1.163l.149 1.808a1.275 1.275 0 0 1-1.162 1.37z"/></g><g fill="#00547A"><path d="m231.959 331.632-.679-1.555c-.264-.599-.702-.806-1.127-.68-1.404.415-4.51 1.533-6.88 3.744a.758.758 0 0 0-.23.6c.023.299.057.725.08 1.07.023.254.3.403.518.277 1.081-.622 3.923-2.05 7.789-2.523a.676.676 0 0 0 .529-.933zM239.276 331.045l.426-1.636c.16-.633.575-.91 1.012-.852 1.45.196 4.694.806 7.386 2.603.184.127.3.323.322.553.023.3.058.726.08 1.071a.35.35 0 0 1-.47.357c-1.163-.437-4.189-1.405-8.1-1.255a.674.674 0 0 1-.656-.841z"/></g><path d="m237.366 337.587 1.243 7.141a1.48 1.48 0 0 1-1.392 1.728l-1.657.057c-.31.012-.61-.092-.851-.276l-.345-.276" fill="#FFD9AF"/><path d="M237.746 337.53c.322 1.025.575 2.061.817 3.098s.449 2.084.644 3.133l.138.783c.07.334.046.795-.092 1.163-.253.772-.978 1.325-1.76 1.428-.092.012-.207.012-.276.012h-.196l-.402-.012-.806-.034-.195-.012c-.07 0-.184-.011-.276-.023-.184-.034-.369-.092-.53-.173s-.322-.207-.425-.322l-.276-.3a.4.4 0 0 1 .506-.61c.575.346.633.369 1.162.277l.794-.093.402-.034.196-.023c.057-.012.08-.012.115-.023a.773.773 0 0 0 .564-.53.824.824 0 0 0 .011-.415l-.126-.783a72.377 72.377 0 0 1-.46-3.167 42.1 42.1 0 0 1-.277-3.19.386.386 0 0 1 .368-.404c.173-.035.323.08.38.253z" fill="#E99462"/><path d="M240.093 352.411c-.77.15-1.542.323-2.312.45l-2.313.425-1.162.208-.575.103-.288.058c-.115.023-.23.034-.357.034a3.442 3.442 0 0 1-1.403-.207 2.734 2.734 0 0 1-.633-.322c-.092-.07-.195-.139-.276-.208l-.23-.184a.605.605 0 0 1-.092-.852.597.597 0 0 1 .817-.115l.241.172c.08.058.138.092.207.127.138.08.277.15.415.207.287.104.598.173.908.162.081 0 .15-.012.23-.012l.288-.023 1.76-.173 2.347-.219c.783-.08 1.565-.126 2.347-.195.161-.012.288.103.311.265a.277.277 0 0 1-.23.299z" fill="#1B417D"/><g fill="#FC95A4"><path d="m229.44 344.302-3.371.288a1.056 1.056 0 0 1-1.14-.956l-.01-.15a1.056 1.056 0 0 1 .954-1.14l3.37-.288a1.056 1.056 0 0 1 1.14.956l.011.15a1.04 1.04 0 0 1-.954 1.14zM246.904 342.816l-3.37.288a1.056 1.056 0 0 1-1.14-.956l-.011-.15a1.056 1.056 0 0 1 .954-1.14l3.371-.288a1.056 1.056 0 0 1 1.14.956l.01.15c.058.576-.379 1.083-.954 1.14z"/></g></g></g><g fill="#46CFED" fill-rule="nonzero"><path d="m213.862 366.727-2.462 11.276 11.286 15.284c.126.173.218.369.253.576l2.197 11.771-6.535-10.297a.784.784 0 0 0-1.196-.15l-7.041 6.623a.783.783 0 0 1-1.289-.334c-.978-3.156-3.59-12.117-4.625-21.56a9.028 9.028 0 0 1 1.6-6.186l3.301-4.665a5.498 5.498 0 0 1 4.51-2.338z"/><path d="m244.925 373.603-.3 6.969-14.37 13.557a1.506 1.506 0 0 0-.379.507l-4.751 10.988 8.651-8.593a.794.794 0 0 1 1.208.115l5.35 7.948a.783.783 0 0 0 1.346-.08c1.197-2.397 3.958-8.305 6.593-16.748.425-1.359.517-2.81.276-4.227l-1.128-6.53a5.545 5.545 0 0 0-1.541-2.972l-.955-.933z"/></g><g fill-rule="nonzero"><path d="M348.434 485.282c-.863 0-1.553-3.26-1.541-7.268 0-4.02.701-7.268 1.564-7.268h3.51l.045.196c-.69.749-1.196 3.64-1.208 7.072 0 3.444.506 6.323 1.185 7.084-.023.092-.023.092-.046.195l-3.509-.011z" fill="#1B417D"/><path d="M347.825 485.282c-.863 0-1.554-3.26-1.542-7.268 0-4.02.702-7.268 1.564-7.268h3.912c-.863 0-1.553 3.248-1.564 7.268 0 4.02.69 7.268 1.541 7.268h-3.911z" fill="#ED985A"/><path d="M348.469 473.995h1.541c1.6 0 2.9-1.29 2.9-2.891v-.83a2.894 2.894 0 0 0-2.888-2.902h-.322c-1.6 0-4.107 1.29-4.107 2.89v.83a2.87 2.87 0 0 0 2.876 2.903z" fill="#CE643A"/><g transform="translate(345.581 468.813)"><ellipse transform="rotate(-.23 4.134 2.617)" cx="4.134" cy="2.617" rx="3.9" ry="1" fill="#1B417D"/><path fill="#1B417D" d="M.449.885h7.789L8.03 2.613H.242z"/><ellipse transform="rotate(-.23 4.341 .89)" cx="4.341" cy=".889" rx="3.9" ry="1" fill="#0080F6"/><ellipse transform="rotate(-.157 4.35 .818)" cx="4.351" cy=".818" rx="3.359" ry="1" fill="#DFF0FF"/><path d="M4.383.482c1.738 0 3.176 0 3.29.415a.214.214 0 0 0 .024-.08C7.754.31 6.259.31 4.395.31c-1.852 0-3.36 0-3.417.506 0 .035 0 .058.012.08C1.22.483 2.646.483 4.383.483z" fill="#1B417D"/><g transform="translate(3.451 .24)" fill="#1B417D"><circle cx=".541" cy=".645" r="1"/><circle cx=".541" cy=".784" r="1"/><path d="M.046.645h1v1h-1z"/></g><path d="m3.601 2.187.069.069a.682.682 0 0 1 0 .98l-.115.114a.68.68 0 0 1-.978 0l-.069-.069a.682.682 0 0 1 0-.979l.115-.115a.68.68 0 0 1 .978 0z" fill="#0080F6"/><path d="m3.256 2.337.265.265a.564.564 0 0 1 0 .794l-.058.058a.562.562 0 0 1-.794 0l-.264-.265a.564.564 0 0 1 0-.795l.057-.057a.562.562 0 0 1 .794 0zM4.487.828H6.04v1H4.487zM2.681.828h1v1h-1z" fill="#1B417D"/></g></g><g fill-rule="nonzero"><path d="M320.453 674.62h33.652l-.667-3.19a3.307 3.307 0 0 0-.944-1.705l-4.521-4.342a3.953 3.953 0 0 0-2.727-1.095h-2.45c-.633 0-1.266-.15-1.83-.449l-8.018-4.18a14.65 14.65 0 0 1-7.56-9.998l-1.403-6.761h-22.964l4.51 13.626c.046.795.08 1.555.127 2.35l-1.185 5.436c-.161.714-.207 1.451-.161 2.188l.529 8.12h15.612z" fill="#CE643A"/><path d="m317.749 662.895.058-8.109 7.42-5.874-1.242-6H301.02l4.51 13.625c.046.795.08 1.555.126 2.35l-1.185 5.436c-.161.715-.207 1.452-.161 2.189l.53 8.12h15.623l-2.462-9.756a7.8 7.8 0 0 1-.253-1.98zM329.898 666.42a3.66 3.66 0 0 0 1.335.403c.897.035 1.737.046 2.611.07l5.177.103 10.343.219h.035a.62.62 0 0 0 .345-.115l-1.288-1.244-9.423.195-5.177.104-2.566.046a2.809 2.809 0 0 1-1.139-.276c-.368-.161-.667-.426-1.012-.691-.104-.08-.242-.07-.322.034-.08.104-.07.254.023.334.299.277.633.6 1.058.818z" fill="#A53917"/><path d="M354.208 674.62H304.759c-.667 0-1.208.541-1.208 1.21v4.618c0 .668.541 1.21 1.208 1.21h49.436c.668 0 1.209-.542 1.209-1.21v-4.619a1.192 1.192 0 0 0-1.197-1.209z" fill="#8A381E"/></g><g fill-rule="nonzero"><path d="m326.981 645.48-23.309 6.116a1.21 1.21 0 0 1-1.415-.703l-47.343-111.85c-4.855-11.472 3.038-24.326 15.463-25.155 8.226-.552 15.773 4.538 18.373 12.37l39.071 117.66a1.233 1.233 0 0 1-.84 1.567z" fill="#ED985A"/><path d="M289.251 531.691c-.529 10.262-9.146 18.221-19.409 17.922l-87.437-2.638c-13.76-.414-24.482-12.07-23.78-25.835l.287-5.632c.598-11.61 11.125-20.133 22.584-18.279l91.924 14.858c9.503 1.52 16.325 9.975 15.831 19.603z" fill="#ED985A"/><path d="m303.672 651.59 7.455-1.958-31.155-102.26a32.881 32.881 0 0 0-25.794-22.817l-70.755-12.347c-11.16-1.946-21.583 5.206-24.183 15.78 2.473 10.573 11.78 18.624 23.17 18.97l76.83 2.327 43.006 101.61c.241.54.84.84 1.426.69z" fill="#CE643A" opacity=".9"/><path d="m300.952 641.23 21.468-6.197a.603.603 0 0 1 .747.415.604.604 0 0 1-.414.749h-.011L301.1 641.77a.29.29 0 0 1-.346-.207c-.046-.138.047-.288.196-.334z" fill="#AD330D"/></g><g><path d="m200.045 391.526 16.107 68.946c1.404 6-1.818 12.128-7.559 14.363-6.546 2.546-13.898-.864-16.176-7.51l-23.01-66.953c-3.025-8.788 2.06-18.29 11.033-20.663 8.698-2.292 17.556 3.052 19.604 11.817z" fill="#46CFED" fill-rule="nonzero"/><path d="m216.151 460.46-1.346-5.77-11.735-4.585a25.098 25.098 0 0 1-12.644-10.907l-19.19-33.517 21.18 61.632c1.956 5.702 7.64 9.019 13.334 8.247l10.458-14.789c-.023-.103-.035-.207-.058-.31z" fill="#0068C9" fill-rule="nonzero"/><path d="M253.128 483.749c.15 3.94 3.555 6.957 7.478 6.623l8.364.783s3.785.61 8.215.369c3.681-.196 6.132-.196 7.098-.046.196.034.38.023.575-.012.518-.104 3.199-.518 5.408-.795 1.541-.196 2.002-2.211.702-3.064a6.231 6.231 0 0 0-2.6-.956c-2.497-.368-3.648-.287-3.648-.287s-2.208.357 3.05-.657c5.257-1.002 9.56-2.13 11.285-3.144.817-.484 1.105-1.29 1.185-2.016a1.128 1.128 0 0 0-1.369-1.22l-2.197.494s-4.568-2.107-5.626-2.51c-1.059-.404-4.153.092-4.153.092l-8.065-2.65a7.95 7.95 0 0 0-5.016.024l-6.777 2.303-4.556-.368-2.117-.104c-4.038-.23-7.386 3.087-7.236 7.141z" fill="#FFD9AF" fill-rule="nonzero"/><path d="m215.162 454.828 47.63 22.08c3.475 1.612 5.05 5.69 3.555 9.214a7.094 7.094 0 0 1-8.249 4.135l-50.955-12.647c-6.282-1.555-10.239-7.798-8.962-14.155 1.541-7.694 9.86-11.933 16.98-8.627z" fill="#FFD9AF" fill-rule="nonzero"/><g fill="#E99462" fill-rule="nonzero"><path d="m297.468 480.5.644.484a.48.48 0 0 1-.034.795c-.622.403-1.772.853-3.222.184-.955-.449-2.968.807-4.464 1.118-.483.092-1.3-.542-1.748-.426-.322.092-1.714.403-2.002.483-.955.288-3.175-2.326-3.175-2.326s-4.901-1.394-4.234-1.048c1.6.829 1.898 3.19 2.163 3.662.483.841.046 1.164-1.254 1.094.057.012.115.012.172.023.633.047 3.877 5.356 4.407 6.923.046 0 .103-.012.15-.012.517-.103 3.198-.518 5.407-.795 1.541-.195 2.001-2.211.701-3.063a6.231 6.231 0 0 0-2.6-.956c-2.496-.369-3.647-.288-3.647-.288s-2.209.357 3.05-.657c5.257-1.002 9.56-2.13 11.285-3.144.748-.438 1.047-1.164 1.162-1.832-.77.196-1.703.23-2.761-.218z"/><path d="M280.326 484.543a.887.887 0 0 1-.173-.023c-1.656-.195-1.53-1.382-2.024-2.015-.104-.127-1.473-1.175-2.106-.956-1.357.472-3.624 1.59-5.51 2.545a12.723 12.723 0 0 1-6.846 1.36l-2.347-.196s-1.047 2.706-1.507 5.114c.264.011.53 0 .794-.023l8.364.783s3.785.61 8.214.368c3.682-.195 6.132-.195 7.099-.046.138.023.287.023.425 0-.506-1.555-3.75-6.864-4.383-6.91z"/></g><path d="M199.941 472.485a12.107 12.107 0 0 0 7.214 5.137l50.955 12.647c3.256.806 6.603-.783 8.076-3.755l-28.877-9.928a15.211 15.211 0 0 1-8.617-8.961l-2.796-7.81-10.723-4.963c-3.486-1.613-7.26-1.417-10.389.103l-4.843 17.53z" fill="#E99462" fill-rule="nonzero"/><path d="m199.677 475.341 7.788 3.19 12.23-20.916-9.353-4.998c-6.443-3.444-14.44-.68-17.395 6.012-2.853 6.473.184 14.04 6.73 16.712z" fill="#0068C9" fill-rule="nonzero"/><path d="M211.963 480.628s2.025.415 2.589-1.14c-1.208-.784.828-8.581 1.818-11.334 1.127-3.11 4.2-9.94 6.132-9.86.184-.518.011-1.036-.242-1.45-.299-.496-.782-.9-1.3-1.153a486.44 486.44 0 0 0-10.78-5.183c-1.012-.472-2.117-.483-3.003.046-1.852 1.072-5.039 4.066-7.708 11.368-2.669 7.291-2.243 11.99-1.565 14.271.323 1.13 1.335 1.935 2.635 2.189 3.82.725 7.628 1.474 11.424 2.246z" fill="#46CFED" fill-rule="nonzero"/><path d="M218.636 455.38c-1.323-.264-2.278.15-3.267.703-1.024.565-2.715.035-3.221-1.336-.242-.656.62-1.278.632-2.154.012-.46-1.07-1.324-1.829-.967-1.484.714-3.912 2.338-6.5 7.222-2.244 4.227-1.53 7.348-.541 9.087.322.565 1.346.542 1.358-.034.034-2.131.299-5.633 2.496-7.798 1.91-1.889 3.567-.403 2.531 2.833-1.024 3.214-2.381 8.144 1.415 10.792.484.323 1.174.185 1.15-.241-.23-2.65.197-11.725 6.41-17.07.333-.265-.058-.922-.634-1.037z"/><path d="M220.972 455.68a486.44 486.44 0 0 0-10.78-5.183c-1.012-.472-2.117-.484-3.002.046-1.853 1.071-5.04 4.066-7.709 11.368-2.669 7.291-2.243 11.99-1.564 14.271.322 1.129 1.334 1.935 2.634 2.189 3.808.737 7.616 1.497 11.424 2.257 0 0 2.025.415 2.589-1.14-1.208-.783.828-8.581 1.818-11.334 1.127-3.11 4.199-9.94 6.132-9.86.184-.518.011-1.036-.242-1.45a3.333 3.333 0 0 0-1.3-1.164zm-1.702.749c-6.213 5.344-6.639 14.42-6.409 17.07.024.426-.678.564-1.15.242-3.797-2.65-2.45-7.58-1.415-10.792 1.035-3.225-.633-4.711-2.531-2.834-2.198 2.166-2.462 5.656-2.497 7.798-.011.576-1.035.599-1.357.034-.99-1.739-1.703-4.86.54-9.087 2.589-4.884 5.016-6.508 6.5-7.222.76-.368 1.841.507 1.83.968-.012.875-.874 1.497-.633 2.153.506 1.371 2.198 1.9 3.222 1.336 1-.552 1.955-.967 3.267-.702.575.104.966.76.633 1.037z" fill="#0068C9" fill-rule="nonzero"/></g><g fill-rule="nonzero"><path d="M192.364 484.887c2.655 3.313 3.502 7.554 2.307 11.613l-12.395 42.417a18.65 18.65 0 0 1-5.716 8.873 16.373 16.373 0 0 0 6.737-9.08l12.72-43.529c.962-3.29.278-6.729-1.879-9.423a10.534 10.534 0 0 0-3.988-3.072 14.282 14.282 0 0 1 2.214 2.2zM137.833 486.102c-.487.046-.962.195-1.438.298-.475.126-.927.298-1.391.447-.44.195-.905.344-1.322.585l-.65.332c-.208.115-.405.252-.614.378-.417.241-.8.54-1.183.814-.394.275-.73.62-1.101.929-.325.355-.684.676-.974 1.043-1.217 1.467-2.145 3.164-2.632 4.987-.104.458-.243.917-.29 1.387l-.104.7-.081.756-.302 3.072-1.264 12.29-.637 6.144-.406 3.84-.035.723-.07 1.455c-.092 3.875.951 7.727 2.83 11.11l-.024.01a23.158 23.158 0 0 0 6.273 7.693 23.455 23.455 0 0 0 9.102 4.437c.417.091.835.24 1.252.286a24.935 24.935 0 0 1-10.296-6.053c-5.45-5.307-8.116-12.679-7.304-20.199l2.62-24.372c.8-7.428 6.852-13.08 14.401-13.459l41.254-2.029c-.44-.057-.881-.103-1.333-.103-.163 0-.325 0-.487.011l-36.78 1.812c-1.843.149-3.686.332-5.53.504-.51.035-.997.103-1.484.172z" fill="#3CA1FF"/><path d="M196.028 484.887a13.202 13.202 0 0 0-4.325-3.52 12.714 12.714 0 0 1 3.92 3.244c2.538 3.164 3.338 7.2 2.202 11.086l-12.72 43.53c-2.064 7.038-8.14 12.163-15.502 13.046l-17.01 2.04c-.475.057-.95.092-1.426.126.777-.034 1.542-.08 2.319-.172l16.58-1.983c7.538-.906 13.776-6.145 15.874-13.355l12.395-42.417c1.183-4.07.348-8.3-2.308-11.624z" fill="#3CA1FF"/><path d="M169.592 552.283c7.363-.883 13.45-6.007 15.502-13.046l12.72-43.529c1.136-3.875.325-7.922-2.203-11.086a12.556 12.556 0 0 0-3.919-3.244c-1.948-1.032-4.174-1.525-6.481-1.422l-1.82.092a12.914 12.914 0 0 1 6.77 2.66 10.534 10.534 0 0 1 3.99 3.072c2.156 2.694 2.84 6.122 1.877 9.423l-12.72 43.53a16.32 16.32 0 0 1-6.736 9.079 18.923 18.923 0 0 1-10.17 4.482l-16.58 1.983c-.881.103-1.75.16-2.62.184.637.046 1.263.069 1.913.069.684 0 1.368-.035 2.052-.08.475-.035.95-.07 1.426-.127l16.998-2.04z" fill="#0068C9"/><path d="m149.822 554.266 16.581-1.983a18.964 18.964 0 0 0 10.169-4.483 18.65 18.65 0 0 0 5.716-8.873l12.395-42.417c1.183-4.058.348-8.3-2.307-11.613a13.265 13.265 0 0 0-2.215-2.19 12.913 12.913 0 0 0-6.771-2.659 13.411 13.411 0 0 0-1.925-.046l-43.086 2.12c-9.357.46-16.859 7.475-17.844 16.68l-2.62 24.373c-.928 8.632 2.122 17.07 8.371 23.157a28.632 28.632 0 0 0 20.047 8.15c.29 0 .58-.022.881-.022.858-.034 1.728-.08 2.61-.195zm-26.309-15.442c-2.099-3.84-3.223-8.231-3.084-12.587l.139-2.442.093-.768.36-3.072 2.19-18.4.383-3.061.093-.768.14-.826c.069-.55.254-1.089.382-1.627.626-2.144 1.762-4.127 3.235-5.801 1.46-1.685 3.339-3.004 5.38-3.887.498-.24 1.043-.378 1.565-.561a19.532 19.532 0 0 1 1.623-.367c.545-.069 1.09-.184 1.647-.184a19.464 19.464 0 0 1 1.611-.045c2.088 0 4.175.011 6.25-.012 2.087-.034 4.163-.092 6.25-.149 8.325-.218 16.65-.458 24.975-.802-8.314.412-16.627.928-24.94 1.478-2.076.138-4.151.264-6.227.425-.232.023-.463.045-.695.057l36.779-1.811c.162-.012.324-.012.487-.012.452 0 .892.046 1.333.103a9.378 9.378 0 0 1 6.04 3.428c1.914 2.385 2.517 5.434 1.659 8.369l-12.395 42.417c-1.704 5.812-6.725 10.042-12.801 10.776l-10.563 1.26 7.2-.229-10.586 1.078-3.965.413-1.357.069-1.356.057c-.452.011-.905-.046-1.357-.069l-1.368-.092c-.452-.023-.904-.149-1.357-.217a25.234 25.234 0 0 1-10.145-4.105 25.778 25.778 0 0 1-7.56-8.059l-.057.023z" fill="#B8DDFF"/><path d="M131.097 546.861c3.05 2.086 6.54 3.508 10.145 4.104.452.069.893.184 1.357.218l1.368.092c.452.023.904.08 1.356.068l1.357-.057 1.357-.069 3.965-.412 10.586-1.078-7.2.23-3.444.114-2.655.092-1.334.045-2.597-.068c-.429-.023-.858-.103-1.287-.16l-1.275-.173c-.43-.046-.835-.195-1.253-.286a23.456 23.456 0 0 1-9.101-4.437 23.158 23.158 0 0 1-6.273-7.692l.023-.012c-1.878-3.37-2.934-7.233-2.83-11.109l.07-1.456.035-.722.406-3.84.638-6.145 1.264-12.289.301-3.072.081-.757.105-.7c.046-.47.185-.916.29-1.386.475-1.823 1.414-3.531 2.631-4.987.29-.378.65-.7.974-1.043.371-.31.708-.654 1.102-.929.383-.286.765-.584 1.183-.814.208-.126.405-.263.614-.378l.65-.332c.417-.241.88-.379 1.321-.585.464-.15.916-.321 1.392-.447.475-.103.95-.252 1.437-.298.476-.069.974-.138 1.508-.184 1.843-.172 3.687-.344 5.53-.504.232-.023.464-.046.696-.057 2.076-.16 4.151-.298 6.227-.425 8.313-.55 16.627-1.066 24.94-1.478-8.326.344-16.64.596-24.975.802-2.088.057-4.163.115-6.25.15-2.087.022-4.163.01-6.25.01-.51-.01-1.055.012-1.611.046-.557 0-1.09.115-1.647.184-.545.092-1.09.23-1.623.367-.522.195-1.067.32-1.565.561-2.041.883-3.92 2.202-5.38 3.887-1.461 1.673-2.61 3.657-3.235 5.8-.14.54-.314 1.078-.383 1.628l-.14.826-.092.768-.383 3.06-2.191 18.4-.36 3.073-.092.768-.14 2.442c-.15 4.368.986 8.747 3.085 12.587l.023-.011a25.527 25.527 0 0 0 7.548 8.07z" fill="#1B417D"/></g><g fill-rule="nonzero"><path d="M506.928 457.205h-.023c-.355 0-.7.045-1.02.114a5.217 5.217 0 0 0-1.182-.434 5.032 5.032 0 0 0-1.112-.125c-.195 0-.379.01-.562.034a4.93 4.93 0 0 0-1.732.525h-.023a2.958 2.958 0 0 0-.459-.069 4.83 4.83 0 0 0-.573-.034c-.149 0-.287.023-.436.034a5.59 5.59 0 0 0-.653.103 3.134 3.134 0 0 1-.93-2.226v-1.256a3.194 3.194 0 0 1 3.2-3.184c.115 0 .23.023.344.034.115.011.241.023.356.046a3.128 3.128 0 0 1 1.456-.366c.241 0 .482.035.711.08.264.057.516.16.757.286.23-.046.459-.08.7-.08.642 0 1.238.194 1.731.513a3.178 3.178 0 0 1 1.468 2.671v1.256c0 .868-.355 1.644-.917 2.226a4.414 4.414 0 0 0-1.101-.148z" fill="#CE643A"/><g fill="#AD330D"><path d="M501.768 450.71c.114.01.24.022.355.045a3.164 3.164 0 0 0-1.743 2.82v1.54c0 .857.344 1.633.895 2.192a2.958 2.958 0 0 0-.46-.068 4.83 4.83 0 0 0-.572-.034c-.15 0-.287.022-.436.034a2.62 2.62 0 0 1-.31-1.233v-2.682a2.677 2.677 0 0 1 2.27-2.614zM504.29 450.47c.265.057.517.16.758.285a3.219 3.219 0 0 1 1.502 1.61c.218-.457.539-.856.929-1.176a3.178 3.178 0 0 1 1.468 2.671v1.256c0 .867-.356 1.644-.918 2.226a5.011 5.011 0 0 0-1.1-.137h-.024a3.375 3.375 0 0 1-.424-.742c-.149.32-.367.605-.608.844a5.217 5.217 0 0 0-1.18-.433 5.032 5.032 0 0 0-1.113-.126c-.195 0-.379.012-.562.034 0-.034-.012-.08-.012-.114v-4.383c0-.822.54-1.541 1.285-1.815z"/></g><path d="M496.813 458.152h.172c.103 0 .206.012.31.012.539-.4 1.17-.674 1.846-.822.218-.046.436-.08.654-.103.149-.012.286-.034.436-.034.195 0 .39.011.573.034l.459.068h.023a4.93 4.93 0 0 1 1.731-.525c.184-.023.367-.034.562-.034.379 0 .746.046 1.113.126.413.09.814.24 1.18.433a5.084 5.084 0 0 1 1.022-.114h.022c.379 0 .746.057 1.101.137a4.93 4.93 0 0 1 1.583.65c.092.058.172.115.264.184.103-.012.206-.012.31-.012h.172c1.032 0 1.995.32 2.786.868 1.262.879 2.099 2.328 2.099 3.983v3.961a4.82 4.82 0 0 1-.528 2.18c-2.408-.661-6.674-.661-11.549-.661h-.47c-1.319 0-2.592 0-3.796.023-.55.01-1.1.022-1.617.034-.585.023-1.147.045-1.674.068a33.15 33.15 0 0 0-1.675.137c-.561.057-1.089.137-1.56.229a4.898 4.898 0 0 1-.435-2.01v-3.96a4.883 4.883 0 0 1 4.885-4.852z" fill="#0097B8"/><g fill="#00547A"><path d="M497.295 458.175a4.91 4.91 0 0 0-2.019 3.972v4.749c0 .605.126 1.187.321 1.724a33.15 33.15 0 0 0-1.674.137c0-.046-.011-.103-.011-.149v-6.689a3.797 3.797 0 0 1 3.383-3.744zM500.816 457.239c.16.023.32.046.481.08a4.933 4.933 0 0 0-2.683 4.383v5.183c0 .57.103 1.107.275 1.62l-1.617.035a2.214 2.214 0 0 1-.023-.286v-6.94c.011-2.066 1.56-3.79 3.566-4.075zM504.691 456.885c.413.091.815.24 1.182.434a5.032 5.032 0 0 1 2.305 2.488 5.055 5.055 0 0 1 1.433-1.815 5.022 5.022 0 0 1 1.823 2.078 4.942 4.942 0 0 1 1.71-1.039c1.26.879 2.098 2.329 2.098 3.984v3.96a4.82 4.82 0 0 1-.527 2.181c-2.409-.662-6.675-.662-11.55-.662h-.47v-8.767c0-1.3.826-2.408 1.996-2.842z"/></g><path d="M489.542 470.994v-.046c0-1.016 1.055-1.61 2.833-1.952.47-.091.986-.17 1.56-.228a32.066 32.066 0 0 1 1.674-.137c.539-.034 1.09-.057 1.674-.068l1.617-.035a396.62 396.62 0 0 1 3.796-.023h.47c4.863 0 9.14 0 11.55.663 1.318.365 2.075.913 2.075 1.78v.046h.012v17.214a1.28 1.28 0 0 1-1.285 1.278h-24.703a1.28 1.28 0 0 1-1.284-1.278v-17.214h.012z" fill="#DFF0FF"/><path d="M489.554 487.66c.126.57.642 1.004 1.25 1.004h12.66c1.606-.342 2.787-1.746 2.787-3.401l.07-13.493a2.989 2.989 0 0 0-2.42-2.945l-1.618-.32h.883c7.524 0 13.624 0 13.624 2.443 0 .023-.011.034-.011.046h.011v17.213a1.28 1.28 0 0 1-1.284 1.279h-24.703a1.28 1.28 0 0 1-1.284-1.279v-.547h.034z" fill="#B8DDFF"/></g><g fill-rule="nonzero"><path d="M416.904 481.498h23.916c.67 0 1.214.55 1.214 1.23v3.207c0 2.47-1.977 4.472-4.416 4.472h-17.512c-2.439 0-4.415-2.002-4.415-4.472v-3.207c0-.68.543-1.23 1.213-1.23z" fill="#DB594B"/><path d="M438.046 485.935v-3.207c0-.68-.543-1.23-1.214-1.23h3.988c.67 0 1.214.55 1.214 1.23v3.207c0 2.47-1.977 4.472-4.416 4.472h-3.987c2.439 0 4.415-2.002 4.415-4.472z" fill="#AD330D"/></g><g fill-rule="nonzero"><path d="m474.831 471.855.334.046c.356.046.609.381.563.74l-.07.508c-.01.069-.022.138-.045.207l-1.046 3.096c-.046.15-.264.127-.276-.035l-.276-3.257c-.011-.07 0-.15 0-.22l.07-.508a.677.677 0 0 1 .746-.577z" fill="#FFEACF"/><path fill="#FFD9AF" d="m475.004 471.878.816.104-.161 1.282-1.299 3.846.483-3.961z"/><path d="m478.785 441.261.333.046c.356.047.61.382.563.74l-4.022 31.125a.966.966 0 0 1-.046.173l-.196-.185-.298.127-.265-.162-.367.081-.265-.173-.218.116v-.197l4.01-31.125c.081-.358.415-.612.77-.566z" fill="#ED985A"/><path d="m478.911 442.947.655.081-3.884 30.132a.966.966 0 0 1-.046.174l-.196-.185-.298.127-.104-.15 3.873-30.178z" fill="#CE643A"/><path d="m477.843 443.386 1.643.22.184-1.444a.769.769 0 0 0-.667-.866l-.115-.012a.767.767 0 0 0-.862.67l-.183 1.432z" fill="#0097B8"/><path d="m477.923 442.82 1.643.22.115-.878a.769.769 0 0 0-.666-.866l-.115-.012a.767.767 0 0 0-.862.67l-.115.866z" fill="#FC95A4"/><path fill="#323232" d="m474.291 476.279.07.831.263-.785z"/><path fill="#1B417D" d="m475.061 473.149 3.827-29.636h-.057l-3.827 29.624zM474.395 473.056l3.827-29.623-.058-.012-3.827 29.635z"/><path fill="#DB594B" d="m479.19 443.006.212-1.649z"/><path d="m466.246 446.181-.322.116a.65.65 0 0 1-.828-.416l-.16-.485a1.348 1.348 0 0 1-.046-.208l-.414-3.245c-.023-.15.184-.231.264-.093l1.678 2.807c.035.07.07.127.092.208l.161.485a.671.671 0 0 1-.425.831z" fill="#FFEACF"/><path fill="#FFD9AF" d="m466.085 446.239-.782.266-.413-1.213-.518-4.03 1.3 3.764z"/><path d="m476.107 475.401-.322.115a.65.65 0 0 1-.827-.415l-10.033-29.728a.966.966 0 0 1-.046-.174l.253.081.206-.242.31.034.288-.242.322.035.138-.197c.034.058.057.116.08.173l10.033 29.716a.648.648 0 0 1-.402.844z" fill="#ED985A"/><path d="m475.256 473.946-.62.208-9.712-28.77a.966.966 0 0 1-.046-.172l.253.08.207-.242.16.08 9.758 28.816z" fill="#CE643A"/><path d="m476.015 473.08-1.563.531.46 1.375a.77.77 0 0 0 .977.485l.103-.035a.776.776 0 0 0 .483-.982l-.46-1.374z" fill="#0097B8"/><path d="m476.199 473.622-1.563.531.287.843a.77.77 0 0 0 .977.485l.104-.034a.776.776 0 0 0 .482-.982l-.287-.843z" fill="#FC95A4"/><path fill="#323232" d="m464.798 441.977-.426-.716.104.82z"/><path fill="#1B417D" d="m475.026 473.426.058-.023-9.55-28.296-.058.023zM475.67 473.207l.046-.023-9.55-28.285-.047.012z"/><path fill="#DB594B" d="m474.994 474.011.531 1.576z"/><g><path d="m470.291 476.972-.115-.012a.806.806 0 0 1-.69-.877l3.15-26.16 1.666.208-3.149 26.16a.757.757 0 0 1-.862.68z" fill="#ACEDFB"/><path fill="#3CA1FF" d="m474.068 450.134-3.246 26.945z"/><path fill="#EAFBFF" d="m472.93 449.995-3.246 26.945z"/><path d="M474.475 449.715s.517-5.751-.242-5.843-1.62 5.624-1.62 5.624l-.138 1.12 1.873.231.127-1.132z" fill="#0068C9"/><path d="M473.51 449.6s.77-5.729.723-5.729c-.758-.092-1.62 5.625-1.62 5.625l-.138 1.12.908.116.126-1.132z" fill="#1B417D"/><path d="M472.843 451.402s-.368 3.8.011 3.846.931-3.73.931-3.73l.092-.74-.942-.116-.092.74z" fill="#0068C9"/><path d="M472.843 451.402s-.368 3.8.011 3.846c.104.011.54-3.777.54-3.777l.092-.74-.551-.069-.092.74z" fill="#1B417D"/><path d="M473.636 450.004s.402-3.8.15-3.823c-.254-.023-.77 3.754-.77 3.754l-.093.74.62.068.093-.739z" fill="#1B417D"/><path d="m474.36 450.616-1.862-.23a.203.203 0 0 0-.218.172v.035a.197.197 0 0 0 .172.22l1.862.23a.196.196 0 0 0 .218-.173v-.034c.012-.104-.069-.197-.172-.22z" fill="#1B417D"/></g><path d="M466.487 457.823v-.023c0-1.213 3-1.213 6.689-1.213 3.7 0 6.689 0 6.689 1.213v.023l-.885 19.23a2.522 2.522 0 0 1-2.517 2.414h-6.597a2.53 2.53 0 0 1-2.517-2.414l-.885-19.23h.023z" fill="#DB594B"/><path d="M472.716 456.587h.46c3.7 0 6.689 0 6.689 1.213v.023l-.885 19.23a2.522 2.522 0 0 1-2.517 2.414h-4.942a2.67 2.67 0 0 0 2.253-2.587l.31-18.155a2.251 2.251 0 0 0-1.368-2.137z" fill="#A53917"/></g><g fill-rule="nonzero"><path d="M403.151 485.71c0-.3-.242-.544-.542-.544h-79.954c-.3 0-.542.243-.542.544v.162h81.027v-.162h.012z" fill="#fff"/><path d="M403.658 485.872H320.855a.944.944 0 0 0-.945.948v1.735c0 .532.427.948.945.948h82.814c.53 0 .946-.428.946-.948v-1.735a.954.954 0 0 0-.957-.948z" fill="#EFF7FF"/><path d="M321.583 489.503h21.805a1.7 1.7 0 0 0 1.695-1.7v-.243a1.7 1.7 0 0 0-1.695-1.7h-21.805a1.7 1.7 0 0 0-1.695 1.7v.243c.011.949.772 1.7 1.695 1.7z" fill="#3CA1FF"/><path d="M317.8 487.002c-.046-.047-.115-.093-.173-.14l-.035-.034c-.011-.011-.034-.023-.057-.034-.046-.035-.104-.07-.162-.105-.069-.046-.126-.08-.196-.127-.057-.034-.126-.07-.196-.104-.08-.046-.161-.08-.242-.127-.069-.035-.15-.07-.23-.104-.093-.046-.185-.081-.277-.127-.08-.035-.173-.07-.265-.104-.104-.047-.208-.081-.323-.128l-.289-.104c-.115-.046-.23-.08-.357-.127-.104-.035-.208-.07-.323-.104-.127-.035-.254-.081-.392-.116l-.346-.104c-.138-.035-.277-.07-.426-.116-.127-.034-.243-.057-.37-.092l-.45-.104c-.126-.035-.264-.058-.391-.093a7.135 7.135 0 0 0-.484-.092c-.139-.023-.277-.058-.416-.081-.173-.035-.334-.058-.507-.093l-.427-.069c-.173-.023-.357-.058-.542-.081-.15-.023-.288-.046-.438-.058l-.576-.07c-.15-.01-.3-.034-.45-.045-.207-.024-.415-.035-.634-.058l-.427-.035a14.861 14.861 0 0 0-.738-.046c-.115-.012-.23-.012-.357-.023l-1.119-.035H293.39v.011c-7.126.14-12.776 2.186-12.776 3.47v.659h.023c.38 1.215 6.296 1.238 13.537 1.238 1.176 0 2.318 0 3.402-.012 2.387.012 4.97.012 6.226.012h.346c4.347 0 8.003 0 10.447-.266.173-.023.335-.035.485-.058.034 0 .069-.012.092-.012.738-.104 1.326-.23 1.73-.393 0 0 .011 0 .011-.011.058-.023.115-.047.161-.07.346-.15.588-.335.704-.555a.726.726 0 0 0 .08-.254.645.645 0 0 0-.057-.88z" fill="#EFF7FF"/><path d="M317.8 487.002c-.046-.047-.115-.093-.173-.14.323.29.208.845-.219.984a8.375 8.375 0 0 1-2.618.416h-1.256c-.957 0-1.915-.07-2.86-.22-1.338-.208-3.229-.497-3.448-.67-.011-.012-.023-.012-.034-.023.357.277.553.532.553.775 0 1.133-4.312 1.33-10.159 1.364 2.387.012 4.97.012 6.227.012h.346c4.347 0 8.002 0 10.447-.266.173-.023.334-.035.484-.058.035 0 .07-.012.092-.012.738-.104 1.326-.23 1.73-.393 0 0 .011 0 .011-.011.058-.024.116-.047.162-.07.346-.15.588-.335.703-.555a.726.726 0 0 0 .08-.254.658.658 0 0 0-.068-.88z" fill="#0068C9"/><path d="M307.757 488.135c0-.243-.196-.497-.553-.775a6.748 6.748 0 0 0-.3-.208c-.023-.012-.035-.023-.058-.035a3.54 3.54 0 0 0-.357-.196c-.012-.012-.035-.012-.047-.023-.138-.07-.288-.14-.438-.209-.034-.011-.069-.034-.092-.046-.161-.07-.323-.139-.507-.208-.023-.012-.046-.023-.081-.023-.173-.07-.346-.127-.53-.197-.023-.011-.058-.023-.081-.034-.196-.07-.404-.128-.623-.197-.046-.012-.092-.023-.138-.046a9.621 9.621 0 0 0-.68-.185c-.024-.012-.058-.012-.081-.023-.22-.058-.45-.116-.68-.174-.047-.011-.081-.023-.127-.023a14.718 14.718 0 0 0-.761-.162l-.173-.035a17.164 17.164 0 0 0-.819-.15c-.023 0-.058-.012-.08-.012-.266-.046-.531-.08-.808-.127-.058-.011-.104-.011-.161-.023-.289-.035-.577-.08-.877-.116-.057-.011-.126-.011-.184-.023-.311-.034-.623-.07-.934-.092h-.058l-.934-.07c-.057 0-.127-.011-.184-.011a27.135 27.135 0 0 0-.969-.046h-.207c-.335-.012-.68-.012-1.027-.012h-.011c-6.988 0-12.741 1.862-13.48 3.204a.513.513 0 0 0-.08.277c0 .046.012.093.023.127.38 1.215 6.296 1.238 13.537 1.238 1.176 0 2.318 0 3.402-.012 5.846-.023 10.159-.22 10.159-1.353z" fill="#3CA1FF"/><path d="M357.812 486.58h18.322-18.322zM356.947 488.65c0 .116.023.231.07.335a1.086 1.086 0 0 1-.07-.335zM382.834 484.43z" fill="#B8DDFF"/><g><path d="M449.61 367.952H317.771a5.007 5.007 0 0 0-5.004 5.019v84.97a5.007 5.007 0 0 0 5.004 5.02H449.63a5.007 5.007 0 0 0 5.004-5.02v-84.97c-.023-2.776-2.26-5.02-5.016-5.02z" fill="#DFF0FF"/><path d="M314.64 457.941v-84.97a5.007 5.007 0 0 1 5.005-5.02h-1.88a5.007 5.007 0 0 0-5.004 5.02v84.97a5.007 5.007 0 0 0 5.005 5.02h1.88a5.022 5.022 0 0 1-5.005-5.02z" fill="#3CA1FF"/><path d="M432.54 460.242H322.88c-3.044 0-5.523-2.475-5.523-5.54V382.5c0-2.405 3.067-3.411 4.485-1.457l2.722 3.77a181.633 181.633 0 0 0 92.65 66.87l15.878 4.997c1.983.624 1.533 3.562-.554 3.562z" fill="#B8DDFF"/><path d="M386.731 404.694c-3.713 0-6.722-3.018-6.722-6.742 0-1.527.518-2.938 1.372-4.071a6.72 6.72 0 0 0-2.664 5.366c0 3.724 3.01 6.742 6.723 6.742 2.19 0 4.116-1.052 5.35-2.671a6.687 6.687 0 0 1-4.059 1.376z" fill="#3CA1FF"/><g fill="#0068C9"><path d="M449.68 456.23a1.56 1.56 0 0 0-1.557 1.56 1.56 1.56 0 0 0 1.557 1.562 1.56 1.56 0 0 0 1.557-1.561 1.56 1.56 0 0 0-1.557-1.562zm0 2.613c-.577 0-1.05-.474-1.05-1.052 0-.579.473-1.053 1.05-1.053.577 0 1.05.474 1.05 1.053 0 .578-.473 1.052-1.05 1.052zM435.093 456.484h-1.349a.621.621 0 0 0-.623.624v1.353c0 .347.277.625.623.625h1.35a.621.621 0 0 0 .622-.625v-1.353a.621.621 0 0 0-.623-.624zM431.219 457.316h-2.191a.476.476 0 0 0-.473.475c0 .254.208.474.473.474h2.19a.476.476 0 0 0 .474-.474.468.468 0 0 0-.473-.475zM437.515 456.218a.476.476 0 0 0-.473.474v2.197c0 .255.207.474.473.474a.476.476 0 0 0 .472-.474v-2.197a.468.468 0 0 0-.472-.474zM439.821 456.218a.476.476 0 0 0-.473.474v2.197c0 .255.208.474.473.474a.476.476 0 0 0 .473-.474v-2.197a.468.468 0 0 0-.473-.474zM442.138 456.218a.476.476 0 0 0-.473.474v2.197c0 .255.208.474.473.474s.473-.208.473-.474v-2.197a.483.483 0 0 0-.473-.474zM444.445 456.218a.476.476 0 0 0-.473.474v2.197c0 .255.208.474.473.474a.476.476 0 0 0 .473-.474v-2.197a.483.483 0 0 0-.473-.474z"/></g></g><g><path d="m398.873 417.508 18.092 56.936c2.364 7.448-3.171 15.058-10.977 15.058h-48.176a.865.865 0 0 1-.865-.867v-1.203c0-.474.38-.867.865-.867h18.322c7.357 0 12.822-6.812 11.254-14.017l-11.831-54.287a1.469 1.469 0 0 1 1.43-1.781h20.502c.634 0 1.199.416 1.384 1.029z" fill="#EFF7FF"/><path d="m416.965 474.444-1.568-4.915c.38 3.308-2.191 6.372-5.685 6.372h-14.114a5.706 5.706 0 0 1-5.339-3.69l.116.51c1.88 8.627-4.682 16.78-13.48 16.78h29.093c7.806 0 13.353-7.61 10.977-15.057z" fill="#B8DDFF"/><path d="m390.375 472.721-.115-.509-11.854-54.565a1.469 1.469 0 0 0-1.43-1.156c-.934 0-1.626.867-1.43 1.78l11.831 54.288c.15.67.23 1.353.265 2.012.023.44.012.879-.023 1.318-.057.868-.219 1.712-.473 2.522a11.576 11.576 0 0 1-4.324 6.014c-.68.485-1.418.913-2.202 1.249-1.372.59-2.894.913-4.497.913h-18.322a.864.864 0 0 0-.796.532.832.832 0 0 0-.069.336v1.202c0 .116.023.232.07.336a.86.86 0 0 0 .795.532h19.083c8.821-.023 15.371-8.177 13.491-16.804z" fill="#3CA1FF"/></g></g><g fill-rule="nonzero"><g fill="#1B417D"><path d="M139.36 679.667a2.057 2.057 0 0 0 1.59 2.364 2.057 2.057 0 0 0 2.452-1.58l38.483-178.25h-11.722l-30.803 177.47zM406.034 679.667a2.057 2.057 0 0 0 1.59 2.364 2.057 2.057 0 0 0 2.452-1.58l38.483-178.25h-11.722l-30.803 177.47z"/></g><path fill="#001828" d="m157.808 502.2 75.354 5.892h209.242l75.9-5.892h-272.14z"/><g fill="#001828"><path d="m436.844 502.2-30.803 177.47a2.07 2.07 0 0 0 .576 1.81 1.485 1.485 0 0 0 1.128-1.153l33.394-170.16c.46-2.318 2.522-3.978 4.883-3.909l1.646.046.887-4.104h-11.711zM170.163 502.2 139.36 679.67a2.07 2.07 0 0 0 .576 1.81 1.485 1.485 0 0 0 1.128-1.153l33.394-170.16c.46-2.318 2.522-3.978 4.883-3.909l1.646.046.887-4.104h-11.711z"/></g><path d="M248.684 489.702h-105.74a3.034 3.034 0 0 0-3.028 3.032v1.487c0 1.315.84 2.422 2.015 2.848l8.325 3.782c1.97.888 4.1 1.36 6.253 1.36H246.153a5.546 5.546 0 0 0 5.516-4.957h.035v-4.509a3.02 3.02 0 0 0-3.017-3.043z" fill="#1B417D"/><g fill="#0068C9"><path d="m269.745 679.667-30.803-177.47H227.22l38.483 178.25a2.055 2.055 0 0 0 2.36 1.591 2.052 2.052 0 0 0 1.682-2.375zM493.9 502.2l38.483 178.25a2.055 2.055 0 0 0 2.36 1.591 2.074 2.074 0 0 0 1.682-2.387l-30.803-177.47H493.9v.012z"/></g><g fill="#1B417D"><path d="m238.839 506.328.83.023-.726-4.151H227.22l38.483 178.25c.069.323.218.611.414.842.518-.312.818-.923.691-1.545l-32.84-167.65c-.6-3.044 1.772-5.858 4.87-5.777zM533.49 679.747l-32.841-167.65c-.599-3.044 1.773-5.857 4.87-5.777l.83.023-.725-4.15h-11.722l38.483 178.25c.069.323.218.61.414.841.507-.3.806-.91.691-1.545z"/></g><path d="M520.224 502.2c2.153 0 4.295-.461 6.253-1.36l8.36-3.805c.103-.035.195-.081.3-.139l.08-.034c.011 0 .011-.012.011-.012a3.015 3.015 0 0 0 1.566-2.64v-1.488a3.034 3.034 0 0 0-3.028-3.032h-285.08c1.67 0 3.028 1.36 3.028 3.032v4.509h-.034a5.555 5.555 0 0 1-5.516 4.958h274.063v.011z" fill="#0068C9"/></g><g fill-rule="nonzero"><path d="M453.292 486.129c0-.805.586-1.469 1.322-1.469H483.38c.103 0 .195-.102.195-.217v-.166c0-.115-.092-.217-.195-.217h-37.088c-1.023 0-1.85.92-1.85 2.056v2.107c0 1.136.827 2.056 1.85 2.056h37.076c.104 0 .196-.102.196-.217v-.166c0-.115-.092-.217-.196-.217H454.602c-.184 0-.356-.039-.517-.115a1.249 1.249 0 0 1-.425-.332.957.957 0 0 1-.127-.179 1.564 1.564 0 0 1-.218-.562c-.012-.051-.012-.115-.012-.179 0-.038-.011-.076-.011-.115v-2.068z" fill="#CE643A"/><path d="M483.277 484.66h-28.663c-.724 0-1.321.651-1.321 1.469v2.107c0 .804.586 1.468 1.321 1.468h28.663v-5.044z" fill="#EFF7FF"/><g fill="#ACEDFB"><path d="M453.292 487.393v.179l29.652-.051c.023 0 .034-.013.034-.039 0-.025-.011-.038-.034-.038l-29.652-.051zM453.533 489.091c.035.064.08.115.127.179l29.008-.051c.023 0 .034-.013.034-.038 0-.026-.011-.039-.034-.039l-29.135-.05zM475.186 488.44c0-.026-.011-.038-.034-.038l-21.848-.051c0 .063.011.115.011.178l21.837-.05c.023 0 .035-.013.035-.039zM463.566 484.66h-8.953c-.724 0-1.321.651-1.321 1.469v.561c0-.038.011-.063.011-.089l20.377-.051c.023 0 .035-.013.035-.038s-.012-.039-.035-.039l-20.366-.05c.035-.205.104-.397.207-.563l28.388-.05c.023 0 .034-.013.034-.039 0-.026-.011-.038-.034-.038l-28.25-.051c.241-.281.575-.46.954-.46h28.663v-.562h-19.71z"/></g><path d="M452.062 488.274v-2.133c0-.562.207-1.072.529-1.443h-6.344c-.908 0-1.667.741-1.816 1.699v1.839c0 1.136.827 2.056 1.85 2.056h7.252c-.839-.192-1.47-1.022-1.47-2.018z" fill="#AD330D"/></g><g fill-rule="nonzero"><path d="M468.968 479.153c-.724 0-1.321.651-1.321 1.468v2.107c0 .805.586 1.469 1.321 1.469h14.297v-5.044h-14.297z" fill="#EFF7FF"/><path d="M483.277 479.715v-.562H468.98c-.724 0-1.322.651-1.322 1.468v.562c0-.038.012-.064.012-.09l6.01-.05c.024 0 .035-.013.035-.039s-.011-.038-.034-.038l-6-.051c.035-.204.104-.396.207-.562l14.021-.051c.023 0 .035-.013.035-.038 0-.026-.012-.039-.035-.039l-13.895-.05c.242-.282.575-.46.954-.46h14.31zM475.152 482.958c.023 0 .034-.013.034-.038 0-.026-.011-.038-.034-.038l-7.482-.052c0 .064.011.115.011.18l7.47-.052zM482.944 482c.023 0 .034-.012.034-.038 0-.025-.011-.038-.034-.038l-15.286-.051v.178l15.286-.05z" fill="#ACEDFB"/><path d="M468.44 484.07a1.341 1.341 0 0 1-.414-.32l14.642-.051c.023 0 .034-.013.034-.038 0-.026-.011-.039-.034-.039l-14.768-.05a1.564 1.564 0 0 1-.218-.563c.08.473.379.869.758 1.06z" fill="#ACEDFB"/><path d="M468.968 479.153h14.4c.104 0 .196-.102.196-.217v-.166c0-.115-.092-.217-.196-.217h-37.076c-1.022 0-1.85.919-1.85 2.056v2.107c0 1.136.828 2.056 1.85 2.056h37.088c.104 0 .196-.103.196-.218v-.166c0-.115-.092-.217-.196-.217h-14.4c-.092 0-.184-.012-.264-.025-.012 0-.023-.013-.035-.013-.08-.026-.15-.038-.218-.077h-.012c-.39-.191-.678-.574-.758-1.06-.012-.05-.012-.114-.012-.178 0-.039-.011-.077-.011-.115v-2.12c-.012-.779.574-1.43 1.298-1.43z" fill="#FFD9AF"/><path d="M466.428 482.754v-2.133c0-.562.207-1.072.529-1.443h-20.7c-.907 0-1.666.74-1.815 1.699v1.839c0 1.136.827 2.056 1.85 2.056h21.618c-.85-.18-1.482-1.022-1.482-2.018z" fill="#ED985A"/></g><g fill-rule="nonzero"><path d="m246.7 456.98-.51-2.686h-.011c-.035-.517-.462-.884-1.16-1.148l-.19-1.022h-.012c-.118-1.504-3.848-1.607-8.631-1.619h-.995c-3.208 0-6.05 0-7.79.379-.036.012-.084.012-.119.023-1.006.23-1.61.585-1.705 1.148 0 .023-.012.046-.012.069h-.012l-.19 1.022c-.698.264-1.112.631-1.16 1.148h-.011l-.13.711-.38 1.986c0 .012-.011.023-.011.046a.853.853 0 0 0-.06.31c0 .402.237.712.652.965l-.012-.138h.024a.84.84 0 0 1 .059-.299c.012-.034.023-.057.035-.091.036-.07.071-.127.107-.184.024-.035.047-.057.07-.092.048-.057.107-.103.179-.16.011 0 .011-.012.023-.012.083-.069.19-.126.296-.184.012 0 .024-.011.036-.023h.012c.106-.057.225-.103.355-.149.023-.011.047-.023.07-.023.131-.046.273-.092.415-.126.036-.012.06-.012.083-.023.142-.035.308-.07.462-.104.035-.011.07-.011.106-.022.166-.035.344-.058.521-.08.036 0 .071-.012.095-.012h.012l.58-.07h.012c.036 0 .071-.01.118-.01.202-.024.415-.035.64-.058.035 0 .07 0 .106-.012.225-.011.462-.034.71-.045h.024c.415-.023.841-.035 1.291-.046h.036c.888-.023 1.835-.035 2.83-.035h3.196c.498 0 .971 0 1.445.012h.083c.959.011 1.858.034 2.687.069.06 0 .119.011.178.011l.497.034c.06 0 .119.012.178.012.035 0 .07.011.106.011.166.012.32.023.474.046.071.012.142.012.201.023a.11.11 0 0 1 .06.012c.153.011.307.034.461.057a11893.063 11893.063 0 0 1 .84.138c.131.023.273.057.392.092.059.011.106.034.165.046.119.034.237.069.344.103.047.011.083.034.13.057.107.046.213.08.296.127.035.011.06.034.083.046.095.057.19.103.26.16.296.23.462.517.462.861 0 .035-.012.08-.012.115.427-.252.675-.574.675-.976 0-.16-.024-.275-.059-.39z" fill="#DFF0FF"/><path d="M235.179 455.407h-2.368c-.178-.183-.284-.379-.284-.631 0-.115.023-.207.059-.31l.225-1.206c1.16-.574 3.434-.746 6.252-.803-1.208-.023-2.51-.023-3.884-.023h-2.214l.06-.333h.01c.096-1.205 2.487-1.515 5.886-1.584-1.149-.023-2.416-.023-3.742-.023-5.245 0-9.508 0-9.626 1.618h-.012l-.19 1.022c-.698.264-1.112.631-1.16 1.148h-.011l-.51 2.686c0 .012-.011.023-.011.046a.853.853 0 0 0-.06.31c0 .402.237.712.652.965l-.012-.138h.023a.84.84 0 0 1 .06-.299c.011-.034.023-.057.035-.091.036-.07.071-.127.107-.184.023-.035.047-.057.07-.092.048-.057.107-.103.178-.16.024-.024.06-.047.083-.07.095-.068.213-.126.332-.195.035-.011.07-.034.106-.046.095-.046.19-.08.308-.114.06-.023.13-.046.19-.058.094-.023.189-.057.296-.08.07-.023.154-.035.236-.058.107-.023.225-.046.332-.068.083-.012.166-.035.249-.046a8.8 8.8 0 0 1 .58-.08l.367-.035.308-.035.426-.034c.095-.012.19-.012.284-.023.154-.012.32-.023.486-.034h.094c.415-.023.84-.035 1.29-.046h.036c.888-.023 1.836-.035 2.83-.035h2.226c5.755 0 10.325.058 10.325 1.906 0 .034-.012.08-.012.115.427-.253.675-.574.675-.976 0-1.906-5.186-1.906-11.58-1.906z" fill="#B8DDFF"/><path d="M246.096 458.197c0-1.906-4.89-1.906-10.917-1.906-5.991 0-10.846 0-10.917 1.871h-.024l3.103 29.883c.082.781.757 1.378 1.562 1.378h12.491c.806 0 1.492-.597 1.563-1.378l3.055-29.48a.796.796 0 0 0 .083-.368z" fill="#EFF7FF"/><path d="M235.179 456.291c-5.991 0-10.846 0-10.917 1.871h-.024l3.103 29.883c.082.781.757 1.378 1.562 1.378h6.311l.865-28.586c.059-1.963 1.207-3.64 2.853-4.523-1.16-.023-2.427-.023-3.753-.023z" fill="#DFF0FF"/><path d="M239.395 465.625c-2.273-.218-4.322 1.733-4.582 4.34-.225 2.295 1.006 4.339 2.853 4.947l.32-5.28c.036-.666.628-1.171 1.314-1.137s1.208.609 1.16 1.274l-.307 5.052c1.515-.597 2.676-2.159 2.865-4.087.284-2.606-1.35-4.89-3.623-5.109z" fill="#009F70"/></g><g fill-rule="nonzero"><path d="M205.53 426.15c0-1.405-1.113-2.533-2.473-2.533h-6.44c-1.371 0-2.473 1.14-2.473 2.533v5.517c0 .023.012.034.012.057s-.012.046-.012.07c0 1.047 2.552 1.047 5.688 1.047 3.147 0 5.687 0 5.687-1.048 0-.023-.011-.046-.011-.069 0-.023.01-.034.01-.057v-5.517h.012z" fill="#0097B8"/><path d="M205.53 431.782c0-1.048-2.551-1.048-5.687-1.048-1.068 0-2.057 0-2.9.046v-4.63c0-1.405 1.113-2.533 2.473-2.533h-2.788c-1.37 0-2.472 1.14-2.472 2.533v5.517c0 .023.01.034.01.057s-.01.047-.01.07c0 .334.247.552.685.714.011 0 .034.011.056.011.529.173 1.304.253 2.237.3.157.011.326.011.495.011.685.012 1.427.012 2.214.012 3.147-.012 5.687-.012 5.687-1.06z" fill="#00547A"/><path d="m207.171 449.437-1.292-5.643a50.202 50.202 0 0 1-1.26-10.987.418.418 0 0 0 .023-.115v-.023c.304-.139.472-.323.472-.588 0-.967-2.349-.967-5.26-.967-2.9 0-5.26 0-5.26.967 0 .254.169.438.46.576a50.2 50.2 0 0 1-1.258 11.137l-1.292 5.643c-.843 3.674-1.26 6.22-1.26 9.985v26.131c0 2.66 2.103 4.814 4.699 4.814h7.811c2.597 0 4.698-2.153 4.698-4.814v-26.13c-.01-3.767-.438-6.312-1.28-9.986z" fill="#DB594B"/><path d="M208.441 481.591v-.518h-12.813v-20.431c0-3.766.427-7.52 1.259-11.194l1.292-5.643a50.395 50.395 0 0 0 1.26-10.7c0-.31.179-.598.46-.725.46-.219 1.248-.507 2.147-.53-.652-.023-1.405-.023-2.192-.023h-.304c.529-.69 2.9-.69.304-.69-2.9 0-5.26 0-5.26.967 0 .253.168.437.46.575 0 3.755-.426 7.486-1.258 11.137l-1.293 5.644a50.04 50.04 0 0 0-1.258 11.194V485.576c0 2.66 2.101 4.814 4.698 4.814h4.383c-2.596 0-4.698-2.154-4.698-4.814v-3.973h12.813v-.012z" fill="#AD330D"/></g><g fill-rule="nonzero"><g fill="#ACEDFB"><path d="M342.511 179.343a6.303 6.303 0 0 1-2.638-4.055c-.194.116-.4.196-.628.23a6.97 6.97 0 0 0 2.89 4.378 13.548 13.548 0 0 1 5.869 11.185c0 3.755-1.485 7.257-4.191 9.837-2.707 2.58-6.247 3.893-9.98 3.686-6.498-.357-12.425-6.427-12.665-12.993-.182-4.711 2.033-9.1 5.904-11.738a6.844 6.844 0 0 0 2.855-4.354 1.648 1.648 0 0 1-.628-.23 6.153 6.153 0 0 1-2.604 4.031 14.16 14.16 0 0 0-6.19 12.314c.264 7.015 6.361 13.258 13.293 13.638a18 18 0 0 0 .8.023c3.62 0 7.034-1.37 9.683-3.893a14.147 14.147 0 0 0 4.408-10.321 14.3 14.3 0 0 0-6.178-11.738z"/><path d="M332.291 190.136c.183 0 .331-.15.331-.334v-.23c.114.357.274.576.548.576.503 0 .617-.68.765-1.625.035-.184.069-.426.115-.633.045.219.08.46.114.633.16.945.262 1.625.765 1.625s.616-.68.765-1.625c.034-.184.068-.426.114-.645.046.22.08.461.114.645.16.945.263 1.625.765 1.625.183 0 .332-.15.332-.335v-14.249h-.663v11.807c-.114-.357-.274-.575-.548-.575-.502 0-.617.68-.765 1.624-.034.184-.068.426-.114.645-.046-.22-.08-.461-.114-.645-.16-.945-.263-1.624-.765-1.624-.503 0-.617.68-.766 1.624-.034.184-.068.426-.114.633-.045-.219-.08-.449-.114-.633-.114-.68-.205-1.221-.434-1.475v-11.38h-.662v14.248a.33.33 0 0 0 .331.323z"/></g><path d="M15.998 113.66V0h-1.496v113.55c-3.254.17-5.847 2.841-5.847 6.125v16.548c0 .977.8 1.772 1.782 1.772h8.781A1.78 1.78 0 0 0 21 136.222v-16.547c0-2.977-2.159-5.466-5.002-6.023z" fill="url(#b)" transform="translate(319.764 37.53)"/><path d="M17.905 114.38a6.191 6.191 0 0 0-3.083-.83c-.114 0-.217.012-.32.012V.012h-1.199v113.73a6.141 6.141 0 0 0-4.648 5.954v16.545c0 .978.8 1.773 1.782 1.773h6.178a1.78 1.78 0 0 1-1.782-1.773v-16.545c-.011-2.272 1.234-4.25 3.072-5.318z" fill="url(#c)" transform="translate(319.764 37.53)"/></g></g></svg>