<svg viewBox="0 0 668 818" xmlns="http://www.w3.org/2000/svg" xmlns:xlink="http://www.w3.org/1999/xlink"><defs><path id="o" d="M0 .008h39.926V38H0z"/><path id="a" d="M.349.401H436.97V161H.349z"/><path id="e" d="M0 0h436v140H0z"/><path id="g" d="M0 0h305v140H0z"/><path id="i" d="M0 .042h24.986v28.945H0z"/><path id="k" d="M.004.012h10.984V21H.004z"/><path id="m" d="M.004.012h10.989V21H.003z"/><path id="c" d="M0 .2h90.654v27.432H0z"/><path id="q" d="m0 .91 27 .265-.253 29.925H0z"/><path id="s" d="M0 .072h42.976v49.906H0z"/><path id="u" d="M.007.02h19.97V37H.007z"/><path id="w" d="M.007.02h19.98V37H.007z"/><path id="y" d="M0 .062h36.98v42.919H0z"/><path id="A" d="M.006.018H16.98V32H.006z"/><path id="C" d="M.006.018h16.983V32H.006z"/></defs><g fill="none" fill-rule="evenodd"><g transform="translate(216.996 493)"><mask id="b" fill="#fff"><use xlink:href="#a"/></mask><path d="m0 159.08 21.784-20.301a17.79 17.79 0 0 1 14.39-5.37l7.946.712a15.772 15.772 0 0 0 13.984-6.195l16.511-21.824a2.862 2.862 0 0 1 4.012-.556l2.657 2.011a2.977 2.977 0 0 0 4.224-.65l29.472-41.45c.415-.584.86-1.146 1.333-1.685l49.69-56.53c7.722-8.785 21.264-9.168 29.47-.834l13.366 13.578 16.551 18.492a4.372 4.372 0 0 0 5.566.8l4.053-2.518a9.356 9.356 0 0 1 11.677 1.457L281.844 74.7a22.999 22.999 0 0 0 12.37 6.657l42.23 7.828a18.469 18.469 0 0 1 9.814 5.223l34.23 34.872a12.742 12.742 0 0 0 10.98 3.678l1.909-.286a16.453 16.453 0 0 1 11.435 2.499l36.672 23.846-441.48.062z" fill="#06C18B" mask="url(#b)"/></g><path d="M276.309 627.89c3.75.656 7.368-1.701 8.272-5.39l.652-2.66a16.384 16.384 0 0 1 3.352-6.617l5.186-6.195a6.785 6.785 0 0 0 1.58-4.562l-.115-3.77a3.853 3.853 0 0 1 .76-2.409 2.94 2.94 0 0 0-3.59.849l-17.14 22.107a16.18 16.18 0 0 1-13.27 6.252l2.356.303 11.957 2.092z" fill="#00986C"/><g transform="translate(216.996 624)"><mask id="d" fill="#fff"><use xlink:href="#c"/></mask><path d="m83.255 22.714-16.077-1.76a4.824 4.824 0 0 1-3.472-2.102 12.297 12.297 0 0 0-7.686-5.168l-17.46-3.63c-3.528-.733-5.034-4.97-2.768-7.792A4.767 4.767 0 0 1 38.684.554L36.03.287a17.695 17.695 0 0 0-14.417 5.249L0 27.632l90.654-.102-1.343-1.588a9.247 9.247 0 0 0-6.055-3.228" fill="#00986C" mask="url(#d)"/></g><path d="M329.69 587.708a18.526 18.526 0 0 0 12.251-8.492l10.423-16.95a13.35 13.35 0 0 1 12.595-6.314l9.177.845c2.153.199 3.88-1.76 3.422-3.881l-2.228-10.328a28.364 28.364 0 0 1 1.847-17.592l5.29-11.788a16.981 16.981 0 0 1 1.758-3.033L395.993 494a20.055 20.055 0 0 0-11.635 6.44l-50.337 56.282a21.04 21.04 0 0 0-1.353 1.679L303.993 598l8.425-5.184a26.892 26.892 0 0 1 8.975-3.498l8.297-1.61zM577.08 646.99l-4.966-.498a15.41 15.41 0 0 1-9.018-4.093l-7.508-7.058a12.383 12.383 0 0 0-8.03-3.339l-7.46-.272c-8.539-.31-16.32-4.9-20.619-12.16l-5.7-9.627a12.221 12.221 0 0 0-4.043-4.133l-28.254-17.662c-.77-.481-1.726.255-1.437 1.105l5.718 16.796a16.973 16.973 0 0 1-.38 11.954l-1.423 3.449c-1.443 3.5.267 7.488 3.825 8.914l26.786 10.739a22.056 22.056 0 0 1 8.687 6.28l3.871 4.61 57.862-.063c-1.695-2.774-4.622-4.613-7.911-4.943M435.88 628.21l-9.56-2.802a38.684 38.684 0 0 1-18.186-11.608l-3.965-4.515a38.983 38.983 0 0 1-8.932-18.11l-1.03-5.179a9.776 9.776 0 0 0-5.593-7.022l-5.422-2.423a6.355 6.355 0 0 0-7.65 1.958l-18.997 24.92a9.813 9.813 0 0 0-2.003 5.645l-.27 8.658c-.269 8.66-5.718 16.299-13.793 19.336l-4.344 1.633a20.923 20.923 0 0 0-9.283 6.918l-4.855 6.38 141-.156-.22-.47c-5.237-11.247-15.036-19.685-26.897-23.162M608.14 628.42c-1.526.213-3.055.14-4.519-.19l-2.486.688c-2.957.818-4.142 4.383-2.266 6.817a3.751 3.751 0 0 1 .371 3.989L593 651.999l20.069-.023c1.055-1.468 1.217-3.558-.047-5.231a7.757 7.757 0 0 1-1.057-7.437l1.607-4.215a9.702 9.702 0 0 1 3.138-4.226l.513-.396c.506-.39.746-.913.778-1.438a16.296 16.296 0 0 0-7.965-.878l-1.896.265zM437.18 554.389l1.007.292c5.208 1.51 9.526 5.13 11.887 9.964l5.535 11.333 3.88 8.446c.418.907 1.778.692 1.888-.298l1.518-13.65a16.264 16.264 0 0 0-1.077-7.868l-5.076-12.622a13.538 13.538 0 0 1-.85-6.927l.75-5.378a9.8 9.8 0 0 1 2.959-5.747l1.046-.995a1.872 1.872 0 0 0 .576-1.571 9.545 9.545 0 0 0-7.533.986l-4.124 2.476a4.46 4.46 0 0 1-5.62-.854l-2.061-2.322-2.271.35c-2.324.357-3.776 2.684-3.058 4.9l1.374 4.235a7.86 7.86 0 0 1-.259 5.537l-2.432 5.65c-.713 1.656.194 3.557 1.94 4.063" fill="#00986C"/><path d="M464.99 531.061c-3.034-3.176-8.77-3.804-11.648-1.9l-4.796 2.854c-1.918.952-3.465.674-4.866-.905l-16.377-18.457-13.24-13.564c-8.127-8.327-21.681-8.08-29.494.535l-40.574 44.739c.226.357.565.652 1.002.818a2.896 2.896 0 0 0 2.63-.292l14.567-9.678a5.031 5.031 0 0 1 5.827.19l5.092 3.886c1.392 1.062 3.42.581 4.174-.99l2.8-5.837a1.004 1.004 0 0 1 1.687-.19l1.512 1.893c.699.873 2.084.704 2.546-.312l4.295-9.436c.563-1.239 2.38-1.107 2.756.199l3.097 10.761a1.114 1.114 0 0 0 1.752.565l6.632-5.145a2.44 2.44 0 0 1 2.85-.098l3.435 2.301a3.077 3.077 0 0 0 4.318-.918l3.28-5.256a3.404 3.404 0 0 1 4.495-1.183l20.586 11.085a7.849 7.849 0 0 1 3.415 3.627l2.593 5.635c.36.781 1.502.71 1.76-.11l.891-2.84c.23-.73.912-1.227 1.684-1.227h1.15c1.128 0 2.204.466 2.97 1.285l.129.137a1.556 1.556 0 0 0 2.52-.355l2.076-4.113a1.191 1.191 0 0 1 1.96-.24l1.302 1.505c.391.452 1.136.264 1.26-.318l.225-1.05a.694.694 0 0 1 1.171-.337l11.652 11.818a5.871 5.871 0 0 0 3.549 1.71l1.36.147-20.005-20.938z" fill="#B8DDFF"/><path d="M344 543.993c.225.357.563.652.998.818a2.88 2.88 0 0 0 2.62-.293l14.514-9.66a5.004 5.004 0 0 1 5.805.189l5.072 3.88a2.745 2.745 0 0 0 2.176.517 27.591 27.591 0 0 1 2.092-15.966l5.263-11.591a16.626 16.626 0 0 1 1.75-2.982L396 493a20.022 20.022 0 0 0-11.578 6.332L344 543.992z" fill="#00986C" fill-opacity=".696"/><path d="m453.3 529.101-2.885 1.948c-3.846 2.923-5.385 1.639-6.81.048l-2.073-2.317-2.283.35c-1.936.295-3.266 1.938-3.257 3.75l6.731 4.99c1.53.816 2.163 1.366 2.885 2.922l3.846 5.845c.365.787 1.428.164 1.689-.661l.907-2.862c.233-.735.465-.374 1.25-.374h1.923c.244 0 .19-.837.426-.796l.725-5.154a9.749 9.749 0 0 1 2.975-5.735l1.052-.993c.46-.434.64-1.015.58-1.568-2.489-.703-5.341-.785-7.681.607z" fill="#00986C" fill-opacity=".48"/><g transform="translate(13 512)"><mask id="f" fill="#fff"><use xlink:href="#e"/></mask><path d="m0 140 6.48-7.351c5.479-6.216 11.229-11.49 17.184-15.76l77.629-55.658c6.456-4.63 13.558-4.601 20.005.08l6.431 4.669c5.683 4.125 12.008 3.308 17.357-2.243l53.048-55.049c11.128-11.548 24.498-11.586 35.644-.103l80.361 82.796c6.56 6.758 14.238 8.179 21.34 3.948l1.737-1.035c7.776-4.632 16.07-4.907 23.923-.794l47.263 24.753c6.42 3.362 12.667 7.86 18.661 13.435L436 140H0z" fill="#06C18B" mask="url(#f)"/><mask id="h" fill="#fff"><use xlink:href="#g"/></mask><path d="m305 140-13.448-19.29c-7.05-10.112-15.166-17.094-23.771-20.447l-25.423-9.906c-8.805-3.431-16.797-12.287-22.779-25.24l-5.342-11.568c-3.447-7.462-4.43-18.037-2.545-27.352l2.536-12.528c.92-4.548 1.077-9.266.61-13.67-5.626.455-11.212 3.324-16.325 8.622l-53.15 55.077c-2.834 2.939-5.943 4.537-9.085 4.793.644 1.75 1.445 3.33 2.415 4.625l3.333 4.443c1.01 1.347.737 4.366-.45 4.968l-14.053 7.115c-3.082 1.56-6.28 2.086-9.456 1.552l-5.15-.866c-5.644-.948-11.3 1.535-16.178 7.104l-5.795 6.617c-4.269 4.875-9.29 6.682-14.18 5.107l-5.952-1.918c-4.44-1.43-6.159-12.004-2.94-18.088l3.313-6.264-47.475 33.991c-5.967 4.272-11.728 9.548-17.217 15.767L0 140h305z" fill="#00986C" mask="url(#h)"/><path d="M320.25 101.14c1.869 2.942 2.759 7.656 2.317 12.268-.292 3.05.36 6.152 1.664 7.919l6.649 9.004c.879 1.19 2.085.75 2.686-.978l3.262-9.385c1.588-4.566 3.857-8.062 6.497-10.012l4.38-3.234c2.979-2.2 4.205-9.15 2.552-14.476-.317-1.02-.349-2.182-.166-3.19-4.24 0-8.476 1.221-12.569 3.684l-1.723 1.038c-7.045 4.24-14.664 2.815-21.17-3.958L309.997 85l10.252 16.141z" fill="#00986C"/></g><g><g transform="translate(498.004 613.997)"><mask id="j" fill="#fff"><use xlink:href="#i"/></mask><path d="m3.427 25.813 1.5.856A17.565 17.565 0 0 0 8.8 28.301a17.806 17.806 0 0 0 10.735-.297l1.057-.367a5.821 5.821 0 0 0 3.5-3.336l.48-1.203a5.777 5.777 0 0 0-.237-4.809l-1.966-3.787a19.893 19.893 0 0 1-1.976-5.954l-.05-.308a12.542 12.542 0 0 0-2.207-5.312l-.366-.508A5.736 5.736 0 0 0 13.768.08a5.734 5.734 0 0 0-6.13 3.978C7.02 6.043 6.35 8.19 5.977 9.385a3.192 3.192 0 0 1-1.067 1.55L3.35 12.17a8.727 8.727 0 0 0-3.314 6.565l-.031.977a6.778 6.778 0 0 0 3.423 6.101" fill="#64CC75" mask="url(#j)"/></g><path d="m515.122 638.421-1.25.052a10.512 10.512 0 0 1-4.69-.89l-.993-.439c-2.631-1.164-3.328-4.547-1.368-6.641l.129-.138a1.969 1.969 0 0 0-.192-2.865 2.527 2.527 0 0 1-.338-3.546l1.115-1.363a4.005 4.005 0 0 0 .776-3.562l-.25-.945a2.315 2.315 0 0 1 1.024-2.56l.037-.022c.266-.165.457-.398.568-.658.209-.49-.278-.994-.781-.807a5.598 5.598 0 0 0-3.406 3.574c-.607 1.942-1.266 4.043-1.632 5.211a3.12 3.12 0 0 1-1.047 1.516l-1.533 1.209a8.564 8.564 0 0 0-2.205 2.601c-.205.373.308.72.583.396a3.081 3.081 0 0 1 4.315-.367l.509.425a.76.76 0 0 1 .273.603v.043a.554.554 0 0 1-.498.535l-1.735.187a2.851 2.851 0 0 0-1.867.986l-.168.197a3.104 3.104 0 0 1-1.864 1.051.752.752 0 0 0-.626.72 6.625 6.625 0 0 0 3.36 5.968l1.473.837a17.278 17.278 0 0 0 3.803 1.596c3.297.94 6.796.891 10.06-.133l.03-.05c.756-1.22-.17-2.781-1.612-2.721" fill="#00B882"/><path d="M518.764 634.219c-1.343-.455-2.346-1.57-2.542-2.939a1.296 1.296 0 0 1 .037-.545c.026-.09-.057-.175-.156-.163l-.012.002c-.736.096-1.456-.255-1.81-.86l-.141-.24a1.002 1.002 0 0 0-.976-.47c-.73.083-1.245.702-1.148 1.376.182 1.271 1.16 2.292 2.443 2.638.267.072.49.244.622.471.59 1.019 1.8 1.626 3.073 1.489l.125-.013c.177-.02.345-.06.5-.12.308-.117.297-.52-.015-.626" fill="#00B882"/><g transform="translate(504.004 630.997)"><mask id="l" fill="#fff"><use xlink:href="#k"/></mask><path d="M10.773 7.38a.152.152 0 0 0-.074.085l-1.277 3.55a.802.802 0 0 1-.417.46l-1.858.855a.27.27 0 0 1-.38-.221l-.456-3.723a.53.53 0 0 1 .238-.512l1.55-.978a.607.607 0 0 0 .259-.35l1.069-3.818a.104.104 0 0 0-.065-.126.099.099 0 0 0-.124.063l-1.223 3.57a.603.603 0 0 1-.293.342l-1.307.672c-.083.043-.181-.022-.178-.118l.014-.512.032-.854c.01-.284.025-.568.037-.853l.04-.847.49-3.802c.02-.151-.11-.277-.254-.247a.218.218 0 0 0-.17.182l-.6 3.8-.001.004-.002.016-.06.617-1.255-.606a.358.358 0 0 1-.192-.246l-.553-2.489a.1.1 0 0 0-.117-.079.104.104 0 0 0-.081.117l.388 2.813a.219.219 0 0 0 .1.156l1.641 1.035a40.9 40.9 0 0 1-.04.38l-.091.85c-.022.186-.056.498-.077.687a2.21 2.21 0 0 0-.01.321l.127 3.357c.005.128-.126.212-.235.15L2.573 9.505a.988.988 0 0 1-.435-.509L.335 4.29a.17.17 0 0 0-.217-.102.179.179 0 0 0-.106.22l1.541 5.096a.995.995 0 0 0 .396.54l3.379 2.265c.21.142.342.38.352.64l.079 2.077c.008.204-.003.41-.033.612L4.945 21h2.244l-.026-5.469c0-.131-.008-.263-.024-.393l-.12-.972a.808.808 0 0 1 .382-.794l2.236-1.33a.81.81 0 0 0 .366-.491l.98-3.994c.03-.128-.096-.234-.21-.177" fill="#009F70" mask="url(#l)"/></g><g transform="translate(504.004 630.997)"><mask id="n" fill="#fff"><use xlink:href="#m"/></mask><path d="m6.654 15.174-.158-1.088a.52.52 0 0 1 .248-.524l2.59-1.52a.81.81 0 0 0 .37-.491s1.03-3.158 1.289-4.186a.146.146 0 0 0-.083.015.153.153 0 0 0-.075.085l-1.293 3.55a.806.806 0 0 1-.422.46l-1.883.855a.27.27 0 0 1-.303-.056l-.122.056a.274.274 0 0 1-.385-.221l-.462-3.723a.527.527 0 0 1 .241-.512L8.015 6.75a.396.396 0 0 0 .167-.214l1.285-3.939a.1.1 0 0 0-.112.067l-1.238 3.57a.605.605 0 0 1-.297.342l-1.323.672a.126.126 0 0 1-.181-.118v-.007l-.245.125a.125.125 0 0 1-.181-.118l.015-.512.032-.854c.01-.284.025-.568.037-.853l.042-.847.75-4.049a.21.21 0 0 0-.087 0 .22.22 0 0 0-.17.181l-.61 3.801v.004l-.002.016-.06.617-.407-.194-.019.194-1.11-.574a.371.371 0 0 1-.195-.279L3.743 1.22a.1.1 0 0 0-.05-.004.104.104 0 0 0-.083.117l.393 2.813a.219.219 0 0 0 .1.156l1.663 1.035-.04.38-.092.85c-.023.186-.057.498-.078.687a2.188 2.188 0 0 0-.011.321l.13 3.357a.161.161 0 0 1-.238.15l-.193-.106a.16.16 0 0 1-.233.107L2.065 9.439a.588.588 0 0 1-.27-.323L.107 4.194a.178.178 0 0 0-.094.214l1.561 5.096c.068.222.21.413.401.54l3.422 2.265c.213.142.346.38.356.64l.08 2.076c.008.205-.003.41-.033.613L5.008 21h1.205l.452-5.506a1.42 1.42 0 0 0-.01-.32" fill="#005639" mask="url(#n)"/></g></g><g><path fill="#0068C9" d="M239.002 610h55v-35h-55z"/><path fill="#1C417D" d="M402 652v-33zM304.002 652H377v-33h-72.998z"/><path fill="#0080F6" d="M377 652h18v-33h-18z"/><path fill="#B8DDFF" d="M295.002 610v42h7.997v-32.66H394V652h8v-42z"/><path fill="#3CA1FF" d="M295.002 610H394v-35h-98.998z"/><path d="M369.42 609.29h23.872v-10.607H369.42v10.607zm-24.69 0h23.983v-10.607H344.73v10.607zm-24.689 0h23.983v-10.607h-23.983v10.607zm-24.337 0h23.63v-10.607h-23.63v10.607zm0-22.98h23.63v-10.607h-23.63v10.607zm73.715 11.666h23.872v-10.96H369.42v10.96zm-24.69 0h23.983v-10.96H344.73v10.96zm0-11.666h23.983v-10.607H344.73v10.607zm-24.69 0h23.983v-10.607H320.04v10.607zm-24.336 11.667h23.63v-10.96h-23.63v10.96zm24.337 0h23.983v-10.96H320.04v10.96zm49.38-11.666h23.871v-10.607H369.42v10.607zm24.577-11.313h-99v35H393.997v-35z" fill="#B8DDFF"/><path d="M280.571 598.05h12.869v-11.11h-12.869v11.11zm0 11.388h12.869v-10.831h-12.869v10.831zm-13.712 0h13.15v-10.831h-13.15v10.831zm-13.712 0h13.15v-10.831h-13.15v10.831zm-13.582 0h13.02v-10.831h-13.02v10.831zm0-23.055h13.02v-10.831h-13.02v10.831zm27.295 0h13.15v-10.831h-13.15v10.831zm0 11.666h13.15v-11.11h-13.15v11.11zm-13.712-11.666h13.15v-10.831h-13.15v10.831zm-13.582 11.667h13.02v-11.11h-13.02v11.11zm13.582 0h13.15v-11.11h-13.15v11.11zm27.424-11.666h12.869v-10.831h-12.869v10.83zm13.431.556V574.996h-55v35H294.002V586.94zM232.002 652h62v-42h-62z" fill="#3CA1FF"/><path fill="#1C417D" d="M237.033 621h-1.031 13v-5h-11.97z"/><path fill="#0068C9" d="M236.002 616h-1v5h1z"/><path fill="#1C417D" d="M254.076 621h-1.074 10v-5h-8.926z"/><path fill="#0068C9" d="M253.002 616h-1v5h1z"/><path fill="#1C417D" d="M266.076 621h-1.074 10v-5h-8.926z"/><path fill="#0068C9" d="M265.002 616h-1v5h1z"/><path fill="#1C417D" d="M279.033 616v5h-1.031 13v-5z"/><path fill="#0068C9" d="M279.002 616h-1v5h1z"/><path fill="#1C417D" d="M237.033 627h-1.031 13v-5h-11.97z"/><path fill="#0068C9" d="M236.002 622h-1v5h1z"/><path fill="#1C417D" d="M254.076 627h-1.074 10v-5h-8.926z"/><path fill="#0068C9" d="M253.002 622h-1v5h1z"/><path fill="#1C417D" d="M266.076 627h-1.074 10v-5h-8.926z"/><path fill="#0068C9" d="M265.002 622h-1v5h1z"/><path fill="#1C417D" d="M279.033 627h-1.031 13v-5h-11.969z"/><path fill="#0068C9" d="M279.002 622h-1v5h1z"/><path fill="#1C417D" d="M237.033 636h-1.031 13v-5h-11.97z"/><path fill="#0068C9" d="M236.002 631h-1v5h1z"/><path fill="#1C417D" d="M254.076 636h-1.074 10v-5h-8.926z"/><path fill="#0068C9" d="M253.002 631h-1v5h1z"/><path fill="#1C417D" d="M266.076 636h-1.074 10v-5h-8.926z"/><path fill="#0068C9" d="M265.002 631h-1v5h1z"/><path fill="#1C417D" d="M279.033 636h-1.031 13v-5h-11.969z"/><path fill="#0068C9" d="M279.002 631h-1v5h1z"/><path fill="#1C417D" d="M237.033 644h-1.031 13v-5h-11.97z"/><path fill="#0068C9" d="M236.002 639h-1v5h1z"/><path fill="#1C417D" d="M254.076 644h-1.074 10v-5h-8.926z"/><path fill="#0068C9" d="M253.002 639h-1v5h1z"/><path fill="#1C417D" d="M266.076 644h-1.074 10v-5h-8.926z"/><path fill="#0068C9" d="M265.002 639h-1v5h1z"/><path fill="#1C417D" d="M279.033 644h-1.031 13v-5h-11.969z"/><path fill="#0068C9" d="M279.002 639h-1v5h1z"/><path fill="#3CA1FF" d="M304.002 652H377v-16h-72.998z"/><path fill="#FAD1C5" d="M329.002 651H334v-11h-4.998zM335 651h5v-11h-5zM342 651h5v-11h-5zM348 651h5v-11h-5zM303.002 651h7v-6h-7zM312.002 651h7v-6h-7zM303.002 645h7v-6h-7zM312.002 645h7v-6h-7zM361 651h7v-6h-7zM369 651h7v-6h-7zM361 645h7v-6h-7zM369 645h7v-6h-7z"/><path fill="#1C417D" d="M328.958 652h.087v-13h-.087zM333.96 651h.09v-11h-.09zM339.96 651h.09v-11h-.09zM340.96 652h.09v-13h-.09zM346.96 651h.09v-11h-.09zM351.96 651h.09v-11h-.09zM309.974 651h.055v-6h-.055zM317.974 651h.055v-6h-.055zM302.974 639v13h.055v-13zM309.974 645h.055v-6h-.055zM310.974 639v13h.055v-13zM317.974 645h.055v-6h-.055zM366.97 651h.06v-6h-.06zM374.97 651h.06v-6h-.06zM359.97 639v13h.06v-13zM366.97 645h.06v-6h-.06zM367.97 639v13h.06v-13zM374.97 645h.06v-6h-.06z"/><path d="M340.7 639h-11.699v13H341v-13h-.3zm-5.248 1.163h4.646v10.673h-4.646v-10.673zm-5.55 0h4.647v10.673h-4.646v-10.673zM352.7 639H341v13H353v-13h-.3zm-5.248 1.163h4.646v10.673h-4.646v-10.673zm-5.55 0h4.647v10.673h-4.646v-10.673zM310.801 639H303.001v13h8v-13h-.2zm-7.199.582H310.4v5.336H303.603v-5.336zm0 6.5H310.4v5.336H303.603v-5.336zM318.801 639H311.001v13h8v-13h-.2zm-7.199.582h6.798v5.336h-6.798v-5.336zm0 6.5h6.798v5.336h-6.798v-5.336zM367.8 639H360v13h8v-13h-.2zm-7.199.582H367.399v5.336H360.602v-5.336zm0 6.5H367.399v5.336H360.602v-5.336zM376.8 639H369v13h8v-13h-.2zm-7.198.582H376.399v5.336H369.602v-5.336zm0 6.5H376.399v5.336H369.602v-5.336z" fill="#0068C9"/><path d="M297.002 496h15-15zM312.002 259h-60l60 237z" fill="#1C417D"/><path fill="#0080F6" d="m312.002 496-60-237 44.578 237z"/><path fill="#1C417D" d="m297.002 495.68-45-236.68v316h45z"/><path fill="#0068C9" d="M312.726 259v236.68h-15.724V575H349V275.7z"/><path fill="#0080F6" d="m273.76 163-21.758 96h60l-37.691-96zM349 276v299h22V276z"/><path fill="#B8DDFF" d="m283.002 163 64.958 113H370l-47.463-113z"/><path fill="#1C417D" d="M252.002 259v316h45v-79.67z"/><path fill="#B8DDFF" d="M371 275.7V575h7V259z"/><path fill="#DFF0FF" d="m323.002 163 48.558 113 6.44-16.739L327.616 163z"/><path fill="#3CA1FF" d="m275.002 163 38.048 96.261L349 276l-65.423-113z"/><path fill="#0068C9" d="M252.002 563h45v-1h-45zM252.002 546h45v-1h-45zM252.002 529h45v-1h-45zM252.002 512h45v-1h-45zM311.957 495l.086 1h.003v-1zM297.002 496v-.26l-.168-.74h-44.832v1zM307.002 478l.329 1h4.671v-1zM294.002 479l-.228-1h-41.772v1zM290.002 462l-.223-1h-37.777v1zM303.002 461l.306 1h8.694v-1zM287.002 446l-.224-1h-34.776v1zM299.002 445l.298 1h12.702v-1zM294.002 428l.312 1h17.688v-1zM284.002 429l-.226-1h-31.774v1zM282.002 411l-.235-1h-29.765v1zM290.002 410l.306 1h21.694v-1zM286.002 394l.301 1h25.699v-1zM278.002 395l-.229-1h-25.771v1zM281.002 377l.309 1h30.691v-1zM274.002 378l-.221-1h-21.779v1zM271.002 361l-.223-1h-18.777v1zM277.002 360l.305 1h34.695v-1zM268.002 344l-.225-1h-15.775v1zM273.002 343l.303 1h38.697v-1zM268.002 326l.308 1h43.692v-1zM265.002 327l-.228-1h-12.772v1zM264.002 309l.306 1h47.694v-1zM262.002 310l-.233-1h-9.767v1zM259.002 292l.309 1h52.691v-1zM259.002 293l-.244-1h-6.756v1zM252.002 275v1h4l-.274-1z"/><path fill="#0068C9" d="m255.002 275 .307 1h56.693v-1zM252.141 260h59.861v-1h-60zM251.987 260h.029l-.029-1z"/><path fill="#EFF7FF" d="M371 563h7v-1h-7zM371 546h7v-1h-7zM371 529h7v-1h-7zM371 512h7v-1h-7zM371 496h7v-1h-7zM371 479h7v-1h-7zM371 462h7v-1h-7zM371 446h7v-1h-7zM371 429h7v-1h-7zM371 411h7v-1h-7zM371 395h7v-1h-7zM371 378h7v-1h-7zM371 361h7v-1h-7zM371 344h7v-1h-7zM371 327h7v-1h-7zM371 310h7v-1h-7zM371 293h7v-1h-7zM370 275l.22.4v.6H377v-1zM363.48 259H376v-.462l-.31-.538H363zM356 242l.49 1H368l-.59-1zM348 224l.51 1H359l-.62-1zM342 207l.49 1H351l-.59-1zM334 192l.52 1H342l-.63-1zM326.002 174l.571 1H333l-.69-1z"/><path fill="#3CA1FF" d="m257.002 292 .275 1h2.725l-.37-1zM254.002 275l.331 1h1.669l-.446-1zM269.002 327l-.326-1h-4.674l.241 1zM313.002 260l-1-1v1zM290.002 411l-.299-1h-9.701l.222 1zM252.011 260h.011l-.04-1zM261.002 309l.253 1h3.747l-.341-1zM282.002 378l-.305-1h-7.695l.226 1zM286.002 395l-.301-1h-8.699l.224 1zM274.002 344l-.369-1h-6.631l.274 1zM278.002 361l-.31-1h-6.69l.23 1zM311.75 258h-59.603l-.145 1h60zM319.699 225H350l-.51-1h-30.488zM309.686 208H342l-.5-1h-32.498zM299.674 193H334l-.49-1h-34.508zM305.525 242h-50.248l-.275 1h51zM328.691 243H356l-.5-1h-27.498zM338.71 259H364l-.51-1H338zM327.002 175l-.497-1h-37.503l.679 1zM292.52 207h-29.24l-.278 1h30zM299.529 224h-39.254l-.273 1h40zM278.545 174h-7.279l-.264 1h8zM285.525 192h-18.248l-.275 1h19zM297.002 546H371v-1h-73.998zM312.002 378H370v-1h-57.998zM312.002 395H370v-1h-57.998zM312.002 361H370v-1h-57.998zM312.002 411H370v-1h-57.998zM312.002 429H370v-1h-57.998zM312.002 327H370v-1h-57.998zM312.002 293H370v-1h-57.998zM312.002 344H370v-1h-57.998zM295.002 429l-.324-1h-11.676l.24 1zM312.002 446H370v-1h-57.998zM312.002 310H370v-1h-57.998zM369.8 275h-22.22l.28.4-1.02-.4h-34.838v1H370v-.6zM296.172 496h15.83l-.31-1h-15.69l.17.74zM307.002 479l-.292-1h-13.708l.217 1zM300.002 446l-.295-1h-11.705l.218 1zM297.002 563H371v-1h-73.998zM303.002 462l-.293-1h-12.707l.217 1zM312.002 496H370v-1h-57.998zM312.002 479H370v-1h-57.998zM312.002 462H370v-1h-57.998zM297.002 512H371v-1h-73.998zM297.002 529H371v-1h-73.998z"/><path fill="#0068C9" d="m348 276-.27-1H347zM312.002 258l.255.538 1.19.462H339l-.69-1zM305.002 242l.477 1h23.523l-.699-1zM299.002 224l.457 1h19.543l-.67-1zM291.002 207l.484 1h17.516l-.71-1zM286.002 192l.458 1h13.542l-.672-1zM278.002 174l.5 1h11.5l-.734-1z"/><path d="M358.5 636.26h17.793v-8.589H358.5v8.589zm-18.323 0h17.613v-8.589h-17.613v8.589zm-18.323 0h17.613v-8.589h-17.613v8.589zm55.147-17.264h-.709v7.938h-17.793v-7.938h-.71v7.938h-17.612v-7.938h-.71v7.938h-17.612v-7.938h-.71v7.938h-17.144v.737h17.144v8.589h-17.144v.736h73v-18z" fill="#0080F6"/></g><g><g transform="translate(160.996 593.997)"><mask id="p" fill="#fff"><use xlink:href="#o"/></mask><path d="m15.701 36.537.426-.259a10.031 10.031 0 0 1 6.21-1.413l4.029.403c3.82.382 7.527-1.456 9.572-4.746l2.43-3.912a10.372 10.372 0 0 0 .5-10.029l-3.073-6.266c-1.494-3.046-4.381-5.144-7.71-5.603l-1.207-.167a10.067 10.067 0 0 1-4.993-2.182l-.098-.08a10.033 10.033 0 0 0-11.505-.857l-1.112.662a10.274 10.274 0 0 0-4.954 7.945l-.449 5.176a10.35 10.35 0 0 1-1.378 4.336l-.971 1.659a10.373 10.373 0 0 0-1.056 7.95l.353 1.302a10.234 10.234 0 0 0 5.17 6.425 10.025 10.025 0 0 0 9.816-.344" fill="#FFD9AF" mask="url(#p)"/></g><path d="M174.967 611.013c.343.381.838.594 1.354.583l1.205-.026a15.57 15.57 0 0 1 7.648 1.818l.81.43c.423.225.86-.27.578-.654l-.623-.848a8.477 8.477 0 0 0-3.46-2.754l-1.258-.545c-.96-.416-1.97-.713-3.005-.883l-.908-.15a2.846 2.846 0 0 0-1.962.39 1.734 1.734 0 0 0-.379 2.639zm21.215 14.868a10.235 10.235 0 0 1-8.697 3.434l-4.048-.395a10.267 10.267 0 0 0-6.239 1.387l-.427.254a10.274 10.274 0 0 1-9.862.337 10.098 10.098 0 0 1-5.194-6.308l-.355-1.278a9.985 9.985 0 0 1 1.06-7.807l.976-1.63a10.001 10.001 0 0 0 1.385-4.257l.451-5.082a10.008 10.008 0 0 1 1.974-5.133c.55-.732 1.72-.418 1.822.49a8.63 8.63 0 0 0 .886 2.945l.64 1.256a6.58 6.58 0 0 1-.079 6.125l-.932 1.721a5.703 5.703 0 0 0-.541 4.01c.546 2.347 3.144 3.596 5.357 2.595l2.012-.91a8.866 8.866 0 0 1 9.197 1.157l.549.44a6.884 6.884 0 0 0 7.027.95c1.764-.76 3.751.46 3.845 2.363a6.084 6.084 0 0 1-.807 3.336z" fill="#E99462"/><path d="m186.502 627.177-2.176 4.21a.815.815 0 0 1-.38.366l-3.063 1.426a.315.315 0 0 1-.446-.274l-.21-4.232a.703.703 0 0 1 .285-.602l1.819-1.336a.64.64 0 0 0 .257-.456l.313-3.339a.19.19 0 0 0-.163-.207l-.046-.006a.188.188 0 0 0-.21.157l-.558 3.02a.54.54 0 0 1-.322.401l-1.2.5a.193.193 0 0 1-.266-.166l-.044-.605a1.77 1.77 0 0 0-.173-.647l-2.099-4.313a.135.135 0 0 0-.194-.055.139.139 0 0 0-.056.158l1.458 4.595c.06.192.087.393.077.595l-.228 4.503a.415.415 0 0 1-.6.355l-2.326-1.18a1.155 1.155 0 0 1-.53-.56l-1.968-4.394a.184.184 0 0 0-.238-.097l-.102.042a.189.189 0 0 0-.107.232l1.672 5.254c.042.132.13.244.249.314l3.323 1.966a.996.996 0 0 1 .484.908l-.672 13.303a20.93 20.93 0 0 1-.107 1.307l-.417 3.677h4.125l-.417-3.669c-.05-.44-.085-.881-.107-1.323l-.552-11.1a1.38 1.38 0 0 1 .685-1.265l3.431-1.972a1.14 1.14 0 0 0 .496-.583l1.786-4.686a.18.18 0 0 0-.091-.227l-.163-.075a.175.175 0 0 0-.229.08" fill="#CE643A"/><path d="M186.986 627.097a.18.18 0 0 0-.233.08l-2.217 4.21a.822.822 0 0 1-.351.346 2.03 2.03 0 0 1-.912.88l-2.298 1.105a.738.738 0 0 1-1.06-.666l.02-3.571a.72.72 0 0 1 .218-.513l.213-.206-.005-.09a.699.699 0 0 1 .29-.601l1.508-1.087a1.37 1.37 0 0 0 .227-.586l.501-3.67-.015-.002a.191.191 0 0 0-.214.157l-.568 3.02a.542.542 0 0 1-.328.402l-.127.052a.83.83 0 0 1-.465.48l-1.272.52a.235.235 0 0 1-.324-.2l-.04-.552a2.851 2.851 0 0 0-.13-.664l-1.59-4.94a.137.137 0 0 0-.16.175l1.486 4.595c.062.192.088.394.078.595l-.232 4.504a.423.423 0 0 1-.61.355l-.068-.034-.018.35a.357.357 0 0 1-.516.3l-2.253-1.121a1.546 1.546 0 0 1-.778-.898l-1.59-4.802-.039.016a.188.188 0 0 0-.109.232l1.704 5.254a.564.564 0 0 0 .253.314l3.385 1.966a.991.991 0 0 1 .493.908l-.684 13.304c-.023.436-.06.872-.11 1.306l-.425 3.678h2.971l-.363-3.14a19.21 19.21 0 0 1-.102-1.236l-.124-10.96c-.006-.489.246-.945.664-1.203l.14-.087c.11-.304.326-.567.62-.732l3.181-1.795c.089-.124.163-.259.221-.401l2.167-5.342-.01-.005z" fill="#AD330D"/></g><g><g transform="translate(435.998 608.001)"><mask id="r" fill="#fff"><use xlink:href="#q"/></mask><path d="M10.803 29.955a6.757 6.757 0 0 1 4.16-.94l2.7.268a6.776 6.776 0 0 0 6.411-3.158l1.63-2.602a6.86 6.86 0 0 0 .334-6.673l-2.033-6.243c-1.001-2.026-4.597-8.727-9.042-8.727-2.964 0-5.904 1.776-8.82 5.327a6.83 6.83 0 0 0-3.32 5.286l-.3 3.444a6.853 6.853 0 0 1-.923 2.885l-.65 1.103a6.86 6.86 0 0 0-.708 5.29l.236.866a6.819 6.819 0 0 0 3.464 4.275 6.756 6.756 0 0 0 6.576-.229l.285-.172z" fill="#FFD9AF" mask="url(#r)"/></g><path d="M447.865 624.847c.229.251.559.392.903.385l.803-.018a10.47 10.47 0 0 1 5.099 1.2l.54.284c.281.148.573-.18.385-.432l-.415-.56a5.641 5.641 0 0 0-2.307-1.816l-.838-.36a8.578 8.578 0 0 0-2.004-.582l-.605-.099a1.914 1.914 0 0 0-1.308.257 1.137 1.137 0 0 0-.253 1.74zm5.792 12.385-2.7-.26a6.903 6.903 0 0 0-4.158.914l-.285.168a6.912 6.912 0 0 1-6.574.223 6.678 6.678 0 0 1-3.463-4.162l-.237-.844a6.528 6.528 0 0 1 .707-5.15l.65-1.075a6.551 6.551 0 0 0 .924-2.809l.3-3.353a6.563 6.563 0 0 1 1.317-3.386c.367-.483 4.7-5.04 4.768-4.443.076.667-3.281 6.091-2.963 6.71l.426.828a4.301 4.301 0 0 1-.052 4.04l-.622 1.136a3.728 3.728 0 0 0-.36 2.646c.364 1.548 2.096 2.372 3.57 1.712l1.343-.601a5.961 5.961 0 0 1 6.131.764l.366.29a4.629 4.629 0 0 0 4.685.626c1.176-.501 2.5.305 2.563 1.56a3.98 3.98 0 0 1-.538 2.2 6.86 6.86 0 0 1-5.798 2.266z" fill="#E99462"/><path d="m453.644 635.188-1.555 2.852a.57.57 0 0 1-.27.248l-2.189.966c-.144.064-.31-.033-.318-.186l-.15-2.867a.467.467 0 0 1 .203-.407l1.3-.905a.429.429 0 0 0 .183-.31l.224-2.26a.13.13 0 0 0-.116-.141l-.034-.005a.134.134 0 0 0-.15.107l-.398 2.046a.37.37 0 0 1-.23.271l-.858.34c-.086.033-.182-.024-.189-.114l-.031-.41a1.152 1.152 0 0 0-.124-.438l-1.5-2.921a.099.099 0 0 0-.138-.038.092.092 0 0 0-.04.108l1.041 3.112c.044.13.062.267.055.403l-.162 3.05c-.011.206-.238.333-.429.241l-1.661-.8a.802.802 0 0 1-.38-.378l-1.405-2.977a.134.134 0 0 0-.17-.066l-.073.029a.126.126 0 0 0-.076.157l1.195 3.56c.03.089.093.164.177.212l2.374 1.332a.666.666 0 0 1 .345.615l-.48 9.012a13.46 13.46 0 0 1-.076.885l-.298 2.49h2.946l-.297-2.485a13.52 13.52 0 0 1-.077-.896l-.394-7.518a.924.924 0 0 1 .49-.858l2.45-1.336a.784.784 0 0 0 .354-.395l1.276-3.174a.12.12 0 0 0-.065-.154l-.117-.05a.128.128 0 0 0-.163.053" fill="#CE643A"/><path d="M452.991 635.133a.113.113 0 0 0-.15.054l-1.425 2.852c-.05.101-.13.182-.226.234-.13.259-.335.468-.586.596l-1.477.75c-.317.16-.684-.083-.682-.452l.013-2.42a.5.5 0 0 1 .14-.346l.137-.14-.003-.06a.483.483 0 0 1 .186-.408l.97-.736a.958.958 0 0 0 .146-.398l.322-2.485-.01-.002a.124.124 0 0 0-.138.106l-.364 2.046a.364.364 0 0 1-.211.272l-.082.036a.55.55 0 0 1-.299.325l-.818.352c-.095.041-.2-.027-.208-.135l-.026-.374a2.023 2.023 0 0 0-.083-.45l-1.022-3.347a.084.084 0 0 0-.066.012.096.096 0 0 0-.037.107l.955 3.113c.04.13.057.267.05.403l-.149 3.05c-.01.206-.217.333-.393.241l-.043-.022-.011.237c-.009.174-.184.281-.332.203l-1.448-.76a1.033 1.033 0 0 1-.5-.608l-1.023-3.253-.025.01a.13.13 0 0 0-.07.158l1.095 3.56c.028.089.086.164.163.212l2.176 1.332a.68.68 0 0 1 .317.615l-.44 9.012c-.014.295-.038.59-.07.885l-.273 2.49h1.91l-.234-2.126c-.03-.279-.052-.558-.066-.837l-.08-7.424a.958.958 0 0 1 .427-.815l.091-.06a.92.92 0 0 1 .398-.495l2.045-1.217a1.35 1.35 0 0 0 .142-.271l1.393-3.619-.006-.003z" fill="#AD330D"/></g><g><g transform="translate(188.005 584.997)"><mask id="t" fill="#fff"><use xlink:href="#s"/></mask><path d="m5.894 44.505 2.58 1.476a30.174 30.174 0 0 0 6.663 2.813 30.553 30.553 0 0 0 18.463-.512l1.818-.633a10.023 10.023 0 0 0 6.02-5.75l.827-2.076a9.982 9.982 0 0 0-.408-8.29l-3.381-6.53a34.351 34.351 0 0 1-3.4-10.265l-.086-.532a21.654 21.654 0 0 0-3.795-9.159l-.63-.876A9.86 9.86 0 0 0 23.68.136c-4.711-.538-9.139 2.343-10.542 6.86a10746.38 10746.38 0 0 1-2.86 9.184 5.503 5.503 0 0 1-1.835 2.673l-2.684 2.13A15.059 15.059 0 0 0 .059 32.3l-.053 1.685a11.692 11.692 0 0 0 5.888 10.519" fill="#64CC75" mask="url(#t)"/></g><path d="m217.637 629.611-2.235.093c-2.885.12-5.76-.424-8.396-1.588l-1.776-.785c-4.708-2.08-5.955-8.12-2.448-11.86l.231-.247c1.393-1.485 1.224-3.809-.342-5.114a4.507 4.507 0 0 1-.606-6.333l1.996-2.433a7.14 7.14 0 0 0 1.388-6.362l-.447-1.687a4.13 4.13 0 0 1 1.832-4.57l.067-.042c.475-.294.816-.709 1.015-1.174.374-.875-.498-1.775-1.398-1.442-2.843 1.053-5.145 3.355-6.094 6.383-1.086 3.468-2.265 7.22-2.92 9.306a5.57 5.57 0 0 1-1.874 2.707l-2.743 2.158a15.301 15.301 0 0 0-3.947 4.646c-.366.665.551 1.285 1.045.706 1.95-2.29 5.406-2.583 7.72-.655l.911.758c.32.267.5.663.49 1.077l-.003.078a.99.99 0 0 1-.889.955l-3.104.334a5.105 5.105 0 0 0-3.343 1.761l-.299.351a5.558 5.558 0 0 1-3.336 1.878c-.635.103-1.1.648-1.12 1.284-.141 4.38 2.171 8.477 6.013 10.657l2.635 1.496a30.96 30.96 0 0 0 6.806 2.85 31.45 31.45 0 0 0 18.001-.238l.055-.09c1.352-2.178-.304-4.966-2.885-4.858" fill="#00B882"/><path d="M223.593 621.57a6.687 6.687 0 0 1-4.358-5.388 2.535 2.535 0 0 1 .064-.999.242.242 0 0 0-.268-.299c-.007 0-.014.002-.02.003-1.261.177-2.496-.467-3.104-1.576l-.24-.439a1.683 1.683 0 0 0-1.674-.863 2.248 2.248 0 0 0-1.968 2.524 5.853 5.853 0 0 0 4.188 4.835 1.78 1.78 0 0 1 1.067.865 5.302 5.302 0 0 0 5.268 2.728l.213-.024c.304-.035.592-.11.859-.219a.613.613 0 0 0-.027-1.148" fill="#00B882"/><g transform="translate(197.005 614.997)"><mask id="v" fill="#fff"><use xlink:href="#u"/></mask><path d="M19.587 13.003a.27.27 0 0 0-.135.15l-2.32 6.255a1.43 1.43 0 0 1-.76.81l-3.378 1.506a.493.493 0 0 1-.69-.39l-.83-6.559a.922.922 0 0 1 .433-.902l2.818-1.722c.229-.14.397-.36.471-.619l1.943-6.726a.18.18 0 0 0-.344-.11l-2.223 6.289a1.073 1.073 0 0 1-.533.603l-2.375 1.184a.225.225 0 0 1-.325-.208l.027-.903.058-1.503c.018-.502.044-1.002.066-1.503l.075-1.493.89-6.7a.39.39 0 0 0-.77-.114l-1.093 6.696-.002.006-.002.03-.109 1.086-2.283-1.068a.635.635 0 0 1-.35-.433L6.842 2.28a.183.183 0 0 0-.36.067l.706 4.956a.385.385 0 0 0 .18.274L10.353 9.4c-.024.224-.047.448-.073.672l-.166 1.495c-.04.33-.102.879-.14 1.212-.02.188-.027.377-.02.566l.233 5.914a.289.289 0 0 1-.427.266l-5.082-2.781a1.757 1.757 0 0 1-.79-.896l-3.28-8.29a.312.312 0 0 0-.587.208l2.803 8.979c.122.391.377.727.72.95l6.143 3.992c.383.25.621.67.64 1.127l.143 3.659c.014.361-.006.722-.06 1.08L8.99 37h4.081l-.047-9.636a5.752 5.752 0 0 0-.045-.694l-.217-1.712a1.409 1.409 0 0 1 .693-1.398l4.066-2.344c.327-.189.567-.5.666-.865l1.781-7.038a.271.271 0 0 0-.381-.31" fill="#009F70" mask="url(#v)"/></g><g transform="translate(197.005 614.997)"><mask id="x" fill="#fff"><use xlink:href="#w"/></mask><path d="m12.099 26.735-.288-1.917a.907.907 0 0 1 .451-.923l4.708-2.679c.331-.189.574-.5.674-.865 0 0 1.872-5.564 2.343-7.374a.273.273 0 0 0-.287.175l-2.35 6.256a1.438 1.438 0 0 1-.769.81l-3.422 1.506a.502.502 0 0 1-.551-.098l-.223.098a.5.5 0 0 1-.699-.39l-.84-6.559a.918.918 0 0 1 .438-.902l3.288-1.978a.7.7 0 0 0 .304-.377l2.337-6.94a.183.183 0 0 0-.204.117l-2.252 6.29a1.077 1.077 0 0 1-.54.603l-2.404 1.184a.228.228 0 0 1-.33-.208v-.012l-.445.22a.228.228 0 0 1-.329-.208l.027-.903.06-1.503c.017-.502.044-1.002.066-1.503l.076-1.493L12.3.028a.394.394 0 0 0-.468.32l-1.106 6.696-.001.006-.003.03-.11 1.086-.74-.342-.034.342L7.82 7.154a.655.655 0 0 1-.356-.49l-.66-4.516a.184.184 0 0 0-.241.2l.715 4.955a.385.385 0 0 0 .182.274L10.485 9.4c-.024.223-.048.447-.074.67l-.168 1.496c-.04.33-.103.879-.14 1.212a3.736 3.736 0 0 0-.021.566l.235 5.914a.292.292 0 0 1-.432.266l-.35-.19a.293.293 0 0 1-.425.19L3.755 16.63a1.045 1.045 0 0 1-.49-.57L.193 7.389a.31.31 0 0 0-.172.377l2.84 8.979c.123.391.381.727.729.95l6.22 3.992c.389.25.63.67.648 1.127l.146 3.66c.014.36-.006.722-.06 1.079L9.105 37h2.191l.822-9.701c.015-.188.01-.377-.019-.564" fill="#005639" mask="url(#x)"/></g></g><g><g transform="translate(467 594.997)"><mask id="z" fill="#fff"><use xlink:href="#y"/></mask><path d="m5.072 38.274 2.22 1.27a25.975 25.975 0 0 0 5.733 2.419 26.304 26.304 0 0 0 15.887-.44l1.564-.545a8.623 8.623 0 0 0 5.18-4.945l.712-1.785a8.58 8.58 0 0 0-.351-7.13l-2.91-5.616a29.533 29.533 0 0 1-2.925-8.828l-.074-.457a18.617 18.617 0 0 0-3.265-7.876l-.543-.754a8.485 8.485 0 0 0-5.924-3.47c-4.054-.462-7.864 2.015-9.071 5.9-.915 2.942-1.908 6.127-2.46 7.898a4.732 4.732 0 0 1-1.58 2.299l-2.31 1.83A12.948 12.948 0 0 0 .051 27.78l-.046 1.449a10.054 10.054 0 0 0 5.066 9.046" fill="#64CC75" mask="url(#z)"/></g><path d="m492.128 632.506-1.906.08a15.96 15.96 0 0 1-7.162-1.366l-1.514-.675c-4.016-1.788-5.08-6.984-2.089-10.199l.198-.212c1.188-1.277 1.044-3.276-.292-4.398a3.898 3.898 0 0 1-.517-5.447l1.702-2.092a6.179 6.179 0 0 0 1.185-5.471l-.382-1.451a3.566 3.566 0 0 1 1.562-3.93l.058-.036a2.2 2.2 0 0 0 .866-1.01c.318-.752-.425-1.526-1.192-1.24a8.574 8.574 0 0 0-5.199 5.49c-.926 2.982-1.931 6.208-2.49 8.002a4.79 4.79 0 0 1-1.598 2.328l-2.34 1.856a13.13 13.13 0 0 0-3.366 3.996c-.313.572.47 1.106.89.607a4.683 4.683 0 0 1 6.586-.563l.776.652c.273.23.427.57.418.926l-.002.067a.849.849 0 0 1-.758.821l-2.648.287a4.344 4.344 0 0 0-2.851 1.515l-.255.302a4.731 4.731 0 0 1-2.846 1.615c-.541.089-.939.558-.956 1.105a10.187 10.187 0 0 0 5.13 9.165l2.247 1.286a26.28 26.28 0 0 0 5.805 2.45 26.615 26.615 0 0 0 15.354-.204l.048-.077c1.153-1.873-.26-4.27-2.462-4.179" fill="#00B882"/><path d="M496.657 625.83c-1.918-.683-3.351-2.355-3.632-4.408a2.038 2.038 0 0 1 .054-.817c.036-.135-.082-.264-.224-.245a2.573 2.573 0 0 1-2.604-1.287l-.2-.36a1.41 1.41 0 0 0-1.394-.706c-1.043.124-1.778 1.053-1.64 2.065.26 1.906 1.657 3.437 3.49 3.956.382.108.701.367.889.708.842 1.527 2.57 2.438 4.39 2.232l.178-.02c.253-.028.493-.09.715-.179a.499.499 0 0 0-.022-.94" fill="#00B882"/><g transform="translate(475 619.997)"><mask id="B" fill="#fff"><use xlink:href="#A"/></mask><path d="M16.649 11.246a.233.233 0 0 0-.114.129l-1.973 5.41a1.229 1.229 0 0 1-.645.7l-2.872 1.303a.419.419 0 0 1-.587-.337l-.705-5.672a.802.802 0 0 1 .368-.78l2.395-1.49a.926.926 0 0 0 .4-.535l1.652-5.817a.157.157 0 0 0-.1-.193.153.153 0 0 0-.192.097l-1.89 5.44a.923.923 0 0 1-.453.521l-2.018 1.024a.191.191 0 0 1-.277-.18l.023-.78.05-1.3c.015-.434.037-.867.056-1.3l.063-1.292L10.587.4a.334.334 0 0 0-.394-.376.335.335 0 0 0-.261.277l-.929 5.791v.006L9 6.123l-.092.94-1.941-.924a.548.548 0 0 1-.297-.374l-.855-3.793a.156.156 0 0 0-.18-.12.158.158 0 0 0-.125.178l.599 4.286c.014.099.07.186.153.237L8.8 8.13c-.02.194-.04.388-.062.581l-.14 1.293c-.035.286-.088.76-.12 1.048a3.32 3.32 0 0 0-.016.49l.197 5.115a.246.246 0 0 1-.362.23l-4.32-2.406a1.511 1.511 0 0 1-.672-.774L.518 6.537a.264.264 0 0 0-.336-.156.272.272 0 0 0-.164.336L2.4 14.482c.104.339.32.63.612.822l5.221 3.453c.326.216.529.579.544.974l.122 3.165c.012.312-.005.625-.05.934L7.642 32h3.469l-.04-8.333a5.06 5.06 0 0 0-.039-.6l-.184-1.481c-.06-.488.172-.964.59-1.21l3.455-2.027c.278-.163.482-.432.566-.748l1.514-6.086c.049-.194-.148-.357-.324-.269" fill="#009F70" mask="url(#B)"/></g><g transform="translate(475 619.997)"><mask id="D" fill="#fff"><use xlink:href="#C"/></mask><path d="m10.284 23.122-.245-1.658a.79.79 0 0 1 .384-.799l4.001-2.316c.282-.163.488-.432.573-.748 0 0 1.592-4.813 1.992-6.378a.234.234 0 0 0-.244.152l-1.998 5.41c-.116.313-.351.565-.653.7l-2.909 1.303a.421.421 0 0 1-.469-.085l-.19.085a.424.424 0 0 1-.593-.337l-.714-5.673a.799.799 0 0 1 .373-.78l2.794-1.71a.604.604 0 0 0 .258-.326l1.986-6.003a.155.155 0 0 0-.172.102L12.544 9.5a.926.926 0 0 1-.46.521l-2.044 1.024a.194.194 0 0 1-.279-.19l-.379.19a.194.194 0 0 1-.28-.18l.023-.78.05-1.301c.016-.434.038-.866.057-1.3l.065-1.29 1.158-6.17a.337.337 0 0 0-.398.276l-.94 5.79v.006l-.003.026-.093.94-.63-.296-.029.296-1.715-.876a.566.566 0 0 1-.302-.424l-.56-3.906a.157.157 0 0 0-.079-.006.159.159 0 0 0-.127.179l.607 4.286c.014.098.071.185.156.237l2.57 1.577c-.02.194-.04.387-.063.58l-.143 1.294c-.035.285-.088.76-.12 1.048a3.287 3.287 0 0 0-.017.49l.2 5.115a.249.249 0 0 1-.367.23l-.297-.164a.248.248 0 0 1-.362.163l-4.552-2.502a.9.9 0 0 1-.416-.494L.164 6.39a.27.27 0 0 0-.146.327l2.413 7.765c.105.338.324.63.62.822l5.288 3.453c.33.215.535.578.55.974l.124 3.165c.012.312-.005.624-.051.933L7.739 32h1.862l.698-8.39a2.134 2.134 0 0 0-.015-.487" fill="#005639" mask="url(#D)"/></g></g></g></svg>