<?xml version="1.0" encoding="UTF-8"?>
<svg width="668px" height="818px" viewBox="0 0 668 818" version="1.1" xmlns="http://www.w3.org/2000/svg" xmlns:xlink="http://www.w3.org/1999/xlink">
    <title>5. Elements_Illustrations/2.Vector/Skyscraper</title>
    <defs>
        <polygon id="path-1" points="0.348567009 0.401384711 436.967259 0.401384711 436.967259 161 0.348567009 161"></polygon>
        <polygon id="path-3" points="0 0.199204095 90.6538414 0.199204095 90.6538414 27.6320258 0 27.6320258"></polygon>
        <polygon id="path-5" points="0 0 436 0 436 140 0 140"></polygon>
        <polygon id="path-7" points="0 0 305 0 305 140 0 140"></polygon>
        <polygon id="path-9" points="0 0.0419635762 24.9861486 0.0419635762 24.9861486 28.987499 0 28.987499"></polygon>
        <polygon id="path-11" points="0.00357688787 0.0115073843 10.9875174 0.0115073843 10.9875174 21 0.00357688787 21"></polygon>
        <polygon id="path-13" points="0.00368882632 0.0116579221 10.9928267 0.0116579221 10.9928267 21 0.00368882632 21"></polygon>
        <polygon id="path-15" points="0 0.0076 39.9257007 0.0076 39.9257007 37.9995353 0 37.9995353"></polygon>
        <polygon id="path-17" points="1.50141414e-05 0.910747075 27 1.17551236 26.7465488 31.1004009 1.07592506e-14 31.1004009"></polygon>
        <polygon id="path-19" points="0 0.0723509934 42.9761757 0.0723509934 42.9761757 49.9784465 0 49.9784465"></polygon>
        <polygon id="path-21" points="0.00650343249 0.0202749153 19.9773043 0.0202749153 19.9773043 37 0.00650343249 37"></polygon>
        <polygon id="path-23" points="0.00670695694 0.0205401484 19.9869576 0.0205401484 19.9869576 37 0.00670695694 37"></polygon>
        <polygon id="path-25" points="0 0.0622218543 36.9795 0.0622218543 36.9795 42.981464 0 42.981464"></polygon>
        <polygon id="path-27" points="0.00552791762 0.0175350619 16.9807086 0.0175350619 16.9807086 32 0.00552791762 32"></polygon>
        <polygon id="path-29" points="0.0057009134 0.0177644527 16.988914 0.0177644527 16.988914 32 0.0057009134 32"></polygon>
    </defs>
    <g id="5.-Elements_Illustrations/2.Vector/Skyscraper" stroke="none" stroke-width="1" fill="none" fill-rule="evenodd">
        <g id="Group-25" transform="translate(217.263672, 492.890625)">
            <g id="Group-3" transform="translate(-0.263672, 0.109375)">
                <mask id="mask-2" fill="white">
                    <use xlink:href="#path-1"></use>
                </mask>
                <g id="Clip-2"></g>
                <path d="M-8.96962232e-05,159.083333 L21.7835742,138.782585 C25.5230007,134.906442 30.8137099,132.932168 36.1749319,133.41247 L44.1204272,134.124828 C49.5364427,134.610076 54.8204149,132.26883 58.1039781,127.929476 L74.6152124,106.105881 C75.5700552,104.843965 77.3647643,104.594819 78.6263604,105.549576 L81.2842905,107.561177 C82.6231364,108.574847 84.5337201,108.28073 85.5074262,106.91178 L114.979101,65.4619254 C115.394543,64.8772885 115.839628,64.314688 116.313007,63.7763723 L166.002557,7.24603436 C173.724387,-1.53880922 187.266896,-1.92197123 195.471537,6.41225223 L208.838438,19.9902187 L225.389644,38.482283 C226.80574,40.0644003 229.151527,40.4012411 230.954769,39.2814366 L235.008135,36.7634506 C238.757892,34.4343472 243.621931,35.0414701 246.685422,38.2205455 L281.843038,74.7032355 C285.172861,78.1588891 289.497948,80.4866433 294.213327,81.3604506 L336.442887,89.1882885 C340.171983,89.8795092 343.598369,91.7031265 346.256748,94.4113444 L380.487816,129.283585 C383.3492,132.198224 387.430412,133.565375 391.46716,132.9614 L393.375947,132.676277 C397.364639,132.079048 401.433275,132.968146 404.811155,135.174476 L441.482829,159.020749 L-8.96962232e-05,159.083333 Z" id="Fill-1" fill="#06C18B" mask="url(#mask-2)"></path>
            </g>
            <path d="M59.0489931,134.999875 C62.7991589,135.656301 66.4167872,133.298675 67.3215395,129.609835 L67.973182,126.950621 C68.5691404,124.518171 69.7159575,122.254189 71.324815,120.332651 L76.5108033,114.137916 C77.5793866,112.861327 78.1417504,111.238164 78.0911284,109.575983 L77.9765387,105.805893 C77.9503074,104.934177 78.2241261,104.088627 78.7363281,103.396855 C77.5144984,102.811121 76.0082654,103.133366 75.1458515,104.245619 L58.006181,126.352492 C54.8280432,130.452631 49.88458,132.757927 44.7363281,132.604149 L47.0920894,132.907115 L59.0489931,134.999875 Z" id="Fill-4" fill="#008D64"></path>
            <g id="Group-8" transform="translate(-0.263672, 131.109375)">
                <mask id="mask-4" fill="white">
                    <use xlink:href="#path-3"></use>
                </mask>
                <g id="Clip-7"></g>
                <path d="M83.2554966,22.7139613 L67.178531,20.9535742 C65.7713931,20.7995742 64.5023241,20.0313806 63.7061862,18.8517677 C61.9081517,16.1886065 59.1517034,14.3347355 56.0204966,13.6839613 L38.5606,10.0543484 C35.0322207,9.32092903 33.5269103,5.08389677 35.7924966,2.26176774 C36.5285655,1.34409032 37.5627379,0.752929032 38.6847724,0.553767742 L36.0296345,0.287316129 C30.6834966,-0.248748387 25.3839793,1.68099355 21.6130828,5.53596129 L-8.96551724e-05,27.6320258 L90.6538414,27.5304129 L89.3103586,25.9420903 C87.7754621,24.1266065 85.6089448,22.9713806 83.2554966,22.7139613" id="Fill-6" fill="#008D64" mask="url(#mask-4)"></path>
            </g>
            <path d="M112.432961,94.8179671 C117.519826,93.831423 121.962846,90.7516346 124.684,86.3257375 L135.106989,69.3760602 C137.771902,65.0423128 142.650451,62.5967313 147.702222,63.0619971 L156.879366,63.9071547 C159.032712,64.105909 160.758629,62.148179 160.301054,60.026025 L158.07302,49.6975766 C156.797929,43.785991 157.445373,37.6196385 159.920416,32.1051098 L165.210648,20.3167206 C165.690719,19.2475127 166.279673,18.2311554 166.96851,17.2839105 L178.736328,1.109375 C174.409388,1.84341081 170.280416,3.99447451 167.101238,7.54901467 L116.7644,63.8312666 C116.285228,64.3674516 115.833502,64.9275774 115.411472,65.5102889 L86.7363281,105.109375 L95.1607454,99.9259529 C97.9187927,98.2284104 100.959394,97.0435637 104.135872,96.4274253 L112.432961,94.8179671 Z" id="Fill-9" fill="#008D64"></path>
            <path d="M359.824715,154.103823 L354.859193,153.60553 C351.473467,153.265644 348.299433,151.825788 345.840369,149.513144 L338.333183,142.454521 C336.162093,140.413431 333.304921,139.225161 330.302408,139.116007 L322.843067,138.84401 C314.304049,138.533409 306.521979,133.944062 302.223582,126.684435 L296.52323,117.057144 C295.531119,115.381232 294.144961,113.964449 292.48076,112.923936 L264.226803,95.2618487 C263.457217,94.7808613 262.499861,95.516985 262.78919,96.3671435 L268.507145,113.163543 C269.835075,117.065131 269.700567,121.304831 268.127543,125.117233 L266.704373,128.566232 C265.260892,132.065815 266.971584,136.053928 270.528831,137.480029 L297.314933,148.21927 C300.69434,149.574377 303.67925,151.731721 306.002452,154.498729 L309.873852,159.109375 L367.736328,159.046367 C366.040531,156.272259 363.114299,154.433503 359.824715,154.103823" id="Fill-11" fill="#008D64"></path>
            <path d="M218.619337,135.321435 L209.059916,132.51903 C202.026557,130.457402 195.719935,126.432105 190.872627,120.910808 L186.908362,116.395722 C182.395676,111.25497 179.314005,105.007791 177.976414,98.2852696 L176.946046,93.10705 C176.326209,89.992715 174.24077,87.3740373 171.353136,86.0843351 L165.930906,83.6620244 C163.237308,82.4589945 160.07434,83.2683876 158.281752,85.6198257 L139.284183,110.538569 C138.044957,112.163223 137.34472,114.138178 137.28094,116.184006 L137.011894,124.84221 C136.7424,133.50267 131.293669,141.141571 123.219163,144.177811 L118.874462,145.811494 C115.194963,147.195543 111.977647,149.592574 109.591273,152.729028 L104.736328,159.109375 L245.736328,158.952733 L245.517588,158.482355 C240.279513,147.23617 230.480241,138.798259 218.619337,135.321435" id="Fill-13" fill="#008D64"></path>
            <path d="M390.875774,135.530877 C389.34989,135.743553 387.820887,135.671619 386.356929,135.341434 L383.870962,136.029058 C380.914088,136.847148 379.729022,140.411714 381.604634,142.845877 C382.487197,143.991024 382.631989,145.544545 381.976193,146.834455 L375.736328,159.109375 L395.804046,159.087035 C396.859914,157.618405 397.021635,155.529171 395.757713,153.855461 C394.148963,151.726015 393.749337,148.914306 394.700954,146.418485 L396.307922,142.203379 C396.945452,140.531456 398.031169,139.069528 399.445675,137.977997 L399.958907,137.582133 C400.464119,137.192524 400.704697,136.669322 400.736328,136.143439 C398.213384,135.199798 395.477485,134.887932 392.77188,135.265925 L390.875774,135.530877 Z" id="Fill-15" fill="#008D64"></path>
            <path d="M219.921796,61.4990036 L220.928701,61.791047 C226.136723,63.3011362 230.455017,66.9206775 232.815818,71.7546702 L238.350846,83.0877524 L242.231769,91.5340976 C242.648702,92.4412294 244.008955,92.2260159 244.118865,91.235764 L245.636718,77.5856542 C245.933748,74.9150294 245.56405,72.2138523 244.560323,69.7175549 L239.484012,57.095438 C238.600188,54.8983728 238.307245,52.511704 238.634251,50.1690665 L239.384093,44.7909744 C239.689299,42.6006487 240.73163,40.5765631 242.342588,39.044009 L243.389007,38.0488149 C243.845452,37.6143441 244.025305,37.0320545 243.965354,36.4776213 C241.490556,35.7726734 238.757786,36.0683112 236.431957,37.4642787 L232.307596,39.9399084 C230.47273,41.0406875 228.104208,40.6808001 226.688091,39.0857937 L224.626592,36.7642731 L222.355718,37.1142759 C220.031706,37.4714675 218.580163,39.7983797 219.298214,42.0138661 L220.671638,46.2489451 C221.260703,48.0654552 221.16896,50.0311321 220.413213,51.7860885 L217.980653,57.4360055 C217.267598,59.0921164 218.175494,60.9926452 219.921796,61.4990036" id="Fill-17" fill="#008D64"></path>
            <path d="M247.73163,38.171348 C244.697715,34.9957376 238.960818,34.3674395 236.083267,36.2706653 L231.287349,39.125504 C229.368981,40.0771169 227.822205,39.7998661 226.420969,38.2202925 L210.043847,19.7628635 L196.804003,6.19855311 C188.67701,-2.12780215 175.123484,-1.88218958 167.310174,6.73338339 L126.736328,51.4726927 C126.962378,51.8299878 127.301676,52.1249899 127.738495,52.2914013 C128.611235,52.6233342 129.591831,52.5143214 130.367949,51.9990689 L144.936226,42.3213996 C146.718107,41.1378317 149.063987,41.2143632 150.763178,42.5109484 L155.854457,46.3966995 C157.246706,47.4592409 159.27396,46.9782496 160.028507,45.4066851 L162.829632,39.5702718 C163.147359,38.9081857 164.0565,38.8062921 164.515789,39.3807229 L166.028029,41.2726517 C166.726849,42.1460891 168.111907,41.9765631 168.573893,40.9607415 L172.868382,31.5246802 C173.431933,30.2863834 175.248867,30.4176438 175.625017,31.7240179 L178.721399,42.4846963 C178.937562,43.2362174 179.853444,43.5312195 180.474068,43.0493383 L187.105899,37.9048227 C187.933249,37.2627594 189.084618,37.2231589 189.95556,37.8064887 L193.391241,40.1077718 C194.832025,41.072869 196.794566,40.6555056 197.70865,39.1898392 L200.987939,33.9336412 C201.932134,32.4203651 203.905909,31.9011081 205.48421,32.7505183 L226.070435,43.8351205 C227.575933,44.6453751 228.77404,45.9183779 229.484545,47.4623555 L232.078046,53.0976513 C232.437119,53.8785391 233.580398,53.8069021 233.837456,52.9877486 L234.729071,50.1480756 C234.958266,49.4174672 235.640908,48.9200128 236.412982,48.9200128 L237.563002,48.9200128 C238.690553,48.9200128 239.767321,49.3858757 240.533552,50.2054742 L240.661632,50.3425189 C241.396405,51.1278562 242.697425,50.9440917 243.181431,49.9870036 L245.258119,45.8743278 C245.636966,45.1236967 246.666097,44.9982207 247.217514,45.6349446 L248.519882,47.1393216 C248.911311,47.5913911 249.655522,47.4031771 249.780456,46.8211821 L250.005157,45.7706544 C250.119754,45.2358241 250.790263,45.0431607 251.176299,45.4347169 L262.827955,57.2525973 C263.774846,58.2128001 265.029128,58.8170426 266.376436,58.9629863 L267.736328,59.109375 L247.73163,38.171348 Z" id="Fill-19" fill="#B8DDFF"></path>
            <path d="M126.736328,51.1027108 C126.961531,51.4598263 127.29956,51.7543133 127.734744,51.9204342 C128.604216,52.2517876 129.581141,52.1429651 130.354354,51.628168 L144.868096,41.967395 C146.643306,40.7858935 148.980404,40.8622914 150.673234,42.1566129 L155.745455,46.036024 C156.397335,46.5343866 157.187561,46.6880707 157.921374,46.5534861 C157.018323,41.1527808 157.737361,35.597059 160.012675,30.5876705 L165.27652,18.9965195 C165.754237,17.9447167 166.34075,16.9453264 167.02621,16.0143388 L178.736328,0.109375 C174.430156,0.831156897 170.321877,2.94631099 167.158287,6.44151206 L126.736328,51.1027108 Z" id="Fill-21" fill-opacity="0.696050044" fill="#00986C"></path>
            <path d="M236.04402,36.2112476 L233.159405,38.1597316 C229.313251,41.0824576 227.77377,39.7981298 226.349601,38.2070596 L224.275924,35.8906155 L221.992596,36.2394046 C220.056859,36.5348443 218.72724,38.1783674 218.736328,39.9900086 L225.467097,44.9794256 C226.996777,45.7958074 227.62958,46.3464983 228.351713,47.9021516 L232.197867,53.7476036 C232.563272,54.5343966 233.625741,53.9110887 233.887006,53.0857406 L234.793668,50.2245937 C235.026615,49.4889087 235.259312,49.8506356 236.04402,49.8506356 L237.967097,49.8506356 C238.210549,49.8506356 238.15677,49.0132464 238.393371,49.0544914 L239.117787,43.8997645 C239.424728,41.7142285 240.472529,39.6941207 242.093103,38.1653662 L243.145014,37.1719 C243.604512,36.7383793 243.785387,36.157363 243.725095,35.6041422 C241.236226,34.9011841 238.38353,34.818781 236.04402,36.2112476 Z" id="Fill-23" fill-opacity="0.480332168" fill="#00986C"></path>
        </g>
        <g id="Group-9" transform="translate(13.000000, 512.000000)">
            <g id="Group-3">
                <mask id="mask-6" fill="white">
                    <use xlink:href="#path-5"></use>
                </mask>
                <g id="Clip-2"></g>
                <path d="M0,140 L6.47963258,132.648818 C11.9586282,126.432706 17.7087425,121.159604 23.6638417,116.889851 L101.293311,61.2312261 C107.749826,56.6020012 114.851436,56.6300451 121.298002,61.3105421 L127.729498,65.9799916 C133.412015,70.1055595 139.737287,69.2883209 145.086356,63.7376134 L198.134306,8.68830564 C209.262167,-2.85954539 222.63228,-2.89807033 233.777992,8.58519477 L314.139131,91.3815246 C320.698211,98.1395358 328.377613,99.560143 335.479224,95.3297645 L337.216256,94.29469 C344.991786,89.6629157 353.285704,89.3872924 361.13878,93.5003964 L408.401939,118.252954 C414.821876,121.615105 421.068577,126.112609 427.063328,131.687961 L436,140 L0,140 Z" id="Fill-1" fill="#06C18B" mask="url(#mask-6)"></path>
            </g>
            <g id="Group-6">
                <mask id="mask-8" fill="white">
                    <use xlink:href="#path-7"></use>
                </mask>
                <g id="Clip-5"></g>
                <path d="M305,140 L291.552187,120.709954 C284.502551,110.597721 276.386162,103.61637 267.781034,100.263292 L242.357782,90.356819 C233.552995,86.9260855 225.560476,78.0699467 219.578474,65.1170502 L214.236056,53.5489174 C210.789812,46.0868949 209.806322,35.5124136 211.691796,26.1965764 L214.227553,13.6685183 C215.148008,9.12056456 215.303982,4.40284548 214.837232,0 C209.21101,0.454030155 203.625395,3.32331935 198.512393,8.6217549 L145.363215,63.6988437 C142.528262,66.6370026 139.419328,68.2351774 136.277117,68.4913842 C136.921098,70.2423195 137.722079,71.8217889 138.692962,73.1164267 L142.025743,77.5592336 C143.036352,78.9063031 142.762224,81.9258021 141.574678,82.5272078 L127.522757,89.6423308 C124.440062,91.2030949 121.241706,91.7282621 118.066951,91.1945924 L112.915836,90.3284775 C107.272463,89.3801723 101.61663,91.8634509 96.7390561,97.4331142 L90.9435201,104.049994 C86.6748919,108.924442 81.6540974,110.73206 76.7640634,109.156558 L70.8109403,107.238408 C66.3713852,105.807732 64.6524411,95.2341004 67.8705871,89.1506065 L71.1838717,82.8871443 L23.7091445,116.878188 C17.7426815,121.14953 11.9815947,126.425575 6.49214384,132.644825 L0,140 L305,140 Z" id="Fill-4" fill="#008D64" mask="url(#mask-8)"></path>
            </g>
            <path d="M320.252347,101.140564 C322.121226,104.082543 323.011321,108.796181 322.569322,113.408177 C322.276833,116.458329 322.928582,119.560154 324.233242,121.326988 L330.882243,130.330657 C331.760871,131.520565 332.966969,131.081057 333.567914,129.35312 L336.830724,119.968147 C338.418001,115.402146 340.686785,111.905956 343.327748,109.955994 L347.706805,106.72243 C350.686125,104.522619 351.91182,97.5711229 350.259222,92.2462045 L350.259077,92.2462045 C349.942638,91.2263641 349.910703,90.0642799 350.093745,89.0557963 C345.854182,89.0560802 341.617378,90.2769359 337.525149,92.7402252 L335.80186,93.7773847 C328.756438,98.0171611 321.137796,96.5930187 314.630612,89.8198248 L310,85 L320.252347,101.140564 Z" id="Fill-7" fill="#008D64"></path>
        </g>
        <g id="Group-14" transform="translate(498.246094, 613.722656)">
            <g id="Group-3" transform="translate(-0.246094, 0.277344)">
                <mask id="mask-10" fill="white">
                    <use xlink:href="#path-9"></use>
                </mask>
                <g id="Clip-2"></g>
                <path d="M3.42670849,25.8128856 L4.92666023,26.6689137 C6.14746139,27.365682 7.44818533,27.9134651 8.80079151,28.3005959 C12.323668,29.308778 16.0741988,29.2049733 19.5353475,28.0036339 L20.5922973,27.6367167 C22.1897394,27.0822598 23.4665734,25.865268 24.0918147,24.3013326 L24.5730888,23.0974005 C25.1973166,21.5360098 25.1107819,19.782182 24.3358301,18.2891621 L22.3699517,14.5015412 C21.4000676,12.6329618 20.7330792,10.6237515 20.3936004,8.54804288 L20.3431178,8.23950977 C20.0297008,6.32320513 19.2745849,4.50508758 18.1369402,2.92751639 L17.7706274,2.41958427 C16.8280116,1.11247169 15.3740541,0.262493212 13.7674903,0.0793226821 C11.028639,-0.232811424 8.45426641,1.43790546 7.63829151,4.05760414 C7.02,6.04256772 6.34929537,8.19000811 5.97593629,9.38457765 C5.78472008,9.99636242 5.41309846,10.5362233 4.90909266,10.9350694 L3.34818533,12.170018 C1.3282529,13.7680909 0.116525097,16.1687531 0.0346235521,18.7349651 L0.00344594595,19.7118425 C-0.0765250965,22.2186141 1.23988417,24.5648773 3.42670849,25.8128856" id="Fill-1" fill="#64CC75" mask="url(#mask-10)"></path>
            </g>
            <path d="M16.8716748,24.7014861 L15.6225741,24.7535709 C14.010252,24.8207316 12.404279,24.5163009 10.9308301,23.8640903 L9.93834396,23.4247745 C7.30733416,22.2602166 6.61036223,18.877147 8.57012789,16.7833287 L8.69943016,16.645203 C9.47794448,15.8133491 9.38341974,14.5121215 8.50805901,13.7809148 C7.43957404,12.8882875 7.28805016,11.3110434 8.16942826,10.234452 L9.28482024,8.87193437 C10.1011445,7.87471479 10.389362,6.55160124 10.0608708,5.30936237 L9.81103168,4.36469724 C9.5510531,3.38161429 9.96558793,2.34499061 10.8345049,1.80540337 L10.8719831,1.78210846 C11.1376,1.61711847 11.3283552,1.38496774 11.4393211,1.12468465 C11.6482231,0.634599108 11.1611009,0.130564796 10.6583903,0.317065006 C9.06937964,0.906529659 7.78284811,2.19573408 7.25260931,3.89180109 C6.64561356,5.8336858 5.9870201,7.93436104 5.62057681,9.10277006 C5.43304351,9.70082941 5.0683533,10.2289571 4.57383964,10.6187242 L3.04092782,11.8271478 C2.12666744,12.5478812 1.38117755,13.4354832 0.835350448,14.4288516 C0.630570525,14.8015702 1.14318366,15.1488805 1.41889268,14.8242546 C2.50836736,13.5420011 4.44017833,13.3779034 5.73381698,14.4577354 L6.24240275,14.882304 C6.42126536,15.0315605 6.52190223,15.2534258 6.51588487,15.4851069 L6.51470035,15.5286909 C6.50759322,15.8051302 6.29527975,16.0337585 6.0179124,16.0636286 L4.28287399,16.2505045 C3.55538882,16.32889 2.88641896,16.6822119 2.4151219,17.236969 L2.24800973,17.4336607 C1.76804198,17.9986093 1.10447353,18.3666784 0.383621668,18.4848907 C0.0288340553,18.543034 -0.231286671,18.8481692 -0.242705449,19.2044499 C-0.321262856,21.6565214 0.971143891,23.9515871 3.11801643,25.1723627 L4.59056507,26.0097115 C5.78906302,26.6912756 7.06602362,27.2271056 8.39382384,27.6057419 L8.39387122,27.6057419 C11.6905342,28.5458044 15.1900819,28.4968194 18.4532467,27.4724537 L18.4842337,27.4223884 C19.2396262,26.2025991 18.3143261,24.6413702 16.8716748,24.7014861" id="Fill-4" fill="#00B882"></path>
            <path d="M20.5135986,20.4992668 C19.1710662,20.0438894 18.1676209,18.929058 17.9712041,17.5603807 C17.9442575,17.3723483 17.9590536,17.1882248 18.0087335,17.0157368 C18.0345533,16.9260158 17.9518025,16.8402036 17.8524918,16.85243 C17.8484253,16.8528845 17.8443588,16.8534299 17.8402923,16.8539753 C17.1050399,16.950605 16.3850737,16.5992204 16.0299165,15.9942625 L15.8895488,15.7551428 C15.6978845,15.4285747 15.3114691,15.2387697 14.9136872,15.2839484 C14.1837262,15.3668517 13.6687507,15.9861722 13.7656118,16.6607615 C13.9478693,17.9314003 14.9253477,18.9521928 16.2087935,19.2982596 C16.4757615,19.3702091 16.69937,19.5425153 16.8309188,19.7697267 C17.4203651,20.7880648 18.6303198,21.3949771 19.9040648,21.2582139 L20.0283134,21.2448512 C20.2056226,21.2258525 20.3734269,21.1849463 20.5292767,21.1256322 C20.8368117,21.0086404 20.8256901,20.6050776 20.5135986,20.4992668" id="Fill-6" fill="#00B882"></path>
            <g id="Group-10" transform="translate(5.753906, 17.277344)">
                <mask id="mask-12" fill="white">
                    <use xlink:href="#path-11"></use>
                </mask>
                <g id="Clip-9"></g>
                <path d="M10.7728615,7.38020476 L10.7728615,7.38025238 C10.7386188,7.39758571 10.7121084,7.42787143 10.6988531,7.46487143 L9.42216276,11.0156333 C9.34852259,11.2205857 9.19811255,11.3862048 9.00499121,11.4750619 L7.14654351,12.3298714 C6.98039289,12.4063476 6.79003305,12.2953476 6.76711255,12.1087286 L6.31068159,8.38601429 C6.28559791,8.18158571 6.37889079,7.98101429 6.54899958,7.87372857 L8.09861883,6.89644286 C8.22445146,6.81715714 8.31696192,6.69191905 8.35787824,6.54558571 L9.4266272,2.72796667 C9.44153933,2.67458571 9.41277364,2.61858571 9.36163975,2.6015381 C9.31050586,2.5845381 9.25550586,2.61263333 9.23760209,2.66501429 L8.01457699,6.23491905 C7.96348912,6.38401429 7.85841381,6.50668095 7.72148912,6.57710952 L6.4152046,7.24887143 C6.33176109,7.29182381 6.23381967,7.22725238 6.23648912,7.13087143 C6.24118368,6.96010952 6.24652259,6.78939524 6.25117113,6.61863333 L6.28329665,5.76534762 C6.29314603,5.48082381 6.30745983,5.19668095 6.31956444,4.91234762 L6.36071088,4.0650619 L6.85018787,0.262538095 C6.86956444,0.111680952 6.73968159,-0.0140333333 6.59553096,0.0159666667 C6.50812929,0.0341571429 6.44079456,0.106442857 6.42634268,0.197490476 L5.82543891,3.99796667 L5.82484059,4.00163333 L5.82327573,4.0180619 L5.76367322,4.63501429 L4.50797029,4.02887143 C4.41071925,3.98191905 4.33974854,3.89115714 4.31567741,3.78291905 L3.7625477,1.29415714 C3.7504431,1.23982381 3.6991251,1.20491905 3.64605816,1.21515714 C3.59308326,1.22534762 3.55727573,1.27696667 3.5649159,1.33220476 L3.95281548,4.14487143 C3.96174435,4.20949048 3.99810418,4.26658571 4.05199958,4.3005381 L5.69394519,5.3355381 C5.68110418,5.4625381 5.6681251,5.5895381 5.65408745,5.71649048 L5.56277364,6.56520476 C5.54054351,6.75239524 5.50662301,7.06387143 5.48623389,7.25287143 C5.47472762,7.3595381 5.47099958,7.46687143 5.47509582,7.57415714 L5.60286151,10.9311095 C5.60769414,11.0585381 5.47647657,11.1428238 5.36827155,11.081681 L2.57275272,9.50334762 C2.37493682,9.39163333 2.22112092,9.21182381 2.13809163,8.99501429 L0.334735983,4.28944286 C0.300723431,4.20063333 0.204945188,4.15558571 0.117911715,4.18749048 C0.0308782427,4.21939524 -0.0161133891,4.31677619 0.0114556485,4.40787143 L1.55329665,9.50396667 C1.62049331,9.72601429 1.7605477,9.91682381 1.94925063,10.0433952 L5.32786151,12.3092048 C5.53856444,12.4505381 5.66978201,12.688919 5.67963138,12.9485381 L5.75870251,15.0254429 C5.76652678,15.2303476 5.75552678,15.4354905 5.72602469,15.6382524 L4.94479456,21.0000143 L7.18920879,21.0000143 L7.16348075,15.5310143 C7.1628364,15.3993952 7.15455188,15.2680143 7.13853515,15.1374429 L7.01933013,14.1654905 C6.98011674,13.845681 7.13043473,13.5328238 7.40055607,13.3721571 L9.63659372,12.0416333 C9.81659791,11.9345381 9.94832176,11.7580143 10.0029075,11.550681 L10.982736,7.55649048 C11.013895,7.42920476 10.8868657,7.32249048 10.7728615,7.38020476" id="Fill-8" fill="#009F70" mask="url(#mask-12)"></path>
            </g>
            <g id="Group-13" transform="translate(5.753906, 17.277344)">
                <mask id="mask-14" fill="white">
                    <use xlink:href="#path-13"></use>
                </mask>
                <g id="Clip-12"></g>
                <path d="M6.65435212,15.1740143 L6.49587754,14.085919 C6.46520805,13.8757286 6.56374195,13.6677762 6.74407669,13.5618714 L9.33313178,12.0416333 C9.51547076,11.9345381 9.64882246,11.7580143 9.70414873,11.550681 C9.70414873,11.550681 10.733814,8.39258571 10.9928267,7.36534762 C10.9660258,7.36215714 10.937547,7.36634762 10.909814,7.38020476 C10.875136,7.39758571 10.8482886,7.42787143 10.8348182,7.46482381 L9.54194534,11.0156333 C9.46736907,11.2206333 9.31504703,11.3862048 9.11947076,11.4750619 L7.23739873,12.3298714 C7.12916992,12.3791095 7.01096653,12.3503952 6.93410636,12.2742048 L6.81142839,12.3298714 C6.64316568,12.4063476 6.45038602,12.2953952 6.42717415,12.1087286 L5.9649411,8.38601429 C5.93953856,8.18158571 6.03406398,7.98101429 6.20628856,7.87377619 L8.01466992,6.75120476 C8.09330127,6.70239524 8.15244958,6.62663333 8.18153432,6.53744286 L9.46671653,2.59849048 C9.41917415,2.59010952 9.37153856,2.61734762 9.35499195,2.6650619 L8.11641992,6.23491905 C8.06472924,6.38401429 7.95831822,6.50668095 7.81965297,6.57710952 L6.49676314,7.24887143 C6.4122589,7.29182381 6.31307246,7.22725238 6.31572924,7.13087143 C6.31582246,7.12872857 6.31591568,7.12658571 6.31596229,7.12444286 L6.0707928,7.24887143 C5.98628856,7.29182381 5.88714873,7.22725238 5.88985212,7.13087143 C5.89460636,6.96010952 5.89996653,6.78939524 5.90467415,6.61863333 L5.93720805,5.76534762 C5.94718263,5.48082381 5.96167839,5.19668095 5.97393686,4.91234762 L6.01560636,4.0650619 L6.76537754,0.0162047619 C6.73806398,0.0104904762 6.70907246,0.00987142857 6.67933517,0.0160142857 C6.59086907,0.0341571429 6.52267839,0.106490476 6.5080428,0.197490476 L5.89950042,3.99796667 L5.89889449,4.00163333 L5.89730975,4.0180619 L5.83694958,4.63496667 L5.42994958,4.44096667 L5.41102585,4.63496667 L4.30133093,4.06058571 C4.19571229,4.00596667 4.12281398,3.90215714 4.10580127,3.78244286 L3.74289449,1.21901429 C3.72704703,1.21372857 3.70989449,1.21187143 3.69241568,1.21515714 C3.63876737,1.22534762 3.60245805,1.27696667 3.61014873,1.33220476 L4.00307246,4.14491905 C4.01211483,4.20949048 4.04893686,4.26658571 4.10347076,4.3005381 L5.76633517,5.3355381 C5.75333093,5.4625381 5.74018686,5.58958571 5.72597076,5.71649048 L5.63349619,6.56520476 C5.61103008,6.75239524 5.57663178,7.06391905 5.55598347,7.25287143 C5.54433093,7.3595381 5.54055551,7.46687143 5.5446572,7.57410952 L5.67409364,10.9311095 C5.67898771,11.0585381 5.54610212,11.1427762 5.43652161,11.0817286 L5.24416144,10.9745381 C5.22169534,11.0764429 5.10712754,11.1354905 5.01055127,11.0817286 L2.06492839,9.43944286 C1.93912754,9.36934762 1.84320381,9.25401429 1.79580127,9.11577619 L0.106136017,4.19387143 C0.026945339,4.23049048 -0.0148173729,4.32163333 0.0116105932,4.40791905 L1.57305127,9.50396667 C1.64105551,9.72601429 1.78289025,9.91682381 1.97403856,10.0433476 L5.39559788,12.3092048 C5.60897924,12.4505381 5.74186483,12.688919 5.75188602,12.9485381 L5.83186907,15.0254429 C5.8397928,15.2303476 5.82869958,15.4354905 5.79882246,15.6383 L5.00766144,21.0000143 L6.21258093,21.0000143 L6.66441992,15.4941571 C6.67313602,15.3873476 6.66978008,15.2799667 6.65435212,15.1740143" id="Fill-11" fill="#005639" mask="url(#mask-14)"></path>
            </g>
        </g>
        <g id="Group-233" transform="translate(232.000000, 163.000000)">
            <polygon id="Fill-31" fill="#0065C4" points="7 447 62 447 62 412 7 412"></polygon>
            <polygon id="Fill-32" fill="#1C417D" points="169.99995 489 170.00005 489 170.00005 456 169.99995 456"></polygon>
            <polygon id="Fill-33" fill="#1C417D" points="72 489 145 489 145 456 72 456"></polygon>
            <polygon id="Fill-34" fill="#0080F6" points="145 489 163 489 163 456 145 456"></polygon>
            <polygon id="Fill-35" fill="#B8DDFF" points="63 447 63 456.337348 63 489 70.9978913 489 70.9978913 456.337348 144.323135 456.337348 162.002462 456.337348 162.002462 489 170 489 170 456.337348 170 447"></polygon>
            <polygon id="Fill-36" fill="#3CA1FF" points="63 447 162 447 162 412 63 412"></polygon>
            <path d="M137.421951,446.293233 L161.293483,446.293233 L161.293483,435.686423 L137.421951,435.686423 L137.421951,446.293233 Z M112.732328,446.293233 L136.715787,446.293233 L136.715787,435.686423 L112.732328,435.686423 L112.732328,446.293233 Z M88.0430582,446.293233 L112.026517,446.293233 L112.026517,435.686423 L88.0430582,435.686423 L88.0430582,446.293233 Z M63.7061643,446.293233 L87.3365408,446.293233 L87.3365408,435.686423 L63.7061643,435.686423 L63.7061643,446.293233 Z M63.7065174,423.313224 L87.3368939,423.313224 L87.3368939,412.706414 L63.7065174,412.706414 L63.7065174,423.313224 Z M137.421951,434.979655 L161.293483,434.979655 L161.293483,424.019638 L137.421951,424.019638 L137.421951,434.979655 Z M112.732328,434.979655 L136.715787,434.979655 L136.715787,424.019638 L112.732328,424.019638 L112.732328,434.979655 Z M112.732328,423.313224 L136.715787,423.313224 L136.715787,412.706414 L112.732328,412.706414 L112.732328,423.313224 Z M88.0427051,423.313224 L112.026164,423.313224 L112.026164,412.706414 L88.0427051,412.706414 L88.0427051,423.313224 Z M63.7065174,434.980008 L87.3368939,434.980008 L87.3368939,424.019992 L63.7065174,424.019992 L63.7065174,434.980008 Z M88.0430582,434.979655 L112.026517,434.979655 L112.026517,424.019638 L88.0430582,424.019638 L88.0430582,434.979655 Z M137.422304,423.313224 L161.293836,423.313224 L161.293836,412.706414 L137.422304,412.706414 L137.422304,423.313224 Z M162,412 L63,412 L63,446.999647 L87.3368939,446.999647 L87.3368939,447 L88.0430582,447 L88.0430582,446.999647 L112.026164,446.999647 L112.026164,447 L112.732328,447 L112.732328,446.999647 L136.715787,446.999647 L136.715787,447 L137.421951,447 L137.421951,446.999647 L162,446.999647 L162,412 Z" id="Fill-37" fill="#B8DDFF"></path>
            <path d="M48.5689966,435.054888 L61.4379245,435.054888 L61.4379245,423.945112 L48.5689966,423.945112 L48.5689966,435.054888 Z M48.5689966,446.442992 L61.4379245,446.442992 L61.4379245,435.611543 L48.5689966,435.611543 L48.5689966,446.442992 Z M34.8567772,446.442992 L48.006921,446.442992 L48.006921,435.611543 L34.8567772,435.611543 L34.8567772,446.442992 Z M21.1445578,446.442992 L34.2947016,446.442992 L34.2947016,435.611543 L21.1445578,435.611543 L21.1445578,446.442992 Z M7.56207554,446.442992 L20.5824822,446.442992 L20.5824822,435.611543 L7.56207554,435.611543 L7.56207554,446.442992 Z M7.56207554,423.388104 L20.5824822,423.388104 L20.5824822,412.556654 L7.56207554,412.556654 L7.56207554,423.388104 Z M34.8567772,423.388104 L48.006921,423.388104 L48.006921,412.556654 L34.8567772,412.556654 L34.8567772,423.388104 Z M34.8567772,435.054535 L48.006921,435.054535 L48.006921,423.944758 L34.8567772,423.944758 L34.8567772,435.054535 Z M21.1445578,423.388104 L34.2947016,423.388104 L34.2947016,412.556654 L21.1445578,412.556654 L21.1445578,423.388104 Z M7.56207554,435.054888 L20.5824822,435.054888 L20.5824822,423.945112 L7.56207554,423.945112 L7.56207554,435.054888 Z M21.1445578,435.054535 L34.2947016,435.054535 L34.2947016,423.944758 L21.1445578,423.944758 L21.1445578,435.054535 Z M48.5689966,423.388104 L61.4379245,423.388104 L61.4379245,412.556654 L48.5689966,412.556654 L48.5689966,423.388104 Z M62,423.944758 L62,423.388104 L62,423.388104 L62,412 L7,412 L7,446.999647 L20.5824822,446.999647 L20.5824822,447 L21.1445578,447 L21.1445578,446.999647 L34.2947016,446.999647 L34.2947016,447 L34.8567772,447 L34.8567772,446.999647 L48.006921,446.999647 L48.006921,447 L48.5689966,447 L48.5689966,446.999647 L62,446.999647 L62,435.611543 L62,435.611543 L62,435.054888 L62,435.054888 L62,423.944758 L62,423.944758 Z" id="Fill-38" fill="#3CA1FF"></path>
            <polygon id="Fill-39" fill="#3CA1FF" points="0 489 62 489 62 447 0 447"></polygon>
            <polygon id="Fill-40" fill="#1C417D" points="5.03129747 458 4 458 17 458 17 453 5.03129747 453"></polygon>
            <polygon id="Fill-41" fill="#0065C4" points="4 453 4 453 3 453 3 458 3.00033003 458 4 458"></polygon>
            <polygon id="Fill-42" fill="#1C417D" points="22.0747995 458 21 458 31 458 31 453 22.0747995 453"></polygon>
            <polygon id="Fill-43" fill="#0065C4" points="21 453 21 453 20 453 20 458 20.00033 458 21 458"></polygon>
            <polygon id="Fill-44" fill="#1C417D" points="34.0748377 458 33 458 43 458 43 453 34.0748377 453"></polygon>
            <polygon id="Fill-45" fill="#0065C4" points="33 453 33 453 32 453 32 458 32.00033 458 33 458"></polygon>
            <polygon id="Fill-46" fill="#1C417D" points="47.0312975 453 47.0312975 458 46 458 59 458 59 453"></polygon>
            <polygon id="Fill-47" fill="#0065C4" points="47 453 47 453 46 453 46 458 46.00033 458 47 458"></polygon>
            <polygon id="Fill-48" fill="#1C417D" points="5.03129747 464 4 464 17 464 17 459 5.03129747 459"></polygon>
            <polygon id="Fill-49" fill="#0065C4" points="4 459 4 459 3 459 3 464 3.00033003 464 4 464"></polygon>
            <polygon id="Fill-50" fill="#1C417D" points="22.0747995 464 21 464 31 464 31 459 22.0747995 459"></polygon>
            <polygon id="Fill-51" fill="#0065C4" points="21 459 21 459 20 459 20 464 20.00033 464 21 464"></polygon>
            <polygon id="Fill-52" fill="#1C417D" points="34.0748377 464 33 464 43 464 43 459 34.0748377 459"></polygon>
            <polygon id="Fill-53" fill="#0065C4" points="33 459 33 459 32 459 32 464 32.00033 464 33 464"></polygon>
            <polygon id="Fill-54" fill="#1C417D" points="47.0312975 464 46 464 59 464 59 459 47.0312975 459"></polygon>
            <polygon id="Fill-55" fill="#0065C4" points="47 459 47 459 46 459 46 464 46.00033 464 47 464"></polygon>
            <polygon id="Fill-56" fill="#1C417D" points="5.03129747 473 4 473 17 473 17 468 5.03129747 468"></polygon>
            <polygon id="Fill-57" fill="#0065C4" points="4 468 4 468 3 468 3 473 3.00033003 473 4 473"></polygon>
            <polygon id="Fill-58" fill="#1C417D" points="22.0747995 473 21 473 31 473 31 468 22.0747995 468"></polygon>
            <polygon id="Fill-59" fill="#0065C4" points="21 468 21 468 20 468 20 473 20.00033 473 21 473"></polygon>
            <polygon id="Fill-60" fill="#1C417D" points="34.0748377 473 33 473 43 473 43 468 34.0748377 468"></polygon>
            <polygon id="Fill-61" fill="#0065C4" points="33 468 33 468 32 468 32 473 32.00033 473 33 473"></polygon>
            <polygon id="Fill-62" fill="#1C417D" points="47.0312975 473 46 473 59 473 59 468 47.0312975 468"></polygon>
            <polygon id="Fill-63" fill="#0065C4" points="47 468 47 468 46 468 46 473 46.00033 473 47 473"></polygon>
            <polygon id="Fill-64" fill="#1C417D" points="5.03129747 481 4 481 17 481 17 476 5.03129747 476"></polygon>
            <polygon id="Fill-65" fill="#0065C4" points="4 476 4 476 3 476 3 481 3.00033003 481 4 481"></polygon>
            <polygon id="Fill-66" fill="#1C417D" points="22.0747995 481 21 481 31 481 31 476 22.0747995 476"></polygon>
            <polygon id="Fill-67" fill="#0065C4" points="21 476 21 476 20 476 20 481 20.00033 481 21 481"></polygon>
            <polygon id="Fill-68" fill="#1C417D" points="34.0748377 481 33 481 43 481 43 476 34.0748377 476"></polygon>
            <polygon id="Fill-69" fill="#0065C4" points="33 476 33 476 32 476 32 481 32.00033 481 33 481"></polygon>
            <polygon id="Fill-70" fill="#1C417D" points="47.0312975 481 46 481 59 481 59 476 47.0312975 476"></polygon>
            <polygon id="Fill-71" fill="#0065C4" points="47 476 47 476 46 476 46 481 46.00033 481 47 481"></polygon>
            <polygon id="Fill-72" fill="#3CA1FF" points="72 489 145 489 145 473 72 473"></polygon>
            <polygon id="Fill-73" fill="#FFD4C8" points="97 488 102 488 102 477 97 477"></polygon>
            <polygon id="Fill-74" fill="#FFD4C8" points="103 488 108 488 108 477 103 477"></polygon>
            <polygon id="Fill-75" fill="#FFD4C8" points="110 488 115 488 115 477 110 477"></polygon>
            <polygon id="Fill-76" fill="#FFD4C8" points="116 488 121 488 121 477 116 477"></polygon>
            <polygon id="Fill-77" fill="#FFD4C8" points="71 488 78 488 78 482 71 482"></polygon>
            <polygon id="Fill-78" fill="#FFD4C8" points="80 488 87 488 87 482 80 482"></polygon>
            <polygon id="Fill-79" fill="#FFD4C8" points="71 482 78 482 78 476 71 476"></polygon>
            <polygon id="Fill-80" fill="#FFD4C8" points="80 482 87 482 87 476 80 476"></polygon>
            <polygon id="Fill-81" fill="#FFD4C8" points="129 488 136 488 136 482 129 482"></polygon>
            <polygon id="Fill-82" fill="#FFD4C8" points="137 488 144 488 144 482 137 482"></polygon>
            <polygon id="Fill-83" fill="#FFD4C8" points="129 482 136 482 136 476 129 476"></polygon>
            <polygon id="Fill-84" fill="#FFD4C8" points="137 482 144 482 144 476 137 476"></polygon>
            <polygon id="Fill-85" fill="#1C417D" points="96.95645 489 97.04355 489 97.04355 476 96.95645 476"></polygon>
            <polygon id="Fill-86" fill="#1C417D" points="101.9564 488 102.0436 488 102.0436 477 101.9564 477"></polygon>
            <polygon id="Fill-87" fill="#1C417D" points="107.9564 488 108.0436 488 108.0436 477 107.9564 477"></polygon>
            <polygon id="Fill-88" fill="#1C417D" points="108.9564 489 109.0436 489 109.0436 476 108.9564 476"></polygon>
            <polygon id="Fill-89" fill="#1C417D" points="114.9564 488 115.0436 488 115.0436 477 114.9564 477"></polygon>
            <polygon id="Fill-90" fill="#1C417D" points="119.9564 488 120.0436 488 120.0436 477 119.9564 477"></polygon>
            <polygon id="Fill-91" fill="#1C417D" points="77.97225 488 78.02775 488 78.02775 482 77.97225 482"></polygon>
            <polygon id="Fill-92" fill="#1C417D" points="85.9723 488 86.0277 488 86.0277 482 85.9723 482"></polygon>
            <polygon id="Fill-93" fill="#1C417D" points="70.9723 476 70.9723 482.500175 70.9723 489 71.0277 489 71.0277 482.500175 71.0277 476"></polygon>
            <polygon id="Fill-94" fill="#1C417D" points="77.97225 482 78.02775 482 78.02775 476 77.97225 476"></polygon>
            <polygon id="Fill-95" fill="#1C417D" points="78.97225 476 78.97225 482.500175 78.97225 489 79.02775 489 79.02775 482.500175 79.02775 476"></polygon>
            <polygon id="Fill-96" fill="#1C417D" points="85.9723 482 86.0277 482 86.0277 476 85.9723 476"></polygon>
            <polygon id="Fill-97" fill="#1C417D" points="134.97225 488 135.02775 488 135.02775 482 134.97225 482"></polygon>
            <polygon id="Fill-98" fill="#1C417D" points="142.97225 488 143.02775 488 143.02775 482 142.97225 482"></polygon>
            <polygon id="Fill-99" fill="#1C417D" points="127.9723 476 127.9723 482.500175 127.9723 489 128.0277 489 128.0277 482.500175 128.0277 476"></polygon>
            <polygon id="Fill-100" fill="#1C417D" points="134.97225 482 135.02775 482 135.02775 476 134.97225 476"></polygon>
            <polygon id="Fill-101" fill="#1C417D" points="135.97225 476 135.97225 482.500175 135.97225 489 136.02775 489 136.02775 482.500175 136.02775 476"></polygon>
            <polygon id="Fill-102" fill="#1C417D" points="142.97225 482 143.02775 482 143.02775 476 142.97225 476"></polygon>
            <path d="M108.699267,476 L107.947435,476 L97,476 L97,489 L107.947435,489 L108.699267,489 L109,489 L109,476 L108.699267,476 Z M103.451272,477.163351 L107.797413,477.163351 L108.098146,477.163351 L108.098146,487.836649 L107.797413,487.836649 L103.451272,487.836649 L103.451272,477.163351 Z M97.9021986,477.163351 L102.24834,477.163351 L102.549073,477.163351 L102.549073,487.836649 L102.24834,487.836649 L97.9021986,487.836649 L97.9021986,477.163351 Z" id="Fill-103" fill="#0065C4"></path>
            <path d="M120.699603,476 L119.94775,476 L109,476 L109,489 L119.94775,489 L120.699603,489 L121,489 L121,476 L120.699603,476 Z M115.451112,477.163351 L119.797724,477.163351 L120.098465,477.163351 L120.098465,487.836649 L119.797724,487.836649 L115.451112,487.836649 L115.451112,477.163351 Z M109.902225,477.163351 L114.248146,477.163351 L114.549233,477.163351 L114.549233,487.836649 L114.248146,487.836649 L109.902225,487.836649 L109.902225,477.163351 Z" id="Fill-104" fill="#0065C4"></path>
            <path d="M78.7997203,476 L78.2984799,476 L71,476 L71,482.500175 L71,489 L78.2984799,489 L78.7997203,489 L79,489 L79,482.500175 L79,476 L78.7997203,476 Z M71.6011999,476.58185 L78.1981596,476.58185 L78.3984393,476.58185 L78.3984393,481.918325 L78.1981596,481.918325 L71.6011999,481.918325 L71.6011999,476.58185 Z M71.6011999,483.081675 L78.1981596,483.081675 L78.3984393,483.081675 L78.3984393,488.418499 L78.1981596,488.418499 L71.6011999,488.418499 L71.6011999,483.081675 Z" id="Fill-105" fill="#0065C4"></path>
            <path d="M86.7997113,476 L86.2984482,476 L79,476 L79,482.500175 L79,489 L86.2984482,489 L86.7997113,489 L87,489 L87,482.500175 L87,476 L86.7997113,476 Z M79.6008661,476.58185 L86.1984843,476.58185 L86.398773,476.58185 L86.398773,481.918325 L86.1984843,481.918325 L79.6008661,481.918325 L79.6008661,476.58185 Z M79.6008661,483.081675 L86.1984843,483.081675 L86.398773,483.081675 L86.398773,488.418499 L86.1984843,488.418499 L79.6008661,488.418499 L79.6008661,483.081675 Z" id="Fill-106" fill="#0065C4"></path>
            <path d="M135.79972,476 L135.29848,476 L128,476 L128,482.500175 L128,489 L135.29848,489 L135.79972,489 L136,489 L136,482.500175 L136,476 L135.79972,476 Z M128.6012,476.58185 L135.19816,476.58185 L135.398439,476.58185 L135.398439,481.918325 L135.19816,481.918325 L128.6012,481.918325 L128.6012,476.58185 Z M128.6012,483.081675 L135.19816,483.081675 L135.398439,483.081675 L135.398439,488.418499 L135.19816,488.418499 L128.6012,488.418499 L128.6012,483.081675 Z" id="Fill-107" fill="#0065C4"></path>
            <path d="M144.79972,476 L144.29848,476 L137,476 L137,482.500175 L137,489 L144.29848,489 L144.79972,489 L145,489 L145,482.500175 L145,476 L144.79972,476 Z M137.601561,476.58185 L144.19852,476.58185 L144.3988,476.58185 L144.3988,481.918325 L144.19852,481.918325 L137.601561,481.918325 L137.601561,476.58185 Z M137.601561,483.081675 L144.19852,483.081675 L144.3988,483.081675 L144.3988,488.418499 L144.19852,488.418499 L137.601561,488.418499 L137.601561,483.081675 Z" id="Fill-108" fill="#0065C4"></path>
            <path d="M65,333 L80,333 L65,333 Z" id="Fill-109" fill="#1C417D"></path>
            <polygon id="Fill-110" fill="#1C417D" points="81 96 20 96 81 337"></polygon>
            <polygon id="Fill-111" fill="#0080F6" points="80 333 20 96 64.5782656 333"></polygon>
            <polygon id="Fill-112" fill="#1C417D" points="65 332.680361 20 96 20 412 65 412"></polygon>
            <polygon id="Fill-113" fill="#0065C4" points="80.724633 96 80.724633 96 80.724633 332.680361 65 332.680361 65 412 80.724633 412 117 412 117 112.696438"></polygon>
            <polygon id="Fill-114" fill="#0080F6" points="41.7583185 0 20 96 81 96 43 0"></polygon>
            <polygon id="Fill-115" fill="#0080F6" points="117 113 117 113 117 412 139 412 139 113"></polygon>
            <polygon id="Fill-116" fill="#B8DDFF" points="49 0 116 113 140 113 92.5352589 1.96023753e-16"></polygon>
            <polygon id="Fill-117" fill="#1C417D" points="20 96 20 412 65 412 65 332.327363"></polygon>
            <polygon id="Fill-118" fill="#B8DDFF" points="139 112.696419 139 412 146 412 146 96"></polygon>
            <polygon id="Fill-119" fill="#DFF0FF" points="91 0 139.556724 113 146 96.2605045 95.6147352 0"></polygon>
            <polygon id="Fill-120" fill="#3CA1FF" points="43 0 81.0488017 96.2605045 117 113 51.5750391 0"></polygon>
            <polygon id="Fill-121" fill="#0065C4" points="20 400 65 400 65 399 20 399"></polygon>
            <polygon id="Fill-122" fill="#0065C4" points="20 383 65 383 65 382 20 382"></polygon>
            <polygon id="Fill-123" fill="#0065C4" points="20 366 65 366 65 365 20 365"></polygon>
            <polygon id="Fill-124" fill="#0065C4" points="20 349 65 349 65 348 20 348"></polygon>
            <polygon id="Fill-125" fill="#0065C4" points="79.9553 332 80.0417 333 80.0447 333 80.0447 332"></polygon>
            <polygon id="Fill-126" fill="#0065C4" points="65 333 65 332.737467 64.8328488 332 20 332 20 333"></polygon>
            <polygon id="Fill-127" fill="#0065C4" points="75 315 75.3289925 316 80 316 80 315"></polygon>
            <polygon id="Fill-128" fill="#0065C4" points="62 316 61.7724316 315 20 315 20 316"></polygon>
            <polygon id="Fill-129" fill="#0065C4" points="58 299 57.7769929 298 20 298 20 299"></polygon>
            <polygon id="Fill-130" fill="#0065C4" points="71 298 71.3061731 299 80 299 80 298"></polygon>
            <polygon id="Fill-131" fill="#0065C4" points="55 283 54.7759805 282 20 282 20 283"></polygon>
            <polygon id="Fill-132" fill="#0065C4" points="67 282 67.2983301 283 80 283 80 282"></polygon>
            <polygon id="Fill-133" fill="#0065C4" points="62 265 62.3120135 266 80 266 80 265"></polygon>
            <polygon id="Fill-134" fill="#0065C4" points="52 266 51.7747663 265 20 265 20 266"></polygon>
            <polygon id="Fill-135" fill="#0065C4" points="50 248 49.7654683 247 20 247 20 248"></polygon>
            <polygon id="Fill-136" fill="#0065C4" points="58 247 58.3061757 248 80 248 80 247"></polygon>
            <polygon id="Fill-137" fill="#0065C4" points="54 231 54.3019147 232 80 232 80 231"></polygon>
            <polygon id="Fill-138" fill="#0065C4" points="46 232 45.771434 231 20 231 20 232"></polygon>
            <polygon id="Fill-139" fill="#0065C4" points="49 214 49.3094377 215 80 215 80 214"></polygon>
            <polygon id="Fill-140" fill="#0065C4" points="42 215 41.7790965 214 20 214 20 215"></polygon>
            <polygon id="Fill-141" fill="#0065C4" points="39 198 38.7775978 197 20 197 20 198"></polygon>
            <polygon id="Fill-142" fill="#0065C4" points="45 197 45.3057372 198 80 198 80 197"></polygon>
            <polygon id="Fill-143" fill="#0065C4" points="36 181 35.7758429 180 20 180 20 181"></polygon>
            <polygon id="Fill-144" fill="#0065C4" points="41 180 41.3034801 181 80 181 80 180"></polygon>
            <polygon id="Fill-145" fill="#0065C4" points="36 163 36.3080393 164 80 164 80 163"></polygon>
            <polygon id="Fill-146" fill="#0065C4" points="33 164 32.7723584 163 20 163 20 164"></polygon>
            <polygon id="Fill-147" fill="#0065C4" points="32 146 32.3060506 147 80 147 80 146"></polygon>
            <polygon id="Fill-148" fill="#0065C4" points="30 147 29.7671471 146 20 146 20 147"></polygon>
            <polygon id="Fill-149" fill="#0065C4" points="27 129 27.3095807 130 80 130 80 129"></polygon>
            <polygon id="Fill-150" fill="#0065C4" points="27 130 26.7568079 129 20 129 20 130"></polygon>
            <polygon id="Fill-151" fill="#0065C4" points="20 112 20 113 24 113 23.7268666 112"></polygon>
            <polygon id="Fill-152" fill="#0065C4" points="23 112 23.3078346 113 80 113 80 112"></polygon>
            <polygon id="Fill-153" fill="#0065C4" points="20.1390361 97 80 97 80 96 20 96"></polygon>
            <polygon id="Fill-154" fill="#0065C4" points="19.9852 97 20.0148 97 19.9852 96"></polygon>
            <polygon id="Fill-155" fill="#EFF7FF" points="139 400 146 400 146 399 139 399"></polygon>
            <polygon id="Fill-156" fill="#EFF7FF" points="139 383 146 383 146 382 139 382"></polygon>
            <polygon id="Fill-157" fill="#EFF7FF" points="139 366 146 366 146 365 139 365"></polygon>
            <polygon id="Fill-158" fill="#EFF7FF" points="139 349 146 349 146 348 139 348"></polygon>
            <polygon id="Fill-159" fill="#EFF7FF" points="139 333 146 333 146 332 139 332"></polygon>
            <polygon id="Fill-160" fill="#EFF7FF" points="139 316 146 316 146 315 139 315"></polygon>
            <polygon id="Fill-161" fill="#EFF7FF" points="139 299 146 299 146 298 139 298"></polygon>
            <polygon id="Fill-162" fill="#EFF7FF" points="139 283 146 283 146 282 139 282"></polygon>
            <polygon id="Fill-163" fill="#EFF7FF" points="139 266 146 266 146 265 139 265"></polygon>
            <polygon id="Fill-164" fill="#EFF7FF" points="139 248 146 248 146 247 139 247"></polygon>
            <polygon id="Fill-165" fill="#EFF7FF" points="139 232 146 232 146 231 139 231"></polygon>
            <polygon id="Fill-166" fill="#EFF7FF" points="139 215 146 215 146 214 139 214"></polygon>
            <polygon id="Fill-167" fill="#EFF7FF" points="139 198 146 198 146 197 139 197"></polygon>
            <polygon id="Fill-168" fill="#EFF7FF" points="139 181 146 181 146 180 139 180"></polygon>
            <polygon id="Fill-169" fill="#EFF7FF" points="139 164 146 164 146 163 139 163"></polygon>
            <polygon id="Fill-170" fill="#EFF7FF" points="139 147 146 147 146 146 139 146"></polygon>
            <polygon id="Fill-171" fill="#EFF7FF" points="139 130 146 130 146 129 139 129"></polygon>
            <polygon id="Fill-172" fill="#EFF7FF" points="138 112 138.214821 112.398101 138.214821 113 145 113 145 112"></polygon>
            <polygon id="Fill-173" fill="#EFF7FF" points="131.479062 96 144 96 144 95.5384159 143.685762 95 131 95"></polygon>
            <polygon id="Fill-174" fill="#EFF7FF" points="124 79 124.487666 80 136 80 135.405934 79"></polygon>
            <polygon id="Fill-175" fill="#EFF7FF" points="116 61 116.511229 62 127 62 126.37723 61"></polygon>
            <polygon id="Fill-176" fill="#EFF7FF" points="110 44 110.488444 45 119 45 118.404987 44"></polygon>
            <polygon id="Fill-177" fill="#EFF7FF" points="102 29 102.521684 30 110 30 109.364495 29"></polygon>
            <polygon id="Fill-178" fill="#EFF7FF" points="94 11 94.5716733 12 101 12 100.303598 11"></polygon>
            <polygon id="Fill-179" fill="#3CA1FF" points="25 129 25.2752568 130 28 130 27.6305651 129"></polygon>
            <polygon id="Fill-180" fill="#3CA1FF" points="22 112 22.3317853 113 24 113 23.5546956 112"></polygon>
            <polygon id="Fill-181" fill="#3CA1FF" points="37 164 36.6748549 163 32 163 32.2418808 164"></polygon>
            <polygon id="Fill-183" fill="#3CA1FF" points="58 248 57.7013584 247 48 247 48.2222529 248"></polygon>
            <polygon id="Fill-184" fill="#3CA1FF" points="20.00965 97 20.01995 97 19.98005 96"></polygon>
            <polygon id="Fill-185" fill="#3CA1FF" points="29 146 29.2536489 147 33 147 32.6591716 146"></polygon>
            <polygon id="Fill-186" fill="#3CA1FF" points="50 215 49.6950633 214 42 214 42.2265849 215"></polygon>
            <polygon id="Fill-187" fill="#3CA1FF" points="54 232 53.6989418 231 45 231 45.224311 232"></polygon>
            <polygon id="Fill-188" fill="#3CA1FF" points="42 181 41.631287 180 35 180 35.2739743 181"></polygon>
            <polygon id="Fill-189" fill="#3CA1FF" points="46 198 45.6907602 197 39 197 39.2300486 198"></polygon>
            <polygon id="Fill-190" fill="#3CA1FF" points="79.7488283 95 20.1453233 95 20 96 80 96"></polygon>
            <polygon id="Fill-191" fill="#3CA1FF" points="87.6977951 62 118 62 117.490471 61 87 61"></polygon>
            <polygon id="Fill-192" fill="#3CA1FF" points="77.6840628 45 110 45 109.500148 44 77 44"></polygon>
            <polygon id="Fill-193" fill="#3CA1FF" points="67.6723502 30 102 30 101.50905 29 67 29"></polygon>
            <polygon id="Fill-194" fill="#3CA1FF" points="73.5230475 79 23.2756043 79 23 80 74 80"></polygon>
            <polygon id="Fill-195" fill="#3CA1FF" points="96.6894747 80 124 80 123.496194 79 96 79"></polygon>
            <polygon id="Fill-196" fill="#3CA1FF" points="106.706616 96 132 96 131.48403 95 106 95"></polygon>
            <polygon id="Fill-197" fill="#3CA1FF" points="95 12 94.5030181 11 57 11 57.6797878 12"></polygon>
            <polygon id="Fill-198" fill="#3CA1FF" points="60.5181375 44 31.2786501 44 31 45 61 45"></polygon>
            <polygon id="Fill-199" fill="#3CA1FF" points="67.527021 61 28.2733082 61 28 62 68 62"></polygon>
            <polygon id="Fill-200" fill="#3CA1FF" points="46.5430821 11 39.2642252 11 39 12 47 12"></polygon>
            <polygon id="Fill-201" fill="#3CA1FF" points="53.5232604 29 35.2754813 29 35 30 54 30"></polygon>
            <polygon id="Fill-202" fill="#3CA1FF" points="65 383 139 383 139 382 65 382"></polygon>
            <polygon id="Fill-203" fill="#3CA1FF" points="80 215 138 215 138 214 80 214"></polygon>
            <polygon id="Fill-204" fill="#3CA1FF" points="80 232 138 232 138 231 80 231"></polygon>
            <polygon id="Fill-205" fill="#3CA1FF" points="80 198 138 198 138 197 80 197"></polygon>
            <polygon id="Fill-206" fill="#3CA1FF" points="80 248 138 248 138 247 80 247"></polygon>
            <polygon id="Fill-207" fill="#3CA1FF" points="80 266 138 266 138 265 80 265"></polygon>
            <polygon id="Fill-208" fill="#3CA1FF" points="80 164 138 164 138 163 80 163"></polygon>
            <polygon id="Fill-209" fill="#3CA1FF" points="80 130 138 130 138 129 80 129"></polygon>
            <polygon id="Fill-210" fill="#3CA1FF" points="80 181 138 181 138 180 80 180"></polygon>
            <polygon id="Fill-211" fill="#3CA1FF" points="63 266 62.6766366 265 51 265 51.2406512 266"></polygon>
            <polygon id="Fill-212" fill="#3CA1FF" points="80 283 138 283 138 282 80 282"></polygon>
            <polygon id="Fill-213" fill="#3CA1FF" points="80 147 138 147 138 146 80 146"></polygon>
            <polygon id="Fill-214" fill="#3CA1FF" points="137.799676 112 115.580243 112 115.854501 112.398101 114.837037 112 80 112 80 113 138 113 138 112.398101"></polygon>
            <polygon id="Fill-215" fill="#3CA1FF" points="64.170083 333 80 333 79.6899753 332 64 332 64.170083 332.737467"></polygon>
            <polygon id="Fill-216" fill="#3CA1FF" points="75 316 74.7082348 315 61 315 61.2171354 316"></polygon>
            <polygon id="Fill-217" fill="#3CA1FF" points="68 283 67.7057453 282 56 282 56.2189009 283"></polygon>
            <polygon id="Fill-218" fill="#3CA1FF" points="65 400 139 400 139 399 65 399"></polygon>
            <polygon id="Fill-219" fill="#3CA1FF" points="71 299 70.7072744 298 58 298 58.2177634 299"></polygon>
            <polygon id="Fill-220" fill="#3CA1FF" points="80 333 138 333 138 332 80 332"></polygon>
            <polygon id="Fill-221" fill="#3CA1FF" points="80 316 138 316 138 315 80 315"></polygon>
            <polygon id="Fill-222" fill="#3CA1FF" points="80 299 138 299 138 298 80 298"></polygon>
            <polygon id="Fill-223" fill="#3CA1FF" points="65 349 139 349 139 348 65 348"></polygon>
            <polygon id="Fill-224" fill="#3CA1FF" points="65 366 139 366 139 365 65 365"></polygon>
            <polygon id="Fill-226" fill="#0065C4" points="80 95 80 96 107 96 106.305178 95"></polygon>
            <polygon id="Fill-227" fill="#0065C4" points="73 79 73.4770719 80 97 80 96.3011754 79"></polygon>
            <polygon id="Fill-228" fill="#0065C4" points="67 61 67.4574481 62 87 62 86.3302631 61"></polygon>
            <polygon id="Fill-229" fill="#0065C4" points="59 44 59.4843586 45 77 45 76.290333 44"></polygon>
            <polygon id="Fill-230" fill="#0065C4" points="54 29 54.4582741 30 68 30 67.3287107 29"></polygon>
            <polygon id="Fill-231" fill="#0065C4" points="46 11 46.5003904 12 58 12 57.2668437 11"></polygon>
            <path d="M126.498221,473.263519 L144.290975,473.263519 L144.290975,464.674642 L126.498221,464.674642 L126.498221,473.263519 Z M108.175719,473.263519 L125.788845,473.263519 L125.788845,464.674642 L108.175719,464.674642 L108.175719,473.263519 Z M89.8532169,473.263519 L107.466694,473.263519 L107.466694,464.674642 L89.8532169,464.674642 L89.8532169,473.263519 Z M145,456 L144.290975,456 L144.290975,463.93816 L126.498221,463.93816 L126.498221,456 L125.788845,456 L125.788845,463.93816 L108.175719,463.93816 L108.175719,456 L107.466694,456 L107.466694,463.93816 L89.8532169,463.93816 L89.8532169,456 L89.1438409,456 L89.1438409,463.93816 L72,463.93816 L72,464.674642 L89.1438409,464.674642 L89.1438409,473.263519 L72,473.263519 L72,474 L145,474 L145,456 Z" id="Fill-232" fill="#0080F6"></path>
        </g>
        <g id="Group-10" transform="translate(160.683594, 594.542969)">
            <g id="Group-3" transform="translate(0.316406, -0.542969)">
                <mask id="mask-16" fill="white">
                    <use xlink:href="#path-15"></use>
                </mask>
                <g id="Clip-2"></g>
                <path d="M15.7009026,36.5370481 L16.1267458,36.2783595 C17.9930641,35.1443241 20.1702613,34.6489772 22.336152,34.8654329 L26.3656057,35.2681367 C30.1866033,35.6498684 33.8925416,33.8124 35.9375772,30.522081 L38.3687411,26.6102937 C40.2497862,23.5838582 40.4389549,19.7841468 38.8681235,16.5814684 L35.7945843,10.3150278 C34.3007126,7.2692557 31.4133967,5.17088608 28.0855107,4.712 C27.6715439,4.6549519 27.2646081,4.59876962 26.8781948,4.54528101 C25.047981,4.29246076 23.3216152,3.53813671 21.8842755,2.3635038 L21.7866983,2.2837519 C18.5023278,-0.400202532 13.9190499,-0.742010127 10.2818052,1.42572152 L9.17026128,2.08817215 C6.34783848,3.77036962 4.50223278,6.73004051 4.21586698,10.033443 L3.76703088,15.209043 C3.63429929,16.7407797 3.1632304,18.2225873 2.38869359,19.5451797 L1.41729216,21.2038076 C0.0144418052,23.5992506 -0.366555819,26.4690684 0.361805226,29.1544658 L0.714774347,30.4558937 C1.46945368,33.2384557 3.34631829,35.5705975 5.88532067,36.8807797 C8.99705463,38.4864962 12.7061283,38.3566228 15.7009026,36.5370481" id="Fill-1" fill="#FFCFA9" mask="url(#mask-16)"></path>
            </g>
            <path d="M14.2870134,16.4726193 C14.6304531,16.8536961 15.1253768,17.0668119 15.6413,17.0557594 L16.8459165,17.0295922 C19.5110587,16.9719678 22.1458469,17.5980901 24.4937989,18.8472172 L25.3046719,19.2784557 C25.726574,19.5030019 26.1640349,19.0068652 25.8822578,18.6236156 L25.2590454,17.7758756 C24.37286,16.5704863 23.1785525,15.619967 21.7987799,15.0219956 L20.5414735,14.4771143 C19.5805485,14.0606127 18.5709424,13.7637997 17.5360414,13.593666 L16.6279973,13.4443149 C15.947895,13.3324669 15.2499429,13.4709544 14.6658662,13.8335158 C13.7414042,14.4075872 13.5607117,15.6664443 14.2870134,16.4725248 L14.2870134,16.4726193 Z M35.5016258,31.3408504 C33.3592794,33.7913992 30.1255239,35.0992843 26.8043334,34.7748873 L22.7563641,34.379546 C20.5803228,34.166997 18.3929227,34.6534037 16.5180355,35.7668773 L16.0902153,36.0209915 C13.0815379,37.807726 9.355245,37.935161 6.22906494,36.3584249 C3.6781799,35.0718891 1.79260202,32.7818384 1.03451457,30.0496857 L0.679906807,28.7715574 C-0.051835625,26.1346267 0.330930766,23.3166042 1.74019834,20.9644892 L2.71610946,19.3357022 C3.49433749,18.0370747 3.96759329,16.5818222 4.10103653,15.0776362 L4.55176544,9.99573018 C4.71899903,8.11075075 5.41542386,6.34016994 6.52582821,4.86337914 C7.07640091,4.13117129 8.24522247,4.44527155 8.34802532,5.35214749 C8.46256887,6.36331417 8.75694582,7.36125557 9.23382883,8.29807731 L9.87298189,9.55362816 C10.8567201,11.4860296 10.827607,13.771546 9.79480591,15.6788194 L8.86261225,17.4003723 C8.19806871,18.6275832 8.00525372,20.0524176 8.32129849,21.4105588 C8.8673849,23.7570058 11.4657101,25.0063219 13.6784053,24.0049797 L15.6912219,23.0942306 C18.7300625,21.7190855 22.293799,22.1676113 24.8881151,24.2517255 L25.436397,24.6921272 C27.415996,26.2824664 30.1260966,26.6484286 32.4638352,25.641324 C34.2279969,24.8813431 36.2152322,26.1026027 36.3090624,28.0044915 L36.3090624,28.004586 C36.3670024,29.1797461 36.0806435,30.3352572 35.5016258,31.3408504 L35.5016258,31.3408504 Z" id="Fill-4" fill="#E98C55"></path>
            <path d="M25.821576,32.6369952 L23.6450339,36.8473598 C23.5618404,37.0083913 23.4283393,37.136895 23.2655854,37.2127302 L20.2026077,38.6394147 C20.0003532,38.7336886 19.7681936,38.5909066 19.7570142,38.3652923 L19.5466546,34.1328959 C19.5349162,33.8963128 19.6418661,33.6697529 19.8310779,33.5309424 L21.6505303,32.1954114 C21.7969809,32.0878995 21.8907018,31.9216673 21.9077504,31.7390766 L22.2201223,28.4003437 C22.229718,28.2982215 22.1580765,28.2066898 22.0579274,28.1931681 L22.0111601,28.1868327 C21.9109179,28.173311 21.8181286,28.2424326 21.8009868,28.3436092 L21.2439717,31.3636831 C21.2106197,31.5441935 21.0894161,31.695391 20.9220041,31.76508 L19.7208674,32.2651003 C19.5996637,32.3155941 19.4653242,32.2311542 19.4557286,32.098679 L19.4119424,31.4934161 C19.3956391,31.2683691 19.3366676,31.0486173 19.2381955,30.8463587 L17.1398163,26.5337774 C17.1041353,26.4604953 17.013675,26.4346811 16.9456668,26.4783667 C16.893403,26.5120292 16.8701125,26.5771794 16.8891175,26.6369397 L18.3473811,31.2319644 C18.4082159,31.4238217 18.4343012,31.6253239 18.4240534,31.8265424 L18.1966451,36.3299408 C18.1812734,36.6331869 17.8644297,36.8206945 17.5968687,36.6849099 L15.2704291,35.5039805 C15.0356611,35.384838 14.8483124,35.1874963 14.7396856,34.9448616 L12.7724784,30.5504881 C12.7314872,30.4587673 12.6264006,30.4163109 12.5344497,30.4540394 L12.4320648,30.4961175 C12.3421635,30.5330895 12.2955826,30.6342661 12.3253944,30.7280672 L13.9976509,35.9822526 C14.0396669,36.114255 14.1281708,36.2259275 14.2463001,36.2958055 L17.5693859,38.2620354 C17.885298,38.4489757 18.0719013,38.7992169 18.0531758,39.1698826 L17.381292,52.4731859 C17.3593058,52.9097581 17.3235316,53.3456685 17.2742489,53.7799714 L16.8568835,57.4570312 L20.9822798,57.4570312 L20.565846,53.7881033 C20.5160044,53.3483161 20.4800439,52.9071105 20.4580577,52.4649594 L19.9062596,41.3661711 C19.8804538,40.8464827 20.1457789,40.35658 20.5918382,40.1002344 L24.0224329,38.1286147 C24.2492822,37.9983144 24.4246129,37.7922735 24.5186133,37.5454782 L26.3045274,32.8595837 C26.3381588,32.7711724 26.2980992,32.6715087 26.2131355,32.6323619 L26.0501953,32.5572832 C25.9652317,32.5181364 25.8648963,32.5531227 25.821576,32.6369952" id="Fill-6" fill="#D95B26"></path>
            <path d="M26.3064418,32.5569484 C26.2198931,32.517801 26.117686,32.5527878 26.0735576,32.6366615 L23.8564127,36.8470826 C23.7779306,36.9961073 23.654371,37.1152515 23.5050935,37.1926006 C23.3027671,37.5744292 22.9844731,37.883542 22.5930112,38.0720923 L20.2951066,39.1784306 C19.8032408,39.4153005 19.2324183,39.0562606 19.2353602,38.5120746 L19.2547198,34.940682 C19.2557637,34.7475929 19.3346254,34.563014 19.4735588,34.4282677 L19.6861344,34.2223185 L19.6815792,34.1325822 C19.6696218,33.895996 19.7786617,33.6694331 19.9713084,33.5306207 L21.479077,32.4441397 C21.5982712,32.2694895 21.6771329,32.0693085 21.7060774,31.8575913 L22.2075281,28.1885194 L22.1920594,28.1864391 C22.0899472,28.1728227 21.995427,28.2420397 21.9779654,28.3431231 L21.4105593,31.3632377 C21.3765852,31.5438451 21.2531205,31.6950446 21.0825855,31.7647345 L20.9549452,31.8168364 C20.8749446,32.0330925 20.7076362,32.20831 20.4905054,32.2971007 L19.2183731,32.8170797 C19.0702345,32.8776919 18.9060578,32.7763249 18.8942902,32.6172769 L18.8535782,32.0647697 C18.8369707,31.8390577 18.7935066,31.6161826 18.7241348,31.4005884 L17.1342779,26.4601731 C17.1003986,26.4529866 17.0638622,26.4578091 17.0319758,26.4779501 C16.9788319,26.5115185 16.955107,26.5767641 16.9744665,26.6364308 L18.4599336,31.2315172 C18.5219981,31.4234717 18.5483803,31.6249765 18.5380362,31.8261032 L18.3063857,36.3295621 C18.2908221,36.6328123 17.9679729,36.8203225 17.6954206,36.684536 L17.6286111,36.6513458 L17.6105801,37.0017809 C17.597389,37.2580353 17.3244571,37.416705 17.0941352,37.3018161 L14.8416876,36.1794973 C14.4727171,35.9955803 14.1924779,35.6726619 14.0632243,35.2822285 L12.4727031,30.4802473 L12.4342686,30.495755 C12.3425954,30.5327275 12.2951455,30.6339054 12.3256083,30.7277078 L14.0289655,35.9818693 C14.0718602,36.113968 14.1621099,36.225642 14.2824429,36.295521 L17.6674251,38.2617773 C17.9891356,38.4487201 18.1793148,38.7989661 18.16024,39.1695421 L17.4758224,52.4731189 C17.4533311,52.909697 17.4169845,53.3456132 17.3667824,53.7798274 L16.9416312,57.4570312 L19.9125654,57.4570312 L19.5495735,54.3167324 C19.5021236,53.9062525 19.4678648,53.4944488 19.4469868,53.0818886 L19.3231425,42.1222362 C19.3176383,41.6329888 19.5693127,41.1766479 19.9866822,40.9190696 L20.1280829,40.8318864 C20.237882,40.527407 20.4534945,40.2651008 20.7462605,40.100001 L23.9286315,38.3044234 C24.0169833,38.1805513 24.0913847,38.0461832 24.1492736,37.9034939 L26.3164062,32.5614872 L26.3064418,32.5569484 Z" id="Fill-8" fill="#AD330D"></path>
        </g>
        <g id="Group-10" transform="translate(435.912109, 607.968750)">
            <g id="Group-3" transform="translate(0.087891, 0.031250)">
                <mask id="mask-18" fill="white">
                    <use xlink:href="#path-17"></use>
                </mask>
                <g id="Clip-2"></g>
                <path d="M10.8034371,29.9552515 C12.0536987,29.2007441 13.5122207,28.8711751 14.9631683,29.0151895 L17.6625318,29.2831203 C20.2222489,29.5370977 22.7048868,28.3145755 24.0748727,26.1254285 L25.703529,23.5228003 C26.9636563,21.5092229 27.0903819,18.9811621 26.0380693,16.850325 L24.0052619,10.6077168 C23.0045052,8.58127413 19.4081754,1.88044404 14.9631683,1.88044404 C11.9998303,1.88044404 9.05985149,3.65613095 6.14323197,7.20750475 C4.25246818,8.32672067 3.01608204,10.2958776 2.82424328,12.4937294 L2.52356436,15.9372097 C2.43464639,16.9563196 2.11907355,17.9422102 1.60020509,18.8221702 L0.949455446,19.9257046 C0.00967468175,21.5194639 -0.245558699,23.4288389 0.242376238,25.2155136 L0.478833098,26.0813921 C0.984398868,27.9327133 2.2417256,29.4843564 3.94262376,30.3560596 C6.02719943,31.4243904 8.51193777,31.3379818 10.5181612,30.1273647 L10.8034371,29.9552515 Z" id="Fill-1" fill="#FFCFA9" mask="url(#mask-18)"></path>
            </g>
            <path d="M11.9549702,16.8772514 C12.1839301,17.1286602 12.5138792,17.2692597 12.857828,17.261968 L13.6609056,17.2447046 C15.4376671,17.2066879 17.1941926,17.6197612 18.759494,18.4438511 L19.3000759,18.7283531 C19.581344,18.8764936 19.8729846,18.5491761 19.6851332,18.2963338 L19.2696582,17.7370521 C18.678868,16.9418175 17.882663,16.3147289 16.9628146,15.9202277 L16.1246103,15.5607518 C15.4839936,15.285972 14.810923,15.0901549 14.1209889,14.9779121 L13.5156262,14.8793803 C13.0622246,14.8055905 12.5969233,14.8969552 12.2075388,15.1361488 C11.5912308,15.5148824 11.4707692,16.3453915 11.9549702,16.8771891 L11.9549702,16.8772514 Z M17.7465087,29.2617522 L15.0478625,29.0009327 C13.5971683,28.8607071 12.1389016,29.1816055 10.8889768,29.9162003 L10.6037633,30.0838478 C8.59797837,31.2626148 6.11378313,31.3466878 4.02966309,30.3064636 C2.32907306,29.457694 1.07202114,27.9468729 0.566629507,26.1443827 L0.330224329,25.3011598 C-0.157603958,23.5614907 0.0975736354,21.7023494 1.03708535,20.1505824 L1.68769277,19.0760186 C2.20651145,18.2192717 2.52201532,17.2591942 2.61097748,16.2668337 L2.91146342,12.9141346 C3.02295248,11.6705522 3.4872357,10.5024423 4.22750526,9.5281553 C4.59455373,9.04509391 8.92735473,4.48697891 8.99588996,5.08527453 C9.07225233,5.75237414 5.714917,11.1760858 6.03283901,11.7941376 L6.45894105,12.6224655 C7.11476656,13.8973337 7.09535779,15.4051633 6.40682373,16.6634538 L5.78536129,17.7992183 C5.34233226,18.6088494 5.21378894,19.5488591 5.42448545,20.4448691 C5.78854306,21.9928967 7.52075984,22.8171112 8.99588996,22.1564931 L10.3377677,21.5556423 C12.3636615,20.6484142 14.7394858,20.9443213 16.4690299,22.3192794 L16.8345511,22.6098267 C18.1542838,23.6590253 19.9610175,23.9004625 21.5195099,23.2360428 C22.6956177,22.7346586 24.0204412,23.5403634 24.0829947,24.7951014 C24.1216214,25.5704552 23.9307154,26.3327835 23.5447037,26.9962061 C22.1164728,28.612913 19.9606357,29.4757675 17.7465087,29.2617522 Z" id="Fill-4" fill="#E98C55"></path>
            <path d="M17.7344404,27.2176772 L16.1797676,30.0698596 C16.1203436,30.1789455 16.0249857,30.2659964 15.9087329,30.3173686 L13.7208917,31.2838323 C13.5764241,31.3476953 13.4105959,31.250972 13.4026106,31.0981365 L13.2523537,28.2310292 C13.2439692,28.0707633 13.3203619,27.9172873 13.4555133,27.8232543 L14.7551221,26.9185398 C14.8597296,26.8457091 14.9266731,26.7331002 14.9388507,26.6094098 L15.1619735,24.3476875 C15.1688276,24.2785079 15.1176551,24.2165026 15.04612,24.2073427 L15.0127148,24.203051 C14.9411132,24.1938911 14.8748352,24.2407154 14.862591,24.3092544 L14.4647231,26.3551109 C14.4409002,26.4773922 14.3543262,26.5798163 14.2347462,26.6270249 L13.3767914,26.9657484 C13.2902174,26.9999539 13.1942606,26.9427526 13.1874066,26.8530114 L13.1561308,26.4429946 C13.1444855,26.2905434 13.102363,26.1416793 13.0320258,26.0046654 L11.5331835,23.0832394 C11.5076971,23.0335966 11.4430826,23.0161096 11.3945053,23.0457031 C11.357174,23.0685067 11.340538,23.1126407 11.354113,23.1531235 L12.3957298,26.2658822 C12.4391832,26.39585 12.4578156,26.5323515 12.4504957,26.6686608 L12.2880613,29.71935 C12.2770815,29.9247748 12.0507645,30.0517961 11.8596495,29.9598129 L10.197907,29.1598285 C10.0302155,29.0791191 9.89639505,28.945436 9.81880447,28.7810706 L8.41365648,25.8042369 C8.38437702,25.7421034 8.30931513,25.7133427 8.24363597,25.7389007 L8.17050386,25.7674052 C8.10628868,25.7924508 8.07301656,25.8609897 8.09431071,25.9245324 L9.28877967,29.4838193 C9.31879112,29.5732403 9.38200814,29.6488894 9.46638622,29.6962261 L11.840019,31.0281883 C12.0656704,31.1548253 12.1989585,31.3920855 12.1855832,31.6431815 L11.7056662,40.6550967 C11.6899617,40.9508392 11.6644087,41.2461333 11.6292068,41.5403385 L11.3310887,44.03125 L14.2778003,44.03125 L13.9803476,41.5458472 C13.9447465,41.2479268 13.9190604,40.9490456 13.9033559,40.6495239 L13.5092145,33.1309899 C13.4907817,32.7789429 13.6802997,32.4470733 13.9989135,32.2734199 L16.4493382,30.9378065 C16.6113734,30.8495386 16.7366097,30.7099625 16.8037528,30.5427786 L18.0794057,27.368463 C18.1034282,27.3085714 18.0748142,27.2410573 18.0141258,27.2145385 L17.89774,27.1636787 C17.8370516,27.1371599 17.7653835,27.1608603 17.7344404,27.2176772" id="Fill-6" fill="#D95B26"></path>
            <path d="M17.0814849,27.1634519 C17.0258465,27.1369328 16.9601419,27.1606335 16.9317736,27.2174511 L15.5064662,30.0696719 C15.4560134,30.1706241 15.3765822,30.2513347 15.2806182,30.3037325 C15.1505512,30.5623905 14.9459336,30.7717895 14.6942795,30.8995172 L13.2170552,31.6489722 C12.9008557,31.8094324 12.5338984,31.5662118 12.5357896,31.1975697 L12.548235,28.7782392 C12.5489061,28.6474369 12.5996029,28.5223996 12.6889172,28.4311198 L12.825573,28.2916059 L12.8226447,28.2308168 C12.8149578,28.0705487 12.8850549,27.9170706 13.0088992,27.8230364 L13.978179,27.0870331 C14.0548038,26.9687217 14.1055006,26.8331152 14.1241078,26.6896939 L14.446469,24.2041936 L14.4365248,24.2027844 C14.3708812,24.1935603 14.3101182,24.2404493 14.2988929,24.3089251 L13.9341319,26.3548092 C13.9122914,26.4771561 13.8329212,26.5795816 13.7232916,26.6267909 L13.6412371,26.6620857 C13.5898082,26.8085818 13.4822528,26.9272775 13.3426687,26.9874261 L12.5248693,27.3396699 C12.4296373,27.3807298 12.3240952,27.3120618 12.3165303,27.2043196 L12.2903583,26.8300405 C12.279682,26.6771389 12.2517408,26.526159 12.2071447,26.3801113 L11.1850938,23.0333783 C11.1633143,23.0285101 11.1398266,23.0317769 11.1193282,23.0454209 C11.0851643,23.0681607 11.0699125,23.1123594 11.0823579,23.1527787 L12.0373011,26.2655792 C12.0771997,26.3956129 12.0941596,26.5321162 12.0875099,26.6683632 L11.9385917,29.7190935 C11.9285866,29.924521 11.7210406,30.0515441 11.5458284,29.9595597 L11.5028795,29.937076 L11.4912881,30.1744675 C11.4828081,30.3480592 11.3073519,30.4555451 11.1592878,30.3777171 L9.71128581,29.6174367 C9.47409045,29.4928478 9.29393667,29.2740966 9.21084509,29.0096094 L8.18836716,25.7566544 L8.16365931,25.7671596 C8.10472651,25.7922055 8.07422299,25.8607454 8.09380625,25.9242889 L9.18882155,29.4835597 C9.21639673,29.5730459 9.27441442,29.648696 9.35177134,29.6960333 L11.5278313,31.0280135 C11.7346452,31.1546521 11.8569033,31.3919155 11.8446409,31.6429509 L11.4046581,40.6550513 C11.3901995,40.9507978 11.3668338,41.2460958 11.334561,41.5402409 L11.0612495,44.03125 L12.9711358,44.03125 L12.7377839,41.9039508 C12.7072804,41.6258838 12.6852568,41.34692 12.6718353,41.0674437 L12.5922211,33.6431631 C12.5886827,33.3117374 12.7504733,33.0026032 13.0187823,32.8281147 L13.1096828,32.7690551 C13.1802679,32.5627948 13.3188759,32.3851035 13.5070826,32.2732618 L15.5528926,31.0569027 C15.6096901,30.9729894 15.6575196,30.8819658 15.6947339,30.7853053 L17.0878906,27.1665266 L17.0814849,27.1634519 Z" id="Fill-8" fill="#AD330D"></path>
        </g>
        <g id="Group-14" transform="translate(187.535156, 584.953125)">
            <g id="Group-3" transform="translate(0.464844, 0.046875)">
                <mask id="mask-20" fill="white">
                    <use xlink:href="#path-19"></use>
                </mask>
                <g id="Clip-2"></g>
                <path d="M5.89393861,44.5049752 L8.4738556,45.9808858 C10.5736336,47.1822103 12.8108788,48.1266639 15.1373614,48.7941308 C21.1967089,50.5323758 27.647622,50.3534023 33.6007977,48.2821275 L35.4187514,47.6495116 C38.1663517,46.6935513 40.3625062,44.5952897 41.4379212,41.8988493 L42.2657127,39.8231043 C43.3393846,37.1310513 43.1905448,34.1072103 41.8576278,31.5330381 L38.476317,25.0026573 C36.8081162,21.7809685 35.6608961,18.3168129 35.0769927,14.738005 L34.9901625,14.2060513 C34.4510853,10.9020778 33.1522861,7.76739238 31.1955371,5.04744205 L30.5654792,4.17169702 C28.9441799,1.91805464 26.443373,0.452574503 23.6800834,0.136763245 C18.9692591,-0.401399007 14.5413382,2.47914735 13.1378614,6.99586921 C12.0744,10.4182202 10.920788,14.1207036 10.2786104,16.1803063 C9.94971853,17.2351076 9.31052934,18.1659023 8.44363938,18.8535679 L5.75887876,20.9827897 C2.28459498,23.7380877 0.200423166,27.8771606 0.0595525097,32.3016639 L0.00592702703,33.9859354 C-0.131623166,38.3079553 2.13260077,42.3532368 5.89393861,44.5049752" id="Fill-1" fill="#64CC75" mask="url(#mask-20)"></path>
            </g>
            <path d="M30.09664,44.6614149 L27.8614072,44.7544234 C24.9761993,44.8743533 22.1023528,44.330727 19.4656548,43.1660652 L17.689627,42.3815727 C12.9815042,40.3020052 11.7342913,34.2608093 15.2412404,30.5218481 L15.4726234,30.2751951 C16.8657543,28.7897418 16.6966047,26.466121 15.1301697,25.1603948 C13.218144,23.5664175 12.946996,20.7499101 14.5241989,18.8274255 L16.5201635,16.3943583 C17.9809542,14.613609 18.496712,12.2509062 17.9088855,10.0326225 L17.461805,8.34572052 C16.9965802,6.59021525 17.7383794,4.73910153 19.2932834,3.7755529 L19.3603497,3.73395484 C19.8356641,3.43932986 20.1770156,3.02477499 20.3755861,2.55998375 C20.7494108,1.684831 19.8777184,0.784769725 18.9781311,1.11780581 C16.1346382,2.17042127 13.8324239,4.47257202 12.8835755,7.50126311 C11.7973726,10.9689144 10.618837,14.7201202 9.96309633,16.8065648 C9.62751042,17.874528 8.97490689,18.817613 8.0899877,19.5136258 L5.34688236,21.6715252 C3.71083745,22.9585491 2.37680291,24.5435526 1.40005968,26.3174247 C1.0336114,26.9829937 1.95091912,27.6031906 2.44429315,27.0235015 C4.39387942,24.7337631 7.85080431,24.4407316 10.1657366,26.369003 L11.0758375,27.1271612 C11.3959074,27.3936907 11.5759945,27.7898787 11.5652265,28.2035949 L11.5631069,28.2814235 C11.5503889,28.775065 11.1704595,29.1833299 10.6741179,29.2366693 L7.56931234,29.5703763 C6.26749676,29.7103505 5.0703928,30.3412823 4.22701912,31.33192 L3.92797629,31.6831553 C3.06908663,32.6919921 1.88164836,33.3492583 0.59170292,33.5603517 C-0.0431801773,33.6641791 -0.508659371,34.2090634 -0.529092975,34.8452789 C-0.669669387,39.223978 1.64305848,43.3223095 5.48483038,45.502266 L8.11991742,46.9975318 C10.264598,48.2146105 12.5496854,49.1714498 14.9257489,49.847586 L14.9258337,49.847586 C20.8251254,51.5262691 27.0874739,51.4387957 32.9268213,49.6095713 L32.9822719,49.520169 C34.3340268,47.3419738 32.6782266,44.554065 30.09664,44.6614149" id="Fill-4" fill="#00B882"></path>
            <path d="M36.0528878,36.6204006 C33.7514036,35.7855421 32.0312117,33.7416845 31.6944973,31.2324427 C31.648303,30.8877167 31.6736678,30.5501569 31.7588333,30.2339289 C31.8030959,30.0694404 31.6612374,29.912118 31.4909904,29.9345331 C31.4840192,29.9353664 31.4770481,29.9363663 31.4700769,29.9373663 C30.2096444,30.1145206 28.9754166,29.4703155 28.3665757,28.3612261 L28.1259453,27.92284 C27.7973779,27.3241317 27.1349515,26.9761559 26.4530396,27.0589835 C25.201678,27.2109729 24.3188628,28.3463938 24.4849103,29.5831409 C24.7973518,31.9126453 26.4730292,33.7840982 28.6732218,34.418554 C29.1308814,34.5504615 29.5142101,34.8663561 29.7397223,35.2829104 C30.7502017,37.1498637 32.8244099,38.2625361 35.0079726,38.0118036 L35.2209704,37.9873053 C35.5249289,37.9524744 35.8125934,37.8774796 36.0797645,37.7687372 C36.6069675,37.5542522 36.5879018,36.8143871 36.0528878,36.6204006" id="Fill-6" fill="#00B882"></path>
            <g id="Group-10" transform="translate(9.464844, 30.046875)">
                <mask id="mask-22" fill="white">
                    <use xlink:href="#path-21"></use>
                </mask>
                <g id="Clip-9"></g>
                <path d="M19.5870209,13.0032179 L19.5870209,13.0033018 C19.5247615,13.0338415 19.4765607,13.087202 19.4524603,13.1523925 L17.131205,19.4084968 C16.9973138,19.7696034 16.723841,20.0614084 16.3727113,20.2179662 L12.9937155,21.7240592 C12.6916234,21.8588029 12.3455146,21.6632315 12.303841,21.3344265 L11.4739665,14.7753585 C11.4283598,14.4151748 11.5979833,14.0617871 11.907272,13.8727599 L14.7247615,12.1508755 C14.9535481,12.0111816 15.121749,11.790524 15.1961423,11.5326986 L17.1393222,4.80641746 C17.1664351,4.71236531 17.1141339,4.61369864 17.0211632,4.58366236 C16.9281925,4.55370998 16.8281925,4.60321111 16.7956402,4.69550136 L14.5719582,10.9853336 C14.4790711,11.2480252 14.2880251,11.4641522 14.0390711,11.5882406 L11.6640084,12.7718211 C11.5122929,12.8474991 11.3342176,12.7337304 11.3390711,12.5639163 C11.3476067,12.2630501 11.3573138,11.9622678 11.3657657,11.6614016 L11.4241757,10.1579934 C11.4420837,9.65668957 11.4681088,9.15605692 11.4901172,8.65508866 L11.5649289,7.16225193 L12.454887,0.46256712 C12.4901172,0.196771202 12.2539665,-0.0247253968 11.9918745,0.028131746 C11.8329623,0.0601816327 11.7105356,0.187542177 11.6842594,0.34795941 L10.5917071,7.04403651 L10.5906192,7.05049683 L10.5877741,7.0794424 L10.4794059,8.16645374 L8.19630962,7.09848776 C8.01948954,7.01576213 7.89045188,6.8558483 7.84668619,6.66514308 L6.84099582,2.28018163 C6.81898745,2.18445147 6.72568201,2.12295261 6.62919665,2.14099116 C6.53287866,2.1589458 6.46777406,2.24989365 6.48166527,2.34721791 L7.18693724,7.30286871 C7.20317155,7.41672132 7.26928033,7.51731769 7.36727197,7.57713855 L10.3526276,9.40070998 C10.3292803,9.62447188 10.305682,9.84823379 10.280159,10.0719118 L10.1141339,11.5672655 C10.0737155,11.8970773 10.0120418,12.4458687 9.97497071,12.7788687 C9.95405021,12.9668052 9.94727197,13.1559163 9.95471967,13.3449435 L10.1870209,19.2595739 C10.1958075,19.4840909 9.95723013,19.6325943 9.76049372,19.5248664 L4.67773222,16.7439934 C4.31806695,16.5471635 4.03840167,16.2303562 3.88743933,15.8483585 L0.608610879,7.5575898 C0.546769874,7.40111587 0.372627615,7.32174626 0.214384937,7.37795941 C0.0561422594,7.43417256 -0.0292970711,7.60574853 0.0208284519,7.76624966 L2.82417573,16.7450841 C2.94635146,17.1363109 3.20099582,17.4724991 3.54409205,17.6955059 L9.68702092,21.6876465 C10.0701172,21.9366624 10.3086946,22.3566669 10.3266025,22.8140909 L10.4703682,26.4733993 C10.4845941,26.834422 10.4645941,27.1958642 10.410954,27.5531113 L8.99053556,37.0000252 L13.0712887,37.0000252 L13.0245105,27.364168 C13.0233389,27.1322678 13.0082762,26.9007871 12.9791548,26.6707327 L12.7624184,24.9582451 C12.6911213,24.3947712 12.9644268,23.8435467 13.4555565,23.5604673 L17.5210795,21.2162111 C17.8483598,21.0275195 18.0878577,20.7165014 18.1871046,20.3511998 L19.9686109,13.3138166 C20.0252636,13.0895512 19.7943013,12.9015308 19.5870209,13.0032179" id="Fill-8" fill="#009F70" mask="url(#mask-22)"></path>
            </g>
            <g id="Group-13" transform="translate(9.464844, 30.046875)">
                <mask id="mask-24" fill="white">
                    <use xlink:href="#path-23"></use>
                </mask>
                <g id="Clip-12"></g>
                <path d="M12.098822,26.735168 L11.8106864,24.8180478 C11.7549237,24.4477122 11.9340763,24.08132 12.2619576,23.8947259 L16.9693305,21.2162111 C17.3008559,21.0275195 17.5433136,20.7165014 17.6439068,20.3511998 C17.6439068,20.3511998 19.5160254,14.7869367 19.9869576,12.977041 C19.9382288,12.9714197 19.8864492,12.9788029 19.8360254,13.0032179 C19.7729746,13.0338415 19.724161,13.087202 19.6996695,13.1523086 L17.3489915,19.4084968 C17.2133983,19.7696873 16.9364492,20.0614084 16.5808559,20.2179662 L13.1589068,21.7240592 C12.9621271,21.810812 12.7472119,21.7602202 12.6074661,21.6259798 L12.3844153,21.7240592 C12.0784831,21.8588029 11.7279746,21.6633154 11.6857712,21.3344265 L10.8453475,14.7753585 C10.799161,14.4151748 10.9710254,14.0617871 11.284161,13.8728438 L14.5721271,11.8949798 C14.7150932,11.8089821 14.8226356,11.6754968 14.8755169,11.5183517 L17.2122119,4.57829274 C17.1257712,4.5635263 17.039161,4.61151723 17.0090763,4.69558526 L14.7571271,10.9853336 C14.6631441,11.2480252 14.4696695,11.4641522 14.2175508,11.5882406 L11.8122966,12.7718211 C11.6586525,12.8474991 11.4783136,12.7337304 11.4831441,12.5639163 C11.4833136,12.5601408 11.4834831,12.5563653 11.4835678,12.5525898 L11.0378051,12.7718211 C10.884161,12.8474991 10.7039068,12.7337304 10.708822,12.5639163 C10.7174661,12.2630501 10.7272119,11.9622678 10.7357712,11.6614016 L10.7949237,10.1579934 C10.8130593,9.65668957 10.8394153,9.15605692 10.8617034,8.65508866 L10.9374661,7.16225193 L12.3006864,0.0285512472 C12.2510254,0.01848322 12.1983136,0.017392517 12.1442458,0.0282156463 C11.9833983,0.0601816327 11.8594153,0.187626077 11.8328051,0.34795941 L10.7263644,7.04403651 L10.7252627,7.05049683 L10.7223814,7.0794424 L10.6126356,8.16636984 L9.87263559,7.82456032 L9.83822881,8.16636984 L7.82060169,7.15436531 C7.6285678,7.05813175 7.49602542,6.87522925 7.46509322,6.66430408 L6.80526271,2.14778707 C6.77644915,2.13847415 6.74526271,2.13520204 6.71348305,2.14099116 C6.61594068,2.1589458 6.54992373,2.24989365 6.56390678,2.34721791 L7.27831356,7.30295261 C7.29475424,7.41672132 7.36170339,7.51731769 7.46085593,7.57713855 L10.4842458,9.40070998 C10.4606017,9.62447188 10.4367034,9.84831769 10.4108559,10.0719118 L10.2427203,11.5672655 C10.2018729,11.8970773 10.1393305,12.4459526 10.1017881,12.7788687 C10.0806017,12.9668052 10.0737373,13.1559163 10.0811949,13.3448596 L10.3165339,19.2595739 C10.3254322,19.4840909 10.083822,19.6325104 9.88458475,19.5249503 L9.53483898,19.3360909 C9.49399153,19.5156374 9.28568644,19.6196737 9.11009322,19.5249503 L3.75441525,16.6313993 C3.52568644,16.5078982 3.35127966,16.3046918 3.26509322,16.0611295 L0.192974576,7.38920204 C0.0489915254,7.45372132 -0.026940678,7.61430635 0.0211101695,7.76633356 L2.86009322,16.7450841 C2.98373729,17.1363109 3.24161864,17.4724991 3.58916102,17.695422 L9.81017797,21.6876465 C10.1981441,21.9366624 10.4397542,22.3566669 10.4579746,22.8140909 L10.6033983,26.4733993 C10.6178051,26.834422 10.5976356,27.1958642 10.5433136,27.5531952 L9.10483898,37.0000252 L11.2956017,37.0000252 L12.1171271,27.2992293 C12.1329746,27.111041 12.1268729,26.921846 12.098822,26.735168" id="Fill-11" fill="#005639" mask="url(#mask-24)"></path>
            </g>
        </g>
        <g id="Group-14" transform="translate(466.599609, 594.542969)">
            <g id="Group-3" transform="translate(0.400391, 0.457031)">
                <mask id="mask-26" fill="white">
                    <use xlink:href="#path-25"></use>
                </mask>
                <g id="Clip-2"></g>
                <path d="M5.07152857,38.2742786 L7.29145714,39.5435618 C9.09824286,40.5767008 11.0233143,41.388931 13.0251714,41.9629525 C18.2390286,43.4578432 23.7898143,43.303926 28.9123143,41.5226296 L30.4766,40.97858 C32.8408143,40.1564541 34.7305286,38.3519492 35.6558857,36.0330104 L36.3681714,34.2478697 C37.2920286,31.9327041 37.1639571,29.3322008 36.0170286,27.1184127 L33.1075286,21.5022853 C31.6721,18.7316329 30.6849571,15.7524591 30.1825286,12.6746843 L30.1078143,12.2172041 C29.6439571,9.37578692 28.5263857,6.67995745 26.8426714,4.34080017 L26.3005286,3.58765944 C24.9054571,1.64952699 22.7536,0.389214073 20.3758857,0.117616391 C16.3223857,-0.345203146 12.5123143,2.13206672 11.3046714,6.01644752 C10.3896,8.95966937 9.39695714,12.1438051 8.84438571,13.9150634 C8.56138571,14.8221925 8.01138571,15.622676 7.26545714,16.2140684 L4.95531429,18.0451992 C1.96581429,20.4147555 0.172457143,23.9743581 0.0512428571,27.779431 L0.0051,29.2279045 C-0.113257143,32.9448416 1.83502857,36.4237836 5.07152857,38.2742786" id="Fill-1" fill="#64CC75" mask="url(#mask-26)"></path>
            </g>
            <path d="M25.527511,37.9655355 L23.6209889,38.0455229 C21.1600763,38.1486626 18.7088542,37.681144 16.459906,36.6795348 L14.9450587,36.0048713 C10.9293069,34.2164432 9.86550765,29.0210148 12.8567289,25.8055081 L13.054085,25.5933865 C14.2423437,24.3158967 14.0980691,22.3175828 12.7619922,21.1946583 C11.1311467,19.8238378 10.8998734,17.4016414 12.2451347,15.7483047 L13.9475751,13.6558668 C15.1935437,12.1244225 15.6334547,10.0924981 15.1320733,8.18477413 L14.75074,6.73403839 C14.3539305,5.22430386 14.9866416,3.63234607 16.3128833,2.80369424 L16.3700869,2.76791991 C16.7755021,2.51454243 17.0666548,2.15802524 17.2360238,1.75830478 C17.5548743,1.00567341 16.8113719,0.231620714 16.0440769,0.518031751 C13.6187447,1.42328104 11.6550914,3.40313069 10.8457795,6.00780502 C9.91931231,8.98998511 8.91409072,12.2160221 8.35478253,14.0103645 C8.06854749,14.9288128 7.51191507,15.739866 6.75713106,16.3384369 L4.41742355,18.1942304 C3.02197349,19.3010709 1.8841205,20.664174 1.05101598,22.189704 C0.73845715,22.7620934 1.52086668,23.2954627 1.9416857,22.7969301 C3.60456811,20.827755 6.5531217,20.5757479 8.52762279,22.2340613 L9.30388528,22.8860774 C9.57688611,23.1152928 9.73048975,23.4560144 9.72130536,23.8118104 L9.7194974,23.878743 C9.70864969,24.3032747 9.38459228,24.6543824 8.96124212,24.7002544 L6.3130256,24.9872424 C5.20265349,25.1076202 4.18159423,25.6502216 3.46224608,26.50217 L3.20718014,26.8042323 C2.47459779,27.671832 1.46178279,28.2370809 0.361535211,28.4186212 C-0.179982725,28.5079128 -0.577009096,28.9765132 -0.594437758,29.5236586 C-0.714341169,33.2893398 1.25827966,36.8139049 4.5350851,38.6886675 L6.78265935,39.9745961 C8.6119457,41.0212838 10.5609908,41.8441656 12.5876333,42.4256427 L12.5877056,42.4256427 C17.6194544,43.8693101 22.9608693,43.7940831 27.9414892,42.2209501 L27.9887852,42.1440641 C29.1417527,40.2708162 27.7294525,37.8732147 25.527511,37.9655355" id="Fill-4" fill="#00B882"></path>
            <path d="M30.057094,31.2899158 C28.1391905,30.6068498 26.7056973,28.9346027 26.4251019,26.8815866 C26.3866066,26.5995381 26.407744,26.3233528 26.4787153,26.0646208 C26.5156007,25.9300393 26.3973853,25.801321 26.2555128,25.8196606 C26.2497035,25.8203424 26.2438942,25.8211605 26.2380849,25.8219786 C25.1877245,25.9669231 24.1592013,25.4398462 23.6518339,24.5324094 L23.4513086,24.1737299 C23.1775024,23.6838776 22.6254805,23.3991702 22.0572205,23.4669382 C21.0144191,23.5912932 20.2787399,24.5202739 20.4171128,25.5321579 C20.6774807,27.438116 22.0738785,28.9693048 23.9073724,29.488405 C24.2887553,29.5963293 24.6081959,29.8547885 24.7961228,30.1956057 C25.6381889,31.7231129 27.3666958,32.6334813 29.1863314,32.4283365 L29.3638295,32.4082924 C29.6171282,32.3797944 29.8568487,32.318435 30.0794912,32.229464 C30.518827,32.0539762 30.502939,31.448632 30.057094,31.2899158" id="Fill-6" fill="#00B882"></path>
            <g id="Group-10" transform="translate(8.400391, 25.457031)">
                <mask id="mask-28" fill="white">
                    <use xlink:href="#path-27"></use>
                </mask>
                <g id="Clip-9"></g>
                <path d="M16.6489678,11.2460263 L16.6489678,11.2460989 C16.5960473,11.2725116 16.5550766,11.3186612 16.5345912,11.3750422 L14.5615243,16.785727 C14.4477167,17.0980354 14.2152649,17.3504073 13.9168046,17.4858086 L11.0446582,18.7883755 C10.7878799,18.9049107 10.4936874,18.7357678 10.4582649,18.4513959 L9.75287155,12.7786884 C9.71410586,12.4671782 9.85828577,12.1615456 10.1211812,11.9980626 L12.5160473,10.5088653 C12.7105159,10.388049 12.8534866,10.19721 12.9167209,9.97422585 L14.5684238,4.15690159 C14.5914699,4.07555918 14.5470138,3.99022585 14.4679887,3.96424853 C14.3889636,3.93834376 14.3039636,3.98115556 14.2762941,4.06097415 L12.3861644,9.50082902 C12.3072105,9.72802177 12.1448213,9.9149424 11.9332105,10.0222621 L9.91440711,11.0458993 C9.78544895,11.1113506 9.63408494,11.012956 9.63821046,10.8660898 C9.64546569,10.6058812 9.65371674,10.3457451 9.66090084,10.0855365 L9.71054937,8.78529161 C9.72577113,8.35173152 9.74789247,7.91875193 9.76659958,7.48548209 L9.83018954,6.19438005 L10.586654,0.40005805 C10.6165996,0.170180499 10.4158715,-0.021384127 10.1930933,0.0243301587 C10.058018,0.0520489796 9.95395523,0.162198639 9.9316205,0.300937868 L9.00295105,6.09213968 L9.00202636,6.09772698 L8.99960795,6.122761 L8.90749498,7.06287891 L6.96686318,6.13923265 C6.81656611,6.06768617 6.7068841,5.92938231 6.66968326,5.76444807 L5.81484644,1.97204898 C5.79613933,1.88925533 5.71682971,1.83606712 5.63481715,1.85166803 C5.55294686,1.86719637 5.49760795,1.94585397 5.50941548,2.0300263 L6.10889665,6.31599456 C6.12269582,6.41446168 6.17888828,6.50146395 6.26218117,6.55320091 L8.79973347,8.13034376 C8.77988828,8.32386757 8.75982971,8.51739138 8.73813515,8.71084263 L8.59701381,10.0041215 C8.56265816,10.2893642 8.51023556,10.7639946 8.4787251,11.0519946 C8.46094268,11.2145342 8.45518117,11.3780898 8.46151172,11.5415728 L8.65896778,16.6569288 C8.6664364,16.8511057 8.46364561,16.979541 8.29641967,16.886371 L3.97607238,14.4812916 C3.6703569,14.3110603 3.43264142,14.0370649 3.30432343,13.7066884 L0.517319247,6.53629388 C0.464754393,6.40096508 0.316733473,6.33232109 0.182227197,6.38093787 C0.0477209205,6.42955465 -0.0249025105,6.57794467 0.0177041841,6.71675646 L2.40054937,14.4822349 C2.50439874,14.8205932 2.72084644,15.1113506 3.01247824,15.3042213 L8.23396778,18.7568834 C8.55959958,18.9722485 8.76239038,19.3354957 8.77761213,19.7311057 L8.89981297,22.8959129 C8.91190502,23.2081488 8.89490502,23.5207474 8.84931088,23.8297179 L7.64195523,32.0000218 L11.1105954,32.0000218 L11.0708339,23.6663075 C11.0698381,23.4657451 11.0570347,23.2655456 11.0322816,23.0665796 L10.8480556,21.5855093 C10.7874531,21.0981805 11.0197628,20.6214458 11.437223,20.3766204 L14.8929176,18.3491556 C15.1711059,18.1859628 15.3746791,17.9169741 15.4590389,17.6010376 L16.9733192,11.5146522 C17.0214741,11.320693 16.8251561,11.1580807 16.6489678,11.2460263" id="Fill-8" fill="#009F70" mask="url(#mask-28)"></path>
            </g>
            <g id="Group-13" transform="translate(8.400391, 25.457031)">
                <mask id="mask-30" fill="white">
                    <use xlink:href="#path-29"></use>
                </mask>
                <g id="Clip-12"></g>
                <path d="M10.2839987,23.1223075 L10.0390835,21.4642576 C9.99168517,21.1439673 10.1439648,20.8270875 10.422664,20.6657088 L14.4239309,18.3491556 C14.7057275,18.1859628 14.9118165,17.9169741 14.9973208,17.6010376 C14.9973208,17.6010376 16.5886216,12.788702 16.988914,11.2233868 C16.9474945,11.2185252 16.9034818,11.2249107 16.8606216,11.2460263 C16.8070284,11.2725116 16.7655369,11.3186612 16.7447191,11.3749696 L14.7466428,16.785727 C14.6313886,17.0981079 14.3959818,17.3504073 14.0937275,17.4858086 L11.1850708,18.7883755 C11.0178081,18.863405 10.8351301,18.8196499 10.7163462,18.7035501 L10.526753,18.7883755 C10.2667106,18.9049107 9.96877839,18.7358404 9.93290551,18.4513959 L9.21854534,12.7786884 C9.17928686,12.4671782 9.32537161,12.1615456 9.59153686,11.9981351 L12.3863081,10.2875501 C12.5078292,10.2131737 12.5992403,10.097727 12.6441894,9.96181769 L14.6303801,3.95960454 C14.5569055,3.94683356 14.4832869,3.98833923 14.4577148,4.06104671 L12.5435581,9.50082902 C12.4636725,9.72802177 12.2992191,9.9149424 12.0849182,10.0222621 L10.0404521,11.0458993 C9.90985466,11.1113506 9.75656653,11.012956 9.76067246,10.8660898 C9.76081653,10.8628245 9.76096059,10.8595592 9.76103263,10.8562939 L9.38213432,11.0458993 C9.25153686,11.1113506 9.09832076,11.012956 9.10249873,10.8660898 C9.10984619,10.6058812 9.11813008,10.3457451 9.12540551,10.0855365 L9.17568517,8.78529161 C9.19110042,8.35173152 9.21350297,7.91875193 9.23244788,7.48548209 L9.29684619,6.19438005 L10.4555835,0.0246929705 C10.4133716,0.0159854875 10.3685665,0.0150421769 10.3226089,0.0244027211 C10.1858886,0.0520489796 10.080503,0.162271202 10.0578843,0.300937868 L9.11740975,6.09213968 L9.11647331,6.09772698 L9.11402415,6.122761 L9.02074025,7.06280635 L8.39174025,6.7671873 L8.36249449,7.06280635 L6.64751144,6.18755918 C6.48428263,6.10433016 6.37162161,5.94614422 6.34532924,5.76372245 L5.78447331,1.85754558 C5.75998178,1.84949116 5.73347331,1.84666122 5.70646059,1.85166803 C5.62354958,1.86719637 5.56743517,1.94585397 5.57932076,2.0300263 L6.18656653,6.31606712 C6.2005411,6.41446168 6.25744788,6.50146395 6.34172754,6.55320091 L8.9116089,8.13034376 C8.89151144,8.32386757 8.87119788,8.51746395 8.84922754,8.71084263 L8.70631229,10.0041215 C8.67159195,10.2893642 8.61843093,10.7640671 8.58651992,11.0519946 C8.56851144,11.2145342 8.56267669,11.3780898 8.56901568,11.5415002 L8.76905381,16.6569288 C8.77661737,16.8511057 8.57124873,16.9794685 8.40189703,16.8864435 L8.10461314,16.7231057 C8.0698928,16.8783891 7.89283347,16.9683664 7.74357924,16.8864435 L3.19125297,14.3839129 C2.99683347,14.2771011 2.84858771,14.1013551 2.77532924,13.8907066 L0.16402839,6.39066122 C0.0416427966,6.44646168 -0.0228995763,6.58534603 0.0179436441,6.71682902 L2.43107924,14.4822349 C2.53617669,14.8205932 2.75537585,15.1113506 3.05078686,15.3041488 L8.33865127,18.7568834 C8.66842246,18.9722485 8.8737911,19.3354957 8.88927839,19.7311057 L9.01288856,22.8959129 C9.02513432,23.2081488 9.00799025,23.5207474 8.96181653,23.8297905 L7.73911314,32.0000218 L9.60126144,32.0000218 L10.2995581,23.6101442 C10.3130284,23.4473868 10.3078419,23.2837587 10.2839987,23.1223075" id="Fill-11" fill="#005639" mask="url(#mask-30)"></path>
            </g>
        </g>
    </g>
</svg>