<?xml version="1.0" encoding="UTF-8"?>
<svg version="1.1" viewBox="0 0 668 818" xmlns="http://www.w3.org/2000/svg" xmlns:xlink="http://www.w3.org/1999/xlink">
<title>5. Elements_Illustrations/2.Vector/Skyscraper</title>
<defs>
<polygon id="o" points="0.34857 0.40138 436.97 0.40138 436.97 161 0.34857 161"/>
<polygon id="d" points="0 0.1992 90.654 0.1992 90.654 27.632 0 27.632"/>
<polygon id="c" points="0 0 436 0 436 140 0 140"/>
<polygon id="b" points="0 0 305 0 305 140 0 140"/>
<polygon id="a" points="0 0.041964 24.986 0.041964 24.986 28.987 0 28.987"/>
<polygon id="n" points="0.0035769 0.011507 10.988 0.011507 10.988 21 0.0035769 21"/>
<polygon id="m" points="0.0036888 0.011658 10.993 0.011658 10.993 21 0.0036888 21"/>
<polygon id="l" points="0 0.0076 39.926 0.0076 39.926 38 0 38"/>
<polygon id="k" points="1.5014e-5 0.91075 27 1.1755 26.747 31.1 1.0759e-14 31.1"/>
<polygon id="j" points="0 0.072351 42.976 0.072351 42.976 49.978 0 49.978"/>
<polygon id="i" points="0.0065034 0.020275 19.977 0.020275 19.977 37 0.0065034 37"/>
<polygon id="h" points="0.006707 0.02054 19.987 0.02054 19.987 37 0.006707 37"/>
<polygon id="g" points="0 0.062222 36.98 0.062222 36.98 42.981 0 42.981"/>
<polygon id="f" points="0.0055279 0.017535 16.981 0.017535 16.981 32 0.0055279 32"/>
<polygon id="e" points="0.0057009 0.017764 16.989 0.017764 16.989 32 0.0057009 32"/>
</defs>
<g fill="none" fill-rule="evenodd">
<g transform="translate(217.26 492.89)">
<g id="Group-3" transform="translate(-.26367 .10938)">
<mask id="y" fill="white">
<use xlink:href="#o"/>
</mask>
<path id="Fill-1" d="m-8.9696e-5 159.08 21.784-20.301c3.7394-3.8761 9.0301-5.8504 14.391-5.3701l7.9455 0.71236c5.416 0.48525 10.7-1.856 13.984-6.1954l16.511-21.824c0.95484-1.2619 2.7496-1.5111 4.0111-0.5563l2.6579 2.0116c1.3388 1.0137 3.2494 0.71955 4.2231-0.6494l29.472-41.45c0.41544-0.58464 0.86053-1.1472 1.3339-1.6856l49.69-56.53c7.7218-8.7848 21.264-9.168 29.469-0.83378l13.367 13.578 16.551 18.492c1.4161 1.5821 3.7619 1.919 5.5651 0.79915l4.0534-2.518c3.7498-2.3291 8.6138-1.722 11.677 1.4571l35.158 36.483c3.3298 3.4557 7.6549 5.7834 12.37 6.6572l42.23 7.8278c3.7291 0.69122 7.1555 2.5148 9.8139 5.2231l34.231 34.872c2.8614 2.9146 6.9426 4.2818 10.979 3.6778l1.9088-0.28512c3.9887-0.59723 8.0573 0.29187 11.435 2.4982l36.672 23.846-441.48 0.062584z" fill="#06C18B" mask="url(#y)"/>
</g>
<path id="Fill-4" d="m59.049 135c3.7502 0.65643 7.3678-1.7012 8.2725-5.39l0.65164-2.6592c0.59596-2.4324 1.7428-4.6964 3.3516-6.618l5.186-6.1947c1.0686-1.2766 1.6309-2.8998 1.5803-4.5619l-0.11459-3.7701c-0.026231-0.87172 0.24759-1.7173 0.75979-2.409-1.2218-0.58573-2.7281-0.26349-3.5905 0.84876l-17.14 22.107c-3.1781 4.1001-8.1216 6.4054-13.27 6.2517l2.3558 0.30297 11.957 2.0928z" fill="#00986C"/>
<g transform="translate(-.26367 131.11)">
<mask id="r" fill="white">
<use xlink:href="#d"/>
</mask>
<path id="Fill-6" d="m83.255 22.714-16.077-1.7604c-1.4071-0.154-2.6762-0.92219-3.4723-2.1018-1.798-2.6632-4.5545-4.517-7.6857-5.1678l-17.46-3.6296c-3.5284-0.73342-5.0337-4.9705-2.7681-7.7926 0.73607-0.91768 1.7702-1.5088 2.8923-1.708l-2.6551-0.26645c-5.3461-0.53606-10.646 1.3937-14.417 5.2486l-21.613 22.096 90.654-0.10161-1.3435-1.5883c-1.5349-1.8155-3.7014-2.9707-6.0549-3.2281" fill="#00986C" mask="url(#r)"/>
</g>
<path d="m112.43 94.818c5.0869-0.98654 9.5299-4.0663 12.251-8.4922l10.423-16.95c2.6649-4.3337 7.5435-6.7793 12.595-6.3141l9.1771 0.84516c2.1533 0.19875 3.8793-1.759 3.4217-3.8811l-2.228-10.328c-1.2751-5.9116-0.62765-12.078 1.8474-17.592l5.2902-11.788c0.48007-1.0692 1.069-2.0856 1.7579-3.0328l11.768-16.175c-4.3269 0.73404-8.4559 2.8851-11.635 6.4396l-50.337 56.282c-0.47917 0.53618-0.9309 1.0963-1.3529 1.679l-28.675 39.599 8.4244-5.1834c2.758-1.6975 5.7986-2.8824 8.9751-3.4985l8.2971-1.6095z" fill="#00986C"/>
<path id="Fill-11" d="m359.82 154.1-4.9655-0.49829c-3.3857-0.33989-6.5598-1.7797-9.0188-4.0924l-7.5072-7.0586c-2.1711-2.0411-5.0283-3.2294-8.0308-3.3385l-7.4593-0.272c-8.539-0.3106-16.321-4.8999-20.619-12.16l-5.7004-9.6273c-0.99211-1.6759-2.3783-3.0927-4.0425-4.1332l-28.254-17.662c-0.76959-0.48099-1.7269 0.25514-1.4376 1.1053l5.718 16.796c1.3279 3.9016 1.1934 8.1413-0.3796 11.954l-1.4232 3.449c-1.4435 3.4996 0.26721 7.4877 3.8245 8.9138l26.786 10.739c3.3794 1.3551 6.3643 3.5125 8.6875 6.2795l3.8714 4.6106 57.862-0.063008c-1.6958-2.7741-4.622-4.6129-7.9116-4.9425" fill="#00986C"/>
<path d="m218.62 135.32-9.5594-2.8024c-7.0334-2.0616-13.34-6.0869-18.187-11.608l-3.9643-4.5151c-4.5127-5.1408-7.5944-11.388-8.9319-18.11l-1.0304-5.1782c-0.61984-3.1143-2.7053-5.733-5.5929-7.0227l-5.4222-2.4223c-2.6936-1.203-5.8566-0.39364-7.6492 1.9578l-18.998 24.919c-1.2392 1.6247-1.9395 3.5996-2.0032 5.6454l-0.26905 8.6582c-0.26949 8.6605-5.7182 16.299-13.793 19.336l-4.3447 1.6337c-3.6795 1.384-6.8968 3.7811-9.2832 6.9175l-4.8549 6.3803 141-0.15664-0.21874-0.47038c-5.2381-11.246-15.037-19.684-26.898-23.161" fill="#00986C"/>
<path d="m390.88 135.53c-1.5259 0.21268-3.0549 0.14074-4.5188-0.18944l-2.486 0.68762c-2.9569 0.81809-4.1419 4.3827-2.2663 6.8168 0.88256 1.1451 1.0274 2.6987 0.37156 3.9886l-6.2399 12.275 20.068-0.02234c1.0559-1.4686 1.2176-3.5579-0.046333-5.2316-1.6088-2.1294-2.0084-4.9412-1.0568-7.437l1.607-4.2151c0.63753-1.6719 1.7232-3.1339 3.1378-4.2254l0.51323-0.39586c0.50521-0.38961 0.74579-0.91281 0.77742-1.4387-2.5229-0.94364-5.2588-1.2555-7.9644-0.87751l-1.8961 0.26495z" fill="#00986C"/>
<path d="m219.92 61.499 1.0069 0.29204c5.208 1.5101 9.5263 5.1296 11.887 9.9636l5.535 11.333 3.8809 8.4463c0.41693 0.90713 1.7772 0.69192 1.8871-0.29833l1.5179-13.65c0.29703-2.6706-0.072668-5.3718-1.0764-7.8681l-5.0763-12.622c-0.88382-2.1971-1.1768-4.5837-0.84976-6.9264l0.74984-5.3781c0.30521-2.1903 1.3475-4.2144 2.9585-5.747l1.0464-0.99519c0.45644-0.43447 0.6363-1.0168 0.57635-1.5712-2.4748-0.70495-5.2076-0.40931-7.5334 0.98666l-4.1244 2.4756c-1.8349 1.1008-4.2034 0.74089-5.6195-0.85411l-2.0615-2.3215-2.2709 0.35c-2.324 0.35719-3.7756 2.6841-3.0575 4.8996l1.3734 4.2351c0.58906 1.8165 0.49732 3.7822-0.25842 5.5371l-2.4326 5.6499c-0.71306 1.6561 0.19484 3.5566 1.9411 4.063" fill="#00986C"/>
<path d="m247.73 38.171c-3.0339-3.1756-8.7708-3.8039-11.648-1.9007l-4.7959 2.8548c-1.9184 0.95161-3.4651 0.67436-4.8664-0.90521l-16.377-18.457-13.24-13.564c-8.127-8.3264-21.681-8.0807-29.494 0.53483l-40.574 44.739c0.22605 0.3573 0.56535 0.6523 1.0022 0.81871 0.87274 0.33193 1.8533 0.22292 2.6295-0.29233l14.568-9.6777c1.7819-1.1836 4.1278-1.107 5.827 0.18955l5.0913 3.8858c1.3922 1.0625 3.4195 0.58155 4.174-0.99001l2.8011-5.8364c0.31773-0.66209 1.2269-0.76398 1.6862-0.18955l1.5122 1.8919c0.69882 0.87344 2.0839 0.70391 2.5459-0.31191l4.2945-9.4361c0.56355-1.2383 2.3805-1.107 2.7566 0.19934l3.0964 10.761c0.21616 0.75152 1.132 1.0465 1.7527 0.56464l6.6318-5.1445c0.82735-0.64206 1.9787-0.68166 2.8497-0.098334l3.4357 2.3013c1.4408 0.9651 3.4033 0.54773 4.3174-0.91793l3.2793-5.2562c0.9442-1.5133 2.918-2.0325 4.4963-1.1831l20.586 11.085c1.5055 0.81025 2.7036 2.0833 3.4141 3.6272l2.5935 5.6353c0.35907 0.78089 1.5024 0.70925 1.7594-0.1099l0.89162-2.8397c0.2292-0.73061 0.91184-1.2281 1.6839-1.2281h1.15c1.1276 0 2.2043 0.46586 2.9706 1.2855l0.12808 0.13704c0.73477 0.78534 2.0358 0.60157 2.5198-0.35552l2.0767-4.1127c0.37885-0.75063 1.408-0.87611 1.9594-0.23938l1.3024 1.5044c0.39143 0.45207 1.1356 0.26386 1.2606-0.31814l0.2247-1.0505c0.1146-0.53483 0.78511-0.72749 1.1711-0.33594l11.652 11.818c0.94689 0.9602 2.2012 1.5644 3.5485 1.7104l1.3599 0.14639-20.005-20.938z" fill="#B8DDFF"/>
<path d="m126.74 51.103c0.2252 0.35712 0.56323 0.6516 0.99842 0.81772 0.86947 0.33135 1.8464 0.22253 2.6196-0.29227l14.514-9.6608c1.7752-1.1815 4.1123-1.1051 5.8051 0.18922l5.0722 3.8794c0.65188 0.49836 1.4421 0.65205 2.1759 0.51746-0.90305-5.4007-0.18401-10.956 2.0913-15.966l5.2638-11.591c0.47772-1.0518 1.0642-2.0512 1.7497-2.9822l11.71-15.905c-4.3062 0.72178-8.4145 2.8369-11.578 6.3321l-40.422 44.661z" fill="#00986C" fill-opacity=".69605"/>
<path d="m236.04 36.211-2.8846 1.9485c-3.8462 2.9227-5.3856 1.6384-6.8098 0.047328l-2.0737-2.3164-2.2833 0.34879c-1.9357 0.29544-3.2654 1.939-3.2563 3.7506l6.7308 4.9894c1.5297 0.81638 2.1625 1.3671 2.8846 2.9227l3.8462 5.8455c0.3654 0.78679 1.4279 0.16349 1.6891-0.66186l0.90666-2.8611c0.23295-0.73568 0.46564-0.37396 1.2504-0.37396h1.9231c0.24345 0 0.18967-0.83739 0.42627-0.79614l0.72442-5.1547c0.30694-2.1855 1.3547-4.2056 2.9753-5.7344l1.0519-0.99347c0.4595-0.43352 0.64037-1.0145 0.58008-1.5678-2.4889-0.70296-5.3416-0.78536-7.6811 0.60711z" fill="#00986C" fill-opacity=".48033"/>
</g>
<g transform="translate(13 512)">
<g id="Group-3">
<mask id="q" fill="white">
<use xlink:href="#c"/>
</mask>
<path id="Fill-1" d="m0 140 6.4796-7.3512c5.479-6.2161 11.229-11.489 17.184-15.759l77.629-55.659c6.4565-4.6292 13.558-4.6012 20.005 0.079316l6.4315 4.6694c5.6825 4.1256 12.008 3.3083 17.357-2.2424l53.048-55.049c11.128-11.548 24.498-11.586 35.644-0.10311l80.361 82.796c6.5591 6.758 14.238 8.1786 21.34 3.9482l1.737-1.0351c7.7755-4.6318 16.069-4.9074 23.923-0.79429l47.263 24.753c6.4199 3.3622 12.667 7.8597 18.661 13.435l8.9367 8.312h-436z" fill="#06C18B" mask="url(#q)"/>
</g>
<mask id="p" fill="white">
<use xlink:href="#b"/>
</mask>
<path id="Fill-4" d="m305 140-13.448-19.29c-7.0496-10.112-15.166-17.094-23.771-20.447l-25.423-9.9065c-8.8048-3.4307-16.797-12.287-22.779-25.24l-5.3424-11.568c-3.4462-7.462-4.4297-18.037-2.5443-27.352l2.5358-12.528c0.92046-4.548 1.0764-9.2657 0.60968-13.669-5.6262 0.45403-11.212 3.3233-16.325 8.6218l-53.149 55.077c-2.835 2.9382-5.9439 4.5363-9.0861 4.7925 0.64398 1.7509 1.445 3.3304 2.4158 4.625l3.3328 4.4428c1.0106 1.3471 0.73648 4.3666-0.45106 4.968l-14.052 7.1151c-3.0827 1.5608-6.2811 2.0859-9.4558 1.5523l-5.1511-0.86611c-5.6434-0.94831-11.299 1.535-16.177 7.1046l-5.7955 6.6169c-4.2686 4.8744-9.2894 6.6821-14.179 5.1066l-5.9531-1.9182c-4.4396-1.4307-6.1585-12.004-2.9404-18.088l3.3133-6.2635-47.475 33.991c-5.9665 4.2713-11.728 9.5474-17.217 15.767l-6.4921 7.3552h305z" fill="#00986C" mask="url(#p)"/>
<path d="m320.25 101.14c1.8689 2.942 2.759 7.6556 2.317 12.268-0.29249 3.0502 0.35926 6.152 1.6639 7.9188l6.649 9.0037c0.87863 1.1899 2.0847 0.7504 2.6857-0.97754l3.2628-9.385c1.5873-4.566 3.8561-8.0622 6.497-10.012l4.3791-3.2336c2.9793-2.1998 4.205-9.1513 2.5524-14.476h-1.45e-4c-0.31644-1.0198-0.34837-2.1819-0.16533-3.1904-4.2396 2.839e-4 -8.4764 1.2211-12.569 3.6844l-1.7233 1.0372c-7.0454 4.2398-14.664 2.8156-21.171-3.9576l-4.6306-4.8198 10.252 16.141z" fill="#00986C"/>
</g>
<g id="Group-14" transform="translate(498.25 613.72)">
<g id="Group-3" transform="translate(-.24609 .27734)">
<mask id="ad" fill="white">
<use xlink:href="#a"/>
</mask>
<path id="Fill-1" d="m3.4267 25.813 1.5 0.85603c1.2208 0.69677 2.5215 1.2446 3.8741 1.6317 3.5229 1.0082 7.2734 0.90438 10.735-0.29696l1.0569-0.36692c1.5974-0.55446 2.8743-1.7714 3.4995-3.3354l0.48127-1.2039c0.62423-1.5614 0.53769-3.3152-0.23726-4.8082l-1.9659-3.7876c-0.96988-1.8686-1.6369-3.8778-1.9764-5.9535l-0.050483-0.30853c-0.31342-1.9163-1.0685-3.7344-2.2062-5.312l-0.36631-0.50793c-0.94262-1.3071-2.3966-2.1571-4.0031-2.3403-2.7389-0.31213-5.3132 1.3586-6.1292 3.9783-0.61829 1.985-1.289 4.1324-1.6624 5.327-0.19122 0.61178-0.56284 1.1516-1.0668 1.5505l-1.5609 1.2349c-2.0199 1.5981-3.2317 3.9987-3.3136 6.5649l-0.031178 0.97688c-0.079971 2.5068 1.2364 4.853 3.4233 6.101" fill="#64CC75" mask="url(#ad)"/>
</g>
<path id="Fill-4" d="m16.872 24.701-1.2491 0.052085c-1.6123 0.067161-3.2183-0.23727-4.6917-0.88948l-0.99249-0.43932c-2.631-1.1646-3.328-4.5476-1.3682-6.6414l0.1293-0.13813c0.77851-0.83185 0.68399-2.1331-0.19137-2.8643-1.0685-0.89263-1.22-2.4699-0.33863-3.5465l1.1154-1.3625c0.81632-0.99722 1.1045-2.3203 0.77605-3.5626l-0.24984-0.94467c-0.25998-0.98308 0.15456-2.0197 1.0235-2.5593l0.037478-0.023295c0.26562-0.16499 0.45637-0.39714 0.56734-0.65742 0.2089-0.49009-0.27822-0.99412-0.78093-0.80762-1.589 0.58946-2.8755 1.8787-3.4058 3.5747-0.607 1.9419-1.2656 4.0426-1.632 5.211-0.18753 0.59806-0.55222 1.1262-1.0467 1.516l-1.5329 1.2084c-0.91426 0.72073-1.6598 1.6083-2.2056 2.6017-0.20478 0.37272 0.30783 0.72003 0.58354 0.3954 1.0895-1.2823 3.0213-1.4464 4.3149-0.36652l0.50859 0.42457c0.17886 0.14926 0.2795 0.37112 0.27348 0.6028l-0.0011845 0.043584c-0.0071071 0.27644-0.21942 0.50507-0.49679 0.53494l-1.735 0.18688c-0.72749 0.078386-1.3965 0.43171-1.8678 0.98646l-0.16711 0.19669c-0.47997 0.56495-1.1435 0.93302-1.8644 1.0512-0.35479 0.058143-0.61491 0.36328-0.62633 0.71956-0.078557 2.4521 1.2138 4.7471 3.3607 5.9679l1.4725 0.83735c1.1985 0.68156 2.4755 1.2174 3.8033 1.596h4.738e-5c3.2967 0.94006 6.7962 0.89108 10.059-0.13329l0.030987-0.050065c0.75539-1.2198-0.16991-2.781-1.6126-2.7209" fill="#00B882"/>
<path id="Fill-6" d="m20.514 20.499c-1.3425-0.45538-2.346-1.5702-2.5424-2.9389-0.026947-0.18803-0.01215-0.37216 0.037529-0.54464 0.02582-0.089721-0.056931-0.17553-0.15624-0.16331-0.0040665 4.545e-4 -0.008133 9.999e-4 -0.0122 0.0015453-0.73525 0.09663-1.4552-0.25475-1.8104-0.85971l-0.14037-0.23912c-0.19166-0.32657-0.57808-0.51637-0.97586-0.47119-0.72996 0.082903-1.2449 0.70222-1.1481 1.3768 0.18226 1.2706 1.1597 2.2914 2.4432 2.6375 0.26697 0.07195 0.49058 0.24426 0.62213 0.47147 0.58945 1.0183 1.7994 1.6253 3.0731 1.4885l0.12425-0.013363c0.17731-0.018999 0.34511-0.059905 0.50096-0.11922 0.30754-0.11699 0.29641-0.52055-0.015678-0.62637" fill="#00B882"/>
<g id="Group-10" transform="translate(5.7539 17.277)">
<mask id="ac" fill="white">
<use xlink:href="#n"/>
</mask>
<path id="Fill-8" d="m10.773 7.3802v4.762e-5c-0.034243 0.017333-0.060753 0.047619-0.074008 0.084619l-1.2767 3.5508c-0.07364 0.20495-0.22405 0.37057-0.41717 0.45943l-1.8584 0.85481c-0.16615 0.076476-0.35651-0.034524-0.37943-0.22114l-0.45643-3.7227c-0.025084-0.20443 0.068209-0.405 0.23832-0.51229l1.5496-0.97729c0.12583-0.079286 0.21834-0.20452 0.25926-0.35086l1.0687-3.8176c0.014912-0.053381-0.013854-0.10938-0.064987-0.12643-0.051134-0.017-0.10613 0.011095-0.12404 0.063476l-1.223 3.5699c-0.051088 0.1491-0.15616 0.27176-0.29309 0.34219l-1.3063 0.67176c-0.083444 0.042952-0.18138-0.021619-0.17872-0.118 0.0046946-0.17076 0.010033-0.34148 0.014682-0.51224l0.032126-0.85329c0.0098494-0.28452 0.024163-0.56867 0.036268-0.853l0.041146-0.84729 0.48948-3.8025c0.019377-0.15086-0.11051-0.27657-0.25466-0.24657-0.087402 0.01819-0.15474 0.090476-0.16919 0.18152l-0.6009 3.8005-5.9832e-4 0.0036667-0.0015649 0.016429-0.059603 0.61695-1.2557-0.60614c-0.097251-0.046952-0.16822-0.13771-0.19229-0.24595l-0.55313-2.4888c-0.012105-0.054333-0.063423-0.089238-0.11649-0.079-0.052975 0.01019-0.088782 0.06181-0.081142 0.11705l0.3879 2.8127c0.0089289 0.064619 0.045289 0.12171 0.099184 0.15567l1.6419 1.035c-0.012841 0.127-0.02582 0.254-0.039858 0.38095l-0.091314 0.84871c-0.02223 0.18719-0.056151 0.49867-0.07654 0.68767-0.011506 0.10667-0.015234 0.214-0.011138 0.32129l0.12777 3.357c0.0048326 0.12743-0.12638 0.21171-0.23459 0.15057l-2.7955-1.5783c-0.19782-0.11171-0.35163-0.29152-0.43466-0.50833l-1.8034-4.7056c-0.034013-0.08881-0.12979-0.13386-0.21682-0.10195-0.087033 0.031905-0.13403 0.12929-0.10646 0.22038l1.5418 5.0961c0.067197 0.22205 0.20725 0.41286 0.39595 0.53943l3.3786 2.2658c0.2107 0.14133 0.34192 0.37971 0.35177 0.63933l0.079071 2.0769c0.0078243 0.2049-0.0031757 0.41005-0.032678 0.61281l-0.78123 5.3618h2.2444l-0.025728-5.469c-6.4435e-4 -0.13162-0.0089289-0.263-0.024946-0.39357l-0.11921-0.97195c-0.039213-0.31981 0.1111-0.63267 0.38123-0.79333l2.236-1.3305c0.18-0.1071 0.31173-0.28362 0.36631-0.49095l0.97983-3.9942c0.031159-0.12729-0.09587-0.234-0.20987-0.17629" fill="#009F70" mask="url(#ac)"/>
</g>
<g id="Group-13" transform="translate(5.7539 17.277)">
<mask id="ab" fill="white">
<use xlink:href="#m"/>
</mask>
<path id="Fill-11" d="m6.6544 15.174-0.15847-1.0881c-0.030669-0.21019 0.067864-0.41814 0.2482-0.52405l2.5891-1.5202c0.18234-0.1071 0.31569-0.28362 0.37102-0.49095 0 0 1.0297-3.1581 1.2887-4.1853-0.026801-0.0031905-0.05528 1e-3 -0.083013 0.014857-0.034678 0.017381-0.061525 0.047667-0.074996 0.084619l-1.2929 3.5508c-0.074576 0.205-0.2269 0.37057-0.42247 0.45943l-1.8821 0.85481c-0.10823 0.049238-0.22643 0.020524-0.30329-0.055667l-0.12268 0.055667c-0.16826 0.076476-0.36104-0.034476-0.38425-0.22114l-0.46223-3.7227c-0.025403-0.20443 0.069123-0.405 0.24135-0.51224l1.8084-1.1226c0.078631-0.04881 0.13778-0.12457 0.16686-0.21376l1.2852-3.939c-0.047542-0.008381-0.095178 0.018857-0.11172 0.066571l-1.2386 3.5699c-0.051691 0.1491-0.1581 0.27176-0.29677 0.34219l-1.3229 0.67176c-0.084504 0.042952-0.18369-0.021619-0.18103-0.118 9.322e-5 -0.0021429 1.8644e-4 -0.0042857 2.3305e-4 -0.0064286l-0.24517 0.12443c-0.084504 0.042952-0.18364-0.021619-0.18094-0.118 0.0047542-0.17076 0.010114-0.34148 0.014822-0.51224l0.032534-0.85329c0.0099746-0.28452 0.02447-0.56867 0.036729-0.853l0.04167-0.84729 0.74977-4.0489c-0.027314-0.0057143-0.056305-0.0063333-0.086042-1.9048e-4 -0.088466 0.018143-0.15666 0.090476-0.17129 0.18148l-0.60854 3.8005-6.0593e-4 0.0036667-0.0015847 0.016429-0.06036 0.6169-0.407-0.194-0.018924 0.194-1.1097-0.57438c-0.10562-0.054619-0.17852-0.15843-0.19553-0.27814l-0.36291-2.5634c-0.015847-0.0052857-0.033-0.0071429-0.050479-0.0038572-0.053648 0.01019-0.089958 0.06181-0.082267 0.11705l0.39292 2.8127c0.0090424 0.064571 0.045864 0.12167 0.1004 0.15562l1.6629 1.035c-0.013004 0.127-0.026148 0.25405-0.040364 0.38095l-0.092475 0.84871c-0.022466 0.18719-0.056864 0.49871-0.077513 0.68767-0.011653 0.10667-0.015428 0.214-0.011326 0.32124l0.12944 3.357c0.0048941 0.12743-0.12799 0.21167-0.23757 0.15062l-0.19236-0.10719c-0.022466 0.1019-0.13703 0.16095-0.23361 0.10719l-2.9456-1.6423c-0.1258-0.070095-0.22172-0.18543-0.26913-0.32367l-1.6897-4.9219c-0.079191 0.036619-0.12095 0.12776-0.094525 0.21405l1.5614 5.096c0.068004 0.22205 0.20984 0.41286 0.40099 0.53938l3.4216 2.2659c0.21338 0.14133 0.34627 0.37971 0.35629 0.63933l0.079983 2.0769c0.0079237 0.2049-0.0031695 0.41005-0.033047 0.61286l-0.79116 5.3617h1.2049l0.45184-5.5059c0.0087161-0.10681 0.0053602-0.21419-0.010068-0.32014" fill="#005639" mask="url(#ab)"/>
</g>
</g>
<g transform="translate(231.65 163)">
<polygon points="7.3516 447 62.352 447 62.352 412 7.3516 412" fill="#0068C9"/>
<polygon points="170.35 489 170.35 489 170.35 456 170.35 456" fill="#1C417D"/>
<polygon points="72.352 489 145.35 489 145.35 456 72.352 456" fill="#1C417D"/>
<polygon points="145.35 489 163.35 489 163.35 456 145.35 456" fill="#0080F6"/>
<polygon points="63.352 447 63.352 456.34 63.352 489 71.349 489 71.349 456.34 144.67 456.34 162.35 456.34 162.35 489 170.35 489 170.35 456.34 170.35 447" fill="#B8DDFF"/>
<polygon points="63.352 447 162.35 447 162.35 412 63.352 412" fill="#3CA1FF"/>
<path d="m137.77 446.29h23.872v-10.607h-23.872v10.607zm-24.69 0h23.983v-10.607h-23.983v10.607zm-24.689 0h23.983v-10.607h-23.983v10.607zm-24.337 0h23.63v-10.607h-23.63v10.607zm3.531e-4 -22.98h23.63v-10.607h-23.63v10.607zm73.715 11.666h23.872v-10.96h-23.872v10.96zm-24.69 0h23.983v-10.96h-23.983v10.96zm0-11.666h23.983v-10.607h-23.983v10.607zm-24.69 0h23.983v-10.607h-23.983v10.607zm-24.336 11.667h23.63v-10.96h-23.63v10.96zm24.337-3.53e-4h23.983v-10.96h-23.983v10.96zm49.379-11.666h23.872v-10.607h-23.872v10.607zm24.578-11.313h-99v35h24.337v3.53e-4h0.70616v-3.53e-4h23.983v3.53e-4h0.70616v-3.53e-4h23.983v3.53e-4h0.70616v-3.53e-4h24.578v-35z" fill="#B8DDFF"/>
<path d="m48.921 435.05h12.869v-11.11h-12.869v11.11zm0 11.388h12.869v-10.831h-12.869v10.831zm-13.712 0h13.15v-10.831h-13.15v10.831zm-13.712 0h13.15v-10.831h-13.15v10.831zm-13.582 0h13.02v-10.831h-13.02v10.831zm0-23.055h13.02v-10.831h-13.02v10.831zm27.295 0h13.15v-10.831h-13.15v10.831zm0 11.666h13.15v-11.11h-13.15v11.11zm-13.712-11.666h13.15v-10.831h-13.15v10.831zm-13.582 11.667h13.02v-11.11h-13.02v11.11zm13.582-3.53e-4h13.15v-11.11h-13.15v11.11zm27.424-11.666h12.869v-10.831h-12.869v10.831zm13.431 0.55665v-0.55665-11.388h-55v35h13.582v3.53e-4h0.56208v-3.53e-4h13.15v3.53e-4h0.56208v-3.53e-4h13.15v3.53e-4h0.56208v-3.53e-4h13.431v-11.388-0.55666-11.11z" fill="#3CA1FF"/>
<polygon points="0.35156 489 62.352 489 62.352 447 0.35156 447" fill="#3CA1FF"/>
<polygon points="5.3829 458 4.3516 458 17.352 458 17.352 453 5.3829 453" fill="#1C417D"/>
<polygon points="4.3516 453 4.3516 453 3.3516 453 3.3516 458 3.3519 458 4.3516 458" fill="#0068C9"/>
<polygon points="22.426 458 21.352 458 31.352 458 31.352 453 22.426 453" fill="#1C417D"/>
<polygon points="21.352 453 21.352 453 20.352 453 20.352 458 20.352 458 21.352 458" fill="#0068C9"/>
<polygon points="34.426 458 33.352 458 43.352 458 43.352 453 34.426 453" fill="#1C417D"/>
<polygon points="33.352 453 33.352 453 32.352 453 32.352 458 32.352 458 33.352 458" fill="#0068C9"/>
<polygon points="47.383 453 47.383 458 46.352 458 59.352 458 59.352 453" fill="#1C417D"/>
<polygon points="47.352 453 47.352 453 46.352 453 46.352 458 46.352 458 47.352 458" fill="#0068C9"/>
<polygon points="5.3829 464 4.3516 464 17.352 464 17.352 459 5.3829 459" fill="#1C417D"/>
<polygon points="4.3516 459 4.3516 459 3.3516 459 3.3516 464 3.3519 464 4.3516 464" fill="#0068C9"/>
<polygon points="22.426 464 21.352 464 31.352 464 31.352 459 22.426 459" fill="#1C417D"/>
<polygon points="21.352 459 21.352 459 20.352 459 20.352 464 20.352 464 21.352 464" fill="#0068C9"/>
<polygon points="34.426 464 33.352 464 43.352 464 43.352 459 34.426 459" fill="#1C417D"/>
<polygon points="33.352 459 33.352 459 32.352 459 32.352 464 32.352 464 33.352 464" fill="#0068C9"/>
<polygon points="47.383 464 46.352 464 59.352 464 59.352 459 47.383 459" fill="#1C417D"/>
<polygon points="47.352 459 47.352 459 46.352 459 46.352 464 46.352 464 47.352 464" fill="#0068C9"/>
<polygon points="5.3829 473 4.3516 473 17.352 473 17.352 468 5.3829 468" fill="#1C417D"/>
<polygon points="4.3516 468 4.3516 468 3.3516 468 3.3516 473 3.3519 473 4.3516 473" fill="#0068C9"/>
<polygon points="22.426 473 21.352 473 31.352 473 31.352 468 22.426 468" fill="#1C417D"/>
<polygon points="21.352 468 21.352 468 20.352 468 20.352 473 20.352 473 21.352 473" fill="#0068C9"/>
<polygon points="34.426 473 33.352 473 43.352 473 43.352 468 34.426 468" fill="#1C417D"/>
<polygon points="33.352 468 33.352 468 32.352 468 32.352 473 32.352 473 33.352 473" fill="#0068C9"/>
<polygon points="47.383 473 46.352 473 59.352 473 59.352 468 47.383 468" fill="#1C417D"/>
<polygon points="47.352 468 47.352 468 46.352 468 46.352 473 46.352 473 47.352 473" fill="#0068C9"/>
<polygon points="5.3829 481 4.3516 481 17.352 481 17.352 476 5.3829 476" fill="#1C417D"/>
<polygon points="4.3516 476 4.3516 476 3.3516 476 3.3516 481 3.3519 481 4.3516 481" fill="#0068C9"/>
<polygon points="22.426 481 21.352 481 31.352 481 31.352 476 22.426 476" fill="#1C417D"/>
<polygon points="21.352 476 21.352 476 20.352 476 20.352 481 20.352 481 21.352 481" fill="#0068C9"/>
<polygon points="34.426 481 33.352 481 43.352 481 43.352 476 34.426 476" fill="#1C417D"/>
<polygon points="33.352 476 33.352 476 32.352 476 32.352 481 32.352 481 33.352 481" fill="#0068C9"/>
<polygon points="47.383 481 46.352 481 59.352 481 59.352 476 47.383 476" fill="#1C417D"/>
<polygon points="47.352 476 47.352 476 46.352 476 46.352 481 46.352 481 47.352 481" fill="#0068C9"/>
<polygon points="72.352 489 145.35 489 145.35 473 72.352 473" fill="#3CA1FF"/>
<polygon points="97.352 488 102.35 488 102.35 477 97.352 477" fill="#FAD1C5"/>
<polygon points="103.35 488 108.35 488 108.35 477 103.35 477" fill="#FAD1C5"/>
<polygon points="110.35 488 115.35 488 115.35 477 110.35 477" fill="#FAD1C5"/>
<polygon points="116.35 488 121.35 488 121.35 477 116.35 477" fill="#FAD1C5"/>
<polygon points="71.352 488 78.352 488 78.352 482 71.352 482" fill="#FAD1C5"/>
<polygon points="80.352 488 87.352 488 87.352 482 80.352 482" fill="#FAD1C5"/>
<polygon points="71.352 482 78.352 482 78.352 476 71.352 476" fill="#FAD1C5"/>
<polygon points="80.352 482 87.352 482 87.352 476 80.352 476" fill="#FAD1C5"/>
<polygon points="129.35 488 136.35 488 136.35 482 129.35 482" fill="#FAD1C5"/>
<polygon points="137.35 488 144.35 488 144.35 482 137.35 482" fill="#FAD1C5"/>
<polygon points="129.35 482 136.35 482 136.35 476 129.35 476" fill="#FAD1C5"/>
<polygon points="137.35 482 144.35 482 144.35 476 137.35 476" fill="#FAD1C5"/>
<polygon points="97.308 489 97.395 489 97.395 476 97.308 476" fill="#1C417D"/>
<polygon points="102.31 488 102.4 488 102.4 477 102.31 477" fill="#1C417D"/>
<polygon points="108.31 488 108.4 488 108.4 477 108.31 477" fill="#1C417D"/>
<polygon points="109.31 489 109.4 489 109.4 476 109.31 476" fill="#1C417D"/>
<polygon points="115.31 488 115.4 488 115.4 477 115.31 477" fill="#1C417D"/>
<polygon points="120.31 488 120.4 488 120.4 477 120.31 477" fill="#1C417D"/>
<polygon points="78.324 488 78.379 488 78.379 482 78.324 482" fill="#1C417D"/>
<polygon points="86.324 488 86.379 488 86.379 482 86.324 482" fill="#1C417D"/>
<polygon points="71.324 476 71.324 482.5 71.324 489 71.379 489 71.379 482.5 71.379 476" fill="#1C417D"/>
<polygon points="78.324 482 78.379 482 78.379 476 78.324 476" fill="#1C417D"/>
<polygon points="79.324 476 79.324 482.5 79.324 489 79.379 489 79.379 482.5 79.379 476" fill="#1C417D"/>
<polygon points="86.324 482 86.379 482 86.379 476 86.324 476" fill="#1C417D"/>
<polygon points="135.32 488 135.38 488 135.38 482 135.32 482" fill="#1C417D"/>
<polygon points="143.32 488 143.38 488 143.38 482 143.32 482" fill="#1C417D"/>
<polygon points="128.32 476 128.32 482.5 128.32 489 128.38 489 128.38 482.5 128.38 476" fill="#1C417D"/>
<polygon points="135.32 482 135.38 482 135.38 476 135.32 476" fill="#1C417D"/>
<polygon points="136.32 476 136.32 482.5 136.32 489 136.38 489 136.38 482.5 136.38 476" fill="#1C417D"/>
<polygon points="143.32 482 143.38 482 143.38 476 143.32 476" fill="#1C417D"/>
<path d="m109.05 476h-0.75183-10.947v13h10.947 0.75183 0.30073v-13h-0.30073zm-5.248 1.1634h4.3461 0.30073v10.673h-0.30073-4.3461v-10.673zm-5.5491 0h4.3461 0.30073v10.673h-0.30073-4.3461v-10.673z" fill="#0068C9"/>
<path d="m121.05 476h-0.75185-10.948v13h10.948 0.75185 0.3004v-13h-0.3004zm-5.2485 1.1634h4.3466 0.30074v10.673h-0.30074-4.3466v-10.673zm-5.5489 0h4.3459 0.30109v10.673h-0.30109-4.3459v-10.673z" fill="#0068C9"/>
<path d="m79.151 476h-0.50124-7.2985v6.5002 6.4998h7.2985 0.50124 0.20028v-6.4998-6.5002h-0.20028zm-7.1985 0.58185h6.597 0.20028v5.3365h-0.20028-6.597v-5.3365zm0 6.4998h6.597 0.20028v5.3368h-0.20028-6.597v-5.3368z" fill="#0068C9"/>
<path d="m87.151 476h-0.50126-7.2984v6.5002 6.4998h7.2984 0.50126 0.20029v-6.4998-6.5002h-0.20029zm-7.1988 0.58185h6.5976 0.20029v5.3365h-0.20029-6.5976v-5.3365zm0 6.4998h6.5976 0.20029v5.3368h-0.20029-6.5976v-5.3368z" fill="#0068C9"/>
<path d="m136.15 476h-0.50124-7.2985v6.5002 6.4998h7.2985 0.50124 0.20028v-6.4998-6.5002h-0.20028zm-7.1985 0.58185h6.597 0.20028v5.3365h-0.20028-6.597v-5.3365zm0 6.4998h6.597 0.20028v5.3368h-0.20028-6.597v-5.3368z" fill="#0068C9"/>
<path d="m145.15 476h-0.50124-7.2985v6.5002 6.4998h7.2985 0.50124 0.20028v-6.4998-6.5002h-0.20028zm-7.1982 0.58185h6.597 0.20028v5.3365h-0.20028-6.597v-5.3365zm0 6.4998h6.597 0.20028v5.3368h-0.20028-6.597v-5.3368z" fill="#0068C9"/>
<path d="m65.352 333h15-15z" fill="#1C417D"/>
<polygon points="80.352 96 20.352 96 80.352 333" fill="#1C417D"/>
<polygon points="80.352 333 20.352 96 64.93 333" fill="#0080F6"/>
<polygon points="65.352 332.68 20.352 96 20.352 412 65.352 412" fill="#1C417D"/>
<polygon points="81.076 96 81.076 96 81.076 332.68 65.352 332.68 65.352 412 81.076 412 117.35 412 117.35 112.7" fill="#0068C9"/>
<polygon points="42.11 0 20.352 96 80.352 96 42.661 0" fill="#0080F6"/>
<polygon points="117.35 113 117.35 113 117.35 412 139.35 412 139.35 113" fill="#0080F6"/>
<polygon points="51.352 0 116.31 113 138.35 113 90.887 0" fill="#B8DDFF"/>
<polygon points="20.352 96 20.352 412 65.352 412 65.352 332.33" fill="#1C417D"/>
<polygon points="139.35 112.7 139.35 412 146.35 412 146.35 96" fill="#B8DDFF"/>
<polygon points="91.352 0 139.91 113 146.35 96.261 95.966 0" fill="#DFF0FF"/>
<polygon points="43.352 0 81.4 96.261 117.35 113 51.927 0" fill="#3CA1FF"/>
<polygon points="20.352 400 65.352 400 65.352 399 20.352 399" fill="#0068C9"/>
<polygon points="20.352 383 65.352 383 65.352 382 20.352 382" fill="#0068C9"/>
<polygon points="20.352 366 65.352 366 65.352 365 20.352 365" fill="#0068C9"/>
<polygon points="20.352 349 65.352 349 65.352 348 20.352 348" fill="#0068C9"/>
<polygon points="80.307 332 80.393 333 80.396 333 80.396 332" fill="#0068C9"/>
<polygon points="65.352 333 65.352 332.74 65.184 332 20.352 332 20.352 333" fill="#0068C9"/>
<polygon points="75.352 315 75.681 316 80.352 316 80.352 315" fill="#0068C9"/>
<polygon points="62.352 316 62.124 315 20.352 315 20.352 316" fill="#0068C9"/>
<polygon points="58.352 299 58.129 298 20.352 298 20.352 299" fill="#0068C9"/>
<polygon points="71.352 298 71.658 299 80.352 299 80.352 298" fill="#0068C9"/>
<polygon points="55.352 283 55.128 282 20.352 282 20.352 283" fill="#0068C9"/>
<polygon points="67.352 282 67.65 283 80.352 283 80.352 282" fill="#0068C9"/>
<polygon points="62.352 265 62.664 266 80.352 266 80.352 265" fill="#0068C9"/>
<polygon points="52.352 266 52.126 265 20.352 265 20.352 266" fill="#0068C9"/>
<polygon points="50.352 248 50.117 247 20.352 247 20.352 248" fill="#0068C9"/>
<polygon points="58.352 247 58.658 248 80.352 248 80.352 247" fill="#0068C9"/>
<polygon points="54.352 231 54.653 232 80.352 232 80.352 231" fill="#0068C9"/>
<polygon points="46.352 232 46.123 231 20.352 231 20.352 232" fill="#0068C9"/>
<polygon points="49.352 214 49.661 215 80.352 215 80.352 214" fill="#0068C9"/>
<polygon points="42.352 215 42.131 214 20.352 214 20.352 215" fill="#0068C9"/>
<polygon points="39.352 198 39.129 197 20.352 197 20.352 198" fill="#0068C9"/>
<polygon points="45.352 197 45.657 198 80.352 198 80.352 197" fill="#0068C9"/>
<polygon points="36.352 181 36.127 180 20.352 180 20.352 181" fill="#0068C9"/>
<polygon points="41.352 180 41.655 181 80.352 181 80.352 180" fill="#0068C9"/>
<polygon points="36.352 163 36.66 164 80.352 164 80.352 163" fill="#0068C9"/>
<polygon points="33.352 164 33.124 163 20.352 163 20.352 164" fill="#0068C9"/>
<polygon points="32.352 146 32.658 147 80.352 147 80.352 146" fill="#0068C9"/>
<polygon points="30.352 147 30.119 146 20.352 146 20.352 147" fill="#0068C9"/>
<polygon points="27.352 129 27.661 130 80.352 130 80.352 129" fill="#0068C9"/>
<polygon points="27.352 130 27.108 129 20.352 129 20.352 130" fill="#0068C9"/>
<polygon points="20.352 112 20.352 113 24.352 113 24.078 112" fill="#0068C9"/>
<polygon points="23.352 112 23.659 113 80.352 113 80.352 112" fill="#0068C9"/>
<polygon points="20.491 97 80.352 97 80.352 96 20.352 96" fill="#0068C9"/>
<polygon points="20.337 97 20.366 97 20.337 96" fill="#0068C9"/>
<polygon points="139.35 400 146.35 400 146.35 399 139.35 399" fill="#EFF7FF"/>
<polygon points="139.35 383 146.35 383 146.35 382 139.35 382" fill="#EFF7FF"/>
<polygon points="139.35 366 146.35 366 146.35 365 139.35 365" fill="#EFF7FF"/>
<polygon points="139.35 349 146.35 349 146.35 348 139.35 348" fill="#EFF7FF"/>
<polygon points="139.35 333 146.35 333 146.35 332 139.35 332" fill="#EFF7FF"/>
<polygon points="139.35 316 146.35 316 146.35 315 139.35 315" fill="#EFF7FF"/>
<polygon points="139.35 299 146.35 299 146.35 298 139.35 298" fill="#EFF7FF"/>
<polygon points="139.35 283 146.35 283 146.35 282 139.35 282" fill="#EFF7FF"/>
<polygon points="139.35 266 146.35 266 146.35 265 139.35 265" fill="#EFF7FF"/>
<polygon points="139.35 248 146.35 248 146.35 247 139.35 247" fill="#EFF7FF"/>
<polygon points="139.35 232 146.35 232 146.35 231 139.35 231" fill="#EFF7FF"/>
<polygon points="139.35 215 146.35 215 146.35 214 139.35 214" fill="#EFF7FF"/>
<polygon points="139.35 198 146.35 198 146.35 197 139.35 197" fill="#EFF7FF"/>
<polygon points="139.35 181 146.35 181 146.35 180 139.35 180" fill="#EFF7FF"/>
<polygon points="139.35 164 146.35 164 146.35 163 139.35 163" fill="#EFF7FF"/>
<polygon points="139.35 147 146.35 147 146.35 146 139.35 146" fill="#EFF7FF"/>
<polygon points="139.35 130 146.35 130 146.35 129 139.35 129" fill="#EFF7FF"/>
<polygon points="138.35 112 138.57 112.4 138.57 113 145.35 113 145.35 112" fill="#EFF7FF"/>
<polygon points="131.83 96 144.35 96 144.35 95.538 144.04 95 131.35 95" fill="#EFF7FF"/>
<polygon points="124.35 79 124.84 80 136.35 80 135.76 79" fill="#EFF7FF"/>
<polygon points="116.35 61 116.86 62 127.35 62 126.73 61" fill="#EFF7FF"/>
<polygon points="110.35 44 110.84 45 119.35 45 118.76 44" fill="#EFF7FF"/>
<polygon points="102.35 29 102.87 30 110.35 30 109.72 29" fill="#EFF7FF"/>
<polygon points="94.352 11 94.923 12 101.35 12 100.66 11" fill="#EFF7FF"/>
<polygon points="25.352 129 25.627 130 28.352 130 27.982 129" fill="#3CA1FF"/>
<polygon points="22.352 112 22.683 113 24.352 113 23.906 112" fill="#3CA1FF"/>
<polygon points="37.352 164 37.026 163 32.352 163 32.593 164" fill="#3CA1FF"/>
<polygon points="81.352 97 80.352 96 80.352 97" fill="#3CA1FF"/>
<polygon points="58.352 248 58.053 247 48.352 247 48.574 248" fill="#3CA1FF"/>
<polygon points="20.361 97 20.372 97 20.332 96" fill="#3CA1FF"/>
<polygon points="29.352 146 29.605 147 33.352 147 33.011 146" fill="#3CA1FF"/>
<polygon points="50.352 215 50.047 214 42.352 214 42.578 215" fill="#3CA1FF"/>
<polygon points="54.352 232 54.051 231 45.352 231 45.576 232" fill="#3CA1FF"/>
<polygon points="42.352 181 41.983 180 35.352 180 35.626 181" fill="#3CA1FF"/>
<polygon points="46.352 198 46.042 197 39.352 197 39.582 198" fill="#3CA1FF"/>
<polygon points="80.1 95 20.497 95 20.352 96 80.352 96" fill="#3CA1FF"/>
<polygon points="88.049 62 118.35 62 117.84 61 87.352 61" fill="#3CA1FF"/>
<polygon points="78.036 45 110.35 45 109.85 44 77.352 44" fill="#3CA1FF"/>
<polygon points="68.024 30 102.35 30 101.86 29 67.352 29" fill="#3CA1FF"/>
<polygon points="73.875 79 23.627 79 23.352 80 74.352 80" fill="#3CA1FF"/>
<polygon points="97.041 80 124.35 80 123.85 79 96.352 79" fill="#3CA1FF"/>
<polygon points="107.06 96 132.35 96 131.84 95 106.35 95" fill="#3CA1FF"/>
<polygon points="95.352 12 94.855 11 57.352 11 58.031 12" fill="#3CA1FF"/>
<polygon points="60.87 44 31.63 44 31.352 45 61.352 45" fill="#3CA1FF"/>
<polygon points="67.879 61 28.625 61 28.352 62 68.352 62" fill="#3CA1FF"/>
<polygon points="46.895 11 39.616 11 39.352 12 47.352 12" fill="#3CA1FF"/>
<polygon points="53.875 29 35.627 29 35.352 30 54.352 30" fill="#3CA1FF"/>
<polygon points="65.352 383 139.35 383 139.35 382 65.352 382" fill="#3CA1FF"/>
<polygon points="80.352 215 138.35 215 138.35 214 80.352 214" fill="#3CA1FF"/>
<polygon points="80.352 232 138.35 232 138.35 231 80.352 231" fill="#3CA1FF"/>
<polygon points="80.352 198 138.35 198 138.35 197 80.352 197" fill="#3CA1FF"/>
<polygon points="80.352 248 138.35 248 138.35 247 80.352 247" fill="#3CA1FF"/>
<polygon points="80.352 266 138.35 266 138.35 265 80.352 265" fill="#3CA1FF"/>
<polygon points="80.352 164 138.35 164 138.35 163 80.352 163" fill="#3CA1FF"/>
<polygon points="80.352 130 138.35 130 138.35 129 80.352 129" fill="#3CA1FF"/>
<polygon points="80.352 181 138.35 181 138.35 180 80.352 180" fill="#3CA1FF"/>
<polygon points="63.352 266 63.028 265 51.352 265 51.592 266" fill="#3CA1FF"/>
<polygon points="80.352 283 138.35 283 138.35 282 80.352 282" fill="#3CA1FF"/>
<polygon points="80.352 147 138.35 147 138.35 146 80.352 146" fill="#3CA1FF"/>
<polygon points="138.15 112 115.93 112 116.21 112.4 115.19 112 80.352 112 80.352 113 138.35 113 138.35 112.4" fill="#3CA1FF"/>
<polygon points="64.522 333 80.352 333 80.042 332 64.352 332 64.522 332.74" fill="#3CA1FF"/>
<polygon points="75.352 316 75.06 315 61.352 315 61.569 316" fill="#3CA1FF"/>
<polygon points="68.352 283 68.057 282 56.352 282 56.57 283" fill="#3CA1FF"/>
<polygon points="65.352 400 139.35 400 139.35 399 65.352 399" fill="#3CA1FF"/>
<polygon points="71.352 299 71.059 298 58.352 298 58.569 299" fill="#3CA1FF"/>
<polygon points="80.352 333 138.35 333 138.35 332 80.352 332" fill="#3CA1FF"/>
<polygon points="80.352 316 138.35 316 138.35 315 80.352 315" fill="#3CA1FF"/>
<polygon points="80.352 299 138.35 299 138.35 298 80.352 298" fill="#3CA1FF"/>
<polygon points="65.352 349 139.35 349 139.35 348 65.352 348" fill="#3CA1FF"/>
<polygon points="65.352 366 139.35 366 139.35 365 65.352 365" fill="#3CA1FF"/>
<polygon points="116.35 113 116.08 112 115.35 112" fill="#0068C9"/>
<polygon points="80.352 95 80.607 95.538 81.797 96 107.35 96 106.66 95" fill="#0068C9"/>
<polygon points="73.352 79 73.829 80 97.352 80 96.653 79" fill="#0068C9"/>
<polygon points="67.352 61 67.809 62 87.352 62 86.682 61" fill="#0068C9"/>
<polygon points="59.352 44 59.836 45 77.352 45 76.642 44" fill="#0068C9"/>
<polygon points="54.352 29 54.81 30 68.352 30 67.68 29" fill="#0068C9"/>
<polygon points="46.352 11 46.852 12 58.352 12 57.618 11" fill="#0068C9"/>
<path d="m126.85 473.26h17.793v-8.5889h-17.793v8.5889zm-18.323 0h17.613v-8.5889h-17.613v8.5889zm-18.323 0h17.613v-8.5889h-17.613v8.5889zm55.147-17.264h-0.70902v7.9382h-17.793v-7.9382h-0.70938v7.9382h-17.613v-7.9382h-0.70902v7.9382h-17.613v-7.9382h-0.70938v7.9382h-17.144v0.73648h17.144v8.5889h-17.144v0.73648h73v-18z" fill="#0080F6"/>
</g>
<g id="Group-10" transform="translate(160.68 594.54)">
<g id="Group-3" transform="translate(.31641 -.54297)">
<mask id="aa" fill="white">
<use xlink:href="#l"/>
</mask>
<path id="Fill-1" d="m15.701 36.537 0.42584-0.25869c1.8663-1.134 4.0435-1.6294 6.2094-1.4129l4.0295 0.4027c3.821 0.38173 7.5269-1.4557 9.572-4.7461l2.4312-3.9118c1.881-3.0264 2.0702-6.8261 0.49938-10.029l-3.0735-6.2664c-1.4939-3.0458-4.3812-5.1441-7.7091-5.603-0.41397-0.057048-0.8209-0.11323-1.2073-0.16672-1.8302-0.25282-3.5566-1.0071-4.9939-2.1818l-0.097577-0.079752c-3.2844-2.684-7.8676-3.0258-11.505-0.85803l-1.1115 0.66245c-2.8224 1.6822-4.668 4.6419-4.9544 7.9453l-0.44884 5.1756c-0.13273 1.5317-0.6038 3.0135-1.3783 4.3361l-0.9714 1.6586c-1.4029 2.3954-1.7838 5.2653-1.0555 7.9507l0.35297 1.3014c0.75468 2.7826 2.6315 5.1147 5.1705 6.4249 3.1117 1.6057 6.8208 1.4758 9.8156-0.34373" fill="#FFD9AF" mask="url(#aa)"/>
</g>
<path id="Fill-4" d="m14.287 16.473c0.34344 0.38108 0.83836 0.59419 1.3543 0.58314l1.2046-0.026167c2.6651-0.057624 5.2999 0.5685 7.6479 1.8176l0.81087 0.43124c0.4219 0.22455 0.85936-0.27159 0.57759-0.65484l-0.62321-0.84774c-0.88619-1.2054-2.0805-2.1559-3.4603-2.7539l-1.2573-0.54488c-0.96092-0.4165-1.9705-0.71331-3.0054-0.88345l-0.90804-0.14935c-0.6801-0.11185-1.3781 0.02664-1.9621 0.3892-0.92446 0.57407-1.1052 1.8329-0.37885 2.639v9.45e-5zm21.215 14.868c-2.1423 2.4505-5.3761 3.7584-8.6973 3.434l-4.048-0.39534c-2.176-0.21255-4.3634 0.27386-6.2383 1.3873l-0.42782 0.25411c-3.0087 1.7867-6.735 1.9142-9.8612 0.33743-2.5509-1.2865-4.4365-3.5766-5.1946-6.3087l-0.35461-1.2781c-0.73174-2.6369-0.34898-5.455 1.0603-7.8071l0.97591-1.6288c0.77823-1.2986 1.2515-2.7539 1.3849-4.2581l0.45073-5.0819c0.16723-1.885 0.86366-3.6556 1.9741-5.1324 0.55057-0.73221 1.7194-0.41811 1.8222 0.48877 0.11454 1.0112 0.40892 2.0091 0.8858 2.9459l0.63915 1.2556c0.98374 1.9324 0.95463 4.2179-0.078176 6.1252l-0.93219 1.7216c-0.66454 1.2272-0.85736 2.652-0.54131 4.0102 0.54609 2.3464 3.1444 3.5958 5.3571 2.5944l2.0128-0.91075c3.0388-1.3751 6.6026-0.92662 9.1969 1.1575l0.54828 0.4404c1.9796 1.5903 4.6897 1.9563 7.0274 0.9492 1.7642-0.75998 3.7514 0.46128 3.8452 2.3632v9.45e-5c0.05794 1.1752-0.22842 2.3307-0.80744 3.3363z" fill="#E99462"/>
<path id="Fill-6" d="m25.822 32.637-2.1765 4.2104c-0.083194 0.16103-0.21669 0.28954-0.37945 0.36537l-3.063 1.4267c-0.20225 0.094274-0.43441-0.048508-0.44559-0.27412l-0.21036-4.2324c-0.011738-0.23658 0.095212-0.46314 0.28442-0.60195l1.8195-1.3355c0.14645-0.10751 0.24017-0.27374 0.25722-0.45633l0.31237-3.3387c0.0095957-0.10212-0.062046-0.19365-0.16219-0.20718l-0.046767-0.0063354c-0.10024-0.013522-0.19303 0.0556-0.21017 0.15678l-0.55702 3.0201c-0.033352 0.18051-0.15456 0.33171-0.32197 0.4014l-1.2011 0.50002c-0.1212 0.050494-0.25554-0.033946-0.26514-0.16642l-0.043786-0.60526c-0.016303-0.22505-0.075275-0.4448-0.17375-0.64706l-2.0984-4.3126c-0.035681-0.073282-0.12614-0.099096-0.19415-0.055411-0.052264 0.033662-0.075554 0.098813-0.056549 0.15857l1.4583 4.595c0.060835 0.19186 0.08692 0.39336 0.076672 0.59458l-0.22741 4.5034c-0.015372 0.30325-0.33222 0.49075-0.59978 0.35497l-2.3264-1.1809c-0.23477-0.11914-0.42212-0.31648-0.53074-0.55912l-1.9672-4.3944c-0.040991-0.091721-0.14608-0.13418-0.23803-0.096449l-0.10238 0.042078c-0.089901 0.036972-0.13648 0.13815-0.10667 0.23195l1.6723 5.2542c0.042016 0.132 0.13052 0.24367 0.24865 0.31355l3.3231 1.9662c0.31591 0.18694 0.50252 0.53718 0.48379 0.90785l-0.67188 13.303c-0.021986 0.43657-0.05776 0.87248-0.10704 1.3068l-0.41737 3.6771h4.1254l-0.41643-3.6689c-0.049842-0.43979-0.085802-0.88099-0.10779-1.3231l-0.5518-11.099c-0.025806-0.51969 0.23952-1.0096 0.68558-1.2659l3.4306-1.9716c0.22685-0.1303 0.40218-0.33634 0.49618-0.58314l1.7859-4.6859c0.033631-0.088411-0.0064282-0.18808-0.091392-0.22722l-0.16294-0.075079c-0.084964-0.039147-0.1853-0.0041605-0.22862 0.079712" fill="#CE643A"/>
<path id="Fill-8" d="m26.306 32.557c-0.086549-0.039147-0.18876-0.0041606-0.23288 0.079713l-2.2171 4.2104c-0.078482 0.14902-0.20204 0.26817-0.35132 0.34552-0.20233 0.38183-0.52062 0.69094-0.91208 0.87949l-2.2979 1.1063c-0.49187 0.23687-1.0627-0.12217-1.0597-0.66636l0.01936-3.5714c0.0010439-0.19309 0.079906-0.37767 0.21884-0.51241l0.21258-0.20595-0.0045552-0.089736c-0.011957-0.23659 0.097082-0.46315 0.28973-0.60196l1.5078-1.0865c0.11919-0.17465 0.19806-0.37483 0.227-0.58655l0.50145-3.6691-0.015469-0.0020803c-0.10211-0.013616-0.19663 0.055601-0.21409 0.15668l-0.56741 3.0201c-0.033974 0.18061-0.15744 0.33181-0.32797 0.4015l-0.12764 0.052102c-0.080001 0.21626-0.24731 0.39147-0.46444 0.48026l-1.2721 0.51998c-0.14814 0.060612-0.31232-0.040755-0.32408-0.1998l-0.040712-0.55251c-0.016608-0.22571-0.060072-0.44859-0.12944-0.66418l-1.5899-4.9404c-0.033879-0.0071865-0.070416-0.002364-0.1023 0.017777-0.053144 0.033568-0.076869 0.098814-0.057509 0.15848l1.4855 4.5951c0.062064 0.19195 0.088447 0.39346 0.078103 0.59459l-0.23165 4.5035c-0.015564 0.30325-0.33841 0.49076-0.61097 0.35497l-0.06681-0.03319-0.018031 0.35044c-0.013191 0.25625-0.28612 0.41492-0.51644 0.30004l-2.2524-1.1223c-0.36897-0.18392-0.64921-0.50684-0.77846-0.89727l-1.5905-4.802-0.038434 0.015508c-0.091673 0.036972-0.13912 0.13815-0.10866 0.23195l1.7034 5.2542c0.042895 0.1321 0.13314 0.24377 0.25348 0.31365l3.385 1.9663c0.32171 0.18694 0.51189 0.53719 0.49281 0.90776l-0.68442 13.304c-0.022491 0.43658-0.058838 0.87249-0.10904 1.3067l-0.42515 3.6772h2.9709l-0.36299-3.1403c-0.04745-0.41048-0.081709-0.82228-0.10259-1.2348l-0.12384-10.96c-0.0055042-0.48925 0.24617-0.94559 0.66354-1.2032l0.1414-0.087183c0.1098-0.30448 0.32541-0.56679 0.61818-0.73189l3.1824-1.7956c0.088352-0.12387 0.16275-0.25824 0.22064-0.40093l2.1671-5.342-0.0099644-0.0045388z" fill="#AD330D"/>
</g>
<g id="Group-10" transform="translate(435.91 607.97)">
<g id="Group-3" transform="translate(.087891 .03125)">
<mask id="z" fill="white">
<use xlink:href="#k"/>
</mask>
<path id="Fill-1" d="m10.803 29.955c1.2503-0.75451 2.7088-1.0841 4.1597-0.94006l2.6994 0.26793c2.5597 0.25398 5.0424-0.96854 6.4123-3.1577l1.6287-2.6026c1.2601-2.0136 1.3869-4.5416 0.33454-6.6725l-2.0328-6.2426c-1.0008-2.0264-4.5971-8.7273-9.0421-8.7273-2.9633 0-5.9033 1.7757-8.8199 5.3271-1.8908 1.1192-3.1271 3.0884-3.319 5.2862l-0.30068 3.4435c-0.088918 1.0191-0.40449 2.005-0.92336 2.885l-0.65075 1.1035c-0.93978 1.5938-1.195 3.5031-0.70708 5.2898l0.23646 0.86588c0.50557 1.8513 1.7629 3.403 3.4638 4.2747 2.0846 1.0683 4.5693 0.98192 6.5755-0.22869l0.28528-0.17211z" fill="#FFD9AF" mask="url(#z)"/>
</g>
<path id="Fill-4" d="m11.955 16.877c0.22896 0.25141 0.55891 0.39201 0.90286 0.38472l0.80308-0.017263c1.7768-0.038017 3.5333 0.37506 5.0986 1.1991l0.54058 0.2845c0.28127 0.14814 0.57291-0.17918 0.38506-0.43202l-0.41548-0.55928c-0.59079-0.79523-1.387-1.4223-2.3068-1.8168l-0.8382-0.35948c-0.64062-0.27478-1.3137-0.4706-2.0036-0.58284l-0.60536-0.098532c-0.4534-0.07379-0.9187 0.017575-1.3081 0.25677-0.61631 0.37873-0.73677 1.2092-0.25257 1.741v6.23e-5zm5.7915 12.385-2.6986-0.26082c-1.4507-0.14023-2.909 0.18067-4.1589 0.91527l-0.28521 0.16765c-2.0058 1.1788-4.49 1.2628-6.5741 0.22262-1.7006-0.84877-2.9576-2.3596-3.463-4.1621l-0.23641-0.84322c-0.48783-1.7397-0.23265-3.5988 0.70686-5.1506l0.65061-1.0746c0.51882-0.85675 0.83432-1.8168 0.92328-2.8092l0.30049-3.3527c0.11149-1.2436 0.57577-2.4117 1.316-3.386 0.36705-0.48306 4.6998-5.0412 4.7684-4.4429 0.076362 0.6671-3.281 6.0908-2.9631 6.7089l0.4261 0.82833c0.65583 1.2749 0.63642 2.7827-0.052117 4.041l-0.62146 1.1358c-0.44303 0.80963-0.57157 1.7496-0.36088 2.6457 0.36406 1.548 2.0963 2.3722 3.5714 1.7116l1.3419-0.60085c2.0259-0.90723 4.4017-0.61132 6.1313 0.76364l0.36552 0.29055c1.3197 1.0492 3.1265 1.2906 4.685 0.62622 1.1761-0.50138 2.5009 0.30432 2.5635 1.5591 0.038627 0.77535-0.15228 1.5377-0.53829 2.2011-1.4282 1.6167-3.5841 2.4796-5.7982 2.2655z" fill="#E99462"/>
<path id="Fill-6" d="m17.734 27.218-1.5547 2.8522c-0.059424 0.10909-0.15478 0.19614-0.27103 0.24751l-2.1878 0.96646c-0.14447 0.063863-0.3103-0.03286-0.31828-0.1857l-0.15026-2.8671c-0.0083845-0.16027 0.068008-0.31374 0.20316-0.40777l1.2996-0.90471c0.10461-0.072831 0.17155-0.18544 0.18373-0.30913l0.22312-2.2617c0.0068541-0.06918-0.044318-0.13118-0.11585-0.14034l-0.033405-0.0042917c-0.071602-0.0091599-0.13788 0.037664-0.15012 0.1062l-0.39787 2.0459c-0.023823 0.12228-0.1104 0.22471-0.22998 0.27191l-0.85795 0.33872c-0.086574 0.034206-0.18253-0.022996-0.18938-0.11274l-0.031276-0.41002c-0.011645-0.15245-0.053768-0.30132-0.1241-0.43833l-1.4988-2.9214c-0.025486-0.049643-0.090101-0.06713-0.13868-0.037536-0.037331 0.022804-0.053967 0.066938-0.040392 0.10742l1.0416 3.1128c0.043453 0.12997 0.062086 0.26647 0.054766 0.40278l-0.16243 3.0507c-0.01098 0.20542-0.2373 0.33245-0.42841 0.24046l-1.6617-0.79998c-0.16769-0.080709-0.30151-0.21439-0.3791-0.37876l-1.4051-2.9768c-0.029279-0.062134-0.10434-0.090894-0.17002-0.065336l-0.073132 0.028504c-0.064215 0.025046-0.097487 0.093584-0.076193 0.15713l1.1945 3.5593c0.030011 0.089421 0.093228 0.16507 0.17761 0.21241l2.3736 1.332c0.22565 0.12664 0.35894 0.3639 0.34556 0.61499l-0.47992 9.0119c-0.015704 0.29574-0.041258 0.59104-0.076459 0.88524l-0.29812 2.4909h2.9467l-0.29745-2.4854c-0.035601-0.29792-0.061287-0.5968-0.076992-0.89632l-0.39414-7.5185c-0.018433-0.35205 0.17109-0.68392 0.4897-0.85757l2.4504-1.3356c0.16204-0.088268 0.28727-0.22784 0.35441-0.39503l1.2757-3.1743c0.024022-0.059892-0.0045915-0.12741-0.06528-0.15392l-0.11639-0.05086c-0.060688-0.026519-0.13236-0.0028184-0.1633 0.053998" fill="#CE643A"/>
<path id="Fill-8" d="m17.081 27.163c-0.055638-0.026519-0.12134-0.0028184-0.14971 0.053999l-1.4253 2.8522c-0.050453 0.10095-0.12988 0.18166-0.22585 0.23406-0.13007 0.25866-0.33468 0.46806-0.58634 0.59578l-1.4772 0.74946c-0.3162 0.16046-0.68316-0.08276-0.68127-0.4514l0.012445-2.4193c6.711e-4 -0.1308 0.051368-0.25584 0.14068-0.34712l0.13666-0.13951-0.0029283-0.060789c-0.0076869-0.16027 0.06241-0.31375 0.18625-0.40778l0.96928-0.736c0.076625-0.11831 0.12732-0.25392 0.14593-0.39734l0.32236-2.4855-0.0099442-0.0014092c-0.065644-0.0092241-0.12641 0.037665-0.13763 0.10614l-0.36476 2.0459c-0.02184 0.12235-0.10121 0.22477-0.21084 0.27198l-0.082054 0.035295c-0.051429 0.1465-0.15898 0.26519-0.29857 0.32534l-0.8178 0.35224c-0.095232 0.04106-0.20077-0.027608-0.20834-0.13535l-0.026172-0.37428c-0.010676-0.1529-0.038618-0.30388-0.083214-0.44993l-1.0221-3.3467c-0.02178-0.0048682-0.045267-0.0016014-0.065766 0.012043-0.034164 0.02274-0.049416 0.066938-0.03697 0.10736l0.95494 3.1128c0.039899 0.13003 0.056858 0.26654 0.050209 0.40278l-0.14892 3.0507c-0.010005 0.20543-0.21755 0.33245-0.39276 0.24047l-0.042949-0.022484-0.011591 0.23739c-0.00848 0.17359-0.18394 0.28108-0.332 0.20325l-1.448-0.76028c-0.2372-0.12459-0.41735-0.34334-0.50044-0.60783l-1.0225-3.253-0.024708 0.010505c-0.058933 0.025046-0.089436 0.093586-0.069853 0.15713l1.095 3.5593c0.027575 0.089486 0.085593 0.16514 0.16295 0.21247l2.1761 1.332c0.20681 0.12664 0.32907 0.3639 0.31681 0.61494l-0.43998 9.0121c-0.014459 0.29575-0.037824 0.59104-0.070097 0.88519l-0.27331 2.491h1.9099l-0.23335-2.1273c-0.030504-0.27807-0.052527-0.55703-0.065949-0.83651l-0.079614-7.4243c-0.0035384-0.33143 0.15825-0.64056 0.42656-0.81505l0.0909-0.05906c0.070585-0.20626 0.20919-0.38395 0.3974-0.49579l2.0458-1.2164c0.056798-0.083913 0.10463-0.17494 0.14184-0.2716l1.3932-3.6188-0.0064057-0.0030747z" fill="#AD330D"/>
</g>
<g id="al" transform="translate(187.54 584.95)">
<g id="ak" transform="translate(.46484 .046875)">
<mask id="x" fill="white">
<use xlink:href="#j"/>
</mask>
<path id="ai" d="m5.8939 44.505 2.5799 1.4759c2.0998 1.2013 4.337 2.1458 6.6635 2.8132 6.0593 1.7382 12.51 1.5593 18.463-0.512l1.818-0.63262c2.7476-0.95596 4.9438-3.0542 6.0192-5.7507l0.82779-2.0757c1.0737-2.6921 0.92483-5.7159-0.40808-8.2901l-3.3813-6.5304c-1.6682-3.2217-2.8154-6.6858-3.3993-10.265l-0.08683-0.53195c-0.53908-3.304-1.8379-6.4387-3.7946-9.1586l-0.63006-0.87575c-1.6213-2.2536-4.1221-3.7191-6.8854-4.0349-4.7108-0.53816-9.1387 2.3424-10.542 6.8591-1.0635 3.4224-2.2171 7.1248-2.8593 9.1844-0.32889 1.0548-0.96808 1.9856-1.835 2.6733l-2.6848 2.1292c-3.4743 2.7553-5.5585 6.8944-5.6993 11.319l-0.053625 1.6843c-0.13755 4.322 2.1267 8.3673 5.888 10.519" fill="#64CC75" mask="url(#x)"/>
</g>
<path id="am" d="m30.097 44.661-2.2352 0.093008c-2.8852 0.11993-5.7591-0.4237-8.3958-1.5884l-1.776-0.78449c-4.7081-2.0796-5.9553-8.1208-2.4484-11.86l0.23138-0.24665c1.3931-1.4855 1.224-3.8091-0.34245-5.1148-1.912-1.594-2.1832-4.4105-0.60597-6.333l1.996-2.4331c1.4608-1.7807 1.9765-4.1435 1.3887-6.3617l-0.44708-1.6869c-0.46522-1.7555 0.27657-3.6066 1.8315-4.5702l0.067066-0.041598c0.47531-0.29462 0.81667-0.70918 1.0152-1.174 0.37382-0.87515-0.49787-1.7752-1.3975-1.4422-2.8435 1.0526-5.1457 3.3548-6.0946 6.3835-1.0862 3.4677-2.2647 7.2189-2.9205 9.3053-0.33559 1.068-0.98819 2.011-1.8731 2.7071l-2.7431 2.1579c-1.636 1.287-2.9701 2.872-3.9468 4.6459-0.36645 0.66557 0.55086 1.2858 1.0442 0.70608 1.9496-2.2897 5.4065-2.5828 7.7214-0.6545l0.9101 0.75816c0.32007 0.26653 0.50016 0.66272 0.48939 1.0764l-0.0021196 0.077829c-0.012718 0.49364-0.39265 0.90191-0.88899 0.95525l-3.1048 0.33371c-1.3018 0.13997-2.4989 0.77091-3.3423 1.7615l-0.29904 0.35124c-0.85889 1.0088-2.0463 1.6661-3.3363 1.8772-0.63488 0.10383-1.1004 0.64871-1.1208 1.2849-0.14058 4.3787 2.1722 8.477 6.0139 10.657l2.6351 1.4953c2.1447 1.2171 4.4298 2.1739 6.8058 2.8501h8.48e-5c5.8993 1.6787 12.162 1.5912 18.001-0.23801l0.055451-0.089402c1.3518-2.1782-0.30405-4.9661-2.8856-4.8588" fill="#00B882"/>
<path id="af" d="m36.053 36.62c-2.3015-0.83486-4.0217-2.8787-4.3584-5.388-0.046194-0.34473-0.02083-0.68229 0.064336-0.99851 0.044263-0.16449-0.097596-0.32181-0.26784-0.2994-0.0069712 8.333e-4 -0.013942 0.0018332-0.020914 0.0028332-1.2604 0.17715-2.4947-0.46705-3.1035-1.5761l-0.24063-0.43839c-0.32857-0.59871-0.99099-0.94668-1.6729-0.86386-1.2514 0.15199-2.1342 1.2874-1.9681 2.5242 0.31244 2.3295 1.9881 4.201 4.1883 4.8354 0.45766 0.13191 0.84099 0.4478 1.0665 0.86436 1.0105 1.867 3.0847 2.9796 5.2683 2.7289l0.213-0.024498c0.30396-0.034831 0.59162-0.10983 0.85879-0.21857 0.5272-0.21448 0.50814-0.95435-0.026877-1.1483" fill="#00B882"/>
<g id="ae" transform="translate(9.4648 30.047)">
<mask id="w" fill="white">
<use xlink:href="#i"/>
</mask>
<path id="ah" d="m19.587 13.003v8.39e-5c-0.062259 0.03054-0.11046 0.0839-0.13456 0.14909l-2.3213 6.2561c-0.13389 0.36111-0.40736 0.65291-0.75849 0.80947l-3.379 1.5061c-0.30209 0.13474-0.6482-0.060828-0.68987-0.38963l-0.82987-6.5591c-0.045607-0.36018 0.12402-0.71357 0.43331-0.9026l2.8175-1.7219c0.22879-0.13969 0.39699-0.36035 0.47138-0.61818l1.9432-6.7263c0.027113-0.094052-0.025188-0.19272-0.11816-0.22276-0.092971-0.029952-0.19297 0.019549-0.22552 0.11184l-2.2237 6.2898c-0.092887 0.26269-0.28393 0.47882-0.53289 0.60291l-2.3751 1.1836c-0.15172 0.075678-0.32979-0.038091-0.32494-0.2079 0.0085356-0.30087 0.018243-0.60165 0.026695-0.90251l0.05841-1.5034c0.017908-0.5013 0.043933-1.0019 0.065942-1.5029l0.074812-1.4928 0.88996-6.6997c0.03523-0.2658-0.20092-0.48729-0.46301-0.43444-0.15891 0.03205-0.28134 0.15941-0.30762 0.31983l-1.0926 6.6961-0.0010879 0.0064603-0.0028451 0.028946-0.10837 1.087-2.2831-1.068c-0.17682-0.082726-0.30586-0.24264-0.34962-0.43334l-1.0057-4.385c-0.022008-0.09573-0.11531-0.15723-0.2118-0.13919-0.096318 0.017955-0.16142 0.1089-0.14753 0.20623l0.70527 4.9557c0.016234 0.11385 0.082343 0.21445 0.18033 0.27427l2.9854 1.8236c-0.023347 0.22376-0.046946 0.44752-0.072469 0.6712l-0.16603 1.4954c-0.040418 0.32981-0.10209 0.8786-0.13916 1.2116-0.02092 0.18794-0.027699 0.37705-0.020251 0.56607l0.2323 5.9146c0.0087866 0.22452-0.22979 0.37302-0.42653 0.26529l-5.0828-2.7809c-0.35967-0.19683-0.63933-0.51364-0.79029-0.89563l-3.2788-8.2908c-0.061841-0.15647-0.23598-0.23584-0.39423-0.17963-0.15824 0.056213-0.24368 0.22779-0.19356 0.38829l2.8033 8.9788c0.12218 0.39123 0.37682 0.72742 0.71992 0.95042l6.1429 3.9921c0.3831 0.24902 0.62167 0.66902 0.63958 1.1264l0.14377 3.6593c0.014226 0.36102-0.0057741 0.72246-0.059414 1.0797l-1.4204 9.4469h4.0808l-0.046778-9.6359c-0.0011716-0.2319-0.016234-0.46338-0.045356-0.69344l-0.21674-1.7125c-0.071297-0.56347 0.20201-1.1147 0.69314-1.3978l4.0655-2.3443c0.32728-0.18869 0.56678-0.49971 0.66603-0.86501l1.7815-7.0374c0.056653-0.22427-0.17431-0.41229-0.38159-0.3106" fill="#009F70" mask="url(#w)"/>
</g>
<g id="aj" transform="translate(9.4648 30.047)">
<mask id="v" fill="white">
<use xlink:href="#h"/>
</mask>
<path id="ag" d="m12.099 26.735-0.28814-1.9171c-0.055763-0.37034 0.12339-0.73673 0.45127-0.92332l4.7074-2.6785c0.33153-0.18869 0.57398-0.49971 0.67458-0.86501 0 0 1.8721-5.5643 2.3431-7.3742-0.048729-0.0056213-0.10051 0.0017619-0.15093 0.026177-0.063051 0.030624-0.11186 0.083984-0.13636 0.14909l-2.3507 6.2562c-0.13559 0.36119-0.41254 0.65291-0.76814 0.80947l-3.4219 1.5061c-0.19678 0.086753-0.41169 0.036161-0.55144-0.098079l-0.22305 0.098079c-0.30593 0.13474-0.65644-0.060744-0.69864-0.38963l-0.84042-6.5591c-0.046186-0.36018 0.12568-0.71357 0.43881-0.90251l3.288-1.9779c0.14297-0.085998 0.25051-0.21948 0.30339-0.37663l2.3367-6.9401c-0.086441-0.014766-0.17305 0.033224-0.20314 0.11729l-2.2519 6.2897c-0.093983 0.26269-0.28746 0.47882-0.53958 0.60291l-2.4053 1.1836c-0.15364 0.075678-0.33398-0.038091-0.32915-0.2079 1.695e-4 -0.0037755 3.39e-4 -0.007551 4.237e-4 -0.011326l-0.44576 0.21923c-0.15364 0.075678-0.3339-0.038091-0.32898-0.2079 0.0086441-0.30087 0.01839-0.60165 0.026949-0.90251l0.059152-1.5034c0.018136-0.5013 0.044492-1.0019 0.06678-1.5029l0.075763-1.4928 1.3632-7.1337c-0.049661-0.010068-0.10237-0.011159-0.15644-3.356e-4 -0.16085 0.031966-0.28483 0.15941-0.31144 0.31974l-1.1064 6.6961-0.0011017 0.0064603-0.0028813 0.028946-0.10975 1.0869-0.74-0.34181-0.034407 0.34181-2.0176-1.012c-0.19203-0.096234-0.32458-0.27914-0.35551-0.49006l-0.65983-4.5165c-0.028814-0.0093129-0.06-0.012585-0.09178-0.0067959-0.097542 0.017955-0.16356 0.1089-0.14958 0.20623l0.71441 4.9557c0.016441 0.11377 0.08339 0.21437 0.18254 0.27419l3.0234 1.8236c-0.023644 0.22376-0.047542 0.44761-0.07339 0.6712l-0.16814 1.4954c-0.040847 0.32981-0.10339 0.87869-0.14093 1.2116-0.021186 0.18794-0.028051 0.37705-0.020593 0.56599l0.23534 5.9147c0.0088983 0.22452-0.23271 0.37294-0.43195 0.26538l-0.34975-0.18886c-0.040847 0.17955-0.24915 0.28358-0.42475 0.18886l-5.3557-2.8936c-0.22873-0.1235-0.40314-0.32671-0.48932-0.57027l-3.0721-8.6719c-0.14398 0.064519-0.21992 0.2251-0.17186 0.37713l2.839 8.9788c0.12364 0.39123 0.38153 0.72742 0.72907 0.95034l6.221 3.9922c0.38797 0.24902 0.62958 0.66902 0.6478 1.1264l0.14542 3.6593c0.014407 0.36102-0.0057627 0.72246-0.060085 1.0798l-1.4385 9.4468h2.1908l0.82153-9.7008c0.015848-0.18819 0.0097458-0.37738-0.018305-0.56406" fill="#005639" mask="url(#v)"/>
</g>
</g>
<g transform="translate(466.6 594.54)">
<g transform="translate(.40039 .45703)">
<mask id="u" fill="white">
<use xlink:href="#g"/>
</mask>
<path d="m5.0715 38.274 2.2199 1.2693c1.8068 1.0331 3.7319 1.8454 5.7337 2.4194 5.2139 1.4949 10.765 1.341 15.887-0.44032l1.5643-0.54405c2.3642-0.82213 4.2539-2.6266 5.1793-4.9456l0.71229-1.7851c0.92386-2.3152 0.79579-4.9157-0.35114-7.1295l-2.9095-5.6161c-1.4354-2.7707-2.4226-5.7498-2.925-8.8276l-0.074714-0.45748c-0.46386-2.8414-1.5814-5.5372-3.2651-7.8764l-0.54214-0.75314c-1.3951-1.9381-3.5469-3.1984-5.9246-3.47-4.0535-0.46282-7.8636 2.0145-9.0712 5.8988-0.91507 2.9432-1.9077 6.1274-2.4603 7.8986-0.283 0.90713-0.833 1.7076-1.5789 2.299l-2.3101 1.8311c-2.9895 2.3696-4.7829 5.9292-4.9041 9.7342l-0.046143 1.4485c-0.11836 3.7169 1.8299 7.1959 5.0664 9.0464" fill="#64CC75" mask="url(#u)"/>
</g>
<path d="m25.528 37.966-1.9065 0.079987c-2.4609 0.10314-4.9121-0.36438-7.1611-1.366l-1.5148-0.67466c-4.0158-1.7884-5.0796-6.9839-2.0883-10.199l0.19736-0.21212c1.1883-1.2775 1.044-3.2758-0.29209-4.3987-1.6308-1.3708-1.8621-3.793-0.51686-5.4464l1.7024-2.0924c1.246-1.5314 1.6859-3.5634 1.1845-5.4711l-0.38133-1.4507c-0.39681-1.5097 0.2359-3.1017 1.5621-3.9303l0.057204-0.035774c0.40542-0.25338 0.69657-0.60989 0.86594-1.0096 0.31885-0.75263-0.42465-1.5267-1.1919-1.2403-2.4253 0.90525-4.389 2.8851-5.1983 5.4898-0.92647 2.9822-1.9317 6.2082-2.491 8.0026-0.28624 0.91845-0.84287 1.7295-1.5977 2.3281l-2.3397 1.8558c-1.3955 1.1068-2.5333 2.4699-3.3664 3.9955-0.31256 0.57239 0.46985 1.1058 0.89067 0.60723 1.6629-1.9692 4.6114-2.2212 6.5859-0.56287l0.77626 0.65202c0.273 0.22922 0.4266 0.56994 0.41742 0.92573l-0.001808 0.066933c-0.010848 0.42453-0.33491 0.77564-0.75826 0.82151l-2.6482 0.28699c-1.1104 0.12038-2.1314 0.66298-2.8508 1.5149l-0.25507 0.30206c-0.73258 0.8676-1.7454 1.4328-2.8456 1.6144-0.54152 0.089292-0.93854 0.55789-0.95597 1.105-0.1199 3.7657 1.8527 7.2902 5.1295 9.165l2.2476 1.2859c1.8293 1.0467 3.7783 1.8696 5.805 2.451h7.23e-5c5.0317 1.4437 10.373 1.3684 15.354-0.20469l0.047296-0.076886c1.153-1.8732-0.25933-4.2708-2.4613-4.1785" fill="#00B882"/>
<path d="m30.057 31.29c-1.9179-0.68307-3.3514-2.3553-3.632-4.4083-0.038495-0.28205-0.017358-0.55823 0.053613-0.81697 0.036885-0.13458-0.08133-0.2633-0.2232-0.24496-0.0058093 6.818e-4 -0.011619 0.0014999-0.017428 0.002318-1.0504 0.14494-2.0789-0.38213-2.5863-1.2896l-0.20053-0.35868c-0.27381-0.48985-0.82583-0.77456-1.3941-0.70679-1.0428 0.12436-1.7785 1.0533-1.6401 2.0652 0.26037 1.906 1.6568 3.4371 3.4903 3.9562 0.38138 0.10792 0.70082 0.36638 0.88875 0.7072 0.84207 1.5275 2.5706 2.4379 4.3902 2.2327l0.1775-0.020044c0.2533-0.028498 0.49302-0.089857 0.71566-0.17883 0.43934-0.17549 0.42345-0.78083-0.022397-0.93955" fill="#00B882"/>
<g transform="translate(8.4004 25.457)">
<mask id="t" fill="white">
<use xlink:href="#f"/>
</mask>
<path d="m16.649 11.246v7.26e-5c-0.05292 0.026413-0.093891 0.072562-0.11438 0.12894l-1.9731 5.4107c-0.11381 0.31231-0.34626 0.56468-0.64472 0.70008l-2.8721 1.3026c-0.25678 0.11654-0.55097-0.052608-0.58639-0.33698l-0.70539-5.6727c-0.038766-0.31151 0.10541-0.61714 0.36831-0.78063l2.3949-1.4892c0.19447-0.12082 0.33744-0.31166 0.40067-0.53464l1.6517-5.8173c0.023046-0.081342-0.02141-0.16668-0.10044-0.19265-0.079025-0.025905-0.16403 0.016907-0.19169 0.096726l-1.8901 5.4399c-0.078954 0.22719-0.24134 0.41411-0.45295 0.52143l-2.0188 1.0236c-0.12896 0.065451-0.28032-0.032943-0.2762-0.17981 0.0072552-0.26021 0.015506-0.52034 0.02269-0.78055l0.049649-1.3002c0.015222-0.43356 0.037343-0.86654 0.05605-1.2998l0.06359-1.2911 0.75646-5.7943c0.029946-0.22988-0.17078-0.42144-0.39356-0.37573-0.13508 0.027719-0.23914 0.13787-0.26147 0.27661l-0.92867 5.7912-9.2469e-4 0.0055873-0.0024184 0.025034-0.092113 0.94012-1.9406-0.92365c-0.1503-0.071546-0.25998-0.20985-0.29718-0.37478l-0.85484-3.7924c-0.018707-0.082794-0.098017-0.13598-0.18003-0.12038-0.08187 0.015528-0.13721 0.094186-0.1254 0.17836l0.59948 4.286c0.013799 0.098467 0.069992 0.18547 0.15328 0.23721l2.5376 1.5771c-0.019845 0.19352-0.039904 0.38705-0.061598 0.5805l-0.14112 1.2933c-0.034356 0.28524-0.086778 0.75987-0.11829 1.0479-0.017782 0.16254-0.023544 0.3261-0.017213 0.48958l0.19746 5.1154c0.0074686 0.19418-0.19532 0.32261-0.36255 0.22944l-4.3203-2.4051c-0.30572-0.17023-0.54343-0.44423-0.67175-0.7746l-2.787-7.1704c-0.052565-0.13533-0.20059-0.20397-0.33509-0.15536-0.13451 0.048617-0.20713 0.19701-0.16452 0.33582l2.3828 7.7655c0.10385 0.33836 0.3203 0.62912 0.61193 0.82199l5.2215 3.4527c0.32563 0.21537 0.52842 0.57861 0.54364 0.97422l0.1222 3.1648c0.012092 0.31224-0.004908 0.62483-0.050502 0.9338l-1.2074 8.1703h3.4686l-0.039762-8.3337c-9.958e-4 -0.20056-0.013799-0.40076-0.038552-0.59973l-0.18423-1.4811c-0.060602-0.48733 0.17171-0.96406 0.58917-1.2089l3.4557-2.0275c0.27819-0.16319 0.48176-0.43218 0.56612-0.74812l1.5143-6.0864c0.048155-0.19396-0.14816-0.35657-0.32435-0.26863" fill="#009F70" mask="url(#t)"/>
</g>
<g transform="translate(8.4004 25.457)">
<mask id="s" fill="white">
<use xlink:href="#e"/>
</mask>
<path d="m10.284 23.122-0.24492-1.658c-0.047398-0.32029 0.10488-0.63717 0.38358-0.79855l4.0013-2.3166c0.2818-0.16319 0.48789-0.43218 0.57339-0.74812 0 0 1.5913-4.8123 1.9916-6.3777-0.04142-0.0048616-0.085432 0.0015239-0.12829 0.02264-0.053593 0.026485-0.095085 0.072635-0.1159 0.12894l-1.9981 5.4108c-0.11525 0.31238-0.35066 0.56468-0.65292 0.70008l-2.9087 1.3026c-0.16726 0.07503-0.34994 0.031274-0.46872-0.084825l-0.18959 0.084825c-0.26004 0.11654-0.55797-0.052535-0.59385-0.33698l-0.71436-5.6727c-0.039258-0.31151 0.10683-0.61714 0.37299-0.78055l2.7948-1.7106c0.12152-0.074376 0.21293-0.18982 0.25788-0.32573l1.9862-6.0022c-0.073475-0.012771-0.14709 0.028735-0.17267 0.10144l-1.9142 5.4398c-0.079886 0.22719-0.24434 0.41411-0.45864 0.52143l-2.0445 1.0236c-0.1306 0.065451-0.28389-0.032943-0.27978-0.17981 1.4407e-4 -0.0032653 2.8813e-4 -0.0065306 3.6017e-4 -0.0097959l-0.3789 0.18961c-0.1306 0.065451-0.28381-0.032943-0.27964-0.17981 0.0073475-0.26021 0.015631-0.52034 0.022907-0.78055l0.05028-1.3002c0.015415-0.43356 0.037818-0.86654 0.056763-1.2998l0.064398-1.2911 1.1587-6.1697c-0.042212-0.0087075-0.087017-0.0096508-0.13297-2.9025e-4 -0.13672 0.027646-0.24211 0.13787-0.26472 0.27654l-0.94047 5.7912-9.3644e-4 0.0055873-0.0024492 0.025034-0.093284 0.94005-0.629-0.29562-0.029246 0.29562-1.715-0.87525c-0.16323-0.083229-0.27589-0.24141-0.30218-0.42384l-0.56086-3.9062c-0.024492-0.0080544-0.051-0.010884-0.078013-0.0058776-0.082911 0.015528-0.13903 0.094186-0.12714 0.17836l0.60725 4.286c0.013975 0.098395 0.070881 0.1854 0.15516 0.23713l2.5699 1.5771c-0.020097 0.19352-0.040411 0.38712-0.062381 0.5805l-0.14292 1.2933c-0.03472 0.28524-0.087881 0.75995-0.11979 1.0479-0.018008 0.16254-0.023843 0.3261-0.017504 0.48951l0.20004 5.1154c0.0075636 0.19418-0.19781 0.32254-0.36716 0.22951l-0.29728-0.16334c-0.03472 0.15528-0.21178 0.24526-0.36103 0.16334l-4.5523-2.5025c-0.19442-0.10681-0.34267-0.28256-0.41592-0.49321l-2.6113-7.5c-0.12239 0.0558-0.18693 0.19468-0.14608 0.32617l2.4131 7.7654c0.1051 0.33836 0.3243 0.62912 0.61971 0.82191l5.2879 3.4527c0.32977 0.21537 0.53514 0.57861 0.55063 0.97422l0.12361 3.1648c0.012246 0.31224-0.0048983 0.62483-0.051072 0.93388l-1.2227 8.1702h1.8621l0.6983-8.3899c0.01347-0.16276 0.0082838-0.32639-0.015559-0.48784" fill="#005639" mask="url(#s)"/>
</g>
</g>
</g>
</svg>
