<?xml version="1.0" encoding="UTF-8"?>
<svg width="420px" height="420px" viewBox="0 0 420 420" version="1.1" xmlns="http://www.w3.org/2000/svg" xmlns:xlink="http://www.w3.org/1999/xlink">
    <title>5. Elements_Illustrations/2.Vector/Boy</title>
    <defs>
        <path d="M0.206832581,6.54319689 L5.64722974,25.2855422 C6.11410305,26.8942681 7.58135165,28 9.24801376,28 L9.24801376,28 C11.5379612,28 13.2939341,25.955251 12.9589005,23.6782413 L12.9589005,23.6782413 L10.118912,4.36403114 C9.75032785,1.85713559 7.60970428,0 5.08821039,0 L5.08821039,0 C1.69770838,0 -0.742980525,3.27159845 0.206832581,6.54319689 L0.206832581,6.54319689 Z" id="path-1"></path>
        <path d="M14.2157905,3.62394287 L1.37192527,25.2424539 C-1.55859942,30.173471 0.376027287,36.5515718 5.55392813,39.0329034 L5.55392813,39.0329034 C10.7779487,41.5372501 17.0257313,38.9907087 18.9968694,33.5514382 L18.9968694,33.5514382 C21.6795006,26.1481998 25.2316808,16.3331551 27.5578448,9.90374944 L27.5578448,9.90374944 C28.9078079,6.17336117 27.0673423,2.0478778 23.3883327,0.549009715 L23.3883327,0.549009715 C22.4760268,0.177409341 21.5267289,0 20.5908827,0 L20.5908827,0 C18.0408458,-0.00047935363 15.5854504,1.31810262 14.2157905,3.62394287 L14.2157905,3.62394287 Z" id="path-3"></path>
        <polygon id="path-5" points="0 0 40.4412552 0 40.4412552 30.1391448 0 30.1391448"></polygon>
        <path d="M0.465134371,1.71790626 L0.464683645,1.71790626 C-0.420543223,3.24010734 -0.00812846521,5.18103689 1.42202675,6.21733383 L1.42202675,6.21733383 L1.87996489,6.54962957 C2.18600819,6.93432234 2.51548927,8.32933746 4.13990761,10.3495343 L4.13990761,10.3495343 C4.6956534,11.0401004 5.44656377,11.5528748 6.28581653,11.8475521 L6.28581653,11.8475521 L7.65241931,12.3271866 L9.18083291,12.8820577 L9.9831261,12.9877475 C10.4739673,13.0522362 10.9630055,12.859218 11.275359,12.4781079 L11.275359,12.4781079 L14.1960668,8.91421378 C14.3601312,8.71403023 14.4854332,8.48473721 14.5647611,8.2388742 L14.5647611,8.2388742 L14.9230887,7.13316238 C15.1155489,6.53843362 14.9397655,5.88772512 14.4746158,5.46854883 L14.4746158,5.46854883 L13.7539041,4.81873601 C13.5330481,4.61989597 13.3640257,4.37045025 13.2603586,4.0923429 L13.2603586,4.0923429 L12.882199,3.07261596 C12.719036,2.63239129 12.3895549,2.27322528 11.9636184,2.07080254 L11.9636184,2.07080254 L11.1766499,1.69685788 C10.9927535,1.60908164 10.7930816,1.55981947 10.589804,1.55175839 L10.589804,1.55175839 L7.1710434,1.40979377 C6.82218108,1.39501512 6.48368547,1.28798186 6.19071324,1.09944209 L6.19071324,1.09944209 L5.34424885,0.553527668 C4.76145947,0.178239492 4.10925821,0 3.46517003,0 L3.46517003,0 C2.27299841,0 1.10877183,0.611746597 0.465134371,1.71790626 L0.465134371,1.71790626 Z" id="path-7"></path>
        <path d="M0.465134371,1.71790626 L0.464683645,1.71790626 C-0.420543223,3.24010734 -0.00812846521,5.18103689 1.42202675,6.21733383 L1.42202675,6.21733383 L1.87996489,6.54962957 C2.18600819,6.93432234 2.51548927,8.32933746 4.13990761,10.3495343 L4.13990761,10.3495343 C4.6956534,11.0401004 5.44656377,11.5528748 6.28581653,11.8475521 L6.28581653,11.8475521 L7.65241931,12.3271866 L9.18083291,12.8820577 L9.9831261,12.9877475 C10.4739673,13.0522362 10.9630055,12.859218 11.275359,12.4781079 L11.275359,12.4781079 L14.1960668,8.91421378 C14.3601312,8.71403023 14.4854332,8.48473721 14.5647611,8.2388742 L14.5647611,8.2388742 L14.9230887,7.13316238 C15.1155489,6.53843362 14.9397655,5.88772512 14.4746158,5.46854883 L14.4746158,5.46854883 L13.7539041,4.81873601 C13.5330481,4.61989597 13.3640257,4.37045025 13.2603586,4.0923429 L13.2603586,4.0923429 L12.882199,3.07261596 C12.719036,2.63239129 12.3895549,2.27322528 11.9636184,2.07080254 L11.9636184,2.07080254 L11.1766499,1.69685788 C10.9927535,1.60908164 10.7930816,1.55981947 10.589804,1.55175839 L10.589804,1.55175839 L7.1710434,1.40979377 C6.82218108,1.39501512 6.48368547,1.28798186 6.19071324,1.09944209 L6.19071324,1.09944209 L5.34424885,0.553527668 C4.76145947,0.178239492 4.10925821,0 3.46517003,0 L3.46517003,0 C2.27299841,0 1.10877183,0.611746597 0.465134371,1.71790626 L0.465134371,1.71790626 Z" id="path-9"></path>
        <path d="M6.54616962,0 C6.54616962,0 6.14976453,12.7217829 0,19.2701432 L0,19.2701432 C0,19.2701432 3.17219471,22 23.6469227,22 L23.6469227,22 C44.1206967,22 47,19.2701432 47,19.2701432 L47,19.2701432 C40.8507125,12.7217829 40.4538304,0 40.4538304,0 L40.4538304,0" id="path-11"></path>
    </defs>
    <g id="5.-Elements_Illustrations/2.Vector/Boy" stroke="none" stroke-width="1" fill="none" fill-rule="evenodd">
        <g id="Group-212" transform="translate(144.000000, 120.000000)">
            <path d="M79.2067991,239.543197 L84.6470515,258.285542 C85.1139124,259.894268 86.5811219,261 88.2482122,261 C90.5380987,261 92.2935523,258.955726 91.9590001,256.678241 L89.1190873,237.364031 C88.7500404,234.857136 86.6099463,233 84.0885195,233 C80.6981078,233 78.2570113,236.271598 79.2067991,239.543197" id="Fill-1" fill="#D95B26"></path>
            <g id="Group-5" transform="translate(79.000000, 233.000000)">
                <mask id="mask-2" fill="white">
                    <use xlink:href="#path-1"></use>
                </mask>
                <g id="Clip-4"></g>
                <polygon id="Fill-3" fill="#AA391B" mask="url(#mask-2)" points="13.1614328 -2.87552035 13.1614328 19.3830334 0.802993882 24.648559 -0.997870669 -3.57135248"></polygon>
            </g>
            <g id="Group-58" transform="translate(0.000000, 35.000000)">
                <path d="M40.9516413,205.113116 L43.9406681,224.20343 C44.2512102,226.186038 45.9598987,227.647676 47.9673485,227.647676 C50.2094721,227.647676 52.0303138,225.83794 52.0430371,223.596731 L52.1533952,204.274193 C52.1707411,201.151197 49.6430508,198.609936 46.5183091,198.609936 C43.0589924,198.609936 40.4167926,201.697133 40.9516413,205.113116" id="Fill-6" fill="#D95B26"></path>
                <path d="M46.5185447,198.609889 L46.5185447,198.609889 C43.059228,198.609889 40.416557,201.697086 40.9518769,205.113069 L43.7580656,223.035204 L52.0663631,219.51465 L52.1531644,204.274146 C52.1709767,201.15115 49.6428152,198.609889 46.5185447,198.609889" id="Fill-8" fill="#AA391B"></path>
                <path d="M31.1470868,20.3319855 L30.5561615,19.4789318 C29.1141905,17.3983475 28.7362621,14.7609938 29.5364147,12.3596312 L30.5966875,9.17587098 C31.0834705,7.71517553 32.169661,6.53098064 33.5828868,5.92051262 L45.6516185,0.706098359 C46.7858748,0.216216621 48.0120214,-0.0240138466 49.2475926,0.0018933607 L54.4217238,0.110703631 C55.523465,0.133784598 56.6110693,0.368362584 57.62469,0.801248465 L70.2117773,6.18005574 C71.535469,6.7453039 72.5783062,7.814565 73.11127,9.15137689 L74.5395752,12.7364633 C75.6238808,15.4562491 75.1432238,18.5500407 73.2851547,20.8129175 L72.3040489,22.0079463 C71.6231182,22.8374479 70.8201383,23.5581393 69.9224407,24.1459974 L56.2501053,33.096231 C53.8491765,34.6676209 50.7366868,34.6322929 48.3720429,33.0067334 L33.8481907,23.0225667 C32.792159,22.2966939 31.8770257,21.3847602 31.1470868,20.3319855" id="Fill-10" fill="#AA391B"></path>
                <path d="M31.9008701,21.8803415 L31.9008701,21.8803415 C36.4953855,24.4960274 38.0466824,30.372724 35.340395,34.9135509 L16.5156051,66.499618 C14.0053504,70.7116589 8.55507708,72.0932196 4.34037495,69.5849309 C0.214264505,67.1298697 -1.21262705,61.8415022 1.11808815,57.6454767 L18.9711969,25.500756 C21.5224489,20.9076436 27.3341574,19.2802 31.9008701,21.8803415" id="Fill-12" fill="#D95B26"></path>
                <path d="M25.1420788,37.4028096 L10.6761881,52.6522628 L13.4734233,69.5569511 C14.6854329,68.82731 15.7409934,67.7995004 16.5156994,66.4994296 L29.2036304,45.2102998 L25.1420788,37.4028096 Z" id="Fill-14" fill="#AA391B"></path>
                <path d="M40.4314008,221.280297 L34.8520098,224.457462 C34.0179285,224.9318 33.1164611,225.277072 32.1787087,225.480562 L25.6153845,226.904516 C24.4264653,227.162646 23.4250966,227.959646 22.906741,229.059996 L21.8653175,231.271529 L54.1098622,231.271529 L54.0721636,228.036896 C54.062739,227.262035 53.8473858,226.504132 53.448252,225.839965 L52.9214142,224.965244 C52.7121871,224.617616 52.2574478,224.511632 51.9158044,224.731137 L51.0355424,225.296385 C50.8838055,225.394361 50.7066222,225.446176 50.5261402,225.446176 L47.6563352,225.446176 C46.5536515,225.446176 45.5692471,224.75516 45.1946174,223.7184 L44.5339496,221.889823 C44.3869252,221.482844 44.305402,221.054668 44.2931499,220.621783 L44.2799554,220.162518 C44.2653472,219.652853 43.8478353,219.247759 43.3379619,219.247759 L41.4907311,219.247759 C41.2438054,219.247759 41.0614385,219.476684 41.1170439,219.716914 C41.2588848,220.332093 40.9803865,220.967997 40.4314008,221.280297" id="Fill-16" fill="#0080F6"></path>
                <path d="M53.8941792,235 L21.8725274,235 C21.1180844,235 20.5059536,234.38859 20.5059536,233.634455 L20.5059536,232.637263 C20.5059536,231.883127 21.1180844,231.271717 21.8725274,231.271717 L53.8941792,231.271717 C54.6490934,231.271717 55.2602817,231.883127 55.2602817,232.637263 L55.2602817,233.634455 C55.2602817,234.38859 54.6490934,235 53.8941792,235" id="Fill-18" fill="#DFF0FF"></path>
                <path d="M33.9478092,226.057633 L33.4841165,225.094827 C33.059065,225.253567 32.623175,225.384045 32.1788029,225.480609 L25.6154788,226.904563 C24.4260883,227.162693 23.4247196,227.959693 22.9068352,229.060043 L22.433718,230.0643 L23.1782651,229.500465 C24.0670093,228.826878 25.1258684,228.413776 26.2360918,228.30732 L34.4925538,227.51456 C34.7757644,227.48724 35.0570901,227.444846 35.3355884,227.393032 C34.7357097,227.130191 34.2390308,226.661977 33.9478092,226.057633" id="Fill-20" fill="#0065C4"></path>
                <path d="M36.0998802,227.130568 L36.2897868,227.159773 C36.7030576,227.037773 37.1106736,226.895519 37.5050951,226.718879 L45.0580071,223.34105 L44.5339968,221.890247 C44.3869723,221.482797 44.3054491,221.054621 44.293197,220.621735 L44.2800025,220.162942 C44.2653943,219.652806 43.8478825,219.247711 43.3380091,219.247711 L41.490307,219.247711 C41.2438525,219.247711 41.0614856,219.476637 41.1166198,219.717338 C41.2589319,220.332046 40.9799624,220.96795 40.4314479,221.28025 L34.8520569,224.457415 C34.5504682,224.628874 34.2380412,224.777252 33.9204306,224.914324 L34.3723424,225.853578 C34.702205,226.538471 35.3482646,227.015634 36.0998802,227.130568" id="Fill-22" fill="#0065C4"></path>
                <path d="M52.8456401,227.809761 C51.947,228.371241 51.31225,229.289298 51.1044365,230.327941 L50.9154724,231.271906 L51.3961294,231.271906 L51.5662442,230.420265 C51.7486111,229.508332 52.306079,228.702382 53.0953932,228.209203 L54.0392716,227.619461 C54.0208935,227.449886 53.9916771,227.283138 53.9535073,227.117803 L52.8456401,227.809761 Z" id="Fill-24" fill="#1C417D"></path>
                <path d="M44.4202884,230.493606 C43.7836535,229.08708 42.4924769,228.107788 40.9652128,227.874152 L36.2901167,227.159584 L36.0997388,227.13038 C35.3481232,227.015446 34.7020637,226.538282 34.3726723,225.85339 L33.9202892,224.914607 C33.7756209,224.976784 33.6314238,225.039432 33.4839281,225.094544 L33.9476207,226.057821 C34.2388423,226.662166 34.7355212,227.13038 35.3358712,227.392749 C35.5549942,227.488841 35.7863693,227.559026 36.0285827,227.596238 L40.8940567,228.340011 C42.2625155,228.549152 43.4203334,229.4267 43.9909957,230.687675 L44.2553571,231.271764 L44.772299,231.271764 L44.4202884,230.493606 Z" id="Fill-26" fill="#1C417D"></path>
                <path d="M46.5712285,227.074467 C46.4180779,227.032074 46.2682261,226.973665 46.1263851,226.897356 C46.0547578,226.860144 45.9836017,226.820577 45.9157443,226.775357 L45.6740021,226.612848 C45.347438,226.392401 45.0072083,226.189854 44.6533128,226.003793 C44.5694334,225.959515 44.4638774,225.967523 44.3870665,226.032055 C44.2852803,226.117314 44.2725571,226.268989 44.3578501,226.370262 C44.6146717,226.675967 44.8851591,226.965657 45.1693122,227.237918 C45.2404683,227.308574 45.3078545,227.372636 45.3860791,227.443292 C45.4718434,227.520542 45.56232,227.59214 45.6570377,227.659028 C45.8497717,227.78668 46.057114,227.896432 46.2776507,227.974154 C46.7092995,228.142786 47.2323674,228.148439 47.5881479,228.15362 L48.764815,228.165867 L49.9414822,228.152207 C50.1186656,228.14891 50.3900954,228.140902 50.6101609,228.092385 C50.8405935,228.047165 51.0649001,227.975096 51.2769547,227.878062 C51.6977652,227.686348 52.0761648,227.36557 52.3245042,227.011348 C52.5587067,226.694809 52.776416,226.36461 52.9795172,226.02075 C53.0275829,225.938318 53.0242842,225.831392 52.9625528,225.751786 C52.8815008,225.647216 52.7307065,225.627903 52.6260929,225.709393 C52.3103672,225.953863 52.0101922,226.211522 51.7255679,226.483783 C51.4678038,226.728253 51.2067411,226.896885 50.9037387,227.010877 C50.7557717,227.068815 50.6016787,227.108853 50.4452296,227.130521 C50.2793558,227.153602 50.1558929,227.150305 49.9414822,227.143239 L48.764815,227.129108 L47.5881479,227.141826 C47.1626251,227.156428 46.8864829,227.171501 46.5712285,227.074467" id="Fill-28" fill="#0065C4"></path>
                <path d="M65.6519917,81.548785 L56.6523963,81.548785 C50.7662331,81.548785 46.482731,87.1320237 48.0095238,92.8141808 L65.9380298,159.548321 C67.092549,163.844678 70.9886981,166.831072 75.4390164,166.831072 C81.4938808,166.831072 86.1114866,161.415053 85.1511151,155.438966 L74.4875983,89.0755353 C73.7906456,84.7381978 70.0467046,81.548785 65.6519917,81.548785" id="Fill-30" fill="#1C417D"></path>
                <path d="M71.7968616,166.124889 L52.7199624,107.422454 L53.5799614,113.548802 L65.938501,159.548697 C66.7608015,162.610929 68.9803058,165.000987 71.7968616,166.124889" id="Fill-32" fill="#001828"></path>
                <path d="M42.0551732,166.875821 L42.0551732,166.875821 C47.5445589,167.005828 52.1254085,162.714181 52.3501864,157.22939 L55.0211313,92.1146862 C55.2515639,86.4947064 50.8281059,81.7772395 45.2025341,81.6439351 L38.1689201,81.477658 C32.2530692,81.337759 27.4936224,86.3044062 27.8880439,92.2065391 L32.250713,157.487991 C32.59754,162.681208 36.8499407,166.752879 42.0551732,166.875821" id="Fill-34" fill="#1C417D"></path>
                <path d="M55.0211784,92.1145449 C55.2516111,86.4945651 50.828153,81.7770982 45.2025812,81.6437938 L38.1689672,81.4775166 C32.2531163,81.3376177 27.4931983,86.3047359 27.8876198,92.2063977 L32.2502889,157.488321 C32.5184201,161.496872 35.1177377,164.828539 38.681668,166.200208 L38.0945125,161.968383 L36.6925962,99.3991806 C43.4585503,99.3991806 49.5270805,98.3652475 54.8284444,96.8131702 L55.0211784,92.1145449 Z" id="Fill-36" fill="#001828"></path>
                <path d="M80.8209139,213.083068 L93.6488009,213.083068 C94.0502909,213.083068 94.3561207,212.724135 94.2925043,212.327991 L85.0634188,154.894067 C84.29531,150.112539 80.1677859,146.596695 75.3230461,146.596695 C68.8341767,146.596695 64.1119573,152.750835 65.7951992,159.015668 L80.1913475,212.600252 C80.2676871,212.885231 80.5259225,213.083068 80.8209139,213.083068" id="Fill-38" fill="#1C417D"></path>
                <path d="M66.9577766,151.234933 C65.5709398,153.449293 65.044102,156.220422 65.7952464,159.015574 L80.1913946,212.600158 C80.2677343,212.885137 80.5259696,213.082974 80.820961,213.082974 L87.0572499,213.082974 L66.9577766,151.234933 Z" id="Fill-40" fill="#001828"></path>
                <path d="M95.8428116,212.539817 C95.8428116,212.05653 95.4799627,211.651436 94.9988345,211.604803 C93.6247209,211.470085 90.7153324,211.377761 87.3479061,211.377761 C83.9804797,211.377761 81.0710912,211.470085 79.6965064,211.604803 C79.2153782,211.651436 78.8530005,212.05653 78.8530005,212.539817 L78.8530005,216.379736 C78.8530005,216.899765 79.2747535,217.31899 79.7954652,217.31899 L94.9003469,217.31899 C95.4205874,217.31899 95.8428116,216.899765 95.8428116,216.379736 L95.8428116,212.539817 Z" id="Fill-42" fill="#ACEDFB"></path>
                <path d="M85.0049388,211.393259 C82.6662127,211.424818 80.7393436,211.50254 79.6965064,211.604756 C79.2153782,211.651389 78.8530005,212.056483 78.8530005,212.53977 L78.8530005,216.379689 C78.8530005,216.899718 79.2747535,217.318943 79.7954652,217.318943 L86.3964879,217.318943 L85.0049388,211.393259 Z" id="Fill-44" fill="#46CFED"></path>
                <path d="M26.5781122,106.527054 L26.7830983,98.7727914 L24.8717799,94.6865183 C23.8935015,92.5955711 23.5523293,90.2629804 23.8902029,87.9793778 L26.4494658,70.6846683 C26.8387037,68.0567354 26.7496408,65.3802854 26.1874606,62.7839122 L22.2611527,44.6564037 C22.0486269,43.673814 21.7027423,42.7246681 21.2333949,41.8358154 L18.7537703,37.1386032 C14.9047445,29.8469019 19.4695722,20.9480118 27.6397987,19.8170444 L50.6538442,16.6309289 C51.6849005,16.4966825 52.7315076,16.5291843 53.7521969,16.7274922 L75.9269775,21.5203255 C83.7612153,23.2132438 87.7101424,32.0118024 83.7663988,38.9869647 L80.625164,44.542883 C79.8155868,45.974374 79.3358723,47.5683738 79.2204204,49.2085355 L78.1497805,64.4561046 C78.0319724,66.1353627 78.1064271,67.8226285 78.3722021,69.4849291 L81.2608564,87.5540286 C81.5709273,89.495656 81.3899741,91.4839164 80.7335474,93.3374593 L78.7586127,98.9159876 L79.1813081,105.977821 C79.2039272,106.356066 79.0008261,106.712173 78.6596539,106.877979 C76.767656,107.79792 69.6459215,110.494625 51.1684299,110.494625 C33.371869,110.494625 28.3089486,108.240227 26.9918542,107.333004 C26.7260792,107.149769 26.5691588,106.849717 26.5781122,106.527054" id="Fill-46" fill="#D95B26"></path>
                <path d="M21.392483,22.683512 L25.1741226,22.8446078 C28.3832149,22.9807383 31.5178524,23.8521626 34.3367644,25.3910507 L49.6291965,33.739766 C51.3572056,34.6832594 53.4928306,34.4340792 54.9569495,33.117993 L69.42661,20.1154012 L53.7520084,16.7272096 C52.7313191,16.5289017 51.6851833,16.4963999 50.6536557,16.6311174 L27.6396102,19.8172328 C25.1882595,20.1563817 23.0648866,21.1987935 21.392483,22.683512" id="Fill-48" fill="#AA391B"></path>
                <path d="M59.9868364,101.10915 C61.6832729,100.233016 62.5192391,98.0926094 61.5951524,96.2188118 L59.156525,91.2761877 C57.4374694,87.7909618 54.4701193,85.0796547 50.8444576,83.6792524 L45.655247,81.6754477 C41.0178495,79.8840821 37.7785983,75.6414236 37.2739085,70.6973864 L36.6485831,64.5738647 C36.2249453,60.4211749 35.017648,56.3862451 33.0907789,52.6824565 L26.8851201,40.7533652 C26.0317183,39.1127324 23.8155126,38.8013749 22.542714,40.1428972 L21.1276033,41.6351523 L21.2336305,41.8358154 C21.702978,42.7246681 22.0488625,43.673814 22.2613883,44.6564037 L26.187225,62.7839122 C26.7498764,65.3802854 26.8384681,68.0567354 26.4497014,70.6846683 L23.8904385,87.9793778 C23.5525649,90.2629804 23.8937372,92.5955711 24.8715443,94.6865183 L26.2253948,97.5805888 C35.6189405,101.263181 49.4651606,101.572183 59.9868364,101.10915" id="Fill-50" fill="#AA391B"></path>
                <path d="M77.272393,39.5958783 L75.4944333,67.2464051 C75.321491,69.9299207 76.7191662,72.4561089 79.0541225,73.7495851 L78.3722493,69.4847878 C78.1064742,67.8224871 78.0320195,66.1352214 78.1498276,64.4559633 L79.2204675,49.2088653 C79.3354482,47.5682325 79.815634,45.9742327 80.6252111,44.5427417 L80.795326,44.241276 L77.272393,39.5958783 Z" id="Fill-52" fill="#AA391B"></path>
                <path d="M55.8566734,107.212888 C67.4277837,103.637694 74.869485,99.8500602 74.869485,99.8500602 C74.869485,99.8500602 68.5229277,100.73326 59.9870249,101.10915 C49.4653491,101.572183 35.6191289,101.263181 26.2255833,97.5805888 L26.7835224,98.7727914 L26.5780651,106.527054 C26.5695829,106.849717 26.7265033,107.149769 26.9922783,107.333004 C28.0897785,108.089023 31.7969634,109.780057 43.3049286,110.322695 C46.4376812,109.758389 50.6929093,108.808301 55.8566734,107.212888" id="Fill-54" fill="#AA391B"></path>
                <path d="M110.168935,62.1411779 C112.800296,54.8687893 116.284588,45.2265978 118.566295,38.9104207 C119.890458,35.2457284 118.085167,31.1928991 114.47647,29.7204277 C111.142972,28.3605348 107.315623,29.6450612 105.47923,32.740737 L92.8803623,53.9785234 C90.0067875,58.8231712 91.9039689,65.088476 96.9829112,67.5265797 C102.107563,69.9868223 108.235468,67.4851282 110.168935,62.1411779" id="Fill-56" fill="#D95B26"></path>
            </g>
            <g id="Group-61" transform="translate(91.000000, 64.000000)">
                <mask id="mask-4" fill="white">
                    <use xlink:href="#path-3"></use>
                </mask>
                <g id="Clip-60"></g>
                <path d="M-11.771478,45.3611858 L-16.457435,40.3654383 L-14.6481963,12.2714911 C-14.6112044,11.6956304 -13.877132,11.4750676 -13.5273907,11.9353726 L2.55494446,33.1098811 C4.44729475,35.6008023 7.15010326,37.3552356 10.1988098,38.0711057 L14.5350255,39.0895305 L0.476673996,44.7234716 L-11.771478,45.3611858 Z" id="Fill-59" fill="#AA391B" mask="url(#mask-4)"></path>
            </g>
            <g id="Group-161">
                <path d="M118.088836,71.019001 C118.298043,70.4636314 118.508664,69.9035514 118.711274,69.3646686 C119.525014,67.2016007 118.468141,64.7846362 116.327538,63.911307 L114.005056,62.9630806 C112.036436,62.159938 109.776623,62.9268096 108.704201,64.7624968 L107.877738,66.177064 C106.415644,68.6788178 107.425399,71.8951565 110.055565,73.1128243 C110.510732,73.3238553 110.971553,73.5372416 111.425778,73.7473305 C114.017779,74.9470983 117.082851,73.6917464 118.088836,71.019001" id="Fill-62" fill="#AA391B"></path>
                <path d="M125.402132,55.5968735 C123.818943,58.0529354 122.729087,59.83822 120.804288,62.2146742 C120.408019,62.7036255 118.884671,65.1870083 117.64592,67.2360817 C116.682342,68.8296485 114.635034,69.3803075 113.000485,68.4876652 C111.6331,67.7410488 110.929147,66.1781003 111.276883,64.6603728 C111.551585,63.4615471 111.658544,62.0992666 111.066733,61.2607951 C110.586122,60.580597 109.896775,58.985146 109.816202,57.1098905 C109.739399,55.325548 108.740953,52.546816 109.500507,51.4751741 C109.671077,51.2349379 109.763901,51.1289514 110.058393,51.1096383 C111.314578,51.0276753 111.051184,53.6735708 112.594793,53.5520396 C113.135245,53.509645 113.575334,53.0988882 113.749673,52.5854422 C114.615244,50.0304596 115.615574,47.5206979 116.744539,45.0702887 C116.944322,44.6373925 117.460743,44.3952721 117.892822,44.596411 C118.227365,44.7528001 118.254222,45.0759413 118.265531,45.3722326 C118.301341,46.3416563 117.376401,49.437877 118.147734,49.8147181 C119.174922,50.3163878 119.743174,49.0030966 120.343938,48.2757932 C120.951298,47.540011 122.410093,45.2832039 123.417492,45.7259922 C124.424419,46.1692515 122.564643,49.6917736 122.564643,49.6917736 C122.564643,49.6917736 123.787845,48.1796988 124.457873,47.7284316 C125.036491,47.338401 125.755522,47.3261537 126.100903,47.8212287 C126.342622,48.1674514 125.942584,48.795834 125.750811,49.2894958 C125.286691,50.4807847 124.479076,51.7276576 124.263744,52.98772 C124.209557,53.3061508 124.929531,52.7903495 125.259362,52.5044213 C125.853529,51.9886201 126.555127,51.4657531 126.940558,52.0738804 C127.269447,52.59345 126.160743,54.4201872 125.402132,55.5968735" id="Fill-64" fill="#EFC8A1"></path>
                <path d="M112.348551,60.4256211 C111.527743,59.5485234 110.976454,58.4538001 110.759708,57.2728743 L109.863038,52.382419 C109.816391,51.9132519 110.008635,51.4568031 110.365795,51.1586276 C110.273442,51.1242408 110.174022,51.1021014 110.05811,51.1096383 C109.763618,51.1289514 109.671265,51.2349379 109.500695,51.4756452 C108.741142,52.546816 109.739587,55.325548 109.81592,57.1098905 C109.896493,58.985146 110.58584,60.580597 111.06645,61.2607951 C111.658262,62.0992666 111.551773,63.4615471 111.277071,64.6603728 C111.070691,65.561023 111.241732,66.4739206 111.695014,67.2261896 L112.884291,62.4991892 C113.069938,61.7619938 112.86827,60.9809906 112.348551,60.4256211" id="Fill-66" fill="#E98C55"></path>
                <path d="M116.744774,45.0704771 C115.61581,47.5208863 114.615479,50.0301769 113.749437,52.5856306 C113.575569,53.0990766 113.135481,53.5098334 112.594558,53.552228 C112.525293,53.5578806 112.463568,53.5512859 112.401371,53.5461043 L112.832978,53.8339167 C113.206159,54.0826318 113.478976,54.4552335 113.602898,54.8862455 C113.642007,55.0214372 113.682529,55.1636947 113.721637,55.2993575 C113.785248,55.5198095 114.088692,55.5414779 114.183401,55.3328022 L114.4369,54.7764905 C114.47271,54.6968828 114.502866,54.6149199 114.526425,54.5306017 L117.345067,44.5589154 C117.090155,44.6300441 116.8621,44.8156383 116.744774,45.0704771" id="Fill-68" fill="#E98C55"></path>
                <path d="M118.402882,58.2058386 L118.439635,58.2011281 C118.517852,58.191236 118.589001,58.1417756 118.623398,58.0645232 C118.675699,57.9467604 118.622455,57.8082713 118.504658,57.7559846 C118.151268,57.5991245 117.738508,57.4964353 117.322921,57.5501351 C116.910632,57.5906455 116.502113,57.7357294 116.160031,57.9580656 C115.813708,58.1761624 115.526755,58.4620906 115.295403,58.7762818 C115.070175,59.0994231 114.895836,59.4338695 114.812907,59.8370895 C114.794531,59.9303577 114.821388,60.0325758 114.893951,60.1041756 C115.008921,60.217228 115.193626,60.2158148 115.306711,60.1008783 L115.329328,60.0782678 L116.014905,59.3811118 C116.238248,59.1564203 116.470543,58.9566945 116.707551,58.7772239 C116.94927,58.6015218 117.207009,58.4771642 117.483125,58.3749461 C117.761125,58.26472 118.06457,58.2482333 118.402882,58.2058386" id="Fill-70" fill="#E98C55"></path>
                <path d="M69.5834607,59.7974741 L69.5834607,59.7974741 C65.6113527,63.2922042 65.2867047,69.3668825 68.8630155,73.2653036 L93.7223801,100.359707 C97.0352972,103.970316 102.647608,104.216205 106.263969,100.909424 L106.263969,100.909424 C109.809653,97.6671774 110.133358,92.1935606 106.994309,88.556573 L82.9722445,60.7179084 C79.5415306,56.7422349 73.5258838,56.3291229 69.5834607,59.7974741" id="Fill-72" fill="#D95B26"></path>
                <path d="M101.584845,101.577752 C98.5946911,100.874472 95.9437921,99.150895 94.0877857,96.7033121 L78.3143236,75.9012129 C77.9712993,75.4494746 77.2513253,75.6661582 77.2150439,76.2318909 L76.8465755,81.9659992 L93.7226157,100.359613 C96.497437,103.383763 100.881834,104.038053 104.359195,102.230158 L101.584845,101.577752 Z" id="Fill-74" fill="#AA391B"></path>
                <path d="M51.4110432,35.4263128 C47.8620613,35.4263128 44.8167786,38.0406479 44.3766897,41.5608147 C44.0986893,43.7860614 43.5973461,46.093742 42.8608806,48.1913337 C41.6442753,51.6563876 39.4867091,53.9866787 39.4867091,53.9866787 C39.4867091,53.9866787 38.2587953,60.5710346 51.2753413,60.5710346 C64.2918872,60.5710346 64.2551352,55.3112751 64.2551352,55.3112751 C64.2551352,55.3112751 59.8669684,51.3690462 59.765192,44.0220581 C59.747758,42.755872 59.7331512,41.6710408 59.7213715,40.7425985 C59.6832054,37.7980564 56.2647424,35.4263128 52.0612815,35.4263128 L51.4110432,35.4263128 Z" id="Fill-76" fill="#EFC8A1"></path>
                <path d="M57.4957189,37.0126725 C56.1071303,36.0333567 54.1856289,35.4261715 52.0610459,35.4261715 L51.4108076,35.4261715 C47.8622969,35.4261715 44.8170142,38.0405066 44.3769253,41.5606734 C44.0989249,43.7859201 43.5971105,46.0940717 42.860645,48.1911924 C41.6445108,51.6562463 39.4869447,53.9870084 39.4869447,53.9870084 C39.4869447,53.9870084 39.0430864,56.3926677 41.5648802,58.2961863 C43.2734049,57.7384615 44.9847568,56.9852503 46.6824442,55.9965135 C55.6392414,50.7796197 56.6862193,41.4311343 56.6862193,41.4311343 C56.8864739,40.502221 57.1673014,38.9501068 57.4957189,37.0126725" id="Fill-78" fill="#E98C55"></path>
                <path d="M54.2054659,9.22963911 C61.7336235,9.13495779 67.8011009,15.7880873 67.6809482,24.0051072 L67.6734092,24.5425768 C67.7412601,24.9679362 67.7733009,34.9320857 65.364592,38.7687991 C62.5511333,43.2494397 60.2041499,44.8161565 55.2265285,46.755475 C53.3479052,47.4874888 51.2662003,47.5228176 49.36496,46.8525115 C44.3006401,45.0662848 41.6016799,43.8608643 39.1811914,39.0858167 C37.1560289,35.0922432 36.8120622,25.3565536 36.8799132,24.9297811 L36.8728454,24.3923115 C36.7574045,16.1776467 42.8286514,9.37283872 50.356809,9.2781574 L54.2054659,9.22963911 Z" id="Fill-80" fill="#EFC8A1"></path>
                <path d="M37.960581,22.3105 C37.6420584,21.8516959 37.386675,21.4352865 37.1788814,21.0419586 C36.9659048,22.1220794 36.8565894,23.2427106 36.8726098,24.3920759 L36.8801488,24.9295455 C36.8118266,25.3567891 37.1557933,35.0924787 39.1809558,39.0860522 C41.6019155,43.8610999 44.3008757,45.0665203 49.3647244,46.852276 C50.5742619,47.2790486 51.8568334,47.4170666 53.1134896,47.2748091 C40.7990126,44.5403559 39.7689974,32.8559268 40.7382294,27.5575411 C40.9144534,26.5928279 41.0331926,25.630941 41.1081114,24.6940199 C40.2199235,24.328484 38.8520671,23.5964702 37.960581,22.3105" id="Fill-82" fill="#E98C55"></path>
                <path d="M47.570208,21.6020858 C47.7299404,21.9826953 48.2670938,21.9567875 48.406094,21.5686412 C50.8557962,14.7289754 58.0866347,11.7241387 59.2655451,10.2422111 C57.7030884,9.57049188 55.9964484,9.20731128 54.2054659,9.22945069 L50.356809,9.27796898 C43.8826971,9.35946087 38.4899598,14.4058341 37.179117,21.0420057 C37.3869106,21.4353336 37.642294,21.851743 37.9603454,22.3105471 C38.8523027,23.5965173 40.2196879,24.3285311 41.1078758,24.694067 C41.1172995,24.6978354 41.128608,24.7030169 41.1375606,24.7067854 C41.4754018,24.8448034 41.8221955,24.5409753 41.7293717,24.1881578 C41.3872898,22.8922955 40.9476721,20.2435737 42.1303519,17.7747935 C41.8994702,20.8597089 43.7342731,22.0142558 44.9014038,22.4349046 C45.3061536,22.5804595 45.715144,22.2375341 45.6430524,21.8135879 C45.4126419,20.4531915 45.2114449,17.8336749 46.7988746,16.7690988 C46.563281,18.7300856 47.1192818,20.5285598 47.570208,21.6020858" id="Fill-84" fill="#E98C55"></path>
                <path d="M38.1052826,30.0265097 C38.6301851,33.1279119 38.1349673,35.3164165 36.2422084,35.8637782 C34.0370524,36.5015818 32.2380597,33.6206316 31.7197538,31.1994276 C30.7764371,26.7927421 32.523128,24.1308309 34.3282461,24.3117146 C37.7297464,24.6518137 37.6925226,27.5855216 38.1052826,30.0265097" id="Fill-86" fill="#EFC8A1"></path>
                <path d="M34.3284346,24.3115262 C32.5233165,24.1311135 30.7766256,26.7930247 31.7199423,31.1997103 C31.7703593,31.4352359 31.8363255,31.6750011 31.9098307,31.9157083 C31.968258,31.802656 32.0163191,31.6255407 32.048831,31.3664624 C32.4144722,28.4676123 33.2541278,27.1670395 33.9934205,27.1401896 C36.1957494,27.061053 37.67245,31.6396722 35.6110061,35.1296918 C35.321226,35.6200563 35.5384433,35.8706556 36.0030338,35.9102239 C36.0826644,35.8960923 36.1618239,35.8871424 36.2423969,35.8635898 C38.1351558,35.3166992 38.6299024,33.1277235 38.105471,30.0263213 C37.6922399,27.5853331 37.7294637,24.6520963 34.3284346,24.3115262" id="Fill-88" fill="#E98C55"></path>
                <path d="M66.448511,30.0265097 C65.9236084,33.1279119 66.4192974,35.3164165 68.3115851,35.8637782 C70.5172123,36.5015818 72.3157338,33.6206316 72.8340397,31.1994276 C73.7773564,26.7927421 72.0306655,24.1308309 70.2255474,24.3117146 C66.8245183,24.6518137 66.8617421,27.5855216 66.448511,30.0265097" id="Fill-90" fill="#EFC8A1"></path>
                <path d="M66.4556259,29.9814301 C67.0573319,30.1015482 67.5808209,29.8688488 67.7457364,29.1471981 C68.1905371,27.201285 68.6673785,25.5577867 69.3807559,24.4753107 C66.8533079,25.1889535 66.8236231,27.7740834 66.4556259,29.9814301" id="Fill-92" fill="#E98C55"></path>
                <path d="M46.3828163,29.3882351 C46.6424404,29.1951041 46.8130102,28.8884496 46.8130102,28.5398716 L46.8130102,27.268504 C46.8130102,26.6829871 46.3380535,26.2086384 45.752839,26.2086384 C45.1671533,26.2086384 44.6926679,26.6829871 44.6926679,27.268504 L44.6926679,28.5398716 C44.6926679,28.7876446 44.781251,29.0128072 44.9235496,29.1932199 C45.0733871,29.1616594 45.2279365,29.1432884 45.3867266,29.1432884 C45.7467136,29.1432884 46.0817277,29.2365566 46.3828163,29.3882351" id="Fill-94" fill="#1C417D"></path>
                <path d="M58.0410238,29.2451768 C58.2092376,29.0576984 58.3147836,28.8122806 58.3147836,28.5400129 L58.3147836,27.2681743 C58.3147836,26.6831285 57.8402981,26.2083087 57.2546124,26.2083087 C56.6689267,26.2083087 56.1944412,26.6831285 56.1944412,27.2681743 L56.1944412,28.5400129 C56.1944412,28.8494937 56.329672,29.1255298 56.541235,29.3191319 C56.807927,29.2060796 57.1014766,29.1434297 57.4101042,29.1434297 C57.6306198,29.1434297 57.8398269,29.1853533 58.0410238,29.2451768" id="Fill-96" fill="#1C417D"></path>
                <path d="M60.7921915,24.764442 L60.7921915,24.764442 C60.6470659,24.9118811 60.4190113,24.9396731 60.2437297,24.8303892 L58.8080223,23.9377469 C58.5229541,23.7601605 58.200662,23.6504056 57.8661191,23.6169609 L55.6039495,23.3899142 C55.2661083,23.3555274 55.0912978,22.9692653 55.2887252,22.6932292 L55.5836884,22.2810593 C55.6835801,22.141628 55.8550922,22.0723835 56.0237772,22.1034729 L58.3674623,22.5377822 C58.7227374,22.6042005 59.0568091,22.7563501 59.3395215,22.9819837 L60.7526118,24.1101517 C60.9571071,24.2736065 60.9754834,24.5779057 60.7921915,24.764442" id="Fill-98" fill="#00547A"></path>
                <path d="M42.004545,24.764442 L42.004545,24.764442 C42.1496706,24.9118811 42.3777252,24.9396731 42.553478,24.8303892 L43.9887142,23.9377469 C44.2742536,23.7601605 44.5960745,23.6504056 44.9306174,23.6169609 L47.1932582,23.3899142 C47.5310994,23.3555274 47.7059099,22.9692653 47.5080113,22.6932292 L47.2130481,22.2810593 C47.1131564,22.141628 46.9421155,22.0723835 46.7734305,22.1034729 L44.4292742,22.5377822 C44.0739991,22.6042005 43.7399274,22.7563501 43.4572151,22.9819837 L42.0441247,24.1101517 C41.8396295,24.2736065 41.8212532,24.5779057 42.004545,24.764442" id="Fill-100" fill="#00547A"></path>
                <path d="M51.0838508,26.2543775 C50.9877286,27.010886 50.8826539,27.7659813 50.7615588,28.5177793 C50.6357518,29.2686352 50.5297347,30.0232595 50.3879073,30.771289 L50.3370191,31.0520356 L50.311575,31.192409 C50.3078055,31.229151 50.3021513,31.2550588 50.3016801,31.2866192 C50.2969682,31.4067373 50.3238259,31.5268458 50.384609,31.6314288 C50.4411515,31.7374154 50.533033,31.8222046 50.6343382,31.880615 C50.6871112,31.9069939 50.7412977,31.9305464 50.7992538,31.9423227 C50.8284674,31.9508017 50.8572098,31.9508017 50.8883081,31.9569253 L51.0306067,31.9710569 C51.2204951,31.9870726 51.40897,32.0115673 51.597916,32.0346488 L51.8368079,32.0657382 C51.8966487,32.0709197 51.9574319,32.064325 52.018215,32.0539619 C52.1402525,32.0327646 52.2613476,31.9795358 52.3678359,31.8961597 C52.4875174,31.7911152 52.6406533,31.6389656 52.790962,31.5245002 L52.7952027,31.5212028 C52.8894401,31.4491319 53.0237284,31.467503 53.0953489,31.5612422 C53.1457659,31.6276604 53.1514202,31.7138628 53.1179659,31.7840495 C53.0298539,31.9668174 52.9506944,32.1156696 52.8281858,32.3045612 C52.6825889,32.5071133 52.4691411,32.6639734 52.2264797,32.751589 C52.1049134,32.7958678 51.9758082,32.8194204 51.8452893,32.825544 C51.784035,32.8288414 51.7067603,32.8260151 51.6577568,32.8227177 L51.5154583,32.8104704 C51.3255698,32.7939836 51.1356814,32.7779678 50.9472065,32.7539442 L50.8053792,32.7369864 C50.7431825,32.7266232 50.6762739,32.7195575 50.613606,32.7011865 C50.4854431,32.6705681 50.3638768,32.6178104 50.2493783,32.5537474 C50.0236796,32.4194978 49.83332,32.2268378 49.7131673,31.9955515 C49.5887739,31.7661495 49.533645,31.5000055 49.5515501,31.2404562 C49.5543772,31.1773353 49.5675705,31.1090329 49.576523,31.0515646 L49.6047942,30.9116623 L49.6613367,30.6318578 C49.8069335,29.8847704 49.9878694,29.1442776 50.1490154,28.4004875 C50.3153445,27.6571685 50.4967516,26.9166757 50.6875824,26.1785382 C50.7158536,26.0701964 50.8261114,26.0051913 50.9340133,26.0334544 C51.033905,26.0588912 51.0965729,26.1549857 51.0838508,26.2543775" id="Fill-102" fill="#E98C55"></path>
                <path d="M52.6816937,36.0188012 L52.6816937,36.0188012 C53.3894168,36.0046697 54.0801772,35.796936 54.678585,35.4186818 L55.0611889,35.1760903 C55.9536175,34.6117708 57.0533684,35.5039421 56.6839576,36.49315 L56.3442316,37.4027501 C56.2170111,37.7437913 55.9295869,38.0000433 55.5757254,38.0871878 L53.3903592,38.6270126 C53.00964,38.7207519 52.6072461,38.6053443 52.3344287,38.3236556 L51.9117738,37.8884041 C51.2412745,37.1964296 51.7181159,36.0381143 52.6816937,36.0188012" id="Fill-104" fill="#FFFFFF"></path>
                <path d="M58.9681788,30.6700601 L59.660824,30.6700601 C59.9359973,30.6700601 60.1588688,30.8928674 60.1588688,31.1679614 L60.1588688,31.2975005 C60.1588688,31.5725945 59.9359973,31.7958729 59.660824,31.7958729 L58.9681788,31.7958729 C58.6934767,31.7958729 58.470134,31.5725945 58.470134,31.2975005 L58.470134,31.1679614 C58.470134,30.8928674 58.6934767,30.6700601 58.9681788,30.6700601" id="Fill-106" fill="#FF97A6"></path>
                <path d="M57.0636402,31.9113747 L57.7562854,31.9113747 C58.0314587,31.9113747 58.2543303,32.134653 58.2543303,32.409747 L58.2543303,32.5392861 C58.2543303,32.8143801 58.0314587,33.0371874 57.7562854,33.0371874 L57.0636402,33.0371874 C56.7884669,33.0371874 56.5655954,32.8143801 56.5655954,32.5392861 L56.5655954,32.409747 C56.5655954,32.134653 56.7884669,31.9113747 57.0636402,31.9113747" id="Fill-108" fill="#FF97A6"></path>
                <path d="M55.1591016,30.6700601 L55.8517468,30.6700601 C56.1269201,30.6700601 56.3497917,30.8928674 56.3497917,31.1679614 L56.3497917,31.2975005 C56.3497917,31.5725945 56.1269201,31.7958729 55.8517468,31.7958729 L55.1591016,31.7958729 C54.8839283,31.7958729 54.6610568,31.5725945 54.6610568,31.2975005 L54.6610568,31.1679614 C54.6610568,30.8928674 54.8839283,30.6700601 55.1591016,30.6700601" id="Fill-110" fill="#FF97A6"></path>
                <path d="M46.9450839,30.6700601 L47.6377291,30.6700601 C47.9129024,30.6700601 48.135774,30.8928674 48.135774,31.1679614 L48.135774,31.2975005 C48.135774,31.5725945 47.9129024,31.7958729 47.6377291,31.7958729 L46.9450839,31.7958729 C46.6703818,31.7958729 46.4470391,31.5725945 46.4470391,31.2975005 L46.4470391,31.1679614 C46.4470391,30.8928674 46.6703818,30.6700601 46.9450839,30.6700601" id="Fill-112" fill="#FF97A6"></path>
                <path d="M45.0405454,31.9113747 L45.7331905,31.9113747 C46.0083638,31.9113747 46.2312354,32.134653 46.2312354,32.409747 L46.2312354,32.5392861 C46.2312354,32.8143801 46.0083638,33.0371874 45.7331905,33.0371874 L45.0405454,33.0371874 C44.765372,33.0371874 44.5425005,32.8143801 44.5425005,32.5392861 L44.5425005,32.409747 C44.5425005,32.134653 44.765372,31.9113747 45.0405454,31.9113747" id="Fill-114" fill="#FF97A6"></path>
                <path d="M43.1360068,30.6700601 L43.8286519,30.6700601 C44.1038252,30.6700601 44.3266968,30.8928674 44.3266968,31.1679614 L44.3266968,31.2975005 C44.3266968,31.5725945 44.1038252,31.7958729 43.8286519,31.7958729 L43.1360068,31.7958729 C42.8608334,31.7958729 42.6379619,31.5725945 42.6379619,31.2975005 L42.6379619,31.1679614 C42.6379619,30.8928674 42.8608334,30.6700601 43.1360068,30.6700601" id="Fill-116" fill="#FF97A6"></path>
                <g id="Group-120" transform="translate(32.056380, 0.000000)">
                    <mask id="mask-6" fill="white">
                        <use xlink:href="#path-5"></use>
                    </mask>
                    <g id="Clip-119"></g>
                    <path d="M39.0835058,11.7578189 C38.5293896,10.6970112 37.3636725,9.37100162 36.179108,8.43879098 C36.2488437,8.36813327 36.3242336,8.30030187 36.4090473,8.23812309 C36.6031764,8.11093923 36.8307598,7.998829 37.0861433,7.9291134 C37.2124214,7.88766088 37.347181,7.87305829 37.4828829,7.84243995 L37.9031819,7.80381374 L37.933809,7.80145848 C38.0256905,7.7925085 38.1081483,7.73032972 38.1373619,7.63611945 C38.1769416,7.51176189 38.1072059,7.37892541 37.9828125,7.33982814 L37.5271745,7.19615748 C37.3693268,7.16648124 37.2095943,7.12173136 37.0427941,7.10571562 C36.7101359,7.06190784 36.3576879,7.07132887 35.9958161,7.13539185 C35.9143008,7.15282075 35.8327854,7.17401806 35.75127,7.19804168 C35.7809548,7.06284994 35.8125243,6.92718715 35.8313718,6.79293751 C35.8850872,6.40432013 35.884616,6.02182643 35.8615278,5.651109 C35.8346701,5.27944948 35.7710599,4.91956623 35.6942563,4.56957507 C35.6730529,4.47395164 35.5938935,4.39717027 35.4911747,4.38398083 C35.3606558,4.36796509 35.2419166,4.46029116 35.2254251,4.59077238 L35.2244827,4.60066446 C35.1820759,4.93746619 35.126947,5.26578899 35.0397773,5.57998025 C34.9544925,5.87768471 34.8513025,6.16219973 34.7184277,6.42222009 C32.4675665,2.86484019 28.2085056,-9.42102724e-05 20.323188,-9.42102724e-05 C10.8009662,-9.42102724e-05 6.49054589,3.91999524 4.61380734,8.17358906 C3.31474427,9.1039155 1.96667774,10.5919668 1.3579039,11.7578189 C-0.437319271,15.1955517 -0.162617143,18.2484356 0.534739889,20.3050459 C1.15435104,22.1317831 1.90589459,24.3028588 1.90589459,24.3028588 C1.90589459,24.3028588 2.47320396,24.2731826 3.2106119,24.4964609 C5.33472373,25.1403881 5.71732772,28.54185 5.78612105,29.7444442 C5.79931429,29.9776146 5.99862647,30.1533168 6.23139294,30.1382431 L6.58336976,30.1156326 C6.80200062,30.10103 6.97304157,29.9210884 6.9753975,29.7015785 L7.05738407,22.1944329 C7.05738407,22.1944329 10.0432973,18.8363077 10.7788204,12.3965645 C13.1729225,11.1619389 16.1814527,10.2396203 19.8416347,10.2396203 C23.8533224,10.2396203 27.1610564,11.5062775 29.7554131,13.1229257 C30.6219263,19.0887913 33.3835544,22.1944329 33.3835544,22.1944329 L33.465541,29.7015785 C33.4678969,29.9210884 33.6389378,30.10103 33.8580399,30.1156326 L34.2095455,30.1382431 C34.442312,30.1533168 34.6420954,29.9776146 34.6552886,29.7444442 C34.7240819,28.54185 35.1066859,25.1403881 37.2303266,24.4964609 C37.9677345,24.2731826 38.5350439,24.3028588 38.5350439,24.3028588 C38.5350439,24.3028588 39.2870586,22.1317831 39.9066698,20.3050459 C40.6040268,18.2484356 40.8782577,15.1955517 39.0835058,11.7578189" id="Fill-118" fill="#0096B7" mask="url(#mask-6)"></path>
                </g>
                <path d="M41.7268272,2.45182235 C39.1843012,3.96766564 37.6166614,6.02757325 36.6700464,8.17321222 C35.3709833,9.10400971 34.0229168,10.592061 33.414143,11.7579131 C31.6189198,15.195646 31.8936219,18.2485298 32.5909789,20.3051401 C33.2105901,22.1318773 33.9621336,24.302953 33.9621336,24.302953 C33.9621336,24.302953 34.5299142,24.2732768 35.2673221,24.4965551 C37.3909628,25.1404823 37.7735668,28.5419442 37.8423601,29.7445384 C37.8555533,29.9777088 38.0553367,30.153411 38.2881032,30.1383373 L38.6396088,30.1157269 C38.8587109,30.1011243 39.0292806,29.9207116 39.0321077,29.7016727 L39.1140943,22.1945271 C39.1140943,22.1945271 39.7549089,21.4658107 40.5149338,20.0550118 C40.1601299,16.4679557 39.5669052,12.7899866 38.9840466,9.94954691 C38.1627674,5.94702347 39.6248612,4.26772536 41.7268272,2.45182235" id="Fill-121" fill="#00547A"></path>
                <path d="M68.4620823,21.2515294 C68.4620823,21.2515294 58.5958938,16.1326142 58.103032,12.0151542 C58.0554421,11.9638096 55.19298,19.8897199 48.4724372,22.6133389 C48.2349589,22.7094334 47.9654398,22.5784811 47.8886363,22.3340054 C47.5159272,21.1417744 46.5777935,17.8029624 46.8826516,15.268235 C45.2400931,16.3700241 45.6717006,19.917983 45.9902231,21.6231889 C46.0609012,22.0009721 45.6486124,22.2892555 45.3244356,22.0819929 C44.084271,21.2906267 41.9752371,19.4605921 42.2136578,16.2744007 C41.0323916,18.7398835 41.4696533,21.385308 41.811264,22.6830545 C41.9045591,23.0377562 41.5558805,23.3429974 41.2166258,23.2045083 C40.3293803,22.8422698 38.9436188,22.1074297 38.0436513,20.8101543 C36.8793477,19.1303851 36.4877912,17.9937382 36.6338592,16.6328708 C37.0452056,12.7961574 38.6481844,10.2444722 40.8180014,8.82707861 C48.8107496,3.60359004 56.0717441,5.54997428 58.8517485,6.41529563 C62.4082693,7.52273739 64.4409709,9.57699239 65.1675415,10.2053749 C69.2800632,13.7599285 68.4620823,21.2515294 68.4620823,21.2515294" id="Fill-123" fill="#0096B7"></path>
                <path d="M42.3266485,12.9255552 C45.4133958,8.61072472 46.0716443,6.86830573 45.5330773,6.47780415 C44.0111427,7.0157448 42.4298385,7.7731954 40.8179072,8.82646625 C38.6480902,10.2443309 37.0455826,12.7964871 36.633765,16.6327295 C36.487697,17.9935968 36.8792535,19.1302438 38.0440282,20.8100129 C38.9435246,22.1072884 40.3292861,22.8421285 41.2165315,23.204367 C41.5124371,23.3254272 41.8154104,23.1087436 41.8262477,22.8162207 C41.0582126,21.1171384 39.8043835,17.1409939 42.3266485,12.9255552" id="Fill-125" fill="#00547A"></path>
                <path d="M45.9900818,21.6230005 C45.9848987,21.5937953 45.9792445,21.5603507 45.9735902,21.5302034 C43.332586,18.3642672 43.8541903,12.0771446 43.8541903,12.0771446 C42.7940191,13.5590722 42.3251878,15.0329919 42.1758215,16.3608857 C42.1894859,16.3321516 42.1998521,16.3034174 42.2135165,16.2746833 C41.9750958,19.4608747 44.0841296,21.2904382 45.3242943,22.0822756 C45.6484711,22.2895382 46.0607598,22.0012547 45.9900818,21.6230005" id="Fill-127" fill="#00547A"></path>
                <path d="M50.4744173,9.64915745 C50.4744173,9.64915745 47.6864027,10.8470411 46.7463843,15.3804394 C46.7920895,15.3432263 46.8330828,15.3013028 46.8825574,15.2683292 C46.5776993,17.8030566 47.515833,21.1413976 47.8890132,22.3340996 C47.9653456,22.5785753 48.2348646,22.7095276 48.472343,22.6134331 C48.4746989,22.612491 48.4765837,22.6115489 48.4789396,22.6106068 C48.6433839,21.5337834 48.4987294,18.2872974 49.690833,16.110569 C52.3940339,11.176306 51.140676,10.2756558 50.4744173,9.64915745" id="Fill-129" fill="#00547A"></path>
                <path d="M67.9043851,22.1538754 C68.2851044,17.5964534 66.7900274,13.0762445 63.8074126,10.0417317 C62.3288272,8.5197647 60.5029769,7.38782828 58.5079703,6.68125123 C56.5101367,5.97655839 54.3657638,5.64917769 52.1874654,5.62515407 C50.0105806,5.60442781 47.8520722,5.89035599 45.8631911,6.59128042 C43.8695981,7.27948646 42.0625952,8.42178602 40.6127523,9.96023978 C37.6975172,13.0413867 36.2905522,17.6063455 36.6609054,22.1538754 L36.6609054,22.1590569 C36.675041,22.3272223 36.5497052,22.4746614 36.3814914,22.4878508 C36.2368369,22.4996271 36.1072604,22.4082431 36.0653248,22.2744645 C34.6442242,17.7175136 35.5050832,12.2999519 38.7068001,8.30873369 C40.2928162,6.31571537 42.4706433,4.78291423 44.8388301,3.86247987 C46.0233947,3.39755217 47.2527221,3.0805346 48.488646,2.86479308 C49.7283395,2.6641252 50.9708601,2.58828593 52.2081977,2.59058814 C54.6805168,2.62644109 57.1933581,3.03484262 59.5483516,3.97176379 C61.9000468,4.90256128 64.0590265,6.41510721 65.6751986,8.36902827 C67.3036215,10.3149415 68.3652062,12.6659588 68.8495866,15.0772707 C69.3108789,17.4942353 69.2218245,19.9941049 68.4999657,22.2749356 C68.4486063,22.4360352 68.2770942,22.5250639 68.1164194,22.4741903 C67.9778903,22.4299115 67.8926055,22.2966039 67.9043851,22.1576438 L67.9043851,22.1538754 Z" id="Fill-131" fill="#1C417D"></path>
                <path d="M37.6039394,36.8279733 L37.6355089,36.8199654 C38.1151775,36.7031447 38.4398255,36.2598853 38.4011881,35.7676366 C38.3281541,34.8321286 38.161825,32.9012891 37.7848753,28.9628286 C37.5144138,26.1332231 37.4409086,24.4120014 37.4489188,23.3653253 C37.4559866,22.5164907 36.7105685,21.8565478 35.8671434,21.9549975 C32.4392567,22.3549201 29.9843714,25.4577354 30.3848805,28.8851052 L30.6723047,31.3468196 C31.0723426,34.7741893 34.1760526,37.2278959 37.6039394,36.8279733" id="Fill-133" fill="#1C417D"></path>
                <path d="M66.9604087,36.8279733 L66.9288392,36.8199654 C66.4491706,36.7031447 66.1245227,36.2598853 66.16316,35.7676366 C66.236194,34.8321286 66.4025231,32.9012891 66.7794728,28.9628286 C67.0499343,26.1332231 67.1239107,24.4120014 67.1154293,23.3653253 C67.1083615,22.5164907 67.8537796,21.8565478 68.6972047,21.9549975 C72.1250914,22.3549201 74.5799767,25.4577354 74.1799388,28.8851052 L73.8920434,31.3468196 C73.4920055,34.7741893 70.3887667,37.2278959 66.9604087,36.8279733" id="Fill-135" fill="#1C417D"></path>
                <path d="M36.1110299,36.4418054 C35.4438289,35.1530088 34.9636891,32.8330809 34.6847463,29.5470265 C34.3996781,26.1898435 34.4632883,23.7964315 34.8751059,22.4336799 C34.9076178,22.3253381 34.9570925,22.2221778 35.0145773,22.1218439 C34.8152652,22.1736595 34.6197225,22.2344252 34.4293629,22.3050829 C34.0019961,23.7253027 33.9322604,26.1747698 34.2220405,29.5861238 C34.5066376,32.9334148 35.0032688,35.3117531 35.6987411,36.6551916 C35.718531,36.6942889 35.7491582,36.732444 35.7731887,36.7710703 C35.9880501,36.8092254 36.2066809,36.8351332 36.4271965,36.851149 C36.2962065,36.7187836 36.1831216,36.5812366 36.1110299,36.4418054" id="Fill-137" fill="#0065C4"></path>
                <path d="M31.1529628,29.7746386 C30.9856913,28.0171459 31.0285694,26.4419502 31.0092507,25.3575899 C30.4786939,26.4113318 30.2374461,27.6257022 30.3849277,28.8848225 L30.6718807,31.347008 C30.8047554,32.4822418 31.2387188,33.5067785 31.8781199,34.3603236 C31.6957704,33.2528818 31.3282444,31.6107968 31.1529628,29.7746386" id="Fill-139" fill="#0065C4"></path>
                <path d="M69.6892893,22.4335386 C70.1011069,23.7972323 70.1651884,26.1906443 69.8796489,29.5473563 C69.6007061,32.8334106 69.1205664,35.1528675 68.4533653,36.441664 C68.3808025,36.5815663 68.2677176,36.7191133 68.1362563,36.8510077 C68.3572431,36.835463 68.575874,36.8095552 68.7912065,36.7709289 C68.8152371,36.7323027 68.8453931,36.6941476 68.8656541,36.6550503 C69.5611264,35.3116118 70.0577577,32.9337445 70.3423547,29.5864535 C70.6321349,26.1750996 70.5623992,23.7256325 70.1350324,22.3049416 C69.9446728,22.2347549 69.7491301,22.1739893 69.5498179,22.1217026 C69.6073027,22.2220365 69.6567774,22.3251968 69.6892893,22.4335386" id="Fill-141" fill="#0065C4"></path>
                <path d="M73.4113853,29.7746386 C73.2361037,31.6107968 72.8685777,33.2528818 72.6862283,34.3603236 C73.3256293,33.5067785 73.7595927,32.4822418 73.8924675,31.347008 L74.1798916,28.8848225 C74.326902,27.6257022 74.0856542,26.4113318 73.5550974,25.3575899 C73.5357788,26.4419502 73.5786568,28.0171459 73.4113853,29.7746386" id="Fill-143" fill="#0065C4"></path>
                <path d="M85.0735037,255.580741 L85.1206224,256.209594 C85.1602022,256.739527 84.8077542,257.219529 84.2899194,257.34106 C83.8667933,257.440923 83.528481,257.756527 83.3998469,258.171523 L82.8909647,259.815022 C82.7887171,260.145229 82.6157914,260.449057 82.3834961,260.705309 L81.9500039,261.184368 C81.6376068,261.529178 81.4774031,261.985155 81.504732,262.449612 L81.7643561,266.840753 L98.7346337,266.920831 L98.0853378,262.033674 C98.0094767,261.462759 97.6551439,260.966742 97.1391939,260.710019 L95.923531,260.105189 C95.5828627,259.935611 95.2883707,259.686896 95.0640856,259.379299 L93.8394701,257.702356 C93.6811512,257.485202 93.4559237,257.326457 93.1977131,257.249676 L92.4909324,257.040529 C92.0654503,256.914758 91.760121,256.540744 91.7214837,256.098426 L91.6460938,255.227923 C91.6102835,254.81858 91.2578355,254.510041 90.8469603,254.528883 L85.8033727,254.757814 C85.3717652,254.777598 85.041463,255.149729 85.0735037,255.580741" id="Fill-145" fill="#0080F6"></path>
                <path d="M98.8553048,270 L81.8539288,270 C81.3101788,270 80.8691476,269.559096 80.8691476,269.015032 L80.8691476,267.256597 C80.8691476,266.712533 81.3101788,266.271628 81.8539288,266.271628 L98.8553048,266.271628 C99.3990548,266.271628 99.840086,266.712533 99.840086,267.256597 L99.840086,269.015032 C99.840086,269.559096 99.3990548,270 98.8553048,270" id="Fill-147" fill="#EAFBFF"></path>
                <path d="M84.2761137,261.221157 L85.659048,261.752974 C85.8371568,261.821276 86.0199774,261.855192 86.2150489,261.84954 L86.8652872,261.834937 C86.9958061,261.76475 87.1234978,261.687027 87.2431794,261.597998 L93.1155852,257.225699 L92.4912622,257.040576 C92.065309,256.914334 91.7599797,256.540791 91.7218135,256.098473 L91.6459524,255.227971 C91.6101422,254.818627 91.2576942,254.510088 90.8472901,254.528459 L85.8037025,254.757861 C85.3716239,254.777645 85.0417928,255.149776 85.0733624,255.580788 L85.1204811,256.209642 C85.1600608,256.739574 84.8076128,257.219576 84.2902493,257.341107 C83.8671232,257.440499 83.5283396,257.756574 83.3997055,258.171571 L82.8912945,259.815069 C82.7890469,260.145276 82.61565,260.449104 82.3833547,260.705356 L81.9498625,261.184415 C81.6379366,261.529225 81.477733,261.985202 81.5050618,262.449188 L81.5479399,263.181673 L82.3880666,261.848597 C82.7857486,261.217389 83.5792278,260.954542 84.2761137,261.221157" id="Fill-149" fill="#0065C4"></path>
                <path d="M82.7868323,262.099574 L81.5961423,263.990374 L81.7374985,266.393207 L82.6285134,263.87685 C82.9842598,262.870685 83.9360579,262.197552 85.0042392,262.197081 L85.4377314,262.197081 C85.4551653,262.197081 85.4721281,262.192842 85.489562,262.192842 L84.1066276,261.661025 C83.6208336,261.474017 83.0648328,261.657727 82.7868323,262.099574" id="Fill-151" fill="#0065C4"></path>
                <path d="M98.1268965,262.345651 L97.8606758,261.907573 C97.4606378,261.249043 96.6242806,260.977718 95.9137303,261.276835 L95.283753,261.541566 C95.1145968,261.613166 94.9355457,261.651321 94.7513115,261.655561 L86.8655228,261.835031 L86.2152845,261.849634 C86.0197418,261.855286 85.8369212,261.821371 85.6588124,261.753068 L84.2758781,261.221251 C83.5789922,260.954165 82.785513,261.217012 82.387831,261.848221 L81.5481755,263.181767 L81.5962365,263.990562 L82.7869266,262.099762 C83.064927,261.657916 83.6204567,261.473735 84.1067219,261.660742 L85.4896562,262.192559 C85.725721,262.283472 85.9740367,262.324925 86.2256506,262.320685 L94.7621488,262.126612 C95.0052814,262.120959 95.2427598,262.070557 95.4665737,261.975876 L96.0965509,261.711145 C96.5936534,261.501056 97.1783967,261.691361 97.4582819,262.151578 L98.2814459,263.507264 L98.1268965,262.345651 Z" id="Fill-153" fill="#1C417D"></path>
                <path d="M4.76233405,105.335611 C10.3977328,108.536405 17.5216118,112.58462 22.1661039,115.223921 C24.8377352,116.742591 28.23311,115.808496 29.7541023,113.139048 L31.351898,110.334408 C32.6396526,108.074775 32.1906112,105.225385 30.2705234,103.470719 L15.7621988,90.212978 C11.4772226,86.297128 4.70296446,87.1558547 1.53093234,92.0166337 L1.53046115,92.0180469 C-1.43283504,96.558982 0.0466927137,102.657213 4.76233405,105.335611" id="Fill-155" fill="#D95B26"></path>
                <path d="M26.8595994,115.882027 C27.3830884,116.162303 27.9103468,116.443991 28.4187578,116.715788 C30.4571135,117.805801 32.9925718,117.075671 34.1394414,115.068521 L35.3833755,112.890851 C36.4383637,111.045272 35.9742443,108.705089 34.294462,107.401689 L33.000582,106.396937 C30.7110834,104.61966 27.3892138,105.198582 25.836652,107.645694 C25.5680753,108.069169 25.2962003,108.498297 25.0280948,108.92083 C23.49815,111.332142 24.3411039,114.53482 26.8595994,115.882027" id="Fill-157" fill="#AA391B"></path>
                <path d="M30.8018812,116.168615 C31.1222885,116.573719 31.4662551,118.040573 33.1648849,120.165486 C33.7458587,120.892318 34.5303854,121.431672 35.4082071,121.741623 L36.8363755,122.246119 L38.4341712,122.829752 L39.2728844,122.940449 C39.7860072,123.008752 40.2972453,122.805257 40.623778,122.404393 L43.677071,118.655766 C43.8485831,118.445206 43.9795732,118.204028 44.0629733,117.944949 L44.4370959,116.782395 C44.6382929,116.15731 44.455001,115.472401 43.9682647,115.031497 L43.2148364,114.348472 C42.9839547,114.138854 42.8072595,113.87695 42.6993576,113.584427 L42.3040315,112.511372 C42.1329906,112.048328 41.7885528,111.670545 41.3432809,111.45763 L40.5205881,111.064302 C40.3283437,110.972447 40.1196078,110.92016 39.9071023,110.911682 L36.3336187,110.762358 C35.9689199,110.747285 35.6145871,110.634232 35.3083154,110.43592 L34.4234259,109.862179 C32.6861588,108.736366 30.3594364,109.294562 29.3228246,111.086442 L29.3228246,111.086442 C28.3964706,112.687545 28.8280781,114.729553 30.3226838,115.819095 L30.8018812,116.168615 Z" id="Fill-159" fill="#EFC8A1"></path>
            </g>
            <g id="Group-168" transform="translate(30.000000, 109.000000)">
                <g id="Group-164">
                    <mask id="mask-8" fill="white">
                        <use xlink:href="#path-7"></use>
                    </mask>
                    <g id="Clip-163"></g>
                    <path d="M14.1038482,4.55410858 L11.6969686,3.29568403 C11.6663192,3.2800097 11.632064,3.27194862 11.5969073,3.2728443 L10.4764012,3.29926673 C10.2699685,3.30419295 10.2005566,3.57513489 10.3790443,3.67768978 L12.3167175,4.7869843 L13.3051608,5.2782625 C13.6166128,5.43276658 13.8798371,5.66967284 14.0655364,5.96300668 L14.2345588,6.23036591 C14.4820077,6.62177626 14.5838719,7.08663202 14.5216716,7.54477021 L14.2796315,9.32850864 L16.0667621,6.8537563 L14.1038482,4.55410858 Z" id="Fill-162" fill="#E98C55" mask="url(#mask-8)"></path>
                </g>
                <g id="Group-167">
                    <mask id="mask-10" fill="white">
                        <use xlink:href="#path-9"></use>
                    </mask>
                    <g id="Clip-166"></g>
                    <path d="M-0.0326479874,2.244698 L1.82930323,3.39832848 C2.78664634,3.99171372 3.54386688,4.85648875 4.00180501,5.88158974 L4.35562532,6.67247151 C4.41512122,6.80503153 4.48408238,6.93311318 4.56160734,7.0562686 L5.74115862,8.92330489 C6.28022752,9.77688396 6.98967105,10.5113382 7.825318,11.0823315 L9.34832288,12.122659 C9.76569563,12.4079317 10.2754673,12.5292958 10.7775766,12.462568 L11.6091671,12.3523998 L10.3191878,14.1321077 L2.29580517,11.7473708 L0.719614559,7.68995926 L-1.78822775,4.8784328 L-0.0326479874,2.244698 Z" id="Fill-165" fill="#E98C55" mask="url(#mask-10)"></path>
                </g>
            </g>
            <g id="Group-195" transform="translate(28.000000, 39.000000)">
                <path d="M23.9989244,29.4404661 L12.1765387,14.191117 C12.1765387,14.191117 16.738622,17.4514017 23.7424898,17.4514017 C30.7463577,17.4514017 35.82131,14.191117 35.82131,14.191117 L23.9989244,29.4404661 Z" id="Fill-169" fill="#3CA1FF"></path>
                <path d="M42.0989591,1.32989064 L40.311931,0.556587398 L40.7621056,1.88122722 C41.1656129,3.06982295 40.9318049,4.38491581 40.14506,5.3567957 L24.837239,24.2607186 C24.4874698,24.6927183 23.8350702,24.695105 23.4829442,24.2650148 L7.95498539,5.31669849 C7.17719686,4.36725395 6.9297187,3.08223399 7.29834332,1.90652664 L7.89606202,0 L5.45851991,1.06687207 C4.04435894,1.68599202 2.95781193,2.88604409 2.47086918,4.36582191 L1.41024845,7.59269224 C0.609833346,10.0262107 0.987885711,12.6988804 2.43032989,14.8073251 L3.02144918,15.6713244 C3.75162762,16.7386738 4.66706115,17.6623416 5.72343939,18.3984117 L21.2235863,29.1926749 C23.0011867,30.4304374 25.3416231,30.4576462 27.1465638,29.2604583 L41.8095275,19.5364086 C42.7075197,18.941156 43.5107631,18.2103367 44.1919173,17.3702048 L45.173345,16.1586964 C47.0320239,13.8655181 47.5128387,10.7302986 46.4286486,7.97409304 L44.9994032,4.34099983 C44.4662646,2.98676445 43.4230852,1.90318521 42.0989591,1.32989064" id="Fill-171" fill="#D95B26"></path>
                <path d="M5.92787993,14.6457429 C7.41274894,16.3298256 9.40624451,16.9078936 9.98133664,16.378515 C10.749226,15.6715631 5.25002544,11.8618512 2.14264242,5.36467193 L1.41010704,7.59245357 C1.40822149,7.59770439 1.40680733,7.60343256 1.40539317,7.60868339 C2.3788073,10.6622765 3.12077042,12.0480168 1.02498387,10.8193239 C1.13670258,12.232273 1.61186067,13.6108532 2.43018848,14.8070864 L3.02130776,15.6715631 C3.75148621,16.7384352 4.66691974,17.6625803 5.72329798,18.3981731 L10.9052551,22.0069215 C10.7383841,21.2670326 10.0968265,20.24885 8.80993997,19.2974961 C8.13821352,18.8005772 6.72829504,18.1031722 5.11709431,15.5579543 C4.4434823,14.4929917 3.95936787,12.4131878 5.92787993,14.6457429" id="Fill-173" fill="#AA391B"></path>
                <path d="M46.42846,7.97428398 L45.9075774,6.64916681 C43.7580527,11.5443673 38.7151547,15.0185037 36.9578241,16.1140167 C36.6881907,16.2825204 36.7588987,16.6314616 37.0766136,16.689698 C42.1454379,17.6147978 46.7221341,8.30222184 45.6600992,12.9014668 C45.2429218,14.7077504 43.3328617,16.2195105 42.0916997,17.0338656 C41.7612575,17.2505815 41.9912943,17.6778077 42.3948016,17.5990453 C43.0509723,17.4701614 43.8919266,17.189481 44.808303,16.6090262 L45.1731565,16.1588873 C47.0318354,13.8657091 47.5126501,10.7304895 46.42846,7.97428398" id="Fill-175" fill="#AA391B"></path>
                <path d="M19.9988287,24.5367211 C19.9988287,23.7328676 19.354914,23.081288 18.5610983,23.081288 C17.7672827,23.081288 17.1238394,23.7328676 17.1238394,24.5367211 C17.1238394,25.0379361 17.3741459,25.4799601 17.7550266,25.7415466 C17.9567802,29.3354973 17.9473525,32.0291703 17.7291003,35.0932651 C17.6895038,35.6551033 17.6423651,36.234126 17.594755,36.8255598 C17.3406774,39.9717584 17.05266,43.5385003 17.6357657,46.6474657 C17.673948,46.8503385 17.8351624,46.9916334 18.0251313,47.022661 L18.4126114,48.36544 C18.4427802,48.4699792 18.5365862,48.5372852 18.6388772,48.5372852 C18.660561,48.5372852 18.6827162,48.5344211 18.7048714,48.5277382 C18.8297889,48.4909825 18.9014398,48.3582798 18.865143,48.2317827 L18.4663496,46.8493838 C18.5469567,46.7443673 18.5884388,46.6097553 18.5620411,46.469415 C18.0025048,43.4874241 18.2848656,39.9894202 18.5342293,36.9033675 C18.5823108,36.3090696 18.6294495,35.7267054 18.6695174,35.1615258 C18.8849412,32.1365735 18.8995542,29.4705867 18.7119422,25.976879 C19.4341071,25.8995487 19.9988287,25.2885437 19.9988287,24.5367211" id="Fill-177" fill="#AA391B"></path>
                <path d="M18.861089,23.1244879 C18.1337389,23.1244879 17.5440338,23.7216499 17.5440338,24.4581974 C17.5440338,24.4792007 17.549219,24.4987719 17.5501618,24.5192979 C17.5822161,23.879652 18.1002704,23.3693673 18.740414,23.3693673 C19.4008271,23.3693673 19.9363227,23.9116343 19.9363227,24.5808757 C19.9363227,25.2286365 19.4324101,25.7532416 18.8007515,25.7861786 C18.8210211,25.7871333 18.840348,25.7919068 18.861089,25.7919068 C19.5884392,25.7919068 20.1781443,25.1947448 20.1781443,24.4581974 C20.1781443,23.7216499 19.5884392,23.1244879 18.861089,23.1244879" id="Fill-179" fill="#3CA1FF"></path>
                <path d="M18.861089,25.4243013 C18.456639,25.4243013 18.1285536,25.0920673 18.1285536,24.682503 C18.1285536,24.2724614 18.456639,23.9407047 18.861089,23.9407047 C19.2655391,23.9407047 19.5936244,24.2724614 19.5936244,24.682503 C19.5936244,25.0920673 19.2655391,25.4243013 18.861089,25.4243013 M19.9363227,24.580828 C19.9363227,23.9120639 19.4008271,23.3693196 18.740414,23.3693196 C18.1002704,23.3693196 17.5822161,23.8796042 17.5501618,24.5192501 C17.549219,24.5402534 17.5440338,24.5598247 17.5440338,24.580828 C17.5440338,25.2495921 18.0795294,25.7923364 18.740414,25.7923364 C18.761155,25.7923364 18.7804819,25.7870856 18.8007515,25.7861309 C19.4324101,25.7531939 19.9363227,25.2285888 19.9363227,24.580828" id="Fill-181" fill="#0065C4"></path>
                <path d="M20.1136585,48.2153142 L19.6790397,46.8438943 C19.75729,46.7374458 19.7950009,46.6014017 19.7648322,46.4615388 C19.127517,43.4957776 19.3184287,39.9915683 19.4867138,36.8997874 C19.5192395,36.3040575 19.5512939,35.7207386 19.5762774,35.1550816 C19.7285354,31.7735506 19.6432143,28.8493187 19.2731755,24.7264668 C19.2496062,24.4639255 19.0223977,24.2744185 18.7612493,24.2939898 C18.5019864,24.3178571 18.3106033,24.5503255 18.3341727,24.8128667 C18.699969,28.8894159 18.7843472,31.776892 18.6344462,35.1116429 C18.6094627,35.6749132 18.5778797,36.2548906 18.545354,36.8472791 C18.3737692,39.9996832 18.1790863,43.5721533 18.843742,46.6644116 C18.8866382,46.8663296 19.052095,47.0033284 19.2425354,47.0295825 L19.6648981,48.3613826 C19.6969524,48.4625803 19.7898157,48.5270222 19.8892783,48.5270222 C19.9128477,48.5270222 19.9373598,48.5232034 19.9614005,48.5155659 C20.0849039,48.4749913 20.153255,48.3408566 20.1136585,48.2153142" id="Fill-183" fill="#1C417D"></path>
                <path d="M30.6059315,24.5367211 C30.6059315,23.7328676 29.9620169,23.081288 29.1682012,23.081288 C28.3743855,23.081288 27.7309423,23.7328676 27.7309423,24.5367211 C27.7309423,24.9825638 27.9331673,25.3763756 28.2447541,25.6436903 C28.4710199,27.0093821 28.314048,28.3139733 28.1311498,29.7875456 C27.9430664,31.3059885 27.7295281,33.0263496 27.8940422,35.1691633 C27.938824,35.7534369 27.9925621,36.356327 28.047243,36.9721055 C28.3206474,40.0309495 28.6303487,43.4979257 27.9336387,46.4154747 C27.8855572,46.6164381 27.974178,46.8150148 28.1353923,46.922418 L27.9416523,48.3048169 C27.9237396,48.4351328 28.0133031,48.5559018 28.1419917,48.5745183 C28.153305,48.5764277 28.1641469,48.5769051 28.1754602,48.5769051 C28.29095,48.5769051 28.3918268,48.4909825 28.4083254,48.3721229 L28.6081935,46.944376 C28.7241547,46.8827981 28.8170179,46.7787363 28.850015,46.6398282 C29.5834932,43.5690505 29.2662497,40.0190158 28.9862458,36.886183 C28.9320363,36.2747006 28.8782982,35.6756292 28.8339878,35.0956518 C28.677016,33.0492623 28.8839549,31.3795001 29.0663816,29.9068825 C29.2374951,28.5273477 29.3906959,27.2886304 29.248337,25.9845166 C30.0044417,25.9415553 30.6059315,25.3128884 30.6059315,24.5367211" id="Fill-185" fill="#AA391B"></path>
                <path d="M29.4681919,23.1244879 C28.7408418,23.1244879 28.1511367,23.7216499 28.1511367,24.4581974 C28.1511367,24.4792007 28.1563219,24.4987719 28.1572647,24.5192979 C28.189319,23.879652 28.7073733,23.3693673 29.3475168,23.3693673 C30.00793,23.3693673 30.5434256,23.9116343 30.5434256,24.5808757 C30.5434256,25.2286365 30.0395129,25.7532416 29.4078544,25.7861786 C29.428124,25.7871333 29.4474509,25.7919068 29.4681919,25.7919068 C30.195542,25.7919068 30.7852471,25.1947448 30.7852471,24.4581974 C30.7852471,23.7216499 30.195542,23.1244879 29.4681919,23.1244879" id="Fill-187" fill="#3CA1FF"></path>
                <path d="M29.4681919,25.4243013 C29.0637419,25.4243013 28.7356565,25.0920673 28.7356565,24.682503 C28.7356565,24.2724614 29.0637419,23.9407047 29.4681919,23.9407047 C29.8726419,23.9407047 30.2007273,24.2724614 30.2007273,24.682503 C30.2007273,25.0920673 29.8726419,25.4243013 29.4681919,25.4243013 M30.5434256,24.580828 C30.5434256,23.9120639 30.00793,23.3693196 29.3475168,23.3693196 C28.7073733,23.3693196 28.189319,23.8796042 28.1572647,24.5192501 C28.1563219,24.5402534 28.1511367,24.5598247 28.1511367,24.580828 C28.1511367,25.2495921 28.6866323,25.7923364 29.3475168,25.7923364 C29.3682579,25.7923364 29.3875847,25.7870856 29.4078544,25.7861309 C30.0395129,25.7531939 30.5434256,25.2285888 30.5434256,24.580828" id="Fill-189" fill="#0065C4"></path>
                <path d="M30.4151141,36.8559191 C30.3326214,36.2477782 30.2515428,35.6520483 30.1803634,35.0744576 C29.9295855,33.037615 30.0596883,31.3602152 30.1742353,29.8804374 C30.317537,28.0283284 30.4415117,26.4292137 29.8588774,24.621498 C29.7782703,24.3708905 29.5128794,24.2334143 29.2649298,24.3155181 C29.0169803,24.3976219 28.8821636,24.666846 28.9627708,24.9174536 C29.4869531,26.5442545 29.3700491,28.0555372 29.2342897,29.8054938 C29.1164429,31.331097 28.9820976,33.059573 29.2451316,35.1923624 C29.316311,35.7737719 29.397861,36.373798 29.4812965,36.9857577 C29.8947028,40.0288492 30.3637329,43.4776862 29.802311,46.4243534 C29.7636573,46.6281809 29.860763,46.821984 30.0271626,46.9217497 L29.8970598,48.3117861 C29.8848037,48.4425794 29.9800239,48.5590522 30.1096553,48.5714633 C30.1171975,48.572418 30.1247397,48.572418 30.1318105,48.572418 C30.2520142,48.572418 30.3547765,48.4802899 30.3660898,48.3561795 L30.5004351,46.9203177 C30.6130966,46.853489 30.701246,46.7456084 30.728115,46.6052682 C31.3187629,43.5034629 30.838891,39.9715674 30.4151141,36.8559191" id="Fill-191" fill="#1C417D"></path>
                <path d="M46.4448172,85.1530984 C40.3681675,78.3255945 39.9759735,65.0601024 39.9759735,65.0601024 L6.46884364,65.0601024 C6.46884364,65.0601024 6.07664966,78.3255945 0,85.1530984 C0,85.1530984 3.13472347,88 23.3671244,88 C43.5995253,88 46.4448172,85.1530984 46.4448172,85.1530984" id="Fill-193" fill="#D95B26"></path>
            </g>
            <g id="Group-198" transform="translate(28.000000, 105.000000)">
                <mask id="mask-12" fill="white">
                    <use xlink:href="#path-11"></use>
                </mask>
                <g id="Clip-197"></g>
                <path d="M-5.65237394,-28.1120318 L-17.6647359,-15.9542575 L-10.4235456,26.0598094 C-10.4235456,26.0598094 5.7565555,32.7651948 30.7453404,31.533257 C33.410461,31.4018687 35.0600022,28.6843724 33.8798504,26.3875936 L31.4112628,21.5834485 C29.6710874,18.1966497 26.6672814,15.5610996 22.997076,14.2005202 L17.7441123,12.2525845 C13.0497412,10.5120318 9.77069361,6.38863409 9.2598033,1.58311553 L8.62679543,-4.36827451 C8.19795287,-8.40423256 6.97582312,-12.3257408 5.02528114,-15.9249584 L-1.25661842,-27.5191818 C-2.12050483,-29.1136965 -4.36393817,-29.4163018 -5.65237394,-28.1120318" id="Fill-196" fill="#AA391B" mask="url(#mask-12)"></path>
            </g>
            <g id="Group-211" transform="translate(28.000000, 103.000000)">
                <path d="M6.98529754,0.233868706 C7.22137959,2.03355681 7.17605184,3.82761061 7.00985007,5.61696917 C6.84459263,7.40632773 6.51549425,9.1844177 6.02586007,10.9282324 C5.51922798,12.6664127 4.86197554,14.3782997 3.95683694,15.9732751 C3.03847775,17.5574513 1.88450867,19.0402103 0.437325678,20.1670695 C0.319756815,20.2586268 0.149777736,20.2379677 0.0577057349,20.1210561 C-0.0121745532,20.0327855 -0.0173683584,19.9144652 0.0355140218,19.8224384 L0.0411799911,19.8121089 C0.923182546,18.274885 1.66164721,16.7555032 2.3222048,15.1854126 C2.94168411,13.5970107 3.48703366,11.9851324 3.98327813,10.3446132 C4.46960717,8.69986823 4.87755696,7.02554322 5.28881189,5.33901056 L6.45269642,0.217904867 L6.45458508,0.209453423 C6.4871644,0.0648398208 6.63164662,-0.0257784426 6.77754533,0.00661876041 C6.89039255,0.0319730932 6.97113261,0.125878029 6.98529754,0.233868706" id="Fill-199" fill="#DF6A34"></path>
                <path d="M40.5476667,0.217810962 L41.7115512,5.33891666 C42.1228062,7.02591884 42.530756,8.69977432 43.0166128,10.3445193 C43.5128573,11.9850385 44.058679,13.5969167 44.6786305,15.1853187 C45.3382438,16.7554093 46.0771806,18.2747911 46.958711,19.8120149 L46.9643769,19.8223445 C47.0385067,19.9514638 46.993179,20.1153279 46.8633338,20.1890433 C46.7651237,20.2449167 46.6466105,20.2322395 46.5630375,20.1669756 C45.1158545,19.0401164 43.9614132,17.5573574 43.0435262,15.9731812 C42.1379154,14.3782058 41.4811351,12.6663188 40.9745031,10.9281385 C40.4848689,9.18432379 40.1557705,7.40623383 39.9900409,5.61687527 C39.8243113,3.82751671 39.7789835,2.0334629 40.0150656,0.233774801 C40.0339522,0.0868135759 40.1694633,-0.0169513786 40.3172506,0.00229913335 C40.4324587,0.0173239231 40.5212255,0.10230789 40.5457781,0.208420468 L40.5476667,0.217810962 Z" id="Fill-201" fill="#DF6A34"></path>
                <path d="M4.31228209,88.9407441 L11.499092,142.769401 C11.5425311,143.092904 11.8206357,143.334709 12.149262,143.333773 L25.6588214,143.285409 C26.0271094,143.28447 26.3212677,142.980687 26.3094636,142.614458 L24.4887988,87.2847306 C24.3032383,81.6532515 19.5112447,77.266952 13.8523579,77.5486668 C7.93519729,77.8430587 3.53273914,83.1007961 4.31228209,88.9407441" id="Fill-203" fill="#1C417D"></path>
                <path d="M10.2267986,92.8274225 L9.90525482,78.5604455 C6.12180381,80.4033299 3.71990499,84.5022803 4.31247095,88.9406972 L11.4992808,142.769354 C11.5427199,143.093326 11.8208246,143.334662 12.1489787,143.333259 L17.2729036,143.315411 L10.2267986,92.8274225 Z" id="Fill-205" fill="#001828"></path>
                <path d="M27.4132888,143.236203 C27.4132888,142.75447 27.0497225,142.350679 26.5676429,142.304196 C25.1908124,142.169912 22.2756712,142.077885 18.9015864,142.077885 C15.5275017,142.077885 12.6123605,142.169912 11.2350578,142.304196 C10.7529783,142.350679 10.3898841,142.75447 10.3898841,143.236203 L10.3898841,147.063768 C10.3898841,147.582123 10.8124709,148 11.3342123,148 L26.4689606,148 C26.9902298,148 27.4132888,147.582123 27.4132888,147.063768 L27.4132888,143.236203 Z" id="Fill-207" fill="#ACEDFB"></path>
                <path d="M17.7459176,142.081641 C14.8713825,142.099953 12.4520136,142.185876 11.2352467,142.304196 C10.7531671,142.350679 10.3896008,142.75447 10.3896008,143.236203 L10.3896008,147.063768 C10.3896008,147.582123 10.8126598,148 11.333929,148 L18.2412177,148 L17.7459176,142.081641 Z" id="Fill-209" fill="#46CFED"></path>
            </g>
        </g>
    </g>
</svg>