<?xml version="1.0" encoding="UTF-8"?>
<svg version="1.1" viewBox="0 0 420 420" xmlns="http://www.w3.org/2000/svg" xmlns:xlink="http://www.w3.org/1999/xlink">
<title>5. Elements_Illustrations/2.Vector/Boy</title>
<defs>
<path id="f" d="m0.20683 6.5432 5.4404 18.742c0.46687 1.6087 1.9341 2.7145 3.6008 2.7145 2.2899 0 4.0459-2.0447 3.7109-4.3218l-2.84-19.314c-0.36858-2.5069-2.5092-4.364-5.0307-4.364-3.3905 0-5.8312 3.2716-4.8814 6.5432z"/>
<path id="d" d="m14.216 3.6239-12.844 21.619c-2.9305 4.931-0.9959 11.309 4.182 13.79 5.224 2.5043 11.472-0.042195 13.443-5.4815 2.6826-7.4032 6.2348-17.218 8.561-23.648 1.35-3.7304-0.4905-7.8559-4.1695-9.3547-0.91231-0.3716-1.8616-0.54901-2.7974-0.54901-2.55-4.7935e-4 -5.0054 1.3181-6.3751 3.6239z"/>
<polygon id="c" points="0 0 40.441 0 40.441 30.139 0 30.139"/>
<path id="b" d="m0.46513 1.7179h-4.5073e-4c-0.88523 1.5222-0.47281 3.4631 0.95734 4.4994l0.45794 0.3323c0.30604 0.38469 0.63552 1.7797 2.2599 3.7999 0.55575 0.69057 1.3067 1.2033 2.1459 1.498l1.3666 0.47963 1.5284 0.55487 0.80229 0.10569c0.49084 0.064489 0.97988-0.12853 1.2922-0.50964l2.9207-3.5639c0.16406-0.20018 0.28937-0.42948 0.36869-0.67534l0.35833-1.1057c0.19246-0.59473 0.016677-1.2454-0.44847-1.6646l-0.72071-0.64981c-0.22086-0.19884-0.38988-0.44829-0.49355-0.72639l-0.37816-1.0197c-0.16316-0.44022-0.49264-0.79939-0.91858-1.0018l-0.78697-0.37394c-0.1839-0.087776-0.38357-0.13704-0.58685-0.1451l-3.4188-0.14196c-0.34886-0.014779-0.68736-0.12181-0.98033-0.31035l-0.84646-0.54591c-0.58279-0.37529-1.235-0.55353-1.8791-0.55353-1.1922 0-2.3564 0.61175-3 1.7179z"/>
<path id="a" d="m0.46513 1.7179h-4.5073e-4c-0.88523 1.5222-0.47281 3.4631 0.95734 4.4994l0.45794 0.3323c0.30604 0.38469 0.63552 1.7797 2.2599 3.7999 0.55575 0.69057 1.3067 1.2033 2.1459 1.498l1.3666 0.47963 1.5284 0.55487 0.80229 0.10569c0.49084 0.064489 0.97988-0.12853 1.2922-0.50964l2.9207-3.5639c0.16406-0.20018 0.28937-0.42948 0.36869-0.67534l0.35833-1.1057c0.19246-0.59473 0.016677-1.2454-0.44847-1.6646l-0.72071-0.64981c-0.22086-0.19884-0.38988-0.44829-0.49355-0.72639l-0.37816-1.0197c-0.16316-0.44022-0.49264-0.79939-0.91858-1.0018l-0.78697-0.37394c-0.1839-0.087776-0.38357-0.13704-0.58685-0.1451l-3.4188-0.14196c-0.34886-0.014779-0.68736-0.12181-0.98033-0.31035l-0.84646-0.54591c-0.58279-0.37529-1.235-0.55353-1.8791-0.55353-1.1922 0-2.3564 0.61175-3 1.7179z"/>
<path id="e" d="m6.5462 0s-0.39641 12.722-6.5462 19.27c0 0 3.1722 2.7299 23.647 2.7299 20.474 0 23.353-2.7299 23.353-2.7299-6.1493-6.5484-6.5462-19.27-6.5462-19.27"/>
</defs>
<g fill="none" fill-rule="evenodd">
<g transform="translate(144 120)">
<path d="m79.207 239.54 5.4403 18.742c0.46686 1.6087 1.9341 2.7145 3.6012 2.7145 2.2899 0 4.0453-2.0443 3.7108-4.3218l-2.8399-19.314c-0.36905-2.5069-2.5091-4.364-5.0306-4.364-3.3904 0-5.8315 3.2716-4.8817 6.5432" fill="#D76230"/>
<g transform="translate(79 233)">
<mask id="j" fill="white">
<use xlink:href="#f"/>
</mask>
<polygon points="13.161 -2.8755 13.161 19.383 0.80299 24.649 -0.99787 -3.5714" fill="#AA391B" mask="url(#j)"/>
</g>
<g transform="translate(0 35)">
<path d="m40.952 205.11 2.989 19.09c0.31054 1.9826 2.0192 3.4442 4.0267 3.4442 2.2421 0 4.063-1.8097 4.0757-4.0509l0.11036-19.323c0.017346-3.123-2.5103-5.6643-5.6351-5.6643-3.4593 0-6.1015 3.0872-5.5667 6.5032" fill="#D76230"/>
<path d="m46.519 198.61c-3.4593 0-6.102 3.0872-5.5667 6.5032l2.8062 17.922 8.3083-3.5206 0.086801-15.241c0.017812-3.123-2.5103-5.6643-5.6346-5.6643" fill="#AA391B"/>
<path d="m31.147 20.332-0.59093-0.85305c-1.442-2.0806-1.8199-4.7179-1.0197-7.1193l1.0603-3.1838c0.48678-1.4607 1.573-2.6449 2.9862-3.2554l12.069-5.2144c1.1343-0.48988 2.3604-0.73011 3.596-0.7042l5.1741 0.10881c1.1017 0.023081 2.1893 0.25766 3.203 0.69054l12.587 5.3788c1.3237 0.56525 2.3665 1.6345 2.8995 2.9713l1.4283 3.5851c1.0843 2.7198 0.60365 5.8136-1.2544 8.0765l-0.98111 1.195c-0.68093 0.8295-1.4839 1.5502-2.3816 2.1381l-13.672 8.9502c-2.4009 1.5714-5.5134 1.5361-7.8781-0.089498l-14.524-9.9842c-1.056-0.72587-1.9712-1.6378-2.7011-2.6906" fill="#AA391B"/>
<path d="m31.901 21.88c4.5945 2.6157 6.1458 8.4924 3.4395 13.033l-18.825 31.586c-2.5103 4.212-7.9605 5.5936-12.175 3.0853-4.1261-2.4551-5.553-7.7434-3.2223-11.939l17.853-32.145c2.5513-4.5931 8.363-6.2206 12.93-3.6204" fill="#D76230"/>
<path d="m25.142 37.403-14.466 15.249 2.7972 16.905c1.212-0.72964 2.2676-1.7575 3.0423-3.0575l12.688-21.289-4.0616-7.8075z" fill="#AA391B"/>
<path d="m40.431 221.28-5.5794 3.1772c-0.83408 0.47434-1.7355 0.81961-2.6733 1.0231l-6.5633 1.424c-1.1889 0.25813-2.1903 1.0551-2.7086 2.1555l-1.0414 2.2115h32.245l-0.037699-3.2346c-0.0094246-0.77486-0.22478-1.5328-0.62391-2.1969l-0.52684-0.87472c-0.20923-0.34763-0.66397-0.45361-1.0056-0.23411l-0.88026 0.56525c-0.15174 0.097976-0.32892 0.14979-0.5094 0.14979h-2.8698c-1.1027 0-2.0871-0.69102-2.4617-1.7278l-0.66067-1.8286c-0.14702-0.40698-0.22855-0.83516-0.2408-1.268l-0.013194-0.45926c-0.014608-0.50966-0.43212-0.91476-0.94199-0.91476h-1.8472c-0.24693 0-0.42929 0.22892-0.37369 0.46916 0.14184 0.61518-0.13666 1.2511-0.68564 1.5634" fill="#0080F6"/>
<path d="m53.894 235h-32.022c-0.75444 0-1.3666-0.61141-1.3666-1.3655v-0.99719c0-0.75414 0.61213-1.3655 1.3666-1.3655h32.022c0.75491 0 1.3661 0.61141 1.3661 1.3655v0.99719c0 0.75414-0.61119 1.3655-1.3661 1.3655" fill="#DFF0FF"/>
<path d="m33.948 226.06-0.46369-0.96281c-0.42505 0.15874-0.86094 0.28922-1.3053 0.38578l-6.5633 1.424c-1.1894 0.25813-2.1908 1.0551-2.7086 2.1555l-0.47312 1.0043 0.74455-0.56384c0.88874-0.67359 1.9476-1.0867 3.0578-1.1931l8.2565-0.79276c0.28321-0.02732 0.56454-0.069714 0.84303-0.12153-0.59988-0.26284-1.0966-0.73106-1.3878-1.3354" fill="#0068C9"/>
<path d="m36.1 227.13 0.18991 0.029205c0.41327-0.122 0.82089-0.26425 1.2153-0.44089l7.5529-3.3778-0.52401-1.4508c-0.14702-0.40745-0.22855-0.83563-0.2408-1.2685l-0.013194-0.45879c-0.014608-0.51014-0.43212-0.91523-0.94199-0.91523h-1.8477c-0.24645 0-0.42882 0.22893-0.37369 0.46963 0.14231 0.61471-0.13666 1.2506-0.68517 1.5629l-5.5794 3.1772c-0.30159 0.17146-0.61402 0.31984-0.93163 0.45691l0.45191 0.93925c0.32986 0.68489 0.97592 1.1621 1.7275 1.277" fill="#0068C9"/>
<path d="m52.846 227.81c-0.89864 0.56148-1.5334 1.4795-1.7412 2.5182l-0.18896 0.94396h0.48066l0.17011-0.85164c0.18237-0.91193 0.73983-1.7179 1.5291-2.2111l0.94388-0.58974c-0.018378-0.16958-0.047594-0.33632-0.085764-0.50166l-1.1079 0.69196z" fill="#1C417D"/>
<path d="m44.42 230.49c-0.63663-1.4065-1.9278-2.3858-3.4551-2.6195l-4.6751-0.71457-0.19038-0.029204c-0.75162-0.11493-1.3977-0.5921-1.7271-1.277l-0.45238-0.93878c-0.14467 0.062177-0.28887 0.12482-0.43636 0.17994l0.46369 0.96328c0.29122 0.60434 0.7879 1.0726 1.3883 1.3349 0.21912 0.096092 0.4505 0.16628 0.69271 0.20349l4.8655 0.74377c1.3685 0.20914 2.5263 1.0867 3.0969 2.3477l0.26436 0.58409h0.51694l-0.35201-0.77816z" fill="#1C417D"/>
<path d="m46.571 227.07c-0.15315-0.042393-0.303-0.1008-0.44484-0.17711-0.071627-0.037212-0.14278-0.076779-0.21064-0.122l-0.24174-0.16251c-0.32656-0.22045-0.66679-0.42299-1.0207-0.60906-0.083879-0.044278-0.18944-0.03627-0.26625 0.028262-0.10179 0.085259-0.11451 0.23693-0.029216 0.33821 0.25682 0.3057 0.52731 0.5954 0.81146 0.86766 0.071156 0.070656 0.13854 0.13472 0.21677 0.20537 0.085764 0.07725 0.17624 0.14885 0.27096 0.21574 0.19273 0.12765 0.40008 0.2374 0.62061 0.31513 0.43165 0.16863 0.95472 0.17428 1.3105 0.17947l1.1767 0.012247 1.1767-0.01366c0.17718-0.003297 0.44861-0.011305 0.66868-0.059822 0.23043-0.04522 0.45474-0.11729 0.66679-0.21432 0.42081-0.19171 0.79921-0.51249 1.0475-0.86671 0.2342-0.31654 0.45191-0.64674 0.65501-0.9906 0.048066-0.082432 0.044767-0.18936-0.016964-0.26896-0.081052-0.10457-0.23185-0.12388-0.33646-0.042393-0.31573 0.24447-0.6159 0.50213-0.90052 0.77439-0.25776 0.24447-0.51883 0.4131-0.82183 0.52709-0.14797 0.057938-0.30206 0.097976-0.45851 0.11964-0.16587 0.023081-0.28934 0.019784-0.50375 0.012718l-1.1767-0.014131-1.1767 0.012718c-0.42552 0.014602-0.70166 0.029675-1.0169-0.067359" fill="#0068C9"/>
<path d="m65.652 81.549h-8.9996c-5.8862 0-10.17 5.5832-8.6429 11.265l17.929 66.734c1.1545 4.2964 5.0507 7.2828 9.501 7.2828 6.0549 0 10.672-5.416 9.7121-11.392l-10.664-66.363c-0.69695-4.3373-4.4409-7.5268-8.8356-7.5268" fill="#1C417D"/>
<path d="m71.797 166.12-19.077-58.702 0.86 6.1263 12.359 46c0.8223 3.0622 3.0418 5.4523 5.8584 6.5762" fill="#001828"/>
<path d="m42.055 166.88c5.4894 0.13001 10.07-4.1616 10.295-9.6464l2.6709-65.115c0.23043-5.62-4.193-10.337-9.8186-10.471l-7.0336-0.16628c-5.9159-0.1399-10.675 4.8267-10.281 10.729l4.3627 65.281c0.34683 5.1932 4.5992 9.2649 9.8045 9.3878" fill="#1C417D"/>
<path d="m55.021 92.115c0.23043-5.62-4.193-10.337-9.8186-10.471l-7.0336-0.16628c-5.9159-0.1399-10.676 4.8272-10.281 10.729l4.3627 65.282c0.26813 4.0086 2.8674 7.3402 6.4314 8.7119l-0.58716-4.2318-1.4019-62.569c6.766 0 12.834-1.0339 18.136-2.586l0.19273-4.6986z" fill="#001828"/>
<path d="m80.821 213.08h12.828c0.40149 0 0.70732-0.35893 0.6437-0.75508l-9.2291-57.434c-0.76811-4.7815-4.8956-8.2974-9.7404-8.2974-6.4889 0-11.211 6.1541-9.5278 12.419l14.396 53.585c0.07634 0.28498 0.33458 0.48282 0.62957 0.48282" fill="#1C417D"/>
<path d="m66.958 151.23c-1.3868 2.2144-1.9137 4.9855-1.1625 7.7806l14.396 53.585c0.07634 0.28498 0.33458 0.48282 0.62957 0.48282h6.2363l-20.099-61.848z" fill="#001828"/>
<path d="m95.843 212.54c0-0.48329-0.36285-0.88838-0.84398-0.93501-1.3741-0.13472-4.2835-0.22704-7.6509-0.22704-3.3674 0-6.2768 0.092324-7.6514 0.22704-0.48113 0.046633-0.84351 0.45173-0.84351 0.93501v3.8399c0 0.52003 0.42175 0.93925 0.94246 0.93925h15.105c0.52024 0 0.94246-0.41922 0.94246-0.93925v-3.8399z" fill="#ACEDFB"/>
<path d="m85.005 211.39c-2.3387 0.031559-4.2656 0.10928-5.3084 0.2115-0.48113 0.046633-0.84351 0.45173-0.84351 0.93501v3.8399c0 0.52003 0.42175 0.93925 0.94246 0.93925h6.601l-1.3915-5.9257z" fill="#46CFED"/>
<path d="m26.578 106.53 0.20499-7.7543-1.9113-4.0863c-0.97828-2.0909-1.3195-4.4235-0.98158-6.7071l2.5593-17.295c0.38924-2.6279 0.30018-5.3044-0.26201-7.9008l-3.9263-18.128c-0.21253-0.98259-0.55841-1.9317-1.0278-2.8206l-2.4796-4.6972c-3.849-7.2917 0.7158-16.191 8.886-17.322l23.014-3.1861c1.0311-0.13425 2.0777-0.10174 3.0984 0.096563l22.175 4.7928c7.8342 1.6929 11.783 10.491 7.8394 17.467l-3.1412 5.5559c-0.80958 1.4315-1.2893 3.0255-1.4047 4.6657l-1.0706 15.248c-0.11781 1.6793-0.043353 3.3665 0.22242 5.0288l2.8887 18.069c0.31007 1.9416 0.12912 3.9299-0.52731 5.7834l-1.9749 5.5785 0.4227 7.0618c0.022619 0.37824-0.18048 0.73435-0.52165 0.90016-1.892 0.91994-9.0137 3.6166-27.491 3.6166-17.797 0-22.859-2.2544-24.177-3.1616-0.26578-0.18324-0.4227-0.48329-0.41374-0.80595" fill="#D76230"/>
<path d="m21.392 22.684 3.7816 0.1611c3.2091 0.13613 6.3437 1.0076 9.1626 2.5464l15.292 8.3487c1.728 0.94349 3.8636 0.69431 5.3278-0.62177l14.47-13.003-15.675-3.3882c-1.0207-0.19831-2.0668-0.23081-3.0984-0.096092l-23.014 3.1861c-2.4514 0.33915-4.5747 1.3816-6.2471 2.8663" fill="#AA391B"/>
<path d="m59.987 101.11c1.6964-0.87613 2.5324-3.0165 1.6083-4.8903l-2.4386-4.9426c-1.7191-3.4852-4.6864-6.1965-8.3121-7.5969l-5.1892-2.0038c-4.6374-1.7914-7.8766-6.034-8.3813-10.978l-0.62533-6.1235c-0.42364-4.1527-1.6309-8.1876-3.5578-11.891l-6.2057-11.929c-0.8534-1.6406-3.0696-1.952-4.3424-0.61047l-1.4151 1.4923 0.10603 0.20066c0.46935 0.88885 0.81523 1.838 1.0278 2.8206l3.9258 18.128c0.56265 2.5964 0.65124 5.2728 0.26248 7.9008l-2.5593 17.295c-0.33787 2.2836 0.0032987 4.6162 0.98111 6.7071l1.3539 2.8941c9.3935 3.6826 23.24 3.9916 33.761 3.5286" fill="#AA391B"/>
<path d="m77.272 39.596-1.778 27.651c-0.17294 2.6835 1.2247 5.2097 3.5597 6.5032l-0.68187-4.2648c-0.26578-1.6623-0.34023-3.3496-0.22242-5.0288l1.0706-15.247c0.11498-1.6406 0.59517-3.2346 1.4047-4.6661l0.17011-0.30147-3.5229-4.6454z" fill="#AA391B"/>
<path d="m55.857 107.21c11.571-3.5752 19.013-7.3628 19.013-7.3628s-6.3466 0.8832-14.882 1.2591c-10.522 0.46303-24.368 0.15403-33.761-3.5286l0.55794 1.1922-0.20546 7.7543c-0.0084822 0.32266 0.14844 0.62272 0.41421 0.80595 1.0975 0.75602 4.8047 2.4471 16.313 2.9897 3.1328-0.56431 7.388-1.5144 12.552-3.1098" fill="#AA391B"/>
<path d="m110.17 62.141c2.6314-7.2724 6.1157-16.915 8.3974-23.231 1.3242-3.6647-0.48113-7.7175-4.0898-9.19-3.3335-1.3599-7.1608-0.075366-8.9972 3.0203l-12.599 21.238c-2.8736 4.8446-0.97639 11.11 4.1025 13.548 5.1247 2.4602 11.253-0.041452 13.186-5.3854" fill="#D76230"/>
</g>
<g transform="translate(91 64)">
<mask id="i" fill="white">
<use xlink:href="#d"/>
</mask>
<path d="m-11.771 45.361-4.686-4.9957 1.8092-28.094c0.036992-0.57586 0.77106-0.79642 1.1208-0.33612l16.082 21.175c1.8924 2.4909 4.5952 4.2454 7.6439 4.9612l4.3362 1.0184-14.058 5.6339-12.248 0.63771z" fill="#AA391B" mask="url(#i)"/>
</g>
<path d="m118.09 71.019c0.20921-0.55537 0.41983-1.1154 0.62244-1.6543 0.81374-2.1631-0.24313-4.58-2.3837-5.4534l-2.3225-0.94823c-1.9686-0.80314-4.2284-0.036271-5.3009 1.7994l-0.82646 1.4146c-1.4621 2.5018-0.45234 5.7181 2.1778 6.9358 0.45517 0.21103 0.91599 0.42442 1.3702 0.63451 2.592 1.1998 5.6571-0.055584 6.6631-2.7283" fill="#AA391B"/>
<path d="m125.4 55.597c-1.5832 2.4561-2.673 4.2413-4.5978 6.6178-0.39627 0.48895-1.9196 2.9723-3.1584 5.0214-0.96358 1.5936-3.0109 2.1442-4.6454 1.2516-1.3674-0.74662-2.0713-2.3096-1.7236-3.8273 0.2747-1.1988 0.38166-2.5611-0.21015-3.3996-0.48061-0.6802-1.17-2.2756-1.2505-4.1509-0.076803-1.7843-1.0752-4.5631-0.3157-5.6347 0.17057-0.24024 0.26339-0.34622 0.55789-0.36554 1.2562-0.081963 0.99279 2.5639 2.5364 2.4424 0.54045-0.042395 0.98054-0.45315 1.1549-0.9666 0.86557-2.555 1.8659-5.0647 2.9949-7.5152 0.19978-0.4329 0.7162-0.67502 1.1483-0.47388 0.33454 0.15639 0.3614 0.47953 0.37271 0.77582 0.03581 0.96942-0.88913 4.0656-0.1178 4.4425 1.0272 0.50167 1.5954-0.81162 2.1962-1.5389 0.60736-0.73578 2.0662-2.9926 3.0736-2.5498 1.0069 0.44326-0.85285 3.9658-0.85285 3.9658s1.2232-1.5121 1.8932-1.9633c0.57862-0.39003 1.2976-0.40228 1.643 0.092797 0.24172 0.34622-0.15832 0.97461-0.35009 1.4683-0.46412 1.1913-1.2717 2.4382-1.4871 3.6982-0.054187 0.31843 0.66579-0.19737 0.99562-0.4833 0.59417-0.5158 1.2958-1.0387 1.6812-0.43054 0.32889 0.51957-0.77982 2.3463-1.5384 3.523" fill="#EACBAC"/>
<path d="m112.35 60.426c-0.82081-0.8771-1.3721-1.9718-1.5888-3.1527l-0.89667-4.8905c-0.046647-0.46917 0.1456-0.92562 0.50276-1.2238-0.092353-0.034387-0.19177-0.056526-0.30768-0.048989-0.29449 0.019313-0.38684 0.1253-0.55742 0.36601-0.75955 1.0712 0.23889 3.8499 0.31522 5.6342 0.080573 1.8753 0.76992 3.4707 1.2505 4.1509 0.59181 0.83847 0.48532 2.2008 0.21062 3.3996-0.20638 0.90065-0.035339 1.8135 0.41794 2.5658l1.1893-4.727c0.18565-0.7372-0.016021-1.5182-0.53574-2.0736" fill="#E99462"/>
<path d="m116.74 45.07c-1.129 2.4504-2.1293 4.9597-2.9953 7.5152-0.17387 0.51345-0.61396 0.9242-1.1549 0.9666-0.069265 0.0056526-0.13099-9.421e-4 -0.19319-0.0061237l0.43161 0.28781c0.37318 0.24872 0.646 0.62132 0.76992 1.0523 0.039109 0.13519 0.079631 0.27745 0.11874 0.41311 0.063611 0.22045 0.36706 0.24212 0.46176 0.033445l0.2535-0.55631c0.03581-0.079608 0.065966-0.16157 0.089525-0.24589l2.8186-9.9717c-0.25491 0.071129-0.48297 0.25672-0.60029 0.51156" fill="#E99462"/>
<path d="m118.4 58.206 0.036753-0.0047105c0.078217-0.0098921 0.14937-0.059352 0.18376-0.1366 0.052301-0.11776-9.43e-4 -0.25625-0.11874-0.30854-0.35339-0.15686-0.76615-0.25955-1.1817-0.20585-0.41229 0.04051-0.82081 0.18559-1.1629 0.40793-0.34632 0.2181-0.63328 0.50402-0.86463 0.81822-0.22523 0.32314-0.39957 0.65759-0.4825 1.0608-0.018376 0.093268 0.008481 0.19549 0.081044 0.26709 0.11497 0.11305 0.29968 0.11164 0.41276-0.0032973l0.022617-0.02261 0.68558-0.69716c0.22334-0.22469 0.45564-0.42442 0.69265-0.60389 0.24172-0.1757 0.49946-0.30006 0.77557-0.40228 0.278-0.11023 0.58144-0.12671 0.91976-0.16911" fill="#E99462"/>
<path d="m69.583 59.797c-3.9721 3.4947-4.2968 9.5694-0.72045 13.468l24.859 27.094c3.3129 3.6106 8.9252 3.8565 12.542 0.54972 3.5457-3.2422 3.8694-8.7159 0.73034-12.353l-24.022-27.839c-3.4307-3.9757-9.4464-4.3888-13.389-0.92043" fill="#D76230"/>
<path d="m101.58 101.58c-2.9902-0.70328-5.6411-2.4269-7.4971-4.8744l-15.773-20.802c-0.34302-0.45174-1.063-0.23505-1.0993 0.33068l-0.36847 5.7341 16.876 18.394c2.7748 3.0242 7.1592 3.6784 10.637 1.8705l-2.7744-0.65241z" fill="#AA391B"/>
<path d="m51.411 35.426c-3.549 0-6.5943 2.6143-7.0344 6.1345-0.278 2.2252-0.77934 4.5329-1.5158 6.6305-1.2166 3.4651-3.3742 5.7953-3.3742 5.7953s-1.2279 6.5844 11.789 6.5844c13.017 0 12.98-5.2598 12.98-5.2598s-4.3882-3.9422-4.4899-11.289c-0.017434-1.2662-0.032041-2.351-0.04382-3.2795-0.038166-2.9445-3.4566-5.3163-7.6601-5.3163h-0.65024z" fill="#EACBAC"/>
<path d="m57.496 37.013c-1.3886-0.97932-3.3101-1.5865-5.4347-1.5865h-0.65024c-3.5485 0-6.5938 2.6143-7.0339 6.1345-0.278 2.2252-0.77981 4.5334-1.5163 6.6305-1.2161 3.4651-3.3737 5.7958-3.3737 5.7958s-0.44386 2.4057 2.0779 4.3092c1.7085-0.55772 3.4199-1.3109 5.1176-2.2997 8.9568-5.2169 10.004-14.565 10.004-14.565 0.20025-0.92891 0.48108-2.481 0.8095-4.4185" fill="#E99462"/>
<path d="m54.205 9.2296c7.5282-0.094681 13.596 6.5584 13.475 14.775l-0.007539 0.53747c0.067851 0.42536 0.099892 10.39-2.3088 14.226-2.8135 4.4806-5.1604 6.0474-10.138 7.9867-1.8786 0.73201-3.9603 0.76734-5.8616 0.097036-5.0643-1.7862-7.7633-2.9916-10.184-7.7667-2.0252-3.9936-2.3691-13.729-2.3013-14.156l-0.0070678-0.53747c-0.11544-8.2147 5.9558-15.019 13.484-15.114l3.8487-0.048518z" fill="#EACBAC"/>
<path d="m37.961 22.31c-0.31852-0.4588-0.57391-0.87521-0.7817-1.2685-0.21298 1.0801-0.32229 2.2008-0.30627 3.3501l0.007539 0.53747c-0.068322 0.42724 0.27564 10.163 2.3008 14.157 2.421 4.775 5.1199 5.9805 10.184 7.7662 1.2095 0.42677 2.4921 0.56479 3.7488 0.42253-12.314-2.7345-13.344-14.419-12.375-19.717 0.17622-0.96471 0.29496-1.9266 0.36988-2.8635-0.88819-0.36554-2.256-1.0975-3.1475-2.3835" fill="#E99462"/>
<path d="m47.57 21.602c0.15973 0.38061 0.69689 0.3547 0.83589-0.033445 2.4497-6.8397 9.6805-9.8445 10.859-11.326-1.5625-0.67172-3.2691-1.0349-5.0601-1.0128l-3.8487 0.048518c-6.4741 0.081492-11.867 5.1279-13.178 11.764 0.20779 0.39333 0.46318 0.80974 0.78123 1.2685 0.89196 1.286 2.2593 2.018 3.1475 2.3835 0.0094237 0.0037684 0.020732 0.0089499 0.029685 0.012718 0.33784 0.13802 0.68463-0.16581 0.59181-0.51863-0.34208-1.2959-0.7817-3.9446 0.40098-6.4134-0.23088 3.0849 1.6039 4.2395 2.7711 4.6601 0.40475 0.14555 0.81374-0.19737 0.74165-0.62132-0.23041-1.3604-0.43161-3.9799 1.1558-5.0445-0.23559 1.961 0.32041 3.7595 0.77133 4.833" fill="#E99462"/>
<path d="m38.105 30.027c0.5249 3.1014 0.029685 5.2899-1.8631 5.8373-2.2052 0.6378-4.0041-2.2431-4.5225-4.6644-0.94332-4.4067 0.80337-7.0686 2.6085-6.8877 3.4015 0.3401 3.3643 3.2738 3.777 5.7148" fill="#EACBAC"/>
<path d="m34.328 24.312c-1.8051-0.18041-3.5518 2.4815-2.6085 6.8882 0.050417 0.23553 0.11638 0.47529 0.18989 0.716 0.058427-0.11305 0.10649-0.29017 0.139-0.54925 0.36564-2.8989 1.2053-4.1994 1.9446-4.2263 2.2023-0.079137 3.679 4.4995 1.6176 7.9895-0.28978 0.49036-0.072563 0.74096 0.39203 0.78053 0.079631-0.014132 0.15879-0.023082 0.23936-0.046634 1.8928-0.54689 2.3875-2.7359 1.8631-5.8373-0.41323-2.441-0.37601-5.3742-3.777-5.7148" fill="#E99462"/>
<path d="m66.449 30.027c-0.5249 3.1014-0.029214 5.2899 1.8631 5.8373 2.2056 0.6378 4.0041-2.2431 4.5225-4.6644 0.94332-4.4067-0.80337-7.0686-2.6085-6.8877-3.401 0.3401-3.3638 3.2738-3.777 5.7148" fill="#EACBAC"/>
<path d="m66.456 29.981c0.60171 0.12012 1.1252-0.11258 1.2901-0.83423 0.4448-1.9459 0.92164-3.5894 1.635-4.6719-2.5274 0.71364-2.5571 3.2988-2.9251 5.5061" fill="#E99462"/>
<path d="m46.383 29.388c0.25962-0.19313 0.43019-0.49979 0.43019-0.84836v-1.2714c0-0.58552-0.47496-1.0599-1.0602-1.0599-0.58569 0-1.0602 0.47435-1.0602 1.0599v1.2714c0 0.24777 0.088583 0.47294 0.23088 0.65335 0.14984-0.03156 0.30439-0.049932 0.46318-0.049932 0.35999 0 0.695 0.093268 0.99609 0.24495" fill="#1C417D"/>
<path d="m58.041 29.245c0.16821-0.18748 0.27376-0.4329 0.27376-0.70516v-1.2718c0-0.58505-0.47449-1.0599-1.0602-1.0599s-1.0602 0.47482-1.0602 1.0599v1.2718c0 0.30948 0.13523 0.58552 0.34679 0.77912 0.26669-0.11305 0.56024-0.1757 0.86887-0.1757 0.22052 0 0.42972 0.041924 0.63092 0.10175" fill="#1C417D"/>
<path d="m60.792 24.764c-0.14513 0.14744-0.37318 0.17523-0.54846 0.065947l-1.4357-0.89264c-0.28507-0.17759-0.60736-0.28734-0.9419-0.32079l-2.2622-0.22705c-0.33784-0.034387-0.51265-0.42065-0.31522-0.69668l0.29496-0.41217c0.099892-0.13943 0.2714-0.20868 0.44009-0.17759l2.3437 0.43431c0.35528 0.066418 0.68935 0.21857 0.97206 0.4442l1.4131 1.1282c0.2045 0.16345 0.22287 0.46775 0.03958 0.65429" fill="#00547A"/>
<path d="m42.005 24.764c0.14513 0.14744 0.37318 0.17523 0.54893 0.065947l1.4352-0.89264c0.28554-0.17759 0.60736-0.28734 0.9419-0.32079l2.2626-0.22705c0.33784-0.034387 0.51265-0.42065 0.31475-0.69668l-0.29496-0.41217c-0.099892-0.13943-0.27093-0.20868-0.43962-0.17759l-2.3442 0.43431c-0.35528 0.066418-0.68935 0.21857-0.97206 0.4442l-1.4131 1.1282c-0.2045 0.16345-0.22287 0.46775-0.03958 0.65429" fill="#00547A"/>
<path d="m51.084 26.254c-0.096122 0.75651-0.2012 1.5116-0.32229 2.2634-0.12581 0.75086-0.23182 1.5055-0.37365 2.2535l-0.076332 0.42112c-0.0037695 0.036742-0.0094237 0.06265-0.0098949 0.09421-0.0047119 0.12012 0.022146 0.24023 0.082929 0.34481 0.056542 0.10599 0.14842 0.19078 0.24973 0.24919 0.052773 0.026379 0.10696 0.049931 0.16492 0.061708 0.029214 0.008479 0.057956 0.008479 0.089054 0.014603l0.1423 0.014132c0.18989 0.016016 0.37836 0.04051 0.56731 0.063592l0.23889 0.031089c0.059841 0.0051815 0.12062-0.0014132 0.18141-0.011776 0.12204-0.021197 0.24313-0.074426 0.34962-0.1578 0.11968-0.10504 0.27282-0.25719 0.42313-0.37166l0.0042407-0.0032974c0.094237-0.072071 0.22853-0.0537 0.30015 0.040039 0.050417 0.066418 0.056071 0.15262 0.022617 0.22281-0.088112 0.18277-0.16727 0.33162-0.28978 0.52051-0.1456 0.20255-0.35904 0.35941-0.60171 0.44703-0.12157 0.044279-0.25067 0.067831-0.38119 0.073955-0.061254 0.0032974-0.13853 4.711e-4 -0.18753-0.0028263l-0.1423-0.012247c-0.18989-0.016487-0.37978-0.032503-0.56825-0.056526l-0.14183-0.016958c-0.062197-0.010363-0.12911-0.017429-0.19177-0.0358-0.12816-0.030618-0.24973-0.083376-0.36423-0.14744-0.2257-0.13425-0.41606-0.32691-0.53621-0.5582-0.12439-0.2294-0.17952-0.49555-0.16162-0.7551 0.0028271-0.063121 0.01602-0.13142 0.024973-0.18889l0.028271-0.1399 0.056542-0.2798c0.1456-0.74709 0.32653-1.4876 0.48768-2.2314 0.16633-0.74332 0.34774-1.4838 0.53857-2.2219 0.028271-0.10834 0.13853-0.17335 0.24643-0.14508 0.099892 0.025437 0.16256 0.12153 0.14984 0.22092" fill="#E99462"/>
<path d="m52.682 36.019c0.70772-0.014132 1.3985-0.22187 1.9969-0.60012l0.3826-0.24259c0.89243-0.56432 1.9922 0.32785 1.6228 1.3171l-0.33973 0.9096c-0.12722 0.34104-0.41464 0.59729-0.76851 0.68444l-2.1854 0.53982c-0.38072 0.093739-0.78311-0.021668-1.0559-0.30336l-0.42265-0.43525c-0.6705-0.69197-0.19366-1.8503 0.76992-1.8696" fill="#fff"/>
<path d="m58.968 30.67h0.69265c0.27517 0 0.49804 0.22281 0.49804 0.4979v0.12954c0 0.27509-0.22287 0.49837-0.49804 0.49837h-0.69265c-0.2747 0-0.49804-0.22328-0.49804-0.49837v-0.12954c0-0.27509 0.22334-0.4979 0.49804-0.4979" fill="#FC95A4"/>
<path d="m57.064 31.911h0.69265c0.27517 0 0.49804 0.22328 0.49804 0.49837v0.12954c0 0.27509-0.22287 0.4979-0.49804 0.4979h-0.69265c-0.27517 0-0.49804-0.22281-0.49804-0.4979v-0.12954c0-0.27509 0.22287-0.49837 0.49804-0.49837" fill="#FC95A4"/>
<path d="m55.159 30.67h0.69265c0.27517 0 0.49804 0.22281 0.49804 0.4979v0.12954c0 0.27509-0.22287 0.49837-0.49804 0.49837h-0.69265c-0.27517 0-0.49804-0.22328-0.49804-0.49837v-0.12954c0-0.27509 0.22287-0.4979 0.49804-0.4979" fill="#FC95A4"/>
<path d="m46.945 30.67h0.69265c0.27517 0 0.49804 0.22281 0.49804 0.4979v0.12954c0 0.27509-0.22287 0.49837-0.49804 0.49837h-0.69265c-0.2747 0-0.49804-0.22328-0.49804-0.49837v-0.12954c0-0.27509 0.22334-0.4979 0.49804-0.4979" fill="#FC95A4"/>
<path d="m45.041 31.911h0.69265c0.27517 0 0.49804 0.22328 0.49804 0.49837v0.12954c0 0.27509-0.22287 0.4979-0.49804 0.4979h-0.69265c-0.27517 0-0.49804-0.22281-0.49804-0.4979v-0.12954c0-0.27509 0.22287-0.49837 0.49804-0.49837" fill="#FC95A4"/>
<path d="m43.136 30.67h0.69265c0.27517 0 0.49804 0.22281 0.49804 0.4979v0.12954c0 0.27509-0.22287 0.49837-0.49804 0.49837h-0.69265c-0.27517 0-0.49804-0.22328-0.49804-0.49837v-0.12954c0-0.27509 0.22287-0.4979 0.49804-0.4979" fill="#FC95A4"/>
<g transform="translate(32.056)">
<mask id="h" fill="white">
<use xlink:href="#c"/>
</mask>
<path d="m39.084 11.758c-0.55412-1.0608-1.7198-2.3868-2.9044-3.319 0.069736-0.070658 0.14513-0.13849 0.22994-0.20067 0.19413-0.12718 0.42171-0.23929 0.6771-0.30901 0.12628-0.041453 0.26104-0.056055 0.39674-0.086673l0.4203-0.038626 0.030627-0.0023553c0.091882-0.00895 0.17434-0.071129 0.20355-0.16534 0.03958-0.12436-0.030156-0.25719-0.15455-0.29629l-0.45564-0.14367c-0.15785-0.029676-0.31758-0.074426-0.48438-0.090442-0.33266-0.043808-0.68511-0.034387-1.047 0.029676-0.081515 0.017429-0.16303 0.038626-0.24455 0.06265 0.029685-0.13519 0.061254-0.27085 0.080102-0.4051 0.053715-0.38862 0.053244-0.77111 0.030156-1.1418-0.026858-0.37166-0.090468-0.73154-0.16727-1.0815-0.021203-0.095623-0.10036-0.1724-0.20308-0.18559-0.13052-0.016016-0.24926 0.07631-0.26575 0.20679l-9.424e-4 0.0098921c-0.042407 0.3368-0.097536 0.66512-0.18471 0.97932-0.085285 0.2977-0.18847 0.58222-0.32135 0.84224-2.2509-3.5574-6.5099-6.4223-14.395-6.4223-9.5222 0-13.833 3.9201-15.709 8.1737-1.2991 0.93033-2.6471 2.4184-3.2559 3.5842-1.7952 3.4377-1.5205 6.4906-0.82316 8.5472 0.61961 1.8267 1.3712 3.9978 1.3712 3.9978s0.56731-0.029676 1.3047 0.1936c2.1241 0.64393 2.5067 4.0454 2.5755 5.248 0.013193 0.23317 0.21251 0.40887 0.44527 0.3938l0.35198-0.02261c0.21863-0.014603 0.38967-0.19454 0.39203-0.41405l0.081987-7.5071s2.9859-3.3581 3.7214-9.7979c2.3941-1.2346 5.4026-2.1569 9.0628-2.1569 4.0117 0 7.3194 1.2667 9.9138 2.8833 0.86651 5.9659 3.6281 9.0715 3.6281 9.0715l0.081987 7.5071c0.0023559 0.21951 0.1734 0.39945 0.3925 0.41405l0.35151 0.02261c0.23277 0.015074 0.43255-0.16063 0.44574-0.3938 0.068793-1.2026 0.4514-4.6041 2.575-5.248 0.73741-0.22328 1.3047-0.1936 1.3047-0.1936s0.75201-2.1711 1.3716-3.9978c0.69736-2.0566 0.97159-5.1095-0.82316-8.5472" fill="#0297B8" mask="url(#h)"/>
</g>
<path d="m41.727 2.4518c-2.5425 1.5158-4.1102 3.5758-5.0568 5.7214-1.2991 0.9308-2.6471 2.4188-3.2559 3.5847-1.7952 3.4377-1.5205 6.4906-0.82316 8.5472 0.61961 1.8267 1.3712 3.9978 1.3712 3.9978s0.56778-0.029676 1.3052 0.1936c2.1236 0.64393 2.5062 4.0454 2.575 5.248 0.013193 0.23317 0.21298 0.40887 0.44574 0.3938l0.35151-0.02261c0.2191-0.014603 0.38967-0.19502 0.3925-0.41405l0.081987-7.5071s0.64081-0.72872 1.4008-2.1395c-0.3548-3.5871-0.94803-7.265-1.5309-10.105-0.82128-4.0025 0.64081-5.6818 2.7428-7.4977" fill="#00547A"/>
<path d="m68.462 21.252s-9.8662-5.1189-10.359-9.2364c-0.04759-0.051345-2.9101 7.8746-9.6306 10.598-0.23748 0.096094-0.507-0.034858-0.5838-0.27933-0.37271-1.1922-1.3108-4.531-1.006-7.0658-1.6426 1.1018-1.211 4.6497-0.89243 6.355 0.070678 0.37778-0.34161 0.66607-0.66579 0.4588-1.2402-0.79137-3.3492-2.6214-3.1108-5.8076-1.1813 2.4655-0.744 5.1109-0.40239 6.4087 0.093295 0.3547-0.25538 0.65994-0.59464 0.52145-0.88725-0.36224-2.273-1.0971-3.173-2.3944-1.1643-1.6798-1.5559-2.8164-1.4098-4.1773 0.41135-3.8367 2.0143-6.3884 4.1841-7.8058 7.9927-5.2235 15.254-3.2771 18.034-2.4118 3.5565 1.1074 5.5892 3.1617 6.3158 3.7901 4.1125 3.5546 3.2945 11.046 3.2945 11.046" fill="#0297B8"/>
<path d="m42.327 12.926c3.0867-4.3148 3.745-6.0572 3.2064-6.4478-1.5219 0.53794-3.1032 1.2954-4.7152 2.3487-2.1698 1.4179-3.7723 3.97-4.1841 7.8063-0.14607 1.3609 0.24549 2.4975 1.4103 4.1773 0.8995 1.2973 2.2853 2.0321 3.1725 2.3944 0.29591 0.12106 0.59888-0.095623 0.60972-0.38815-0.76804-1.6991-2.0219-5.6752 0.5004-9.8907" fill="#00547A"/>
<path d="m45.99 21.623c-0.0051831-0.029205-0.010837-0.06265-0.016492-0.092797-2.641-3.1659-2.1194-9.4531-2.1194-9.4531-1.0602 1.4819-1.529 2.9558-1.6784 4.2837 0.013664-0.028734 0.024031-0.057468 0.037695-0.086202-0.23842 3.1862 1.8706 5.0158 3.1108 5.8076 0.32418 0.20726 0.73647-0.081021 0.66579-0.45928" fill="#00547A"/>
<path d="m50.474 9.6492s-2.788 1.1979-3.728 5.7313c0.045705-0.037213 0.086698-0.079137 0.13617-0.11211-0.30486 2.5347 0.63328 5.8731 1.0065 7.0658 0.076332 0.24448 0.34585 0.37543 0.58333 0.27933 0.0023559-9.421e-4 0.0042407-0.0018842 0.0065966-0.0028263 0.16444-1.0768 0.01979-4.3233 1.2119-6.5 2.7032-4.9343 1.4498-5.8349 0.78358-6.4614" fill="#00547A"/>
<path d="m67.904 22.154c0.38072-4.5574-1.1144-9.0776-4.097-12.112-1.4786-1.522-3.3044-2.6539-5.2994-3.3605-1.9978-0.70469-4.1422-1.0321-6.3205-1.0561-2.1769-0.020726-4.3354 0.2652-6.3243 0.96613-1.9936 0.68821-3.8006 1.8305-5.2504 3.369-2.9152 3.0811-4.3222 7.6461-3.9518 12.194v0.0051815c0.014136 0.16817-0.1112 0.3156-0.27941 0.32879-0.14465 0.011776-0.27423-0.079608-0.31617-0.21339-1.4211-4.557-0.56024-9.9745 2.6415-13.966 1.586-1.993 3.7638-3.5258 6.132-4.4463 1.1846-0.46493 2.4139-0.78195 3.6498-0.99769 1.2397-0.20067 2.4822-0.27651 3.7196-0.2742 2.4723 0.035853 4.9852 0.44425 7.3402 1.3812 2.3517 0.9308 4.5107 2.4433 6.1268 4.3973 1.6284 1.9459 2.69 4.2969 3.1744 6.7082 0.46129 2.417 0.37224 4.9168-0.34962 7.1977-0.051359 0.1611-0.22287 0.25013-0.38355 0.19925-0.13853-0.044279-0.22381-0.17759-0.21203-0.31655v-0.0037684z" fill="#1C417D"/>
<path d="m37.604 36.828 0.03157-0.0080079c0.47967-0.11682 0.80432-0.56008 0.76568-1.0523-0.073034-0.93551-0.23936-2.8663-0.61631-6.8048-0.27046-2.8296-0.34397-4.5508-0.33596-5.5975 0.0070678-0.84883-0.73835-1.5088-1.5818-1.4103-3.4279 0.39992-5.8828 3.5027-5.4823 6.9301l0.28742 2.4617c0.40004 3.4274 3.5037 5.8811 6.9316 5.4812" fill="#1C417D"/>
<path d="m66.96 36.828-0.03157-0.0080079c-0.47967-0.11682-0.80432-0.56008-0.76568-1.0523 0.073034-0.93551 0.23936-2.8663 0.61631-6.8048 0.27046-2.8296 0.34444-4.5508 0.33596-5.5975-0.0070678-0.84883 0.73835-1.5088 1.5818-1.4103 3.4279 0.39992 5.8828 3.5027 5.4827 6.9301l-0.2879 2.4617c-0.40004 3.4274-3.5033 5.8811-6.9316 5.4812" fill="#1C417D"/>
<path d="m36.111 36.442c-0.6672-1.2888-1.1473-3.6087-1.4263-6.8948-0.28507-3.3572-0.22146-5.7506 0.19036-7.1133 0.032512-0.10834 0.081987-0.2115 0.13947-0.31184-0.19931 0.051816-0.39485 0.11258-0.58521 0.18324-0.42737 1.4202-0.4971 3.8697-0.20732 7.281 0.2846 3.3473 0.78123 5.7256 1.4767 7.0691 0.01979 0.039097 0.050417 0.077252 0.074448 0.11588 0.21486 0.038155 0.43349 0.064063 0.65401 0.080079-0.13099-0.13237-0.24407-0.26991-0.31617-0.40934" fill="#0068C9"/>
<path d="m31.153 29.775c-0.16727-1.7575-0.12439-3.3327-0.14371-4.417-0.53056 1.0537-0.7718 2.2681-0.62432 3.5272l0.28695 2.4622c0.13287 1.1352 0.56684 2.1598 1.2062 3.0133-0.18235-1.1074-0.54988-2.7495-0.72516-4.5857" fill="#0068C9"/>
<path d="m69.689 22.434c0.41182 1.3637 0.4759 3.7571 0.19036 7.1138-0.27894 3.2861-0.75908 5.6055-1.4263 6.8943-0.072563 0.1399-0.18565 0.27745-0.31711 0.40934 0.22099-0.015545 0.43962-0.041452 0.65495-0.080079 0.024031-0.038626 0.054187-0.076781 0.074448-0.11588 0.69547-1.3434 1.1921-3.7213 1.4767-7.0686 0.28978-3.4114 0.22004-5.8608-0.20732-7.2815-0.19036-0.070187-0.3859-0.13095-0.58521-0.18324 0.057485 0.10033 0.10696 0.20349 0.13947 0.31184" fill="#0068C9"/>
<path d="m73.411 29.775c-0.17528 1.8362-0.54281 3.4782-0.72516 4.5857 0.6394-0.85355 1.0734-1.8781 1.2062-3.0133l0.28742-2.4622c0.14701-1.2591-0.094237-2.4735-0.62479-3.5272-0.019319 1.0844 0.023559 2.6596-0.14371 4.417" fill="#0068C9"/>
<path d="m85.074 255.58 0.047119 0.62885c0.03958 0.52993-0.31287 1.0099-0.8307 1.1315-0.42313 0.099863-0.76144 0.41547-0.89007 0.83046l-0.50888 1.6435c-0.10225 0.33021-0.27517 0.63404-0.50747 0.89029l-0.43349 0.47906c-0.3124 0.34481-0.4726 0.80079-0.44527 1.2652l0.25962 4.3911 16.97 0.080078-0.6493-4.8872c-0.075861-0.57092-0.43019-1.0669-0.94614-1.3237l-1.2157-0.60483c-0.34067-0.16958-0.63516-0.41829-0.85945-0.72589l-1.2246-1.6769c-0.15832-0.21715-0.38355-0.3759-0.64176-0.45268l-0.70678-0.20915c-0.42548-0.12577-0.73081-0.49978-0.76945-0.9421l-0.07539-0.8705c-0.03581-0.40934-0.38826-0.71788-0.79913-0.69904l-5.0436 0.22893c-0.43161 0.019784-0.76191 0.39192-0.72987 0.82293" fill="#0080F6"/>
<path d="m98.855 270h-17.001c-0.54375 0-0.98478-0.4409-0.98478-0.98497v-1.7584c0-0.54406 0.44103-0.98497 0.98478-0.98497h17.001c0.54375 0 0.98478 0.4409 0.98478 0.98497v1.7584c0 0.54406-0.44103 0.98497-0.98478 0.98497" fill="#EAFBFF"/>
<path d="m84.276 261.22 1.3829 0.53182c0.17811 0.068302 0.36093 0.10222 0.556 0.096566l0.65024-0.014603c0.13052-0.070187 0.25821-0.14791 0.37789-0.23694l5.8724-4.3723-0.62432-0.18512c-0.42595-0.12624-0.73128-0.49978-0.76945-0.9421l-0.075861-0.8705c-0.03581-0.40934-0.38826-0.71788-0.79866-0.69951l-5.0436 0.2294c-0.43208 0.019784-0.76191 0.39192-0.73034 0.82293l0.047119 0.62885c0.03958 0.52993-0.31287 1.0099-0.83023 1.1315-0.42313 0.099392-0.76191 0.41547-0.89054 0.83046l-0.50841 1.6435c-0.10225 0.33021-0.27564 0.63404-0.50794 0.89029l-0.43349 0.47906c-0.31193 0.34481-0.47213 0.80079-0.4448 1.2648l0.042878 0.73248 0.84013-1.3331c0.39768-0.63121 1.1912-0.89406 1.888-0.62744" fill="#0068C9"/>
<path d="m82.787 262.1-1.1907 1.8908 0.14136 2.4028 0.89101-2.5164c0.35575-1.0062 1.3075-1.6793 2.3757-1.6798h0.43349c0.017434 0 0.034397-0.004239 0.051831-0.004239l-1.3829-0.53182c-0.48579-0.18701-1.0418-0.003298-1.3198 0.43855" fill="#0068C9"/>
<path d="m98.127 262.35-0.26622-0.43808c-0.40004-0.65853-1.2364-0.92986-1.9469-0.63074l-0.62998 0.26473c-0.16916 0.0716-0.34821 0.10976-0.53244 0.114l-7.8858 0.17947-0.65024 0.014603c-0.19554 0.005652-0.37836-0.028263-0.55647-0.096566l-1.3829-0.53182c-0.69689-0.26709-1.4904-0.004239-1.888 0.62697l-0.83966 1.3335 0.048061 0.8088 1.1907-1.8908c0.278-0.44185 0.83353-0.62603 1.3198-0.43902l1.3829 0.53182c0.23606 0.090913 0.48438 0.13237 0.73599 0.12813l8.5365-0.19407c0.24313-0.005653 0.48061-0.056055 0.70442-0.15074l0.62998-0.26473c0.4971-0.21009 1.0818-0.019784 1.3617 0.44043l0.82316 1.3557-0.15455-1.1616z" fill="#1C417D"/>
<path d="m4.7623 105.34c5.6354 3.2008 12.759 7.249 17.404 9.8883 2.6716 1.5187 6.067 0.58458 7.588-2.0849l1.5978-2.8046c1.2878-2.2596 0.83871-5.109-1.0814-6.8637l-14.508-13.258c-4.285-3.9158-11.059-3.0571-14.231 1.8037l-4.7119e-4 0.0014132c-2.9633 4.5409-1.4838 10.639 3.2319 13.318" fill="#D76230"/>
<path d="m26.86 115.88c0.52349 0.28028 1.0507 0.56196 1.5592 0.83376 2.0384 1.09 4.5738 0.35988 5.7207-1.6473l1.2439-2.1777c1.055-1.8456 0.59087-4.1858-1.0889-5.4892l-1.2939-1.0048c-2.2895-1.7773-5.6114-1.1984-7.1639 1.2488-0.26858 0.42348-0.54045 0.8526-0.80856 1.2751-1.5299 2.4113-0.68699 5.614 1.8315 6.9612" fill="#AA391B"/>
<path d="m30.802 116.17c0.32041 0.4051 0.66437 1.872 2.363 3.9969 0.58097 0.72683 1.3655 1.2662 2.2433 1.5761l1.4282 0.5045 1.5978 0.58363 0.83871 0.1107c0.51312 0.068303 1.0244-0.13519 1.3509-0.53606l3.0533-3.7486c0.17151-0.21056 0.3025-0.45174 0.3859-0.71082l0.37412-1.1626c0.2012-0.62508 0.017905-1.31-0.46883-1.7509l-0.75343-0.68302c-0.23088-0.20962-0.40758-0.47152-0.51548-0.76404l-0.39533-1.0731c-0.17104-0.46304-0.51548-0.84083-0.96075-1.0537l-0.82269-0.39333c-0.19224-0.091855-0.40098-0.14414-0.61349-0.15262l-3.5735-0.14932c-0.3647-0.015073-0.71903-0.12813-1.0253-0.32644l-0.88489-0.57374c-1.7373-1.1258-4.064-0.56762-5.1006 1.2243-0.92635 1.6011-0.49475 3.6431 0.99986 4.7327l0.4792 0.34952z" fill="#EACBAC"/>
<g transform="translate(30 109)">
<mask id="g" fill="white">
<use xlink:href="#b"/>
</mask>
<path d="m14.104 4.5541-2.4069-1.2584c-0.030649-0.015674-0.064905-0.023735-0.10006-0.02284l-1.1205 0.026422c-0.20643 0.0049262-0.27584 0.27587-0.097357 0.37842l1.9377 1.1093 0.98844 0.49128c0.31145 0.1545 0.57468 0.39141 0.76038 0.68474l0.16902 0.26736c0.24745 0.39141 0.34931 0.85627 0.28711 1.3144l-0.24204 1.7837 1.7871-2.4748-1.9629-2.2996z" fill="#E99462" mask="url(#g)"/>
<mask id="l" fill="white">
<use xlink:href="#a"/>
</mask>
<path d="m-0.032648 2.2447 1.862 1.1536c0.95734 0.59339 1.7146 1.4582 2.1725 2.4833l0.35382 0.79088c0.059496 0.13256 0.12846 0.26064 0.20598 0.3838l1.1796 1.867c0.53907 0.85358 1.2485 1.588 2.0842 2.159l1.523 1.0403c0.41737 0.28527 0.92714 0.40664 1.4293 0.33991l0.83159-0.11017-1.29 1.7797-8.0234-2.3847-1.5762-4.0574-2.5078-2.8115 1.7556-2.6337z" fill="#E99462" mask="url(#l)"/>
</g>
<g transform="translate(28 39)">
<path d="m23.999 29.44-11.822-15.249s4.5621 3.2603 11.566 3.2603c7.0039 0 12.079-3.2603 12.079-3.2603l-11.822 15.249z" fill="#3CA1FF"/>
<path d="m42.099 1.3299-1.787-0.7733 0.45017 1.3246c0.40351 1.1886 0.1697 2.5037-0.61705 3.4756l-15.308 18.904c-0.34977 0.432-1.0022 0.43439-1.3543 0.0042962l-15.528-18.948c-0.77779-0.94944-1.0253-2.2345-0.65664-3.4102l0.59772-1.9065-2.4375 1.0669c-1.4142 0.61912-2.5007 1.8192-2.9877 3.2989l-1.0606 3.2269c-0.80042 2.4335-0.42236 5.1062 1.0201 7.2146l0.59112 0.864c0.73018 1.0673 1.6456 1.991 2.702 2.7271l15.5 10.794c1.7776 1.2378 4.118 1.265 5.923 0.067783l14.663-9.724c0.89799-0.59525 1.7012-1.3261 2.3824-2.1662l0.98143-1.2115c1.8587-2.2932 2.3395-5.4284 1.2553-8.1846l-1.4292-3.6331c-0.53314-1.3542-1.5763-2.4378-2.9004-3.0111" fill="#D76230"/>
<path d="m5.9279 14.646c1.4849 1.6841 3.4784 2.2622 4.0535 1.7328 0.76789-0.70695-4.7313-4.5167-7.8387-11.014l-0.73254 2.2278c-0.0018856 0.0052508-0.0032997 0.010979-0.0047139 0.01623 0.97341 3.0536 1.7154 4.4393-0.38041 3.2106 0.11172 1.4129 0.58688 2.7915 1.4052 3.9878l0.59112 0.86448c0.73018 1.0669 1.6456 1.991 2.702 2.7266l5.182 3.6087c-0.16687-0.73989-0.80843-1.7581-2.0953-2.7094-0.67173-0.49692-2.0816-1.1943-3.6928-3.7395-0.67361-1.065-1.1577-3.1448 0.81079-0.91221" fill="#AA391B"/>
<path d="m46.428 7.9743-0.52088-1.3251c-2.1495 4.8952-7.1924 8.3693-8.9498 9.4648-0.26963 0.1685-0.19893 0.51744 0.11879 0.57568 5.0688 0.9251 9.6455-8.3875 8.5835-3.7882-0.41718 1.8063-2.3272 3.318-3.5684 4.1324-0.33044 0.21672-0.10041 0.64394 0.3031 0.56518 0.65617-0.12888 1.4971-0.40956 2.4135-0.99002l0.36485-0.45014c1.8587-2.2932 2.3395-5.4284 1.2553-8.1846" fill="#AA391B"/>
<path d="m19.999 24.537c0-0.80385-0.64391-1.4554-1.4377-1.4554-0.79382 0-1.4373 0.65158-1.4373 1.4554 0 0.50122 0.25031 0.94324 0.63119 1.2048 0.20175 3.594 0.19233 6.2876-0.025926 9.3517-0.039596 0.56184-0.086735 1.1409-0.13435 1.7323-0.25408 3.1462-0.5421 6.7129 0.041011 9.8219 0.038182 0.20287 0.1994 0.34417 0.38937 0.3752l0.38748 1.3428c0.030169 0.10454 0.12397 0.17185 0.22627 0.17185 0.021684 0 0.043839-0.0028641 0.065994-0.009547 0.12492-0.036756 0.19657-0.16946 0.16027-0.29596l-0.39879-1.3824c0.080607-0.10502 0.12209-0.23963 0.095692-0.37997-0.55954-2.982-0.27718-6.48-0.027812-9.566 0.048082-0.5943 0.09522-1.1767 0.13529-1.7418 0.21542-3.025 0.23004-5.6909 0.042425-9.1846 0.72216-0.07733 1.2869-0.68834 1.2869-1.4402" fill="#AA391B"/>
<path d="m18.861 23.124c-0.72735 0-1.3171 0.59716-1.3171 1.3337 0 0.021003 0.0051852 0.040574 0.006128 0.0611 0.032054-0.63965 0.55011-1.1499 1.1903-1.1499 0.66041 0 1.1959 0.54227 1.1959 1.2115 0 0.64776-0.50391 1.1724-1.1356 1.2053 0.02027 9.547e-4 0.039596 0.0057282 0.060338 0.0057282 0.72735 0 1.3171-0.59716 1.3171-1.3337 0-0.73655-0.58971-1.3337-1.3171-1.3337" fill="#3CA1FF"/>
<path d="m18.861 25.424c-0.40445 0-0.73254-0.33223-0.73254-0.7418 0-0.41004 0.32809-0.7418 0.73254-0.7418 0.40445 0 0.73254 0.33176 0.73254 0.7418 0 0.40956-0.32809 0.7418-0.73254 0.7418m1.0752-0.84347c0-0.66876-0.5355-1.2115-1.1959-1.2115-0.64014 0-1.1582 0.51028-1.1903 1.1499-9.428e-4 0.021003-0.006128 0.040575-0.006128 0.061578 0 0.66876 0.5355 1.2115 1.1964 1.2115 0.020741 0 0.040068-0.0052508 0.060338-0.0062055 0.63166-0.032937 1.1356-0.55754 1.1356-1.2053" fill="#0068C9"/>
<path d="m20.114 48.215-0.43462-1.3714c0.07825-0.10645 0.11596-0.24249 0.085792-0.38236-0.63732-2.9658-0.4464-6.47-0.27812-9.5618 0.032526-0.59573 0.06458-1.179 0.089564-1.7447 0.15226-3.3815 0.066937-6.3058-0.3031-10.429-0.023569-0.26254-0.25078-0.45205-0.51193-0.43248-0.25926 0.023867-0.45065 0.25634-0.42708 0.51888 0.3658 4.0765 0.45017 6.964 0.30027 10.299-0.024984 0.56327-0.056566 1.1432-0.089092 1.7356-0.17158 3.1524-0.36627 6.7249 0.29839 9.8171 0.042896 0.20192 0.20835 0.33892 0.39879 0.36517l0.42236 1.3318c0.032054 0.1012 0.12492 0.16564 0.22438 0.16564 0.023569 0 0.048082-0.0038188 0.072122-0.011456 0.1235-0.040575 0.19185-0.17471 0.15226-0.30025" fill="#1C417D"/>
<path d="m30.606 24.537c0-0.80385-0.64391-1.4554-1.4377-1.4554s-1.4373 0.65158-1.4373 1.4554c0 0.44584 0.20222 0.83965 0.51381 1.107 0.22627 1.3657 0.069294 2.6703-0.1136 4.1439-0.18808 1.5184-0.40162 3.2388-0.23711 5.3816 0.044782 0.58427 0.09852 1.1872 0.1532 1.8029 0.2734 3.0588 0.58311 6.5258-0.1136 9.4434-0.048082 0.20096 0.040539 0.39954 0.20175 0.50694l-0.19374 1.3824c-0.017913 0.13032 0.071651 0.25108 0.20034 0.2697 0.011313 0.0019094 0.022155 0.0023868 0.033468 0.0023868 0.11549 0 0.21637-0.085923 0.23287-0.20478l0.19987-1.4277c0.11596-0.061578 0.20882-0.16564 0.24182-0.30455 0.73348-3.0708 0.41623-6.6208 0.13623-9.7536-0.05421-0.61148-0.10795-1.2106-0.15226-1.7905-0.15697-2.0464 0.049967-3.7162 0.23239-5.1888 0.17111-1.3795 0.32431-2.6183 0.18196-3.9224 0.7561-0.042961 1.3576-0.67163 1.3576-1.4478" fill="#AA391B"/>
<path d="m29.468 23.124c-0.72735 0-1.3171 0.59716-1.3171 1.3337 0 0.021003 0.0051852 0.040574 0.006128 0.0611 0.032054-0.63965 0.55011-1.1499 1.1903-1.1499 0.66041 0 1.1959 0.54227 1.1959 1.2115 0 0.64776-0.50391 1.1724-1.1356 1.2053 0.02027 9.547e-4 0.039596 0.0057282 0.060338 0.0057282 0.72735 0 1.3171-0.59716 1.3171-1.3337 0-0.73655-0.58971-1.3337-1.3171-1.3337" fill="#3CA1FF"/>
<path d="m29.468 25.424c-0.40445 0-0.73254-0.33223-0.73254-0.7418 0-0.41004 0.32809-0.7418 0.73254-0.7418s0.73254 0.33176 0.73254 0.7418c0 0.40956-0.32809 0.7418-0.73254 0.7418m1.0752-0.84347c0-0.66876-0.5355-1.2115-1.1959-1.2115-0.64014 0-1.1582 0.51028-1.1903 1.1499-9.428e-4 0.021003-0.006128 0.040575-0.006128 0.061578 0 0.66876 0.5355 1.2115 1.1964 1.2115 0.020741 0 0.040068-0.0052508 0.060338-0.0062055 0.63166-0.032937 1.1356-0.55754 1.1356-1.2053" fill="#0068C9"/>
<path d="m30.415 36.856c-0.082493-0.60814-0.16357-1.2039-0.23475-1.7815-0.25078-2.0368-0.12068-3.7142-0.0061281-5.194 0.1433-1.8521 0.26728-3.4512-0.31536-5.2589-0.080607-0.25061-0.346-0.38808-0.59395-0.30598-0.24795 0.082104-0.38277 0.35133-0.30216 0.60194 0.52418 1.6268 0.40728 3.1381 0.27152 4.888-0.11785 1.5256-0.25219 3.2541 0.010842 5.3869 0.071179 0.58141 0.15273 1.1814 0.23616 1.7934 0.41341 3.0431 0.88244 6.4919 0.32101 9.4386-0.038654 0.20383 0.058452 0.39763 0.22485 0.4974l-0.1301 1.39c-0.012256 0.13079 0.082964 0.24727 0.2126 0.25968 0.0075422 9.547e-4 0.015084 9.547e-4 0.022155 9.547e-4 0.1202 0 0.22297-0.092128 0.23428-0.21624l0.13435-1.4359c0.11266-0.066829 0.20081-0.17471 0.22768-0.31505 0.59065-3.1018 0.11078-6.6337-0.313-9.7493" fill="#1C417D"/>
<path d="m46.445 85.153c-6.0766-6.8275-6.4688-20.093-6.4688-20.093h-33.507s-0.39219 13.265-6.4688 20.093c0 0 3.1347 2.8469 23.367 2.8469 20.232 0 23.078-2.8469 23.078-2.8469" fill="#D76230"/>
</g>
<g transform="translate(28 105)">
<mask id="k" fill="white">
<use xlink:href="#e"/>
</mask>
<path d="m-5.6524-28.112-12.012 12.158 7.2412 42.014s16.18 6.7054 41.169 5.4734c2.6651-0.13139 4.3147-2.8489 3.1345-5.1457l-2.4686-4.8041c-1.7402-3.3868-4.744-6.0223-8.4142-7.3829l-5.253-1.9479c-4.6944-1.7406-7.9734-5.864-8.4843-10.669l-0.63301-5.9514c-0.42884-4.036-1.651-7.9575-3.6015-11.557l-6.2819-11.594c-0.86389-1.5945-3.1073-1.8971-4.3958-0.59285" fill="#AA391B" mask="url(#k)"/>
</g>
<g transform="translate(28 103)">
<path d="m6.9853 0.23387c0.23608 1.7997 0.19075 3.5937 0.024553 5.3831-0.16526 1.7894-0.49436 3.5674-0.98399 5.3113-0.50663 1.7382-1.1639 3.4501-2.069 5.045-0.91836 1.5842-2.0723 3.0669-3.5195 4.1938-0.11757 0.091557-0.28755 0.070898-0.37962-0.046013-0.06988-0.088271-0.075074-0.20659-0.022192-0.29862l0.005666-0.01033c0.882-1.5372 1.6205-3.0566 2.281-4.6267 0.61948-1.5884 1.1648-3.2003 1.6611-4.8408 0.48633-1.6447 0.89428-3.3191 1.3055-5.0056l1.1639-5.1211 0.0018887-0.0084514c0.032579-0.14461 0.17706-0.23523 0.32296-0.20283 0.11285 0.025354 0.19359 0.11926 0.20775 0.22725" fill="#D9642E"/>
<path d="m40.548 0.21781 1.1639 5.1211c0.41126 1.687 0.8192 3.3609 1.3051 5.0056 0.49624 1.6405 1.0421 3.2524 1.662 4.8408 0.65961 1.5701 1.3986 3.0895 2.2801 4.6267l0.0056659 0.01033c0.07413 0.12912 0.028802 0.29298-0.10104 0.3667-0.09821 0.055873-0.21672 0.043196-0.3003-0.022068-1.4472-1.1269-2.6016-2.6096-3.5195-4.1938-0.90561-1.595-1.5624-3.3069-2.069-5.045-0.48963-1.7438-0.81873-3.5219-0.98446-5.3113s-0.21106-3.5834 0.025025-5.3831c0.018887-0.14696 0.1544-0.25073 0.30218-0.23148 0.11521 0.015025 0.20397 0.10001 0.22853 0.20612l0.0018886 0.0093905z" fill="#D9642E"/>
<path d="m4.3123 88.941 7.1868 53.829c0.043439 0.3235 0.32154 0.56531 0.65017 0.56437l13.51-0.048364c0.36829-9.39e-4 0.66245-0.30472 0.65064-0.67095l-1.8207-55.33c-0.18556-5.6315-4.9776-10.018-10.636-9.7361-5.9172 0.29439-10.32 5.5521-9.5401 11.392" fill="#1C417D"/>
<path d="m10.227 92.827-0.32154-14.267c-3.7835 1.8429-6.1853 5.9418-5.5928 10.38l7.1868 53.829c0.043439 0.32397 0.32154 0.56531 0.6497 0.5639l5.1239-0.017848-7.0461-50.488z" fill="#001828"/>
<path d="m27.413 143.24c0-0.48173-0.36357-0.88552-0.84565-0.93201-1.3768-0.13428-4.292-0.22631-7.6661-0.22631-3.3741 0-6.2892 0.092027-7.6665 0.22631-0.48208 0.046483-0.84517 0.45027-0.84517 0.93201v3.8276c0 0.51836 0.42259 0.93623 0.94433 0.93623h15.135c0.52127 0 0.94433-0.41788 0.94433-0.93623v-3.8276z" fill="#ACEDFB"/>
<path d="m17.746 142.08c-2.8745 0.018312-5.2939 0.10424-6.5107 0.22256-0.48208 0.046483-0.84565 0.45027-0.84565 0.93201v3.8276c0 0.51836 0.42306 0.93623 0.94433 0.93623h6.9073l-0.4953-5.9184z" fill="#46CFED"/>
</g>
</g>
</g>
</svg>
