<svg viewBox="0 0 420 420" xmlns="http://www.w3.org/2000/svg" xmlns:xlink="http://www.w3.org/1999/xlink"><defs><path id="a" d="m.207 6.543 5.44 18.742A3.754 3.754 0 0 0 9.248 28c2.29 0 4.046-2.045 3.71-4.322l-2.84-19.314A5.094 5.094 0 0 0 5.089 0C1.698 0-.743 3.272.207 6.543z"/><path id="c" d="M14.216 3.624 1.372 25.243c-2.93 4.93-.996 11.309 4.182 13.79 5.224 2.504 11.472-.042 13.443-5.482 2.683-7.403 6.235-17.218 8.561-23.648 1.35-3.73-.49-7.855-4.17-9.354a7.41 7.41 0 0 0-9.172 3.075z"/><path id="e" d="M0 0h40.441v30.139H0z"/><path id="g" d="M.465 1.718a3.425 3.425 0 0 0 .957 4.5l.458.332c.306.384.635 1.78 2.26 3.8a4.78 4.78 0 0 0 2.146 1.497l1.366.48 1.529.555.802.106c.49.064.98-.129 1.292-.51l2.92-3.564c.165-.2.29-.43.37-.675l.358-1.106a1.583 1.583 0 0 0-.449-1.664l-.72-.65a1.844 1.844 0 0 1-.494-.727l-.378-1.02c-.163-.44-.493-.799-.919-1.001l-.786-.374a1.5 1.5 0 0 0-.587-.145L7.17 1.41a1.965 1.965 0 0 1-.98-.31L5.345.553A3.46 3.46 0 0 0 3.465 0a3.463 3.463 0 0 0-3 1.718z"/><path id="i" d="M.465 1.718a3.425 3.425 0 0 0 .957 4.5l.458.332c.306.384.635 1.78 2.26 3.8a4.78 4.78 0 0 0 2.146 1.497l1.366.48 1.529.555.802.106c.49.064.98-.129 1.292-.51l2.92-3.564c.165-.2.29-.43.37-.675l.358-1.106a1.583 1.583 0 0 0-.449-1.664l-.72-.65a1.844 1.844 0 0 1-.494-.727l-.378-1.02c-.163-.44-.493-.799-.919-1.001l-.786-.374a1.5 1.5 0 0 0-.587-.145L7.17 1.41a1.965 1.965 0 0 1-.98-.31L5.345.553A3.46 3.46 0 0 0 3.465 0a3.463 3.463 0 0 0-3 1.718z"/><path id="k" d="M6.546 0S6.15 12.722 0 19.27c0 0 3.172 2.73 23.647 2.73C44.121 22 47 19.27 47 19.27 40.85 12.722 40.454 0 40.454 0"/></defs><g fill="none" fill-rule="evenodd"><path d="m223.207 359.54 5.44 18.742a3.754 3.754 0 0 0 3.602 2.715c2.29 0 4.045-2.045 3.71-4.322l-2.84-19.314a5.094 5.094 0 0 0-5.03-4.364c-3.39 0-5.832 3.271-4.882 6.543" fill="#D76230"/><g transform="translate(223 353)"><mask id="b" fill="#fff"><use xlink:href="#a"/></mask><path fill="#AA391B" mask="url(#b)" d="M13.161-2.876v22.259L.803 24.649l-1.8-28.22z"/></g><path d="m184.952 360.11 2.989 19.09a4.076 4.076 0 0 0 8.102-.607l.11-19.323a5.634 5.634 0 0 0-5.634-5.664c-3.46 0-6.102 3.087-5.567 6.503" fill="#D76230"/><path d="M190.519 353.61c-3.46 0-6.102 3.087-5.567 6.503l2.807 17.922 8.308-3.52.087-15.241a5.634 5.634 0 0 0-5.635-5.665M175.147 175.332l-.59-.853a8.037 8.037 0 0 1-1.02-7.12l1.06-3.183a5.41 5.41 0 0 1 2.986-3.256l12.069-5.214a8.613 8.613 0 0 1 3.596-.704l5.174.109a8.617 8.617 0 0 1 3.203.69l12.587 5.379a5.408 5.408 0 0 1 2.9 2.971l1.428 3.585a8.037 8.037 0 0 1-1.255 8.077l-.98 1.195a10.58 10.58 0 0 1-2.382 2.138l-13.672 8.95a7.071 7.071 0 0 1-7.878-.09l-14.524-9.983a10.58 10.58 0 0 1-2.702-2.691" fill="#AA391B"/><path d="M175.901 176.88c4.595 2.616 6.146 8.492 3.44 13.033l-18.825 31.586a8.884 8.884 0 0 1-12.175 3.085 8.876 8.876 0 0 1-3.223-11.939l17.853-32.145c2.552-4.593 8.363-6.22 12.93-3.62" fill="#D76230"/><path d="m169.142 192.403-14.466 15.249 2.797 16.905a8.837 8.837 0 0 0 3.042-3.058l12.689-21.289-4.062-7.807z" fill="#AA391B"/><path d="m184.431 376.28-5.58 3.177a9.47 9.47 0 0 1-2.673 1.023l-6.563 1.424a3.912 3.912 0 0 0-2.709 2.156l-1.041 2.211h32.245l-.038-3.234a4.367 4.367 0 0 0-.624-2.197l-.526-.875a.72.72 0 0 0-1.006-.234l-.88.565a.94.94 0 0 1-.51.15h-2.87a2.617 2.617 0 0 1-2.461-1.728l-.66-1.828a4.072 4.072 0 0 1-.242-1.268l-.013-.46a.942.942 0 0 0-.942-.914h-1.847a.383.383 0 0 0-.374.469 1.43 1.43 0 0 1-.685 1.563" fill="#0080F6"/><path d="M197.894 390h-32.022a1.366 1.366 0 0 1-1.367-1.365v-.998c0-.754.613-1.365 1.367-1.365h32.022c.755 0 1.366.611 1.366 1.365v.998c0 .754-.611 1.365-1.366 1.365" fill="#DFF0FF"/><path d="m177.948 381.06-.464-.963c-.425.159-.86.29-1.305.386l-6.563 1.424a3.91 3.91 0 0 0-2.709 2.155l-.473 1.005.745-.564a6.012 6.012 0 0 1 3.057-1.193l8.257-.793a9.71 9.71 0 0 0 .843-.121 2.773 2.773 0 0 1-1.388-1.336M180.1 382.13l.19.03a9.65 9.65 0 0 0 1.215-.442l7.553-3.377-.524-1.451a4.078 4.078 0 0 1-.24-1.269l-.014-.459a.942.942 0 0 0-.942-.915h-1.848a.384.384 0 0 0-.373.47 1.429 1.429 0 0 1-.685 1.563l-5.58 3.177a9.47 9.47 0 0 1-.931.457l.451.94c.33.684.976 1.161 1.728 1.276" fill="#0068C9"/><path d="M196.846 382.81a3.879 3.879 0 0 0-1.741 2.518l-.19.944h.482l.17-.851a3.405 3.405 0 0 1 1.529-2.212l.944-.59a4.273 4.273 0 0 0-.086-.501l-1.108.692zM188.42 385.49a4.531 4.531 0 0 0-3.455-2.62l-4.675-.714-.19-.03a2.301 2.301 0 0 1-1.728-1.276l-.452-.94c-.145.063-.289.126-.436.18l.463.964a2.77 2.77 0 0 0 1.389 1.335c.219.096.45.166.692.204l4.866.743a4.06 4.06 0 0 1 3.097 2.348l.264.584h.517l-.352-.778z" fill="#1C417D"/><path d="M190.571 382.07a2.148 2.148 0 0 1-.445-.177 2.241 2.241 0 0 1-.21-.122l-.242-.163c-.327-.22-.667-.423-1.02-.609a.24.24 0 0 0-.296.367 10.999 10.999 0 0 0 1.028 1.073c.086.077.176.149.27.216.194.127.4.237.621.315.432.168.955.174 1.31.18l1.178.011 1.176-.013c.177-.004.449-.012.669-.06.23-.045.455-.117.667-.214.42-.192.799-.513 1.047-.867.234-.317.452-.647.655-.99a.24.24 0 0 0-.353-.311c-.316.243-.616.501-.9.773a2.39 2.39 0 0 1-.822.527 2.017 2.017 0 0 1-.459.12c-.166.023-.29.02-.504.013l-1.176-.014-1.177.012c-.426.015-.702.03-1.017-.067" fill="#0068C9"/><path d="M209.652 236.549h-9c-5.886 0-10.17 5.583-8.642 11.265l17.929 66.734a9.837 9.837 0 0 0 9.5 7.283c6.055 0 10.673-5.416 9.713-11.392l-10.664-66.363a8.948 8.948 0 0 0-8.836-7.527" fill="#1C417D"/><path d="m215.797 321.12-19.077-58.702.86 6.126 12.359 46a9.826 9.826 0 0 0 5.858 6.577" fill="#001828"/><path d="M186.055 321.88c5.49.13 10.07-4.162 10.295-9.646l2.67-65.115c.231-5.62-4.192-10.337-9.818-10.471l-7.033-.167c-5.916-.14-10.675 4.827-10.281 10.73l4.362 65.28a10.063 10.063 0 0 0 9.805 9.388" fill="#1C417D"/><path d="M199.021 247.115c.23-5.62-4.193-10.337-9.819-10.471l-7.033-.166c-5.916-.14-10.676 4.827-10.281 10.729l4.362 65.282c.269 4.008 2.868 7.34 6.432 8.712l-.587-4.232-1.402-62.57a64.339 64.339 0 0 0 18.136-2.585l.193-4.699z" fill="#001828"/><path d="M224.821 368.08h12.828a.652.652 0 0 0 .644-.755l-9.23-57.434a9.863 9.863 0 0 0-9.74-8.297c-6.489 0-11.21 6.154-9.528 12.419l14.396 53.585a.652.652 0 0 0 .63.482" fill="#1C417D"/><path d="M210.958 306.23a9.783 9.783 0 0 0-1.163 7.78l14.397 53.586a.652.652 0 0 0 .63.482h6.235l-20.099-61.848z" fill="#001828"/><path d="M239.843 367.54a.936.936 0 0 0-.844-.935c-1.374-.135-4.283-.227-7.65-.227-3.368 0-6.278.092-7.652.227a.935.935 0 0 0-.844.935v3.84c0 .52.422.94.943.94H238.9a.94.94 0 0 0 .942-.94v-3.84z" fill="#ACEDFB"/><path d="M229.005 366.39c-2.339.032-4.266.11-5.308.211a.935.935 0 0 0-.844.936v3.84c0 .52.422.939.943.939h6.6l-1.39-5.926z" fill="#46CFED"/><path d="m170.578 261.53.205-7.754-1.911-4.087a11.763 11.763 0 0 1-.982-6.707l2.56-17.295c.389-2.628.3-5.304-.263-7.9l-3.926-18.129a11.038 11.038 0 0 0-1.028-2.82l-2.48-4.697c-3.848-7.292.716-16.191 8.887-17.322l23.014-3.186a9.69 9.69 0 0 1 3.098.096l22.175 4.793c7.834 1.693 11.783 10.491 7.84 17.467l-3.142 5.556a11.054 11.054 0 0 0-1.404 4.666l-1.071 15.248a22.07 22.07 0 0 0 .222 5.028l2.89 18.07c.31 1.941.128 3.93-.528 5.783l-1.975 5.578.423 7.062a.935.935 0 0 1-.522.9c-1.892.92-9.014 3.617-27.491 3.617-17.797 0-22.859-2.255-24.177-3.162a.946.946 0 0 1-.414-.806" fill="#D76230"/><path d="m165.392 177.684 3.782.161a20.978 20.978 0 0 1 9.162 2.547l15.292 8.348a4.642 4.642 0 0 0 5.328-.622l14.47-13.003-15.675-3.388a9.675 9.675 0 0 0-3.098-.096l-23.014 3.186a11.777 11.777 0 0 0-6.248 2.867M203.987 256.11c1.696-.876 2.532-3.017 1.608-4.89l-2.438-4.943a15.491 15.491 0 0 0-8.312-7.597l-5.19-2.004a13.208 13.208 0 0 1-8.38-10.978l-.626-6.123a33.024 33.024 0 0 0-3.558-11.891l-6.206-11.93a2.693 2.693 0 0 0-4.342-.61l-1.415 1.493.106.2c.47.89.815 1.838 1.028 2.821l3.925 18.128a22.06 22.06 0 0 1 .263 7.9l-2.56 17.296a11.767 11.767 0 0 0 .982 6.707l1.354 2.894c9.393 3.683 23.24 3.992 33.76 3.529M221.272 194.596l-1.778 27.651a6.927 6.927 0 0 0 3.56 6.503l-.682-4.265a22.07 22.07 0 0 1-.223-5.028l1.071-15.247c.115-1.641.595-3.235 1.405-4.666l.17-.302-3.523-4.645z" fill="#AA391B"/><path d="M199.857 262.21c11.571-3.575 19.013-7.363 19.013-7.363s-6.347.883-14.882 1.26c-10.522.462-24.368.153-33.761-3.53l.558 1.193-.206 7.754a.947.947 0 0 0 .415.806c1.097.756 4.804 2.447 16.313 2.99 3.132-.564 7.388-1.515 12.552-3.11" fill="#AA391B"/><path d="M254.17 217.141c2.631-7.272 6.116-16.915 8.397-23.231a7.26 7.26 0 0 0-4.09-9.19 7.269 7.269 0 0 0-8.997 3.02l-12.599 21.238c-2.873 4.845-.976 11.11 4.103 13.548 5.125 2.46 11.253-.041 13.186-5.385" fill="#D76230"/><g transform="translate(235 184)"><mask id="d" fill="#fff"><use xlink:href="#c"/></mask><path d="m-11.771 45.361-4.686-4.996 1.81-28.094c.036-.576.77-.796 1.12-.336L2.555 33.11a13.464 13.464 0 0 0 7.644 4.961l4.336 1.019L.477 44.724l-12.248.637z" fill="#AA391B" mask="url(#d)"/></g><path d="M262.09 191.019c.21-.555.42-1.115.622-1.654a4.267 4.267 0 0 0-2.383-5.454l-2.323-.948a4.27 4.27 0 0 0-5.3 1.8l-.827 1.414a4.911 4.911 0 0 0 2.178 6.936l1.37.634a4.914 4.914 0 0 0 6.663-2.728" fill="#AA391B"/><path d="M269.4 175.597c-1.583 2.456-2.673 4.241-4.598 6.618-.396.489-1.92 2.972-3.158 5.021a3.479 3.479 0 0 1-6.37-2.576c.275-1.198.382-2.56-.21-3.4-.48-.68-1.17-2.275-1.25-4.15-.077-1.784-1.075-4.563-.316-5.635.171-.24.264-.346.558-.365 1.257-.082.993 2.564 2.537 2.442.54-.042.98-.453 1.155-.966a77.032 77.032 0 0 1 2.995-7.516c.2-.433.716-.675 1.148-.474.334.157.361.48.373.776.035.97-.89 4.066-.118 4.443 1.027.501 1.595-.812 2.196-1.54.607-.735 2.066-2.992 3.074-2.549 1.006.443-.853 3.966-.853 3.966s1.223-1.512 1.893-1.963c.579-.39 1.297-.403 1.643.092.242.347-.158.975-.35 1.469-.464 1.191-1.272 2.438-1.487 3.698-.054.318.665-.197.995-.483.594-.516 1.296-1.04 1.682-.43.328.519-.78 2.345-1.539 3.522" fill="#EACBAC"/><path d="M256.35 180.426a6.27 6.27 0 0 1-1.589-3.153l-.896-4.89c-.047-.47.145-.926.502-1.224a.725.725 0 0 0-.307-.049c-.295.02-.387.125-.558.366-.76 1.071.24 3.85.315 5.634.081 1.876.77 3.47 1.25 4.151.593.839.486 2.2.212 3.4-.207.9-.036 1.813.417 2.566l1.19-4.727a2.236 2.236 0 0 0-.536-2.074M260.74 165.07a77.083 77.083 0 0 0-2.995 7.515c-.174.514-.614.924-1.155.967-.07.005-.131-.001-.193-.006l.431.287c.373.25.646.622.77 1.053.04.135.08.277.119.413.063.22.367.242.462.033l.253-.556c.036-.08.066-.162.09-.246l2.818-9.972a.948.948 0 0 0-.6.512M262.4 178.206l.037-.005a.233.233 0 0 0 .065-.445c-.354-.157-.766-.26-1.182-.206-.412.04-.82.186-1.163.408a3.201 3.201 0 0 0-.864.818c-.226.324-.4.658-.483 1.061a.292.292 0 0 0 .494.264l.022-.023.686-.697c.223-.224.456-.424.693-.604.241-.175.5-.3.775-.402.278-.11.582-.127.92-.169" fill="#E99462"/><path d="M213.583 179.797c-3.972 3.495-4.297 9.57-.72 13.468l24.859 27.094a8.886 8.886 0 0 0 12.542.55 8.878 8.878 0 0 0 .73-12.353l-24.022-27.84c-3.43-3.975-9.447-4.388-13.39-.92" fill="#D76230"/><path d="M245.58 221.58a13.202 13.202 0 0 1-7.497-4.874l-15.773-20.802a.613.613 0 0 0-1.1.33l-.368 5.734 16.876 18.394c2.775 3.025 7.16 3.679 10.637 1.87l-2.774-.652z" fill="#AA391B"/><path d="M195.411 155.426c-3.549 0-6.594 2.614-7.034 6.135-.278 2.225-.78 4.532-1.516 6.63-1.217 3.465-3.374 5.795-3.374 5.795s-1.228 6.585 11.789 6.585 12.98-5.26 12.98-5.26-4.389-3.942-4.49-11.29c-.018-1.265-.032-2.35-.044-3.279-.038-2.944-3.457-5.316-7.66-5.316h-.65z" fill="#EACBAC"/><path d="M201.496 157.013c-1.389-.98-3.31-1.587-5.435-1.587h-.65c-3.548 0-6.594 2.615-7.034 6.135-.278 2.225-.78 4.533-1.516 6.63-1.216 3.466-3.374 5.796-3.374 5.796s-.444 2.406 2.078 4.31a26.45 26.45 0 0 0 5.118-2.3c8.956-5.217 10.004-14.565 10.004-14.565.2-.93.48-2.481.81-4.419" fill="#E99462"/><path d="M198.205 129.23c7.528-.095 13.596 6.558 13.475 14.775l-.008.537c.068.425.1 10.39-2.308 14.226-2.814 4.48-5.16 6.047-10.138 7.987a8.431 8.431 0 0 1-5.862.097c-5.064-1.786-7.763-2.992-10.184-7.767-2.025-3.993-2.369-13.729-2.301-14.156l-.007-.537c-.116-8.215 5.955-15.02 13.484-15.114l3.848-.049z" fill="#EACBAC"/><path d="M181.961 142.31a12.325 12.325 0 0 1-.782-1.268 16.14 16.14 0 0 0-.306 3.35l.008.537c-.069.427.275 10.163 2.3 14.157 2.421 4.775 5.12 5.98 10.184 7.766a8.419 8.419 0 0 0 3.75.423c-12.315-2.735-13.345-14.42-12.376-19.717.176-.965.295-1.927.37-2.864-.888-.365-2.256-1.097-3.147-2.383" fill="#E99462"/><path d="M191.57 141.602c.16.38.697.355.836-.033 2.45-6.84 9.68-9.845 10.859-11.326a12.375 12.375 0 0 0-5.06-1.013l-3.849.048c-6.474.082-11.867 5.128-13.178 11.764.208.394.463.81.781 1.269.892 1.286 2.26 2.018 3.148 2.383.01.004.02.01.03.013a.439.439 0 0 0 .591-.519c-.342-1.296-.781-3.944.401-6.413-.23 3.085 1.604 4.24 2.771 4.66a.56.56 0 0 0 .742-.621c-.23-1.36-.432-3.98 1.156-5.045-.236 1.961.32 3.76.771 4.833" fill="#E99462"/><path d="M182.105 150.027c.525 3.101.03 5.29-1.863 5.837-2.205.638-4.004-2.243-4.523-4.664-.943-4.407.804-7.069 2.609-6.888 3.401.34 3.364 3.274 3.777 5.715" fill="#EACBAC"/><path d="M178.328 144.312c-1.805-.18-3.552 2.482-2.608 6.888.05.236.116.475.19.716.058-.113.106-.29.138-.549.366-2.899 1.206-4.2 1.945-4.226 2.202-.08 3.679 4.5 1.618 7.99-.29.49-.073.74.392.78.08-.014.158-.023.239-.047 1.893-.547 2.387-2.736 1.863-5.837-.413-2.441-.376-5.374-3.777-5.715" fill="#E99462"/><path d="M210.449 150.027c-.525 3.101-.03 5.29 1.863 5.837 2.206.638 4.004-2.243 4.523-4.664.943-4.407-.804-7.069-2.609-6.888-3.4.34-3.364 3.274-3.777 5.715" fill="#EACBAC"/><path d="M210.456 149.981c.602.12 1.125-.113 1.29-.834.445-1.946.922-3.59 1.635-4.672-2.527.714-2.557 3.299-2.925 5.506" fill="#E99462"/><path d="M190.383 149.388c.26-.193.43-.5.43-.848v-1.272a1.06 1.06 0 0 0-2.12 0v1.272c0 .247.088.473.23.653.15-.032.305-.05.464-.05.36 0 .695.093.996.245M202.041 149.245c.168-.187.274-.433.274-.705v-1.272a1.06 1.06 0 0 0-2.12 0v1.272c0 .31.135.585.346.779a2.22 2.22 0 0 1 .869-.176c.22 0 .43.042.63.102" fill="#1C417D"/><path d="M204.792 144.764a.442.442 0 0 1-.548.066l-1.436-.893a2.194 2.194 0 0 0-.942-.32l-2.262-.228a.442.442 0 0 1-.315-.696l.294-.412c.1-.14.272-.21.44-.178l2.344.434c.356.067.69.219.972.445l1.413 1.128a.442.442 0 0 1 .04.654M186.005 144.764a.443.443 0 0 0 .549.066l1.435-.893c.286-.177.607-.287.942-.32l2.263-.228a.442.442 0 0 0 .314-.696l-.295-.412a.442.442 0 0 0-.44-.178l-2.343.434c-.356.067-.69.219-.972.445l-1.414 1.128a.442.442 0 0 0-.04.654" fill="#00547A"/><path d="M195.084 146.254a68.646 68.646 0 0 1-.322 2.263c-.126.751-.232 1.506-.374 2.254l-.076.421c-.004.037-.01.063-.01.094a.648.648 0 0 0 .498.656c.029.008.057.008.088.015l.143.014c.19.016.378.04.567.063l.239.031a.79.79 0 0 0 .531-.17c.12-.104.273-.256.423-.37l.004-.004a.214.214 0 0 1 .323.263 4.37 4.37 0 0 1-.29.52 1.275 1.275 0 0 1-.983.521c-.06.003-.138 0-.187-.003l-.142-.012c-.19-.016-.38-.032-.569-.056l-.141-.017c-.063-.01-.13-.018-.192-.036a1.42 1.42 0 0 1-1.062-1.46c.003-.064.016-.132.025-.19l.028-.14.056-.28c.146-.747.327-1.487.488-2.23.167-.744.348-1.485.539-2.223a.202.202 0 0 1 .396.076" fill="#E99462"/><path d="M196.682 156.019a3.883 3.883 0 0 0 1.997-.6l.383-.243c.892-.564 1.992.328 1.622 1.317l-.34.91a1.101 1.101 0 0 1-.768.684l-2.185.54a1.103 1.103 0 0 1-1.056-.303l-.423-.435c-.67-.692-.194-1.85.77-1.87" fill="#fff"/><path d="M202.968 150.67h.693c.275 0 .498.223.498.498v.13a.498.498 0 0 1-.498.498h-.693a.499.499 0 0 1-.498-.499v-.13c0-.274.223-.497.498-.497M201.064 151.911h.693c.275 0 .498.223.498.498v.13a.498.498 0 0 1-.498.498h-.693a.498.498 0 0 1-.498-.498v-.13c0-.275.223-.498.498-.498M199.159 150.67h.693c.275 0 .498.223.498.498v.13a.498.498 0 0 1-.498.498h-.693a.498.498 0 0 1-.498-.499v-.13c0-.274.223-.497.498-.497M190.945 150.67h.693c.275 0 .498.223.498.498v.13a.498.498 0 0 1-.498.498h-.693a.499.499 0 0 1-.498-.499v-.13c0-.274.223-.497.498-.497M189.041 151.911h.693c.275 0 .498.223.498.498v.13a.498.498 0 0 1-.498.498h-.693a.498.498 0 0 1-.498-.498v-.13c0-.275.223-.498.498-.498M187.136 150.67h.693c.275 0 .498.223.498.498v.13a.498.498 0 0 1-.498.498h-.693a.498.498 0 0 1-.498-.499v-.13c0-.274.223-.497.498-.497" fill="#FC95A4"/><g transform="translate(176.056 120)"><mask id="f" fill="#fff"><use xlink:href="#e"/></mask><path d="M39.084 11.758c-.554-1.06-1.72-2.387-2.904-3.319.07-.07.145-.138.23-.2.194-.128.421-.24.677-.31.126-.041.26-.056.396-.086l.42-.039.031-.002a.237.237 0 0 0 .05-.462l-.456-.144c-.158-.03-.318-.074-.485-.09a3.436 3.436 0 0 0-1.047.03 3.327 3.327 0 0 0-.244.062c.03-.135.061-.27.08-.405.054-.388.053-.771.03-1.142a7.588 7.588 0 0 0-.167-1.081.238.238 0 0 0-.469.021l-.001.01a6.88 6.88 0 0 1-.185.98 4.688 4.688 0 0 1-.321.842C32.468 2.865 28.209 0 20.324 0 10.802 0 6.49 3.92 4.614 8.174c-1.298.93-2.646 2.418-3.255 3.584-1.795 3.438-1.52 6.49-.823 8.547.62 1.827 1.371 3.998 1.371 3.998s.567-.03 1.305.194c2.124.644 2.506 4.045 2.575 5.248a.418.418 0 0 0 .446.394l.351-.023a.42.42 0 0 0 .393-.414l.081-7.507s2.986-3.358 3.722-9.798c2.394-1.235 5.402-2.157 9.063-2.157 4.011 0 7.32 1.267 9.913 2.883.867 5.966 3.629 9.072 3.629 9.072l.082 7.507c.002.22.173.4.392.414l.352.023a.418.418 0 0 0 .445-.394c.07-1.203.452-4.604 2.575-5.248.738-.224 1.305-.194 1.305-.194s.752-2.171 1.372-3.998c.697-2.056.971-5.11-.824-8.547" fill="#0297B8" mask="url(#f)"/></g><path d="M185.727 122.452c-2.542 1.516-4.11 3.576-5.057 5.721-1.299.931-2.647 2.419-3.256 3.585-1.795 3.438-1.52 6.49-.823 8.547.62 1.827 1.371 3.998 1.371 3.998s.568-.03 1.306.194c2.123.643 2.506 4.045 2.575 5.248a.418.418 0 0 0 .445.393l.352-.022a.42.42 0 0 0 .392-.414l.082-7.507s.641-.73 1.401-2.14a102.982 102.982 0 0 0-1.53-10.105c-.822-4.002.64-5.682 2.742-7.498" fill="#00547A"/><path d="M212.462 141.252s-9.866-5.119-10.359-9.236c-.048-.052-2.91 7.874-9.63 10.598a.441.441 0 0 1-.584-.28c-.373-1.192-1.311-4.53-1.006-7.066-1.643 1.102-1.211 4.65-.893 6.355.07.378-.341.667-.666.46-1.24-.792-3.349-2.622-3.11-5.808-1.182 2.465-.744 5.11-.403 6.408a.44.44 0 0 1-.594.522c-.888-.362-2.273-1.097-3.173-2.395-1.165-1.68-1.556-2.816-1.41-4.177.411-3.837 2.014-6.388 4.184-7.806 7.993-5.223 15.254-3.277 18.034-2.411 3.556 1.107 5.59 3.161 6.316 3.79 4.112 3.554 3.294 11.046 3.294 11.046" fill="#0297B8"/><path d="M186.327 132.926c3.087-4.315 3.745-6.057 3.206-6.448a22 22 0 0 0-4.715 2.349c-2.17 1.418-3.772 3.97-4.184 7.806-.146 1.361.246 2.498 1.41 4.177.9 1.298 2.286 2.033 3.173 2.395a.441.441 0 0 0 .61-.388c-.768-1.7-2.022-5.675.5-9.891" fill="#00547A"/><path d="m189.99 141.623-.016-.093c-2.641-3.166-2.12-9.453-2.12-9.453-1.06 1.482-1.529 2.956-1.678 4.284l.037-.086c-.238 3.186 1.871 5.015 3.111 5.807.324.207.737-.08.666-.46M194.474 129.65s-2.788 1.197-3.728 5.73c.046-.037.087-.079.136-.112-.305 2.535.633 5.873 1.007 7.066a.44.44 0 0 0 .583.28l.007-.003c.164-1.077.02-4.324 1.211-6.5 2.704-4.935 1.45-5.835.784-6.462" fill="#00547A"/><path d="M211.904 142.154c.38-4.557-1.114-9.078-4.097-12.112-1.479-1.522-3.304-2.654-5.3-3.36-1.997-.705-4.142-1.033-6.32-1.057-2.177-.02-4.335.266-6.324.967-1.994.688-3.8 1.83-5.25 3.369-2.916 3.08-4.323 7.646-3.952 12.194v.005a.306.306 0 0 1-.596.115c-1.421-4.557-.56-9.974 2.642-13.966 1.586-1.993 3.763-3.526 6.132-4.446a18.843 18.843 0 0 1 3.65-.998c1.239-.2 2.482-.276 3.719-.274 2.472.036 4.985.444 7.34 1.381 2.352.93 4.51 2.443 6.127 4.397 1.628 1.946 2.69 4.297 3.174 6.709.462 2.417.373 4.916-.35 7.197a.306.306 0 0 1-.595-.117v-.004z" fill="#1C417D"/><path d="m181.604 156.828.032-.008c.48-.117.804-.56.765-1.052-.073-.936-.24-2.867-.616-6.805-.27-2.83-.344-4.55-.336-5.598a1.415 1.415 0 0 0-1.582-1.41 6.248 6.248 0 0 0-5.482 6.93l.287 2.462a6.249 6.249 0 0 0 6.932 5.481M210.96 156.828l-.032-.008a1.002 1.002 0 0 1-.765-1.052c.073-.936.24-2.867.616-6.805.27-2.83.344-4.55.336-5.598a1.415 1.415 0 0 1 1.582-1.41 6.248 6.248 0 0 1 5.483 6.93l-.288 2.462a6.249 6.249 0 0 1-6.932 5.481" fill="#1C417D"/><path d="M180.111 156.442c-.667-1.289-1.147-3.609-1.426-6.895-.285-3.357-.222-5.75.19-7.113.033-.108.082-.212.14-.312-.2.052-.395.113-.586.183-.427 1.42-.497 3.87-.207 7.281.285 3.348.781 5.726 1.477 7.07.02.038.05.077.074.115.215.038.434.064.654.08a1.757 1.757 0 0 1-.316-.409M175.153 149.775c-.167-1.758-.124-3.333-.144-4.417a6.21 6.21 0 0 0-.624 3.527l.287 2.462a6.214 6.214 0 0 0 1.206 3.014c-.182-1.108-.55-2.75-.725-4.586M213.689 142.434c.412 1.364.476 3.757.19 7.114-.279 3.286-.759 5.605-1.426 6.894-.073.14-.186.278-.317.41.22-.016.44-.042.655-.08.024-.04.054-.077.074-.117.696-1.343 1.192-3.72 1.477-7.068.29-3.412.22-5.86-.207-7.282a6.35 6.35 0 0 0-.585-.183c.057.1.106.204.139.312M217.411 149.775c-.175 1.836-.543 3.478-.725 4.586a6.213 6.213 0 0 0 1.206-3.014l.287-2.462a6.214 6.214 0 0 0-.624-3.527c-.02 1.084.023 2.66-.144 4.417" fill="#0068C9"/><path d="m229.074 375.58.047.629a1.08 1.08 0 0 1-.83 1.131c-.424.1-.762.416-.89.83l-.51 1.644c-.102.33-.275.634-.507.89l-.433.48c-.313.344-.473.8-.446 1.265l.26 4.391 16.97.08-.65-4.887a1.733 1.733 0 0 0-.946-1.324l-1.215-.605a2.37 2.37 0 0 1-.86-.726l-1.224-1.676a1.226 1.226 0 0 0-.642-.453l-.707-.21a1.08 1.08 0 0 1-.77-.941l-.075-.87a.767.767 0 0 0-.799-.7l-5.043.229a.767.767 0 0 0-.73.823" fill="#0080F6"/><path d="M242.855 390h-17.001a.985.985 0 0 1-.985-.985v-1.758c0-.544.441-.985.985-.985h17.001c.544 0 .985.44.985.985v1.758a.985.985 0 0 1-.985.985" fill="#EAFBFF"/><path d="m228.276 381.22 1.383.532c.178.068.36.102.556.096l.65-.014c.13-.07.258-.148.378-.237l5.872-4.372-.624-.186a1.08 1.08 0 0 1-.77-.942l-.075-.87a.767.767 0 0 0-.799-.7l-5.043.23a.767.767 0 0 0-.73.823l.046.628a1.08 1.08 0 0 1-.83 1.132c-.423.1-.762.415-.89.83l-.509 1.644c-.102.33-.276.634-.508.89l-.433.48c-.312.344-.472.8-.445 1.264l.043.733.84-1.334a1.572 1.572 0 0 1 1.888-.627" fill="#0068C9"/><path d="m226.787 382.1-1.19 1.89.14 2.404.892-2.517a2.52 2.52 0 0 1 2.375-1.68h.434c.017 0 .034-.004.052-.004l-1.383-.532a1.098 1.098 0 0 0-1.32.439" fill="#0068C9"/><path d="m242.127 382.35-.266-.438a1.576 1.576 0 0 0-1.947-.63l-.63.264c-.17.072-.348.11-.533.114l-7.885.18-.65.014a1.416 1.416 0 0 1-.557-.097l-1.383-.531a1.57 1.57 0 0 0-1.888.627l-.84 1.333.048.809 1.191-1.89a1.098 1.098 0 0 1 1.32-.44l1.383.532c.236.09.484.132.736.128l8.536-.194c.243-.006.481-.056.705-.15l.63-.266a1.101 1.101 0 0 1 1.361.44l.824 1.357-.155-1.162z" fill="#1C417D"/><path d="M148.762 225.34c5.636 3.2 12.76 7.249 17.404 9.888a5.567 5.567 0 0 0 7.588-2.085l1.598-2.804a5.565 5.565 0 0 0-1.081-6.864l-14.508-13.258c-4.285-3.916-11.06-3.057-14.231 1.804v.001c-2.964 4.541-1.485 10.64 3.231 13.318" fill="#D76230"/><path d="m170.86 235.88 1.56.834a4.27 4.27 0 0 0 5.72-1.648l1.244-2.177a4.267 4.267 0 0 0-1.09-5.49l-1.293-1.004a4.915 4.915 0 0 0-7.164 1.249l-.808 1.275a4.91 4.91 0 0 0 1.831 6.96" fill="#AA391B"/><path d="M174.802 236.17c.32.405.664 1.872 2.363 3.997a4.992 4.992 0 0 0 2.243 1.576l1.429.505 1.597.583.839.11a1.49 1.49 0 0 0 1.35-.535l3.054-3.749c.172-.21.303-.452.386-.71l.374-1.163a1.671 1.671 0 0 0-.469-1.751l-.753-.683a1.937 1.937 0 0 1-.516-.764l-.395-1.073a1.896 1.896 0 0 0-.96-1.054l-.823-.393a1.569 1.569 0 0 0-.614-.153l-3.573-.15a2.043 2.043 0 0 1-1.026-.326l-.884-.573a3.62 3.62 0 0 0-5.101 1.224 3.616 3.616 0 0 0 1 4.733l.479.35z" fill="#EACBAC"/><g transform="translate(174 229)"><mask id="h" fill="#fff"><use xlink:href="#g"/></mask><path d="m14.104 4.554-2.407-1.258a.208.208 0 0 0-.1-.023l-1.12.026c-.207.005-.276.276-.098.379l1.938 1.109.988.491c.312.155.575.392.76.685l.17.267c.247.392.349.857.287 1.315l-.242 1.783 1.787-2.474-1.963-2.3z" fill="#E99462" mask="url(#h)"/><mask id="j" fill="#fff"><use xlink:href="#i"/></mask><path d="M-.033 2.245 1.83 3.398a5.62 5.62 0 0 1 2.173 2.484l.354.79c.06.133.128.261.206.384l1.18 1.867a7.404 7.404 0 0 0 2.083 2.16l1.523 1.04c.418.285.928.406 1.43.34l.831-.11-1.29 1.779-8.023-2.385L.72 7.69l-2.508-2.812 1.756-2.633z" fill="#E99462" mask="url(#j)"/></g><g><path d="m195.999 188.44-11.822-15.249s4.562 3.26 11.566 3.26c7.004 0 12.079-3.26 12.079-3.26L196 188.44z" fill="#3CA1FF"/><path d="m214.099 160.33-1.787-.773.45 1.324a3.66 3.66 0 0 1-.617 3.476l-15.308 18.904a.87.87 0 0 1-1.354.004l-15.528-18.948a3.66 3.66 0 0 1-.657-3.41l.598-1.907-2.438 1.067a5.457 5.457 0 0 0-2.987 3.3l-1.06 3.226a8.234 8.234 0 0 0 1.02 7.215l.59.864a10.655 10.655 0 0 0 2.702 2.727l15.5 10.794a5.26 5.26 0 0 0 5.923.068l14.663-9.724a10.63 10.63 0 0 0 2.383-2.167l.981-1.211a8.23 8.23 0 0 0 1.255-8.185L217 163.341a5.45 5.45 0 0 0-2.9-3.01" fill="#D76230"/><path d="M177.928 173.646c1.485 1.684 3.478 2.262 4.053 1.733.768-.707-4.73-4.517-7.838-11.014l-.733 2.228-.005.016c.974 3.053 1.716 4.44-.38 3.21a8.208 8.208 0 0 0 1.405 3.988l.591.865a10.652 10.652 0 0 0 2.702 2.726l5.182 3.609c-.167-.74-.808-1.758-2.095-2.71-.672-.496-2.082-1.194-3.693-3.739-.673-1.065-1.157-3.145.811-.912M218.428 166.974l-.52-1.325c-2.15 4.895-7.193 8.37-8.95 9.465-.27.169-.2.517.118.576 5.069.925 9.646-8.388 8.584-3.789-.418 1.807-2.328 3.318-3.569 4.133-.33.217-.1.644.303.565.656-.129 1.497-.41 2.414-.99l.365-.45a8.23 8.23 0 0 0 1.255-8.185M191.999 183.537c0-.804-.644-1.455-1.438-1.455-.794 0-1.437.651-1.437 1.455 0 .501.25.943.631 1.205.202 3.594.193 6.287-.026 9.352-.04.561-.086 1.14-.134 1.732-.254 3.146-.542 6.713.04 9.822.04.203.2.344.39.375l.388 1.343a.236.236 0 0 0 .292.162.24.24 0 0 0 .16-.296l-.398-1.382a.476.476 0 0 0 .095-.38c-.56-2.982-.277-6.48-.028-9.566.048-.595.096-1.177.136-1.742.215-3.025.23-5.691.042-9.185a1.444 1.444 0 0 0 1.287-1.44" fill="#AA391B"/><path d="M190.861 182.124c-.727 0-1.317.597-1.317 1.334 0 .02.005.04.006.06a1.2 1.2 0 0 1 1.19-1.15c.66 0 1.196.543 1.196 1.212 0 .648-.504 1.173-1.135 1.206.02 0 .04.005.06.005.727 0 1.317-.597 1.317-1.333 0-.737-.59-1.334-1.317-1.334" fill="#3CA1FF"/><path d="M190.861 184.424a.737.737 0 0 1-.733-.742c0-.41.329-.742.733-.742.404 0 .733.332.733.742s-.329.742-.733.742m1.075-.843c0-.67-.535-1.212-1.196-1.212a1.2 1.2 0 0 0-1.19 1.15c0 .02-.006.04-.006.062 0 .668.535 1.211 1.196 1.211.021 0 .04-.005.06-.006a1.202 1.202 0 0 0 1.136-1.205" fill="#0068C9"/><path d="m192.114 207.215-.435-1.371a.474.474 0 0 0 .086-.383c-.637-2.966-.446-6.47-.278-9.562.033-.595.065-1.179.09-1.744.152-3.382.067-6.306-.303-10.43a.475.475 0 0 0-.512-.432.476.476 0 0 0-.427.52c.365 4.076.45 6.963.3 10.298-.025.563-.057 1.143-.09 1.736-.17 3.152-.366 6.725.3 9.817a.468.468 0 0 0 .398.365l.422 1.332a.236.236 0 0 0 .297.154.24.24 0 0 0 .152-.3" fill="#1C417D"/><path d="M202.606 183.537c0-.804-.644-1.455-1.438-1.455s-1.437.651-1.437 1.455c0 .446.202.84.514 1.107.226 1.366.07 2.67-.114 4.144-.188 1.518-.401 3.239-.237 5.381.045.585.099 1.188.153 1.803.274 3.06.583 6.526-.113 9.444-.048.2.04.4.201.507l-.193 1.382a.239.239 0 0 0 .234.272.236.236 0 0 0 .232-.205l.2-1.427a.467.467 0 0 0 .242-.305c.734-3.07.416-6.62.136-9.753-.054-.612-.108-1.211-.152-1.79-.157-2.047.05-3.717.232-5.19.172-1.38.325-2.618.182-3.922a1.444 1.444 0 0 0 1.358-1.448" fill="#AA391B"/><path d="M201.468 182.124c-.727 0-1.317.597-1.317 1.334 0 .02.005.04.006.06a1.2 1.2 0 0 1 1.19-1.15c.66 0 1.196.543 1.196 1.212 0 .648-.504 1.173-1.135 1.206.02 0 .04.005.06.005.727 0 1.317-.597 1.317-1.333 0-.737-.59-1.334-1.317-1.334" fill="#3CA1FF"/><path d="M201.468 184.424a.737.737 0 0 1-.733-.742c0-.41.329-.742.733-.742s.733.332.733.742-.329.742-.733.742m1.075-.843c0-.67-.535-1.212-1.196-1.212a1.2 1.2 0 0 0-1.19 1.15c0 .02-.006.04-.006.062 0 .668.535 1.211 1.196 1.211.021 0 .04-.005.06-.006a1.202 1.202 0 0 0 1.136-1.205" fill="#0068C9"/><path d="M202.415 195.856c-.082-.608-.164-1.204-.235-1.782-.25-2.036-.12-3.714-.006-5.194.143-1.852.267-3.45-.315-5.258a.47.47 0 0 0-.594-.306.479.479 0 0 0-.302.602c.524 1.626.407 3.138.271 4.888-.118 1.525-.252 3.254.011 5.386.071.582.153 1.182.236 1.794.414 3.043.883 6.492.321 9.438a.475.475 0 0 0 .225.498l-.13 1.39a.238.238 0 0 0 .213.26h.022c.12 0 .223-.092.234-.216l.134-1.436a.468.468 0 0 0 .228-.315c.59-3.101.11-6.633-.313-9.749" fill="#1C417D"/><path d="M218.445 244.153c-6.077-6.827-6.469-20.093-6.469-20.093H178.47s-.392 13.265-6.469 20.093c0 0 3.135 2.847 23.367 2.847s23.078-2.847 23.078-2.847" fill="#D76230"/></g><g transform="translate(172 225)"><mask id="l" fill="#fff"><use xlink:href="#k"/></mask><path d="m-5.652-28.112-12.012 12.158 7.24 42.014s16.18 6.705 41.17 5.473c2.665-.131 4.314-2.849 3.134-5.145l-2.468-4.804c-1.74-3.387-4.744-6.023-8.414-7.383l-5.253-1.948C13.05 10.513 9.77 6.389 9.26 1.583l-.633-5.95a31.16 31.16 0 0 0-3.601-11.558l-6.282-11.594c-.864-1.594-3.108-1.897-4.396-.592" fill="#AA391B" mask="url(#l)"/></g><g><path d="M178.985 223.234c.236 1.8.191 3.594.025 5.383a29.783 29.783 0 0 1-.984 5.311c-.507 1.738-1.164 3.45-2.07 5.045-.917 1.584-2.071 3.067-3.519 4.194a.271.271 0 0 1-.38-.046.267.267 0 0 1-.021-.299l.005-.01a41.636 41.636 0 0 0 2.281-4.627c.62-1.588 1.165-3.2 1.661-4.84.487-1.645.895-3.32 1.306-5.006l1.164-5.121.002-.009a.27.27 0 0 1 .53.025M212.548 223.218l1.164 5.12c.411 1.688.82 3.362 1.305 5.007a65.248 65.248 0 0 0 1.662 4.84 41.56 41.56 0 0 0 2.28 4.627l.006.01a.268.268 0 0 1-.101.367.27.27 0 0 1-.3-.022c-1.448-1.127-2.602-2.61-3.52-4.194-.906-1.595-1.562-3.307-2.07-5.045-.489-1.744-.818-3.522-.984-5.311s-.21-3.584.025-5.383a.27.27 0 0 1 .53-.025l.003.009z" fill="#D9642E"/><path d="m176.312 311.941 7.187 53.829a.653.653 0 0 0 .65.564l13.51-.048a.651.651 0 0 0 .65-.67l-1.82-55.33c-.185-5.632-4.977-10.019-10.636-9.737-5.917.294-10.32 5.552-9.54 11.392" fill="#1C417D"/><path d="m182.227 315.827-.322-14.267c-3.783 1.843-6.185 5.942-5.592 10.38l7.186 53.829a.652.652 0 0 0 .65.564l5.124-.018-7.046-50.488z" fill="#001828"/><path d="M199.413 366.24a.935.935 0 0 0-.846-.932c-1.376-.134-4.292-.226-7.666-.226-3.374 0-6.289.092-7.666.226a.934.934 0 0 0-.845.932v3.828a.94.94 0 0 0 .944.936h15.135a.94.94 0 0 0 .944-.936v-3.828z" fill="#ACEDFB"/><path d="M189.746 365.08c-2.874.018-5.294.104-6.51.223a.935.935 0 0 0-.846.932v3.827a.94.94 0 0 0 .944.936h6.907l-.495-5.918z" fill="#46CFED"/></g></g></svg>