<svg viewBox="0 0 420 420" xmlns="http://www.w3.org/2000/svg" xmlns:xlink="http://www.w3.org/1999/xlink"><defs><path id="a" d="M0 0h68v35H0z"/><path id="c" d="M0 0h22v19H0z"/><path id="e" d="M0 0h56v29H0z"/><path id="g" d="M0 165h314V0H0z"/></defs><g fill="none" fill-rule="evenodd"><g transform="translate(72 41)" fill="#B8DDFF" opacity=".591"><rect x="92" y="52" width="184" height="33" rx="16.5"/><rect y="69" width="184" height="33" rx="16.5"/><rect x="53" width="85" height="33" rx="16.5"/></g><g transform="translate(53 210)"><g transform="translate(246 131)"><mask id="b" fill="#fff"><use xlink:href="#a"/></mask><path d="M6.329 35C2.834 35 0 32.156 0 28.648V26.38c0-1.637.308-3.26.907-4.782l.726-1.847a13.454 13.454 0 0 1 12.478-8.542l3.069-.008a5.876 5.876 0 0 0 4.688-2.4l2.125-2.89A14.482 14.482 0 0 1 35.663 0h1.41C42.644 0 47.53 3.737 49.01 9.128a10.494 10.494 0 0 0 7.07 7.27l1.666.504a8.731 8.731 0 0 1 4.789 3.602l4.705 7.24c.495.762.76 1.653.76 2.563C68 32.9 65.905 35 63.323 35H6.329z" fill="#0097B8" mask="url(#b)"/></g><path d="M274.81 162.51a5.56 5.56 0 0 0-3.005-4.579l-5.765-2.943c-3.27-1.67-5.209-5.181-4.901-8.873.187-2.243 1.992-3.996 4.215-4.092l6.201-.267a10.552 10.552 0 0 0 7.354-3.458l2.226-2.451c1.391-1.531.996-3.737-.395-4.843a14.342 14.342 0 0 0-10.924 5.895l-2.11 2.892a5.82 5.82 0 0 1-4.653 2.4l-3.046.008c-5.469.015-10.376 3.402-12.385 8.548l-.721 1.847a13.168 13.168 0 0 0-.9 4.785v2.27c0 3.51 2.812 6.355 6.282 6.355h20.569a3.647 3.647 0 0 0 1.957-3.494" fill="#00547A"/><path d="M269.53 146c-1.263 0-1.982 1.524-1.222 2.589 1.31 1.833 3.36 2.91 5.534 2.91 1.885 0 3.575 1.228 4.25 3.085l.366 1.005c.308.85 1.081 1.411 1.943 1.411h.374c1.78 0 3.222-1.523 3.222-3.402 0-4.196-3.222-7.598-7.196-7.598h-7.271z" fill="#00547A"/><g transform="translate(284 146)"><mask id="d" fill="#fff"><use xlink:href="#c"/></mask><path d="m7.362 17.262.78-1.964a4.55 4.55 0 0 1 4.234-2.857c2.104 0 3.945-1.4 4.488-3.414l.772-2.858A5.758 5.758 0 0 1 22 2.054a8.771 8.771 0 0 0-2.06-.92L18.275.636A10.46 10.46 0 0 1 16.665 0a10.309 10.309 0 0 0-5.016 5.2l-.581 1.347A5.42 5.42 0 0 1 6.513 9.79l-1.481.117A4.615 4.615 0 0 0 .95 13.231l-.853 2.995A2.538 2.538 0 0 0 1.087 19h4.769c.67-.387 1.209-.99 1.506-1.738" fill="#00547A" mask="url(#d)"/></g><path d="M5.212 166C2.333 166 0 163.643 0 160.737v-1.88c0-1.356.253-2.7.747-3.962l.598-1.53c1.667-4.261 5.738-7.066 10.276-7.078l2.527-.006a4.83 4.83 0 0 0 3.86-1.988l1.751-2.395a11.902 11.902 0 0 1 9.61-4.898h1.16c4.59 0 8.613 3.096 9.833 7.563a8.67 8.67 0 0 0 5.823 6.024l1.37.418a7.194 7.194 0 0 1 3.945 2.984l3.874 5.999c.409.631.626 1.37.626 2.124 0 2.147-1.724 3.888-3.851 3.888H5.212z" fill="#0097B8"/><g transform="translate(0 137)"><mask id="f" fill="#fff"><use xlink:href="#e"/></mask><path d="m55.375 22.988-3.875-6a7.196 7.196 0 0 0-3.944-2.983l-1.37-.418a8.671 8.671 0 0 1-5.824-6.024C39.142 3.096 35.12.001 30.53 0H29.37c-.165 0-.329.008-.493.015v.052l-.063-.05a11.906 11.906 0 0 0-9.054 4.881l-1.75 2.395a4.831 4.831 0 0 1-3.861 1.988l-2.527.007c-4.538.012-8.61 2.816-10.276 7.078l-.598 1.53A10.883 10.883 0 0 0 0 21.858v1.88C0 26.644 2.334 29 5.212 29H22.28a3.02 3.02 0 0 0 1.625-2.894 4.604 4.604 0 0 0-2.494-3.791l-4.783-2.438c-2.713-1.383-4.322-4.29-4.067-7.348.155-1.857 1.653-3.309 3.498-3.388l5.145-.222a8.762 8.762 0 0 0 6.101-2.863l1.573-1.728v9.754a6.055 6.055 0 0 0-3.606-1.19h-6.194c-1.076 0-1.689 1.241-1.04 2.108a5.886 5.886 0 0 0 4.714 2.372c1.606 0 3.045 1 3.62 2.513l.311.819a1.773 1.773 0 0 0 1.656 1.149h.319a2.8 2.8 0 0 0 .22-.011V29H52.15c2.126 0 3.85-1.742 3.85-3.889 0-.754-.217-1.492-.625-2.124" fill="#00547A" mask="url(#f)"/></g><path d="M129.85 69.975 81.479 12.224a.63.63 0 0 0-.965 0l-48.37 57.751A.624.624 0 0 0 32.624 71h1.276l46.613-55.652a.63.63 0 0 1 .965 0L128.092 71h1.276a.624.624 0 0 0 .482-1.025" fill="#00547A"/><path d="M80.518 15.226 34 71.03V165h94V71.03L81.481 15.226a.627.627 0 0 0-.963 0" fill="#E99462"/><path d="m194.02 69.964 30.278-36.632a.624.624 0 0 1 .481-.227h7.216l-18.083-21.878a.624.624 0 0 0-.48-.228H81.771a.625.625 0 0 0-.482.228l-.293.355a.623.623 0 0 1 .962 0l48.255 58.382c.34.41.05 1.035-.481 1.035h64.769c-.531 0-.821-.624-.481-1.035" fill="#0097B8"/><path d="m224.31 33.228-30.16 36.733c-.339.413-.05 1.039.48 1.039h26.027c-.53 0-.819-.626-.48-1.039l29.868-36.377a.618.618 0 0 1 .959 0l-.293-.356a.62.62 0 0 0-.479-.228H224.79a.62.62 0 0 0-.48.228" fill="#00547A"/><path d="m280.85 69.979-29.875-35.755a.625.625 0 0 0-.959 0l-29.875 35.755a.622.622 0 0 0 .48 1.02h1.268l28.127-33.663a.625.625 0 0 1 .959 0L279.102 71h1.268c.529 0 .818-.615.48-1.021" fill="#0097B8"/><path d="m249.78 37.225-28.255 33.859h-93.526V165h150.48V71.084h.523l-28.256-33.859a.627.627 0 0 0-.963 0" fill="#EACBAC"/><path d="M141.38 1h-26.752a.622.622 0 0 0-.624.62v3.715c0 .343.28.621.624.621h1.465v14.38c0 .16.062.313.173.429l11.554 12.043c.117.123.28.192.45.192h11.022a.622.622 0 0 0 .624-.62V5.955h1.465a.623.623 0 0 0 .623-.62V1.62c0-.343-.28-.621-.623-.621" fill="#E99462"/><path d="M141.38 1h-12.752a.623.623 0 0 0-.624.62v3.715c0 .343.28.621.624.621h-.624V32.38c0 .343.28.62.624.62h10.664a.622.622 0 0 0 .624-.62V5.956h1.465a.623.623 0 0 0 .623-.62V1.62c0-.343-.279-.621-.623-.621" fill="#EACBAC"/><path d="M98.563 33H128a.626.626 0 0 1-.459-.2l-11.739-12.612a.652.652 0 0 1-.12-.188H88l10.563 13z" fill="#00547A"/><path d="M89 53.5C89 59.299 84.299 64 78.5 64S68 59.299 68 53.5C68 47.7 72.701 43 78.5 43 84.3 43 89 47.7 89 53.5" fill="#AA391B"/><path d="M91 53.5C91 47.159 85.828 42 79.471 42c-.158 0-.315.006-.47.012 6.139.248 11.057 5.304 11.057 11.488S85.14 64.74 79 64.988a11.493 11.493 0 0 0 4.317-.649C87.79 62.756 91 58.496 91 53.5" fill="#EACBAC"/><path d="M79 54v9c.339-.032.672-.082 1-.146V54h-1zM79 44v9h1v-8.854A10.364 10.364 0 0 0 79 44M69 53h.98c.43-4.417 3.738-8.004 8.02-8.855V44c-4.749.462-8.537 4.251-9 9M69.979 54h-.98c.463 4.749 4.252 8.537 9 9v-.145c-4.281-.851-7.59-4.438-8.02-8.855" fill="#D76230"/><path d="M87.703 50.721c.18.592.31 1.206.372 1.84h-8.636v-8.635a9.559 9.559 0 0 1 3.723 1.167 9.656 9.656 0 0 1 4.541 5.628zm-8.264 12.354V54.44h8.636c-.413 4.238-3.588 7.678-7.696 8.495-.309.061-.622.11-.94.14zm-1.879-19.01v8.496h-8.635c.444-4.556 4.08-8.191 8.635-8.635v.139zm0 18.872v.139c-4.556-.444-8.191-4.079-8.635-8.635h8.635v8.496zM67 53.501c0 6.341 5.159 11.5 11.5 11.5.158 0 .314-.005.47-.012C85.094 64.742 90 59.685 90 53.501s-4.906-11.24-11.03-11.488a11.456 11.456 0 0 0-8.39 3.162A11.465 11.465 0 0 0 67 53.501z" fill="#E99462"/><mask id="h" fill="#fff"><use xlink:href="#g"/></mask><path fill="#E99462" mask="url(#h)" d="M128 157.19h66v-.38h-66zM222 157.19h57v-.38h-57z"/><path d="M239.44 155.37V99.627c0-.347.25-.629.557-.629h-1.444c-.307 0-.556.282-.556.629v55.743c0 .347.249.629.556.629h1.444c-.308 0-.557-.282-.557-.629M263.49 129.41c-.568 0-1.028-.48-1.028-1.071 0-.118.023-.23.056-.336-.31.185-.523.529-.523.928 0 .592.46 1.072 1.028 1.072.455 0 .836-.31.972-.737a.985.985 0 0 1-.505.144" fill="#D76230" mask="url(#h)"/><path d="M263 127a.997.997 0 0 0-.945.687.995.995 0 0 0-.055.313 1 1 0 0 0 1 1c.18 0 .345-.051.491-.134A.996.996 0 0 0 263 127" fill="#EACBAC" mask="url(#h)"/><path d="M269 120.66v5.684c0 1.468 1.059 2.658 2.365 2.658H272c-1.306 0-2.365-1.19-2.365-2.658v-5.684c0-1.468 1.059-2.658 2.365-2.658h-.635c-.424 0-.82.127-1.164.346-.717.457-1.201 1.32-1.201 2.312" fill="#D76230" mask="url(#h)"/><path d="M274.26 125.64c0 1.038-.765 1.879-1.708 1.879h-.106c-.03 0-.06-.003-.089-.005-.901-.051-1.62-.87-1.62-1.874v-4.271c0-1.005.719-1.823 1.62-1.875.03-.001.06-.004.09-.004h.105c.943 0 1.708.84 1.708 1.879v4.27zm-1.678-7.636h-.167c-1.334 0-2.416 1.19-2.416 2.658v5.684c0 1.468 1.082 2.658 2.416 2.658h.167c.107 0 .211-.01.314-.025.3-.042.583-.143.838-.295.137-.082.266-.178.386-.287.179-.162.336-.353.466-.565.087-.14.162-.292.223-.451.123-.318.19-.668.19-1.035v-5.684c0-1.468-1.082-2.658-2.417-2.658z" fill="#ED985A" mask="url(#h)"/><path d="M250.35 103h-6.704a.642.642 0 0 0-.648.636v.31a.66.66 0 0 1 .138-.015h6.704c.358 0 .648.284.648.636V126a.638.638 0 0 0 .51-.62v-21.744a.642.642 0 0 0-.648-.636M260.35 103h-6.704a.642.642 0 0 0-.648.636v.31a.66.66 0 0 1 .138-.015h6.704c.358 0 .648.284.648.636V126a.638.638 0 0 0 .51-.62v-21.744a.642.642 0 0 0-.648-.636M250.35 129h-6.704a.642.642 0 0 0-.648.636v.31a.66.66 0 0 1 .138-.015h6.704c.358 0 .648.284.648.636V152a.638.638 0 0 0 .51-.62v-21.745a.642.642 0 0 0-.648-.636M260.35 129h-6.704a.642.642 0 0 0-.648.636v.31a.66.66 0 0 1 .138-.015h6.704c.358 0 .648.284.648.636V152a.638.638 0 0 0 .51-.62v-21.745a.642.642 0 0 0-.648-.636" fill="#D76230" mask="url(#h)"/><path d="M263.78 128.65c-.167.498-.638.86-1.2.86-.7 0-1.267-.56-1.267-1.251 0-.466.261-.868.645-1.083.167-.498.638-.86 1.199-.86.7 0 1.268.56 1.268 1.25 0 .467-.261.869-.645 1.084zm-2.762-3.443a.63.63 0 0 1-.502.613v-21.185a.633.633 0 0 0-.637-.629h-6.592a.646.646 0 0 0-.136.015v-.307c0-.347.285-.628.638-.628h6.592c.352 0 .637.281.637.628v21.493zm0 26.07a.63.63 0 0 1-.502.614v-21.186a.633.633 0 0 0-.637-.629h-6.592a.668.668 0 0 0-.136.015v-.306c0-.347.285-.629.638-.629h6.592c.352 0 .637.282.637.629v21.493zm-10.173-26.07a.63.63 0 0 1-.502.613v-21.185a.633.633 0 0 0-.637-.629h-6.592a.646.646 0 0 0-.136.015v-.307c0-.347.285-.628.638-.628h6.592c.352 0 .637.281.637.628v21.493zm0 26.07a.63.63 0 0 1-.502.614v-21.186a.633.633 0 0 0-.637-.629h-6.592a.668.668 0 0 0-.136.015v-.306c0-.347.285-.629.638-.629h6.592c.352 0 .637.282.637.629v21.493zm13.515-52.281H239.635a.633.633 0 0 0-.638.628v55.743c0 .348.286.629.638.629H264.36a.633.633 0 0 0 .637-.629V99.624a.633.633 0 0 0-.637-.628z" fill="#ED985A" mask="url(#h)"/><path d="M272.2 119h-.11c-.032 0-.063.004-.094.005.947.051 1.701.866 1.701 1.868v4.255c0 1-.754 1.816-1.701 1.867.03.002.062.005.093.005h.111c.992 0 1.796-.838 1.796-1.872v-4.256c0-1.034-.804-1.872-1.796-1.872" fill="#D76230" mask="url(#h)"/><path d="M273.39 122.98v.076c0 .263-.11.495-.276.64-.142.22-.364.365-.617.365h-.258c-.43 0-.78-.413-.78-.922v-.069c0-.51.35-.923.78-.923h.448l.015.002.016-.002c.37 0 .672.357.672.797v.036zm.609 2.15v-4.26c0-1.003-.665-1.819-1.5-1.87-.836.051-1.5.867-1.5 1.87v4.26c0 1.003.664 1.819 1.5 1.87.835-.051 1.5-.867 1.5-1.87z" fill="#EACBAC" mask="url(#h)"/><path d="m272.5 123.78-.018.002h-.307a.86.86 0 0 1-.85-.87v-.042c0-.48.38-.87.85-.87h-.235a.953.953 0 0 0-.942.964v.072c0 .533.421.964.942.964h.312a.929.929 0 0 0 .746-.381.793.793 0 0 1-.48.163l-.018-.002" fill="#E99462" mask="url(#h)"/><path d="M272 122.98v.047c0 .54.324.976.723.976h.261l.016-.002c-.375-.011-.676-.423-.676-.932v-.131c0-.51.301-.921.676-.932-.005 0-.01-.003-.016-.003h-.261c-.4 0-.723.437-.723.977" fill="#D76230" mask="url(#h)"/><path d="m273 122-.023.002c-.541.012-.977.423-.977.932v.132c0 .508.436.92.977.932L273 124c.221 0 .424-.07.59-.183a.912.912 0 0 0 .41-.751v-.132c0-.516-.448-.934-1-.934" fill="#ED985A" mask="url(#h)"/><path d="M89.377 122H67.623a.62.62 0 0 1-.623-.618V92.618a.62.62 0 0 1 .623-.618h21.754a.62.62 0 0 1 .623.618v28.764a.62.62 0 0 1-.623.618" fill="#FC95A4" mask="url(#h)"/><path d="M68 92.637v27.726c0 .352.299.637.667.637H70c-.368 0-.667-.285-.667-.637V92.637c0-.352.299-.637.667-.637h-1.333c-.368 0-.667.285-.667.637M80.333 120.36V92.634c0-.352.299-.637.667-.637h-1.334c-.368 0-.666.285-.666.637v27.726c0 .352.298.637.666.637H81c-.368 0-.667-.285-.667-.637" fill="#D76230" mask="url(#h)"/><path d="M91.333 91H90c.368 0 .666.278.666.621v30.758c0 .343-.298.62-.666.62h1.333c.368 0 .667-.277.667-.62V91.62c0-.343-.299-.621-.667-.621" fill="#EACBAC" mask="url(#h)"/><path d="M68.505 92.863h8.429c.346 0 .626.278.626.621v27.032c0 .343-.28.621-.626.621h-8.429a.624.624 0 0 1-.626-.621V93.484c0-.343.28-.621.626-.621zm20.615.621v27.032c0 .343-.28.621-.626.621h-8.429a.624.624 0 0 1-.626-.621V93.484c0-.343.28-.621.626-.621h8.429c.346 0 .626.278.626.621zm-23.121 28.895c0 .343.28.621.626.621H90.373a.624.624 0 0 0 .626-.621V91.621a.624.624 0 0 0-.626-.62H66.625a.623.623 0 0 0-.618.537c-.003.027-.008.055-.008.083v30.758z" fill="#E99462" mask="url(#h)"/><path d="M151.62 122h21.754a.62.62 0 0 0 .623-.618V92.618a.62.62 0 0 0-.623-.618H151.62a.62.62 0 0 0-.623.618v28.764c0 .341.279.618.623.618" fill="#FAD1C5" mask="url(#h)"/><path d="M171.67 92.637v27.726c0 .352-.299.637-.667.637h1.334c.368 0 .666-.285.666-.637V92.637c0-.352-.298-.637-.666-.637h-1.334c.368 0 .667.285.667.637M160 121h1V92h-1zM149 94.18v28.199c0 .343.299.621.667.621H151c-.368 0-.667-.278-.667-.621V91.621c0-.343.299-.621.667-.621h-1.333c-.338 0-.614.234-.658.537-.004.028-.009.055-.009.084v2.56z" fill="#D76230" mask="url(#h)"/><path d="M173.12 120.52c0 .343-.28.621-.626.621h-9.055V92.867h9.055c.345 0 .626.278.626.621v27.032zm-20.615.621a.624.624 0 0 1-.626-.621V93.488c0-.343.28-.621.626-.621h9.055v28.274h-9.055zm21.868-30.137h-23.747a.624.624 0 0 0-.627.621v30.758c0 .343.28.62.627.62H174.373a.624.624 0 0 0 .626-.62V91.625a.624.624 0 0 0-.626-.621z" fill="#ED985A" mask="url(#h)"/><path d="M254.55 164.55v-2.096c0-.25.203-.452.452-.452h-5.54a.452.452 0 0 1-.452-.452v-2.096c0-.25.202-.452.452-.452h-5.47a.452.452 0 0 1-.452-.452v-2.096c0-.25.203-.452.453-.452h-5.538a.452.452 0 0 0-.453.452v8.096c0 .25.203.452.453.452h16.547a.452.452 0 0 1-.452-.452" fill="#D76230" mask="url(#h)"/><path d="M286.54 162h-5.597a.454.454 0 0 0 .457-.452v-2.096a.454.454 0 0 0-.457-.452h-5.525a.455.455 0 0 0 .457-.452v-2.096a.455.455 0 0 0-.457-.452h-30.963a.454.454 0 0 0-.457.452v2.096c0 .25.204.452.457.452h5.525a.454.454 0 0 0-.457.452v2.096c0 .25.205.452.457.452h5.597a.455.455 0 0 0-.457.452v2.096c0 .25.204.452.457.452H286.54a.455.455 0 0 0 .458-.452v-2.096a.455.455 0 0 0-.458-.452" fill="#EACBAC" mask="url(#h)"/><path d="M252 64c-6.628 0-12 5.447-12 12.166V85h24v-8.834C264 69.447 258.628 64 252 64" fill="#AA391B" mask="url(#h)"/><path d="M238 76.174v9.193c0 .35.287.632.641.632h.962a.637.637 0 0 1-.641-.632v-8.96c0-7.188 5.818-13.223 13.038-13.4v-.008h-.641c-.305 0-.606.014-.907.034-6.954.46-12.452 6.166-12.452 13.14M258.74 67.969a11.622 11.622 0 0 0-5.006-1.962.658.658 0 0 0-.435.09c1.65.311 3.174.96 4.484 1.872a.59.59 0 0 1 .054.937l-4.838 4.253V74l5.794-5.094a.59.59 0 0 0-.053-.937M249 85h1.2c.442 0 .8-.297.8-.663V77h-1.2v7.337c0 .366-.358.663-.8.663M262.04 74.294c.084.363-.22.706-.622.706h.95c.4 0 .705-.343.621-.706a10.066 10.066 0 0 0-2.001-4.062.667.667 0 0 0-.936-.076l-.049.041c.012.012.025.022.036.035a10.066 10.066 0 0 1 2.001 4.062" fill="#D76230" mask="url(#h)"/><path d="m243 70.193 6 4.806h1l-6.051-4.847a.74.74 0 0 0-.949.041M251 66.619c0-.377-.277-.668-.584-.612-.14.025-.278.058-.416.091a.653.653 0 0 1 .239.521v6.527L251 74v-7.381zM261 85h1.2c.442 0 .8-.297.8-.663V77h-1.2v7.337c0 .366-.358.663-.8.663" fill="#D76230" mask="url(#h)"/><path d="M250.13 76.465h.936v7.005c0 .35-.28.632-.624.632h-8.943a.628.628 0 0 1-.624-.632v-7.005h9.255zm-6.053-7.2 5.667 5.303h-8.006a.631.631 0 0 1-.614-.763 11.296 11.296 0 0 1 2.033-4.46c.01-.014.021-.023.032-.035a.618.618 0 0 1 .888-.044zm1.394-1.278a.64.64 0 0 1 .055-.979 10.995 10.995 0 0 1 4.31-1.89c.17-.034.34-.068.512-.094a.63.63 0 0 1 .718.628v7.57l-.936-.876-4.66-4.359zm13.138.057-5.67 5.305V65.653a.634.634 0 0 1 .719-.629c1.811.275 3.482.994 4.899 2.044a.64.64 0 0 1 .052.976zm1.327 1.34.048-.044a.62.62 0 0 1 .923.082 11.298 11.298 0 0 1 1.974 4.384.631.631 0 0 1-.613.762h-7.872l5.54-5.183zm-6.997 14.086v-7.005h10.191v7.005c0 .349-.28.632-.624.632h-8.943a.628.628 0 0 1-.624-.632zm-.71-20.47c-.181-.003-.36.001-.539.006-7.026.178-12.688 6.212-12.688 13.4v8.96c0 .35.28.633.624.633H264.378a.628.628 0 0 0 .624-.632v-9.194c0-7.188-5.71-13.05-12.774-13.173z" fill="#ED985A" mask="url(#h)"/><path fill="#E99462" mask="url(#h)" d="M140 6h-12v5l12-3.831zM171.98 122.51h-22.845a.625.625 0 0 1-.628-.622V91.082c0-.029.005-.056.009-.084l-2.334 2.314a.618.618 0 0 0-.184.44v30.624c0 .343.28.622.627.622h23.343c.333 0 .652-.132.888-.365l2.142-2.123h-1.017zM270.38 118c-1.341.17-2.378 1.285-2.378 2.64v5.696c0 1.471 1.224 2.664 2.733 2.664h.922c.49 0 .948-.127 1.345-.347a2.743 2.743 0 0 1-.354.025h-.923c-1.51 0-2.732-1.193-2.732-2.664v-5.697c0-.994.56-1.86 1.387-2.317M250.41 63c-7.404.056-13.409 6.412-13.409 14.001v9.367c0 .35.277.632.62.632h25.76c.342 0 .62-.283.62-.631v-.442H239.003a.625.625 0 0 1-.619-.63v-9.178c0-6.964 5.31-12.66 12.026-13.12"/><path d="M238.16 99.226h-.272a.627.627 0 0 0-.538.304l-1.609 2.678a.627.627 0 0 0-.089.322v52.838c0 .189.085.356.218.47h-2.82a.46.46 0 0 0-.46.46v2.135c0 .254.206.46.46.46h-5.567a.46.46 0 0 0-.46.46v2.133c0 .254.206.46.46.46h-5.639a.459.459 0 0 0-.318.129V74.196l28.043-33.841 28.28 30.728H279l-28.255-33.859a.626.626 0 0 0-.944-.019l-.02.019-28.254 33.859h-93.527v9.131l66.11-5.98V165h27.417v-.13a.46.46 0 0 0 .318.13h16.15a.46.46 0 0 1-.461-.46v-8.242a.46.46 0 0 1 .46-.46h-.243a.622.622 0 0 1-.217-.47V99.85c0-.345.28-.626.627-.626M275 158.5c0-.276-.206-.5-.46-.5H243.46c-.254 0-.459.224-.459.5s.205.5.459.5h31.082c.253 0 .459-.224.459-.5M281 161.5c0-.276-.206-.5-.46-.5H249.46c-.254 0-.459.224-.459.5s.205.5.459.5h31.082c.253 0 .459-.224.459-.5M286.54 164h-31.082c-.253 0-.459.224-.459.5s.206.5.459.5h31.082c.254 0 .46-.224.46-.5s-.206-.5-.46-.5" fill="#E99462" mask="url(#h)"/><path fill="#D76230" mask="url(#h)" d="M128 5h-12v12l12-6.493zM221 71h-27v9l27-5.895zM194 157.19h27v-.38h-27zM34 157.19h94v-.38H34zM80.519 15.225 34 71h2.258l42.807-50.331a.627.627 0 0 1 .936-.022L126.922 71H128L81.482 15.224a.627.627 0 0 0-.963 0"/><path d="M70.192 45C67.066 47.055 65 50.565 65 54.543 65 60.861 70.205 66 76.602 66c2.363 0 4.562-.702 6.398-1.906a11.678 11.678 0 0 1-4.344.646c-.158.007-.316.012-.474.012-6.398 0-11.602-5.139-11.602-11.457 0-3.261 1.39-6.207 3.612-8.295M63 93.754v30.624c0 .343.281.622.627.622H86.97c.333 0 .652-.131.888-.365L90 122.512H66.137a.625.625 0 0 1-.628-.622V91.083c0-.028.005-.056.009-.083l-2.335 2.314a.618.618 0 0 0-.183.44M128 127.39a23.015 23.015 0 0 0-10.218-2.39c-8.451 0-15.673 6.036-17.101 14.291l-.532 3.077a4.965 4.965 0 0 1-2.682 3.592l-4.018 2.007c-4.567 2.28-7.449 6.917-7.449 11.986A8.41 8.41 0 0 0 87.677 165H128v-37.61z" fill="#D76230" mask="url(#h)"/><path d="M95 160.52v-1.91a15.57 15.57 0 0 1 8.54-13.901l2.939-1.485a5.023 5.023 0 0 0 2.684-3.638l.533-3.116c1.429-8.36 8.658-14.472 17.118-14.472a22.87 22.87 0 0 1 19.157 10.393l6.767 10.384a13.748 13.748 0 0 0 11.516 6.247h6.67c2.828 0 5.584.908 7.86 2.592l5.025 3.714a5.406 5.406 0 0 1 2.19 4.348v1.272c0 2.79-2.254 5.05-5.036 5.05h-80.5c-3.017 0-5.463-2.453-5.463-5.478" fill="#0097B8" mask="url(#h)"/><path d="M162.59 161.25v-.279c0-.935-.387-1.83-1.07-2.473l-6.956-6.55a13.97 13.97 0 0 0-9.576-3.79h-8.59c-2.864 0-5.679-.729-8.178-2.115l-1.85-1.027c-4.935-2.74-7.635-8.236-6.769-13.784l.77-4.935a4.08 4.08 0 0 0-.927-3.297c-4.998 2.346-8.737 6.997-9.722 12.706l-.534 3.09a4.94 4.94 0 0 1-.46 1.373l-.11.738c-.565 3.788-3.382 6.86-7.128 7.773l-.177.043a9.106 9.106 0 0 0-5.423 3.79 15.33 15.33 0 0 0-.894 5.157v1.895c0 3.002 2.451 5.435 5.475 5.435h11.22l.032-.612c.12-2.322 2.077-4.13 4.419-4.08l2.598.056a4.633 4.633 0 0 0 4.18-2.43l.516-.956a5.177 5.177 0 0 1 4.223-2.706l2.606-.17c2.88-.19 5.529 1.57 6.452 4.286l.57 1.677a3.737 3.737 0 0 1-1.384 4.251l-.965.684h32.058l-1.076-.104a3.673 3.673 0 0 1-3.33-3.645M182.92 160.77h-4.434a4.625 4.625 0 0 1-3.207-1.305l-.498-.48a3.483 3.483 0 0 0-2.417-.984c-1.453 0-2.759.918-3.297 2.317l-.845 2.196a3.305 3.305 0 0 0 .7 3.487h12.6c1.94 0 3.623-1.13 4.476-2.788-.364-1.377-1.57-2.443-3.078-2.443" fill="#00547A" mask="url(#h)"/></g></g></svg>