<?xml version="1.0" encoding="UTF-8"?>
<svg version="1.1" viewBox="0 0 420 420" xmlns="http://www.w3.org/2000/svg" xmlns:xlink="http://www.w3.org/1999/xlink">
<title>5. Elements_Illustrations/2.Vector/Classic house</title>
<defs>
<polygon id="e" points="3.5877e-14 0 68 0 68 35 3.5877e-14 35"/>
<polygon id="d" points="0 0 22 0 22 19 0 19"/>
<polygon id="c" points="0 0 56 0 56 29 0 29"/>
<polygon id="b" points="0 165 314 165 314 0 0 0"/>
</defs>
<g fill="none" fill-rule="evenodd">
<g transform="translate(72 41)" fill="#B8DDFF" opacity=".59073">
<rect id="Rectangle" x="92" y="52" width="184" height="33" rx="16.5"/>
<rect id="i" y="69" width="184" height="33" rx="16.5"/>
<rect x="53" width="85" height="33" rx="16.5"/>
</g>
<g transform="translate(53 210)">
<g transform="translate(246 131)">
<mask id="h" fill="white">
<use xlink:href="#e"/>
</mask>
<path d="m6.3289 35c-3.4954 0-6.3289-2.8438-6.3289-6.3517v-2.2683c0-1.6371 0.30769-3.2593 0.90698-4.7821l0.72646-1.8465c2.0238-5.1435 6.968-8.5282 12.478-8.5425l3.0684-0.0082347c1.8518-0.014252 3.5888-0.90327 4.6882-2.3988l2.1254-2.8907c2.7335-3.7179 7.0646-5.9121 11.669-5.9112h1.4097c5.5725 9.5046e-4 10.458 3.7366 11.939 9.1281 0.95621 3.4813 3.626 6.2263 7.0706 7.2699 0.57151 0.17293 1.1361 0.34427 1.6653 0.50421 1.9695 0.59669 3.6648 1.8721 4.7886 3.6014l4.7053 7.2401c0.49546 0.76234 0.75928 1.6533 0.75928 2.5635 0 2.5917-2.0939 4.6928-4.6763 4.6928h-56.995z" fill="#0097B8" mask="url(#h)"/>
</g>
<path d="m274.81 162.51c-0.13375-1.9559-1.2754-3.6953-3.0051-4.5788l-5.7646-2.9436c-3.2694-1.6697-5.2089-5.1809-4.9013-8.873 0.187-2.2423 1.9924-3.9954 4.2151-4.0911l6.2009-0.26746c2.8074-0.12137 5.4523-1.3652 7.3536-3.4579l2.2264-2.4512c1.391-1.5312 0.99636-3.7368-0.39529-4.8431-4.3219 0.19933-8.3412 2.3542-10.924 5.8952l-2.1096 2.8923c-1.0913 1.4961-2.8153 2.3856-4.6536 2.4002l-3.0452 0.007923c-5.4689 0.01426-10.376 3.4012-12.385 8.5476l-0.72136 1.8472c-0.5945 1.5239-0.89989 3.1471-0.89989 4.7851v2.2696c0 3.5099 2.8124 6.355 6.2817 6.355h20.569c1.2391-0.64108 2.061-1.9828 1.9576-3.4938" fill="#00547A"/>
<path d="m269.53 146c-1.263 0-1.9823 1.5239-1.2215 2.5888 1.31 1.8334 3.3588 2.9109 5.5339 2.9109 1.885 0 3.5748 1.2269 4.2499 3.0845l0.36547 1.0053c0.30842 0.84972 1.0812 1.4105 1.943 1.4105h0.37401c1.7795 0 3.2221-1.5232 3.2221-3.4021 0-4.1961-3.2215-7.5979-7.196-7.5979h-7.271z" fill="#00547A"/>
<g transform="translate(284 146)">
<mask id="g" fill="white">
<use xlink:href="#d"/>
</mask>
<path d="m7.3618 17.262 0.78061-1.9645c0.685-1.7237 2.3642-2.8568 4.2337-2.8568 2.1036 0 3.9447-1.4001 4.4883-3.4137l0.77209-2.8584c0.56479-2.0905 2.2633-3.6648 4.3634-4.115-0.63894-0.39052-1.3303-0.70162-2.0597-0.91987-0.52914-0.15821-1.0936-0.32705-1.6647-0.49808-0.56006-0.16728-1.0968-0.38333-1.6114-0.63565-2.2002 1.0578-4.0094 2.8703-5.0153 5.2006l-0.58088 1.346c-0.7926 1.836-2.5466 3.0854-4.5549 3.2442l-1.4811 0.11756c-1.9279 0.15321-3.556 1.4789-4.0813 3.323l-0.85255 2.9944c-0.31079 1.0918 0.14293 2.1758 0.98886 2.7743h4.7688c0.67049-0.38708 1.2091-0.99053 1.506-1.7381" fill="#00547A" mask="url(#g)"/>
</g>
<path d="m5.2119 166c-2.8785 0-5.2119-2.3565-5.2119-5.2627v-1.8796c0-1.3565 0.25323-2.7006 0.74684-3.9626l0.5981-1.5298c1.6666-4.2614 5.7384-7.0662 10.276-7.0783l2.5267-0.006337c1.5251-0.01204 2.9557-0.74873 3.861-1.988l1.7504-2.3948c2.2512-3.0808 5.8178-4.8986 9.6094-4.898h1.1611c4.5893 9.51e-4 8.6128 3.0957 9.8322 7.5631 0.78732 2.8847 2.9861 5.1591 5.8228 6.0238 0.4707 0.14354 0.93574 0.28517 1.3713 0.41793 1.622 0.4943 3.0181 1.551 3.9438 2.9842l3.8748 5.9987c0.40825 0.63181 0.6254 1.3698 0.6254 2.1242 0 2.1473-1.7243 3.8882-3.8512 3.8882h-46.937z" fill="#0097B8"/>
<g transform="translate(0 137)">
<mask id="f" fill="white">
<use xlink:href="#c"/>
</mask>
<path d="m55.375 22.988-3.8751-5.9993c-0.92539-1.4325-2.3215-2.4892-3.9435-2.9838-0.43587-0.13276-0.9006-0.2744-1.3713-0.41761-2.8367-0.8647-5.0355-3.1394-5.8228-6.024-1.2197-4.467-5.2433-7.5621-9.8322-7.563h-1.1611c-0.16474 0-0.32855 0.0079214-0.49266 0.014575v0.052281c-0.020711-0.017427-0.042363-0.03327-0.063701-0.05038-3.582 0.16793-6.9127 1.9521-9.0534 4.8815l-1.7501 2.3951c-0.90562 1.2392-2.3362 1.9756-3.8613 1.9876l-2.5267 0.006654c-4.5378 0.01204-8.6094 2.8165-10.276 7.0782l-0.59841 1.5298c-0.49329 1.2617-0.74684 2.6058-0.74684 3.9626v1.8793c0 2.9065 2.3337 5.263 5.2122 5.263h17.067c1.0283-0.53105 1.7102-1.6423 1.6245-2.8935-0.11077-1.6194-1.0584-3.0599-2.4938-3.7915l-4.7826-2.4379c-2.7128-1.3828-4.3219-4.2902-4.0668-7.3479 0.15502-1.8571 1.6531-3.3083 3.4973-3.3878l5.145-0.22148c2.3293-0.10044 4.524-1.1305 6.1015-2.8637l1.5724-1.7278v9.7544c-1.0123-0.74588-2.2559-1.1911-3.6052-1.1911h-6.1944c-1.076 0-1.6885 1.2418-1.0406 2.109 1.1159 1.4937 2.8615 2.3717 4.7145 2.3717 1.6057 0 3.0454 0.99936 3.6206 2.513l0.31097 0.81907c0.26296 0.69233 0.92131 1.1489 1.6553 1.1489h0.31882c0.07437 0 0.14717-0.0053865 0.21997-0.01109v7.1577h23.273c2.1269 0 3.8509-1.7411 3.8509-3.8884 0-0.75443-0.21715-1.4924-0.62509-2.1239" fill="#00547A" mask="url(#f)"/>
</g>
<path d="m129.85 69.975-48.371-57.751c-0.25117-0.29957-0.71365-0.29957-0.96482 0l-48.371 57.751c-0.34097 0.40703-0.049921 1.0246 0.48225 1.0246h1.2756l46.613-55.652c0.25117-0.29988 0.71365-0.29988 0.96482 0l46.613 55.652h1.276c0.53249 0 0.82322-0.61757 0.48225-1.0246" fill="#00547A"/>
<path d="m80.518 15.226-46.518 55.804v93.97h94v-93.97l-46.519-55.804c-0.25067-0.3007-0.71221-0.3007-0.96287 0" fill="#E99462"/>
<path d="m194.02 69.964 30.278-36.632c0.11871-0.144 0.29505-0.22737 0.4811-0.22737h7.2162l-18.083-21.878c-0.11902-0.144-0.29536-0.22737-0.4811-0.22737h-131.66c-0.18605 0-0.36239 0.083368-0.48142 0.22737l-0.29317 0.35495c0.25026-0.30284 0.71194-0.30284 0.96252 0l48.255 58.382c0.33984 0.41116 0.049802 1.0358-0.4811 1.0358h64.769c-0.53122 0-0.82126-0.62432-0.48142-1.0358" fill="#0097B8"/>
<path d="m224.31 33.228-30.16 36.733c-0.33852 0.41262-0.049608 1.0387 0.47955 1.0387h26.027c-0.52916 0-0.81807-0.62605-0.47955-1.0387l29.868-36.377c0.2496-0.30368 0.70918-0.30368 0.95879 0l-0.29235-0.35593c-0.11856-0.1444-0.29422-0.228-0.47924-0.228h-18.255-7.1879c-0.18533 0-0.36099 0.0836-0.47955 0.228" fill="#00547A"/>
<path d="m280.85 69.979-29.875-35.755c-0.24966-0.29849-0.70934-0.29849-0.959 0l-29.875 35.755c-0.3386 0.40556-0.04962 1.0209 0.47934 1.0209h1.2683l28.127-33.664c0.24966-0.2988 0.70934-0.2988 0.959 0l28.127 33.664h1.268c0.52928 0 0.81826-0.61534 0.47966-1.0209" fill="#0097B8"/>
<path d="m249.78 37.225-28.255 33.859h-1.2737-26.152-64.826-1.274v93.916h150.48v-93.916h0.5226l-28.256-33.859c-0.2508-0.30053-0.71257-0.30053-0.96337 0" fill="#EACBAC"/>
<path d="m141.38 1h-26.752c-0.34467 0-0.62384 0.2781-0.62384 0.62075v3.7146c0 0.34265 0.27917 0.62075 0.62384 0.62075h1.4651v14.38c0 0.15953 0.061761 0.31317 0.17249 0.42863l11.554 12.043c0.1176 0.12291 0.28073 0.19212 0.45135 0.19212h11.021c0.34436 0 0.62384-0.27779 0.62384-0.62075v-26.423h1.4648c0.34436 0 0.62384-0.2781 0.62384-0.62075v-3.7146c0-0.34265-0.27948-0.62075-0.62384-0.62075" fill="#E99462"/>
<path d="m141.38 1h-12.752c-0.34436 0-0.62384 0.2781-0.62384 0.62075v3.7146c0 0.34265 0.27948 0.62075 0.62384 0.62075h-0.62384v26.423c0 0.34296 0.27948 0.62075 0.62384 0.62075h10.664c0.34436 0 0.62384-0.27779 0.62384-0.62075v-26.423h1.4648c0.34436 0 0.62384-0.2781 0.62384-0.62075v-3.7146c0-0.34265-0.27948-0.62075-0.62384-0.62075" fill="#EACBAC"/>
<path d="m98.563 33h29.437c-0.17334 0-0.33908-0.072475-0.45855-0.20085l-11.739-12.611c-0.051338-0.05525-0.09095-0.1196-0.12042-0.1885h-27.682l10.563 13z" fill="#00547A"/>
<path d="m89 53.5c0 5.7987-4.701 10.5-10.5 10.5-5.7988 0-10.5-4.7013-10.5-10.5 0-5.7991 4.701-10.5 10.5-10.5 5.7991 0 10.5 4.7009 10.5 10.5" fill="#AA391B"/>
<path d="m91 53.5c0-6.341-5.172-11.5-11.529-11.5-0.15791 0-0.31456 0.0056365-0.4709 0.011899 6.1395 0.24769 11.058 5.3046 11.058 11.488s-4.9187 11.24-11.058 11.488c0.15634 0.0062628 0.31299 0.011899 0.4709 0.011899 1.3486 0 2.6427-0.23423 3.8463-0.66072 4.4713-1.5832 7.6828-5.8432 7.6828-10.839" fill="#EACBAC"/>
<path d="m79 54v9c0.33867-0.031984 0.672-0.082245 1-0.14621v-8.8538h-1z" fill="#D76230"/>
<path d="m79 44v9h1v-8.8538c-0.328-0.063969-0.66133-0.1139-1-0.14621" fill="#D76230"/>
<path d="m69 53h0.97911c0.43016-4.4174 3.7386-8.0036 8.0209-8.8554v-0.14458c-4.749 0.46247-8.5375 4.251-9 9" fill="#D76230"/>
<path d="m69.979 54h-0.97911c0.46247 4.749 4.251 8.5375 9 9v-0.14458c-4.2823-0.85183-7.5907-4.438-8.0209-8.8554" fill="#D76230"/>
<path d="m87.703 50.721c0.17943 0.59246 0.3097 1.2056 0.3717 1.8397h-7.6961-0.93943v-8.6351c0.31815 0.030688 0.6313 0.078911 0.93943 0.14029 0.99141 0.19728 1.9268 0.55018 2.7838 1.0271 2.1629 1.2037 3.8106 3.2172 4.5406 5.628zm-8.2638 12.354v-8.6351h0.93943 7.6961c-0.41272 4.2383-3.5874 7.6781-7.6961 8.4948-0.30813 0.061375-0.62127 0.1096-0.93943 0.14029zm-1.8789-19.01v8.4964h-7.6958-0.93943c0.44372-4.5565 4.079-8.1914 8.6352-8.6351v0.13872zm0 18.872v0.13872c-4.5562-0.44372-8.1915-4.0786-8.6352-8.6351h0.93943 7.6958v8.4964zm-10.56-9.4358c0 6.341 5.1587 11.5 11.5 11.5 0.15751 0 0.31377-0.0056365 0.46971-0.011899 6.1241-0.24769 11.03-5.3046 11.03-11.488s-4.9063-11.24-11.03-11.488c-0.15594-0.0062628-0.3122-0.011899-0.46971-0.011899-3.0672 0-5.8555 1.2097-7.9194 3.1737-2.203 2.0961-3.5805 5.0525-3.5805 8.3263z" fill="#E99462"/>
<mask id="a" fill="white">
<use xlink:href="#b"/>
</mask>
<polygon points="128 157.19 194 157.19 194 156.81 128 156.81" fill="#E99462" mask="url(#a)"/>
<polygon points="222 157.19 279 157.19 279 156.81 222 156.81" fill="#E99462" mask="url(#a)"/>
<path d="m239.44 155.37v-55.743c0-0.34702 0.24941-0.62867 0.55672-0.62867h-1.4433c-0.30758 0-0.55672 0.28164-0.55672 0.62867v55.743c0 0.34702 0.24913 0.62867 0.55672 0.62867h1.4433c-0.30731 0-0.55672-0.28164-0.55672-0.62867" fill="#D76230" mask="url(#a)"/>
<path d="m263.49 129.41c-0.56781 0-1.0282-0.4796-1.0282-1.0715 0-0.11795 0.022734-0.22916 0.056317-0.33553-0.31077 0.18473-0.52312 0.52888-0.52312 0.9285 0 0.59162 0.46035 1.0715 1.0282 1.0715 0.45492 0 0.83622-0.30968 0.97184-0.7365-0.14983 0.088865-0.32059 0.14353-0.50504 0.14353" fill="#D76230" mask="url(#a)"/>
<path d="m263 127c-0.44252 0-0.81342 0.28898-0.94534 0.68702-0.032668 0.099259-0.054781 0.20304-0.054781 0.31285 0 0.55258 0.4478 1.0001 1.0001 1.0001 0.17942 0 0.34552-0.051011 0.49127-0.13394 0.3023-0.17188 0.50861-0.49328 0.50861-0.86619 0-0.55233-0.44754-0.99987-0.99987-0.99987" fill="#EACBAC" mask="url(#a)"/>
<path d="m274.21 127.86c-0.12844 0.10583-0.26693 0.19972-0.41421 0.2798 0.14728-0.080077 0.28577-0.17397 0.41421-0.2798" fill="#D76230" mask="url(#a)"/>
<path d="m275.12 126.78c-0.065633 0.15544-0.14602 0.30335-0.23961 0.44153 0.093581-0.13817 0.17397-0.28608 0.23961-0.44153" fill="#D76230" mask="url(#a)"/>
<path d="m269 120.66v5.6839c0 1.4682 1.0589 2.6582 2.3652 2.6582h0.63475c-1.3061 0-2.365-1.19-2.365-2.6582v-5.6839c0-1.4679 1.0589-2.6579 2.365-2.6579h-0.63475c-0.42384 0-0.82052 0.12655-1.1643 0.34593-0.71649 0.45674-1.2009 1.3201-1.2009 2.312" fill="#D76230" mask="url(#a)"/>
<path d="m274.26 125.64c0 1.0375-0.76476 1.879-1.7082 1.879h-0.10541c-0.030076 0-0.059569-0.003212-0.089061-0.005139-0.90171-0.05107-1.6195-0.86916-1.6195-1.8739v-4.2713c0-1.0047 0.71775-1.8228 1.6195-1.8742 0.029492-0.001606 0.058985-0.004818 0.089061-0.004818h0.10541c0.94347 0 1.7082 0.84121 1.7082 1.879v4.2713zm-1.6776-7.6355h-0.16703c-1.3345 0-2.4163 1.19-2.4163 2.6579v5.6839c0 1.4682 1.0819 2.6582 2.4163 2.6582h0.16703c0.10687 0 0.21083-0.010278 0.31391-0.025374 0.29989-0.042398 0.58313-0.14325 0.83805-0.2955 0.13695-0.081905 0.26602-0.17794 0.38545-0.28618 0.179-0.16253 0.33639-0.353 0.46662-0.56498 0.087018-0.14133 0.16148-0.29261 0.2228-0.4516 0.12235-0.31798 0.1898-0.66744 0.1898-1.0346v-5.6839c0-1.4679-1.0819-2.6579-2.4166-2.6579z" fill="#ED985A" mask="url(#a)"/>
<path d="m250.35 103h-6.7035c-0.35816 0-0.64825 0.28493-0.64825 0.63601v0.31006c0.044729-0.00954 0.090754-0.014947 0.13808-0.014947h6.7035c0.35816 0 0.64825 0.2843 0.64825 0.63601v21.433c0.29171-0.062011 0.51017-0.3161 0.51017-0.62043v-21.744c0-0.35108-0.29041-0.63601-0.64825-0.63601" fill="#D76230" mask="url(#a)"/>
<path d="m260.35 103h-6.7035c-0.35816 0-0.64825 0.28493-0.64825 0.63601v0.31006c0.044729-0.00954 0.090754-0.014947 0.13808-0.014947h6.7035c0.35816 0 0.64825 0.2843 0.64825 0.63601v21.433c0.29171-0.062011 0.51017-0.3161 0.51017-0.62043v-21.744c0-0.35108-0.29041-0.63601-0.64825-0.63601" fill="#D76230" mask="url(#a)"/>
<path d="m250.35 129h-6.7035c-0.35816 0-0.64825 0.28493-0.64825 0.63601v0.31006c0.044729-0.00954 0.090754-0.015265 0.13808-0.015265h6.7035c0.35816 0 0.64825 0.28462 0.64825 0.63601v21.433c0.29171-0.062011 0.51017-0.3161 0.51017-0.62043v-21.744c0-0.35108-0.29041-0.63601-0.64825-0.63601" fill="#D76230" mask="url(#a)"/>
<path d="m260.35 129h-6.7035c-0.35816 0-0.64825 0.28493-0.64825 0.63601v0.31006c0.044729-0.00954 0.090754-0.015265 0.13808-0.015265h6.7035c0.35816 0 0.64825 0.28462 0.64825 0.63601v21.433c0.29171-0.062011 0.51017-0.3161 0.51017-0.62043v-21.744c0-0.35108-0.29041-0.63601-0.64825-0.63601" fill="#D76230" mask="url(#a)"/>
<path d="m263.78 128.65c-0.16734 0.49822-0.63779 0.8597-1.1991 0.8597-0.70026 0-1.2683-0.56014-1.2683-1.2507 0-0.46647 0.26168-0.86819 0.64544-1.0835 0.16734-0.4979 0.63779-0.8597 1.1988-0.8597 0.70058 0 1.2686 0.55983 1.2686 1.251 0 0.46616-0.26168 0.86819-0.64544 1.0832zm-2.7619-3.4435c0 0.30082-0.21483 0.55197-0.50169 0.61326v-21.185c0-0.34765-0.28527-0.62867-0.63747-0.62867h-6.5921c-0.046536 0-0.091796 0.005344-0.13578 0.014774v-0.30648c0-0.34702 0.28527-0.62867 0.63747-0.62867h6.5921c0.35188 0 0.63747 0.28164 0.63747 0.62867v21.493zm0 26.071c0 0.30082-0.21483 0.55197-0.50169 0.61358v-21.186c0-0.34702-0.28527-0.62867-0.63747-0.62867h-6.5921c-0.046536 0-0.091796 0.005972-0.13578 0.015088v-0.30648c0-0.34702 0.28527-0.62867 0.63747-0.62867h6.5921c0.35188 0 0.63747 0.28164 0.63747 0.62867v21.493zm-10.173-26.071c0 0.30082-0.21483 0.55197-0.50169 0.61326v-21.185c0-0.34765-0.28527-0.62867-0.63747-0.62867h-6.5921c-0.046536 0-0.091797 0.005344-0.13578 0.014774v-0.30648c0-0.34702 0.28527-0.62867 0.63747-0.62867h6.5921c0.35189 0 0.63747 0.28164 0.63747 0.62867v21.493zm0 26.071c0 0.30082-0.21483 0.55197-0.50169 0.61358v-21.186c0-0.34702-0.28527-0.62867-0.63747-0.62867h-6.5921c-0.046536 0-0.091797 0.005972-0.13578 0.015088v-0.30648c0-0.34702 0.28527-0.62867 0.63747-0.62867h6.5921c0.35189 0 0.63747 0.28164 0.63747 0.62867v21.493zm13.515-52.282h-1.653-20.394-2.6783c-0.35189 0-0.63747 0.28164-0.63747 0.62867v55.743c0 0.34734 0.28559 0.62867 0.63747 0.62867h2.2088 20.863 1.653c0.35189 0 0.63747-0.28133 0.63747-0.62867v-55.743c0-0.34702-0.28559-0.62867-0.63747-0.62867z" fill="#ED985A" mask="url(#a)"/>
<path d="m272.2 119h-0.1108c-0.031615 0-0.062308 0.00352-0.093616 0.00512 0.94782 0.051205 1.7017 0.86631 1.7017 1.8674v4.2554c0 1.001-0.75384 1.8161-1.7017 1.867 0.031308 0.00192 0.062001 0.00512 0.093616 0.00512h0.1108c0.99171 0 1.7956-0.83815 1.7956-1.8722v-4.2554c0-1.0343-0.80387-1.8725-1.7956-1.8725" fill="#D76230" mask="url(#a)"/>
<path d="m273.39 122.98v0.039732 0.035888c0 0.26371-0.10929 0.49537-0.27592 0.6402-0.14229 0.22109-0.36438 0.3656-0.61704 0.3656h-0.25807c-0.43039 0-0.77908-0.41302-0.77908-0.92282v-0.06857c0-0.50979 0.34869-0.92282 0.77908-0.92282h0.19423 0.063841 0.1899c0.00541 0 0.010009 0.001602 0.015419 0.001922 0.00514-3.2e-4 0.010009-0.001922 0.015149-0.001922 0.37142 0 0.6725 0.35695 0.6725 0.79689v0.035887zm0.60866 2.1504v-4.261c0-1.0023-0.66465-1.8184-1.4997-1.8697-0.83562 0.051268-1.5003 0.86738-1.5003 1.8697v4.261c0 1.0023 0.66465 1.8184 1.5003 1.8693 0.83508-0.050947 1.4997-0.86706 1.4997-1.8693z" fill="#EACBAC" mask="url(#a)"/>
<path d="m272.5 123.78c-0.006215 0-0.012102 0.002009-0.018316 0.002009h-0.30711c-0.46934 0-0.84971-0.38942-0.84971-0.87025v-0.04152c0-0.4805 0.38038-0.86992 0.84971-0.86992h-0.23483c-0.52036 0-0.94195 0.43161-0.94195 0.964v0.071655c0 0.53273 0.42159 0.96434 0.94195 0.96434h0.31235c0.30515 0 0.574-0.15101 0.74571-0.38172-0.13442 0.10146-0.29959 0.1634-0.47948 0.1634-0.006214 0-0.012101-0.002009-0.018315-0.002009" fill="#E99462" mask="url(#a)"/>
<path d="m272 122.98v0.0466c0 0.53965 0.32368 0.9767 0.72307 0.9767h0.26134c0.005288 0 0.010298-0.002255 0.015586-0.002255-0.3749-0.011274-0.67632-0.42352-0.67632-0.93236v-0.13078c0-0.50921 0.30142-0.92108 0.67632-0.93236-0.005288-3.76e-4 -0.010298-0.002255-0.015586-0.002255h-0.19566-0.065683c-0.39939 0-0.72307 0.43705-0.72307 0.9767" fill="#D76230" mask="url(#a)"/>
<path d="m273 122c-0.007643 0-0.014883 0.001879-0.022526 0.002255-0.54183 0.011276-0.97747 0.42323-0.97747 0.93216v0.13118c0 0.50855 0.43564 0.92088 0.97747 0.93216 0.007643 0 0.014883 0.002255 0.022526 0.002255 0.22124 0 0.42438-0.06916 0.5897-0.18342 0.24779-0.16989 0.4103-0.44202 0.4103-0.75099v-0.042097-0.046608-0.042473c0-0.51607-0.44771-0.93441-1-0.93441" fill="#ED985A" mask="url(#a)"/>
<path d="m89.377 122h-21.754c-0.34426 0-0.62309-0.27693-0.62309-0.61816v-28.764c0-0.34153 0.27883-0.61816 0.62309-0.61816h21.754c0.34394 0 0.62309 0.27662 0.62309 0.61816v28.764c0 0.34122-0.27914 0.61816-0.62309 0.61816" fill="#FC95A4" mask="url(#a)"/>
<path d="m68 92.637v27.726c0 0.3519 0.29867 0.63692 0.66667 0.63692h0.33333 1c-0.368 0-0.66667-0.28502-0.66667-0.63692v-27.726c0-0.35158 0.29867-0.63692 0.66667-0.63692h-1-0.33333c-0.368 0-0.66667 0.28534-0.66667 0.63692" fill="#D76230" mask="url(#a)"/>
<path d="m80.333 120.36v-27.726c0-0.3519 0.29867-0.63692 0.66667-0.63692h-1.3333c-0.368 0-0.66667 0.28502-0.66667 0.63692v27.726c0 0.35158 0.29867 0.63692 0.66667 0.63692h1.3333c-0.368 0-0.66667-0.28534-0.66667-0.63692" fill="#D76230" mask="url(#a)"/>
<path d="m91.333 91h-1.3333c0.368 0 0.66667 0.2782 0.66667 0.62098v30.576 0.18164c0 0.34309-0.29867 0.62098-0.66667 0.62098h0.081 1.2523c0.368 0 0.66667-0.27789 0.66667-0.62098v-30.758c0-0.34278-0.29867-0.62098-0.66667-0.62098" fill="#EACBAC" mask="url(#a)"/>
<path d="m68.505 92.863h0.31318 0.93954 7.1759c0.34607 0 0.62636 0.2782 0.62636 0.62098v27.032c0 0.34309-0.2803 0.62098-0.62636 0.62098h-7.1759-0.93954-0.31318c-0.34575 0-0.62636-0.27789-0.62636-0.62098v-27.032c0-0.34278 0.28061-0.62098 0.62636-0.62098zm20.615 0.62098v27.032c0 0.34309-0.2803 0.62098-0.62636 0.62098h-7.1759-1.2527c-0.34575 0-0.62636-0.27789-0.62636-0.62098v-27.032c0-0.34278 0.28061-0.62098 0.62636-0.62098h1.2527 7.1759c0.34607 0 0.62636 0.2782 0.62636 0.62098zm-23.121 28.895c0 0.34309 0.28061 0.62098 0.62636 0.62098h1.2527 0.93954 21.555c0.34607 0 0.62636-0.27789 0.62636-0.62098v-0.18164-30.576c0-0.34278-0.2803-0.62098-0.62636-0.62098h-21.555-0.93954-1.0692-0.18352c-0.31694 0-0.57625 0.23442-0.61791 0.53715-0.0037582 0.027944-0.0084559 0.055267-0.0084559 0.083832v30.758z" fill="#E99462" mask="url(#a)"/>
<path d="m151.62 122h21.754c0.34426 0 0.62309-0.27693 0.62309-0.61816v-28.764c0-0.34153-0.27883-0.61816-0.62309-0.61816h-21.754c-0.34394 0-0.62309 0.27662-0.62309 0.61816v28.764c0 0.34122 0.27914 0.61816 0.62309 0.61816" fill="#FAD1C5" mask="url(#a)"/>
<path d="m171.67 92.637v27.726c0 0.3519-0.29867 0.63692-0.66667 0.63692h1 0.33333c0.368 0 0.66667-0.28502 0.66667-0.63692v-27.726c0-0.35158-0.29867-0.63692-0.66667-0.63692h-0.33333-1c0.368 0 0.66667 0.28534 0.66667 0.63692" fill="#D76230" mask="url(#a)"/>
<polygon points="160 121 161 121 161 92 160 92" fill="#D76230" mask="url(#a)"/>
<path d="m149 94.18v28.199c0 0.34309 0.29867 0.62098 0.66667 0.62098h1.3333c-0.368 0-0.66667-0.27789-0.66667-0.62098v-30.758c0-0.34309 0.29867-0.62098 0.66667-0.62098h-1.138-0.19533c-0.33733 0-0.61333 0.23442-0.65767 0.53715-4e-3 0.027944-9e-3 0.055267-9e-3 0.083832v2.5591z" fill="#D76230" mask="url(#a)"/>
<path d="m173.12 120.52c0 0.34278-0.28061 0.62098-0.62636 0.62098h-0.31318-0.93954-7.8023v-28.274h7.8023 0.93954 0.31318c0.34575 0 0.62636 0.27789 0.62636 0.62098v27.032zm-20.615 0.62098c-0.34606 0-0.62636-0.2782-0.62636-0.62098v-27.032c0-0.34309 0.2803-0.62098 0.62636-0.62098h7.8023 1.2527v28.274h-1.2527-7.8023zm21.868-30.137h-1.2527-0.93954-21.555c-0.34606 0-0.62636 0.27789-0.62636 0.62098v30.758c0 0.34278 0.2803 0.62098 0.62636 0.62098h19.913 1.6417 0.93954 0.076103 1.1766c0.34575 0 0.62636-0.2782 0.62636-0.62098v-30.758c0-0.34309-0.28061-0.62098-0.62636-0.62098z" fill="#ED985A" mask="url(#a)"/>
<path d="m254.55 164.55v-2.0959c0-0.24973 0.20265-0.45209 0.45243-0.45209h-5.54c-0.25008 0-0.45243-0.20206-0.45243-0.45209v-2.0956c0-0.25003 0.20234-0.45209 0.45243-0.45209h-5.4695c-0.25008 0-0.45273-0.20236-0.45273-0.45209v-2.0959c0-0.24973 0.20265-0.45209 0.45243-0.45209h-5.5375c-0.25008 0-0.45273 0.20236-0.45273 0.45209v8.0958c0 0.24973 0.20265 0.45209 0.45273 0.45209h16.547c-0.24977 0-0.45243-0.20236-0.45243-0.45209" fill="#D76230" mask="url(#a)"/>
<path d="m286.54 162h-5.5966c0.25233 0 0.45705-0.20206 0.45705-0.45209v-2.0956c0-0.25003-0.20472-0.45209-0.45705-0.45209h-5.5257c0.25264 0 0.45736-0.20236 0.45736-0.45209v-2.0959c0-0.24973-0.20472-0.45209-0.45736-0.45209h-30.963-3.12e-4c-0.25233 0-0.45674 0.20236-0.45674 0.45209v2.0959c0 0.24973 0.20441 0.45209 0.45705 0.45209h5.5254c-0.25233 0-0.45705 0.20206-0.45705 0.45209v2.0956c0 0.25003 0.20472 0.45209 0.45705 0.45209h5.5966c-0.25233 0-0.45705 0.20236-0.45705 0.45209v2.0959c0 0.24973 0.20472 0.45209 0.45705 0.45209h2.5286 28.435c0.25264 0 0.45736-0.20236 0.45736-0.45209v-2.0959c0-0.24973-0.20472-0.45209-0.45736-0.45209" fill="#EACBAC" mask="url(#a)"/>
<path d="m252 64c-6.6276 0-12 5.4475-12 12.166v8.8337h24v-8.8337c0-6.7189-5.3724-12.166-12-12.166" fill="#AA391B" mask="url(#a)"/>
<path d="m238 76.174v9.193c0 0.34944 0.28732 0.63248 0.64133 0.63248h0.962c-0.35402 0-0.64133-0.28303-0.64133-0.63248v-8.9597c0-7.1887 5.8182-13.223 13.038-13.401v-0.0069572h-0.64101c-0.30496 0-0.60638 0.013914-0.90653 0.033521-6.9546 0.46013-12.452 6.1657-12.452 13.141" fill="#D76230" mask="url(#a)"/>
<path d="m258.74 67.969c-1.4479-1.0085-3.1548-1.6984-5.0061-1.9623-0.15911-0.022472-0.31025 0.01488-0.4346 0.09019 1.6498 0.31126 3.1736 0.95929 4.4841 1.8721 0.32364 0.22502 0.34756 0.6781 0.053249 0.93743l-4.8374 4.2529v0.84086l5.794-5.0938c0.29431-0.25933 0.27039-0.71241-0.053249-0.93743" fill="#D76230" mask="url(#a)"/>
<path d="m249 85h1.2c0.4416 0 0.8-0.29681 0.8-0.66253v-7.3375h-1.2v7.3375c0 0.36571-0.3584 0.66253-0.8 0.66253" fill="#D76230" mask="url(#a)"/>
<path d="m262.04 74.294c0.084156 0.36308-0.22051 0.70565-0.62168 0.70565h0.94912c0.40116 0 0.70583-0.34257 0.62168-0.70565-0.34706-1.4974-1.0415-2.8765-2.0014-4.0616-0.22463-0.27751-0.66122-0.3118-0.93615-0.076484l-0.048405 0.041319c0.011706 0.012015 0.024994 0.021978 0.035434 0.035165 0.95988 1.1851 1.6543 2.5641 2.0014 4.0616" fill="#D76230" mask="url(#a)"/>
<path d="m243 70.193 6.0003 4.8065h0.99971l-6.0513-4.8473c-0.27559-0.22061-0.70347-0.19805-0.94873 0.040768" fill="#D76230" mask="url(#a)"/>
<path d="m251 66.619c0-0.37742-0.27709-0.66819-0.58412-0.61207-0.14007 0.025285-0.2781 0.05797-0.41588 0.091272 0.14159 0.10885 0.23877 0.29879 0.23877 0.5208v6.5268l0.76123 0.85413v-7.381z" fill="#D76230" mask="url(#a)"/>
<path d="m261 85h1.2c0.4416 0 0.8-0.29681 0.8-0.66253v-7.3375h-1.2v7.3375c0 0.36571-0.3584 0.66253-0.8 0.66253" fill="#D76230" mask="url(#a)"/>
<path d="m250.13 76.465h0.93615v7.0049c0 0.34945-0.2796 0.6325-0.6241 0.6325h-0.93615-8.0072c-0.34482 0-0.6241-0.28304-0.6241-0.6325v-7.0049h9.2554zm-6.0528-7.1994 5.6665 5.3019h-0.93615-7.0704c-0.39599 0-0.69618-0.37001-0.61318-0.76216 0.34918-1.6492 1.0557-3.1647 2.0327-4.461 0.009673-0.012966 0.021531-0.022137 0.032141-0.034155 0.22967-0.26122 0.63003-0.28589 0.88841-0.044591zm1.3933-1.2786c-0.28927-0.27071-0.26431-0.74603 0.055857-0.97879 1.2647-0.91997 2.7283-1.573 4.31-1.8902 0.16944-0.033839 0.3392-0.067677 0.51145-0.09361 0.37758-0.057241 0.71834 0.24098 0.71834 0.62807v7.5697l-0.93615-0.87569-4.6595-4.3595zm13.138 0.057241-5.6699 5.3047v-0.87569-6.8205c0-0.22802 0.11952-0.42251 0.29333-0.53446 0.12201-0.07843 0.26992-0.11733 0.42564-0.093926 1.8118 0.27482 3.4822 0.99334 4.8992 2.0436 0.31673 0.23434 0.34013 0.7065 0.0518 0.97626zm1.3275 1.3403 0.047744-0.044275c0.27117-0.25395 0.7018-0.21695 0.92336 0.082224 0.94676 1.2789 1.6317 2.7672 1.974 4.3835 0.082693 0.39183-0.2175 0.76153-0.61318 0.76153h-0.93615-6.9353l5.5395-5.183zm-6.9974 14.085v-7.0049h9.2554 0.93615v7.0049c0 0.34945-0.27928 0.6325-0.6241 0.6325h-0.93615-8.0072c-0.3445 0-0.6241-0.28304-0.6241-0.6325zm-0.70991-20.469c-0.18068-0.0031624-0.35979 6.325e-4 -0.5386 0.00506-7.0261 0.17836-12.688 6.2124-12.688 13.401v8.9599c0 0.34945 0.27928 0.6325 0.6241 0.6325h23.504 0.31205 0.43593 0.50022c0.34482 0 0.6241-0.28304 0.6241-0.6325v-9.1933c0-7.188-5.7096-13.05-12.774-13.173z" fill="#ED985A" mask="url(#a)"/>
<polygon points="140 6 128 6 128 11 140 7.1686" fill="#E99462" mask="url(#a)"/>
<path d="m171.98 122.51h-1.6444-19.946-1.2548c-0.34664 0-0.6274-0.27864-0.6274-0.62195v-28.243-2.5631c0-0.02861 0.004706-0.055976 0.00847-0.083964l-2.3343 2.314c-0.11795 0.11662-0.18383 0.2749-0.18383 0.43972v30.624c0 0.34332 0.28076 0.62195 0.6274 0.62195h23.343c0.33284 0 0.65219-0.13123 0.88746-0.36446l2.1423-2.1233h-0.07623-0.9411z" fill="#E99462" mask="url(#a)"/>
<path d="m270.38 118c-1.3411 0.16997-2.3778 1.2851-2.3778 2.6391v5.697c0 1.4712 1.2233 2.6639 2.7324 2.6639h0.92248c0.48963 0 0.9479-0.12716 1.3451-0.34703-0.11655 0.015131-0.23409 0.02511-0.3546 0.02511h-0.18918-0.73329c-1.5092 0-2.7324-1.1927-2.7324-2.6639v-5.697c0-0.99409 0.55963-1.8594 1.3873-2.3172" fill="#E99462" mask="url(#a)"/>
<path d="m250.41 63c-7.4038 0.055879-13.409 6.4116-13.409 14.001v9.3675c0 0.34885 0.27748 0.6314 0.61939 0.6314h25.761c0.3419 0 0.61939-0.28255 0.61939-0.6314v-0.44104h-0.43264-0.30969-23.326-0.92908c-0.34221 0-0.61939-0.28255-0.61939-0.6314v-9.1775c0-6.9634 5.3097-12.659 12.026-13.119" fill="#E99462" mask="url(#a)"/>
<path d="m238.16 99.226h-0.27211c-0.22007 0-0.42416 0.1152-0.53764 0.30398l-1.6089 2.6779c-0.05831 0.09736-0.089346 0.2085-0.089346 0.32213v52.838c0 0.18877 0.085271 0.35594 0.21756 0.47084h-2.8189c-0.25424 0-0.46084 0.20599-0.46084 0.45988v2.1338c0 0.2542 0.20659 0.45988 0.46084 0.45988h-5.5674c-0.25456 0-0.46084 0.20599-0.46084 0.46019v2.1335c0 0.2542 0.20628 0.46019 0.46084 0.46019h-5.6391c-0.12383 0-0.23544 0.049149-0.31851 0.12867v-87.879l28.043-33.841 28.281 30.728h0.62699 0.5226l-28.255-33.859c-0.24484-0.29302-0.68937-0.29803-0.94393-0.018783-0.00627 0.0065742-0.013794 0.011583-0.01975 0.018783l-28.255 33.859h-27.417-66.109v9.1315l66.109-5.9809v90.766h27.417v-0.12898c0.083076 0.079203 0.19468 0.12898 0.31851 0.12898h16.149c-0.25424 0-0.46052-0.2063-0.46052-0.46019v-8.2409c0-0.2542 0.20628-0.46019 0.46052-0.46019h-0.24296c-0.1323-0.11489-0.21756-0.28206-0.21756-0.47084v-55.516c0-0.34561 0.28089-0.62611 0.62699-0.62611" fill="#E99462" mask="url(#a)"/>
<path d="m275 158.5c0-0.27619-0.20551-0.5-0.45912-0.5h-31.082c-0.25361 0-0.4588 0.22381-0.4588 0.5s0.2052 0.5 0.4588 0.5h31.082c0.25361 0 0.45912-0.22381 0.45912-0.5" fill="#E99462" mask="url(#a)"/>
<path d="m281 161.5c0-0.27594-0.20551-0.49983-0.45912-0.49983h-31.082c-0.25361 0-0.4588 0.22389-0.4588 0.49983 0 0.27628 0.2052 0.50017 0.4588 0.50017h31.082c0.25361 0 0.45912-0.22389 0.45912-0.50017" fill="#E99462" mask="url(#a)"/>
<path d="m286.54 164h-31.082c-0.25329 0-0.4588 0.22389-0.4588 0.50017 0 0.27594 0.20551 0.49983 0.4588 0.49983h31.082c0.2536 0 0.45911-0.22389 0.45911-0.49983 0-0.27628-0.20551-0.50017-0.45911-0.50017" fill="#E99462" mask="url(#a)"/>
<polygon points="128 5 116 5 116 17 128 10.507" fill="#D76230" mask="url(#a)"/>
<polygon points="221 71 194 71 194 80 221 74.105" fill="#D76230" mask="url(#a)"/>
<polygon points="194 157.19 221 157.19 221 156.81 194 156.81" fill="#D76230" mask="url(#a)"/>
<polygon points="34 157.19 128 157.19 128 156.81 34 156.81" fill="#D76230" mask="url(#a)"/>
<path d="m80.519 15.225-46.519 55.775h2.2579l42.807-50.331c0.24315-0.28552 0.68087-0.29553 0.93624-0.021602l46.921 50.352h1.0776l-46.518-55.775c-0.25067-0.30054-0.71252-0.30054-0.96287 0" fill="#D76230" mask="url(#a)"/>
<path d="m70.192 45c-3.1264 2.0546-5.1919 5.5646-5.1919 9.5432 0 6.3174 5.2048 11.457 11.602 11.457 2.3631 0 4.5622-0.70256 6.3977-1.9058-1.2112 0.42459-2.5135 0.65795-3.8704 0.65795-0.15891 0-0.31655-0.0053035-0.47388-0.011855-0.15765 0.0065513-0.31529 0.011855-0.47388 0.011855-6.3974 0-11.602-5.1394-11.602-11.457 0-3.2617 1.3897-6.2073 3.6123-8.2953" fill="#D76230" mask="url(#a)"/>
<path d="m63 93.754v30.624c0 0.34332 0.28108 0.62195 0.6274 0.62195h23.343c0.33252 0 0.65187-0.13123 0.88715-0.36446l2.1423-2.1233h-0.07623-21.591-0.94111-1.2548c-0.34633 0-0.6274-0.27864-0.6274-0.62195v-30.807c0-0.02861 0.0047055-0.055976 0.0084699-0.083653l-2.3343 2.314c-0.11795 0.11662-0.18383 0.2749-0.18383 0.43972" fill="#D76230" mask="url(#a)"/>
<path d="m128 127.39c-3.1261-1.5481-6.615-2.3896-10.218-2.3896-8.4512 0-15.673 6.0354-17.101 14.291l-0.53207 3.0764c-0.26823 1.5513-1.2633 2.8846-2.6817 3.5925l-4.0185 2.0067c-4.5672 2.2804-7.4486 6.9167-7.4486 11.986 0 1.8903 0.62378 3.6358 1.6769 5.0473h40.323v-37.61z" fill="#D76230" mask="url(#a)"/>
<path d="m95 160.52v-1.9101c0-5.8786 3.3031-11.256 8.5392-13.901l2.9394-1.4849c1.4195-0.71721 2.4159-2.0671 2.6844-3.6381l0.5326-3.1154c1.4293-8.3609 8.6587-14.472 17.118-14.472 7.7258 0 14.93 3.9085 19.157 10.393l6.7678 10.383c2.541 3.8981 6.8716 6.2477 11.516 6.2477h6.6688c2.8293 0 5.5844 0.90825 7.8617 2.5917l5.0245 3.714c1.3774 1.0183 2.1901 2.6321 2.1901 4.3477v1.2724c0 2.7891-2.2546 5.0501-5.0361 5.0501h-80.5c-3.0173 0-5.4634-2.4527-5.4634-5.4785" fill="#0097B8" mask="url(#a)"/>
<path d="m162.59 161.25v-0.27899c0-0.93549-0.3872-1.8297-1.0709-2.4734l-6.9552-6.5487c-2.5853-2.4343-6.0128-3.7911-9.5761-3.7911h-8.5906c-2.8629 0-5.6779-0.72844-8.177-2.1152l-1.8494-1.0265c-4.9357-2.7392-7.6354-8.2364-6.7696-13.784l0.77031-4.9348c0.19691-1.2614-0.19187-2.4302-0.92752-3.2975-4.9984 2.3461-8.7365 6.9976-9.722 12.706l-0.53402 3.0908c-0.08349 0.48416-0.2448 0.94299-0.45998 1.3727l-0.11027 0.73782c-0.56521 3.7876-3.3821 6.8596-7.1281 7.7729l-0.17675 0.042849c-2.2842 0.55704-4.189 1.9432-5.4227 3.7895-0.58191 1.6301-0.89413 3.3704-0.89413 5.1579v1.8947c0 3.0019 2.4511 5.4353 5.475 5.4353h11.22l0.031506-0.61271c0.12004-2.322 2.0775-4.1288 4.419-4.0794l2.5989 0.05536c1.7432 0.036907 3.3594-0.90202 4.1805-2.4286l0.5148-0.95644c0.84214-1.5657 2.4388-2.5888 4.223-2.7061l2.6058-0.17046c2.8812-0.18922 5.5295 1.5704 6.4527 4.2865l0.56962 1.6761c0.53181 1.5654-0.030245 3.2913-1.384 4.2518l-0.96502 0.68402h32.058l-1.0762-0.10446c-1.8894-0.1836-3.3298-1.7606-3.3298-3.645" fill="#00547A" mask="url(#a)"/>
<path d="m182.92 160.77h-4.434c-1.1897 0-2.3354-0.4665-3.2073-1.3053l-0.49816-0.47995c-0.65672-0.63217-1.5198-0.98352-2.4161-0.98352-1.453 0-2.7592 0.9179-3.2975 2.3167l-0.84471 2.1957c-0.49151 1.2784-0.13704 2.6195 0.70071 3.4876h12.599c1.9395 0 3.6232-1.1295 4.4758-2.7882-0.36333-1.3769-1.5701-2.443-3.0782-2.443" fill="#00547A" mask="url(#a)"/>
</g>
</g>
</svg>