<?xml version="1.0" encoding="UTF-8"?>
<svg width="420px" height="420px" viewBox="0 0 420 420" version="1.1" xmlns="http://www.w3.org/2000/svg" xmlns:xlink="http://www.w3.org/1999/xlink">
    <title>5. Elements_Illustrations/2.Vector/Classic house</title>
    <defs>
        <polygon id="path-1" points="3.58772366e-14 0 68 0 68 35 3.58772366e-14 35"></polygon>
        <polygon id="path-3" points="0 0 22 0 22 19 0 19"></polygon>
        <polygon id="path-5" points="0 0 56 0 56 29 0 29"></polygon>
        <polygon id="path-7" points="0 165 314 165 314 0 0 0"></polygon>
    </defs>
    <g id="5.-Elements_Illustrations/2.Vector/Classic-house" stroke="none" stroke-width="1" fill="none" fill-rule="evenodd">
        <g id="Group" opacity="0.590729469" transform="translate(72.000000, 41.000000)" fill="#B8DDFF">
            <rect id="Rectangle" x="92" y="52" width="184" height="33" rx="16.5"></rect>
            <rect id="Rectangle" x="0" y="69" width="184" height="33" rx="16.5"></rect>
            <rect id="Rectangle" x="53" y="0" width="85" height="33" rx="16.5"></rect>
        </g>
        <g id="Group-108" transform="translate(53.000000, 210.000000)">
            <g id="Group-3" transform="translate(246.000000, 131.000000)">
                <mask id="mask-2" fill="white">
                    <use xlink:href="#path-1"></use>
                </mask>
                <g id="Clip-2"></g>
                <path d="M6.32894709,35 C2.83358843,35 3.58772366e-14,32.1562045 3.58772366e-14,28.6482549 L3.58772366e-14,26.3799329 C3.58772366e-14,24.7428265 0.307690023,23.1206057 0.906975514,21.5978338 L1.63343955,19.7513779 C3.65725095,14.6079054 8.60143514,11.2231585 14.1114534,11.2089063 L17.179833,11.2006716 C19.0316536,11.1864194 20.7686032,10.2973968 21.8680822,8.80186252 L23.9935102,5.91119301 C26.7270599,2.19326057 31.0580731,-0.000949840396 35.6623782,0 L37.0720719,0 C42.6445749,0.0009504573 47.5303768,3.73661901 49.0110759,9.12808029 C49.9672818,12.6094257 52.6370845,15.3544057 56.0816349,16.3979858 C56.6531493,16.5709129 57.2177211,16.7422564 57.7469479,16.9021982 C59.7164797,17.4988916 61.4117728,18.7743081 62.5355514,20.503579 L67.2408419,27.7437132 C67.7363018,28.5060493 68.0001262,29.3969722 68.0001262,30.3072148 C68.0001262,32.8989042 65.9062562,35 63.323869,35 L6.32894709,35 Z" id="Fill-1" fill="#0097B8" mask="url(#mask-2)"></path>
            </g>
            <path d="M274.808458,162.506243 C274.674711,160.550373 273.53301,158.810941 271.803388,157.92744 L266.038814,154.983811 C262.769383,153.314096 260.8299,149.80291 261.137486,146.110777 C261.324481,143.868435 263.129904,142.115377 265.352541,142.019675 L271.553435,141.752216 C274.360861,141.630846 277.005724,140.387036 278.906993,138.294268 L281.133389,135.843092 C282.524416,134.31186 282.129754,132.106277 280.7381,131 C276.416236,131.199326 272.396947,133.354206 269.814416,136.89518 L267.704852,139.787473 C266.61358,141.28353 264.889596,142.173051 263.051284,142.187628 L260.006121,142.195551 C254.537232,142.209811 249.629952,145.596775 247.621247,150.743135 L246.899892,152.59031 C246.305393,154.114254 246,155.737385 246,157.375411 L246,159.645006 C246,163.154925 248.812438,166 252.281706,166 L272.850808,166 C274.089922,165.358923 274.911822,164.017194 274.808458,162.506243" id="Fill-4" fill="#00547A"></path>
            <path d="M269.533037,146 C268.270053,146 267.550701,147.523895 268.311542,148.588785 C269.621507,150.422225 271.670348,151.499678 273.845487,151.499678 C275.730505,151.499678 277.42028,152.726589 278.095397,154.584187 L278.460869,155.589488 C278.769294,156.439209 279.542033,157 280.403851,157 L280.777865,157 C282.557331,157 284,155.47675 284,153.597892 C284,149.401786 280.778476,146 276.804042,146 L269.533037,146 Z" id="Fill-6" fill="#00547A"></path>
            <g id="Group-10" transform="translate(284.000000, 146.000000)">
                <mask id="mask-4" fill="white">
                    <use xlink:href="#path-3"></use>
                </mask>
                <g id="Clip-9"></g>
                <path d="M7.36184516,17.2620113 L8.1424542,15.297527 C8.82745914,13.5737959 10.5066836,12.4406921 12.3761697,12.4406921 C14.4797753,12.4406921 16.3208642,11.040571 16.8645139,9.02699794 L17.6366037,6.16859971 C18.2013936,4.0781107 19.8998651,2.50383428 22,2.05359435 C21.3610617,1.66307374 20.6697463,1.35197046 19.9402523,1.13372916 C19.4111168,0.975519849 18.8466424,0.806679875 18.275542,0.635651235 C17.715485,0.468374594 17.1787768,0.252321961 16.6641554,0 C14.4639991,1.05775117 12.6547783,2.87027956 11.6488844,5.20058386 L11.0680027,6.54661366 C10.2754037,8.38259204 8.52139981,9.63200785 6.51308271,9.79084249 L5.032008,9.90840514 C3.10414979,10.0616118 1.4760404,11.3873182 0.950691144,13.231426 L0.0981423892,16.2258342 C-0.21264981,17.317666 0.241075249,18.4016812 1.08699798,19.0001251 L5.85584397,19.0001251 C6.52633476,18.6130438 7.06493606,18.0095972 7.36184516,17.2620113" id="Fill-8" fill="#00547A" mask="url(#mask-4)"></path>
            </g>
            <path d="M5.21186379,166 C2.33339871,166 0,163.643536 0,160.737326 L0,158.857731 C0,157.501267 0.253234637,156.157161 0.746838209,154.89512 L1.34493637,153.365336 C3.01151525,149.103929 7.08335248,146.299113 11.6211791,146.287072 L14.1478771,146.280735 C15.6729333,146.268695 17.1035364,145.532003 18.0088424,144.292776 L19.7592052,141.897972 C22.0103889,138.817174 25.5770121,136.999366 29.3686281,137 L30.5296791,137 C35.1189685,137.000951 39.1424809,140.095691 40.3618983,144.563055 C41.1492163,147.447719 43.3479959,149.722117 46.1847259,150.586819 C46.6554223,150.730355 47.1204702,150.87199 47.5560213,151.004753 C49.1780409,151.49905 50.5741263,152.555767 51.4998291,153.98891 L55.3746014,159.987643 C55.7828521,160.619455 56,161.357414 56,162.11185 C56,164.259189 54.2756824,166 52.1487625,166 L5.21186379,166 Z" id="Fill-11" fill="#0097B8"></path>
            <g id="Group-15" transform="translate(0.000000, 137.000000)">
                <mask id="mask-6" fill="white">
                    <use xlink:href="#path-5"></use>
                </mask>
                <g id="Clip-14"></g>
                <path d="M55.3749139,22.9878087 L51.4998212,16.9884818 C50.5744306,15.5559817 49.1783429,14.4992712 47.5563206,14.004661 C47.120455,13.8718989 46.6557201,13.7302649 46.1850229,13.5870465 C43.3482882,12.7223501 41.1495049,10.4476501 40.3621855,7.56300492 C39.1424523,3.09598731 35.1189332,0.000950564111 30.5299499,0 L29.3688969,0 C29.2041529,0 29.0403503,0.00792136759 28.8762339,0.0145753164 L28.8762339,0.0668563424 C28.8555233,0.0494293338 28.8338712,0.0335865986 28.8125329,0.0164764446 C25.2305277,0.184409437 21.8998747,1.96861827 19.7591442,4.89794001 L18.0090922,7.29304471 C17.1034709,8.53226346 15.6728654,9.26863379 14.1478067,9.28067427 L11.6211044,9.28732822 C7.0832702,9.29936869 3.01173995,12.1038497 1.34515828,16.3655454 L0.746745321,17.8953199 C0.253454719,19.1570354 -9.41394278e-05,20.501133 -9.41394278e-05,21.8579049 L-9.41394278e-05,23.7371701 C-9.41394278e-05,26.6436783 2.33362227,29.0001267 5.21209218,29.0001267 L22.278629,29.0001267 C23.3069454,28.4690783 23.9888286,27.3578688 23.9031618,26.1066096 C23.792391,24.4871652 22.8447208,23.0467437 21.4094083,22.3151262 L16.6268116,19.8772461 C13.9140271,18.4944922 12.3048705,15.5870334 12.5599883,12.5293855 C12.7150046,10.6723001 14.2130767,9.22110558 16.0572681,9.14157505 L21.2023016,8.92009361 C23.5316248,8.81965067 25.7263287,7.78955603 27.3037917,6.0563608 L28.8762339,4.32855211 L28.8762339,14.0829242 C27.8639213,13.3370482 26.6203394,12.8918673 25.2710076,12.8918673 L19.0766333,12.8918673 C18.0006196,12.8918673 17.3880858,14.1336209 18.0360788,15.0008522 C19.1519448,16.4945053 20.8976036,17.3725097 22.7505814,17.3725097 L22.7505814,17.3725097 C24.3562862,17.3725097 25.7959919,18.3718694 26.3711838,19.8854843 L26.6821577,20.7045537 C26.9451205,21.3968813 27.6034689,21.8534689 28.3374426,21.8534689 L28.6562615,21.8534689 C28.7306316,21.8534689 28.8034328,21.8480824 28.8762339,21.842379 L28.8762339,29.0001267 L52.1490695,29.0001267 C54.2759929,29.0001267 56,27.2590101 56,25.1116858 C56,24.3572548 55.7828514,23.6193002 55.3749139,22.9878087" id="Fill-13" fill="#00547A" mask="url(#mask-6)"></path>
            </g>
            <path d="M129.853147,69.9754084 L81.4823817,12.2246761 C81.2312078,11.925108 80.7687338,11.925108 80.5175598,12.2246761 L32.146795,69.9754084 C31.8058264,70.3824336 32.0968742,71 32.629049,71 L33.9046987,71 L80.5175598,15.348431 C80.7687338,15.0485506 81.2312078,15.0485506 81.4823817,15.348431 L128.094929,71 L129.370893,71 C129.903381,71 130.194115,70.3824336 129.853147,69.9754084" id="Fill-16" fill="#00547A"></path>
            <path d="M80.5184067,15.2255281 L34,71.0299535 L34,165 L128,165 L128,71.0299535 L81.48128,15.2255281 C81.2306133,14.924824 80.7690733,14.924824 80.5184067,15.2255281" id="Fill-18" fill="#E99462"></path>
            <path d="M194.024796,69.9642105 L224.302662,33.3326316 C224.421372,33.1886316 224.597714,33.1052632 224.783765,33.1052632 L232,33.1052632 L213.916659,11.2273684 C213.797636,11.0833684 213.621294,11 213.435556,11 L81.7745887,11 C81.588537,11 81.4121952,11.0833684 81.2931723,11.2273684 L81,11.5823158 C81.2502614,11.2794737 81.711945,11.2794737 81.9625196,11.5823158 L130.217859,69.9642105 C130.557701,70.3753684 130.267661,71 129.736756,71 L194.506213,71 C193.974994,71 193.684954,70.3756842 194.024796,69.9642105" id="Fill-20" fill="#0097B8"></path>
            <path d="M224.306203,33.228 L194.145731,69.9613333 C193.807207,70.37395 194.096123,71 194.625281,71 L220.652638,71 C220.12348,71 219.834564,70.37395 220.173088,69.9613333 L250.041212,33.5839333 C250.290815,33.28025 250.750397,33.28025 251,33.5839333 L250.707652,33.228 C250.589091,33.0836 250.413433,33 250.228415,33 L231.973696,33 L224.785753,33 C224.600422,33 224.424764,33.0836 224.306203,33.228" id="Fill-22" fill="#00547A"></path>
            <path d="M280.854236,69.9790978 L250.979504,34.223867 C250.729846,33.9253777 250.270162,33.9253777 250.020504,34.223867 L220.145772,69.9790978 C219.807173,70.3846574 220.096152,71 220.625116,71 L221.89338,71 L250.020504,37.3363736 C250.270162,37.037573 250.729846,37.037573 250.979504,37.3363736 L279.106629,71 L280.37458,71 C280.903856,71 281.192835,70.3846574 280.854236,69.9790978" id="Fill-24" fill="#0097B8"></path>
            <path d="M249.78105,37.2253984 L221.525782,71.0839961 L220.252054,71.0839961 L194.100335,71.0839961 L129.274042,71.0839961 L128,71.0839961 L128,165 L278.477405,165 L278.477405,71.0839961 L279,71.0839961 L250.744419,37.2253984 C250.493623,36.9248672 250.031846,36.9248672 249.78105,37.2253984" id="Fill-26" fill="#EACBAC"></path>
            <path d="M141.376156,1 L114.623844,1 C114.27917,1 114,1.27809624 114,1.62075053 L114,5.33532167 C114,5.67797597 114.27917,5.9560722 114.623844,5.9560722 L116.088942,5.9560722 L116.088942,20.3363789 C116.088942,20.4959118 116.150703,20.6495475 116.261435,20.7650071 L127.815654,32.8078777 C127.933249,32.9307863 128.096384,33 128.267005,33 L139.287525,33 C139.631887,33 139.91137,32.7222141 139.91137,32.3792495 L139.91137,5.9560722 L141.376156,5.9560722 C141.720518,5.9560722 142,5.67797597 142,5.33532167 L142,1.62075053 C142,1.27809624 141.720518,1 141.376156,1" id="Fill-28" fill="#E99462"></path>
            <path d="M141.376156,1 L128.623844,1 C128.279482,1 128,1.27809624 128,1.62075053 L128,5.33532167 C128,5.67797597 128.279482,5.9560722 128.623844,5.9560722 L128,5.9560722 L128,32.3792495 C128,32.7222141 128.279482,33 128.623844,33 L139.287525,33 C139.631887,33 139.91137,32.7222141 139.91137,32.3792495 L139.91137,5.9560722 L141.376156,5.9560722 C141.720518,5.9560722 142,5.67797597 142,5.33532167 L142,1.62075053 C142,1.27809624 141.720518,1 141.376156,1" id="Fill-30" fill="#EACBAC"></path>
            <path d="M98.5632096,33 L128,33 C127.826656,33 127.660918,32.927525 127.541446,32.79915 L115.802857,20.1885 C115.751519,20.13325 115.711907,20.0689 115.682435,20 L88,20 L98.5632096,33 Z" id="Fill-32" fill="#00547A"></path>
            <path d="M89,53.5 C89,59.2987398 84.2989815,64 78.4998443,64 C72.7010185,64 68,59.2987398 68,53.5 C68,47.7009489 72.7010185,43 78.4998443,43 C84.2989815,43 89,47.7009489 89,53.5" id="Fill-34" fill="#AA391B"></path>
            <path d="M91,53.5 C91,47.1589517 85.8279922,42 79.470896,42 C79.3129889,42 79.1563375,42.0056365 79,42.0118993 C85.1395422,42.2595916 90.058208,47.3164602 90.058208,53.5 C90.058208,59.6835398 85.1395422,64.7404084 79,64.9881007 C79.1563375,64.9943635 79.3129889,65 79.470896,65 C80.8195422,65 82.1135644,64.7657726 83.3171746,64.3392784 C87.7884892,62.7560517 91,58.4961198 91,53.5" id="Fill-36" fill="#EACBAC"></path>
            <path d="M79,54 L79,63 C79.3386667,62.9680157 79.672,62.9177546 80,62.8537859 L80,54 L79,54 Z" id="Fill-38" fill="#D76230"></path>
            <path d="M79,44 L79,53 L80,53 L80,44.1462141 C79.672,44.0822454 79.3386667,44.0323107 79,44" id="Fill-40" fill="#D76230"></path>
            <path d="M69,53 L69.9791123,53 C70.4092689,48.5825718 73.7176893,44.9964099 78,44.1445822 L78,44 C73.2509791,44.4624674 69.4624674,48.2509791 69,53" id="Fill-42" fill="#D76230"></path>
            <path d="M69.9791123,54 L69,54 C69.4624674,58.7490209 73.2509791,62.5375326 78,63 L78,62.8554178 C73.7176893,62.0035901 70.4092689,58.4174282 69.9791123,54" id="Fill-44" fill="#D76230"></path>
            <path d="M87.7031001,50.7208986 C87.8825307,51.313356 88.012798,51.9264806 88.0748002,52.5605854 L80.3786981,52.5605854 L79.4392708,52.5605854 L79.4392708,43.9254867 C79.7574235,43.9561743 80.070566,44.0043975 80.3786981,44.0657726 C81.3701071,44.2630497 82.3054637,44.6159564 83.1625345,45.0928659 C85.3254095,46.2965691 86.9731651,48.3100477 87.7031001,50.7208986 L87.7031001,50.7208986 Z M79.4392708,63.0745133 L79.4392708,54.4394146 L80.3786981,54.4394146 L88.0748002,54.4394146 C87.6620784,58.67774 84.4874403,62.117563 80.3786981,62.9342274 C80.070566,62.9956025 79.7574235,63.0438257 79.4392708,63.0745133 L79.4392708,63.0745133 Z M77.5604161,44.0642069 L77.5604161,52.5605854 L69.8646272,52.5605854 L68.9251998,52.5605854 C69.3689227,48.0041116 73.0041934,44.3692035 77.5604161,43.9254867 L77.5604161,44.0642069 Z M77.5604161,62.9357931 L77.5604161,63.0745133 C73.0041934,62.6307965 69.3689227,58.9958884 68.9251998,54.4394146 L69.8646272,54.4394146 L77.5604161,54.4394146 L77.5604161,62.9357931 Z M67,53.5 C67,59.8410483 72.1587088,65 78.4998434,65 C78.6573541,65 78.8136122,64.9943635 78.9695571,64.9881007 C85.0936841,64.7404084 90,59.6835398 90,53.5 C90,47.3164602 85.0936841,42.2595916 78.9695571,42.0118993 C78.8136122,42.0056365 78.6573541,42 78.4998434,42 C75.4326131,42 72.6443927,43.2096528 70.5804708,45.1736555 C68.3775136,47.2698026 67,50.2261402 67,53.5 L67,53.5 Z" id="Fill-46" fill="#E99462"></path>
            <mask id="mask-8" fill="white">
                <use xlink:href="#path-7"></use>
            </mask>
            <g id="Clip-49"></g>
            <polygon id="Fill-48" fill="#E99462" mask="url(#mask-8)" points="128 157.187005 194 157.187005 194 156.812995 128 156.812995"></polygon>
            <polygon id="Fill-50" fill="#E99462" mask="url(#mask-8)" points="222 157.187005 279 157.187005 279 156.812995 222 156.812995"></polygon>
            <path d="M239.443285,155.371333 L239.443285,99.6286672 C239.443285,99.2816429 239.692693,99 240,99 L238.556715,99 C238.24913,99 238,99.2816429 238,99.6286672 L238,155.371333 C238,155.718357 238.24913,156 238.556715,156 L240,156 C239.692693,156 239.443285,155.718357 239.443285,155.371333" id="Fill-51" fill="#D76230" mask="url(#mask-8)"></path>
            <path d="M263.494963,129.407028 C262.927151,129.407028 262.466804,128.927427 262.466804,128.335533 C262.466804,128.217584 262.489538,128.106369 262.523121,128 C262.212348,128.184731 262,128.528881 262,128.928504 C262,129.520129 262.460346,130 263.028158,130 C263.483079,130 263.864376,129.690319 264,129.263498 C263.850168,129.352363 263.679411,129.407028 263.494963,129.407028" id="Fill-52" fill="#D76230" mask="url(#mask-8)"></path>
            <path d="M263.000126,127 C262.557608,127 262.186707,127.288981 262.054781,127.687021 C262.022113,127.78628 262,127.890062 262,127.999874 C262,128.552456 262.447795,129 263.000126,129 C263.179545,129 263.345646,128.948989 263.491393,128.866064 C263.793693,128.694183 264,128.372786 264,127.999874 C264,127.447544 263.552456,127 263.000126,127" id="Fill-53" fill="#EACBAC" mask="url(#mask-8)"></path>
            <path d="M274.207103,127.8601 C274.078665,127.965928 273.940177,128.059823 273.792897,128.1399 C273.940177,128.059823 274.078665,127.965928 274.207103,127.8601" id="Fill-54" fill="#D76230" mask="url(#mask-8)"></path>
            <path d="M275.119803,126.779237 C275.05417,126.934682 274.973778,127.08259 274.880197,127.220763 C274.973778,127.08259 275.05417,126.934682 275.119803,126.779237" id="Fill-55" fill="#D76230" mask="url(#mask-8)"></path>
            <path d="M269,120.657897 L269,126.341782 C269,127.809969 270.058874,129 271.365247,129 L272,129 C270.693913,129 269.635039,127.809969 269.635039,126.341782 L269.635039,120.657897 C269.635039,119.190031 270.693913,118 272,118 L271.365247,118 C270.941412,118 270.544727,118.126551 270.200915,118.345928 C269.484424,118.802669 269,119.666044 269,120.657897" id="Fill-56" fill="#D76230" mask="url(#mask-8)"></path>
            <path d="M274.260936,125.635472 C274.260936,126.672935 273.496175,127.514468 272.552707,127.514468 L272.447293,127.514468 C272.417217,127.514468 272.387724,127.511256 272.358232,127.509329 C271.45652,127.458259 270.738772,126.640173 270.738772,125.635472 L270.738772,121.364207 C270.738772,120.359506 271.45652,119.54142 272.358232,119.490028 C272.387724,119.488422 272.417217,119.48521 272.447293,119.48521 L272.552707,119.48521 C273.496175,119.48521 274.260936,120.326423 274.260936,121.364207 L274.260936,125.635472 Z M272.583367,118 L272.416341,118 C271.081878,118 270,119.190031 270,120.657897 L270,126.341782 C270,127.809969 271.081878,129 272.416341,129 L272.583367,129 C272.690241,129 272.794195,128.989722 272.897273,128.974626 C273.197162,128.932228 273.480406,128.831372 273.735327,128.679125 C273.872277,128.59722 274.001343,128.501183 274.120773,128.39294 C274.299772,128.230414 274.457163,128.039945 274.587397,127.827956 C274.674415,127.686629 274.748876,127.535346 274.810197,127.376354 C274.932547,127.05837 275,126.708909 275,126.341782 L275,120.657897 C275,119.190031 273.918122,118 272.583367,118 L272.583367,118 Z" id="Fill-57" fill="#ED985A" mask="url(#mask-8)"></path>
            <path d="M250.351754,103 L243.648246,103 C243.29009,103 243,103.284932 243,103.636009 L243,103.946064 C243.044729,103.936524 243.090754,103.931117 243.138076,103.931117 L249.841585,103.931117 C250.199741,103.931117 250.489831,104.215414 250.489831,104.567127 L250.489831,126 C250.781541,125.937989 251,125.683903 251,125.379573 L251,103.636009 C251,103.284932 250.709586,103 250.351754,103" id="Fill-58" fill="#D76230" mask="url(#mask-8)"></path>
            <path d="M260.351754,103 L253.648246,103 C253.29009,103 253,103.284932 253,103.636009 L253,103.946064 C253.044729,103.936524 253.090754,103.931117 253.138076,103.931117 L259.841585,103.931117 C260.199741,103.931117 260.489831,104.215414 260.489831,104.567127 L260.489831,126 C260.781541,125.937989 261,125.683903 261,125.379573 L261,103.636009 C261,103.284932 260.709586,103 260.351754,103" id="Fill-59" fill="#D76230" mask="url(#mask-8)"></path>
            <path d="M250.351754,129 L243.648246,129 C243.29009,129 243,129.284932 243,129.636009 L243,129.946064 C243.044729,129.936524 243.090754,129.930799 243.138076,129.930799 L249.841585,129.930799 C250.199741,129.930799 250.489831,130.215414 250.489831,130.566809 L250.489831,152 C250.781541,151.937989 251,151.683903 251,151.379573 L251,129.636009 C251,129.284932 250.709586,129 250.351754,129" id="Fill-60" fill="#D76230" mask="url(#mask-8)"></path>
            <path d="M260.351754,129 L253.648246,129 C253.29009,129 253,129.284932 253,129.636009 L253,129.946064 C253.044729,129.936524 253.090754,129.930799 253.138076,129.930799 L259.841585,129.930799 C260.199741,129.930799 260.489831,130.215414 260.489831,130.566809 L260.489831,152 C260.781541,151.937989 261,151.683903 261,151.379573 L261,129.636009 C261,129.284932 260.709586,129 260.351754,129" id="Fill-61" fill="#D76230" mask="url(#mask-8)"></path>
            <path d="M263.781788,128.654233 C263.614451,129.152452 263.143995,129.513935 262.5827,129.513935 C261.882435,129.513935 261.314446,128.953793 261.314446,128.263202 C261.314446,127.796731 261.576129,127.395013 261.959888,127.179694 C262.127225,126.68179 262.597681,126.319992 263.158657,126.319992 C263.859241,126.319992 264.42723,126.87982 264.42723,127.571039 C264.42723,128.037196 264.165547,128.439229 263.781788,128.654233 L263.781788,128.654233 Z M261.019933,125.210708 C261.019933,125.511526 260.805105,125.762678 260.518242,125.823973 L260.518242,104.638516 C260.518242,104.290863 260.232972,104.009849 259.880768,104.009849 L253.288653,104.009849 C253.242117,104.009849 253.196857,104.015193 253.152871,104.024623 L253.152871,103.718148 C253.152871,103.371123 253.438141,103.08948 253.790345,103.08948 L260.38246,103.08948 C260.734345,103.08948 261.019933,103.371123 261.019933,103.718148 L261.019933,125.210708 Z M261.019933,151.281852 C261.019933,151.58267 260.805105,151.833822 260.518242,151.895432 L260.518242,130.709346 C260.518242,130.362322 260.232972,130.080679 259.880768,130.080679 L253.288653,130.080679 C253.242117,130.080679 253.196857,130.086651 253.152871,130.095767 L253.152871,129.789292 C253.152871,129.442267 253.438141,129.160624 253.790345,129.160624 L260.38246,129.160624 C260.734345,129.160624 261.019933,129.442267 261.019933,129.789292 L261.019933,151.281852 Z M250.847129,125.210708 C250.847129,125.511526 250.6323,125.762678 250.345437,125.823973 L250.345437,104.638516 C250.345437,104.290863 250.060168,104.009849 249.707964,104.009849 L243.115849,104.009849 C243.069313,104.009849 243.024052,104.015193 242.980067,104.024623 L242.980067,103.718148 C242.980067,103.371123 243.265336,103.08948 243.61754,103.08948 L250.209655,103.08948 C250.561541,103.08948 250.847129,103.371123 250.847129,103.718148 L250.847129,125.210708 Z M250.847129,151.281852 C250.847129,151.58267 250.6323,151.833822 250.345437,151.895432 L250.345437,130.709346 C250.345437,130.362322 250.060168,130.080679 249.707964,130.080679 L243.115849,130.080679 C243.069313,130.080679 243.024052,130.086651 242.980067,130.095767 L242.980067,129.789292 C242.980067,129.442267 243.265336,129.160624 243.61754,129.160624 L250.209655,129.160624 C250.561541,129.160624 250.847129,129.442267 250.847129,129.789292 L250.847129,151.281852 Z M264.362526,99 L262.709557,99 L242.315819,99 L239.637474,99 C239.285588,99 239,99.2816429 239,99.6286672 L239,155.371333 C239,155.718671 239.285588,156 239.637474,156 L241.84632,156 L262.709557,156 L264.362526,156 C264.714412,156 265,155.718671 265,155.371333 L265,99.6286672 C265,99.2816429 264.714412,99 264.362526,99 L264.362526,99 Z" id="Fill-62" fill="#ED985A" mask="url(#mask-8)"></path>
            <path d="M272.20442,119 L272.093616,119 C272.062001,119 272.031308,119.00352 272,119.00512 C272.947821,119.056325 273.701657,119.87143 273.701657,120.87247 L273.701657,125.12785 C273.701657,126.12889 272.947821,126.943996 272,126.99488 C272.031308,126.9968 272.062001,127 272.093616,127 L272.20442,127 C273.196133,127 274,126.161853 274,125.12785 L274,120.87247 C274,119.838147 273.196133,119 272.20442,119" id="Fill-63" fill="#D76230" mask="url(#mask-8)"></path>
            <path d="M273.391344,122.980294 L273.391344,123.020026 L273.391344,123.055914 C273.391344,123.319622 273.282056,123.551288 273.115419,123.696119 C272.973129,123.917211 272.751037,124.061721 272.498377,124.061721 L272.240307,124.061721 C271.809919,124.061721 271.461226,123.648696 271.461226,123.138903 L271.461226,123.070333 C271.461226,122.56054 271.809919,122.147515 272.240307,122.147515 L272.434536,122.147515 L272.498377,122.147515 L272.688278,122.147515 C272.693688,122.147515 272.698287,122.149117 272.703697,122.149437 C272.708837,122.149117 272.713706,122.147515 272.718846,122.147515 C273.090261,122.147515 273.391344,122.504466 273.391344,122.944407 L273.391344,122.980294 Z M274,125.130652 L274,120.869668 C274,119.867385 273.335347,119.051268 272.500271,119 C271.664653,119.051268 271,119.867385 271,120.869668 L271,125.130652 C271,126.132935 271.664653,126.949053 272.500271,127 C273.335347,126.949053 274,126.132935 274,125.130652 L274,125.130652 Z" id="Fill-64" fill="#EACBAC" mask="url(#mask-8)"></path>
            <path d="M272.502208,123.779675 C272.495993,123.779675 272.490106,123.781684 272.483892,123.781684 L272.176778,123.781684 C271.707441,123.781684 271.327065,123.392265 271.327065,122.911435 L271.327065,122.869915 C271.327065,122.389419 271.707441,122 272.176778,122 L271.941946,122 C271.421586,122 271,122.431609 271,122.964005 L271,123.03566 C271,123.568391 271.421586,124 271.941946,124 L272.254293,124 C272.559444,124 272.828291,123.848987 273,123.618282 C272.865576,123.719739 272.700409,123.781684 272.520523,123.781684 C272.514309,123.781684 272.508422,123.779675 272.502208,123.779675" id="Fill-65" fill="#E99462" mask="url(#mask-8)"></path>
            <path d="M272,122.9767 L272,123.0233 C272,123.562946 272.323685,124 272.723073,124 L272.984414,124 C272.989702,124 272.994712,123.997745 273,123.997745 C272.625104,123.986471 272.323685,123.57422 272.323685,123.065389 L272.323685,122.934611 C272.323685,122.425404 272.625104,122.013529 273,122.002255 C272.994712,122.001879 272.989702,122 272.984414,122 L272.788756,122 L272.723073,122 C272.323685,122 272,122.437054 272,122.9767" id="Fill-66" fill="#D76230" mask="url(#mask-8)"></path>
            <path d="M273,122 C272.992357,122 272.985117,122.001879 272.977474,122.002255 C272.43564,122.013531 272,122.425484 272,122.934411 L272,123.065589 C272,123.57414 272.43564,123.986469 272.977474,123.997745 C272.985117,123.997745 272.992357,124 273,124 C273.221239,124 273.424377,123.93084 273.589702,123.816576 C273.83749,123.646683 274,123.374554 274,123.065589 L274,123.023492 L274,122.976884 L274,122.934411 C274,122.418342 273.552293,122 273,122" id="Fill-67" fill="#ED985A" mask="url(#mask-8)"></path>
            <path d="M89.3769133,122 L67.6230867,122 C67.2788313,122 67,121.723066 67,121.381845 L67,92.6181552 C67,92.2766245 67.2788313,92 67.6230867,92 L89.3769133,92 C89.7208572,92 90,92.2766245 90,92.6181552 L90,121.381845 C90,121.723066 89.7208572,122 89.3769133,122" id="Fill-68" fill="#FC95A4" mask="url(#mask-8)"></path>
            <path d="M68,92.6369217 L68,120.363078 C68,120.714978 68.2986667,121 68.6666667,121 L69,121 L70,121 C69.632,121 69.3333333,120.714978 69.3333333,120.363078 L69.3333333,92.6369217 C69.3333333,92.2853409 69.632,92 70,92 L69,92 L68.6666667,92 C68.2986667,92 68,92.2853409 68,92.6369217" id="Fill-69" fill="#D76230" mask="url(#mask-8)"></path>
            <path d="M80.3333333,120.363078 L80.3333333,92.6369217 C80.3333333,92.2850225 80.632,92 81,92 L79.6666667,92 C79.2986667,92 79,92.2850225 79,92.6369217 L79,120.363078 C79,120.714659 79.2986667,121 79.6666667,121 L81,121 C80.632,121 80.3333333,120.714659 80.3333333,120.363078" id="Fill-70" fill="#D76230" mask="url(#mask-8)"></path>
            <path d="M91.3333333,91 L90,91 C90.368,91 90.6666667,91.2781988 90.6666667,91.6209794 L90.6666667,122.197384 L90.6666667,122.379021 C90.6666667,122.722112 90.368,123 90,123 L90.081,123 L91.3333333,123 C91.7013333,123 92,122.722112 92,122.379021 L92,91.6209794 C92,91.2781988 91.7013333,91 91.3333333,91" id="Fill-71" fill="#EACBAC" mask="url(#mask-8)"></path>
            <path d="M68.5054494,92.8629382 L68.8186305,92.8629382 L69.758174,92.8629382 L76.9340942,92.8629382 C77.2801593,92.8629382 77.5604565,93.141137 77.5604565,93.4839176 L77.5604565,120.516082 C77.5604565,120.859174 77.2801593,121.137062 76.9340942,121.137062 L69.758174,121.137062 L68.8186305,121.137062 L68.5054494,121.137062 C68.1596973,121.137062 67.879087,120.859174 67.879087,120.516082 L67.879087,93.4839176 C67.879087,93.141137 68.1596973,92.8629382 68.5054494,92.8629382 L68.5054494,92.8629382 Z M89.120913,93.4839176 L89.120913,120.516082 C89.120913,120.859174 88.8406158,121.137062 88.4945506,121.137062 L81.3186305,121.137062 L80.0659058,121.137062 C79.7201538,121.137062 79.4395435,120.859174 79.4395435,120.516082 L79.4395435,93.4839176 C79.4395435,93.141137 79.7201538,92.8629382 80.0659058,92.8629382 L81.3186305,92.8629382 L88.4945506,92.8629382 C88.8406158,92.8629382 89.120913,93.141137 89.120913,93.4839176 L89.120913,93.4839176 Z M66,122.379021 C66,122.722112 66.2806103,123 66.6263623,123 L67.879087,123 L68.8186305,123 L90.3736377,123 C90.7197029,123 91,122.722112 91,122.379021 L91,122.197384 L91,91.6209794 C91,91.2781988 90.7197029,91 90.3736377,91 L68.8186305,91 L67.879087,91 L66.8098865,91 L66.6263623,91 C66.309423,91 66.050109,91.2344197 66.0084559,91.5371472 C66.0046977,91.5650913 66,91.5924143 66,91.6209794 L66,122.379021 Z" id="Fill-72" fill="#E99462" mask="url(#mask-8)"></path>
            <path d="M151.623087,122 L173.376913,122 C173.721169,122 174,121.723066 174,121.381845 L174,92.6181552 C174,92.2766245 173.721169,92 173.376913,92 L151.623087,92 C151.279143,92 151,92.2766245 151,92.6181552 L151,121.381845 C151,121.723066 151.279143,122 151.623087,122" id="Fill-73" fill="#FAD1C5" mask="url(#mask-8)"></path>
            <path d="M171.666667,92.6369217 L171.666667,120.363078 C171.666667,120.714978 171.368,121 171,121 L172,121 L172.333333,121 C172.701333,121 173,120.714978 173,120.363078 L173,92.6369217 C173,92.2853409 172.701333,92 172.333333,92 L172,92 L171,92 C171.368,92 171.666667,92.2853409 171.666667,92.6369217" id="Fill-74" fill="#D76230" mask="url(#mask-8)"></path>
            <polygon id="Fill-75" fill="#D76230" mask="url(#mask-8)" points="160 121 161 121 161 92 160 92"></polygon>
            <path d="M149,94.1800355 L149,122.379021 C149,122.722112 149.298667,123 149.666667,123 L151,123 C150.632,123 150.333333,122.722112 150.333333,122.379021 L150.333333,91.6209794 C150.333333,91.2778883 150.632,91 151,91 L149.862,91 L149.666667,91 C149.329333,91 149.053333,91.2344197 149.009,91.5371472 C149.005,91.5650913 149,91.5924143 149,91.6209794 L149,94.1800355 Z" id="Fill-76" fill="#D76230" mask="url(#mask-8)"></path>
            <path d="M173.120913,120.516082 C173.120913,120.858863 172.840303,121.137062 172.494551,121.137062 L172.181369,121.137062 L171.241826,121.137062 L163.439544,121.137062 L163.439544,92.8629382 L171.241826,92.8629382 L172.181369,92.8629382 L172.494551,92.8629382 C172.840303,92.8629382 173.120913,93.1408265 173.120913,93.4839176 L173.120913,120.516082 Z M152.505449,121.137062 C152.159384,121.137062 151.879087,120.858863 151.879087,120.516082 L151.879087,93.4839176 C151.879087,93.1408265 152.159384,92.8629382 152.505449,92.8629382 L160.307732,92.8629382 L161.560456,92.8629382 L161.560456,121.137062 L160.307732,121.137062 L152.505449,121.137062 Z M174.373638,91 L173.120913,91 L172.181369,91 L150.626362,91 C150.280297,91 150,91.2778883 150,91.6209794 L150,122.379021 C150,122.721801 150.280297,123 150.626362,123 L170.539674,123 L172.181369,123 L173.120913,123 L173.197016,123 L174.373638,123 C174.71939,123 175,122.721801 175,122.379021 L175,91.6209794 C175,91.2778883 174.71939,91 174.373638,91 L174.373638,91 Z" id="Fill-77" fill="#ED985A" mask="url(#mask-8)"></path>
            <path d="M254.547574,164.547909 L254.547574,162.451989 C254.547574,162.202262 254.750226,161.999897 255,161.999897 L249.460017,161.999897 C249.209935,161.999897 249.007591,161.79784 249.007591,161.547806 L249.007591,159.452194 C249.007591,159.20216 249.209935,159.000103 249.460017,159.000103 L243.990561,159.000103 C243.74048,159.000103 243.537827,158.797738 243.537827,158.548011 L243.537827,156.452091 C243.537827,156.202365 243.74048,156 243.990253,156 L238.452734,156 C238.202652,156 238,156.202365 238,156.452091 L238,164.547909 C238,164.797635 238.202652,165 238.452734,165 L255,165 C254.750226,165 254.547574,164.797635 254.547574,164.547909" id="Fill-78" fill="#D76230" mask="url(#mask-8)"></path>
            <path d="M286.542639,161.999897 L280.946037,161.999897 C281.198363,161.999897 281.403087,161.79784 281.403087,161.547806 L281.403087,159.452194 C281.403087,159.20216 281.198363,159.000103 280.946037,159.000103 L275.420372,159.000103 C275.67301,159.000103 275.877733,158.797738 275.877733,158.548011 L275.877733,156.452091 C275.877733,156.202365 275.67301,156 275.420372,156 L244.45705,156 L244.456738,156 C244.204412,156 244,156.202365 244,156.452091 L244,158.548011 C244,158.797738 244.204412,159.000103 244.45705,159.000103 L249.982403,159.000103 C249.730077,159.000103 249.525353,159.20216 249.525353,159.452194 L249.525353,161.547806 C249.525353,161.79784 249.730077,161.999897 249.982403,161.999897 L255.579005,161.999897 C255.326679,161.999897 255.121956,162.202262 255.121956,162.451989 L255.121956,164.547909 C255.121956,164.797635 255.326679,165 255.579005,165 L258.107557,165 L286.542639,165 C286.795277,165 287,164.797635 287,164.547909 L287,162.451989 C287,162.202262 286.795277,161.999897 286.542639,161.999897" id="Fill-79" fill="#EACBAC" mask="url(#mask-8)"></path>
            <path d="M252,64 L252,64 C245.372375,64 240,69.4474749 240,76.166342 L240,85 L264,85 L264,76.166342 C264,69.4474749 258.627625,64 252,64" id="Fill-80" fill="#AA391B" mask="url(#mask-8)"></path>
            <path d="M238,76.174481 L238,85.3675237 C238,85.7169669 238.287318,86 238.641334,86 L239.603335,86 C239.249319,86 238.962001,85.7169669 238.962001,85.3675237 L238.962001,76.4078647 C238.962001,69.2191393 244.780183,63.1853156 252,63.0069572 L252,63 L251.358987,63 C251.054032,63 250.752605,63.0139145 250.452461,63.0335212 C243.497835,63.4936477 238,69.1992163 238,76.174481" id="Fill-81" fill="#D76230" mask="url(#mask-8)"></path>
            <path d="M258.740742,67.9688019 C257.292802,66.9603125 255.585948,66.2703733 253.734652,66.0064837 C253.575541,65.9840121 253.424402,66.0213636 253.300047,66.0966738 C254.949824,66.407936 256.473652,67.0559687 257.784164,67.9688019 C258.107806,68.1938217 258.13172,68.646898 257.837413,68.9062325 L253,73.1591366 L253,74 L258.793991,68.9062325 C259.088298,68.646898 259.064384,68.1938217 258.740742,67.9688019" id="Fill-82" fill="#D76230" mask="url(#mask-8)"></path>
            <path d="M249,85 L250.2,85 C250.6416,85 251,84.7031884 251,84.3374741 L251,77 L249.8,77 L249.8,84.3374741 C249.8,84.7031884 249.4416,85 249,85" id="Fill-83" fill="#D76230" mask="url(#mask-8)"></path>
            <path d="M262.03682,74.2943544 C262.120976,74.6574337 261.816307,75 261.415144,75 L262.364268,75 C262.765431,75 263.0701,74.6574337 262.985944,74.2943544 C262.638881,72.7969089 261.944439,71.4178524 260.984558,70.2327899 C260.759932,69.9552789 260.323335,69.920993 260.048405,70.1563059 L260,70.1976248 C260.011706,70.2096396 260.024994,70.219603 260.035434,70.2327899 C260.995315,71.4178524 261.689757,72.7969089 262.03682,74.2943544" id="Fill-84" fill="#D76230" mask="url(#mask-8)"></path>
            <path d="M243,70.1934867 L249.000286,75 L250,75 L243.948729,70.1527192 C243.673141,69.9321123 243.245263,69.9546645 243,70.1934867" id="Fill-85" fill="#D76230" mask="url(#mask-8)"></path>
            <path d="M251,66.6190282 C251,66.2416079 250.722913,65.9508339 250.415884,66.0069536 C250.275818,66.0322383 250.137782,66.0649234 250,66.0982252 C250.141588,66.2070727 250.238772,66.3970162 250.238772,66.6190282 L250.238772,73.1458707 L251,74 L251,66.6190282 Z" id="Fill-86" fill="#D76230" mask="url(#mask-8)"></path>
            <path d="M261,85 L262.2,85 C262.6416,85 263,84.7031884 263,84.3374741 L263,77 L261.8,77 L261.8,84.3374741 C261.8,84.7031884 261.4416,85 261,85" id="Fill-87" fill="#D76230" mask="url(#mask-8)"></path>
            <path d="M250.1277,76.4651172 L251.06385,76.4651172 L251.06385,83.4700145 C251.06385,83.8194688 250.784253,84.1025109 250.43975,84.1025109 L249.503601,84.1025109 L241.496399,84.1025109 C241.151584,84.1025109 240.8723,83.8194688 240.8723,83.4700145 L240.8723,76.4651172 L250.1277,76.4651172 Z M244.074868,69.2657273 L249.741383,74.5676281 L248.805233,74.5676281 L241.734806,74.5676281 C241.338814,74.5676281 241.038622,74.1976178 241.121627,73.80547 C241.470811,72.1562357 242.177292,70.6407744 243.154321,69.3444731 C243.163994,69.3315069 243.175852,69.3223357 243.186462,69.3103183 C243.416131,69.0490973 243.816491,69.02443 244.074868,69.2657273 L244.074868,69.2657273 Z M245.468171,67.9871359 C245.178901,67.7164275 245.203865,67.2411064 245.524028,67.0083478 C246.788766,66.0883818 248.25228,65.4353293 249.834061,65.1181324 C250.003505,65.0842938 250.17326,65.0504553 250.345511,65.0245229 C250.723092,64.967282 251.06385,65.265504 251.06385,65.6525918 L251.06385,73.2223084 L250.1277,72.3466171 L245.468171,67.9871359 Z M258.606097,68.0443768 L252.93615,73.3491239 L252.93615,72.4734327 L252.93615,65.6529081 C252.93615,65.4248931 253.055665,65.2304005 253.229477,65.1184486 C253.351488,65.0400191 253.4994,65.0011206 253.655113,65.0245229 C255.466875,65.2993426 257.137278,66.0178585 258.554297,67.0681187 C258.871027,67.3024586 258.894431,67.7746171 258.606097,68.0443768 L258.606097,68.0443768 Z M259.933557,69.3846366 L259.981301,69.3403619 C260.252472,69.0864146 260.683101,69.1234156 260.904657,69.4225864 C261.851416,70.7014941 262.536366,72.189758 262.878685,73.8061025 C262.961378,74.197934 262.661186,74.5676281 262.265506,74.5676281 L261.329357,74.5676281 L254.394047,74.5676281 L259.933557,69.3846366 Z M252.93615,83.4700145 L252.93615,76.4651172 L262.191551,76.4651172 L263.1277,76.4651172 L263.1277,83.4700145 C263.1277,83.8194688 262.848416,84.1025109 262.503601,84.1025109 L261.567451,84.1025109 L253.56025,84.1025109 C253.215747,84.1025109 252.93615,83.8194688 252.93615,83.4700145 L252.93615,83.4700145 Z M252.226236,63.001167 C252.045559,62.9980046 251.866443,63.0017995 251.687638,63.006227 C244.661522,63.184591 239,69.2186063 239,76.4075601 L239,85.3675036 C239,85.7169579 239.279285,86 239.6241,86 L263.1277,86 L263.43975,86 L263.875684,86 L264.3759,86 C264.720715,86 265,85.7169579 265,85.3675036 L265,76.1741689 C265,68.9861639 259.290422,63.1238713 252.226236,63.001167 L252.226236,63.001167 Z" id="Fill-88" fill="#ED985A" mask="url(#mask-8)"></path>
            <polygon id="Fill-89" fill="#E99462" mask="url(#mask-8)" points="140 6 128 6 128 11 140 7.16858238"></polygon>
            <path d="M171.982665,122.512188 L170.33824,122.512188 L150.391825,122.512188 L149.137018,122.512188 C148.790377,122.512188 148.509614,122.233553 148.509614,121.890234 L148.509614,93.6470325 L148.509614,91.0839637 C148.509614,91.0553538 148.51432,91.0279879 148.518084,91 L146.183829,93.3139766 C146.065877,93.4305928 146,93.5888798 146,93.7536974 L146,124.378047 C146,124.721365 146.280763,125 146.627404,125 L169.970268,125 C170.303106,125 170.622454,124.868768 170.85773,124.635535 L173,122.512188 L172.92377,122.512188 L171.982665,122.512188 Z" id="Fill-90" fill="#E99462" mask="url(#mask-8)"></path>
            <path d="M270.377839,118 C269.036714,118.169974 268,119.285104 268,120.639099 L268,126.336114 C268,127.807287 269.223257,129 270.732435,129 L271.654913,129 C272.144546,129 272.602813,128.872842 273,128.65297 C272.883452,128.668101 272.765914,128.67808 272.645404,128.67808 L272.45622,128.67808 L271.722927,128.67808 C270.213748,128.67808 268.990491,127.485367 268.990491,126.014194 L268.990491,120.317179 C268.990491,119.32309 269.550119,118.45777 270.377839,118" id="Fill-91" fill="#E99462" mask="url(#mask-8)"></path>
            <path d="M250.409415,63 C243.005574,63.0558793 237,69.4115968 237,77.0010786 L237,86.3685955 C237,86.7174465 237.277485,87 237.619387,87 L263.380613,87 C263.722515,87 264,86.7174465 264,86.3685955 L264,85.9275595 L263.567358,85.9275595 L263.257665,85.9275595 L239.931558,85.9275595 L239.002478,85.9275595 C238.660266,85.9275595 238.383091,85.645006 238.383091,85.296155 L238.383091,76.1186909 C238.383091,69.1552466 243.692784,63.4593468 250.409415,63" id="Fill-92" fill="#E99462" mask="url(#mask-8)"></path>
            <path d="M238.160119,99.2257244 L237.888006,99.2257244 C237.667932,99.2257244 237.463847,99.3409289 237.350362,99.5297015 L235.741508,102.207581 C235.683198,102.304941 235.652162,102.416076 235.652162,102.529715 L235.652162,155.367899 C235.652162,155.556672 235.737433,155.723844 235.869727,155.838735 L233.050784,155.838735 C232.79654,155.838735 232.589947,156.044726 232.589947,156.298614 L232.589947,158.432402 C232.589947,158.686604 232.79654,158.892281 233.050784,158.892281 L227.483434,158.892281 C227.228876,158.892281 227.022597,159.098272 227.022597,159.352473 L227.022597,161.485949 C227.022597,161.74015 227.228876,161.946141 227.483434,161.946141 L221.844293,161.946141 C221.720462,161.946141 221.608858,161.99529 221.525782,162.074807 L221.525782,74.1962871 L249.569128,40.3552683 L277.850415,71.0832602 L278.477405,71.0832602 L279,71.0832602 L250.744732,37.2240842 C250.499893,36.9310639 250.055358,36.926055 249.8008,37.2053008 C249.79453,37.211875 249.787006,37.2168839 249.78105,37.2240842 L221.525782,71.0832602 L194.109113,71.0832602 L128,71.0832602 L128,80.2147848 L194.109113,74.2338538 L194.109113,165 L221.525782,165 L221.525782,164.871021 C221.608858,164.950224 221.720462,165 221.844293,165 L237.993653,165 C237.739409,165 237.53313,164.793696 237.53313,164.539808 L237.53313,156.298927 C237.53313,156.044726 237.739409,155.838735 237.993653,155.838735 L237.750695,155.838735 C237.6184,155.723844 237.53313,155.556672 237.53313,155.367899 L237.53313,99.851836 C237.53313,99.5062224 237.814021,99.2257244 238.160119,99.2257244" id="Fill-93" fill="#E99462" mask="url(#mask-8)"></path>
            <path d="M275,158.5 C275,158.22381 274.794491,158 274.540885,158 L243.458803,158 C243.205196,158 243,158.22381 243,158.5 C243,158.77619 243.205196,159 243.458803,159 L274.540885,159 C274.794491,159 275,158.77619 275,158.5" id="Fill-94" fill="#E99462" mask="url(#mask-8)"></path>
            <path d="M281,161.49983 C281,161.223886 280.794491,161 280.540885,161 L249.458803,161 C249.205196,161 249,161.223886 249,161.49983 C249,161.776114 249.205196,162 249.458803,162 L280.540885,162 C280.794491,162 281,161.776114 281,161.49983" id="Fill-95" fill="#E99462" mask="url(#mask-8)"></path>
            <path d="M286.54089,164 L255.458798,164 C255.205507,164 255,164.223886 255,164.50017 C255,164.776114 255.205507,165 255.458798,165 L286.54089,165 C286.794493,165 287,164.776114 287,164.50017 C287,164.223886 286.794493,164 286.54089,164" id="Fill-96" fill="#E99462" mask="url(#mask-8)"></path>
            <polygon id="Fill-97" fill="#D76230" mask="url(#mask-8)" points="128 5 116 5 116 17 128 10.5073718"></polygon>
            <polygon id="Fill-98" fill="#D76230" mask="url(#mask-8)" points="221 71 194 71 194 80 221 74.105108"></polygon>
            <polygon id="Fill-99" fill="#D76230" mask="url(#mask-8)" points="194 157.187005 221 157.187005 221 156.812995 194 156.812995"></polygon>
            <polygon id="Fill-100" fill="#D76230" mask="url(#mask-8)" points="34 157.187005 128 157.187005 128 156.812995 34 156.812995"></polygon>
            <path d="M80.51872,15.2254075 L34,71 L36.25788,71 L79.0648533,20.6693128 C79.308,20.3837966 79.7457267,20.3737785 80.0010933,20.6477113 L126.922447,71 L128,71 L81.4815933,15.2254075 C81.2309267,14.9248642 80.7690733,14.9248642 80.51872,15.2254075" id="Fill-101" fill="#D76230" mask="url(#mask-8)"></path>
            <path d="M70.1918703,45 C67.0655013,47.0546395 65,50.5646225 65,54.5431857 C65,60.8605936 70.2048231,66 76.6022536,66 C78.9653538,66 81.1644903,65.2974418 83,64.0941706 C81.7887532,64.5187628 80.4865206,64.7521169 79.1296335,64.7521169 C78.9707245,64.7521169 78.8130792,64.7468134 78.6557498,64.7402621 C78.4981045,64.7468134 78.3404591,64.7521169 78.181866,64.7521169 C71.7844356,64.7521169 66.5796125,59.6127106 66.5796125,53.2953026 C66.5796125,50.0336483 67.9693555,47.0880203 70.1918703,45" id="Fill-102" fill="#D76230" mask="url(#mask-8)"></path>
            <path d="M63,93.7536974 L63,124.378047 C63,124.721365 63.2810768,125 63.6274036,125 L86.9705817,125 C87.3031056,125 87.6224541,124.868768 87.8577304,124.635535 L90,122.512188 L89.9237705,122.512188 L68.3329306,122.512188 L67.3918252,122.512188 L66.137018,122.512188 C65.7906912,122.512188 65.5096144,122.233553 65.5096144,121.890234 L65.5096144,91.0836527 C65.5096144,91.0550429 65.5143199,91.0276769 65.5180843,91 L63.1838293,93.3139766 C63.0658774,93.4305928 63,93.5888798 63,93.7536974" id="Fill-103" fill="#D76230" mask="url(#mask-8)"></path>
            <path d="M128,127.389621 C124.873871,125.841473 121.384969,125 117.782052,125 C109.330856,125 102.109004,131.03538 100.680841,139.29134 L100.148774,142.367712 C99.8805414,143.918974 98.885507,145.252317 97.4670805,145.960238 L93.448624,147.966947 C88.8814538,150.247297 86,154.883648 86,159.95272 C86,161.842998 86.623781,163.588517 87.6769219,165 L128,165 L128,127.389621 Z" id="Fill-104" fill="#D76230" mask="url(#mask-8)"></path>
            <path d="M95,160.521477 L95,158.611339 C95,152.732756 98.303123,147.35543 103.539199,144.710745 L106.478557,143.225888 C107.898088,142.50868 108.894433,141.158753 109.162934,139.587831 L109.695533,136.472469 C111.124811,128.111558 118.354205,122 126.813859,122 C134.539696,122 141.744252,125.908547 145.971092,132.393053 L152.738941,142.776333 C155.27995,146.674476 159.610544,149.024081 164.254912,149.024081 L170.923724,149.024081 C173.753041,149.024081 176.508159,149.932335 178.785383,151.615803 L183.809865,155.329837 C185.187267,156.348115 186,157.961911 186,159.677536 L186,160.94991 C186,163.738982 183.745413,166 180.963885,166 L100.463389,166 C97.4460591,166 95,163.547306 95,160.521477" id="Fill-105" fill="#0097B8" mask="url(#mask-8)"></path>
            <path d="M162.593946,161.250542 L162.593946,160.971553 C162.593946,160.036065 162.206742,159.141862 161.523071,158.498187 L154.567901,151.949458 C151.982554,149.515188 148.555063,148.158402 144.991782,148.158402 L136.401158,148.158402 C133.538246,148.158402 130.723224,147.429966 128.224202,146.043154 L126.374824,145.016651 C121.439161,142.277432 118.739449,136.780229 119.605222,131.232357 L120.375533,126.297509 C120.572443,125.036117 120.183664,123.867305 119.448009,123 C114.44965,125.34607 110.711514,129.99755 109.72602,135.705559 L109.192,138.796329 C109.10851,139.280493 108.947202,139.739323 108.732019,140.169066 L108.621749,140.906885 C108.056539,144.694501 105.239626,147.766504 101.493614,148.679786 L101.316867,148.722635 C99.0327133,149.279674 97.1278864,150.66586 95.8941281,152.512127 C95.3122202,154.142272 95,155.882511 95,157.669978 L95,159.564724 C95,162.566668 97.4511335,165 100.475038,165 L111.695118,165 L111.726624,164.387288 C111.84666,162.065301 113.804101,160.258443 116.145595,160.30786 L118.74449,160.36322 C120.487693,160.400127 122.103929,159.461198 122.924964,157.934579 L123.439765,156.978136 C124.281909,155.412421 125.878612,154.389358 127.662772,154.272071 L130.268598,154.101612 C133.149783,153.912388 135.798141,155.672018 136.721254,158.388092 L137.290875,160.064214 C137.822689,161.629616 137.26063,163.355468 135.906835,164.315977 L134.94182,165 L167,165 L165.92377,164.895536 C164.03438,164.711941 162.593946,163.134967 162.593946,161.250542" id="Fill-106" fill="#00547A" mask="url(#mask-8)"></path>
            <path d="M182.921817,160.768802 L178.487791,160.768802 C177.298105,160.768802 176.15241,160.302305 175.28048,159.463463 L174.782325,158.983515 C174.125608,158.351349 173.262539,158 172.366239,158 C170.913233,158 169.607078,158.917904 169.068729,160.316739 L168.224017,162.512425 C167.732508,163.790864 168.086976,165.131961 168.924726,166 L181.524197,166 C183.463648,166 185.147376,164.870499 186,163.211843 C185.636669,161.834987 184.429893,160.768802 182.921817,160.768802" id="Fill-107" fill="#00547A" mask="url(#mask-8)"></path>
        </g>
    </g>
</svg>