<?xml version="1.0" encoding="UTF-8"?>
<svg width="420px" height="420px" viewBox="0 0 420 420" version="1.1" xmlns="http://www.w3.org/2000/svg" xmlns:xlink="http://www.w3.org/1999/xlink">
    <title>5. Elements_Illustrations/2.Vector/Girl</title>
    <defs>
        <polygon id="path-1" points="0 0 16.504739 0 16.504739 22.5561058 0 22.5561058"></polygon>
        <path d="M0,0 L1.93688965,7.04796722 C2.21374512,8.05660258 2.17858887,9.12934132 1.83581543,10.1169871 L1.83581543,10.1169871 C1.52874756,11.0025213 1.38482666,11.9396785 1.4128418,12.8802395 L1.4128418,12.8802395 L1.55841064,17.9200126 L18,18 L17.4924316,13.6035298 C17.338623,12.2726757 16.7085571,11.0479042 15.7258301,10.1714466 L15.7258301,10.1714466 L14.4563599,9.03857548 C13.5571289,8.23699968 12.9737549,7.12398361 12.8139038,5.90885597 L12.8139038,5.90885597 L12.0388184,0" id="path-3"></path>
        <path d="M0,0 L1.93688965,7.04796722 C2.21374512,8.05660258 2.17858887,9.12934132 1.83581543,10.1169871 L1.83581543,10.1169871 C1.52874756,11.0025213 1.38482666,11.9396785 1.4128418,12.8802395 L1.4128418,12.8802395 L1.55841064,17.9200126 L18,18 L17.4924316,13.6035298 C17.338623,12.2726757 16.7085571,11.0479042 15.7258301,10.1714466 L15.7258301,10.1714466 L14.4563599,9.03857548 C13.5571289,8.23699968 12.9737549,7.12398361 12.8139038,5.90885597 L12.8139038,5.90885597 L12.0388184,0" id="path-5"></path>
        <path d="M2.75790915,1.53210232 L2.11756732,1.99280027 C0.752173495,2.97645265 -0.0458852602,4.63484669 0.00204284942,6.38870066 L0.00204284942,6.38870066 L0.0170900466,6.91877012 L16,7 L15.8913258,5.99203795 C15.7029572,4.24411316 14.6842062,2.72149754 13.1939764,1.95841098 L13.1939764,1.95841098 L11.0890407,0.881670337 C9.93653683,0.291123158 8.6937498,0 7.4559785,0 L7.4559785,0 C5.80858906,0 4.16900187,0.516432323 2.75790915,1.53210232" id="path-7"></path>
    </defs>
    <g id="5.-Elements_Illustrations/2.Vector/Girl" stroke="none" stroke-width="1" fill="none" fill-rule="evenodd">
        <g id="Group-273" transform="translate(135.000000, 154.000000)">
            <g id="Group-238">
                <path d="M76.2471214,36.6815774 C76.2471214,40.6498553 73.0181158,43.8664011 69.0344663,43.8664011 C65.0508167,43.8664011 61.821253,40.6498553 61.821253,36.6815774 C61.821253,32.7132995 65.0508167,29.4967537 69.0344663,29.4967537 C73.0181158,29.4967537 76.2471214,32.7132995 76.2471214,36.6815774" id="Fill-1" fill="#0297B8"></path>
                <path d="M86.7343286,52.0238615 C84.3012715,58.1995183 77.302395,61.2414754 71.1022578,58.8178068 C64.9021206,56.3935821 61.8489382,49.4217121 64.2819953,43.2454993 C66.7156105,37.0698426 73.7139289,34.0278854 79.9140661,36.4521101 C86.1142033,38.8763348 89.1673857,45.8476487 86.7343286,52.0238615" id="Fill-3" fill="#00547A"></path>
                <path d="M53.1243159,46.1048056 C53.1243159,52.7397306 47.7251507,58.1180621 41.0645243,58.1180621 C34.403898,58.1180621 29.0047328,52.7397306 29.0047328,46.1048056 C29.0047328,39.4698806 34.403898,34.0915491 41.0645243,34.0915491 C47.7251507,34.0915491 53.1243159,39.4698806 53.1243159,46.1048056" id="Fill-5" fill="#00547A"></path>
                <path d="M53.1104175,36.6815774 C53.1104175,40.6498553 49.8814119,43.8664011 45.8977624,43.8664011 C41.9141128,43.8664011 38.6851073,40.6498553 38.6851073,36.6815774 C38.6851073,32.7132995 41.9141128,29.4967537 45.8977624,29.4967537 C49.8814119,29.4967537 53.1104175,32.7132995 53.1104175,36.6815774" id="Fill-7" fill="#00547A"></path>
                <path d="M79.9142335,36.4518877 C76.4217724,35.0863152 72.6753445,35.4555091 69.6344418,37.1424581 C67.9973332,40.3167468 69.986088,44.7537451 74.1941213,47.1740777 C78.499276,49.6500118 83.4853965,49.0745364 85.3323765,45.8885714 C86.14507,44.485746 86.2126084,42.8115853 85.6672776,41.1652254 C84.344418,39.0996303 82.3791062,37.4154614 79.9142335,36.4518877" id="Fill-9" fill="#0297B8"></path>
                <path d="M41.6480338,57.8625177 L42.50259,59.0173605 C44.6504229,61.9203139 43.9811787,66.0153632 41.019536,68.0892985 L10.1639738,89.698815 C7.25144985,91.7382774 3.23151934,91.0432589 1.17969143,88.1453096 C-0.820784956,85.3190862 -0.218520998,81.4230902 2.54273924,79.3274703 L32.5437452,56.563111 C35.4104993,54.387981 39.510248,54.9729086 41.6480338,57.8625177" id="Fill-11" fill="#EACBAC"></path>
                <path d="M41.019536,68.0893541 C43.9811787,66.0154188 44.6504229,61.9203695 42.50259,59.0174161 L41.6480338,57.8625733 C39.510248,54.9729642 35.4104993,54.3880366 32.5437452,56.5631666 L13.0000286,71.3926382 L15.0886957,78.73259 C15.4062936,79.8485118 14.9033837,81.0344915 13.8791442,81.5866142 L9.92284494,83.7189311 C9.35183842,84.0269633 9.21676161,84.7842555 9.64655146,85.2691004 L12.2688277,88.2243193 L41.019536,68.0893541 Z" id="Fill-13" fill="#E99462"></path>
                <path d="M41.7298055,57.9974625 L41.7298055,57.9974625 C44.9415079,62.1853662 44.1634208,68.1686418 39.9866449,71.4035361 L23.6216987,84.0767822 C23.1807455,84.4187313 22.5600619,84.3998268 22.1436681,84.0289649 C21.2768322,83.2577724 19.6419563,81.3984588 16.8181812,76.9153112 C13.8431423,72.1919652 12.9160242,69.9223126 12.6402889,68.8803408 C12.5219572,68.4316368 12.6899659,67.9584682 13.0611481,67.6771247 L28.2411023,56.1831861 C32.4709042,52.9805406 38.5047072,53.7923223 41.7298055,57.9974625" id="Fill-15" fill="#ED985A"></path>
                <path d="M32.3166822,63.6054281 L25.9373729,72.2392264 C23.6070188,75.3923865 19.3091203,76.3665245 15.8389859,74.5283395 L15.1518803,74.1641498 C15.620742,74.9748194 16.1677473,75.8833476 16.8180137,76.9153112 C19.6417889,81.3984588 21.277223,83.2577724 22.1435007,84.0289649 C22.5604526,84.3998268 23.180578,84.4181753 23.6215312,84.0767822 L39.8737274,71.4913865 L39.2513693,62.0385783 L38.7434359,58.729734 C37.9837684,58.7186137 37.2302407,58.6830288 36.4828529,58.6268713 L32.3166822,63.6054281 Z" id="Fill-17" fill="#D76230"></path>
                <path d="M28.2411023,56.1830749 L27.2687725,56.9192385 C30.1578534,57.7482566 33.2584802,58.3848936 36.4830204,58.6267601 C37.2304082,58.6829176 37.9839358,58.7185025 38.7436033,58.7296228 C39.8694295,58.7463032 41.0080935,58.7084942 42.1540137,58.6123037 C42.0189369,58.4049101 41.8833019,58.1975166 41.7298055,57.9973513 C38.5047072,53.7922111 32.4709042,52.9804294 28.2411023,56.1830749" id="Fill-19" fill="#D76230"></path>
                <path d="M39.675131,115.467934 C35.2276433,114.721762 31.9824508,110.871915 31.9824508,106.379316 L31.9824508,97.8750687 L31.4856808,76.1109801 L26.5012348,68.0676695 C22.9925868,62.4046584 26.4839316,55.0180014 33.1010208,54.105581 L57.1709269,50.7845044 C58.1583272,50.656065 59.1602399,50.6872018 60.1375932,50.8768029 L83.5717451,55.9237495 C89.8455606,57.2754216 92.8630202,64.4274404 89.4408883,69.8369087 L83.3356398,79.4898822 L81.6717391,99.1539028 C81.6014099,99.985701 81.6443888,100.823059 81.8006761,101.643737 L82.3973583,104.781329 C83.3802933,109.954491 79.8275499,114.905803 74.5919281,115.628066 C70.5379493,116.187417 64.9077023,116.625557 57.2122313,116.625557 C49.0864123,116.625557 43.4896554,116.107907 39.675131,115.467934" id="Fill-21" fill="#ED985A"></path>
                <path d="M83.3356956,79.4901047 L85.7095868,75.7370045 C85.3964542,75.2421513 85.1039739,74.7345098 84.8550306,74.2035156 L82.0920959,68.3192106 L76.1487163,54.3248733 L74.3592276,53.939555 L70.3337154,68.6127865 C69.9686731,69.9427739 68.7250734,70.8412939 67.3424897,70.7740161 L45.2004981,69.6981274 C44.0975569,69.644194 43.2100688,68.7762548 43.1358323,67.6786815 L42.522405,58.5822789 C41.251455,58.7034901 39.9899939,58.7479713 38.7436033,58.7296228 C37.9839358,58.7185025 37.2304082,58.6829176 36.4830204,58.6267601 C35.0116878,58.5161131 33.5654729,58.3254 32.1533063,58.0696332 L32.3168497,63.6053169 L27.6500017,69.9210894 L31.4851784,76.1112025 L31.6397911,82.876791 L31.9825067,97.8747351 L31.9825067,106.378982 C31.9825067,110.871582 35.2276991,114.721429 39.6751868,115.468156 C43.4897112,116.10813 49.0864682,116.625223 57.2128453,116.625223 C64.9072,116.625223 70.5380052,116.18764 74.591984,115.628289 C79.8276058,114.905469 83.3803491,109.954713 82.396856,104.781551 L81.8007319,101.643404 C81.6444447,100.823282 81.6014657,99.9853674 81.6717949,99.1535692 L83.3356956,79.4901047 Z" id="Fill-23" fill="#D76230"></path>
                <path d="M38.7435475,58.7296784 C39.9899381,58.7480269 41.2513992,58.7035457 42.5229074,58.5823345 C46.7499184,58.1803357 51.0863306,56.9476509 55.3512971,54.4722728 C57.2094405,53.393604 58.7751035,52.1636992 60.1024285,50.8709647 C59.1362386,50.6874799 58.1466056,50.657455 57.1709269,50.7842264 L33.1010208,54.105303 C30.830949,54.4183394 28.9287102,55.4942281 27.5505919,57.0004723 C29.0342041,57.4174834 30.5719587,57.7833412 32.1532504,58.0696888 C33.5654171,58.3254556 35.011632,58.5161687 36.4829646,58.6268157 C37.2303524,58.6829732 37.98388,58.7185581 38.7435475,58.7296784" id="Fill-25" fill="#D76230"></path>
                <path d="M89.2793543,209.253347 L97.5435992,229.326038 C98.1240945,230.736648 99.5027711,231.657965 101.033828,231.657965 C103.405486,231.657965 105.188835,229.503963 104.737277,227.184825 L100.590642,205.886121 C100.049776,203.108271 97.6077885,201.102169 94.7672684,201.102169 C90.5486298,201.102169 87.6785267,205.365135 89.2793543,209.253347" id="Fill-27" fill="#ED985A"></path>
                <path d="M100.590698,205.886288 C100.049832,203.108438 97.6078444,201.102336 94.7673242,201.102336 C90.5486856,201.102336 87.6785825,205.365302 89.2794102,209.253514 L92.7205198,217.612641 L101.780713,211.998003 L100.590698,205.886288 Z" id="Fill-29" fill="#D76230"></path>
                <path d="M88.971636,205.760295 L100.603312,205.951008 L100.590474,205.88651 C100.516796,205.506196 100.404046,205.142006 100.262829,204.793941 L89.3550978,204.614904 C89.1904381,204.98243 89.0592684,205.363856 88.971636,205.760295" id="Fill-31" fill="#DB594A"></path>
                <path d="M101.074741,208.372619 L89.0110427,208.423217 C89.0808138,208.700668 89.1662136,208.977564 89.2795218,209.253347 L89.4106914,209.572499 L101.298567,209.523014 L101.074741,208.372619 Z" id="Fill-33" fill="#DB594A"></path>
                <polygon id="Fill-35" fill="#DB594A" points="101.993487 213.091406 101.77022 211.94546 90.5164235 212.257384 90.9852851 213.396658"></polygon>
                <polygon id="Fill-37" fill="#DB594A" points="102.687402 216.655795 102.465251 215.514852 92.091687 216.084212 92.5560833 217.21181"></polygon>
                <polygon id="Fill-39" fill="#DB594A" points="103.38048 220.21618 103.159445 219.079686 93.6633224 219.901476 94.1226952 221.017398"></polygon>
                <polygon id="Fill-41" fill="#DB594A" points="104.072442 223.770505 103.851965 222.637347 95.2299343 223.706007 95.6842836 224.810253"></polygon>
                <path d="M104.755696,227.319714 C104.74844,227.274677 104.745649,227.22964 104.737277,227.184603 L104.543034,226.187668 L96.7900715,227.495971 L97.2393972,228.587984 L104.755696,227.319714 Z" id="Fill-43" fill="#DB594A"></path>
                <path d="M41.6973759,207.318415 L44.5317563,228.084457 C44.7801413,229.906518 46.2698934,231.309899 48.1101754,231.455575 C50.2781024,231.626828 52.1719686,230.009937 52.3343956,227.849819 L53.9067567,206.951445 C54.1590489,203.59256 51.6389175,200.662362 48.2681371,200.396031 C44.3626312,200.087442 41.1693484,203.451332 41.6973759,207.318415" id="Fill-45" fill="#ED985A"></path>
                <path d="M48.2684162,200.395919 L48.2684162,200.395919 C44.3629103,200.087331 41.1696275,203.451221 41.697655,207.318304 L43.2437821,218.64655 L53.5051543,212.287409 L53.9064776,206.951334 C54.159328,203.593005 51.6391966,200.662251 48.2684162,200.395919" id="Fill-47" fill="#D76230"></path>
                <path d="M41.9666365,204.525831 L53.8963747,205.995934 C53.8634428,205.588931 53.7908809,205.192493 53.6803635,204.809398 L42.4717791,203.428257 C42.2691639,203.774655 42.0978061,204.141625 41.9666365,204.525831" id="Fill-49" fill="#DB594A"></path>
                <path d="M53.7871411,208.5377 L41.6893941,207.216053 C41.6933013,207.250526 41.6927431,207.283887 41.6972085,207.31836 L41.8440068,208.390912 L53.700625,209.686427 L53.7871411,208.5377 Z" id="Fill-51" fill="#DB594A"></path>
                <polygon id="Fill-53" fill="#DB594A" points="53.5102337 212.218852 42.2223894 211.164648 42.3820256 212.335615 53.4237175 213.367023"></polygon>
                <polygon id="Fill-55" fill="#DB594A" points="53.2336053 215.898892 42.7612454 215.111575 42.9203234 216.278094 53.1470892 217.046506"></polygon>
                <polygon id="Fill-57" fill="#DB594A" points="52.9566978 219.577875 43.2992641 219.055777 43.457784 220.216736 52.8707399 220.726046"></polygon>
                <polygon id="Fill-59" fill="#DB594A" points="52.6803485 223.255802 43.8372829 222.996143 43.9946864 224.152654 52.5938324 224.405085"></polygon>
                <path d="M44.3742969,226.932617 L44.5317005,228.083568 L52.3047569,228.083568 C52.3159202,228.006282 52.3287581,227.928996 52.334898,227.850041 L52.4035527,226.932617 L44.3742969,226.932617 Z" id="Fill-61" fill="#DB594A"></path>
                <path d="M40.9756639,229.863371 L36.7687469,231.989016 C35.9527043,232.401023 35.0629835,232.649005 34.150936,232.719063 L30.7773648,232.977054 C28.487757,233.152199 26.5034675,234.624526 25.6801688,236.760179 L24.6458823,239.442951 L55.0660729,239.442951 L55.0236521,235.417959 C55.0191868,234.959247 54.933787,234.504983 54.7730344,234.07574 L53.4194755,230.473319 C53.2760261,230.090225 53.2090459,229.683222 53.2224419,229.273995 L53.4440349,222.585693 L42.1695866,222.585693 L42.6724966,226.695755 C42.8321328,228.001833 42.1539579,229.268435 40.9756639,229.863371" id="Fill-63" fill="#0097B8"></path>
                <path d="M29.1364048,237.038075 L36.6822866,237.038075 C38.4527975,237.038075 40.1513046,236.337497 41.4038351,235.090355 L46.7064371,229.80877 C47.3544709,229.163793 47.7128151,228.287514 47.7005354,227.375094 C47.6837904,226.141853 47.6614636,224.293103 47.6525329,222.585582 L42.1696424,222.585582 L42.6719942,226.695643 C42.8321886,228.002278 42.1540137,229.268324 40.9757197,229.86326 L36.7688027,231.988905 C35.9527602,232.400912 35.0635975,232.648894 34.1509918,232.718952 L30.7774206,232.976943 C28.9069975,233.120395 27.2525856,234.137902 26.2556965,235.666943 C26.9344295,236.498741 27.9664833,237.038075 29.1364048,237.038075" id="Fill-65" fill="#00547A"></path>
                <path d="M35.4738515,238.671369 L34.9279626,236.83652 C34.5556641,235.587155 33.8244632,234.474013 32.8236668,233.633875 C32.254893,233.156258 31.5197849,232.920507 30.7774206,232.977221 C28.4878128,233.152366 26.5035233,234.624693 25.6802246,236.75979 L24.943442,238.671369 L35.4738515,238.671369 Z" id="Fill-67" fill="#EAFBFF"></path>
                <path d="M52.3390842,233.644161 C52.3390842,234.741178 51.4460144,235.630246 50.3453059,235.630246 C49.2440392,235.630246 48.3509693,234.741178 48.3509693,233.644161 C48.3509693,232.547144 49.2440392,231.658076 50.3453059,231.658076 C51.4460144,231.658076 52.3390842,232.547144 52.3390842,233.644161" id="Fill-69" fill="#EAFBFF"></path>
                <path d="M54.8596064,243 L24.6526361,243 C23.9298078,243 23.344847,242.41674 23.344847,241.697257 L23.344847,240.745916 C23.344847,240.026433 23.9298078,239.443173 24.6526361,239.443173 L54.8596064,239.443173 C55.5818766,239.443173 56.1679536,240.026433 56.1679536,240.745916 L56.1679536,241.697257 C56.1679536,242.41674 55.5818766,243 54.8596064,243" id="Fill-71" fill="#EAFBFF"></path>
                <path d="M35.4738515,238.671369 L34.9279626,236.83652 C34.5556641,235.587155 33.8244632,234.474013 32.8236668,233.633875 C32.254893,233.156258 31.5197849,232.920507 30.7774206,232.977221 C28.4878128,233.152366 26.5035233,234.624693 25.6802246,236.75979 L24.943442,238.671369 L35.4738515,238.671369 Z" id="Fill-73" fill="#EAFBFF"></path>
                <path d="M34.9279626,236.836854 C34.5556641,235.586932 33.8244632,234.473791 32.824225,233.634208 C32.254893,233.156035 31.5197849,232.920285 30.7774206,232.976999 C29.1620805,233.100434 27.7091676,233.878855 26.6983242,235.07095 C27.6527926,236.263046 29.1202179,237.038131 30.7852349,237.038131 L34.9876866,237.038131 L34.9279626,236.836854 Z" id="Fill-75" fill="#ACEDFB"></path>
                <path d="M111.087449,92.0455312 C113.465806,83.6558234 117.110089,70.5622301 118.638913,65.0610193 C119.046376,63.5964762 118.27722,62.0663234 116.858355,61.5086405 C115.518192,60.9815385 113.991601,61.4841759 113.230817,62.7029604 L98.2746884,86.6482952 C95.9912205,90.3052048 97.5886992,95.1291895 101.60863,96.7138317 C105.642514,98.3040342 109.908597,96.2045222 111.087449,92.0455312" id="Fill-77" fill="#EACBAC"></path>
                <path d="M103.63668,85.988528 L114.096202,65.484369 C114.615299,64.5958573 114.533248,63.4816036 113.889679,62.6781621 L113.562034,62.2689352 C113.440354,62.4018228 113.32872,62.5458306 113.230482,62.7026268 L103.648401,78.0447441 C103.659565,81.49148 103.63668,85.988528 103.63668,85.988528" id="Fill-79" fill="#E99462"></path>
                <path d="M107.595881,93.4141061 C105.812533,93.6087113 104.024718,93.0905055 102.623157,91.9740277 L101.15015,90.8002804 C99.6146281,89.5764917 98.7639791,87.7010537 98.8359828,85.7499977 L98.2750233,86.6490736 C95.9909973,90.3054272 97.5890341,95.1288559 101.608406,96.7140542 C105.292319,98.1658089 109.161544,96.5350174 110.704881,93.0754931 L107.595881,93.4141061 Z" id="Fill-81" fill="#E99462"></path>
                <g id="Group-85" transform="translate(110.495261, 45.367128)">
                    <mask id="mask-2" fill="white">
                        <use xlink:href="#path-1"></use>
                    </mask>
                    <g id="Clip-84"></g>
                    <path d="M15.021964,10.23986 C13.552306,12.5111806 12.5409044,14.1625447 10.7542066,16.3599153 C10.3869316,16.8125114 8.97309048,19.1088526 7.82326309,21.0037512 C6.92851877,22.4777465 5.02851273,22.9870561 3.51141038,22.1613741 C2.2421349,21.4713596 1.5890776,20.0257211 1.91169907,18.6217836 C2.16678214,17.5136461 2.26557799,16.2531604 1.71634005,15.4780758 C1.27036331,14.848667 0.630702052,13.3735596 0.555907455,11.6393493 C0.485020038,9.98909732 -0.442098065,7.41919676 0.26342709,6.42837833 C0.421388814,6.2059724 0.507346784,6.10755777 0.780849415,6.0897653 C1.94686369,6.01414728 1.70238583,8.46116856 3.13464655,8.34885356 C3.63699832,8.30937651 4.04501959,7.92961838 4.2068885,7.45478171 C5.01009317,5.09171867 5.93888577,2.77091276 6.9865683,0.504596294 C7.17188029,0.104265614 7.65078898,-0.119808364 8.05211223,0.0664566051 C8.36301216,0.211020462 8.38757158,0.509600427 8.39761861,0.78371574 C8.4316669,1.68001165 7.57320354,4.54404406 8.28877573,4.89210934 C9.24212776,5.35638173 9.76959712,4.14204533 10.3272076,3.46871137 C10.8909579,2.78870523 12.245075,0.701425545 13.1800075,1.11120848 C14.1149399,1.52099141 12.3879662,4.77868232 12.3879662,4.77868232 C12.3879662,4.77868232 13.5238394,3.38030501 14.1456392,2.96273787 C14.6825974,2.60244026 15.349609,2.59131996 15.6705559,3.04892017 C15.8943816,3.36918472 15.5237576,3.95022022 15.3457018,4.4067084 C14.9147956,5.50817378 14.1651751,6.66134854 13.9653508,7.82731165 C13.9151156,8.1214435 14.5832434,7.64438277 14.8891198,7.37971971 C15.4411486,6.903215 16.0919733,6.41948209 16.4497593,6.98161309 C16.7550776,7.46200991 15.7258146,9.15118297 15.021964,10.23986" id="Fill-83" fill="#EACBAC" mask="url(#mask-2)"></path>
                </g>
                <path d="M117.481829,45.8718354 C116.434147,48.1381518 115.505354,50.4589578 114.70215,52.8220208 C114.540281,53.2968575 114.132259,53.6766156 113.630466,53.7155366 C113.489807,53.7266569 113.369243,53.7071964 113.258167,53.6738355 L113.643862,53.9018016 C113.90955,54.0591538 114.106584,54.3104725 114.194216,54.6057164 C114.330409,55.0594245 114.975652,55.0577564 115.109054,54.6034923 L117.766495,45.5304423 C117.647047,45.6171806 117.546019,45.7328317 117.481829,45.8718354" id="Fill-86" fill="#E99462"></path>
                <path d="M114.538383,61.9568997 L114.528336,61.9463354 C113.556006,60.9110358 112.902391,59.6188573 112.646191,58.2243721 L111.583996,52.4523821 C111.553855,52.1521341 111.607439,51.8568902 111.72912,51.5922272 C111.60409,51.4999287 111.458408,51.4448833 111.275887,51.4571156 C111.002943,51.474352 110.916985,51.5727667 110.758465,51.7951726 C110.053498,52.785991 110.980058,55.3558916 111.050945,57.0066996 C111.12574,58.7403539 111.765959,60.2160173 112.211936,60.84487 C112.761174,61.6205107 112.662378,62.8804403 112.407295,63.9891339 C112.150537,65.1033876 112.516696,66.2376579 113.31097,67.0060704 L114.837561,64.0269429 C115.188091,63.3436007 115.068085,62.5140266 114.538383,61.9568997" id="Fill-88" fill="#E99462"></path>
                <path d="M119.074061,57.9227897 C119.374914,57.8032465 119.702559,57.78601 120.06816,57.7404168 L120.10779,57.7354127 C120.192631,57.7248484 120.269658,57.671471 120.306498,57.5875127 C120.363431,57.4607413 120.305939,57.3122854 120.178677,57.2555719 C119.796331,57.0865434 119.349797,56.9758964 118.900471,57.033722 C118.455052,57.0770911 118.012983,57.2338873 117.643475,57.4735297 C117.268944,57.7081679 116.958044,58.0167562 116.707984,58.3548132 C116.464623,58.7028785 116.275962,59.0637321 116.186097,59.4979797 C116.166561,59.5986184 116.195027,59.7087093 116.273729,59.7859954 C116.398201,59.9077626 116.598025,59.9055386 116.720264,59.7821033 L116.744265,59.7576386 L117.486071,59.0064626 C117.727758,58.7645961 117.978934,58.5494184 118.235692,58.3564812 C118.496357,58.1663242 118.774883,58.0328806 119.074061,57.9227897" id="Fill-90" fill="#E99462"></path>
                <path d="M77.465157,60.0695073 L77.465157,60.0695073 C74.2556873,62.8562537 73.9827429,67.7297237 76.8606604,70.8550831 L99.0584688,94.9622182 C101.689118,97.8195784 106.143303,98.0225239 109.025128,95.4159263 C111.86509,92.8471378 112.131336,88.4913176 109.625717,85.5983724 L88.1752968,60.8284676 C85.4335724,57.6625191 80.629415,57.3222381 77.465157,60.0695073" id="Fill-92" fill="#EACBAC"></path>
                <path d="M99.0584688,94.9624406 C101.197929,97.2865826 104.54415,97.8537178 107.268571,96.5826679 L105.0532,96.2907601 C103.639359,96.1044951 102.331012,95.4461735 101.341937,94.4225502 L99.5569134,92.576025 C98.2161924,91.1882119 97.2812599,89.4623419 96.8525864,87.5841238 L94.8766694,78.9219687 L87.7393671,82.6700647 L99.0584688,94.9624406 Z" id="Fill-94" fill="#E99462"></path>
                <path d="M103.641533,84.9020194 C103.640419,85.1744667 104.008811,85.259537 104.132724,85.0165585 L105.981937,81.3907858 L103.650466,78.6974499 C103.654374,80.9537581 103.647117,83.4941899 103.641533,84.9020194" id="Fill-96" fill="#E99462"></path>
                <path d="M75.640727,58.1823374 L75.640727,58.1823374 C71.6559611,61.6485339 71.2211477,67.6668384 74.6667227,71.6656971 L88.168822,87.3336391 C88.532748,87.7556544 89.1445008,87.8601852 89.6267585,87.5799537 C90.6297875,86.9961381 92.6045882,85.4982341 96.2684071,81.6656239 C100.128701,77.6278442 101.491191,75.5878257 101.969542,74.621472 C102.176064,74.2050169 102.105735,73.7079396 101.798184,73.3587623 L89.2220862,59.0819694 C85.7179035,55.1036833 79.6427961,54.7016845 75.640727,58.1823374" id="Fill-98" fill="#ED985A"></path>
                <path d="M88.1689895,87.3335279 C88.5329154,87.7555432 89.1446682,87.86063 89.6269259,87.5798425 C90.5049252,87.0688648 92.1264051,85.8589766 94.972507,82.9966122 C93.1601334,82.9004216 91.4404158,82.1220009 90.1722567,80.8020217 L88.8432572,79.4192128 C86.8494788,77.3441654 85.2095794,74.9588618 83.9877482,72.3567123 L82.0922075,68.3189326 L77.2953063,57.0257153 C76.7159272,57.3470919 76.1605494,57.7307422 75.6408945,58.1822262 C71.6561286,61.6484227 71.2213152,67.6667272 74.6674484,71.6655859 L88.1689895,87.3335279 Z" id="Fill-100" fill="#D76230"></path>
                <path d="M58.4702318,35.3287377 C54.7198967,35.3287377 51.5628949,38.0854593 51.0315184,41.7835139 C50.7535504,43.7178895 50.2992012,45.6950783 49.6606562,47.5071306 C48.4957583,50.8137508 45.0764172,52.4812393 45.0764172,52.4812393 C45.0764172,52.4812393 45.2539149,59.3185537 57.7178205,59.3185537 C70.1811679,59.3185537 71.4995623,53.4247965 71.4995623,53.4247965 C71.4995623,53.4247965 65.944668,50.5390795 65.8469885,43.5299565 C65.8302434,42.3217363 65.8162892,41.2864366 65.8045677,40.400705 C65.7682867,37.5917181 62.4951858,35.3287377 58.4702318,35.3287377" id="Fill-102" fill="#EACBAC"></path>
                <path d="M65.8291829,42.2297714 C65.819694,41.5619976 65.8118797,40.9487132 65.8046235,40.4004826 C65.7683425,37.5914957 62.4952417,35.3285153 58.4702876,35.3285153 C54.7199526,35.3285153 51.5623926,38.0852368 51.0315742,41.7838475 C50.7536062,43.7176671 50.299257,45.6948559 49.660712,47.5074642 C48.4958141,50.8135284 45.076473,52.4810169 45.076473,52.4810169 C45.076473,52.4810169 45.1551748,55.3689579 48.6308909,57.3911839 C50.8730543,56.7172939 53.1219158,55.7659525 55.3512413,54.472106 C61.3487633,50.9914532 64.3511524,45.9534028 65.8291829,42.2297714" id="Fill-104" fill="#E99462"></path>
                <path d="M43.2783886,30.2678907 C43.809207,33.3943621 43.3085297,35.600629 41.3940113,36.1521957 C39.1624531,36.7949488 37.3428233,33.8908833 36.818703,31.4505342 C35.8642346,27.0085317 37.6313965,24.3252042 39.4577243,24.507021 C42.8982758,24.8500822 42.8603203,27.8075251 43.2783886,30.2678907" id="Fill-106" fill="#EACBAC"></path>
                <path d="M74.0752314,30.2678907 C73.5444131,33.3943621 74.0450903,35.600629 75.9596087,36.1521957 C78.1911669,36.7949488 80.0107967,33.8908833 80.534917,31.4505342 C81.4893854,27.0085317 79.7222235,24.3252042 77.8958957,24.507021 C74.4553443,24.8500822 74.4932997,27.8075251 74.0752314,30.2678907" id="Fill-108" fill="#EACBAC"></path>
                <path d="M39.4576127,24.5070766 C37.7205919,24.334156 36.0421788,26.7567126 36.7030504,30.8167329 C36.8375691,30.7122021 36.95311,30.4397549 37.0189739,29.9398975 C37.237776,28.2763012 38.3703002,27.3855654 39.1188043,27.3588767 C41.3470135,27.2788105 43.4122374,30.9607408 41.398365,34.5203477 C40.925038,35.3571501 40.7508894,35.991563 40.9551791,36.2323174 C41.0997448,36.2195291 41.2454268,36.1950644 41.3938997,36.1522513 C43.3084181,35.6006846 43.8090953,33.3944177 43.278277,30.2679463 C42.8607668,27.8075807 42.8981641,24.8501378 39.4576127,24.5070766" id="Fill-110" fill="#E99462"></path>
                <path d="M78.2089167,24.5065206 C78.1050973,24.4981804 78.0007198,24.4965123 77.8963423,24.5070766 C74.4552326,24.8501378 74.4931881,27.8075807 74.0751198,30.2679463 C74.0237683,30.5693063 73.9858128,30.8601021 73.9539972,31.1436697 C74.6159852,31.3265985 75.2087603,31.1097528 75.3873743,30.331332 C76.0443387,27.4695236 76.7671671,25.2504684 78.2089167,24.5065206" id="Fill-112" fill="#E99462"></path>
                <path d="M76.7573434,33.9775105 C76.7573434,34.4328866 76.3867194,34.8020805 75.9295793,34.8020805 C75.4724392,34.8020805 75.1018152,34.4328866 75.1018152,33.9775105 C75.1018152,33.5221343 75.4724392,33.1529405 75.9295793,33.1529405 C76.3867194,33.1529405 76.7573434,33.5221343 76.7573434,33.9775105" id="Fill-114" fill="#E99462"></path>
                <path d="M41.4825927,33.9775105 C41.4825927,34.4328866 41.1119687,34.8020805 40.6548286,34.8020805 C40.1976885,34.8020805 39.8270645,34.4328866 39.8270645,33.9775105 C39.8270645,33.5221343 40.1976885,33.1529405 40.6548286,33.1529405 C41.1119687,33.1529405 41.4825927,33.5221343 41.4825927,33.9775105" id="Fill-116" fill="#E99462"></path>
                <path d="M76.9399203,33.8056463 C76.9399203,34.2610224 76.5692963,34.6302163 76.1121562,34.6302163 C75.6550161,34.6302163 75.2843921,34.2610224 75.2843921,33.8056463 C75.2843921,33.3502701 75.6550161,32.9810763 76.1121562,32.9810763 C76.5692963,32.9810763 76.9399203,33.3502701 76.9399203,33.8056463" id="Fill-118" fill="#0297B8"></path>
                <path d="M41.6652254,33.8056463 C41.6652254,34.2610224 41.2946015,34.6302163 40.8374613,34.6302163 C40.3803212,34.6302163 40.0096973,34.2610224 40.0096973,33.8056463 C40.0096973,33.3502701 40.3803212,32.9810763 40.8374613,32.9810763 C41.2946015,32.9810763 41.6652254,33.3502701 41.6652254,33.8056463" id="Fill-120" fill="#0297B8"></path>
                <path d="M60.5701738,10.8887721 C68.2572723,10.8337266 74.4847598,17.1717397 74.4004763,24.9648436 L74.3954528,25.4741532 C74.4663402,25.87782 75.084791,35.3278481 72.6428033,38.9558449 C70.0182943,42.8535089 67.4574166,43.5207267 63.019976,44.7650879 C60.2882987,45.5312763 57.4020087,45.5624131 54.649121,44.8785149 C50.018554,43.7286762 47.1406365,43.346694 44.8264693,39.1365497 C42.740035,35.3395244 42.8829261,26.103006 42.9504645,25.6987832 L42.9404175,25.1889176 C42.7841303,17.3974817 48.95301,10.9710623 56.6395503,10.9165728 L60.5701738,10.8887721 Z" id="Fill-122" fill="#EACBAC"></path>
                <path d="M54.6488977,44.8787373 C55.9349182,45.1978898 57.2494054,45.354686 58.5638925,45.3602461 C43.4871995,42.7603208 44.8307114,30.2616633 46.7189959,24.3417734 C47.7633294,21.0696261 47.5188515,17.2498042 47.182834,14.8200194 C44.5019501,17.431065 42.8587016,21.1230035 42.9401942,25.18914 L42.9502413,25.6984496 C42.8827029,26.1032284 42.7403699,35.3391908 44.8268042,39.1362161 C47.1404132,43.3469164 50.0183307,43.7288986 54.6488977,44.8787373" id="Fill-124" fill="#E99462"></path>
                <path d="M53.3775012,30.3897691 C53.4545284,30.2301929 53.5008564,30.0539362 53.5008564,29.8648911 L53.5008564,28.4003481 C53.5008564,27.7259021 52.9521767,27.1793395 52.2756763,27.1793395 C51.5986177,27.1793395 51.0504961,27.7259021 51.0504961,28.4003481 L51.0504961,29.8648911 C51.0504961,30.0578283 51.0990568,30.2374211 51.1788749,30.3997774 C51.5093108,30.2179606 51.8832837,30.1056456 52.2868397,30.1056456 C52.6836976,30.1056456 53.0515307,30.2146245 53.3775012,30.3897691" id="Fill-126" fill="#00547A"></path>
                <path d="M66.1336081,30.3327776 C66.1938903,30.1887698 66.2273804,30.0308616 66.2273804,29.8651691 L66.2273804,28.4000701 C66.2273804,27.7261801 65.6792588,27.1796175 65.0022003,27.1796175 C64.3256999,27.1796175 63.7770201,27.7261801 63.7770201,28.4000701 L63.7770201,29.8651691 C63.7770201,30.0803469 63.8378605,30.2799562 63.9360982,30.4556569 C64.2894189,30.2376991 64.7024637,30.1059236 65.1484404,30.1059236 C65.5023194,30.1059236 65.8338715,30.1915499 66.1336081,30.3327776" id="Fill-128" fill="#00547A"></path>
                <path d="M68.0825655,26.1517685 L68.0825655,26.1517685 C67.9463724,26.2674196 67.7482225,26.2740917 67.6053313,26.1667809 L66.4354099,25.2927256 C66.2026535,25.1192489 65.9330581,25.0008178 65.6478339,24.9468843 L63.7154541,24.5815826 C63.4268809,24.5270931 63.3052002,24.1823639 63.4960938,23.959958 L63.781318,23.6280172 C63.8778812,23.5157022 64.0313776,23.4689969 64.1742687,23.50903 L66.1613491,24.0578166 C66.462202,24.1412188 66.7384954,24.297459 66.9651119,24.5120807 L68.0976361,25.5868574 C68.2617376,25.7425416 68.2550396,26.0049806 68.0825655,26.1517685" id="Fill-130" fill="#00547A"></path>
                <path d="M49.3531053,26.1517685 L49.3531053,26.1517685 C49.4892985,26.2674196 49.6874483,26.2740917 49.8308977,26.1667809 L51.0008191,25.2927256 C51.2330173,25.1192489 51.5026127,25.0008178 51.7878369,24.9468843 L53.7202167,24.5815826 C54.0087899,24.5270931 54.1304707,24.1823639 53.939577,23.959958 L53.6543528,23.6280172 C53.5577896,23.5157022 53.4048514,23.4689969 53.2614021,23.50903 L51.2748799,24.0578166 C50.9734689,24.1412188 50.6971754,24.297459 50.4705589,24.5120807 L49.3380348,25.5868574 C49.1739332,25.7425416 49.1806312,26.0049806 49.3531053,26.1517685" id="Fill-132" fill="#00547A"></path>
                <path d="M66.7661806,31.6850613 L67.4851018,31.6850613 C67.7708841,31.6850613 68.001966,31.9158075 68.001966,32.199931 L68.001966,32.3339306 C68.001966,32.6186102 67.7708841,32.8493564 67.4851018,32.8493564 L66.7661806,32.8493564 C66.4803983,32.8493564 66.2493164,32.6186102 66.2493164,32.3339306 L66.2493164,32.199931 C66.2493164,31.9158075 66.4803983,31.6850613 66.7661806,31.6850613" id="Fill-134" fill="#FC95A4"></path>
                <path d="M64.7891473,32.9692332 L65.5080685,32.9692332 C65.7938508,32.9692332 66.0249327,33.1999793 66.0249327,33.4841029 L66.0249327,33.6181025 C66.0249327,33.9027821 65.7938508,34.1335282 65.5080685,34.1335282 L64.7891473,34.1335282 C64.503365,34.1335282 64.2722831,33.9027821 64.2722831,33.6181025 L64.2722831,33.4841029 C64.2722831,33.1999793 64.503365,32.9692332 64.7891473,32.9692332" id="Fill-136" fill="#FC95A4"></path>
                <path d="M62.812114,31.6850613 L63.5310352,31.6850613 C63.8168175,31.6850613 64.0478993,31.9158075 64.0478993,32.199931 L64.0478993,32.3339306 C64.0478993,32.6186102 63.8168175,32.8493564 63.5310352,32.8493564 L62.812114,32.8493564 C62.5268898,32.8493564 62.2952498,32.6186102 62.2952498,32.3339306 L62.2952498,32.199931 C62.2952498,31.9158075 62.5268898,31.6850613 62.812114,31.6850613" id="Fill-138" fill="#FC95A4"></path>
                <path d="M53.9045798,31.6850613 L54.623501,31.6850613 C54.9092834,31.6850613 55.1403652,31.9158075 55.1403652,32.199931 L55.1403652,32.3339306 C55.1403652,32.6186102 54.9092834,32.8493564 54.623501,32.8493564 L53.9045798,32.8493564 C53.6187975,32.8493564 53.3877157,32.6186102 53.3877157,32.3339306 L53.3877157,32.199931 C53.3877157,31.9158075 53.6187975,31.6850613 53.9045798,31.6850613" id="Fill-140" fill="#FC95A4"></path>
                <path d="M51.9275465,32.9692332 L52.6464677,32.9692332 C52.9322501,32.9692332 53.1633319,33.1999793 53.1633319,33.4841029 L53.1633319,33.6181025 C53.1633319,33.9027821 52.9322501,34.1335282 52.6464677,34.1335282 L51.9275465,34.1335282 C51.6417642,34.1335282 51.4106824,33.9027821 51.4106824,33.6181025 L51.4106824,33.4841029 C51.4106824,33.1999793 51.6417642,32.9692332 51.9275465,32.9692332" id="Fill-142" fill="#FC95A4"></path>
                <path d="M49.9505132,31.6850613 L50.6694344,31.6850613 C50.9552167,31.6850613 51.1862986,31.9158075 51.1862986,32.199931 L51.1862986,32.3339306 C51.1862986,32.6186102 50.9552167,32.8493564 50.6694344,32.8493564 L49.9505132,32.8493564 C49.665289,32.8493564 49.433649,32.6186102 49.433649,32.3339306 L49.433649,32.199931 C49.433649,31.9158075 49.665289,31.6850613 49.9505132,31.6850613" id="Fill-144" fill="#FC95A4"></path>
                <path d="M58.2990973,28.0427193 C58.2075576,28.6882526 58.1076455,29.3315617 57.9921046,29.9720908 L57.6471563,31.8653213 C57.6214806,32.0682667 57.7146947,32.2745482 57.8698656,32.3996516 C57.9474511,32.4624812 58.0378744,32.5080745 58.1366702,32.5236429 C58.2332334,32.5392113 58.4431048,32.5558917 58.5910195,32.5720162 L59.06937,32.6265056 C59.1681659,32.6365139 59.2714271,32.6331778 59.3707811,32.5998169 C59.4734841,32.5686801 59.5639074,32.5225308 59.6604706,32.4369046 C59.7815932,32.3251456 59.9038321,32.2139426 60.0400253,32.114416 C60.1337976,32.0460261 60.2649672,32.0654866 60.333622,32.1588971 C60.3793918,32.2206148 60.3855317,32.2995689 60.3576232,32.3651786 C60.290643,32.5197508 60.2097085,32.6637586 60.1282159,32.8066544 C60.0266292,32.978463 59.8547133,33.1419314 59.6587961,33.2431261 C59.4606462,33.3420967 59.2317971,33.3954741 59.0057388,33.3776817 C58.8265667,33.3632253 58.6758611,33.3498809 58.510085,33.3304204 C58.3337038,33.3076238 58.2176047,33.3031757 57.9921046,33.2664787 C57.7688371,33.2242216 57.5578494,33.1196908 57.3859334,32.9745709 C57.0359617,32.6871112 56.8601386,32.2089385 56.931026,31.7680187 C57.076708,31.0780043 57.2452749,30.4897406 57.401004,29.8453194 C57.5595239,29.2142426 57.7336725,28.5870579 57.9167518,27.9609851 C57.9468929,27.8575664 58.0557358,27.7975168 58.1595551,27.8275416 C58.2544438,27.8553423 58.3124933,27.9481968 58.2990973,28.0427193" id="Fill-146" fill="#E99462"></path>
                <path d="M58.2998787,36.8512731 C58.6001735,37.1309486 59.0003804,37.223247 59.3933311,37.2499358 C59.7924217,37.2710643 60.2049083,37.2377034 60.6229766,37.1754298 C61.0404867,37.1192723 61.4401355,37.0386501 61.7839674,36.8924182 C62.1305901,36.7517465 62.4029764,36.5054319 62.6921077,36.1256738 C62.7250397,36.0823046 62.7869964,36.0739644 62.8305335,36.1067693 C62.8562093,36.1262298 62.8701635,36.1556986 62.8701635,36.1851674 L62.8701635,36.1935076 C62.8679308,36.6611161 62.6044753,37.2104587 62.1484515,37.5084827 C61.7074983,37.8170709 61.206821,37.9405062 60.7318195,37.9983317 C60.2562598,38.0556013 59.7527917,38.0539332 59.2627196,37.9049212 C58.78716,37.7664735 58.2686213,37.4484331 58.1435915,36.9102107 C58.1329863,36.8662855 58.1603366,36.8223604 58.2049901,36.8123521 C58.2323403,36.8056799 58.2596906,36.8140201 58.2792265,36.8318126 L58.2998787,36.8512731 Z" id="Fill-148" fill="#1C417D"></path>
                <path d="M77.6602928,11.8525682 C76.8012712,10.2134365 75.3171008,7.9426719 73.9049342,7.44781869 C71.8051038,3.42505137 67.4686916,0 58.7802387,0 C49.669252,0 45.2747904,3.53569833 43.2190553,7.54567731 C41.8783342,8.18954248 40.5057975,10.3018428 39.693104,11.8525682 C37.8779396,15.3176526 38.1553494,18.3951948 38.8608746,20.4685741 C39.487698,22.3100952 39.1862869,24.5108019 39.1862869,24.5108019 C39.1862869,24.5108019 39.6093787,24.4312918 40.48068,24.7415481 C42.6201403,25.5032884 42.7652642,27.3653821 42.6793062,28.3484163 C42.6419089,28.7682075 42.807685,29.1768784 43.1280738,29.4515497 L43.8955557,30.1082032 C44.1718491,30.3445095 44.5999645,30.1426762 44.5899174,29.7790425 L44.3979074,22.3729249 C44.3979074,22.3729249 47.2401021,19.1841798 48.0896348,13.0652366 C50.6583269,11.544536 54.0430615,10.3224154 58.2935156,10.3224154 C62.9307806,10.3224154 66.6409276,11.9871238 69.4033041,13.94374 C70.3856809,19.4872079 72.9554893,22.3729249 72.9554893,22.3729249 L72.7634793,29.7790425 C72.7539905,30.1426762 73.1815476,30.3445095 73.4583993,30.1082032 L74.225323,29.4515497 C74.5462699,29.1768784 74.7114879,28.7682075 74.6746487,28.3484163 C74.5886908,27.3653821 74.7338146,25.5032884 76.873275,24.7415481 C77.7445762,24.4312918 78.1671099,24.5108019 78.1671099,24.5108019 C78.1671099,24.5108019 77.866257,22.3100952 78.4930804,20.4685741 C79.1986055,18.3951948 79.4760153,15.3176526 77.6602928,11.8525682" id="Fill-150" fill="#0297B8"></path>
                <path d="M43.2189995,7.54589971 C41.8782784,8.18920887 40.5057417,10.3020652 39.6936064,11.8527906 C37.8778838,15.3178751 38.1552936,18.3948611 38.8608188,20.4682405 C39.4876421,22.3097616 39.1862311,24.5104683 39.1862311,24.5104683 C39.1862311,24.5104683 39.6093229,24.4309582 40.4806241,24.7412145 C42.6200845,25.5029548 42.7652084,27.3656045 42.6792504,28.3486387 C42.6418531,28.7678739 42.8076292,29.1771008 43.1285761,29.4512161 L43.8949417,30.1078696 C44.1723515,30.3447319 44.5999087,30.1423425 44.5904198,29.7787088 L44.3978516,22.3731473 C44.3978516,22.3731473 46.1198019,20.4287634 47.2841416,16.6817794 C44.4017588,7.22730321 48.1554429,2.93431268 51.0534544,1.10835997 C46.96766,2.46058804 44.5775819,4.89593301 43.2189995,7.54589971" id="Fill-152" fill="#00547A"></path>
                <path d="M74.9724317,13.6124108 C74.3232816,11.4333886 72.9540939,9.47510438 71.2209803,7.98164854 C69.4951229,6.46094797 67.3952925,5.43732466 65.242436,4.76065461 C63.0683692,4.13736198 60.833462,3.88270718 58.6175325,3.82599367 C58.0627129,3.81765345 57.5067769,3.87047486 56.9513991,3.89104741 C56.3965795,3.91440003 55.8417599,3.93997671 55.2863821,4.03672329 C54.7315625,4.11845747 54.1761847,4.1868473 53.6230396,4.28248185 C53.0743598,4.41703744 52.5228892,4.54269679 51.9775584,4.69004072 C49.8196785,5.35503446 47.6952886,6.36030928 45.9805946,7.9127027 C45.7673742,8.10563984 45.5468976,8.29023677 45.3420497,8.49095812 L44.7688105,9.1387154 C44.585173,9.36056532 44.3747434,9.55795059 44.2167817,9.79981704 L43.7367567,10.5154081 C43.3957157,10.9774565 43.1813789,11.5179029 42.9179233,12.0205403 C42.6667474,12.5309619 42.5138092,13.0853087 42.3173338,13.6124108 C41.7256751,15.796437 41.7591652,18.1216911 42.4881334,20.1783899 C42.5299961,20.2962651 42.648886,20.3746632 42.7789393,20.3607628 C42.8034987,20.3585387 42.8247091,20.3479744 42.8464777,20.3396342 C42.7822883,20.3212857 42.731495,20.2718004 42.7264715,20.2045226 C42.5869293,18.1878568 42.7487982,16.1233737 43.3415733,14.1261685 C43.9432791,12.1384154 45.1143169,10.2613094 46.7475183,8.87738843 C48.36844,7.46955887 50.3811961,6.6160761 52.4017666,6.09842629 C53.4181917,5.83709932 54.4513618,5.67307495 55.4828575,5.57132423 C56.5160276,5.45734119 57.5486396,5.42286827 58.579577,5.41730812 C60.6397775,5.44455285 62.7211883,5.63081782 64.7512476,6.16403605 C66.7656782,6.71282269 68.7555494,7.58576597 70.3803783,8.97191095 C72.0219523,10.3313672 73.2315037,12.1678842 73.8962826,14.1372888 C74.5538052,16.1139215 74.7631185,18.1856328 74.6280416,20.2045226 C74.6235763,20.2768045 74.5666431,20.3240658 74.4996629,20.3390782 C74.5041282,20.3407463 74.5069191,20.3440823 74.5113844,20.3457504 C74.6559501,20.3974598 74.81447,20.3223978 74.8663797,20.1783899 C75.6026041,18.1244711 75.6137675,15.7853167 74.9724317,13.6124108" id="Fill-154" fill="#ED985A"></path>
                <path d="M74.6282091,20.204467 C74.7632859,18.1855772 74.5534145,16.1138659 73.89645,14.1372332 C73.2316712,12.1678286 72.0221197,10.3313116 70.3805458,8.97185535 C68.7557169,7.58571037 66.7658457,6.71276708 64.7514151,6.16398044 C62.7213558,5.63076222 60.6393868,5.44449725 58.5797445,5.41725252 C57.5482489,5.42336869 56.5156369,5.45784161 55.4830249,5.57126863 C54.4515293,5.67301935 53.417801,5.83704372 52.401934,6.09837069 C50.3813636,6.61657652 48.3686075,7.46950327 46.7476858,8.87733283 C45.1144843,10.2612538 43.9428884,12.1383598 43.3417407,14.1261129 C42.7484075,16.1233181 42.5870967,18.1883572 42.7266389,20.204467 C42.7311043,20.2717448 42.7824558,20.3212301 42.8466452,20.3395786 C42.8572504,20.3429147 42.8639484,20.352367 42.8756699,20.352923 C42.9638606,20.3590391 43.0403297,20.2923174 43.0464695,20.204467 C43.1960587,18.216714 43.4874228,16.2356331 44.2370432,14.4402612 C44.9375449,12.633769 46.0951866,11.0541309 47.5843805,9.89483998 C49.0825052,8.74166521 50.8803663,7.99549331 52.7641855,7.5829303 C54.6429811,7.14034249 56.6099674,7.00133878 58.5724883,7.01023502 C60.5366837,7.01079104 62.4952975,7.18760375 64.3746513,7.63797577 C66.2512142,8.08334365 68.0418192,8.84397194 69.5555725,9.99047453 C71.0654187,11.1375331 72.2598996,12.6910386 73.0173344,14.4747342 C73.8210972,16.2461974 74.1571148,18.2200501 74.3078203,20.204467 C74.3139602,20.2828651 74.376475,20.3479188 74.4574095,20.3535502 C74.4735964,20.354591 74.4847598,20.3423587 74.4998303,20.3390226 C74.5668105,20.3240102 74.6231856,20.2767489 74.6282091,20.204467" id="Fill-156" fill="#D76230"></path>
                <path d="M75.877558,21.8451 C75.8608129,22.6830143 75.0001169,23.2434773 74.2264951,22.9132045 C73.0867148,22.4278035 71.5026322,21.6388185 70.1166995,20.5395772 C66.9195095,18.0035935 65.4532005,14.3622524 65.5910682,11.8624097 C62.2744301,12.3072215 59.0928689,16.5207019 59.0331449,21.1867784 C59.027005,21.6527189 58.6452177,22.0258048 58.1774724,22.0258048 L55.7371591,22.0258048 C55.1851303,22.0258048 54.6649171,21.7683699 54.3445283,21.320222 C53.5223459,20.1714953 52.1994863,17.6922252 53.0205523,14.4206339 C53.0205523,14.4206339 51.8969589,18.208763 52.5544815,21.0010695 C52.6856512,21.5576403 52.3239579,22.106983 51.755184,22.1864931 L50.1655198,22.408899 C49.4918102,22.5028655 48.8515908,22.0880785 48.6718605,21.434205 C48.2593739,19.932965 47.7486496,17.2312889 48.6383704,15.136225 C46.919211,16.1303795 46.8890699,20.2888145 46.9582828,22.0630578 C46.9767023,22.5317783 46.6490574,22.9437853 46.1880101,23.0377518 L42.8830936,23.7110858 C42.8830936,23.7110858 41.7137303,22.3455133 41.7137303,19.6188166 C41.7137303,15.0389224 44.8891517,11.4965519 47.0838707,10.0675938 C55.1700597,4.80268933 62.5161172,6.76430966 65.3281707,7.63669693 C68.9266839,8.75317472 72.1796907,10.5546628 74.4787874,14.6574962 C75.7475047,16.9221447 75.9155134,19.9824503 75.877558,21.8451" id="Fill-158" fill="#0297B8"></path>
                <path d="M68.8666808,16.6438592 C66.563677,13.0603436 66.4057153,9.6708772 66.4057153,9.6708772 C66.4057153,9.6708772 65.7576815,10.4598623 65.5891146,11.9838989 C65.5031566,14.4792935 66.9700238,18.0433486 70.1164204,20.5392992 C71.5023531,21.6385405 73.0869939,22.4275255 74.2267742,22.9134825 C74.4455763,23.006893 74.6694019,23.0224614 74.8803897,22.9874325 C74.0559746,22.3229947 70.7460346,19.5679412 68.8666808,16.6438592" id="Fill-160" fill="#00547A"></path>
                <path d="M61.0177135,7.94339472 C58.3329223,7.97508756 55.9439606,9.14549879 54.4793261,11.2783717 C53.5069963,12.6945415 52.9940393,14.139068 52.757934,15.4912961 C52.8980343,14.8379787 53.0208314,14.4209675 53.0208314,14.4209675 C52.1997654,17.6920028 53.522625,20.1712729 54.3442493,21.3205556 C54.5920761,21.6669528 54.9604674,21.8954749 55.3701632,21.9827693 L56.7058607,21.972205 C52.9940393,15.5474536 56.7851207,9.17051945 61.0177135,7.94339472" id="Fill-162" fill="#00547A"></path>
                <path d="M56.8273182,7.70230668 C53.0261898,8.63585559 51.0686924,10.8032014 49.5203326,13.3553095 C49.1491505,13.9669258 48.8600191,14.5629737 48.6328445,15.1401171 C48.634519,15.1390051 48.6361935,15.137337 48.6384262,15.136225 C47.7487054,17.2312889 48.2594297,19.932965 48.6719163,21.434205 C48.8516466,22.0880785 49.491866,22.5028655 50.1655756,22.408899 L51.7552399,22.1864931 C51.8004515,22.1803769 51.841756,22.1664766 51.884735,22.1542442 C48.8639263,15.9680232 52.4462526,9.71786045 56.8273182,7.70230668" id="Fill-164" fill="#00547A"></path>
                <path d="M51.0431841,8.00422274 C49.7554891,8.51853646 48.4303967,9.19131441 47.084094,10.0675938 C44.8893749,11.4965519 41.7139536,15.0389224 41.7139536,19.6188166 C41.7139536,22.3455133 42.8833168,23.7116418 42.8833168,23.7116418 L45.8723099,23.1016935 C44.0035613,17.5682339 46.9166434,10.9644457 51.0431841,8.00422274" id="Fill-166" fill="#00547A"></path>
                <path d="M106.92407,207.943932 L86.6201273,119.104438 C85.0349284,112.168709 78.8442801,107.247978 71.7036287,107.247978 C61.5561229,107.247978 54.2206707,116.909291 56.9830473,126.636215 L80.2330036,208.493831 C80.3691968,208.972559 80.8079173,209.302832 81.3069201,209.302832 L105.835641,209.302832 C106.551771,209.302832 107.083148,208.640063 106.92407,207.943932" id="Fill-168" fill="#0080F6"></path>
                <path d="M60.8070048,138.197987 L62.8582745,147.321079 L80.2329478,208.493831 C80.369141,208.972559 80.8078615,209.302832 81.3074224,209.302832 L92.2910648,209.302832 L60.8070048,138.197987 Z" id="Fill-170" fill="#0068C9"></path>
                <path d="M104.424311,201.548371 L79.7783753,201.85418 C79.4591028,201.858072 79.1973217,201.603973 79.1928238,201.285932 C79.1895074,200.967892 79.4445904,200.706565 79.7638629,200.702673 L79.7783753,200.702673 L104.424311,201.009037 C104.573901,201.010705 104.693349,201.133028 104.691692,201.28204 C104.69,201.428828 104.570552,201.546703 104.424311,201.548371" id="Fill-172" fill="#3CA1FF"></path>
                <path d="M47.0174487,107.247978 L46.4754669,107.247978 C37.8383654,107.247978 30.9137254,114.366079 31.1849953,122.965405 L33.8720191,208.225831 C33.8904387,208.825771 34.3849761,209.302832 34.9877982,209.302832 L60.7232795,209.302832 C61.337265,209.302832 61.8357096,208.809091 61.8396168,208.196919 L62.3159734,122.571746 C62.3626208,114.122545 55.4993792,107.247978 47.0174487,107.247978" id="Fill-174" fill="#0080F6"></path>
                <path d="M46.5039335,152.945947 L46.1534036,130.778748 C46.0529333,124.435731 46.9934474,118.118846 48.9369906,112.077745 L50.3547389,107.671883 C50.3603206,107.654091 50.364786,107.636854 50.3703677,107.619062 C49.2908695,107.378863 48.1700669,107.2482 47.0174487,107.2482 L46.4754669,107.2482 C37.8383654,107.2482 30.9137254,114.365746 31.1849953,122.965627 L33.8720191,208.225498 C33.8909969,208.825994 34.3849761,209.303055 34.9877982,209.303055 L47.826235,209.303055 L46.5039335,152.945947 Z" id="Fill-176" fill="#0068C9"></path>
                <path d="M60.7200979,201.548371 L36.0741618,201.85418 C35.7548894,201.858072 35.4931083,201.603973 35.4886103,201.285932 C35.4852939,200.967892 35.740377,200.706565 36.0596495,200.702673 L36.0741618,200.702673 L60.7200979,201.009037 C60.8696871,201.010705 60.9891352,201.133028 60.9874781,201.28204 C60.9857862,201.428828 60.8663381,201.546703 60.7200979,201.548371" id="Fill-178" fill="#3CA1FF"></path>
                <path d="M31.14586,121.351961 L31.1821487,104.477467 C31.1843813,103.265911 31.2586178,102.055466 31.4037416,100.852806 L34.1923521,77.7459417 L34.1845377,53.9735275 C34.1845377,53.4058364 34.6132113,52.9293317 35.1797524,52.86817 L39.931442,52.3505202 C40.5962209,52.2782383 41.1750417,52.7997802 41.16946,53.46533 L41.0449884,68.2119554 C41.0321506,69.7198676 42.228306,70.9631168 43.740943,71.0137141 L68.995841,71.8649728 C70.3454928,71.910566 71.534392,70.9864694 71.8184998,69.6709383 L75.1061131,54.442804 C75.2356082,53.841196 75.8317323,53.4592138 76.4356708,53.5904333 L81.8487902,54.7680727 C82.4493796,54.8987362 82.8306088,55.4881119 82.70223,56.0874959 L78.1838549,77.1298773 C78.0208697,77.8888375 78.0191952,78.6728184 78.1788314,79.4323347 L82.837865,101.589526 L86.5703387,118.688094 C87.0218971,120.754801 85.6504768,122.778695 83.5573444,123.135101 L63.2472623,126.590733 C60.7360616,127.017752 58.1802074,127.122283 55.6422146,126.900433 L34.546231,125.057244 C32.6188747,124.888215 31.1419605,123.279108 31.14586,121.351961" id="Fill-180" fill="#0080F6"></path>
                <path d="M42.8355376,85.8283401 C40.5520697,81.9879457 39.2839106,77.6332375 39.1505083,73.1712185 L38.5331738,52.5024791 L35.1796966,52.8677808 C34.6137136,52.9294985 34.1844819,53.4060032 34.1844819,53.9736943 L34.1922963,77.7461085 L31.404244,100.852417 C31.2585619,102.055633 31.1843255,103.266077 31.1820928,104.477634 L31.1458041,121.352128 C31.1419047,123.278719 32.6188189,124.888382 34.5461752,125.056855 L46.2705074,126.08159 C46.5808492,121.328219 47.4744771,116.62489 48.9374371,112.0778 L50.3551855,107.671939 C51.5764584,103.87547 51.108155,99.7403873 49.0686068,96.3103318 L42.8355376,85.8283401 Z" id="Fill-182" fill="#0068C9"></path>
                <path d="M43.2712999,77.7775234 L43.5241503,89.3025988 L54.0400473,96.0809757 L65.9424353,92.2411372 L66.5100928,89.4794115 C66.5184654,89.4388225 66.5491646,89.4132458 66.5848874,89.3987894 L67.175988,79.6718659 C67.2072455,79.1620003 66.8198764,78.7221926 66.308594,78.6860516 L61.1823732,78.3213059 C61.1594883,78.3329822 61.1377197,78.3485506 61.1098113,78.3474386 L43.2712999,77.7775234 Z" id="Fill-184" fill="#0080F6"></path>
                <path d="M66.7495472,89.5021526 C66.748989,89.4465511 66.7099172,89.3970658 66.652984,89.3859455 C66.6284246,89.3803853 66.606656,89.3898376 66.5848874,89.3987338 C66.5491646,89.4131902 66.5184654,89.4387669 66.5100928,89.4793559 L65.9424353,92.2410816 L54.0400473,96.0814761 L43.5241503,89.3025432 L43.2712999,77.7774678 L61.1098113,78.347383 C61.1377197,78.348495 61.1594883,78.3329266 61.1823732,78.3212503 C61.2303757,78.2967856 61.2688893,78.2584206 61.2733547,78.2017071 C61.2800527,78.1144128 61.2141888,78.0382387 61.1271145,78.0315665 L42.7270854,76.6409734 L42.6975025,76.6391697 C42.3938588,76.6326332 42.1421247,76.8728316 42.1354267,77.1753037 L42.1348685,77.1997684 L41.8595289,89.7623675 C41.8541097,90.0392629 41.9925355,90.3122662 42.2470604,90.4662823 L42.2520839,90.4690624 L53.6041176,97.3325095 L53.6225372,97.3436298 C53.7777081,97.4364842 53.9713926,97.4615049 54.1550301,97.3964512 L66.4810681,93.0245065 L66.5301869,93.0072701 C66.6825669,92.9527806 66.7908517,92.8065487 66.7886529,92.6364082 L66.7495472,89.5021526 Z" id="Fill-186" fill="#0068C9"></path>
                <path d="M75.7009534,67.5705367 C74.0041207,67.3108777 72.4099911,68.4768408 72.1498845,70.168238 L72.0282038,70.957779 C71.9026158,71.7773449 72.1046729,72.5963547 72.5969776,73.2646846 C73.0898405,73.9324584 73.8143434,74.3700421 74.6354095,74.4951454 L74.6661087,74.4995935 C74.8251868,74.5240582 74.9831485,74.5357345 75.1394357,74.5357345 C76.6509564,74.5357345 77.9810723,73.4348251 78.2171776,71.9018922 L78.3383002,71.1129072 C78.5984068,69.420954 77.4284853,67.8340877 75.7009534,67.5705367" id="Fill-188" fill="#0068C9"></path>
                <path d="M77.3722219,72.9091687 C76.9033603,73.2522298 76.3490988,73.4318226 75.7780923,73.4318226 C75.6407828,73.4318226 75.502357,73.4218144 75.3639312,73.4006858 L75.2751824,73.3867854 C73.8021753,73.1627114 72.7874248,71.7860187 73.0129249,70.3186956 L73.0503222,70.0751611 C73.0268791,70.1652355 72.9956217,70.2530858 72.9811093,70.3464963 L72.8945931,70.9102954 C72.669093,72.3770625 73.6838436,73.7537552 75.1562924,73.9778292 L75.2450413,73.9917296 C75.3834671,74.0128581 75.5202184,74.0228664 75.6552952,74.0228664 C76.9664333,74.0228664 78.1207261,73.0676329 78.325574,71.7382014 L78.3741346,71.4184929 C78.2189637,72.0145408 77.8773645,72.5394188 77.3722219,72.9091687" id="Fill-190" fill="#D76230"></path>
                <path d="M76.2092776,67.9001423 L76.1199706,67.8867979 C74.8640912,67.6955288 73.678541,68.5590198 73.4854146,69.8139453 L73.3988985,70.3777444 C73.2057721,71.6326698 74.0742825,72.8103092 75.3340692,73.0026904 L75.422818,73.0160347 C76.035129,73.1083332 76.6435328,72.9598772 77.140861,72.5956875 C77.6387474,72.2314978 77.9641598,71.6960555 78.0579321,71.0883313 L78.1444482,70.5245323 C78.2376624,69.9168081 78.0880732,69.3090838 77.7224727,68.8131186 C77.3568723,68.3171534 76.8193559,67.9929967 76.2092776,67.9001423" id="Fill-192" fill="#D76230"></path>
                <path d="M78.1443366,70.5246435 L78.0578205,71.0884425 C77.9640481,71.6961667 77.6386358,72.231609 77.1413076,72.5957987 C76.6439793,72.9594324 76.0350173,73.1078884 75.4227063,73.0161459 L75.3339575,73.0028016 C74.0741709,72.8104205 73.2056605,71.632781 73.3987869,70.3778556 L73.485303,69.8140565 C73.6789875,68.559131 74.8645377,67.69564 76.1204171,67.8863531 L76.2091659,67.9002535 C76.8192443,67.9931079 77.3567607,68.3172646 77.7223611,68.8132298 C78.0879616,69.308639 78.2375508,69.9169193 78.1443366,70.5246435 M78.0371682,68.5830397 C77.609611,68.0031162 76.9816713,67.6244701 76.2683318,67.5154912 L76.1790248,67.5021468 C75.4656853,67.3920559 74.7523458,67.5677566 74.1707341,67.9931079 C73.5891224,68.4190153 73.2090095,69.044532 73.0996085,69.7551189 L73.0504896,70.0748275 L73.0130923,70.318918 C72.787034,71.7862411 73.8023428,73.1623778 75.2747916,73.3870078 L75.3640986,73.4003522 C75.5025244,73.4214808 75.6409503,73.432045 75.7782598,73.432045 C76.3492663,73.432045 76.9035277,73.2518962 77.3723894,72.9093911 C77.877532,72.5396412 78.218573,72.0142072 78.3743021,71.4187153 C78.3983033,71.3280849 78.4295608,71.2407906 78.443515,71.1473801 L78.5300311,70.583581 C78.6394322,69.8729941 78.4641672,69.1624071 78.0371682,68.5830397" id="Fill-194" fill="#ED985A"></path>
                <path d="M75.7614589,69.4443622 C75.7469465,69.5066359 75.7575517,69.5705776 75.7916,69.6250671 C75.8250901,69.6795565 75.8781161,69.7173655 75.940631,69.7318219 C76.0048204,69.7468343 76.0678935,69.73627 76.122594,69.7023531 C76.1772945,69.6689922 76.21525,69.6161708 76.2297624,69.5538972 L76.2297624,69.5533412 C76.2448329,69.4910675 76.2342277,69.4271258 76.2001794,69.3726363 C76.1666893,69.3181469 76.1131051,69.2803379 76.0505902,69.2653255 C76.0321707,69.2614334 76.0143093,69.2592093 75.9958897,69.2592093 C75.8870468,69.2592093 75.7876928,69.3337153 75.7614589,69.4443622" id="Fill-196" fill="#D76230"></path>
                <path d="M76.050646,69.2654367 C76.1131609,69.2798931 76.1667451,69.3182581 76.2002352,69.3727475 C76.2342835,69.427237 76.2448887,69.4911787 76.2298182,69.5534524 L76.2298182,69.5540084 C76.2153058,69.615726 76.1773503,69.6691034 76.1226498,69.7024643 C76.0679493,69.7363812 76.004318,69.7469455 75.9406868,69.7319331 C75.8781719,69.7174767 75.8251459,69.6796677 75.7916558,69.6251783 C75.7576075,69.5706888 75.7470023,69.5067471 75.7615147,69.4444735 C75.7877486,69.3338265 75.8871026,69.2593205 75.9959455,69.2593205 C76.0143651,69.2593205 76.0322265,69.2615446 76.050646,69.2654367 M75.851938,70.1105792 C75.8999405,70.1222555 75.9485012,70.1278157 75.9970619,70.1278157 C76.1131609,70.1278157 76.2270273,70.0955668 76.328614,70.0327371 C76.4715052,69.9443308 76.5719756,69.8058831 76.609931,69.6424147 C76.6897491,69.3049137 76.4787614,68.9657447 76.139953,68.8867906 C75.8000283,68.8078365 75.46122,69.0185661 75.3814019,69.3555111 C75.3428882,69.5189794 75.3707966,69.6874519 75.4595455,69.8303477 C75.5482943,69.9726875 75.6878364,70.0727702 75.851938,70.1105792" id="Fill-198" fill="#ED985A"></path>
                <path d="M75.7816646,71.4583036 C75.8118057,71.3298642 75.7314294,71.2008687 75.6024924,71.1702879 C75.5840729,71.1658398 75.5656533,71.1641717 75.5472338,71.1641717 C75.4383909,71.1641717 75.339595,71.2386777 75.3133611,71.3487687 C75.2826618,71.4772081 75.3630381,71.6067595 75.4925332,71.6367843 C75.6197957,71.6679212 75.7515235,71.587299 75.7816646,71.4583036" id="Fill-200" fill="#D76230"></path>
                <path d="M75.4924774,71.6369511 C75.3635405,71.6063703 75.2831642,71.4773749 75.3133053,71.3489355 C75.3395392,71.2388445 75.4383351,71.1637825 75.5471779,71.1637825 C75.5655975,71.1637825 75.5840171,71.1660066 75.6024366,71.1704547 C75.7313736,71.2004795 75.8117499,71.330031 75.7816088,71.4584704 C75.7514677,71.5874658 75.6197399,71.668088 75.4924774,71.6369511 M75.6917436,70.7918086 C75.3523771,70.7117425 75.0130106,70.9224721 74.9331924,71.2599731 C74.8533743,71.5974741 75.0643621,71.9360871 75.4031704,72.0155972 C75.4511729,72.0267175 75.4997336,72.0322777 75.5471779,72.0322777 C75.8335184,72.0322777 76.093625,71.8365605 76.1617216,71.5474328 C76.2409816,71.2099318 76.030552,70.8713187 75.6917436,70.7918086" id="Fill-202" fill="#ED985A"></path>
                <path d="M76.9620238,70.7290901 C76.9921649,70.6006507 76.9117886,70.4716553 76.7822935,70.4410744 C76.7644321,70.4371823 76.7454544,70.4349583 76.7270348,70.4349583 C76.6829395,70.4349583 76.6394023,70.4471906 76.6008887,70.4710992 C76.5461882,70.5050161 76.5082327,70.5572815 76.4937203,70.6195552 C76.4786498,70.6823849 76.489255,70.7463266 76.5233032,70.800816 C76.5567934,70.8553055 76.6103776,70.8931145 76.6728924,70.9081269 C76.734291,70.9209152 76.7995967,70.911463 76.8542972,70.8786581 C76.9089978,70.8447412 76.9475114,70.7913638 76.9620238,70.7290901" id="Fill-204" fill="#D76230"></path>
                <path d="M76.6728366,70.9080157 C76.6103217,70.8935593 76.5567375,70.8551943 76.5232474,70.8007048 C76.4891991,70.7462154 76.4785939,70.6822737 76.4936645,70.619444 C76.5081769,70.5577264 76.5461323,70.5049049 76.6008329,70.470988 C76.6393465,70.4470794 76.6828837,70.4348471 76.726979,70.4348471 C76.7453985,70.4348471 76.7643763,70.4370711 76.7822377,70.4415193 C76.9117328,70.4715441 76.9921091,70.6005395 76.961968,70.7289789 C76.9474556,70.7918086 76.908942,70.84463 76.8542414,70.8785469 C76.8000991,70.9113518 76.7342352,70.920804 76.6728366,70.9080157 M76.8715447,70.0628732 C76.7074431,70.0245081 76.538318,70.0511968 76.3948686,70.1407152 C76.2519775,70.2291216 76.1515071,70.3675693 76.1135517,70.5310376 C76.075038,70.694506 76.1029464,70.8629785 76.1911371,71.0058743 C76.2798859,71.1487701 76.4194281,71.2482968 76.5835296,71.2866618 C76.6315321,71.2977821 76.6800928,71.3033422 76.7275371,71.3033422 C77.0138777,71.3033422 77.2739842,71.107625 77.3420808,70.8179413 C77.4213408,70.4804403 77.210353,70.1418273 76.8715447,70.0628732" id="Fill-206" fill="#ED985A"></path>
                <path d="M75.0498497,70.282499 C75.0799908,70.1540596 74.9996145,70.0250641 74.8701194,69.9944833 C74.852258,69.9905912 74.8332803,69.9883672 74.8154189,69.9883672 C74.7707654,69.9883672 74.7272282,70.0005995 74.6887146,70.0245081 C74.634014,70.057869 74.5960586,70.1106904 74.5815462,70.1729641 C74.5664756,70.2357938 74.5770808,70.2997355 74.6111291,70.3542249 C74.6451774,70.4087144 74.6982034,70.4465234 74.7601602,70.4609798 L74.7607183,70.4609798 C74.8221169,70.4759922 74.8874226,70.4648719 74.9421231,70.431511 C74.9968237,70.3981501 75.0353373,70.3447727 75.0498497,70.282499" id="Fill-208" fill="#D76230"></path>
                <path d="M74.7607183,70.461091 L74.7607183,70.461091 C74.6982034,70.4466346 74.6451774,70.4082696 74.6111291,70.3543361 C74.5770808,70.2992907 74.5664756,70.235349 74.5815462,70.1730753 C74.5960586,70.1108016 74.634014,70.0579802 74.6887146,70.0240633 C74.7272282,70.0001547 74.7713235,69.9879224 74.8154189,69.9879224 C74.8332803,69.9879224 74.852258,69.9901464 74.8701194,69.9945945 C74.9996145,70.0246193 75.0799908,70.1541708 75.0498497,70.2826102 C75.0353373,70.3448839 74.9968237,70.3977053 74.9421231,70.4316222 C74.8874226,70.4649831 74.8221169,70.4755474 74.7607183,70.461091 M75.4299625,70.3710166 C75.5092225,70.0340716 75.2982347,69.6949025 74.9594264,69.6159484 C74.795883,69.5775834 74.6261997,69.6053841 74.4827503,69.6937905 C74.3398592,69.7821969 74.2393888,69.9212006 74.2014334,70.0841129 C74.1629197,70.2475813 74.1908282,70.4160538 74.279577,70.5589496 C74.3683258,70.7018454 74.5073098,70.8013721 74.6714113,70.8397371 C74.719972,70.8508574 74.7679745,70.8564175 74.815977,70.8564175 C75.1017594,70.8564175 75.3618659,70.6607003 75.4299625,70.3710166" id="Fill-210" fill="#ED985A"></path>
                <path d="M40.5930393,70.3315951 L40.4847546,69.540386 C40.3725627,68.7191521 39.9461219,67.9907727 39.2835757,67.4886913 C38.6210295,66.9866099 37.8021961,66.7719882 36.9481981,66.8876392 C35.2457838,67.1189414 34.0496284,68.6857912 34.2812684,70.3816365 L34.3895531,71.1728456 C34.6022153,72.726907 35.9418201,73.8578412 37.473993,73.8578412 C37.612977,73.8578412 37.7541936,73.8483889 37.8954103,73.8294844 L37.9261096,73.8255923 C39.6279657,73.5948462 40.8246793,72.0274404 40.5930393,70.3315951" id="Fill-212" fill="#0068C9"></path>
                <path d="M40.6502516,70.1442737 L40.6061563,69.8223411 C40.6268085,70.4384056 40.4487527,71.0389016 40.069198,71.5359789 C40.0418478,71.5721198 40.0072413,71.5999206 39.9782165,71.6338375 C39.546194,72.1464831 38.9534189,72.4828721 38.2830584,72.5740585 L38.1943096,72.5862909 C38.0709543,72.6029713 37.9487154,72.6113115 37.8275928,72.6113115 C37.1840244,72.6113115 36.5823186,72.3777853 36.1089916,71.9874629 C35.6049653,71.5715638 35.246621,70.97774 35.1517324,70.2821654 L35.1182422,70.0391869 C35.1215913,70.1320414 35.1160096,70.2243399 35.1288474,70.3177504 L35.2064329,70.8826614 C35.3035542,71.5943604 35.67362,72.2265493 36.2479756,72.6619089 C36.7229771,73.0216505 37.2911927,73.2118076 37.8783861,73.2118076 C38.0006251,73.2118076 38.1245385,73.2029113 38.2484519,73.1867869 L38.3372008,73.1745546 C39.0522148,73.077252 39.6868525,72.7086141 40.1238986,72.1364749 C40.5603864,71.5643356 40.7473729,70.8565287 40.6502516,70.1442737" id="Fill-214" fill="#D76230"></path>
                <path d="M35.5387107,70.2295108 C35.7106266,71.4872163 36.8755246,72.3718359 38.1408928,72.2005834 L38.2296417,72.1883511 C38.8413945,72.1060609 39.3844926,71.7902444 39.7584656,71.3009514 C40.1318804,70.8111023 40.2920748,70.2061582 40.2089076,69.5967659 L40.1318804,69.0318548 C39.9739186,67.8781241 38.9798203,67.0390977 37.8422726,67.0390977 C37.7390114,67.0390977 37.6346339,67.0457699 37.52914,67.0602262 L37.4409494,67.0724586 C36.8286384,67.1553048 36.2855403,67.4711212 35.9121255,67.9604143 C35.5381525,68.4497073 35.3779581,69.0552075 35.4616834,69.6645997 L35.5387107,70.2295108 Z" id="Fill-216" fill="#D76230"></path>
                <path d="M37.8425517,67.0392089 C38.9800994,67.0392089 39.9741977,67.8782353 40.1316013,69.03141 L40.2086286,69.5968771 C40.2923539,70.2057134 40.1321595,70.8112135 39.7581865,71.3010626 C39.3847717,71.7903556 38.8416736,72.105616 38.2299207,72.1884623 L38.1411719,72.2006946 C36.8758036,72.3719472 35.7103475,71.4873276 35.5389898,70.229622 L35.4614043,69.6647109 C35.3782372,69.0553187 35.5384316,68.4498185 35.9124046,67.9605255 C36.2858194,67.4706764 36.8289175,67.155416 37.4406703,67.0725698 L37.5294191,67.0603374 C37.6343548,67.0458811 37.7392905,67.0392089 37.8425517,67.0392089 M36.1094381,71.9871849 C36.5822069,72.3775073 37.1839127,72.6110335 37.8280393,72.6110335 C37.9486038,72.6110335 38.0714009,72.6026933 38.194198,72.5865689 L38.2829468,72.5743366 C38.9533073,72.4831501 39.5460824,72.1462051 39.9786631,71.6341155 C40.0071297,71.5996425 40.0417361,71.5718418 40.0690864,71.5362569 C40.4486411,71.0386236 40.6266969,70.4386836 40.6066028,69.8226191 C40.6032538,69.7297647 40.6088355,69.6374662 40.5959976,69.5440557 L40.5184122,68.9791446 C40.3180296,67.5084854 38.9538655,66.4748538 37.4763931,66.6750192 L37.3876443,66.6872515 C36.6726303,66.7839981 36.0379925,67.1526359 35.6009465,67.7247752 C35.1644586,68.2974705 34.9774721,69.0047213 35.0745935,69.7169763 L35.1186888,70.0389089 L35.1516207,70.2824434 C35.2470676,70.977462 35.6048537,71.5718418 36.1094381,71.9871849" id="Fill-218" fill="#ED985A"></path>
                <path d="M37.5391871,68.6673871 C37.5470014,68.7997187 37.6631005,68.9020254 37.7931538,68.8931291 C37.8573432,68.889237 37.9159509,68.8614363 37.9589299,68.813619 C38.0019089,68.7658017 38.0231193,68.7040841 38.0197703,68.6406984 C38.0158631,68.5762007 37.9873965,68.5178191 37.939394,68.475006 C37.8952987,68.4355289 37.8389236,68.4144004 37.7803159,68.4144004 C37.7752924,68.4144004 37.770827,68.4144004 37.7658035,68.4149564 C37.7016141,68.4188485 37.6430064,68.4472052 37.6000274,68.4944665 C37.5570485,68.5422838 37.535838,68.6034454 37.5391871,68.6673871" id="Fill-220" fill="#D76230"></path>
                <path d="M37.7800926,68.4146228 C37.8387004,68.4146228 37.8950754,68.4357513 37.9397289,68.4752284 C37.9877314,68.5180415 38.0156398,68.5764231 38.019547,68.6403648 C38.0234542,68.7043065 38.0016856,68.7654681 37.9587066,68.8132854 C37.9162858,68.8611027 37.8571199,68.8894594 37.7929305,68.8933515 C37.6628772,68.9016918 37.5467782,68.799385 37.5389638,68.6676095 C37.5356148,68.6036678 37.5573834,68.5419502 37.5998042,68.4946889 C37.6427832,68.4468716 37.7013909,68.4185149 37.7661384,68.4146228 C37.7706038,68.4146228 37.7756273,68.4146228 37.7800926,68.4146228 M37.7789763,69.2825619 C37.791256,69.2825619 37.8029776,69.2825619 37.8152573,69.2814499 C37.983266,69.2719977 38.1378787,69.1980477 38.2500706,69.0723883 C38.3622625,68.947285 38.4191957,68.7860407 38.4091487,68.6181242 C38.3996598,68.4507637 38.3254234,68.2967476 38.1992773,68.1849887 C38.0731312,68.0726737 37.9101459,68.0159601 37.7438117,68.0265244 C37.5752448,68.0359767 37.420632,68.1104827 37.3084401,68.235586 C37.1962483,68.3606893 37.1398732,68.5219336 37.1493621,68.6898501 C37.168898,69.023459 37.4474241,69.2825619 37.7789763,69.2825619" id="Fill-222" fill="#ED985A"></path>
                <path d="M38.1311249,70.5935893 C38.1272177,70.5296476 38.0987511,70.471266 38.0507486,70.4284529 C38.0066533,70.3889759 37.9502783,70.3678473 37.8911124,70.3678473 C37.886647,70.3678473 37.8821817,70.3678473 37.8771582,70.3678473 C37.8129688,70.3717394 37.7543611,70.4000961 37.7113821,70.4479134 C37.6684031,70.4951747 37.6471927,70.5568923 37.6505417,70.620834 C37.6583561,70.7526096 37.7789205,70.8532482 37.9045084,70.8465761 C37.9686978,70.842684 38.0273055,70.8143272 38.0702845,70.7665099 C38.1132635,70.7192487 38.1344739,70.657531 38.1311249,70.5935893" id="Fill-224" fill="#D76230"></path>
                <path d="M37.6506533,70.6207228 C37.6473043,70.5567811 37.6685147,70.4950635 37.7114937,70.4478022 C37.7544727,70.3999849 37.8130804,70.3716282 37.8772698,70.3677361 C37.8822933,70.3677361 37.8867587,70.3677361 37.891224,70.3677361 C37.9503899,70.3677361 38.0067649,70.3888646 38.0508602,70.4283417 C38.0988628,70.4711548 38.1273294,70.5295364 38.1312365,70.5934781 C38.1345855,70.6574198 38.1133751,70.7191375 38.0703962,70.7663987 C38.0274172,70.814216 37.9688095,70.8425728 37.9046201,70.8464649 C37.778474,70.853137 37.6584677,70.7524983 37.6506533,70.6207228 M37.8549431,69.9796377 C37.6869343,69.98909 37.5323216,70.063596 37.4201297,70.1886993 C37.3079378,70.3138026 37.2515628,70.4750469 37.2610516,70.6429634 C37.2800294,70.9771283 37.5591137,71.2356752 37.8906659,71.2356752 C37.9023874,71.2356752 37.9146671,71.2351192 37.9269468,71.2345632 C38.0949556,71.225111 38.2495683,71.151161 38.3617602,71.0260576 C38.4739521,70.9003983 38.5303271,70.739154 38.5208382,70.5712375 C38.5113494,70.403877 38.4371129,70.2498609 38.3109668,70.138102 C38.1853789,70.026343 38.0218355,69.9668494 37.8549431,69.9796377" id="Fill-226" fill="#ED985A"></path>
                <path d="M39.0556196,69.5616814 C39.0517124,69.4977397 39.0232458,69.4388021 38.9752433,69.396545 C38.931148,69.3565119 38.874773,69.3353833 38.8161653,69.3353833 C38.8116999,69.3353833 38.8066764,69.3353833 38.802211,69.3359394 C38.7380217,69.3398315 38.6788558,69.3676322 38.636435,69.4154495 C38.593456,69.4632668 38.5716874,69.5249844 38.5755946,69.5883701 C38.5789436,69.6528678 38.6074102,69.7112494 38.6554127,69.7540625 C38.7034152,69.7968757 38.7670464,69.8207843 38.8290031,69.8146681 C38.8931925,69.810776 38.9523584,69.7824193 38.9953374,69.734602 C39.0377582,69.6867847 39.0589686,69.6256231 39.0556196,69.5616814" id="Fill-228" fill="#D76230"></path>
                <path d="M38.6555243,69.7538957 C38.6075218,69.7110826 38.5790552,69.652701 38.575148,69.5887593 C38.571799,69.5248176 38.5935676,69.463656 38.6359884,69.4158387 C38.6789674,69.3680214 38.7375751,69.3396647 38.8023227,69.3357726 C38.806788,69.3357726 38.8112534,69.3357726 38.8162769,69.3357726 C38.8748846,69.3357726 38.9312596,69.3569011 38.975355,69.3963782 C39.0233575,69.4391913 39.0518241,69.4975729 39.0557312,69.5615146 C39.0590803,69.6254563 39.0378698,69.6866179 38.9948909,69.7344352 C38.95247,69.7822525 38.8933042,69.8106092 38.8291148,69.8145013 C38.7671581,69.8211735 38.7035268,69.7967088 38.6555243,69.7538957 M39.2360197,69.1061384 C39.1098736,68.9943794 38.9463302,68.9348859 38.7799959,68.9476742 C38.611429,68.9571265 38.4573745,69.0310764 38.3446244,69.1567358 C38.2324325,69.2818391 38.1760575,69.4430834 38.1855463,69.6109999 C38.1950352,69.7783604 38.2698298,69.9323765 38.3954177,70.0441355 C38.512075,70.1475542 38.6599897,70.2037117 38.8146024,70.2037117 C38.8268821,70.2037117 38.8391618,70.2037117 38.8514415,70.2025997 C39.0200085,70.1931474 39.174063,70.1186414 39.2862549,69.9935381 C39.399005,69.8684348 39.45538,69.7071905 39.445333,69.539274 C39.4358441,69.3719135 39.3616077,69.2178974 39.2360197,69.1061384" id="Fill-230" fill="#ED985A"></path>
                <path d="M37.0949406,69.6727175 C37.0910335,69.6087758 37.0625669,69.5498383 37.0145644,69.5075811 C36.970469,69.4675481 36.914094,69.4464195 36.8549281,69.4464195 C36.8504628,69.4464195 36.8459974,69.4464195 36.8409739,69.4469755 C36.7773427,69.4508676 36.7181768,69.4786684 36.675756,69.5264856 C36.632777,69.5743029 36.6110084,69.6360206 36.6149156,69.6994063 C36.6182646,69.763904 36.6467312,69.8222855 36.6947337,69.8650987 C36.7427362,69.9073558 36.8052511,69.9295964 36.8683242,69.9257043 C37.0011683,69.9179201 37.1021968,69.8044931 37.0949406,69.6727175" id="Fill-232" fill="#D76230"></path>
                <path d="M36.6948454,69.8649319 C36.6468429,69.8221187 36.6183763,69.7637372 36.6144691,69.6997955 C36.6111201,69.6358538 36.6328886,69.5746921 36.6753095,69.5268749 C36.7182884,69.4790576 36.7768962,69.4507008 36.8410855,69.4468087 C36.8461091,69.4468087 36.8505744,69.4468087 36.8550398,69.4468087 C36.9142056,69.4468087 36.9705807,69.4679373 37.014676,69.5074143 C37.0626785,69.5502275 37.0911451,69.608609 37.0950523,69.6725507 C37.1023085,69.8048823 37.0007218,69.9177533 36.8684358,69.9255375 C36.8053628,69.9299856 36.7428479,69.907745 36.6948454,69.8649319 M37.484654,69.6503101 C37.4751651,69.4829497 37.4009287,69.3289336 37.2753407,69.2171746 C37.1491946,69.1054156 36.9895584,69.0481461 36.8187588,69.0587104 C36.65075,69.0681626 36.4966955,69.1421126 36.3839454,69.2677719 C36.2717535,69.3928753 36.2153785,69.5541196 36.2248674,69.7220361 C36.2343562,69.8893965 36.3091508,70.0434126 36.4347388,70.1551716 C36.551396,70.2585904 36.6987525,70.3147479 36.8539234,70.3147479 C36.8662031,70.3147479 36.8784828,70.3147479 36.8907626,70.3136358 C37.0587713,70.3041836 37.213384,70.2302336 37.3255759,70.1045743 C37.4377678,69.9794709 37.4941429,69.8182266 37.484654,69.6503101" id="Fill-234" fill="#ED985A"></path>
                <path d="M93.1162055,222.585749 L95.0843081,229.494233 C95.3656251,230.482827 95.3299023,231.534251 94.9821633,232.501717 C94.670147,233.370212 94.5239068,234.288749 94.5518153,235.210065 L94.7002881,240.149701 L111.406275,240.228099 L110.890528,235.91954 C110.73424,234.614573 110.094021,233.414693 109.095457,232.555651 L107.80553,231.445289 C106.892366,230.65964 106.299032,229.568739 106.136605,228.377755 L105.349029,222.585749 L93.1162055,222.585749 Z" id="Fill-236" fill="#0097B8"></path>
            </g>
            <g id="Group-245" transform="translate(92.000000, 223.000000)">
                <g id="Group-241">
                    <mask id="mask-4" fill="white">
                        <use xlink:href="#path-3"></use>
                    </mask>
                    <g id="Clip-240"></g>
                    <path d="M12.4844238,-5.28563505 C12.4816772,-4.06710369 12.5267212,-2.39020485 12.5486938,-1.6623763 C12.555835,-1.42184683 12.5074951,-1.18642294 12.4080688,-0.969152222 L9.40770264,5.5796029 L5.84318848,13.2130098 C5.18950195,14.6130728 3.8184082,15.5042799 2.31273193,15.5076836 L-5.40296631,15.5252724 C-6.25440674,15.5269713 -6.93006592,14.7832587 -6.87348633,13.9056666 L-6.34449463,5.67831075 C-6.32636719,5.39410022 -6.23133545,5.12123542 -6.06983643,4.89034983 L2.0770752,-6.78440592 C2.37700195,-7.21384179 2.87138672,-7.45096754 3.38225098,-7.4106902 L11.1259644,-6.79915537 C11.8933594,-6.73902301 12.4860718,-6.0804034 12.4844238,-5.28563505" id="Fill-239" fill="#00547A" mask="url(#mask-4)"></path>
                </g>
                <g id="Group-244">
                    <mask id="mask-6" fill="white">
                        <use xlink:href="#path-5"></use>
                    </mask>
                    <g id="Clip-243"></g>
                    <path d="M2.41380615,10.9679168 C2.3050415,12.0815002 1.94633789,12.9556886 1.61290283,12.9210841 C1.27946777,12.8864797 1.09709473,11.9555626 1.20585938,10.8419792 C1.31462402,9.72839584 1.67277832,8.85364009 2.0067627,8.88881185 C2.34019775,8.92341633 2.5225708,9.85433344 2.41380615,10.9679168" id="Fill-242" fill="#0097B8" mask="url(#mask-6)"></path>
                </g>
            </g>
            <g id="Group-250" transform="translate(93.000000, 233.000000)" fill="#EAFBFF">
                <path d="M0.949105073,5.59470679 L0.96357229,6.0594385 L16.9225818,6.13005696 L16.8135213,5.24732632 C16.624891,3.71656754 15.6082908,2.38312502 14.1198368,1.714846 L12.0187517,0.771881981 C9.335083,-0.432785714 6.16731893,-0.215737828 3.70065844,1.34150287 L3.06131874,1.7449627 C1.69750533,2.60640395 0.900695539,4.05875548 0.949105073,5.59470679" id="Fill-246"></path>
                <path d="M17.0785496,10 L0.921450431,10 C0.412315682,10 0,9.61523329 0,9.14011651 L0,7.650898 C0,7.17578121 0.412315682,6.7910145 0.921450431,6.7910145 L17.0785496,6.7910145 C17.5876843,6.7910145 18,7.17578121 18,7.650898 L18,9.14011651 C18,9.61523329 17.5876843,10 17.0785496,10" id="Fill-248"></path>
            </g>
            <g id="Group-253" transform="translate(94.000000, 232.000000)">
                <mask id="mask-8" fill="white">
                    <use xlink:href="#path-7"></use>
                </mask>
                <g id="Clip-252"></g>
                <path d="M11.9485143,-15.8744537 C11.9457278,-14.600864 11.9914267,-12.8481958 12.0137188,-12.0874809 C12.0209638,-11.8360833 11.971921,-11.590022 11.8710491,-11.3629341 L8.82705682,-4.51827884 L5.21071376,3.46003727 C4.54752247,4.923361 3.15649269,5.85483652 1.62892352,5.85839404 L-6.19896285,5.87677757 C-7.06278343,5.87855328 -7.74826686,5.10123666 -7.69086459,4.18399119 L-7.15418122,-4.41511096 C-7.1357902,-4.71216331 -7.03937668,-4.99735728 -6.87552942,-5.23867525 L1.38984027,-17.4409453 C1.69412804,-17.8897849 2.19570128,-18.1376249 2.71399363,-18.0955277 L10.5703025,-17.4563612 C11.3488556,-17.3935118 11.9501862,-16.705133 11.9485143,-15.8744537" id="Fill-251" fill="#ACEDFB" mask="url(#mask-8)"></path>
            </g>
            <g id="Group-272" transform="translate(0.000000, 20.000000)">
                <path d="M66.4799918,14.954424 L66.2915163,14.954424 C63.2786713,14.954424 60.83678,12.5013958 60.83678,9.47549467 L60.83678,5.77680103 C60.83678,2.75145503 63.2786713,0.29842679 66.2915163,0.29842679 L66.4799918,0.29842679 C69.4928369,0.29842679 71.9352809,2.75145503 71.9352809,5.77680103 L71.9352809,9.47549467 C71.9352809,12.5013958 69.4928369,14.954424 66.4799918,14.954424" id="Fill-254" fill="#FFFFFF" opacity="0.349950036"></path>
                <path d="M49.810353,0.298260257 L49.9988285,0.298260257 C53.0116736,0.298260257 55.4535649,2.7512885 55.4535649,5.7771896 L55.4535649,9.47588324 C55.4535649,12.5012292 53.0116736,14.9542575 49.9988285,14.9542575 L49.810353,14.9542575 C46.797508,14.9542575 44.355064,12.5012292 44.355064,9.47588324 L44.355064,5.7771896 C44.355064,2.7512885 46.797508,0.298260257 49.810353,0.298260257" id="Fill-256" fill="#FFFFFF" opacity="0.3515625"></path>
                <path d="M71.6382523,9.47571671 C71.6382523,12.3323095 69.324038,14.6565523 66.4797708,14.6565523 L66.2918479,14.6565523 C63.4475807,14.6565523 61.1339191,12.3323095 61.1339191,9.47571671 L61.1339191,5.77702307 C61.1339191,2.92043032 63.4475807,0.596742558 66.2918479,0.596742558 L66.4797708,0.596742558 C69.324038,0.596742558 71.6382523,2.92043032 71.6382523,5.77702307 L71.6382523,5.88915516 L71.6382523,7.90531234 L71.6382523,9.47571671 Z M55.1568679,9.47571671 C55.1568679,12.3323095 52.8432063,14.6565523 49.9989391,14.6565523 L49.8104635,14.6565523 C46.9661963,14.6565523 44.651982,12.3323095 44.651982,9.47571671 L44.651982,8.1700995 L44.651982,6.15449743 L44.651982,5.77702307 C44.651982,2.92043032 46.9661963,0.596742558 49.8104635,0.596742558 L49.9989391,0.596742558 C52.8432063,0.596742558 55.1568679,2.92043032 55.1568679,5.77702307 L55.1568679,9.47571671 Z M74,6.3426795 L73.0791782,6.3426795 L73.0791782,6.33213243 C73.0791782,5.92357194 72.7481024,5.59050633 72.340752,5.59050633 L72.2230239,5.59050633 C72.124088,2.4918859 69.5893408,0 66.4797708,0 L66.2918479,0 C63.1198212,0 60.5391987,2.59180558 60.5391987,5.77702307 L60.5391987,6.60413601 C59.0861131,5.65656434 57.2118592,5.64601726 55.7510356,6.60580134 L55.7510356,5.77702307 C55.7510356,2.59180558 53.1704131,0 49.9989391,0 L49.8104635,0 C46.6384368,0 44.0578143,2.59180558 44.0578143,5.77702307 L44.0578143,5.8558486 L43.9494823,5.8558486 C43.5681095,5.8558486 43.2646694,6.15116678 43.2259794,6.52364515 L42.2360683,6.52364515 C42.2918924,6.96995308 42.2863653,7.38517487 42.2603877,7.71713027 L43.2110561,7.71713027 L43.2110561,7.72767735 C43.2110561,8.13623783 43.5421319,8.46874834 43.9494823,8.46874834 L44.0578143,8.46874834 L44.0578143,9.47571671 C44.0578143,12.6614893 46.6384368,15.2532949 49.8104635,15.2532949 L49.9989391,15.2532949 C53.1704131,15.2532949 55.7510356,12.6614893 55.7510356,9.47571671 L55.7510356,7.31911686 C55.7515884,7.31856175 55.7521411,7.31911686 55.7521411,7.31856175 L56.0102586,7.14203698 C57.3539068,6.22111055 59.1308829,6.26052332 60.4325248,7.24029133 L60.5275917,7.31134533 C60.5314607,7.31412088 60.5358824,7.31412088 60.5391987,7.31689642 L60.5391987,9.47571671 C60.5391987,12.6614893 63.1198212,15.2532949 66.2918479,15.2532949 L66.4797708,15.2532949 C69.6517975,15.2532949 72.23242,12.6614893 72.23242,9.47571671 L72.23242,8.20340606 L72.340752,8.20340606 C72.7221248,8.20340606 73.0261176,7.908643 73.0642549,7.53560951 L73.9358852,7.53560951 C73.9193037,7.1908866 73.9298053,6.77510969 74,6.3426795 L74,6.3426795 Z" id="Fill-258" fill="#DB594A"></path>
                <path d="M1.9160657,68.1601015 C8.73268979,74.8208587 20.8708461,86.6535697 24.8918418,90.5731969 C25.6413222,91.3037208 26.8263415,91.3120474 27.5896398,90.5959563 L28.4717716,89.7688434 C29.6302605,88.6824944 29.8314485,86.9116955 28.9465531,85.5910904 L11.7460875,59.908956 C9.57613164,56.6698929 5.04000629,56.1397635 2.18800108,58.7915209 C2.13494052,58.8403705 2.08243267,58.8892201 2.03047754,58.9380698 C-0.630841279,61.4121922 -0.683349127,65.6204762 1.9160657,68.1601015" id="Fill-260" fill="#EACBAC"></path>
                <path d="M26.3769296,84.6629475 C26.7411682,85.1003737 27.3778949,85.1841952 27.8416222,84.8561256 L28.2578159,84.5624727 L12.6751448,61.2967294 L10.2929467,62.5912444 C9.48045681,63.0325564 9.27484713,64.1111338 9.86680403,64.8233391 L26.3769296,84.6629475 Z" id="Fill-262" fill="#E99462"></path>
                <path d="M26.0207053,90.8553034 L21.0617536,86.8396423 C22.6497014,88.3878423 23.9806372,89.6851329 24.8920629,90.5733079 C25.3088094,90.980203 25.8609709,91.1545074 26.4004199,91.1128742 C26.2688739,91.035714 26.1406442,90.9524476 26.0207053,90.8553034" id="Fill-264" fill="#E99462"></path>
                <path d="M32.0293165,90.0259145 C31.2173793,90.5904608 31.7761734,92.5771971 29.9140793,92.9474551 C29.7681627,92.9763208 29.6040066,92.9924189 29.4254799,92.99797 C26.333044,93.0862324 23.9326063,90.2829302 24.2913178,87.1970773 L24.3090047,87.0471977 C24.4648701,85.708274 25.2298265,84.5064622 26.3977116,83.8419963 C27.1223199,83.4295501 27.8756693,82.8794367 28.2614638,82.2266281 C29.1347523,80.7500372 29.949453,79.8735195 31.0692519,79.4205503 C31.0432744,79.3944601 31.0289038,79.9312509 31.0289038,79.9312509 C31.0289038,79.9312509 32.6422765,78.6245235 33.086106,78.3963735 C35.2936465,77.2600647 36.2105993,79.9423531 38.4855709,80.3808895 C38.9155825,80.4636008 39.1963614,81.1003112 39.0139657,81.3034812 C38.4170343,81.9690573 37.4973179,81.7192581 37.4973179,81.7192581 L38.1937378,83.9868799 C38.2932264,84.3105086 38.2738814,84.6585622 38.1401245,84.9694234 L35.9121336,90.1413773 C35.9121336,90.1413773 35.2383751,91.1772113 34.6027537,90.9951355 C34.1296304,90.8591337 33.9942154,90.3212327 33.5686255,90.0719886 C33.2928211,89.9104518 32.3283348,89.8183036 32.0293165,90.0259145" id="Fill-266" fill="#EACBAC"></path>
                <path d="M27.8418432,84.8561811 L28.6919177,84.2555528 C29.1655937,83.9208218 29.5303851,83.45453 29.7420746,82.9132984 L31.029346,79.6237203 L31.029346,79.439424 C29.9305502,79.8968341 29.1235874,80.7678007 28.2613533,82.2266281 C27.8755588,82.8794367 27.1222094,83.4295501 26.3976011,83.8419963 C26.2384194,83.931924 26.0886338,84.0346193 25.9449281,84.1439758 L26.3771506,84.663003 C26.7408366,85.0998741 27.378116,85.1842507 27.8418432,84.8561811" id="Fill-268" fill="#E99462"></path>
                <path d="M34.1705312,89.6946808 L33.6885645,89.0452028 C33.3829135,88.6682836 32.9330042,88.4390234 32.449932,88.4145986 L31.581618,88.3701899 C30.798422,88.3296669 30.1102928,88.8864416 29.9826158,89.6630396 L29.9074467,90.1237803 C29.7930349,90.8171119 29.251375,91.3600089 28.5610349,91.4726961 L28.4278308,91.4949004 C27.5716765,91.634788 26.6961773,91.4021972 26.0207605,90.8554144 L24.6229463,89.7235465 C25.3757431,91.6525515 27.2218085,93.0603088 29.4254799,92.9975815 C29.6040066,92.9925855 29.7687154,92.9764873 29.914632,92.9476216 C31.7761734,92.5768086 31.217932,90.5900722 32.0293165,90.0260811 C32.3283348,89.8184702 33.2928211,89.9106183 33.5686255,90.0721551 C33.9942154,90.3213992 34.1296304,90.8593002 34.6027537,90.9947469 C35.2383751,91.1773779 35.9121336,90.1409887 35.9121336,90.1409887 L36.4521354,88.8881069 L35.5490004,89.7951556 C35.1549152,90.1909485 34.5032652,90.1432091 34.1705312,89.6946808" id="Fill-270" fill="#E99462"></path>
            </g>
        </g>
    </g>
</svg>