<?xml version="1.0" encoding="UTF-8"?>
<svg version="1.1" viewBox="0 0 420 420" xmlns="http://www.w3.org/2000/svg" xmlns:xlink="http://www.w3.org/1999/xlink">
<title>5. Elements_Illustrations/2.Vector/Girl</title>
<defs>
<polygon id="d" points="0 0 16.505 0 16.505 22.556 0 22.556"/>
<path id="c" d="m0 0 1.9369 7.048c0.27686 1.0086 0.2417 2.0814-0.10107 3.069-0.30707 0.88553-0.45099 1.8227-0.42297 2.7633l0.14557 5.0398 16.442 0.079987-0.50757-4.3965c-0.15381-1.3309-0.78387-2.5556-1.7666-3.4321l-1.2695-1.1329c-0.89923-0.80158-1.4826-1.9146-1.6425-3.1297l-0.77509-5.9089"/>
<path id="b" d="m0 0 1.9369 7.048c0.27686 1.0086 0.2417 2.0814-0.10107 3.069-0.30707 0.88553-0.45099 1.8227-0.42297 2.7633l0.14557 5.0398 16.442 0.079987-0.50757-4.3965c-0.15381-1.3309-0.78387-2.5556-1.7666-3.4321l-1.2695-1.1329c-0.89923-0.80158-1.4826-1.9146-1.6425-3.1297l-0.77509-5.9089"/>
<path id="a" d="m2.7579 1.5321-0.64034 0.4607c-1.3654 0.98365-2.1635 2.642-2.1155 4.3959l0.015047 0.53007 15.983 0.08123-0.10867-1.008c-0.18837-1.7479-1.2071-3.2705-2.6973-4.0336l-2.1049-1.0767c-1.1525-0.59055-2.3953-0.88167-3.6331-0.88167-1.6474 0-3.287 0.51643-4.6981 1.5321"/>
</defs>
<g fill="none" fill-rule="evenodd">
<g transform="translate(135 154)">
<path d="m76.247 36.682c0 3.9683-3.229 7.1848-7.2127 7.1848-3.9836 0-7.2132-3.2165-7.2132-7.1848s3.2296-7.1848 7.2132-7.1848c3.9836 0 7.2127 3.2165 7.2127 7.1848" fill="#0297B8"/>
<path d="m86.734 52.024c-2.4331 6.1757-9.4319 9.2176-15.632 6.7939-6.2001-2.4242-9.2533-9.3961-6.8203-15.572 2.4336-6.1757 9.4319-9.2176 15.632-6.7934s9.2533 9.3955 6.8203 15.572" fill="#00547A"/>
<path d="m53.124 46.105c0 6.6349-5.3992 12.013-12.06 12.013-6.6606 0-12.06-5.3783-12.06-12.013s5.3992-12.013 12.06-12.013c6.6606 0 12.06 5.3783 12.06 12.013" fill="#00547A"/>
<path d="m53.11 36.682c0 3.9683-3.229 7.1848-7.2127 7.1848-3.9836 0-7.2127-3.2165-7.2127-7.1848s3.229-7.1848 7.2127-7.1848c3.9836 0 7.2127 3.2165 7.2127 7.1848" fill="#00547A"/>
<path d="m79.914 36.452c-3.4925-1.3656-7.2389-0.99638-10.28 0.69057-1.6371 3.1743 0.35165 7.6113 4.5597 10.032 4.3052 2.4759 9.2913 1.9005 11.138-1.2855 0.81269-1.4028 0.88023-3.077 0.3349-4.7233-1.3229-2.0656-3.2882-3.7498-5.753-4.7133" fill="#0297B8"/>
<path d="m41.648 57.863 0.85456 1.1548c2.1478 2.903 1.4786 6.998-1.4831 9.0719l-30.856 21.61c-2.9125 2.0395-6.9325 1.3444-8.9843-1.5535-2.0005-2.8262-1.3982-6.7222 1.363-8.8178l30.001-22.764c2.8668-2.1751 6.9665-1.5902 9.1043 1.2994" fill="#EACBAC"/>
<path d="m41.02 68.089c2.9616-2.0739 3.6309-6.169 1.4831-9.0719l-0.85456-1.1548c-2.1378-2.8896-6.2375-3.4745-9.1043-1.2994l-19.544 14.829 2.0887 7.34c0.3176 1.1159-0.18531 2.3019-1.2096 2.854l-3.9563 2.1323c-0.57101 0.30803-0.70608 1.0653-0.27629 1.5502l2.6223 2.9552 28.751-20.135z" fill="#E99462"/>
<path d="m41.73 57.997c3.2117 4.1879 2.4336 10.171-1.7432 13.406l-16.365 12.673c-0.44095 0.34195-1.0616 0.32304-1.478-0.047817-0.86684-0.77119-2.5017-2.6305-5.3255-7.1137-2.975-4.7233-3.9022-6.993-4.1779-8.035-0.11833-0.4487 0.049677-0.92187 0.42086-1.2032l15.18-11.494c4.2298-3.2026 10.264-2.3909 13.489 1.8143" fill="#ED985A"/>
<path d="m32.317 63.605-6.3793 8.6338c-2.3304 3.1532-6.6283 4.1273-10.098 2.2891l-0.68711-0.36419c0.46886 0.81067 1.0159 1.7192 1.6661 2.7512 2.8238 4.4831 4.4592 6.3425 5.3255 7.1137 0.41695 0.37086 1.0371 0.38921 1.478 0.047817l16.252-12.585-0.62236-9.4528-0.50793-3.3088c-0.75967-0.01112-1.5132-0.046705-2.2606-0.10286l-4.1662 4.9786z" fill="#D76230"/>
<path d="m28.241 56.183-0.97233 0.73616c2.8891 0.82902 5.9897 1.4657 9.2142 1.7075 0.74739 0.056158 1.5009 0.091742 2.2606 0.10286 1.1258 0.01668 2.2645-0.021129 3.4104-0.11732-0.13508-0.20739-0.27071-0.41479-0.42421-0.61495-3.2251-4.2051-9.2589-5.0169-13.489-1.8143" fill="#D76230"/>
<path d="m39.675 115.47c-4.4475-0.74617-7.6927-4.596-7.6927-9.0886v-8.5042l-0.49677-21.764-4.9844-8.0433c-3.5086-5.663-0.017303-13.05 6.5998-13.962l24.07-3.3211c0.9874-0.12844 1.9893-0.097303 2.9667 0.092298l23.434 5.0469c6.2738 1.3517 9.2913 8.5037 5.8691 13.913l-6.1052 9.653-1.6639 19.664c-0.070329 0.8318-0.02735 1.6692 0.12894 2.4898l0.59668 3.1376c0.98294 5.1732-2.5698 10.124-7.8054 10.847-4.054 0.55935-9.6842 0.99749-17.38 0.99749-8.1258 0-13.723-0.51765-17.537-1.1576" fill="#ED985A"/>
<path d="m83.336 79.49 2.3739-3.7531c-0.31313-0.49485-0.60561-1.0025-0.85456-1.5335l-2.7629-5.8843-5.9434-13.994-1.7895-0.38532-4.0255 14.673c-0.36504 1.33-1.6086 2.2285-2.9912 2.1612l-22.142-1.0759c-1.1029-0.053933-1.9904-0.92187-2.0647-2.0194l-0.61343-9.0964c-1.271 0.12121-2.5324 0.16569-3.7788 0.14734-0.75967-0.01112-1.5132-0.046705-2.2606-0.10286-1.4713-0.11065-2.9175-0.30136-4.3297-0.55713l0.16354 5.5357-4.6668 6.3158 3.8352 6.1901 0.15461 6.7656 0.34272 14.998v8.5042c0 4.4926 3.2452 8.3424 7.6927 9.0892 3.8145 0.63997 9.4113 1.1571 17.538 1.1571 7.6944 0 13.325-0.43758 17.379-0.99693 5.2356-0.72282 8.7884-5.6736 7.8049-10.847l-0.59612-3.1381c-0.15629-0.82012-0.19927-1.658-0.12894-2.4898l1.6639-19.663z" fill="#D76230"/>
<path d="m38.744 58.73c1.2464 0.018348 2.5079-0.026133 3.7794-0.14734 4.227-0.402 8.5634-1.6347 12.828-4.1101 1.8581-1.0787 3.4238-2.3086 4.7511-3.6013-0.96619-0.18348-1.9558-0.21351-2.9315-0.086738l-24.07 3.3211c-2.2701 0.31304-4.1723 1.3889-5.5504 2.8952 1.4836 0.41701 3.0214 0.78287 4.6027 1.0692 1.4122 0.25577 2.8584 0.44648 4.3297 0.55713 0.74739 0.056158 1.5009 0.091742 2.2606 0.10286" fill="#D76230"/>
<path d="m89.279 209.25 8.2642 20.073c0.5805 1.4106 1.9592 2.3319 3.4902 2.3319 2.3717 0 4.155-2.154 3.7034-4.4731l-4.1466-21.299c-0.54087-2.7778-2.9829-4.784-5.8234-4.784-4.2186 0-7.0887 4.263-5.4879 8.1512" fill="#ED985A"/>
<path d="m100.59 205.89c-0.54087-2.7778-2.9829-4.784-5.8234-4.784-4.2186 0-7.0887 4.263-5.4879 8.1512l3.4411 8.3591 9.0602-5.6146-1.19-6.1117z" fill="#D76230"/>
<path d="m88.972 205.76 11.632 0.19071-0.012838-0.064498c-0.073678-0.38031-0.18643-0.7445-0.32764-1.0926l-10.908-0.17904c-0.16466 0.36753-0.29583 0.74895-0.38346 1.1454" fill="#DB594A"/>
<path d="m101.07 208.37-12.064 0.050598c0.069771 0.27745 0.15517 0.55435 0.26848 0.83013l0.13117 0.31915 11.888-0.049485-0.22383-1.1504z" fill="#DB594A"/>
<polygon points="101.99 213.09 101.77 211.95 90.516 212.26 90.985 213.4" fill="#DB594A"/>
<polygon points="102.69 216.66 102.47 215.51 92.092 216.08 92.556 217.21" fill="#DB594A"/>
<polygon points="103.38 220.22 103.16 219.08 93.663 219.9 94.123 221.02" fill="#DB594A"/>
<polygon points="104.07 223.77 103.85 222.64 95.23 223.71 95.684 224.81" fill="#DB594A"/>
<path d="m104.76 227.32c-0.007256-0.045037-0.010047-0.090074-0.018419-0.13511l-0.19424-0.99694-7.753 1.3083 0.44933 1.092 7.5163-1.2683z" fill="#DB594A"/>
<path d="m41.697 207.32 2.8344 20.766c0.24838 1.8221 1.7381 3.2254 3.5784 3.3711 2.1679 0.17125 4.0618-1.4456 4.2242-3.6058l1.5724-20.898c0.25229-3.3589-2.2678-6.2891-5.6386-6.5554-3.9055-0.30859-7.0988 3.0553-6.5708 6.9224" fill="#ED985A"/>
<path d="m48.268 200.4c-3.9055-0.30859-7.0988 3.0553-6.5708 6.9224l1.5461 11.328 10.261-6.3591 0.40132-5.3361c0.25285-3.3583-2.2673-6.2891-5.6381-6.5554" fill="#D76230"/>
<path d="m41.967 204.53 11.93 1.4701c-0.032932-0.407-0.10549-0.80344-0.21601-1.1865l-11.209-1.3811c-0.20262 0.3464-0.37397 0.71337-0.50514 1.0976" fill="#DB594A"/>
<path d="m53.787 208.54-12.098-1.3216c0.0039072 0.034473 0.003349 0.067834 0.0078144 0.10231l0.1468 1.0726 11.857 1.2955 0.086516-1.1487z" fill="#DB594A"/>
<polygon points="53.51 212.22 42.222 211.16 42.382 212.34 53.424 213.37" fill="#DB594A"/>
<polygon points="53.234 215.9 42.761 215.11 42.92 216.28 53.147 217.05" fill="#DB594A"/>
<polygon points="52.957 219.58 43.299 219.06 43.458 220.22 52.871 220.73" fill="#DB594A"/>
<polygon points="52.68 223.26 43.837 223 43.995 224.15 52.594 224.41" fill="#DB594A"/>
<path d="m44.374 226.93 0.1574 1.151h7.7731c0.011163-0.077286 0.024001-0.15457 0.030141-0.23353l0.068655-0.91742h-8.0293z" fill="#DB594A"/>
<path d="m40.976 229.86-4.2069 2.1256c-0.81604 0.41201-1.7058 0.65999-2.6178 0.73005l-3.3736 0.25799c-2.2896 0.17514-4.2739 1.6475-5.0972 3.7831l-1.0343 2.6828h30.42l-0.042421-4.025c-0.0044653-0.45871-0.089865-0.91298-0.25062-1.3422l-1.3536-3.6024c-0.14345-0.38309-0.21043-0.7901-0.19703-1.1993l0.22159-6.6883h-11.274l0.50291 4.1101c0.15964 1.3061-0.51854 2.5727-1.6968 3.1676" fill="#0097B8"/>
<path d="m29.136 237.04h7.5459c1.7705 0 3.469-0.70058 4.7215-1.9477l5.3026-5.2816c0.64803-0.64498 1.0064-1.5213 0.9941-2.4337-0.016745-1.2332-0.039072-3.082-0.048002-4.7895h-5.4829l0.50235 4.1101c0.16019 1.3066-0.51798 2.5727-1.6963 3.1676l-4.2069 2.1256c-0.81604 0.41201-1.7052 0.65999-2.6178 0.73005l-3.3736 0.25799c-1.8704 0.14345-3.5248 1.161-4.5217 2.69 0.67873 0.8318 1.7108 1.3711 2.8807 1.3711" fill="#00547A"/>
<path d="m35.474 238.67-0.54589-1.8348c-0.3723-1.2494-1.1035-2.3625-2.1043-3.2026-0.56877-0.47762-1.3039-0.71337-2.0462-0.65665-2.2896 0.17514-4.2739 1.6475-5.0972 3.7826l-0.73678 1.9116h10.53z" fill="#EAFBFF"/>
<path d="m52.339 233.64c0 1.097-0.89307 1.9861-1.9938 1.9861-1.1013 0-1.9943-0.88907-1.9943-1.9861s0.89307-1.9861 1.9943-1.9861c1.1007 0 1.9938 0.88907 1.9938 1.9861" fill="#EAFBFF"/>
<path d="m54.86 243h-30.207c-0.72283 0-1.3078-0.58326-1.3078-1.3027v-0.95134c0-0.71948 0.58496-1.3027 1.3078-1.3027h30.207c0.72227 0 1.3083 0.58326 1.3083 1.3027v0.95134c0 0.71948-0.58608 1.3027-1.3083 1.3027" fill="#EAFBFF"/>
<path d="m35.474 238.67-0.54589-1.8348c-0.3723-1.2494-1.1035-2.3625-2.1043-3.2026-0.56877-0.47762-1.3039-0.71337-2.0462-0.65665-2.2896 0.17514-4.2739 1.6475-5.0972 3.7826l-0.73678 1.9116h10.53z" fill="#EAFBFF"/>
<path d="m34.928 236.84c-0.3723-1.2499-1.1035-2.3631-2.1037-3.2026-0.56933-0.47817-1.3044-0.71392-2.0468-0.65721-1.6153 0.12344-3.0683 0.90186-4.0791 2.094 0.95447 1.1921 2.4219 1.9672 4.0869 1.9672h4.2025l-0.059724-0.20128z" fill="#ACEDFB"/>
<path d="m111.09 92.046c2.3784-8.3897 6.0226-21.483 7.5515-26.985 0.40746-1.4645-0.36169-2.9947-1.7806-3.5524-1.3402-0.5271-2.8668-0.024465-3.6275 1.1943l-14.956 23.945c-2.2835 3.6569-0.68599 8.4809 3.3339 10.066 4.0339 1.5902 8.3-0.50931 9.4788-4.6683" fill="#EACBAC"/>
<path d="m103.64 85.989 10.46-20.504c0.5191-0.88851 0.43705-2.0028-0.20652-2.8062l-0.32764-0.40923c-0.12168 0.13289-0.23331 0.2769-0.33155 0.43369l-9.5821 15.342c0.011164 3.4467-0.011721 7.9438-0.011721 7.9438" fill="#E99462"/>
<path d="m107.6 93.414c-1.7833 0.19461-3.5712-0.3236-4.9727-1.4401l-1.473-1.1737c-1.5355-1.2238-2.3862-3.0992-2.3142-5.0503l-0.56096 0.89908c-2.284 3.6564-0.68599 8.4798 3.3334 10.065 3.6839 1.4518 7.5531-0.17904 9.0965-3.6386l-3.109 0.33861z" fill="#E99462"/>
<g transform="translate(110.5 45.367)">
<mask id="h" fill="white">
<use xlink:href="#d"/>
</mask>
<path d="m15.022 10.24c-1.4697 2.2713-2.4811 3.9227-4.2678 6.1201-0.36728 0.4526-1.7811 2.7489-2.9309 4.6438-0.89474 1.474-2.7948 1.9833-4.3119 1.1576-1.2693-0.69001-1.9223-2.1357-1.5997-3.5396 0.25508-1.1081 0.35388-2.3686-0.19536-3.1437-0.44598-0.62941-1.0856-2.1045-1.1604-3.8387-0.070887-1.6503-0.99801-4.2202-0.29248-5.211 0.15796-0.22241 0.24392-0.32082 0.51742-0.33861 1.166-0.075618 0.92154 2.3714 2.3538 2.2591 0.50235-0.039477 0.91037-0.41924 1.0722-0.89407 0.8032-2.3631 1.732-4.6839 2.7797-6.9502 0.18531-0.40033 0.66422-0.6244 1.0655-0.43814 0.3109 0.14456 0.33546 0.44314 0.34551 0.71726 0.034048 0.8963-0.82442 3.7603-0.10884 4.1084 0.95335 0.46427 1.4808-0.75006 2.0384-1.4234 0.56375-0.68001 1.9179-2.7673 2.8528-2.3575 0.93493 0.40978-0.79204 3.6675-0.79204 3.6675s1.1359-1.3984 1.7577-1.8159c0.53696-0.3603 1.204-0.37142 1.5249 0.086182 0.22383 0.32026-0.1468 0.9013-0.32485 1.3578-0.43091 1.1015-1.1805 2.2546-1.3804 3.4206-0.050235 0.29413 0.61789-0.18293 0.92377-0.44759 0.55203-0.4765 1.2029-0.96024 1.5606-0.39811 0.30532 0.4804-0.72394 2.1696-1.4278 3.2582" fill="#EACBAC" mask="url(#h)"/>
</g>
<path d="m117.48 45.872c-1.0477 2.2663-1.9765 4.5871-2.7797 6.9502-0.16187 0.47484-0.56989 0.85459-1.0717 0.89352-0.14066 0.01112-0.26122-0.0083402-0.3723-0.041701l0.3857 0.22797c0.26569 0.15735 0.46272 0.40867 0.55035 0.70391 0.13619 0.45371 0.78144 0.45204 0.91484-0.0022241l2.6574-9.073c-0.11945 0.086738-0.22048 0.20239-0.28467 0.34139" fill="#E99462"/>
<path d="m114.54 61.957-0.010047-0.010564c-0.97233-1.0353-1.6259-2.3275-1.8821-3.722l-1.0622-5.772c-0.030141-0.30025 0.023443-0.59549 0.14512-0.86015-0.12503-0.092298-0.27071-0.14734-0.45323-0.13511-0.27294 0.017236-0.3589 0.11565-0.51742 0.33806-0.70497 0.99082 0.22159 3.5607 0.29248 5.2115 0.074795 1.7337 0.71501 3.2093 1.161 3.8382 0.54924 0.77564 0.45044 2.0356 0.19536 3.1443-0.25676 1.1143 0.1094 2.2485 0.90368 3.0169l1.5266-2.9791c0.35053-0.68334 0.23052-1.5129-0.29918-2.07" fill="#E99462"/>
<path d="m119.07 57.923c0.30085-0.11954 0.6285-0.13678 0.9941-0.18237l0.03963-0.0050041c0.084841-0.010564 0.16187-0.063942 0.19871-0.1479 0.056933-0.12677-5.59e-4 -0.27523-0.12782-0.33194-0.38235-0.16903-0.82888-0.27968-1.2782-0.22185-0.44542 0.043369-0.88749 0.20017-1.257 0.43981-0.37453 0.23464-0.68543 0.54323-0.93549 0.88128-0.24336 0.34807-0.43202 0.70892-0.52189 1.1432-0.019536 0.10064 0.00893 0.21073 0.087632 0.28802 0.12447 0.12177 0.3243 0.11954 0.44654-0.0038921l0.024001-0.024465 0.74181-0.75118c0.24169-0.24187 0.49286-0.45704 0.74962-0.64998 0.26066-0.19016 0.53919-0.3236 0.83837-0.43369" fill="#E99462"/>
<path d="m77.465 60.07c-3.2095 2.7867-3.4824 7.6602-0.6045 10.786l22.198 24.107c2.6306 2.8574 7.0848 3.0603 9.9667 0.45371 2.84-2.5688 3.1062-6.9246 0.60059-9.8176l-21.45-24.77c-2.7417-3.1659-7.5459-3.5062-10.71-0.75896" fill="#EACBAC"/>
<path d="m99.058 94.962c2.1395 2.3241 5.4857 2.8913 8.2101 1.6202l-2.2154-0.29191c-1.4138-0.18626-2.7222-0.84459-3.7113-1.8682l-1.785-1.8465c-1.3407-1.3878-2.2757-3.1137-2.7043-4.9919l-1.9759-8.6622-7.1373 3.7481 11.319 12.292z" fill="#E99462"/>
<path d="m103.64 84.902c-0.001114 0.27245 0.36728 0.35752 0.49119 0.11454l1.8492-3.6258-2.3315-2.6933c0.003908 2.2563-0.003349 4.7967-0.008933 6.2046" fill="#E99462"/>
<path d="m75.641 58.182c-3.9848 3.4662-4.4196 9.4845-0.974 13.483l13.502 15.668c0.36393 0.42202 0.97568 0.52655 1.4579 0.24631 1.003-0.58382 2.9778-2.0817 6.6416-5.9143 3.8603-4.0378 5.2228-6.0778 5.7011-7.0442 0.20652-0.41646 0.13619-0.91353-0.17136-1.2627l-12.576-14.277c-3.5042-3.9783-9.5793-4.3803-13.581-0.89963" fill="#ED985A"/>
<path d="m88.169 87.334c0.36393 0.42202 0.97568 0.5271 1.4579 0.24631 0.878-0.51098 2.4995-1.7209 5.3456-4.5832-1.8124-0.096191-3.5321-0.87461-4.8003-2.1946l-1.329-1.3828c-1.9938-2.075-3.6337-4.4604-4.8555-7.0625l-1.8955-4.0378-4.7969-11.293c-0.57938 0.32138-1.1348 0.70503-1.6544 1.1565-3.9848 3.4662-4.4196 9.4845-0.97345 13.483l13.502 15.668z" fill="#D76230"/>
<path d="m58.47 35.329c-3.7503 0-6.9073 2.7567-7.4387 6.4548-0.27797 1.9344-0.73232 3.9116-1.3709 5.7236-1.1649 3.3066-4.5842 4.9741-4.5842 4.9741s0.1775 6.8373 12.641 6.8373c12.463 0 13.782-5.8938 13.782-5.8938s-5.5549-2.8857-5.6526-9.8948c-0.016745-1.2082-0.030699-2.2435-0.042421-3.1293-0.036281-2.809-3.3094-5.072-7.3343-5.072" fill="#EACBAC"/>
<path d="m65.829 42.23c-0.0094889-0.66777-0.017303-1.2811-0.024559-1.8293-0.036281-2.809-3.3094-5.072-7.3343-5.072-3.7503 0-6.9079 2.7567-7.4387 6.4553-0.27797 1.9338-0.73232 3.911-1.3709 5.7236-1.1649 3.3061-4.5842 4.9736-4.5842 4.9736s0.078702 2.8879 3.5544 4.9102c2.2422-0.67389 4.491-1.6252 6.7204-2.9191 5.9975-3.4807 8.9999-8.5187 10.478-12.242" fill="#E99462"/>
<path d="m43.278 30.268c0.53082 3.1265 0.030141 5.3327-1.8844 5.8843-2.2316 0.64275-4.0512-2.2613-4.5753-4.7017-0.95447-4.442 0.81269-7.1253 2.639-6.9435 3.4406 0.34306 3.4026 3.3005 3.8207 5.7609" fill="#EACBAC"/>
<path d="m74.075 30.268c-0.53082 3.1265-0.030141 5.3327 1.8844 5.8843 2.2316 0.64275 4.0512-2.2613 4.5753-4.7017 0.95447-4.442-0.81269-7.1253-2.639-6.9435-3.4406 0.34306-3.4026 3.3005-3.8207 5.7609" fill="#EACBAC"/>
<path d="m39.458 24.507c-1.737-0.17292-3.4154 2.2496-2.7546 6.3097 0.13452-0.10453 0.25006-0.37698 0.31592-0.87684 0.2188-1.6636 1.3513-2.5543 2.0998-2.581 2.2282-0.080066 4.2934 3.6019 2.2796 7.1615-0.47333 0.8368-0.64748 1.4712-0.44319 1.712 0.14457-0.012788 0.29025-0.037253 0.43872-0.080066 1.9145-0.55157 2.4152-2.7578 1.8844-5.8843-0.41751-2.4604-0.38011-5.4178-3.8207-5.7609" fill="#E99462"/>
<path d="m78.209 24.507c-0.10382-0.0083402-0.2082-0.010008-0.31257 5.56e-4 -3.4411 0.34306-3.4032 3.3005-3.8212 5.7609-0.051352 0.30136-0.089307 0.59216-0.12112 0.87572 0.66199 0.18293 1.2548-0.033917 1.4334-0.81234 0.65696-2.8618 1.3798-5.0809 2.8215-5.8248" fill="#E99462"/>
<path d="m76.757 33.978c0 0.45538-0.37062 0.82457-0.82776 0.82457s-0.82776-0.36919-0.82776-0.82457c0-0.45538 0.37062-0.82457 0.82776-0.82457s0.82776 0.36919 0.82776 0.82457" fill="#E99462"/>
<path d="m41.483 33.978c0 0.45538-0.37062 0.82457-0.82776 0.82457s-0.82776-0.36919-0.82776-0.82457c0-0.45538 0.37062-0.82457 0.82776-0.82457s0.82776 0.36919 0.82776 0.82457" fill="#E99462"/>
<path d="m76.94 33.806c0 0.45538-0.37062 0.82457-0.82776 0.82457s-0.82776-0.36919-0.82776-0.82457c0-0.45538 0.37062-0.82457 0.82776-0.82457s0.82776 0.36919 0.82776 0.82457" fill="#0297B8"/>
<path d="m41.665 33.806c0 0.45538-0.37062 0.82457-0.82776 0.82457-0.45714 0-0.82776-0.36919-0.82776-0.82457 0-0.45538 0.37062-0.82457 0.82776-0.82457 0.45714 0 0.82776 0.36919 0.82776 0.82457" fill="#0297B8"/>
<path d="m60.57 10.889c7.6871-0.055046 13.915 6.283 13.83 14.076l-0.0050235 0.50931c0.070887 0.40367 0.68934 9.8537-1.7526 13.482-2.6245 3.8977-5.1854 4.5649-9.6228 5.8092-2.7317 0.76619-5.618 0.79733-8.3709 0.11343-4.6306-1.1498-7.5085-1.5318-9.8227-5.742-2.0864-3.797-1.9435-13.034-1.876-13.438l-0.010047-0.50987c-0.15629-7.7914 6.0126-14.218 13.699-14.272l3.9306-0.027801z" fill="#EACBAC"/>
<path d="m54.649 44.879c1.286 0.31915 2.6005 0.47595 3.915 0.48151-15.077-2.5999-13.733-15.099-11.845-21.018 1.0443-3.2721 0.79986-7.092 0.46384-9.5218-2.6809 2.611-4.3241 6.303-4.2426 10.369l0.010047 0.50931c-0.067538 0.40478-0.20987 9.6407 1.8766 13.438 2.3136 4.2107 5.1915 4.5927 9.8221 5.7425" fill="#E99462"/>
<path d="m53.378 30.39c0.077027-0.15958 0.12336-0.33583 0.12336-0.52488v-1.4645c0-0.67445-0.54868-1.221-1.2252-1.221-0.67706 0-1.2252 0.54656-1.2252 1.221v1.4645c0 0.19294 0.048561 0.37253 0.12838 0.53489 0.33044-0.18182 0.70441-0.29413 1.108-0.29413 0.39686 0 0.76469 0.10898 1.0907 0.28412" fill="#00547A"/>
<path d="m66.134 30.333c0.060282-0.14401 0.093772-0.30192 0.093772-0.46761v-1.4651c0-0.67389-0.54812-1.2205-1.2252-1.2205-0.6765 0-1.2252 0.54656-1.2252 1.2205v1.4651c0 0.21518 0.06084 0.41479 0.15908 0.59049 0.35332-0.21796 0.76637-0.34973 1.2123-0.34973 0.35388 0 0.68543 0.085626 0.98517 0.22685" fill="#00547A"/>
<path d="m68.083 26.152c-0.13619 0.11565-0.33434 0.12232-0.47723 0.015012l-1.1699-0.87406c-0.23276-0.17348-0.50235-0.29191-0.78758-0.34584l-1.9324-0.3653c-0.28857-0.05449-0.41025-0.39922-0.21936-0.62162l0.28522-0.33194c0.096563-0.11232 0.25006-0.15902 0.39295-0.11899l1.9871 0.54879c0.30085 0.083402 0.57715 0.23964 0.80376 0.45426l1.1325 1.0748c0.1641 0.15568 0.1574 0.41812-0.015071 0.56491" fill="#00547A"/>
<path d="m49.353 26.152c0.13619 0.11565 0.33434 0.12232 0.47779 0.015012l1.1699-0.87406c0.2322-0.17348 0.50179-0.29191 0.78702-0.34584l1.9324-0.3653c0.28857-0.05449 0.41025-0.39922 0.21936-0.62162l-0.28522-0.33194c-0.096563-0.11232-0.2495-0.15902-0.39295-0.11899l-1.9865 0.54879c-0.30141 0.083402-0.5777 0.23964-0.80432 0.45426l-1.1325 1.0748c-0.1641 0.15568-0.1574 0.41812 0.01507 0.56491" fill="#00547A"/>
<path d="m66.766 31.685h0.71892c0.28578 0 0.51686 0.23075 0.51686 0.51487v0.134c0 0.28468-0.23108 0.51543-0.51686 0.51543h-0.71892c-0.28578 0-0.51686-0.23075-0.51686-0.51543v-0.134c0-0.28412 0.23108-0.51487 0.51686-0.51487" fill="#FC95A4"/>
<path d="m64.789 32.969h0.71892c0.28578 0 0.51686 0.23075 0.51686 0.51487v0.134c0 0.28468-0.23108 0.51543-0.51686 0.51543h-0.71892c-0.28578 0-0.51686-0.23075-0.51686-0.51543v-0.134c0-0.28412 0.23108-0.51487 0.51686-0.51487" fill="#FC95A4"/>
<path d="m62.812 31.685h0.71892c0.28578 0 0.51686 0.23075 0.51686 0.51487v0.134c0 0.28468-0.23108 0.51543-0.51686 0.51543h-0.71892c-0.28522 0-0.51686-0.23075-0.51686-0.51543v-0.134c0-0.28412 0.23164-0.51487 0.51686-0.51487" fill="#FC95A4"/>
<path d="m53.905 31.685h0.71892c0.28578 0 0.51686 0.23075 0.51686 0.51487v0.134c0 0.28468-0.23108 0.51543-0.51686 0.51543h-0.71892c-0.28578 0-0.51686-0.23075-0.51686-0.51543v-0.134c0-0.28412 0.23108-0.51487 0.51686-0.51487" fill="#FC95A4"/>
<path d="m51.928 32.969h0.71892c0.28578 0 0.51686 0.23075 0.51686 0.51487v0.134c0 0.28468-0.23108 0.51543-0.51686 0.51543h-0.71892c-0.28578 0-0.51686-0.23075-0.51686-0.51543v-0.134c0-0.28412 0.23108-0.51487 0.51686-0.51487" fill="#FC95A4"/>
<path d="m49.951 31.685h0.71892c0.28578 0 0.51686 0.23075 0.51686 0.51487v0.134c0 0.28468-0.23108 0.51543-0.51686 0.51543h-0.71892c-0.28522 0-0.51686-0.23075-0.51686-0.51543v-0.134c0-0.28412 0.23164-0.51487 0.51686-0.51487" fill="#FC95A4"/>
<path d="m58.299 28.043c-0.09154 0.64553-0.19145 1.2888-0.30699 1.9294l-0.34495 1.8932c-0.025676 0.20295 0.067538 0.40923 0.22271 0.53433 0.077586 0.06283 0.16801 0.10842 0.2668 0.12399 0.096563 0.015568 0.30643 0.032249 0.45435 0.048373l0.47835 0.054489c0.098796 0.010008 0.20206 0.0066722 0.30141-0.026689 0.1027-0.031137 0.19313-0.077286 0.28969-0.16291 0.12112-0.11176 0.24336-0.22296 0.37955-0.32249 0.093772-0.06839 0.22494-0.048929 0.2936 0.044481 0.04577 0.061718 0.05191 0.14067 0.024001 0.20628-0.06698 0.15457-0.14791 0.29858-0.22941 0.44148-0.10159 0.17181-0.2735 0.33528-0.46942 0.43647-0.19815 0.098971-0.427 0.15235-0.65306 0.13456-0.17917-0.014456-0.32988-0.027801-0.49565-0.047261-0.17638-0.022797-0.29248-0.027245-0.51798-0.063942-0.22327-0.042257-0.43426-0.14679-0.60617-0.29191-0.34997-0.28746-0.52579-0.76563-0.45491-1.2066 0.14568-0.69001 0.31425-1.2783 0.46998-1.9227 0.15852-0.63108 0.33267-1.2583 0.51575-1.8843 0.030141-0.10342 0.13898-0.16347 0.2428-0.13344 0.094889 0.027801 0.15294 0.12066 0.13954 0.21518" fill="#E99462"/>
<path d="m58.3 36.851c0.30029 0.27968 0.7005 0.37197 1.0935 0.39866 0.39909 0.021128 0.81158-0.012232 1.2296-0.074506 0.41751-0.056158 0.81716-0.13678 1.161-0.28301 0.34662-0.14067 0.61901-0.38699 0.90814-0.76674 0.032932-0.043369 0.094889-0.051709 0.13843-0.018904 0.025676 0.01946 0.03963 0.048929 0.03963 0.078398v0.0083402c-0.0022327 0.46761-0.26569 1.017-0.72171 1.315-0.44095 0.30859-0.94163 0.43202-1.4166 0.48985-0.47556 0.05727-0.97903 0.055602-1.4691-0.09341-0.47556-0.13845-0.9941-0.45649-1.1191-0.99471-0.010605-0.043925 0.016745-0.08785 0.061399-0.097859 0.02735-0.0066722 0.0547 0.001668 0.074236 0.01946l0.020652 0.01946z" fill="#1C417D"/>
<path d="m77.66 11.853c-0.85902-1.6391-2.3432-3.9099-3.7554-4.4047-2.0998-4.0228-6.4362-7.4478-15.125-7.4478-9.111 0-13.505 3.5357-15.561 7.5457-1.3407 0.64387-2.7133 2.7562-3.526 4.3069-1.8152 3.4651-1.5378 6.5426-0.83223 8.616 0.62682 1.8415 0.32541 4.0422 0.32541 4.0422s0.42309-0.07951 1.2944 0.23075c2.1395 0.76174 2.2846 2.6238 2.1986 3.6069-0.037397 0.41979 0.12838 0.82846 0.44877 1.1031l0.76748 0.65665c0.27629 0.23631 0.70441 0.034473 0.69436-0.32916l-0.19201-7.4061s2.8422-3.1887 3.6917-9.3077c2.5687-1.5207 5.9534-2.7428 10.204-2.7428 4.6373 0 8.3474 1.6647 11.11 3.6213 0.98238 5.5435 3.5522 8.4292 3.5522 8.4292l-0.19201 7.4061c-0.0094888 0.36363 0.41807 0.56547 0.69492 0.32916l0.76692-0.65665c0.32095-0.27467 0.48616-0.68334 0.44933-1.1031-0.085958-0.98303 0.059166-2.8451 2.1986-3.6069 0.8713-0.31026 1.2938-0.23075 1.2938-0.23075s-0.30085-2.2007 0.32597-4.0422c0.70553-2.0734 0.98293-5.1509-0.83279-8.616" fill="#0297B8"/>
<path d="m43.219 7.5459c-1.3407 0.64331-2.7133 2.7562-3.5254 4.3069-1.8157 3.4651-1.5383 6.5421-0.83279 8.6154 0.62682 1.8415 0.32541 4.0422 0.32541 4.0422s0.42309-0.07951 1.2944 0.23075c2.1395 0.76174 2.2846 2.6244 2.1986 3.6074-0.037397 0.41924 0.12838 0.82846 0.44933 1.1026l0.76637 0.65665c0.27741 0.23686 0.70497 0.034473 0.69548-0.32916l-0.19257-7.4056s1.722-1.9444 2.8863-5.6914c-2.8824-9.4545 0.8713-13.747 3.7693-15.573-4.0858 1.3522-6.4759 3.7876-7.8345 6.4375" fill="#00547A"/>
<path d="m74.972 13.612c-0.64915-2.179-2.0183-4.1373-3.7515-5.6308-1.7259-1.5207-3.8257-2.5443-5.9785-3.221-2.1741-0.62329-4.409-0.87795-6.6249-0.93466-0.55482-0.0083402-1.1108 0.044481-1.6661 0.065054-0.55482 0.023353-1.1096 0.048929-1.665 0.14568-0.55482 0.081734-1.1102 0.15012-1.6633 0.24576-0.54868 0.13456-1.1002 0.26021-1.6455 0.40756-2.1579 0.66499-4.2823 1.6703-5.997 3.2227-0.21322 0.19294-0.4337 0.37753-0.63854 0.57826l-0.57324 0.64776c-0.18364 0.22185-0.39407 0.41924-0.55203 0.6611l-0.48002 0.71559c-0.34104 0.46205-0.55538 1.0025-0.81883 1.5051-0.25118 0.51042-0.40411 1.0648-0.60059 1.5919-0.59166 2.184-0.55817 4.5093 0.1708 6.566 0.041863 0.11788 0.16075 0.19627 0.29081 0.18237 0.024559-0.0022241 0.04577-0.012788 0.067538-0.021129-0.064189-0.018348-0.11498-0.067834-0.12001-0.13511-0.13954-2.0167 0.022327-4.0811 0.6151-6.0784 0.60171-1.9878 1.7727-3.8649 3.4059-5.2488 1.6209-1.4078 3.6337-2.2613 5.6542-2.779 1.0164-0.26133 2.0496-0.42535 3.0811-0.5271 1.0332-0.11398 2.0658-0.14846 3.0967-0.15402 2.0602 0.027245 4.1416 0.21351 6.1717 0.74673 2.0144 0.54879 4.0043 1.4217 5.6291 2.8079 1.6416 1.3595 2.8511 3.196 3.5159 5.1654 0.65752 1.9766 0.86684 4.0483 0.73176 6.0672-0.0044653 0.072282-0.061398 0.11954-0.12838 0.13456 0.0044653 0.0016681 0.0072562 0.0050041 0.011722 0.0066722 0.14457 0.051709 0.30309-0.023353 0.355-0.16736 0.73622-2.0539 0.74739-4.3931 0.10605-6.566" fill="#ED985A"/>
<path d="m74.628 20.204c0.13508-2.0189-0.074795-4.0906-0.73176-6.0672-0.66478-1.9694-1.8743-3.8059-3.5159-5.1654-1.6248-1.3861-3.6147-2.2591-5.6291-2.8079-2.0301-0.53322-4.112-0.71948-6.1717-0.74673-1.0315 0.0061162-2.0641 0.040589-3.0967 0.15402-1.0315 0.10175-2.0652 0.26578-3.0811 0.5271-2.0206 0.51821-4.0333 1.3711-5.6542 2.779-1.6332 1.3839-2.8048 3.261-3.4059 5.2488-0.59333 1.9972-0.75464 4.0622-0.6151 6.0784 0.0044654 0.067278 0.055817 0.11676 0.12001 0.13511 0.010605 0.0033361 0.017303 0.012788 0.029025 0.013344 0.088191 0.0061161 0.16466-0.060606 0.1708-0.14846 0.14959-1.9878 0.44095-3.9688 1.1906-5.7642 0.7005-1.8065 1.8581-3.3861 3.3473-4.5454 1.4981-1.1532 3.296-1.8993 5.1798-2.3119 1.8788-0.44259 3.8458-0.58159 5.8083-0.5727 1.9642 5.5602e-4 3.9228 0.17737 5.8022 0.62774 1.8766 0.44537 3.6672 1.206 5.1809 2.3525 1.5098 1.1471 2.7043 2.7006 3.4618 4.4843 0.80376 1.7715 1.1398 3.7453 1.2905 5.7297 0.0061399 0.078398 0.068655 0.14345 0.14959 0.14908 0.016187 0.0010408 0.02735-0.011192 0.042421-0.014528 0.06698-0.015012 0.12336-0.062274 0.12838-0.13456" fill="#D76230"/>
<path d="m75.878 21.845c-0.016745 0.83791-0.87744 1.3984-1.6511 1.0681-1.1398-0.4854-2.7239-1.2744-4.1098-2.3736-3.1972-2.536-4.6635-6.1773-4.5256-8.6772-3.3166 0.44481-6.4982 4.6583-6.5579 9.3244-0.0061399 0.46594-0.38793 0.83903-0.85567 0.83903h-2.4403c-0.55203 0-1.0722-0.25743-1.3926-0.70558-0.82218-1.1487-2.145-3.628-1.324-6.8996 0 0-1.1236 3.7881-0.46607 6.5804 0.13117 0.55657-0.23052 1.1059-0.7993 1.1854l-1.5897 0.22241c-0.67371 0.093966-1.3139-0.32082-1.4937-0.97469-0.41249-1.5012-0.92321-4.2029-0.03349-6.298-1.7192 0.99415-1.7493 5.1526-1.6801 6.9268 0.01842 0.46872-0.30923 0.88073-0.77027 0.97469l-3.3049 0.67333s-1.1694-1.3656-1.1694-4.0923c0-4.5799 3.1754-8.1223 5.3701-9.5512 8.0862-5.2649 15.432-3.3033 18.244-2.4309 3.5985 1.1165 6.8515 2.918 9.1506 7.0208 1.2687 2.2646 1.4367 5.325 1.3988 7.1876" fill="#0297B8"/>
<path d="m68.867 16.644c-2.303-3.5835-2.461-6.973-2.461-6.973s-0.64803 0.78899-0.8166 2.313c-0.085958 2.4954 1.3809 6.0594 4.5273 8.5554 1.3859 1.0992 2.9706 1.8882 4.1104 2.3742 0.2188 0.09341 0.44263 0.10898 0.65362 0.07395-0.82442-0.66444-4.1344-3.4195-6.0137-6.3436" fill="#00547A"/>
<path d="m61.018 7.9434c-2.6848 0.031693-5.0738 1.2021-6.5384 3.335-0.97233 1.4162-1.4853 2.8607-1.7214 4.2129 0.1401-0.65332 0.2629-1.0703 0.2629-1.0703-0.82107 3.271 0.50179 5.7503 1.3234 6.8996 0.24783 0.3464 0.61622 0.57492 1.0259 0.66221l1.3357-0.010564c-3.7118-6.4248 0.07926-12.802 4.3119-14.029" fill="#00547A"/>
<path d="m56.827 7.7023c-3.8011 0.93355-5.7586 3.1009-7.307 5.653-0.37118 0.61162-0.66031 1.2077-0.88749 1.7848 0.0016745-0.001112 0.003349-0.0027801 0.0055817-0.0038921-0.88972 2.0951-0.379 4.7967 0.03349 6.298 0.17973 0.65387 0.81995 1.0687 1.4937 0.97469l1.5897-0.22241c0.045212-0.0061162 0.086516-0.020016 0.1295-0.032249-3.0208-6.1862 0.56152-12.436 4.9426-14.452" fill="#00547A"/>
<path d="m51.043 8.0042c-1.2877 0.51431-2.6128 1.1871-3.9591 2.0634-2.1947 1.429-5.3701 4.9713-5.3701 9.5512 0 2.7267 1.1694 4.0928 1.1694 4.0928l2.989-0.60995c-1.8687-5.5335 1.0443-12.137 5.1709-15.097" fill="#00547A"/>
<path d="m106.92 207.94-20.304-88.839c-1.5852-6.9357-7.7758-11.856-14.916-11.856-10.148 0-17.483 9.6613-14.721 19.388l23.25 81.858c0.13619 0.47873 0.57491 0.809 1.0739 0.809h24.529c0.71613 0 1.2475-0.66277 1.0884-1.3589" fill="#0080F6"/>
<path d="m60.807 138.2 2.0513 9.1231 17.375 61.173c0.13619 0.47873 0.57491 0.809 1.0745 0.809h10.984l-31.484-71.105z" fill="#0068C9"/>
<path d="m104.42 201.55-24.646 0.30581c-0.31927 0.003892-0.58105-0.25021-0.58555-0.56825-0.0033164-0.31804 0.25177-0.57937 0.57104-0.58326h0.014512l24.646 0.30636c0.14959 0.001668 0.26904 0.12399 0.26738 0.273-0.001692 0.14679-0.12114 0.26466-0.26738 0.26633" fill="#3CA1FF"/>
<path d="m47.017 107.25h-0.54198c-8.6371 0-15.562 7.1181-15.29 15.717l2.687 85.26c0.01842 0.59994 0.51296 1.077 1.1158 1.077h25.735c0.61399 0 1.1124-0.49374 1.1163-1.1059l0.47636-85.625c0.046647-8.4492-6.8166-15.324-15.299-15.324" fill="#0080F6"/>
<path d="m46.504 152.95-0.35053-22.167c-0.10047-6.343 0.84004-12.66 2.7836-18.701l1.4177-4.4059c0.0055817-0.017792 0.010047-0.035029 0.015629-0.052821-1.0795-0.2402-2.2003-0.37086-3.3529-0.37086h-0.54198c-8.6371 0-15.562 7.1175-15.29 15.717l2.687 85.26c0.018978 0.6005 0.51296 1.0776 1.1158 1.0776h12.838l-1.3223-56.357z" fill="#0068C9"/>
<path d="m60.72 201.55-24.646 0.30581c-0.31927 0.003892-0.58105-0.25021-0.58555-0.56825-0.0033164-0.31804 0.25177-0.57937 0.57104-0.58326h0.014512l24.646 0.30636c0.14959 0.001668 0.26904 0.12399 0.26738 0.273-0.0016919 0.14679-0.12114 0.26466-0.26738 0.26633" fill="#3CA1FF"/>
<path d="m31.146 121.35 0.036289-16.874c0.0022326-1.2116 0.076469-2.422 0.22159-3.6247l2.7886-23.107-0.0078144-23.772c0-0.56769 0.42867-1.0442 0.99521-1.1054l4.7517-0.51765c0.66478-0.072282 1.2436 0.44926 1.238 1.1148l-0.12447 14.747c-0.012838 1.5079 1.1833 2.7512 2.696 2.8018l25.255 0.85126c1.3497 0.045593 2.5386-0.8785 2.8227-2.194l3.2876-15.228c0.1295-0.60161 0.72562-0.98359 1.3296-0.85237l5.4131 1.1776c0.60059 0.13066 0.98182 0.72004 0.85344 1.3194l-4.5184 21.042c-0.16299 0.75896-0.16466 1.5429-0.0050235 2.3025l4.659 22.157 3.7325 17.099c0.45156 2.0667-0.91986 4.0906-3.013 4.447l-20.31 3.4556c-2.5112 0.42702-5.0671 0.53155-7.605 0.3097l-21.096-1.8432c-1.9274-0.16903-3.4043-1.7781-3.4004-3.7053" fill="#0080F6"/>
<path d="m42.836 85.828c-2.2835-3.8404-3.5516-8.1951-3.685-12.657l-0.61733-20.669-3.3535 0.3653c-0.56598 0.061718-0.99521 0.53822-0.99521 1.1059l0.0078144 23.772-2.7881 23.106c-0.14568 1.2032-0.21992 2.4137-0.22215 3.6252l-0.036289 16.874c-0.0038994 1.9266 1.473 3.5363 3.4004 3.7047l11.724 1.0247c0.31034-4.7534 1.204-9.4567 2.6669-14.004l1.4177-4.4059c1.2213-3.7965 0.75297-7.9316-1.2866-11.362l-6.2331-10.482z" fill="#0068C9"/>
<path d="m43.271 77.778 0.25285 11.525 10.516 6.7784 11.902-3.8398 0.56766-2.7617c0.0083726-0.040589 0.039072-0.066166 0.074795-0.080622l0.5911-9.7269c0.031258-0.50987-0.35611-0.94967-0.86739-0.98581l-5.1262-0.36475c-0.022885 0.011676-0.044654 0.027245-0.072562 0.026133l-17.839-0.56992z" fill="#0080F6"/>
<path d="m66.75 89.502c-5.582e-4 -0.055602-0.03963-0.10509-0.096563-0.11621-0.024559-0.0055602-0.046328 0.0038921-0.068097 0.012788-0.035723 0.014456-0.066422 0.040033-0.074795 0.080622l-0.56766 2.7617-11.902 3.8404-10.516-6.7789-0.25285-11.525 17.839 0.56992c0.027908 0.001112 0.049677-0.014456 0.072562-0.026133 0.048002-0.024465 0.086516-0.06283 0.090982-0.11954 0.006698-0.087294-0.059166-0.16347-0.14624-0.17014l-18.4-1.3906-0.029583-0.0018037c-0.30364-0.0065365-0.55538 0.23366-0.56208 0.53613l-5.582e-4 0.024465-0.27534 12.563c-0.0054192 0.2769 0.13301 0.5499 0.38753 0.70391l0.0050235 0.0027801 11.352 6.8634 0.01842 0.01112c0.15517 0.092854 0.34886 0.11788 0.53249 0.052821l12.326-4.3719 0.049119-0.017236c0.15238-0.05449 0.26066-0.20072 0.25847-0.37086l-0.039106-3.1343z" fill="#0068C9"/>
<path d="m75.701 67.571c-1.6968-0.25966-3.291 0.9063-3.5511 2.5977l-0.12168 0.78954c-0.12559 0.81957 0.076469 1.6386 0.56877 2.3069 0.49286 0.66777 1.2174 1.1054 2.0384 1.2305l0.030699 0.0044481c0.15908 0.024465 0.31704 0.036141 0.47333 0.036141 1.5115 0 2.8416-1.1009 3.0777-2.6338l0.12112-0.78898c0.26011-1.692-0.90981-3.2788-2.6373-3.5424" fill="#0068C9"/>
<path d="m77.372 72.909c-0.46886 0.34306-1.0231 0.52265-1.5941 0.52265-0.13731 0-0.27574-0.010008-0.41416-0.031137l-0.088749-0.0139c-1.473-0.22407-2.4878-1.6008-2.2623-3.0681l0.037397-0.24353c-0.023443 0.090074-0.0547 0.17792-0.069213 0.27134l-0.086516 0.5638c-0.2255 1.4668 0.78925 2.8435 2.2617 3.0675l0.088749 0.0139c0.13843 0.021128 0.27518 0.031137 0.41025 0.031137 1.3111 0 2.4654-0.95523 2.6703-2.2847l0.048561-0.31971c-0.15517 0.59605-0.49677 1.1209-1.0019 1.4907" fill="#D76230"/>
<path d="m76.209 67.9-0.089307-0.013344c-1.2559-0.19127-2.4414 0.67222-2.6346 1.9271l-0.086516 0.5638c-0.19313 1.2549 0.67538 2.4326 1.9352 2.6249l0.088749 0.013344c0.61231 0.092298 1.2207-0.056158 1.718-0.42035 0.49789-0.36419 0.8233-0.89963 0.91707-1.5074l0.086516-0.5638c0.093214-0.60772-0.056375-1.2154-0.42198-1.7114-0.3656-0.49597-0.90312-0.82012-1.5132-0.91298" fill="#D76230"/>
<path d="m78.144 70.525-0.086516 0.5638c-0.093772 0.60772-0.41918 1.1432-0.91651 1.5074-0.49733 0.36363-1.1063 0.51209-1.7186 0.42035l-0.088749-0.013344c-1.2598-0.19238-2.1283-1.37-1.9352-2.6249l0.086516-0.5638c0.19368-1.2549 1.3792-2.1184 2.6351-1.9277l0.088749 0.0139c0.61008 0.092854 1.1476 0.41701 1.5132 0.91298 0.3656 0.49541 0.51519 1.1037 0.42198 1.7114m-0.10717-1.9416c-0.42756-0.57992-1.0555-0.95857-1.7688-1.0675l-0.089307-0.013344c-0.71334-0.11009-1.4267 0.06561-2.0083 0.49096-0.58161 0.42591-0.96172 1.0514-1.0711 1.762l-0.049119 0.31971-0.037397 0.24409c-0.22606 1.4673 0.78925 2.8435 2.2617 3.0681l0.089307 0.013344c0.13843 0.021129 0.27685 0.031693 0.41416 0.031693 0.57101 0 1.1253-0.18015 1.5941-0.52265 0.50514-0.36975 0.84618-0.89518 1.0019-1.4907 0.024001-0.09063 0.055259-0.17792 0.069213-0.27134l0.086516-0.5638c0.1094-0.71059-0.065864-1.4212-0.49286-2.0005" fill="#ED985A"/>
<path d="m75.761 69.444c-0.014512 0.062274-0.0039072 0.12622 0.030141 0.1807 0.03349 0.054489 0.086516 0.092298 0.14903 0.10675 0.064189 0.015012 0.12726 0.0044481 0.18196-0.029469 0.0547-0.033361 0.092656-0.086182 0.10717-0.14846v-5.56e-4c0.01507-0.062274 0.0044653-0.12622-0.029583-0.1807-0.03349-0.054489-0.087074-0.092298-0.14959-0.10731-0.01842-0.0038921-0.036281-0.0061162-0.0547-0.0061162-0.10884 0-0.2082 0.074506-0.23443 0.18515" fill="#D76230"/>
<path d="m76.051 69.265c0.062515 0.014456 0.1161 0.052821 0.14959 0.10731 0.034048 0.05449 0.044654 0.11843 0.029583 0.1807v5.56e-4c-0.014512 0.061718-0.052468 0.1151-0.10717 0.14846-0.0547 0.033917-0.11833 0.044481-0.18196 0.029469-0.062515-0.014456-0.11554-0.052265-0.14903-0.10675-0.034048-0.05449-0.044654-0.11843-0.030141-0.1807 0.026234-0.11065 0.12559-0.18515 0.23443-0.18515 0.01842 0 0.036281 0.0022241 0.0547 0.0061162m-0.19871 0.84514c0.048002 0.011676 0.096563 0.017236 0.14512 0.017236 0.1161 0 0.22997-0.032249 0.33155-0.095079 0.14289-0.088406 0.24336-0.22685 0.28132-0.39032 0.079818-0.3375-0.13117-0.67667-0.46998-0.75562-0.33992-0.078954-0.67873 0.13178-0.75855 0.46872-0.038514 0.16347-0.010605 0.33194 0.078144 0.47484 0.088749 0.14234 0.22829 0.24242 0.39239 0.28023" fill="#ED985A"/>
<path d="m75.782 71.458c0.030141-0.12844-0.050235-0.25743-0.17917-0.28802-0.01842-0.0044481-0.036839-0.0061162-0.055259-0.0061162-0.10884 0-0.20764 0.074506-0.23387 0.1846-0.030699 0.12844 0.049677 0.25799 0.17917 0.28802 0.12726 0.031137 0.25899-0.049485 0.28913-0.17848" fill="#D76230"/>
<path d="m75.492 71.637c-0.12894-0.030581-0.20931-0.15958-0.17917-0.28802 0.026234-0.11009 0.12503-0.18515 0.23387-0.18515 0.01842 0 0.036839 0.0022241 0.055259 0.0066722 0.12894 0.030025 0.20931 0.15958 0.17917 0.28802-0.030141 0.129-0.16187 0.20962-0.28913 0.17848m0.19927-0.84514c-0.33937-0.080066-0.67873 0.13066-0.75855 0.46816-0.079818 0.3375 0.13117 0.67611 0.46998 0.75562 0.048002 0.01112 0.096563 0.01668 0.14401 0.01668 0.28634 0 0.54645-0.19572 0.61454-0.48484 0.07926-0.3375-0.13117-0.67611-0.46998-0.75562" fill="#ED985A"/>
<path d="m76.962 70.729c0.030141-0.12844-0.050235-0.25743-0.17973-0.28802-0.017861-0.0038921-0.036839-0.0061161-0.055259-0.0061161-0.044095 0-0.087632 0.012232-0.12615 0.036141-0.0547 0.033917-0.092656 0.086182-0.10717 0.14846-0.01507 0.06283-0.0044653 0.12677 0.029583 0.18126 0.03349 0.05449 0.087074 0.092298 0.14959 0.10731 0.061399 0.012788 0.1267 0.0033361 0.1814-0.029469 0.054701-0.033917 0.093214-0.087294 0.10773-0.14957" fill="#D76230"/>
<path d="m76.673 70.908c-0.062515-0.014456-0.1161-0.052821-0.14959-0.10731-0.034048-0.054489-0.044654-0.11843-0.029583-0.18126 0.014512-0.061718 0.052468-0.11454 0.10717-0.14846 0.038514-0.023909 0.082051-0.036141 0.12615-0.036141 0.01842 0 0.037397 0.002224 0.055259 0.0066722 0.1295 0.030025 0.20987 0.15902 0.17973 0.28746-0.014512 0.06283-0.053026 0.11565-0.10773 0.14957-0.054142 0.032805-0.12001 0.042257-0.1814 0.029469m0.19871-0.84514c-0.1641-0.038365-0.33323-0.011676-0.47668 0.077842-0.14289 0.088406-0.24336 0.22685-0.28132 0.39032-0.038514 0.16347-0.010605 0.33194 0.077585 0.47484 0.088749 0.1429 0.22829 0.24242 0.39239 0.28079 0.048002 0.01112 0.096563 0.01668 0.14401 0.01668 0.28634 0 0.54645-0.19572 0.61454-0.4854 0.07926-0.3375-0.13173-0.67611-0.47054-0.75507" fill="#ED985A"/>
<path d="m75.05 70.282c0.030141-0.12844-0.050235-0.25743-0.17973-0.28802-0.017861-0.0038921-0.036839-0.0061161-0.0547-0.0061161-0.044654 0-0.088191 0.012232-0.1267 0.036141-0.054701 0.033361-0.092656 0.086182-0.10717 0.14846-0.015071 0.06283-0.0044654 0.12677 0.029583 0.18126 0.034048 0.05449 0.087074 0.092298 0.14903 0.10675h5.581e-4c0.061399 0.015012 0.1267 0.0038921 0.1814-0.029469 0.054701-0.033361 0.093214-0.086738 0.10773-0.14901" fill="#D76230"/>
<path d="m74.761 70.461c-0.062515-0.014456-0.11554-0.052821-0.14959-0.10675-0.034048-0.055045-0.044654-0.11899-0.029583-0.18126 0.014512-0.062274 0.052468-0.1151 0.10717-0.14901 0.038514-0.023909 0.082609-0.036141 0.1267-0.036141 0.017861 0 0.036839 0.002224 0.0547 0.0066721 0.1295 0.030025 0.20987 0.15958 0.17973 0.28802-0.014512 0.062274-0.053026 0.1151-0.10773 0.14901-0.0547 0.033361-0.12001 0.043925-0.1814 0.029469m0.66924-0.090074c0.07926-0.33694-0.13173-0.67611-0.47054-0.75507-0.16354-0.038365-0.33323-0.010564-0.47668 0.077842-0.14289 0.088406-0.24336 0.22741-0.28132 0.39032-0.038514 0.16347-0.010605 0.33194 0.078144 0.47484s0.22773 0.24242 0.39183 0.28079c0.048561 0.01112 0.096563 0.01668 0.14457 0.01668 0.28578 0 0.54589-0.19572 0.61399-0.4854" fill="#ED985A"/>
<path d="m40.593 70.332-0.10828-0.79121c-0.11219-0.82123-0.53863-1.5496-1.2012-2.0517s-1.4814-0.7167-2.3354-0.60105c-1.7024 0.2313-2.8986 1.7982-2.6669 3.494l0.10828 0.79121c0.21266 1.5541 1.5523 2.685 3.0844 2.685 0.13898 0 0.2802-0.0094523 0.42142-0.028357l0.030699-0.0038921c1.7019-0.23075 2.8986-1.7982 2.6669-3.494" fill="#0068C9"/>
<path d="m40.65 70.144-0.044095-0.32193c0.020652 0.61606-0.1574 1.2166-0.53696 1.7136-0.02735 0.036141-0.061957 0.063942-0.090982 0.097859-0.43202 0.51265-1.0248 0.84903-1.6952 0.94022l-0.088749 0.012232c-0.12336 0.01668-0.24559 0.025021-0.36672 0.025021-0.64357 0-1.2453-0.23353-1.7186-0.62385-0.50403-0.4159-0.86237-1.0097-0.95726-1.7053l-0.03349-0.24298c0.0033491 0.092854-0.0022326 0.18515 0.010605 0.27856l0.077586 0.56491c0.097121 0.7117 0.46719 1.3439 1.0415 1.7792 0.475 0.35974 1.0432 0.5499 1.6304 0.5499 0.12224 0 0.24615-0.0088963 0.37007-0.025021l0.088749-0.012232c0.71501-0.097303 1.3497-0.46594 1.7867-1.0381 0.43649-0.57214 0.62347-1.2799 0.52635-1.9922" fill="#D76230"/>
<path d="m35.539 70.23c0.17192 1.2577 1.3368 2.1423 2.6022 1.9711l0.088749-0.012232c0.61175-0.08229 1.1549-0.39811 1.5288-0.8874 0.37341-0.48985 0.53361-1.0948 0.45044-1.7042l-0.077027-0.56491c-0.15796-1.1537-1.1521-1.9928-2.2896-1.9928-0.10326 0-0.20764 0.0066722-0.31313 0.021128l-0.088191 0.012232c-0.61231 0.082846-1.1554 0.39866-1.5288 0.88796-0.37397 0.48929-0.53417 1.0948-0.45044 1.7042l0.077027 0.56491z" fill="#D76230"/>
<path d="m37.843 67.039c1.1375 0 2.1316 0.83903 2.289 1.9922l0.077027 0.56547c0.083725 0.60884-0.076469 1.2143-0.45044 1.7042-0.37341 0.48929-0.91651 0.80455-1.5283 0.8874l-0.088749 0.012232c-1.2654 0.17125-2.4308-0.71337-2.6022-1.9711l-0.077586-0.56491c-0.083167-0.60939 0.077027-1.2149 0.451-1.7042 0.37341-0.48985 0.91651-0.80511 1.5283-0.88796l0.088749-0.012232c0.10494-0.014456 0.20987-0.021128 0.31313-0.021128m-1.7331 4.948c0.47277 0.39032 1.0745 0.62385 1.7186 0.62385 0.12056 0 0.24336-0.0083402 0.36616-0.024465l0.088749-0.012232c0.67036-0.091186 1.2631-0.42813 1.6957-0.94022 0.028467-0.034473 0.063073-0.062274 0.090423-0.097859 0.37955-0.49763 0.55761-1.0976 0.53752-1.7136-0.003349-0.092854 0.0022327-0.18515-0.010605-0.27856l-0.077585-0.56491c-0.20038-1.4707-1.5645-2.5043-3.042-2.3041l-0.088749 0.012232c-0.71501 0.096747-1.3497 0.46538-1.7867 1.0375-0.43649 0.5727-0.62347 1.2799-0.52635 1.9922l0.044095 0.32193 0.032932 0.24353c0.095447 0.69502 0.45323 1.2894 0.95782 1.7047" fill="#ED985A"/>
<path d="m37.539 68.667c0.0078143 0.13233 0.12391 0.23464 0.25397 0.22574 0.064189-0.0038921 0.1228-0.031693 0.16578-0.07951s0.064189-0.10953 0.06084-0.17292c-0.0039072-0.064498-0.032374-0.12288-0.080376-0.16569-0.044095-0.039477-0.10047-0.060606-0.15908-0.060606-0.0050235 0-0.0094889 0-0.014512 5.56e-4 -0.064189 0.0038921-0.1228 0.032249-0.16578 0.07951-0.042979 0.047817-0.064189 0.10898-0.06084 0.17292" fill="#D76230"/>
<path d="m37.78 68.415c0.058608 0 0.11498 0.021128 0.15964 0.060606 0.048002 0.042813 0.075911 0.10119 0.079818 0.16514s-0.017861 0.1251-0.06084 0.17292c-0.042421 0.047817-0.10159 0.076174-0.16578 0.080066-0.13005 0.0083403-0.24615-0.093966-0.25397-0.22574-0.003349-0.063942 0.01842-0.12566 0.06084-0.17292 0.042979-0.047817 0.10159-0.076174 0.16633-0.080066h0.013954m-0.0011163 0.86794c0.01228 0 0.024001 0 0.036281-0.001112 0.16801-0.0094522 0.32262-0.083402 0.43481-0.20906 0.11219-0.1251 0.16913-0.28635 0.15908-0.45426-0.0094889-0.16736-0.083725-0.32138-0.20987-0.43314-0.12615-0.11232-0.28913-0.16903-0.45547-0.15846-0.16857 0.0094523-0.32318 0.083958-0.43537 0.20906-0.11219 0.1251-0.16857 0.28635-0.15908 0.45426 0.019536 0.33361 0.29806 0.59271 0.62961 0.59271" fill="#ED985A"/>
<path d="m38.131 70.594c-0.0039072-0.063942-0.032374-0.12232-0.080376-0.16514-0.044095-0.039477-0.10047-0.060606-0.15964-0.060606h-0.013954c-0.064189 0.0038921-0.1228 0.032249-0.16578 0.080066-0.042979 0.047261-0.064189 0.10898-0.06084 0.17292 0.0078144 0.13178 0.12838 0.23241 0.25397 0.22574 0.064189-0.0038921 0.1228-0.032249 0.16578-0.080066 0.042979-0.047261 0.064189-0.10898 0.06084-0.17292" fill="#D76230"/>
<path d="m37.651 70.621c-0.003349-0.063942 0.017861-0.12566 0.06084-0.17292 0.042979-0.047817 0.10159-0.076174 0.16578-0.080066h0.013954c0.059166 0 0.11554 0.021128 0.15964 0.060606 0.048003 0.042813 0.076469 0.10119 0.080376 0.16514 0.003349 0.063942-0.017861 0.12566-0.06084 0.17292-0.042979 0.047817-0.10159 0.076174-0.16578 0.080066-0.12615 0.0066721-0.24615-0.093967-0.25397-0.22574m0.20429-0.64109c-0.16801 0.0094523-0.32262 0.083958-0.43481 0.20906s-0.16857 0.28635-0.15908 0.45426c0.018978 0.33416 0.29806 0.59271 0.62961 0.59271 0.011722 0 0.024001-5.56e-4 0.036281-0.001112 0.16801-0.0094522 0.32262-0.083402 0.43481-0.20851 0.11219-0.12566 0.16857-0.2869 0.15908-0.45482-0.0094888-0.16736-0.083725-0.32138-0.20987-0.43314-0.12559-0.11176-0.28913-0.17125-0.45602-0.15846" fill="#ED985A"/>
<path d="m39.056 69.562c-0.0039072-0.063942-0.032374-0.12288-0.080376-0.16514-0.044095-0.040033-0.10047-0.061162-0.15908-0.061162-0.0044654 0-0.0094889 0-0.013954 5.561e-4 -0.064189 0.0038921-0.12336 0.031693-0.16578 0.07951-0.042979 0.047817-0.064748 0.10953-0.06084 0.17292 0.003349 0.064498 0.031816 0.12288 0.079818 0.16569 0.048002 0.042813 0.11163 0.066722 0.17359 0.060606 0.064189-0.0038921 0.12336-0.032249 0.16633-0.080066 0.042421-0.047817 0.063631-0.10898 0.060282-0.17292" fill="#D76230"/>
<path d="m38.656 69.754c-0.048002-0.042813-0.076469-0.10119-0.080376-0.16514-0.003349-0.063942 0.01842-0.1251 0.06084-0.17292 0.042979-0.047817 0.10159-0.076174 0.16633-0.080066h0.013954c0.058608 0 0.11498 0.021128 0.15908 0.060606 0.048002 0.042813 0.076469 0.10119 0.080376 0.16514 0.0033491 0.063942-0.017861 0.1251-0.06084 0.17292-0.042421 0.047817-0.10159 0.076174-0.16578 0.080066-0.061957 0.0066722-0.12559-0.017792-0.17359-0.060606m0.5805-0.64776c-0.12615-0.11176-0.28969-0.17125-0.45602-0.15846-0.16857 0.0094523-0.32262 0.083402-0.43537 0.20906-0.11219 0.1251-0.16857 0.28635-0.15908 0.45426 0.0094889 0.16736 0.084284 0.32138 0.20987 0.43314 0.11666 0.10342 0.26457 0.15958 0.41918 0.15958 0.01228 0 0.024559 0 0.036839-0.001112 0.16857-0.0094523 0.32262-0.083958 0.43481-0.20906 0.11275-0.1251 0.16913-0.28635 0.15908-0.45426-0.0094889-0.16736-0.083725-0.32138-0.20931-0.43314" fill="#ED985A"/>
<path d="m37.095 69.673c-0.0039071-0.063942-0.032374-0.12288-0.080376-0.16514-0.044095-0.040033-0.10047-0.061162-0.15964-0.061162-0.0044653 0-0.0089307 0-0.013954 5.56e-4 -0.063631 0.0038921-0.1228 0.031693-0.16522 0.07951-0.042979 0.047817-0.064748 0.10954-0.06084 0.17292 0.003349 0.064498 0.031816 0.12288 0.079818 0.16569 0.048002 0.042257 0.11052 0.064498 0.17359 0.060606 0.13284-0.0077842 0.23387-0.12121 0.22662-0.25299" fill="#D76230"/>
<path d="m36.695 69.865c-0.048002-0.042813-0.076469-0.10119-0.080376-0.16514-0.003349-0.063942 0.01842-0.1251 0.06084-0.17292 0.042979-0.047817 0.10159-0.076174 0.16578-0.080066h0.013954c0.059166 0 0.11554 0.021129 0.15964 0.060606 0.048002 0.042813 0.076469 0.10119 0.080376 0.16514 0.0072562 0.13233-0.09433 0.2452-0.22662 0.25299-0.063073 0.0044481-0.12559-0.017792-0.17359-0.060606m0.78981-0.21462c-0.0094889-0.16736-0.083725-0.32138-0.20931-0.43314-0.12615-0.11176-0.28578-0.16903-0.45658-0.15846-0.16801 0.0094522-0.32206 0.083402-0.43481 0.20906-0.11219 0.1251-0.16857 0.28635-0.15908 0.45426 0.0094888 0.16736 0.084283 0.32138 0.20987 0.43314 0.11666 0.10342 0.26401 0.15958 0.41918 0.15958 0.01228 0 0.024559 0 0.036839-0.0011121 0.16801-0.0094522 0.32262-0.083402 0.43481-0.20906 0.11219-0.1251 0.16857-0.28635 0.15908-0.45426" fill="#ED985A"/>
<path d="m93.116 222.59 1.9681 6.9085c0.28132 0.98859 0.24559 2.04-0.10214 3.0075-0.31202 0.8685-0.45826 1.787-0.43035 2.7083l0.14847 4.9396 16.706 0.078398-0.51575-4.3086c-0.15629-1.305-0.79651-2.5048-1.7951-3.3639l-1.2899-1.1104c-0.91316-0.78565-1.5065-1.8766-1.6689-3.0675l-0.78758-5.792h-12.233z" fill="#0097B8"/>
<g transform="translate(92 223)">
<mask id="g" fill="white">
<use xlink:href="#c"/>
</mask>
<path d="m12.484-5.2856c-0.0027466 1.2185 0.042297 2.8954 0.06427 3.6233 0.0071412 0.24053-0.041199 0.47595-0.14062 0.69322l-3.0004 6.5488-3.5645 7.6334c-0.65369 1.4001-2.0248 2.2913-3.5305 2.2947l-7.7157 0.017589c-0.85144 0.0016989-1.5271-0.74201-1.4705-1.6196l0.52899-8.2274c0.018127-0.28421 0.11316-0.55708 0.27466-0.78796l8.1469-11.675c0.29993-0.42944 0.79431-0.66656 1.3052-0.62628l7.7437 0.61153c0.7674 0.060132 1.3601 0.71875 1.3585 1.5135" fill="#00547A" mask="url(#g)"/>
<mask id="f" fill="white">
<use xlink:href="#b"/>
</mask>
<path d="m2.4138 10.968c-0.10876 1.1136-0.46747 1.9878-0.8009 1.9532-0.33344-0.034604-0.51581-0.96552-0.40704-2.0791 0.10876-1.1136 0.46692-1.9883 0.8009-1.9532 0.33344 0.034604 0.51581 0.96552 0.40704 2.0791" fill="#0097B8" mask="url(#f)"/>
</g>
<g transform="translate(93 233)" fill="#EAFBFF">
<path d="m0.94911 5.5947 0.014467 0.46473 15.959 0.070618-0.10906-0.88273c-0.18863-1.5308-1.2052-2.8642-2.6937-3.5325l-2.1011-0.94296c-2.6837-1.2047-5.8514-0.98762-8.3181 0.56962l-0.63934 0.40346c-1.3638 0.86144-2.1606 2.3138-2.1122 3.8497"/>
<path d="m17.079 10h-16.157c-0.50913 0-0.92145-0.38477-0.92145-0.85988v-1.4892c0-0.47512 0.41232-0.85988 0.92145-0.85988h16.157c0.50913 0 0.92145 0.38477 0.92145 0.85988v1.4892c0 0.47512-0.41232 0.85988-0.92145 0.85988"/>
</g>
<g transform="translate(94 232)">
<mask id="e" fill="white">
<use xlink:href="#a"/>
</mask>
<path d="m11.949-15.874c-0.0027865 1.2736 0.042912 3.0263 0.065204 3.787 0.007245 0.2514-0.041798 0.49746-0.14267 0.72455l-3.044 6.8447-3.6163 7.9783c-0.66319 1.4633-2.0542 2.3948-3.5818 2.3984l-7.8279 0.018384c-0.86382 0.0017757-1.5493-0.77554-1.4919-1.6928l0.53668-8.5991c0.018391-0.29705 0.1148-0.58225 0.27865-0.82356l8.2654-12.202c0.30429-0.44884 0.80586-0.69668 1.3242-0.65458l7.8563 0.63917c0.77855 0.062849 1.3799 0.75123 1.3782 1.5819" fill="#ACEDFB" mask="url(#e)"/>
</g>
<g transform="translate(0 20)">
<path d="m66.48 14.954h-0.18848c-3.0128 0-5.4547-2.453-5.4547-5.4789v-3.6987c0-3.0253 2.4419-5.4784 5.4547-5.4784h0.18848c3.0128 0 5.4553 2.453 5.4553 5.4784v3.6987c0 3.0259-2.4424 5.4789-5.4553 5.4789" fill="#fff" opacity=".34995"/>
<path d="m49.81 0.29826h0.18848c3.0128 0 5.4547 2.453 5.4547 5.4789v3.6987c0 3.0253-2.4419 5.4784-5.4547 5.4784h-0.18848c-3.0128 0-5.4553-2.453-5.4553-5.4784v-3.6987c0-3.0259 2.4424-5.4789 5.4553-5.4789" fill="#fff" opacity=".35156"/>
<path d="m71.638 9.4757c0 2.8566-2.3142 5.1808-5.1585 5.1808h-0.18792c-2.8443 0-5.1579-2.3242-5.1579-5.1808v-3.6987c0-2.8566 2.3137-5.1803 5.1579-5.1803h0.18792c2.8443 0 5.1585 2.3237 5.1585 5.1803v0.11213 2.0162 1.5704zm-16.481 0c0 2.8566-2.3137 5.1808-5.1579 5.1808h-0.18848c-2.8443 0-5.1585-2.3242-5.1585-5.1808v-1.3056-2.0156-0.37747c0-2.8566 2.3142-5.1803 5.1585-5.1803h0.18848c2.8443 0 5.1579 2.3237 5.1579 5.1803v3.6987zm18.843-3.133h-0.92082v-0.010547c0-0.40856-0.33108-0.74163-0.73843-0.74163h-0.11773c-0.098936-3.0986-2.6337-5.5905-5.7433-5.5905h-0.18792c-3.172 0-5.7526 2.5918-5.7526 5.777v0.82711c-1.4531-0.94757-3.3273-0.95812-4.7882 0.0016653v-0.82878c0-3.1852-2.5806-5.777-5.7521-5.777h-0.18848c-3.172 0-5.7526 2.5918-5.7526 5.777v0.078826h-0.10833c-0.38137 0-0.68481 0.29532-0.7235 0.6678h-0.98991c0.055824 0.44631 0.050297 0.86153 0.024319 1.1935h0.95067v0.010547c0 0.40856 0.33108 0.74107 0.73843 0.74107h0.10833v1.007c0 3.1858 2.5806 5.7776 5.7526 5.7776h0.18848c3.1715 0 5.7521-2.5918 5.7521-5.7776v-2.1566c5.528e-4 -5.5511e-4 0.0011055 0 0.0011055-5.5511e-4l0.25812-0.17652c1.3436-0.92093 3.1206-0.88151 4.4223 0.098254l0.095067 0.071054c0.003869 0.0027756 0.0082907 0.0027756 0.011607 0.0055511v2.1588c0 3.1858 2.5806 5.7776 5.7526 5.7776h0.18792c3.172 0 5.7526-2.5918 5.7526-5.7776v-1.2723h0.10833c0.38137 0 0.68537-0.29476 0.7235-0.6678h0.87163c-0.016582-0.34472-0.0060799-0.7605 0.064115-1.1929z" fill="#DB594A"/>
<path d="m1.9161 68.16c6.8166 6.6608 18.955 18.493 22.976 22.413 0.74948 0.73052 1.9345 0.73885 2.6978 0.022759l0.88213-0.82711c1.1585-1.0863 1.3597-2.8571 0.47478-4.1778l-17.2-25.682c-2.17-3.2391-6.7061-3.7692-9.5581-1.1174-0.053061 0.04885-0.10557 0.097699-0.15752 0.14655-2.6613 2.4741-2.7138 6.6824-0.11441 9.222" fill="#EACBAC"/>
<path d="m26.377 84.663c0.36424 0.43743 1.001 0.52125 1.4647 0.19318l0.41619-0.29365-15.583-23.266-2.3822 1.2945c-0.81249 0.44131-1.0181 1.5199-0.42614 2.2321l16.51 19.84z" fill="#E99462"/>
<path d="m26.021 90.855-4.959-4.0157c1.5879 1.5482 2.9189 2.8455 3.8303 3.7337 0.41675 0.4069 0.96891 0.5812 1.5084 0.53957-0.13155-0.07716-0.25978-0.16043-0.37971-0.25757" fill="#E99462"/>
<path d="m32.029 90.026c-0.81194 0.56455-0.25314 2.5513-2.1152 2.9215-0.14592 0.028866-0.31007 0.044964-0.4886 0.050515-3.0924 0.088262-5.4929-2.715-5.1342-5.8009l0.017687-0.14988c0.15587-1.3389 0.92082-2.5407 2.0887-3.2052 0.72461-0.41245 1.478-0.96256 1.8638-1.6154 0.87329-1.4766 1.688-2.3531 2.8078-2.8061-0.025978-0.02609-0.040348 0.5107-0.040348 0.5107s1.6134-1.3067 2.0572-1.5349c2.2075-1.1363 3.1245 1.546 5.3995 1.9845 0.43001 0.082711 0.71079 0.71942 0.52839 0.92259-0.59693 0.66558-1.5166 0.41578-1.5166 0.41578l0.69642 2.2676c0.099489 0.32363 0.080144 0.67168-0.053613 0.98254l-2.228 5.172s-0.67376 1.0358-1.3094 0.85376c-0.47312-0.136-0.60854-0.6739-1.0341-0.92315-0.2758-0.16154-1.2403-0.25368-1.5393-0.046074" fill="#EACBAC"/>
<path d="m27.842 84.856 0.85007-0.60063c0.47368-0.33473 0.83847-0.80102 1.0502-1.3423l1.2873-3.2896v-0.1843c-1.0988 0.45741-1.9058 1.3284-2.768 2.7872-0.38579 0.65281-1.1391 1.2029-1.8638 1.6154-0.15918 0.089928-0.30897 0.19262-0.45267 0.30198l0.43222 0.51903c0.36369 0.43687 1.001 0.52125 1.4647 0.19318" fill="#E99462"/>
<path d="m34.171 89.695-0.48197-0.64948c-0.30565-0.37692-0.75556-0.60618-1.2386-0.6306l-0.86831-0.044409c-0.7832-0.040523-1.4713 0.51625-1.599 1.2928l-0.075169 0.46074c-0.11441 0.69333-0.65607 1.2362-1.3464 1.3489l-0.1332 0.022204c-0.85615 0.13989-1.7317-0.092703-2.4071-0.63949l-1.3978-1.1319c0.7528 1.929 2.5989 3.3368 4.8025 3.274 0.17853-0.004996 0.34324-0.021094 0.48915-0.04996 1.8615-0.37081 1.3033-2.3575 2.1147-2.9215 0.29902-0.20761 1.2635-0.11546 1.5393 0.046074 0.42559 0.24924 0.561 0.78715 1.0341 0.92259 0.63562 0.18263 1.3094-0.85376 1.3094-0.85376l0.54-1.2529-0.90314 0.90705c-0.39409 0.39579-1.0457 0.34805-1.3785-0.10047" fill="#E99462"/>
</g>
</g>
</g>
</svg>
