<svg viewBox="0 0 420 420" xmlns="http://www.w3.org/2000/svg" xmlns:xlink="http://www.w3.org/1999/xlink"><defs><path id="a" d="M0 0h16.505v22.556H0z"/><path id="c" d="m0 0 1.937 7.048a5.186 5.186 0 0 1-.101 3.069 7.735 7.735 0 0 0-.423 2.763l.145 5.04L18 18l-.507-4.396a5.433 5.433 0 0 0-1.767-3.433l-1.27-1.132a5.076 5.076 0 0 1-1.642-3.13L12.04 0"/><path id="e" d="m0 0 1.937 7.048a5.186 5.186 0 0 1-.101 3.069 7.735 7.735 0 0 0-.423 2.763l.145 5.04L18 18l-.507-4.396a5.433 5.433 0 0 0-1.767-3.433l-1.27-1.132a5.076 5.076 0 0 1-1.642-3.13L12.04 0"/><path id="g" d="m2.758 1.532-.64.46C.752 2.977-.046 4.636.002 6.39l.015.53L16 7l-.109-1.008c-.188-1.748-1.207-3.27-2.697-4.034L11.09.882A7.954 7.954 0 0 0 7.456 0a8.029 8.029 0 0 0-4.698 1.532"/></defs><g fill="none" fill-rule="evenodd"><path d="M211.247 190.682c0 3.968-3.229 7.185-7.213 7.185-3.983 0-7.213-3.217-7.213-7.185s3.23-7.185 7.213-7.185c3.984 0 7.213 3.217 7.213 7.185" fill="#0297B8"/><path d="M221.734 206.024c-2.433 6.176-9.432 9.218-15.632 6.794-6.2-2.424-9.253-9.396-6.82-15.572 2.433-6.176 9.432-9.218 15.632-6.794s9.253 9.396 6.82 15.573M188.124 200.105c0 6.635-5.4 12.013-12.06 12.013s-12.06-5.378-12.06-12.013 5.4-12.013 12.06-12.013 12.06 5.378 12.06 12.013" fill="#00547A"/><path d="M188.11 190.682c0 3.968-3.229 7.185-7.213 7.185-3.983 0-7.212-3.217-7.212-7.185s3.229-7.185 7.212-7.185c3.984 0 7.213 3.217 7.213 7.185" fill="#00547A"/><path d="M214.914 190.452a12.077 12.077 0 0 0-10.28.69c-1.637 3.175.352 7.612 4.56 10.033 4.305 2.475 9.291 1.9 11.138-1.286.812-1.403.88-3.077.335-4.723a11.99 11.99 0 0 0-5.753-4.714" fill="#0297B8"/><path d="m176.648 211.863.855 1.155a6.412 6.412 0 0 1-1.484 9.072l-30.856 21.61c-2.912 2.04-6.932 1.344-8.984-1.554a6.412 6.412 0 0 1 1.363-8.818l30.001-22.764c2.867-2.175 6.967-1.59 9.104 1.3" fill="#EACBAC"/><path d="M176.02 222.089a6.412 6.412 0 0 0 1.483-9.072l-.854-1.155c-2.138-2.89-6.238-3.474-9.105-1.3L148 225.393l2.089 7.34a2.473 2.473 0 0 1-1.21 2.854l-3.956 2.132a1.004 1.004 0 0 0-.276 1.55l2.622 2.956 28.751-20.135z" fill="#E99462"/><path d="M176.73 211.997c3.212 4.188 2.434 10.171-1.743 13.406l-16.365 12.673a1.156 1.156 0 0 1-1.478-.048c-.867-.771-2.502-2.63-5.326-7.114-2.975-4.723-3.902-6.993-4.178-8.035-.118-.448.05-.921.421-1.203l15.18-11.494c4.23-3.202 10.264-2.39 13.49 1.815" fill="#ED985A"/><path d="m167.317 217.605-6.38 8.634a7.94 7.94 0 0 1-10.097 2.289l-.687-.364c.468.81 1.015 1.719 1.666 2.75 2.823 4.484 4.459 6.343 5.325 7.115.417.37 1.037.389 1.478.047l16.252-12.585-.622-9.452-.508-3.31a37.486 37.486 0 0 1-2.26-.102l-4.167 4.979z" fill="#D76230"/><path d="m163.241 210.183-.972.736c2.889.83 5.99 1.466 9.214 1.708.747.056 1.5.091 2.26.103a34.642 34.642 0 0 0 3.41-.118 9.659 9.659 0 0 0-.423-.615c-3.225-4.205-9.26-5.017-13.49-1.814" fill="#D76230"/><path d="M174.675 269.47a9.217 9.217 0 0 1-7.693-9.089v-8.504l-.496-21.764-4.985-8.043c-3.508-5.663-.017-13.05 6.6-13.962l24.07-3.321a9.289 9.289 0 0 1 2.967.092l23.434 5.047c6.273 1.352 9.29 8.504 5.869 13.913l-6.105 9.653-1.664 19.664c-.07.832-.028 1.67.129 2.49l.596 3.137c.983 5.174-2.57 10.124-7.805 10.847-4.054.56-9.684.998-17.38.998-8.126 0-13.723-.518-17.537-1.158" fill="#ED985A"/><path d="m218.336 233.49 2.374-3.753a13.96 13.96 0 0 1-.855-1.534l-2.763-5.884-5.943-13.994-1.79-.385-4.025 14.673a2.95 2.95 0 0 1-2.991 2.161l-22.142-1.076a2.172 2.172 0 0 1-2.065-2.02l-.613-9.096a34.445 34.445 0 0 1-3.78.148 37.486 37.486 0 0 1-2.26-.103 41.962 41.962 0 0 1-4.33-.557l.164 5.535-4.667 6.316 3.836 6.19.154 6.766.343 14.998v8.504a9.219 9.219 0 0 0 7.693 9.09c3.814.64 9.41 1.156 17.538 1.156 7.694 0 13.325-.437 17.379-.997 5.235-.722 8.788-5.673 7.804-10.847l-.596-3.138a9.173 9.173 0 0 1-.129-2.49l1.664-19.662z" fill="#D76230"/><path d="M173.744 212.73a34.462 34.462 0 0 0 3.78-.147 31.137 31.137 0 0 0 12.827-4.11 24.18 24.18 0 0 0 4.752-3.602 9.295 9.295 0 0 0-2.932-.086l-24.07 3.32a9.152 9.152 0 0 0-5.55 2.896 49.84 49.84 0 0 0 4.602 1.069c1.413.256 2.859.447 4.33.557.747.056 1.5.092 2.26.103" fill="#D76230"/><path d="m224.279 363.25 8.264 20.073a3.772 3.772 0 0 0 3.49 2.332c2.372 0 4.155-2.154 3.704-4.473l-4.147-21.3a5.926 5.926 0 0 0-5.823-4.783c-4.219 0-7.089 4.263-5.488 8.151" fill="#ED985A"/><path d="M235.59 359.89a5.926 5.926 0 0 0-5.823-4.784c-4.219 0-7.09 4.263-5.488 8.151l3.44 8.36 9.061-5.615-1.19-6.112z" fill="#D76230"/><path d="m223.972 359.76 11.632.19-.013-.064a5.88 5.88 0 0 0-.327-1.092l-10.908-.18a5.93 5.93 0 0 0-.384 1.146M236.07 362.37l-12.064.05c.07.278.155.555.268.83l.132.32 11.888-.05-.224-1.15zM236.99 367.09l-.22-1.14-11.254.31.469 1.14zM237.69 370.66l-.22-1.15-10.378.57.464 1.13zM238.38 374.22l-.22-1.14-9.497.82.46 1.12zM239.07 377.77l-.22-1.13-8.62 1.07.454 1.1zM239.76 381.32c-.007-.045-.01-.09-.018-.135l-.195-.997-7.753 1.308.45 1.092 7.516-1.268z" fill="#DB594A"/><path d="m176.697 361.32 2.834 20.766a3.918 3.918 0 0 0 3.579 3.371 3.92 3.92 0 0 0 4.224-3.606l1.572-20.898c.253-3.359-2.267-6.289-5.638-6.555-3.906-.309-7.099 3.055-6.571 6.922" fill="#ED985A"/><path d="M183.268 354.4c-3.905-.309-7.099 3.055-6.57 6.922l1.545 11.328 10.261-6.359.402-5.336c.252-3.358-2.268-6.289-5.638-6.555" fill="#D76230"/><path d="m176.967 358.53 11.93 1.47a6.028 6.028 0 0 0-.216-1.186l-11.209-1.382a6.044 6.044 0 0 0-.505 1.098M188.787 362.54l-12.098-1.322c.004.035.003.068.008.103l.147 1.072 11.857 1.296.086-1.149zM188.51 366.22l-11.288-1.06.16 1.18 11.042 1.03zM188.234 369.9l-10.473-.79.159 1.17 10.227.77zM187.957 373.58l-9.658-.52.159 1.16 9.413.51zM187.68 377.26l-8.843-.26.158 1.15 8.599.26zM179.374 380.93l.157 1.151h7.773c.012-.077.025-.155.03-.234l.07-.917h-8.03z" fill="#DB594A"/><path d="m175.976 383.86-4.207 2.126a6.999 6.999 0 0 1-2.618.73l-3.373.258a5.945 5.945 0 0 0-5.097 3.783l-1.035 2.683h30.42l-.042-4.025a3.937 3.937 0 0 0-.25-1.343l-1.354-3.602a3.126 3.126 0 0 1-.197-1.2l.221-6.688H177.17l.503 4.11a3.125 3.125 0 0 1-1.697 3.168" fill="#0097B8"/><path d="M164.136 391.04h7.546c1.77 0 3.469-.7 4.721-1.948l5.303-5.281a3.367 3.367 0 0 0 .994-2.434c-.017-1.233-.039-3.082-.048-4.79h-5.483l.503 4.11a3.123 3.123 0 0 1-1.697 3.168l-4.207 2.126a6.995 6.995 0 0 1-2.617.73l-3.374.258a5.942 5.942 0 0 0-4.522 2.69 3.705 3.705 0 0 0 2.88 1.37" fill="#00547A"/><path d="m170.474 392.67-.546-1.835a6.667 6.667 0 0 0-2.104-3.202 2.845 2.845 0 0 0-2.046-.657 5.946 5.946 0 0 0-5.098 3.783l-.736 1.911h10.53zM187.339 387.64a1.99 1.99 0 0 1-1.994 1.986c-1.101 0-1.994-.889-1.994-1.986s.893-1.986 1.994-1.986c1.1 0 1.994.889 1.994 1.986M189.86 397h-30.207a1.305 1.305 0 0 1-1.308-1.303v-.951c0-.72.585-1.303 1.308-1.303h30.207c.722 0 1.308.584 1.308 1.303v.951c0 .72-.586 1.303-1.308 1.303" fill="#EAFBFF"/><path d="m170.474 392.67-.546-1.835a6.667 6.667 0 0 0-2.104-3.202 2.845 2.845 0 0 0-2.046-.657 5.946 5.946 0 0 0-5.098 3.783l-.736 1.911h10.53z" fill="#EAFBFF"/><path d="M169.928 390.84a6.665 6.665 0 0 0-2.104-3.203 2.846 2.846 0 0 0-2.047-.657 5.942 5.942 0 0 0-4.079 2.094 5.218 5.218 0 0 0 4.087 1.967h4.203l-.06-.2z" fill="#ACEDFB"/><path d="M246.09 246.046c2.378-8.39 6.023-21.483 7.551-26.985a2.964 2.964 0 0 0-1.78-3.552 2.988 2.988 0 0 0-3.628 1.194l-14.956 23.945c-2.283 3.657-.686 8.48 3.334 10.066 4.034 1.59 8.3-.51 9.48-4.668" fill="#EACBAC"/><path d="m238.64 239.989 10.46-20.504a2.482 2.482 0 0 0-.207-2.806l-.327-.41a3.004 3.004 0 0 0-.332.434l-9.582 15.342c.011 3.447-.012 7.944-.012 7.944M242.6 247.414a6.798 6.798 0 0 1-4.973-1.44l-1.473-1.174a6.161 6.161 0 0 1-2.314-5.05l-.56.899c-2.285 3.656-.687 8.48 3.333 10.065 3.683 1.452 7.553-.18 9.096-3.639l-3.109.339z" fill="#E99462"/><g transform="translate(245.5 199.367)"><mask id="b" fill="#fff"><use xlink:href="#a"/></mask><path d="M15.022 10.24c-1.47 2.271-2.481 3.923-4.268 6.12-.367.453-1.78 2.749-2.93 4.644A3.236 3.236 0 0 1 3.51 22.16a3.21 3.21 0 0 1-1.6-3.54c.256-1.107.355-2.368-.195-3.143-.446-.63-1.085-2.104-1.16-3.839-.07-1.65-.998-4.22-.293-5.21.158-.223.244-.321.518-.34 1.166-.075.921 2.372 2.354 2.26.502-.04.91-.42 1.072-.894a71.076 71.076 0 0 1 2.78-6.95c.185-.4.664-.625 1.065-.438.311.144.336.443.346.717.034.896-.825 3.76-.11 4.108.954.465 1.482-.75 2.04-1.423.563-.68 1.917-2.767 2.852-2.358.935.41-.792 3.668-.792 3.668s1.136-1.399 1.758-1.816c.537-.36 1.204-.371 1.525.086.223.32-.147.901-.325 1.358-.431 1.101-1.18 2.255-1.38 3.42-.051.295.617-.182.923-.447.552-.477 1.203-.96 1.56-.398.306.48-.723 2.17-1.427 3.258" fill="#EACBAC" mask="url(#b)"/></g><path d="M252.48 199.872a71.076 71.076 0 0 0-2.78 6.95c-.162.475-.57.855-1.071.894a.992.992 0 0 1-.373-.042l.386.228c.266.157.463.409.55.704.137.454.782.452.915-.002l2.658-9.073a.882.882 0 0 0-.285.341M249.54 215.957l-.01-.01a7.388 7.388 0 0 1-1.882-3.723l-1.062-5.772c-.03-.3.023-.595.145-.86a.66.66 0 0 0-.453-.135c-.273.017-.36.116-.518.338-.705.991.222 3.56.293 5.212.074 1.733.715 3.209 1.16 3.838.55.776.451 2.036.196 3.144a3.196 3.196 0 0 0 .904 3.017l1.526-2.979c.35-.683.23-1.513-.299-2.07M254.07 211.923c.3-.12.628-.137.994-.182l.04-.005a.251.251 0 0 0 .07-.48c-.382-.17-.828-.28-1.278-.222a2.85 2.85 0 0 0-1.257.44 3.458 3.458 0 0 0-.935.881c-.243.348-.432.709-.522 1.143-.02.1.009.211.088.288.124.122.324.12.446-.004l.024-.024.742-.751c.242-.242.493-.457.75-.65.26-.19.539-.324.838-.434" fill="#E99462"/><path d="M212.465 214.07a7.524 7.524 0 0 0-.605 10.786l22.198 24.107a7.092 7.092 0 0 0 9.967.454 7.026 7.026 0 0 0 .6-9.818l-21.45-24.77c-2.74-3.166-7.545-3.506-10.71-.759" fill="#EACBAC"/><path d="M234.058 248.962c2.14 2.324 5.486 2.891 8.21 1.62l-2.215-.292a6.305 6.305 0 0 1-3.712-1.868l-1.785-1.846a10.57 10.57 0 0 1-2.704-4.992l-1.976-8.663-7.137 3.749 11.319 12.292zM238.64 238.902c-.001.272.367.358.491.115l1.85-3.626-2.332-2.694c.004 2.257-.003 4.797-.009 6.205" fill="#E99462"/><path d="M210.641 212.182a9.574 9.574 0 0 0-.974 13.483l13.502 15.668c.364.422.976.527 1.458.246 1.003-.584 2.978-2.081 6.642-5.914 3.86-4.038 5.222-6.078 5.7-7.044a1.141 1.141 0 0 0-.17-1.263l-12.577-14.277c-3.504-3.978-9.58-4.38-13.58-.9" fill="#ED985A"/><path d="M223.169 241.334c.364.422.976.527 1.458.246.878-.51 2.5-1.72 5.345-4.583a7.185 7.185 0 0 1-4.8-2.194l-1.329-1.383a26.369 26.369 0 0 1-4.855-7.063l-1.896-4.038-4.797-11.293a9.573 9.573 0 0 0-2.628 14.64l13.502 15.668z" fill="#D76230"/><path d="M193.47 189.329a7.514 7.514 0 0 0-7.439 6.455c-.278 1.934-.732 3.911-1.37 5.723-1.166 3.307-4.585 4.975-4.585 4.975s.178 6.837 12.641 6.837 13.782-5.894 13.782-5.894-5.555-2.886-5.652-9.895l-.043-3.13c-.036-2.808-3.31-5.071-7.334-5.071" fill="#EACBAC"/><path d="m200.829 196.23-.025-1.83c-.036-2.808-3.309-5.071-7.334-5.071a7.514 7.514 0 0 0-7.439 6.455c-.278 1.934-.732 3.911-1.37 5.724-1.165 3.306-4.585 4.973-4.585 4.973s.079 2.888 3.555 4.91a31.278 31.278 0 0 0 6.72-2.919c5.998-3.48 9-8.518 10.478-12.242" fill="#E99462"/><path d="M178.278 184.268c.53 3.127.03 5.333-1.884 5.884-2.232.643-4.052-2.261-4.576-4.701-.954-4.442.813-7.126 2.64-6.944 3.44.343 3.402 3.3 3.82 5.761M209.075 184.268c-.53 3.127-.03 5.333 1.884 5.884 2.232.643 4.052-2.261 4.576-4.701.954-4.442-.813-7.126-2.64-6.944-3.44.343-3.402 3.3-3.82 5.761" fill="#EACBAC"/><path d="M174.458 178.507c-1.737-.173-3.415 2.25-2.755 6.31.135-.105.25-.377.316-.877.22-1.664 1.352-2.554 2.1-2.581 2.228-.08 4.294 3.602 2.28 7.161-.474.837-.648 1.472-.443 1.712.144-.012.29-.037.438-.08 1.915-.551 2.415-2.758 1.885-5.884-.418-2.46-.38-5.418-3.821-5.76M213.209 178.507a1.726 1.726 0 0 0-.313 0c-3.44.344-3.403 3.301-3.82 5.761a15.4 15.4 0 0 0-.122.876c.662.183 1.255-.034 1.434-.812.656-2.862 1.38-5.081 2.821-5.825M211.757 187.978c0 .455-.37.825-.828.825a.826.826 0 1 1 0-1.65c.457 0 .828.37.828.825" fill="#E99462"/><path d="M176.483 187.978c0 .455-.37.825-.828.825a.826.826 0 1 1 0-1.65c.457 0 .828.37.828.825" fill="#E99462"/><path d="M211.94 187.806c0 .455-.37.825-.828.825a.826.826 0 1 1 0-1.65c.457 0 .828.37.828.825M176.665 187.806c0 .455-.37.825-.828.825a.826.826 0 0 1-.828-.825c0-.455.371-.825.828-.825.457 0 .828.37.828.825" fill="#0297B8"/><path d="M195.57 164.889c7.687-.055 13.915 6.283 13.83 14.076l-.005.51c.07.403.69 9.853-1.753 13.481-2.624 3.898-5.185 4.565-9.622 5.81a16.38 16.38 0 0 1-8.371.113c-4.63-1.15-7.509-1.532-9.823-5.742-2.086-3.797-1.944-13.034-1.876-13.438l-.01-.51c-.156-7.791 6.013-14.218 13.699-14.272l3.93-.028z" fill="#EACBAC"/><path d="M189.649 198.879c1.286.32 2.6.476 3.915.482-15.077-2.6-13.733-15.1-11.845-21.018 1.044-3.273.8-7.092.464-9.522a14.04 14.04 0 0 0-4.243 10.369l.01.509c-.067.405-.21 9.64 1.877 13.438 2.313 4.21 5.191 4.593 9.822 5.743" fill="#E99462"/><path d="M188.378 184.39a1.2 1.2 0 0 0 .123-.525v-1.464c0-.675-.548-1.221-1.225-1.221s-1.225.546-1.225 1.22v1.465c0 .193.049.373.128.535.33-.182.705-.294 1.108-.294.397 0 .765.109 1.091.284M201.134 184.333c.06-.144.094-.302.094-.468V182.4c0-.674-.548-1.22-1.225-1.22s-1.226.546-1.226 1.22v1.465c0 .216.061.415.16.59a2.3 2.3 0 0 1 1.212-.349c.354 0 .685.086.985.227M203.083 180.152a.383.383 0 0 1-.477.015l-1.17-.874a1.914 1.914 0 0 0-.788-.346l-1.932-.365a.38.38 0 0 1-.22-.622l.286-.332a.383.383 0 0 1 .393-.119l1.987.55c.3.082.577.239.804.453l1.132 1.075a.38.38 0 0 1-.015.565M184.353 180.152a.383.383 0 0 0 .478.015l1.17-.874c.232-.174.501-.292.787-.346l1.932-.365a.38.38 0 0 0 .22-.622l-.286-.332a.382.382 0 0 0-.393-.119l-1.986.55c-.302.082-.578.239-.805.453l-1.132 1.075a.38.38 0 0 0 .015.565" fill="#00547A"/><path d="M201.766 185.685h.719c.286 0 .517.23.517.515v.134a.516.516 0 0 1-.517.515h-.719a.516.516 0 0 1-.517-.515v-.134c0-.284.231-.515.517-.515M199.789 186.969h.719c.286 0 .517.23.517.515v.134a.516.516 0 0 1-.517.515h-.719a.516.516 0 0 1-.517-.515v-.134c0-.284.231-.515.517-.515M197.812 185.685h.719c.286 0 .517.23.517.515v.134a.516.516 0 0 1-.517.515h-.719a.516.516 0 0 1-.517-.515v-.134c0-.284.232-.515.517-.515M188.905 185.685h.719c.286 0 .517.23.517.515v.134a.516.516 0 0 1-.517.515h-.719a.516.516 0 0 1-.517-.515v-.134c0-.284.231-.515.517-.515M186.928 186.969h.719c.286 0 .517.23.517.515v.134a.516.516 0 0 1-.517.515h-.719a.516.516 0 0 1-.517-.515v-.134c0-.284.231-.515.517-.515M184.951 185.685h.719c.286 0 .517.23.517.515v.134a.516.516 0 0 1-.517.515h-.719a.516.516 0 0 1-.517-.515v-.134c0-.284.232-.515.517-.515" fill="#FC95A4"/><path d="M193.299 182.043a51.984 51.984 0 0 1-.307 1.93l-.345 1.893a.604.604 0 0 0 .49.658c.096.015.306.032.454.048l.478.055c.1.01.202.006.302-.027a.737.737 0 0 0 .29-.163c.12-.112.243-.223.379-.322a.21.21 0 0 1 .318.25 4.52 4.52 0 0 1-.23.442 1.202 1.202 0 0 1-.47.436 1.258 1.258 0 0 1-.652.135 13.21 13.21 0 0 1-.496-.047c-.176-.023-.292-.028-.518-.064a1.334 1.334 0 0 1-1.061-1.499c.146-.69.314-1.278.47-1.922.158-.632.333-1.259.516-1.885a.196.196 0 0 1 .382.082" fill="#E99462"/><path d="M193.3 190.851c.3.28.7.372 1.093.399.4.02.812-.013 1.23-.075.418-.056.817-.137 1.161-.283.347-.14.62-.387.908-.767a.099.099 0 0 1 .178.06v.008a1.653 1.653 0 0 1-.721 1.315c-.441.309-.942.432-1.417.49-.476.057-.979.056-1.47-.093-.475-.139-.993-.457-1.118-.995a.08.08 0 0 1 .061-.098.081.081 0 0 1 .074.02l.021.019z" fill="#1C417D"/><path d="M212.66 165.853c-.859-1.64-2.343-3.91-3.755-4.405-2.1-4.022-6.437-7.447-15.125-7.447-9.111 0-13.505 3.535-15.561 7.545-1.341.644-2.714 2.756-3.526 4.307-1.816 3.465-1.538 6.543-.833 8.616.627 1.842.326 4.042.326 4.042s.423-.08 1.294.231c2.14.762 2.285 2.624 2.199 3.607-.038.42.128.828.449 1.103l.767.657a.42.42 0 0 0 .694-.33l-.192-7.406s2.843-3.188 3.692-9.307c2.569-1.521 5.953-2.743 10.204-2.743 4.637 0 8.347 1.665 11.11 3.621.982 5.544 3.552 8.43 3.552 8.43l-.192 7.406a.421.421 0 0 0 .695.329l.767-.657c.321-.275.486-.683.45-1.103-.087-.983.059-2.845 2.198-3.607.871-.31 1.294-.23 1.294-.23s-.301-2.201.326-4.043c.705-2.073.983-5.15-.833-8.616" fill="#0297B8"/><path d="M178.219 161.546c-1.34.643-2.713 2.756-3.525 4.307-1.816 3.465-1.539 6.542-.833 8.615.627 1.842.325 4.042.325 4.042s.423-.08 1.295.231c2.14.762 2.284 2.625 2.198 3.608-.037.419.129.828.45 1.102l.766.657a.421.421 0 0 0 .695-.33l-.192-7.405s1.722-1.944 2.886-5.691c-2.882-9.455.871-13.747 3.77-15.573-4.086 1.352-6.476 3.787-7.835 6.437" fill="#00547A"/><path d="M209.972 167.612c-.65-2.179-2.018-4.137-3.752-5.63-1.725-1.521-3.825-2.545-5.978-3.222-2.174-.623-4.409-.878-6.625-.934-.555-.009-1.11.044-1.666.065-.555.023-1.11.049-1.665.145-.555.082-1.11.15-1.663.246-.549.135-1.1.26-1.646.408-2.158.665-4.282 1.67-5.997 3.222-.213.193-.433.378-.638.579l-.574.647c-.183.222-.394.42-.552.661l-.48.716c-.34.462-.555 1.003-.818 1.505-.252.51-.405 1.065-.601 1.592-.592 2.184-.558 4.51.17 6.566.043.118.162.196.292.182.024-.002.045-.012.067-.02-.064-.02-.115-.069-.12-.136-.14-2.017.022-4.081.615-6.078.602-1.988 1.773-3.865 3.406-5.25 1.621-1.407 3.634-2.26 5.654-2.778a20.406 20.406 0 0 1 3.081-.527 29.644 29.644 0 0 1 3.097-.154c2.06.027 4.142.213 6.172.747 2.014.548 4.004 1.421 5.629 2.807 1.641 1.36 2.851 3.196 3.516 5.166.657 1.976.867 4.048.732 6.067-.005.072-.062.12-.129.135.005.001.007.005.012.006a.278.278 0 0 0 .355-.167c.736-2.054.747-4.393.106-6.566" fill="#ED985A"/><path d="M209.628 174.204c.135-2.019-.075-4.09-.732-6.067-.665-1.97-1.874-3.806-3.516-5.166-1.624-1.386-3.614-2.259-5.629-2.808-2.03-.533-4.112-.719-6.171-.746-1.032.006-2.065.04-3.097.154a20.397 20.397 0 0 0-3.081.527c-2.02.518-4.034 1.371-5.654 2.779-1.634 1.384-2.805 3.26-3.406 5.249-.594 1.997-.755 4.062-.615 6.078.004.067.055.117.12.135.01.004.017.013.029.014a.16.16 0 0 0 .17-.149c.15-1.988.441-3.969 1.191-5.764.7-1.807 1.858-3.386 3.347-4.546 1.498-1.153 3.296-1.899 5.18-2.311 1.879-.443 3.846-.582 5.808-.573 1.965 0 3.923.177 5.803.628 1.876.445 3.667 1.206 5.18 2.352a11.05 11.05 0 0 1 3.462 4.484c.804 1.772 1.14 3.746 1.29 5.73a.162.162 0 0 0 .15.15c.017 0 .028-.012.043-.015.067-.015.123-.063.128-.135" fill="#D76230"/><path d="M210.878 175.845a1.187 1.187 0 0 1-1.651 1.068c-1.14-.485-2.724-1.274-4.11-2.374-3.197-2.536-4.663-6.177-4.526-8.677-3.316.445-6.498 4.659-6.557 9.325a.853.853 0 0 1-.856.839h-2.44a1.705 1.705 0 0 1-1.393-.706c-.822-1.149-2.145-3.628-1.324-6.9 0 0-1.124 3.789-.466 6.581a.963.963 0 0 1-.8 1.185l-1.589.223a1.351 1.351 0 0 1-1.494-.975c-.412-1.501-.923-4.203-.033-6.298-1.72.994-1.75 5.153-1.68 6.927a.96.96 0 0 1-.77.975l-3.306.673s-1.169-1.366-1.169-4.092c0-4.58 3.175-8.123 5.37-9.552 8.086-5.265 15.432-3.303 18.244-2.43 3.599 1.116 6.852 2.917 9.15 7.02 1.27 2.265 1.437 5.325 1.4 7.188" fill="#0297B8"/><path d="M203.867 170.644c-2.303-3.583-2.461-6.973-2.461-6.973s-.648.789-.817 2.313c-.086 2.495 1.381 6.06 4.528 8.555 1.386 1.1 2.97 1.889 4.11 2.375.219.093.443.109.654.074-.825-.665-4.135-3.42-6.014-6.344M196.018 161.943c-2.685.032-5.074 1.202-6.538 3.335a10.595 10.595 0 0 0-1.722 4.213c.14-.653.263-1.07.263-1.07-.821 3.271.502 5.75 1.324 6.9.247.346.616.575 1.025.662l1.336-.01c-3.712-6.426.08-12.803 4.312-14.03" fill="#00547A"/><path d="M191.827 161.702c-3.801.934-5.759 3.101-7.307 5.653-.371.612-.66 1.208-.887 1.785l.005-.004c-.89 2.095-.379 4.797.034 6.298.18.654.82 1.069 1.493.975l1.59-.223c.045-.006.086-.02.13-.032-3.021-6.186.561-12.436 4.942-14.452" fill="#00547A"/><path d="M186.043 162.004a22.63 22.63 0 0 0-3.96 2.064c-2.194 1.429-5.37 4.97-5.37 9.55 0 2.727 1.17 4.094 1.17 4.094l2.99-.61c-1.87-5.534 1.044-12.137 5.17-15.097" fill="#00547A"/><path d="m241.92 361.94-20.304-88.839c-1.585-6.936-7.776-11.856-14.916-11.856-10.148 0-17.483 9.661-14.721 19.388l23.25 81.858c.136.479.575.809 1.074.809h24.529c.716 0 1.247-.663 1.088-1.359" fill="#0080F6"/><path d="m195.807 292.2 2.051 9.123 17.375 61.173c.136.479.575.81 1.075.81h10.984L195.808 292.2z" fill="#0068C9"/><path d="m239.42 355.55-24.646.306a.577.577 0 0 1-.586-.568.578.578 0 0 1 .571-.584h.015l24.646.307a.27.27 0 0 1 0 .539" fill="#3CA1FF"/><path d="M182.017 261.25h-.542c-8.637 0-15.562 7.118-15.29 15.717l2.687 85.26c.018.6.513 1.077 1.116 1.077h25.735c.614 0 1.112-.494 1.116-1.106l.476-85.625c.047-8.45-6.816-15.324-15.299-15.324" fill="#0080F6"/><path d="m181.504 306.95-.35-22.167c-.101-6.343.84-12.66 2.783-18.701l1.418-4.406.015-.053c-1.08-.24-2.2-.37-3.353-.37h-.541c-8.638 0-15.562 7.117-15.29 15.716l2.687 85.26c.018.6.512 1.078 1.115 1.078h12.838l-1.322-56.357z" fill="#0068C9"/><path d="m195.72 355.55-24.646.306a.577.577 0 0 1-.586-.568.578.578 0 0 1 .571-.584h.015l24.646.307a.27.27 0 0 1 0 .539" fill="#3CA1FF"/><path d="m166.146 275.35.036-16.874c.003-1.212.077-2.422.222-3.625l2.788-23.107-.007-23.772c0-.567.428-1.044.995-1.105l4.752-.518a1.115 1.115 0 0 1 1.238 1.115l-.125 14.747a2.784 2.784 0 0 0 2.696 2.802l25.255.851a2.789 2.789 0 0 0 2.823-2.194l3.287-15.228c.13-.601.726-.983 1.33-.852l5.413 1.177c.6.131.982.72.854 1.32l-4.519 21.042a5.538 5.538 0 0 0-.005 2.302l4.66 22.157 3.732 17.1a3.712 3.712 0 0 1-3.013 4.446l-20.31 3.456a29.857 29.857 0 0 1-7.605.31l-21.096-1.844a3.718 3.718 0 0 1-3.4-3.705" fill="#0080F6"/><path d="M177.836 239.828a26.301 26.301 0 0 1-3.685-12.657l-.617-20.669-3.354.365a1.114 1.114 0 0 0-.995 1.106l.008 23.772-2.788 23.106a30.629 30.629 0 0 0-.222 3.625l-.037 16.874a3.717 3.717 0 0 0 3.4 3.705l11.725 1.025a58.08 58.08 0 0 1 2.667-14.004l1.417-4.406a13.897 13.897 0 0 0-1.286-11.362l-6.233-10.482z" fill="#0068C9"/><path d="m178.271 231.778.253 11.525 10.516 6.778 11.902-3.84.568-2.761c.008-.04.039-.066.074-.08l.591-9.728a.933.933 0 0 0-.867-.985l-5.126-.365c-.023.011-.045.027-.073.026l-17.839-.57z" fill="#0080F6"/><path d="M201.75 243.502a.12.12 0 0 0-.097-.116c-.024-.006-.046.004-.068.013-.035.014-.066.04-.074.08l-.568 2.762-11.902 3.84-10.516-6.779-.253-11.525 17.839.57c.028.001.05-.014.073-.026.048-.024.086-.063.09-.12a.159.159 0 0 0-.146-.17l-18.4-1.39-.03-.002a.55.55 0 0 0-.561.536v.025l-.276 12.563a.804.804 0 0 0 .387.704l.005.002 11.352 6.864.019.01a.627.627 0 0 0 .532.054l12.326-4.372.05-.017a.39.39 0 0 0 .258-.371l-.04-3.135zM210.701 221.571a3.117 3.117 0 0 0-3.551 2.598l-.122.79c-.125.819.077 1.638.569 2.306a3.099 3.099 0 0 0 2.038 1.23l.031.005a3.117 3.117 0 0 0 3.551-2.598l.121-.789c.26-1.692-.91-3.278-2.637-3.542" fill="#0068C9"/><path d="M212.372 226.909a2.689 2.689 0 0 1-2.008.492l-.089-.014a2.696 2.696 0 0 1-2.262-3.068l.037-.244c-.023.09-.055.178-.07.271l-.086.564a2.695 2.695 0 0 0 2.262 3.068l.089.014a2.705 2.705 0 0 0 3.08-2.254l.049-.32a2.659 2.659 0 0 1-1.002 1.491" fill="#D76230"/><path d="m211.209 221.9-.09-.013a2.316 2.316 0 0 0-2.634 1.927l-.086.564a2.307 2.307 0 0 0 1.935 2.624l.089.014a2.303 2.303 0 0 0 1.718-.42c.497-.365.823-.9.917-1.508l.086-.564a2.282 2.282 0 0 0-.422-1.711 2.297 2.297 0 0 0-1.513-.913" fill="#D76230"/><path d="m213.144 224.525-.087.564a2.31 2.31 0 0 1-2.635 1.928l-.088-.014a2.307 2.307 0 0 1-1.936-2.625l.087-.563a2.317 2.317 0 0 1 2.635-1.928l.089.014c.61.093 1.147.417 1.513.913.366.495.515 1.103.422 1.711m-.107-1.942a2.686 2.686 0 0 0-1.769-1.067l-.09-.013a2.687 2.687 0 0 0-2.008.49 2.674 2.674 0 0 0-1.07 1.763l-.05.32-.037.243a2.696 2.696 0 0 0 2.261 3.069l.09.013a2.693 2.693 0 0 0 2.008-.491c.505-.37.846-.895 1.002-1.49.024-.091.055-.179.07-.272l.086-.564a2.666 2.666 0 0 0-.493-2" fill="#ED985A"/><path d="M210.761 223.444a.237.237 0 0 0 .03.18.236.236 0 0 0 .15.107.237.237 0 0 0 .181-.029.235.235 0 0 0 .107-.148v-.001a.24.24 0 0 0-.234-.294.241.241 0 0 0-.234.185" fill="#D76230"/><path d="M211.051 223.265a.238.238 0 0 1 .18.288.236.236 0 0 1-.108.149.237.237 0 0 1-.182.03.236.236 0 0 1-.149-.107.237.237 0 0 1-.03-.181.241.241 0 0 1 .289-.179m-.199.845a.613.613 0 0 0 .477-.078.629.629 0 0 0-.189-1.146.632.632 0 0 0-.758.47.626.626 0 0 0 .47.755" fill="#ED985A"/><path d="M210.782 225.458a.24.24 0 0 0-.468-.11.24.24 0 0 0 .468.11" fill="#D76230"/><path d="M210.492 225.637a.24.24 0 0 1 .055-.473.24.24 0 1 1-.055.473m.2-.845a.629.629 0 1 0-.145 1.24.63.63 0 0 0 .145-1.24" fill="#ED985A"/><path d="M211.962 224.729a.24.24 0 1 0-.29.179.24.24 0 0 0 .29-.179" fill="#D76230"/><path d="M211.673 224.908a.238.238 0 0 1-.15-.107.238.238 0 0 1 .204-.366.24.24 0 1 1-.054.473m.199-.845a.625.625 0 0 0-.477.078.625.625 0 0 0 .189 1.146.632.632 0 0 0 .759-.469.629.629 0 0 0-.471-.755" fill="#ED985A"/><path d="M210.05 224.282a.24.24 0 1 0-.439.072.24.24 0 0 0 .439-.072" fill="#D76230"/><path d="M209.761 224.461a.24.24 0 0 1-.18-.288.238.238 0 0 1 .235-.185.24.24 0 1 1-.055.473m.67-.09a.63.63 0 0 0-.948-.677.624.624 0 0 0-.203.865.625.625 0 0 0 .536.297.632.632 0 0 0 .614-.485" fill="#ED985A"/><path d="m175.593 224.332-.108-.791c-.112-.821-.539-1.55-1.201-2.052s-1.482-.717-2.336-.601a3.11 3.11 0 0 0-2.667 3.494l.109.791a3.117 3.117 0 0 0 3.505 2.657l.031-.004a3.11 3.11 0 0 0 2.667-3.494" fill="#0068C9"/><path d="m175.65 224.144-.044-.322a2.653 2.653 0 0 1-.537 1.714c-.027.036-.062.064-.091.098a2.678 2.678 0 0 1-1.695.94l-.089.012a2.701 2.701 0 0 1-2.085-.599 2.674 2.674 0 0 1-.958-1.705l-.033-.243c.003.093-.002.185.01.278l.078.565a2.673 2.673 0 0 0 1.042 1.78 2.69 2.69 0 0 0 2 .524l.089-.012a2.69 2.69 0 0 0 1.787-1.038c.436-.572.623-1.28.526-1.992" fill="#D76230"/><path d="M170.539 224.23a2.312 2.312 0 0 0 2.602 1.971l.089-.012a2.298 2.298 0 0 0 1.529-.888c.373-.49.533-1.094.45-1.704l-.077-.565a2.313 2.313 0 0 0-2.603-1.971l-.088.012a2.298 2.298 0 0 0-1.529.888 2.278 2.278 0 0 0-.45 1.704l.077.565z" fill="#D76230"/><path d="M172.843 221.039c1.138 0 2.132.839 2.289 1.992l.077.566a2.279 2.279 0 0 1-.45 1.704c-.374.49-.917.804-1.529.887l-.088.013a2.311 2.311 0 0 1-2.603-1.972l-.077-.565a2.28 2.28 0 0 1 .45-1.704c.374-.49.917-.805 1.53-.888l.088-.012c.105-.014.21-.021.313-.021m-1.733 4.948a2.699 2.699 0 0 0 2.085.6l.088-.013a2.683 2.683 0 0 0 1.696-.94c.029-.035.063-.062.09-.098.38-.498.558-1.098.538-1.714-.003-.092.002-.185-.01-.278l-.078-.565a2.702 2.702 0 0 0-3.042-2.304l-.089.012a2.687 2.687 0 0 0-1.787 1.038 2.67 2.67 0 0 0-.526 1.992l.044.322.033.243c.095.695.453 1.29.958 1.705" fill="#ED985A"/><path d="M172.539 222.667a.241.241 0 0 0 .48-.027.24.24 0 0 0-.239-.226h-.014a.242.242 0 0 0-.166.08.238.238 0 0 0-.061.173" fill="#D76230"/><path d="M172.78 222.415a.24.24 0 0 1 .24.226.24.24 0 0 1-.227.253.24.24 0 1 1-.027-.479h.014m-.001.868.036-.001a.626.626 0 0 0 .594-.663.622.622 0 0 0-.21-.434.624.624 0 0 0-.455-.158.628.628 0 0 0 .035 1.256" fill="#ED985A"/><path d="M173.131 224.594a.24.24 0 0 0-.24-.226h-.014a.24.24 0 0 0-.227.253.246.246 0 0 0 .254.226.24.24 0 0 0 .227-.253" fill="#D76230"/><path d="M172.651 224.621a.24.24 0 0 1 .227-.253h.014a.24.24 0 0 1 .013.479.245.245 0 0 1-.254-.226m.204-.641a.628.628 0 0 0 .036 1.256l.036-.001a.628.628 0 0 0 .384-1.097.617.617 0 0 0-.456-.158" fill="#ED985A"/><path d="M174.056 223.562a.238.238 0 0 0-.08-.165.235.235 0 0 0-.16-.061h-.013a.24.24 0 0 0-.147.418.242.242 0 0 0 .34-.02.24.24 0 0 0 .06-.172" fill="#D76230"/><path d="M173.656 223.754a.24.24 0 0 1 .147-.418h.014a.24.24 0 0 1 .013.479.23.23 0 0 1-.174-.061m.58-.648a.618.618 0 0 0-.456-.158.627.627 0 0 0 .035 1.256l.037-.001a.627.627 0 0 0 .384-1.097" fill="#ED985A"/><path d="M172.095 223.673a.238.238 0 0 0-.08-.165.236.236 0 0 0-.174-.06.239.239 0 0 0-.146.417.241.241 0 0 0 .4-.192" fill="#D76230"/><path d="M171.695 223.865a.24.24 0 0 1 .146-.418h.014a.24.24 0 0 1 .013.479.237.237 0 0 1-.173-.061m.79-.215a.623.623 0 0 0-.21-.433.622.622 0 0 0-.456-.158.627.627 0 0 0-.384 1.096c.117.104.264.16.42.16l.036-.001a.626.626 0 0 0 .594-.664" fill="#ED985A"/><path d="m228.116 376.59 1.968 6.909c.281.988.246 2.04-.102 3.007a7.351 7.351 0 0 0-.43 2.708l.148 4.94 16.706.078-.516-4.308a5.264 5.264 0 0 0-1.795-3.364l-1.29-1.11a4.925 4.925 0 0 1-1.669-3.068l-.787-5.792h-12.233z" fill="#0097B8"/><g transform="translate(227 377)"><mask id="d" fill="#fff"><use xlink:href="#c"/></mask><path d="M12.484-5.286c-.003 1.219.042 2.896.064 3.624a1.55 1.55 0 0 1-.14.693l-3 6.549-3.565 7.633c-.654 1.4-2.025 2.291-3.53 2.295l-7.716.017c-.852.002-1.528-.742-1.47-1.62l.528-8.227c.018-.284.113-.557.275-.788L2.077-6.785c.3-.429.794-.666 1.305-.626l7.744.612c.767.06 1.36.718 1.358 1.513" fill="#00547A" mask="url(#d)"/><mask id="f" fill="#fff"><use xlink:href="#e"/></mask><path d="M2.414 10.968c-.109 1.114-.468 1.988-.801 1.953-.334-.034-.516-.965-.407-2.079.109-1.114.467-1.988.8-1.953.334.035.517.965.408 2.079" fill="#0097B8" mask="url(#f)"/></g><g fill="#EAFBFF"><path d="m228.95 392.595.014.464 15.959.071-.11-.883c-.188-1.53-1.205-2.864-2.693-3.532l-2.101-.943c-2.684-1.205-5.852-.988-8.318.57l-.64.403c-1.364.861-2.16 2.314-2.112 3.85M245.079 397h-16.157c-.51 0-.921-.385-.921-.86v-1.49c0-.474.412-.859.921-.859h16.157c.51 0 .921.385.921.86v1.49c0 .474-.412.859-.921.859"/></g><g transform="translate(229 386)"><mask id="h" fill="#fff"><use xlink:href="#g"/></mask><path d="M11.949-15.874c-.003 1.274.043 3.026.065 3.787.007.251-.042.497-.142.725L8.828-4.518 5.21 3.461C4.548 4.924 3.157 5.855 1.63 5.859l-7.827.018c-.864.002-1.55-.775-1.492-1.692l.536-8.6c.019-.297.115-.582.279-.823L1.39-17.44a1.46 1.46 0 0 1 1.325-.655l7.856.64c.778.062 1.38.75 1.378 1.581" fill="#ACEDFB" mask="url(#h)"/></g><path d="M201.48 188.954h-.188c-3.013 0-5.455-2.453-5.455-5.479v-3.699c0-3.025 2.442-5.478 5.455-5.478h.188c3.013 0 5.455 2.453 5.455 5.478v3.7c0 3.025-2.442 5.478-5.455 5.478" fill="#fff" opacity=".35"/><path d="M184.81 174.298h.188c3.013 0 5.455 2.453 5.455 5.48v3.698c0 3.025-2.442 5.478-5.455 5.478h-.188c-3.013 0-5.455-2.453-5.455-5.478v-3.699c0-3.026 2.442-5.479 5.455-5.479" fill="#fff" opacity=".352"/><path d="M206.638 183.476c0 2.856-2.314 5.18-5.159 5.18h-.187c-2.845 0-5.158-2.324-5.158-5.18v-3.699c0-2.857 2.313-5.18 5.158-5.18h.188c2.844 0 5.158 2.323 5.158 5.18V183.475zm-16.481 0c0 2.856-2.314 5.18-5.158 5.18h-.188c-2.845 0-5.159-2.324-5.159-5.18V179.777c0-2.857 2.314-5.18 5.159-5.18h.188c2.844 0 5.158 2.323 5.158 5.18v3.699zM209 180.343h-.92v-.01a.741.741 0 0 0-.74-.742h-.117c-.099-3.1-2.634-5.591-5.743-5.591h-.188c-3.172 0-5.753 2.592-5.753 5.777v.827a4.364 4.364 0 0 0-4.788.002v-.829c0-3.185-2.58-5.777-5.752-5.777h-.189c-3.172 0-5.752 2.592-5.752 5.777v.079h-.109a.733.733 0 0 0-.723.668h-.99c.056.446.05.861.024 1.193h.951v.01a.74.74 0 0 0 .738.742h.109v1.007c0 3.186 2.58 5.777 5.752 5.777H185c3.171 0 5.752-2.591 5.752-5.777v-2.157h.001l.258-.177a3.787 3.787 0 0 1 4.423.098l.095.071c.003.003.008.003.011.006v2.159c0 3.186 2.58 5.777 5.753 5.777h.188c3.172 0 5.752-2.591 5.752-5.777v-1.273h.109a.732.732 0 0 0 .723-.667h.872a5.801 5.801 0 0 1 .064-1.193z" fill="#DB594A"/><path d="M136.916 242.16c6.817 6.66 18.955 18.493 22.976 22.413.75.73 1.935.739 2.698.023l.882-.827a3.25 3.25 0 0 0 .475-4.178l-17.2-25.682c-2.17-3.24-6.706-3.77-9.558-1.118a20.37 20.37 0 0 0-.158.147 6.376 6.376 0 0 0-.114 9.222" fill="#EACBAC"/><path d="M161.377 258.663a1.087 1.087 0 0 0 1.465.193l.416-.293-15.583-23.266-2.382 1.294a1.472 1.472 0 0 0-.426 2.232l16.51 19.84zM161.021 264.855l-4.959-4.016 3.83 3.734c.417.407.97.581 1.509.54a3.048 3.048 0 0 1-.38-.258" fill="#E99462"/><path d="M167.029 264.026c-.812.565-.253 2.551-2.115 2.921-.146.03-.31.045-.489.051-3.092.088-5.493-2.715-5.134-5.8l.018-.15c.156-1.34.92-2.541 2.088-3.206.725-.412 1.478-.963 1.864-1.615.873-1.477 1.688-2.353 2.808-2.806-.026-.027-.04.51-.04.51s1.613-1.306 2.057-1.535c2.207-1.136 3.124 1.546 5.4 1.985.43.083.71.72.528.922-.597.666-1.517.416-1.517.416l.697 2.268c.099.323.08.671-.054.982l-2.228 5.172s-.674 1.036-1.31.854c-.473-.136-.608-.674-1.034-.923-.275-.162-1.24-.254-1.539-.046" fill="#EACBAC"/><path d="m162.842 258.856.85-.6a2.965 2.965 0 0 0 1.05-1.343l1.288-3.29v-.184c-1.1.458-1.906 1.329-2.768 2.787-.386.653-1.14 1.203-1.864 1.616-.16.09-.31.192-.453.302l.432.519a1.088 1.088 0 0 0 1.465.193M169.171 263.695l-.482-.65a1.706 1.706 0 0 0-1.239-.63l-.868-.044a1.542 1.542 0 0 0-1.599 1.292l-.075.461a1.634 1.634 0 0 1-1.346 1.349l-.134.022a3.045 3.045 0 0 1-2.407-.64l-1.398-1.131c.753 1.929 2.6 3.337 4.803 3.274.178-.005.343-.021.49-.05 1.86-.371 1.302-2.358 2.114-2.922.299-.207 1.263-.115 1.54.046.425.25.56.788 1.033.923.636.183 1.31-.854 1.31-.854l.54-1.253-.904.907a.911.911 0 0 1-1.378-.1" fill="#E99462"/></g></svg>