<?xml version="1.0" encoding="UTF-8"?>
<svg version="1.1" viewBox="0 0 420 420" xmlns="http://www.w3.org/2000/svg" xmlns:xlink="http://www.w3.org/1999/xlink">
<title>5. Elements_Illustrations/2.Vector/Leaf 1</title>
<defs>
<polygon id="a" points="0 0 203 0 203 312 0 312"/>
</defs>
<g fill="none" fill-rule="evenodd">
<g transform="translate(109 54)">
<mask id="b" fill="white">
<use xlink:href="#a"/>
</mask>
<path d="m167.11 162.27-2.11 0.427c-10.646 2.1555-18.001-10.326-10.918-18.526l12.14-14.057c7.9163-9.1652 9.6967-22.101 4.5496-33.048l-0.42325-0.90061c-4.0752-8.6692-12.908-14.124-22.52-13.909l-5.8905 0.13239c-6.619 0.14855-10.21-7.6542-5.7744-12.548l8.3383-9.2012c3.848-4.2457 4.6102-10.437 1.9052-15.483-3.1094-5.799-9.9451-8.5461-16.226-6.5199l-6.9043 2.2263c-5.363 1.7297-10.669-2.7913-9.7803-8.3336l2.5676-16.015c0.80655-5.032-1.2847-10.089-5.4167-13.096l-1.1037-0.80303c-4.7906-3.4868-11.297-3.4868-16.087 0l-1.1037 0.80303c-4.1314 3.007-6.2239 8.0638-5.4167 13.096l2.5676 16.015c0.88832 5.5423-4.4173 10.063-9.7797 8.3336l-6.9043-2.2263c-6.2813-2.0262-13.118 0.72098-16.226 6.5199-2.7049 5.045-1.9427 11.237 1.9046 15.483l8.3383 9.2012c4.4354 4.894 0.84525 12.697-5.7744 12.548l-5.8912-0.13239c-9.6111-0.21567-18.443 5.2396-22.52 13.909l-0.42263 0.90061c-5.147 10.947-3.366 23.883 4.5496 33.048l12.141 14.057c7.0829 8.2006-0.27343 20.682-10.918 18.526l-2.1106-0.427c-14.629-2.9629-29.152 5.5162-33.699 19.673-4.8018 14.954-1.6006 31.314 8.4893 43.378l5.7289 6.85c11.852 14.172 26.575 25.693 43.208 33.807l7.8051 3.8088c9.3508 4.5621 16.424 12.73 19.58 22.609l3.768 11.793c1.4864 4.6522 5.8256 7.8115 10.729 7.8115 4.9036 0 9.2428-3.1593 10.729-7.8115l3.7674-11.793c3.1569-9.8793 10.23-18.047 19.58-22.609l7.8051-3.8088c16.633-8.1148 31.357-19.635 43.208-33.807l5.7295-6.85c10.089-12.065 13.291-28.424 8.4881-43.378-4.5465-14.157-19.069-22.636-33.698-19.673" fill="#3CA1FF" mask="url(#b)"/>
<path d="m102.07 302.68c-0.02299 0.7732-0.044737 1.5458-0.068349 2.319 0.081398-0.048108 0.1572-0.10607 0.21561-0.18084 3.2329-4.099 7.4681-6.4093 12.19-8.0751l0.59464-1.744c-4.8926 1.5997-9.3582 3.775-12.932 7.681" fill="#0064D7"/>
<path d="m193.1 206.79c-6.3786-1.7947-12.975-3.6507-25.215 1.9895-6.5341 3.0106-11.165 9.9093-16.068 17.213-4.2085 6.2692-8.5606 12.752-14.229 16.637-5.1926 3.5579-11.029 4.8387-16.675 6.0768-6.3018 1.3828-12.303 2.7075-16.871 7.0224-0.012387 0.75574-0.027251 1.5121-0.039638 2.2678 4.3769-4.9494 10.638-6.3304 17.242-7.7794 5.7909-1.2709 11.779-2.5845 17.22-6.3131 5.9141-4.0527 10.35-10.661 14.639-17.051 4.7789-7.1177 9.292-13.841 15.431-16.67 11.721-5.3996 17.757-3.702 24.146-1.9048 2.4737 0.69575 4.987 1.4002 7.8601 1.7248 0.16227-0.50279 0.31525-1.0093 0.46141-1.5177-2.9016-0.295-5.4236-0.99817-7.9016-1.6952" fill="#0064D7"/>
<path d="m144.58 185.66c-3.3702 6.0953-6.8555 12.397-11.802 15.947-4.6267 3.3206-9.9963 4.1475-15.189 4.9462-5.0034 0.77045-9.7911 1.5089-13.574 4.3788l-0.017408 2.0694c3.6233-3.3188 8.5981-4.0942 13.826-4.8985 5.3721-0.82687 10.928-1.6819 15.856-5.2182 5.231-3.7557 8.8026-10.215 12.257-16.462 3.7003-6.6914 7.1949-13.012 12.362-15.6 9.9726-4.9957 15.444-3.2366 21.236-1.376 4.1666 1.3384 8.4495 2.7151 14.463 1.655-0.43892-0.47706-0.8884-0.94347-1.3559-1.3886-5.1159 0.65134-8.9251-0.56734-12.636-1.7597-5.8309-1.875-11.862-3.8121-22.398 1.4663-5.5984 2.8041-9.2073 9.3306-13.028 16.24" fill="#0064D7"/>
<path d="m139.42 145.81c2.5906-6.1995 5.0385-12.055 9.192-14.379 7.7073-4.3112 12.485-2.9172 17.361-1.1475l0.002461-0.002522c0.3555-0.42368 0.69378-0.85682 1.0235-1.2969-5.1634-1.8895-10.551-3.7305-19.123 1.063-4.6215 2.5856-7.1703 8.6842-9.8692 15.142-2.4375 5.8325-4.958 11.864-9.0807 15.021-3.9468 3.0231-8.7436 3.3535-13.382 3.6732-3.8386 0.2648-7.527 0.52077-10.538 2.2464-0.001845 0.62417-0.005536 1.2483-0.007996 1.8713 2.8096-1.9961 6.5079-2.2596 10.649-2.5452 4.8614-0.33478 9.8876-0.68154 14.199-3.9833 4.453-3.4102 7.0559-9.6387 9.5733-15.663" fill="#0064D7"/>
<path d="m138 90.68c-3.7496 2.3558-5.2748 7.9641-6.8888 13.901-1.4838 5.4595-3.0195 11.105-6.3494 13.814-3.2768 2.666-7.5493 2.4795-11.678 2.3018-2.8065-0.12307-5.6704-0.24425-8.0862 0.62538v1.679c2.159-0.98641 4.9415-0.86962 8.0196-0.73651 4.2088 0.18272 8.9787 0.38804 12.709-2.6434 3.72-3.0258 5.3223-8.9204 6.8728-14.622 1.5307-5.6315 2.9775-10.951 6.2117-12.983 6.4049-4.0248 10.8-2.2673 15.452-0.40687 4.0619 1.6237 8.2584 3.2952 13.736 1.0078-0.31232-0.44517-0.63821-0.87716-0.97645-1.2972-4.7174 1.8083-8.3591 0.36292-12.195-1.1716-4.8008-1.9195-9.7651-3.9036-16.826 0.53245" fill="#0064D7"/>
<path d="m104 76.332c0.009161 0.51696 0.013436 1.0339 0.021986 1.5509 1.5824-0.32763 3.6131 0.044873 5.8392 0.45672 3.7358 0.6903 7.97 1.4728 11.042-1.2613 2.9174-2.5995 3.4011-7.9972 3.8696-13.217 0.42323-4.7288 0.86174-9.6199 3.1666-11.324 4.6415-3.4312 8.5886-1.7998 12.767-0.071919 1.9806 0.81877 3.9954 1.6511 6.0865 1.9197 0.10138-0.50589 0.16551-1.0185 0.20765-1.5337-1.9-0.23481-3.7792-1.0075-5.714-1.8078-4.1804-1.7273-8.919-3.6863-14.251 0.25448-2.86 2.1158-3.3089 7.1231-3.7841 12.425-0.44094 4.9212-0.89655 10.01-3.3608 12.204-2.5137 2.2393-6.1934 1.5595-9.7539 0.90114-2.1204-0.39217-4.2818-0.78927-6.1366-0.49606" fill="#0064D7"/>
<path d="m107.28 35.251c1.8369 0.84214 3.8173 1.7493 5.6008 1.7493 0.04017 0 0.079192-0.0044362 0.11994-0.005915-0.17273-0.59002-0.29554-1.2118-0.36669-1.8558-1.4656-0.071719-3.1855-0.85619-4.8732-1.6288-1.6579-0.75933-3.3467-1.529-4.7601-1.5091 0.01492 0.6159 0.030414 1.2303 0.045335 1.8447 1.1093-0.02366 2.6415 0.67578 4.2339 1.4055" fill="#0064D7"/>
<path d="m74.818 205.9c-1.8562-0.69033-3.6699-1.5904-5.405-2.8223-5.2509-3.7287-8.836-10.143-12.303-16.346-3.7142-6.645-7.2225-12.921-12.409-15.492-10.007-4.9587-15.497-3.2145-21.309-1.3657-4.2383 1.3477-8.5995 2.7283-14.76 1.596-2.8538 3.0583-5.0912 6.7651-6.442 10.98-2.8232 8.8087-2.8757 18.103-0.39058 26.724 3.1882-0.25335 5.9079-1.0153 8.5796-1.766 6.4258-1.8077 13.071-3.6751 25.402 2.0025 6.5824 3.0302 11.247 9.974 16.186 17.326 4.2402 6.3095 8.6238 12.835 14.335 16.745 5.2303 3.5811 11.111 4.8703 16.798 6.1165 2.0097 0.44072 3.9869 0.8777 5.8998 1.4031-7.9881-9.6746-15.203-18.092-15.596-34.937-0.094212-4.0561 0.44798-7.3073 1.4138-10.165" fill="#0064D7"/>
<path d="m87.58 165.13c-4.9193-0.32801-10.005-0.66776-14.368-3.9028-4.5061-3.3419-7.1406-9.4444-9.688-15.347-2.6221-6.0741-5.0998-11.812-9.3034-14.088-7.7761-4.2104-12.606-2.8656-17.525-1.1385 0.0037343 0.003707 0.0068462 0.008031 0.01058 0.012355l12.104 13.97c7.0616 8.1509-0.27198 20.556-10.885 18.413l-2.1043-0.425c-9.5835-1.9341-19.12 1.0403-25.82 7.2997 5.2473 0.71347 9.1267-0.50406 12.9-1.6981 5.8386-1.847 11.875-3.757 22.423 1.4442 5.6052 2.7631 9.2181 9.1942 13.044 16.003 3.3752 6.0055 6.8649 12.217 11.817 15.715 1.6002 1.1304 3.2905 1.9631 5.0307 2.6068 4.1507-10.183 13.771-15.83 17.786-38.332-1.686-0.28107-3.5059-0.40585-5.4203-0.53372" fill="#0064D7"/>
<path d="m85.828 122.25c-3.1406-0.058083-6.328-0.57218-8.9902-2.6817-3.7549-2.9777-5.3736-8.7793-6.938-14.39-1.5457-5.5427-3.0061-10.777-6.2707-12.778-6.4651-3.9608-10.901-2.2313-15.596-0.40041-4.0241 1.5689-8.1778 3.181-13.555 1.1159-0.81242 1.1419-1.542 2.3549-2.1532 3.65l-0.42241 0.89412c-4.8994 10.383-3.5039 22.56 3.4927 31.57 5.2172-1.8488 10.668-3.6302 19.327 1.0554 4.6814 2.5334 7.2638 8.5117 9.9982 14.84 2.4697 5.7163 5.0228 11.628 9.1989 14.723 3.9985 2.9629 8.8569 3.2867 13.555 3.5999 1.9189 0.12791 3.7998 0.25458 5.581 0.55179 0.028659-0.17549 0.057941-0.34665 0.085977-0.5246 2.9176-18.673-2.1139-30.968-7.313-41.226" fill="#0064D7"/>
<path d="m83.544 78.16c-0.72404-0.29877-1.4154-0.70771-2.0552-1.2685-3.0036-2.6335-3.502-8.0992-3.9841-13.386-0.43744-4.7884-0.88808-9.7406-3.2613-11.467-4.7754-3.4757-8.8374-1.8213-13.136-0.071581-1.8057 0.7351-3.6397 1.4795-5.5321 1.8287 0.46258 2.3821 1.5662 4.6502 3.2839 6.5356l8.3949 9.2146c4.4655 4.9011 0.85099 12.715-5.8137 12.566l-5.9306-0.13258c-7.6602-0.17117-14.819 3.2261-19.509 8.9526 4.6534 1.6177 8.2862 0.21474 12.107-1.2716 4.8885-1.904 9.9423-3.8722 17.134 0.52721 3.8182 2.336 5.3712 7.895 7.0147 13.78 1.5116 5.4127 3.0753 11.01 6.466 13.695 2.1168 1.6756 4.6415 2.2128 7.2774 2.3373-4.1594-8.0425-8.1712-14.934-8.1108-22.858 0.051537-6.7553 2.5184-12.945 5.6546-18.982" fill="#0064D7"/>
<path d="m89.544 6c-2.7369 2.9679-4.0252 7.0862-3.3796 11.19l2.4697 15.709c0.11411 0.72184 0.12012 1.4254 0.036636 2.1003 1.2721-0.22802 2.6631-0.72733 4.0342-1.2218 0.098498-0.035361 0.197-0.071331 0.29549-0.10669-1.373-4.5152-3.0883-8.9962-4.1057-13.591-1.1165-5.0474-1.0018-9.876 0.64925-14.081" fill="#0064D7"/>
<path d="m93.258 35c-0.076947 0.027186-0.15327 0.054371-0.23084 0.081557-1.6575 0.58696-3.4217 1.2085-5.0816 1.3988-1.318 3.5749-5.3242 5.8437-9.3652 4.54l-6.8632-2.2132c-6.2432-2.0142-13.039 0.71671-16.129 6.4813-1.2398 2.3126-1.7381 4.8669-1.5495 7.3624 1.6823-0.31943 3.3565-1.0015 5.0735-1.7028 4.2464-1.7374 9.0605-3.7065 14.478 0.25456 2.906 2.126 3.3627 7.1603 3.8461 12.489 0.44865 4.9466 0.91281 10.062 3.4167 12.268 0.52684 0.46525 1.1077 0.79889 1.7245 1.0399 5.2808-9.8925 12.017-19.458 12.407-30.557 0.13652-3.9042-0.63854-7.6905-1.7263-11.443" fill="#0064D7"/>
<path d="m103.57 273c-0.1639 7.6673-0.35841 15.334-0.57399 23 1.8689-7.8239 3.0964-14.844 0.57399-23" fill="#0064D7"/>
<path d="m88 295 2.7977 8.6808c1.1469 3.5611 3.978 6.2444 7.4571 7.3192 1.4089-1.7226 2.012-4.0081 2.4623-6.2057 0.092203-0.45386 0.18756-0.90025 0.28292-1.346-3.4778-4.331-7.9964-6.7095-13-8.4483" fill="#0064D7"/>
<path d="m100.78 212.64-0.056819-19.471c0.023102-12.981-0.00999-25.961 0.05994-38.942l0.38274-77.878 0.13424-37.531-0.002498-1.4064c-0.005619-1.0227-0.004371-2.0447-0.007492-3.0674 0.00999-0.011798 0.022477-0.021733 0.031219-0.03353 0.00437-0.64019 0.007492-1.2797 0.010614-1.9199-0.016234 0.0068303-0.031219 0.014282-0.046204 0.021733-0.024975-10.801 0.033716-21.602 0.084916-32.405-0.024351-6.2094e-4 -0.049326-0.0037256-0.073677-0.0037256-0.59628 10.764-1.0627 21.533-1.4367 32.307-1.6409-0.53338-3.8649 0.1987-6.0665 0.97487 0.15422 0.49613 0.30345 0.99226 0.44768 1.4896 2.3296-0.82274 4.508-1.5523 5.5595-0.75382-0.47578 14.101-0.79858 28.207-1.0277 42.312-0.0012487 0.060852-0.0018731 0.12232-0.0031219 0.18256-2.0511-0.57126-4.5711-0.11674-7.0386 0.33406-2.8878 0.52655-5.8511 1.063-8.2368 0.13412-0.24601 0.46073-0.48889 0.92209-0.72803 1.3841 2.8328 1.1736 6.2001 0.56381 9.2464 0.0086931 2.6517-0.48433 5.0337-0.91774 6.7321-0.23658-0.21416 12.381-0.29096 24.764-0.37962 37.148-0.0074926 1.8442-0.0093657 3.6877-0.013736 5.5319-2.52-1.0177-5.572-0.89415-8.5621-0.7681-1.5272 0.063335-3.0726 0.12791-4.5823 0.055884 0.26786 0.51972 0.53634 1.045 0.80483 1.5759 1.3031 0.024217 2.5987-0.028563 3.8449-0.081342 3.2967-0.13847 6.2588-0.26017 8.4909 0.91278-0.016858 10.577 0.018731 21.153 0.063687 31.729 0.0087413 3.7082 0.036838 7.4158 0.06993 11.123-1.5791-0.9047-3.3467-1.4126-5.2273-1.7281-0.083667 0.5191-0.16983 1.0283-0.25974 1.5306 2.0673 0.34524 3.928 0.93513 5.5064 2.064 0.020604 2.1621 0.041209 4.3236 0.063687 6.4857l0.21916 19.475c0.089286 5.7263 0.18294 11.454 0.2816 17.181-3.8112-2.8905-8.6483-3.6288-13.706-4.3962-3.4129-0.51786-6.9013-1.0531-10.207-2.2788-0.19293 0.47564-0.37463 0.96245-0.54259 1.4598 3.4341 1.2735 7.0124 1.8218 10.515 2.3533 5.2929 0.80287 10.33 1.5747 13.975 4.9321 0.11551 6.5645 0.24288 13.128 0.39273 19.692 0.17608 7.9455 0.37151 15.891 0.58879 23.836-3.1806-3.0699-7.0674-4.6701-11.279-5.8231 0.59004 0.71221 1.1838 1.4319 1.7789 2.1615 3.6564 1.2139 6.9562 2.9482 9.5642 5.9902 0.078672 2.8141 0.16109 5.6294 0.24601 8.4429-1.4198-2.8768-3.2886-5.9268-5.7312-9.2259-1.3499-1.8231-2.7185-3.5424-4.0791-5.2072-2.5387-0.84385-5.2473-1.4393-8.0183-2.0441-5.8367-1.276-11.873-2.5949-17.359-6.3385-5.9616-4.0684-10.433-10.704-14.758-17.12-4.8171-7.1464-9.3669-13.897-15.556-16.738-11.816-5.4226-17.902-3.7182-24.343-1.9125-2.6686 0.74761-5.3859 1.5014-8.5415 1.7914 1.7863 5.458 4.6104 10.611 8.4141 15.154l5.7299 6.844c11.854 14.158 26.581 25.668 43.216 33.775l7.8072 3.8051c9.352 4.5577 16.426 12.717 19.583 22.587l0.41396 1.2934c5.2392 1.7163 10.042 4.01 13.862 8.3292 0.17233-0.77244 0.34528-1.5318 0.51761-2.2832 0.042458 1.0103 0.086164 2.0211 0.12925 3.0327-0.21104-0.25955-0.42957-0.50296-0.64686-0.74947-0.14111 0.6346-0.2816 1.2773-0.41958 1.9274 0.16858 0.21174 0.34154 0.41416 0.50575 0.63522 0.14673 0.1987 0.38025 0.31606 0.62875 0.31606 0.008741 0 0.015609-0.002484 0.024351-0.003105 0.077423 1.7976 0.15235 3.594 0.23414 5.391-0.6556-25.966-0.9603-51.929-1.1276-77.892l-0.09553-19.471z" fill="#0064D7"/>
<path d="m102.96 295.72c0.23087-7.5091 0.44055-15.018 0.61662-22.527 0.11836-5.039 0.22064-10.078 0.31854-15.116 0.015343-0.75879 0.032146-1.5176 0.047489-2.277 0.14904-7.8928 0.2842-15.787 0.39744-23.681l0.24329-19.472 0.002923-0.28315 0.020456-2.0504 0.17461-17.14c0.040183-8.6783 0.10886-17.357 0.15196-26.037 0.002922-0.61349 0.007306-1.2288 0.009497-1.843 0.016804-3.6884 0.029955-7.3768 0.031416-11.065l0.018995-31.902 7.31e-4 -1.6604 0.003653-5.3836c-0.10228-12.457-0.18703-24.914-0.42448-37.371-0.010228-0.52221-0.015342-1.0444-0.026301-1.5666 0-0.0049675 0-0.0093141-7.31e-4 -0.01304-0.2484-14.221-0.60128-28.442-1.1178-42.66-0.019726-0.516-0.038722-1.032-0.057717-1.5486-0.3989-10.709-0.89352-21.416-1.5196-32.12h-0.08694c-0.010229 10.796 0.01242 21.59-0.054064 32.383-0.003653 0.64019-0.007306 1.2804-0.01242 1.92-0.006576 1.0333-0.009498 2.0665-0.018996 3.0998l-0.005845 1.4083-0.15708 37.531-0.44785 77.879c-0.081826 12.981-0.042374 25.962-0.070137 38.942l0.066484 19.472 0.11251 19.472c0.19507 25.962 0.5516 51.926 1.3187 77.892 0.066484-1.8368 0.11616-3.6735 0.179-5.5103 0.027763-0.82834 0.054064-1.6561 0.081096-2.4844 0.069407-2.0963 0.13954-4.1926 0.20457-6.2889" fill="#FC95A4"/>
</g>
</g>
</svg>
