<?xml version="1.0" encoding="UTF-8"?>
<svg version="1.1" viewBox="0 0 420 420" xmlns="http://www.w3.org/2000/svg" xmlns:xlink="http://www.w3.org/1999/xlink">
<title>5. Elements_Illustrations/2.Vector/Leaf 4</title>
<defs>
<polygon id="b" points="0 0 113 0 113 305 0 305"/>
<polygon id="a" points="0 0 51 0 51 70 0 70"/>
</defs>
<g fill="none" fill-rule="evenodd">
<g transform="translate(154 57)">
<mask id="d" fill="white">
<use xlink:href="#b"/>
</mask>
<path d="m75.441 232.6c11.939-9.8399 25.65-13.573 36.346-14.852 0.79281-9.1622 1.2128-19.124 1.2128-29.937 0-15.6-0.97167-31.864-2.7325-48.011-10.691-1.3993-24.271-0.52979-35.79 8.568 11.218-10.104 24.379-14.469 34.887-16.295-3.3978-27.218-8.9741-53.743-15.857-75.795-4.8336-0.29887-13.338 0.4029-21.427 7.9745 6.9467-6.9071 14.202-11.881 19.175-14.892-10.007-29.455-22.389-49.364-34.755-49.364-12.353 0-24.721 19.863-34.722 49.263 4.9774 2.9989 12.317 8.007 19.343 14.992-8.1794-7.6552-16.784-8.4279-21.589-8.1014-6.9026 22.083-12.495 48.663-15.899 75.939 10.493 1.8359 23.607 6.2053 34.79 16.279-11.483-9.0696-25.015-9.9626-35.69-8.5813-1.7621 16.152-2.7337 32.42-2.7337 48.024 0 10.759 0.41514 20.676 1.2007 29.801 10.859 1.1378 25.168 4.7699 37.567 14.989-12.153-8.7605-26.136-9.5669-36.91-8.3083 6.3708 57.419 28.419 80.704 54.643 80.704 26.26 0 48.335-23.349 54.67-80.949-10.604-1.0229-24.018 0.11005-35.729 8.553" fill="#009F70" mask="url(#d)"/>
<path d="m57.075 296.09c-0.025708 0.97051-0.048427 1.9404-0.075331 2.9109 0.045438-0.048466 0.085495-0.10232 0.1136-0.16514 10.679-24.123 29.535-33.454 43.473-37.034 0.66782-0.17172 1.3285-0.32789 1.9855-0.47748 0.14349-0.43918 0.28758-0.87657 0.42807-1.3229-0.88006 0.19147-1.7691 0.40029-2.6677 0.63006-13.763 3.5266-32.223 12.56-43.257 35.459" fill="#005639"/>
<path d="m59.049 251.24-0.049161 2.759c9.9024-20.66 26.472-29.717 38.819-33.684 5.1547-1.6555 10.01-2.5822 14.082-3.0933 0.034173-0.4047 0.065948-0.81542 0.098922-1.2231-4.1775 0.51114-9.1842 1.4528-14.503 3.157-12.134 3.8889-28.259 12.608-38.448 32.084" fill="#005639"/>
<path d="m58.022 208.4c-0.0078973 0.86549-0.013972 1.7316-0.022477 2.5977 9.1354-17.737 23.792-26.582 34.792-30.912 7.8366-3.084 14.915-4.3575 19.208-4.8812-0.013365-0.40205-0.027337-0.8041-0.041917-1.2068-4.3599 0.52604-11.582 1.8134-19.573 4.9528-10.781 4.236-25.005 12.73-34.363 29.45" fill="#005639"/>
<path d="m60.004 164.53c-0.0017765 0.82202-0.0017765 1.6434-0.003553 2.4655 14.21-26.853 42.739-33.634 49-34.819-0.04915-0.39353-0.098301-0.78765-0.14804-1.1806-2.917 0.53932-10.699 2.2693-19.567 6.6366-9.1438 4.503-21.135 12.703-29.281 26.898" fill="#005639"/>
<path d="m59 122.58c0.0060389 0.80735 0.012682 1.6153 0.018721 2.4233 12.264-22.792 36.012-32.419 42.981-34.827-0.085752-0.39175-0.1715-0.78231-0.25726-1.1735-6.7636 2.3213-29.946 11.624-42.743 33.577" fill="#005639"/>
<path d="m58 80.544 0.029897 2.4563c8.7647-16.545 24.276-27.608 32.97-32.838-0.13301-0.38931-0.26602-0.77623-0.39964-1.1619-8.4401 5.0503-23.481 15.666-32.6 31.544" fill="#005639"/>
<path d="m77 17.015c-0.22237-0.34332-0.44473-0.68198-0.66834-1.0154-6.3294 6.0381-13.372 13.871-18.332 22.559 0.015442 0.81313 0.029031 1.6268 0.043856 2.4405 4.8599-9.2335 12.29-17.6 18.956-23.985" fill="#005639"/>
<path d="m55.068 93.669 0.1007-19.61c0.13021-24.684 0.40221-49.369 0.83162-74.059h-0.10301c-0.55788 13.417-1.0324 26.836-1.4346 40.258-3.4683-7.0562-8.2056-13.598-12.965-19.179-0.078127 0.49976-0.16088 1.0055-0.24711 1.5185 4.9463 5.8925 9.8064 12.815 13.138 20.238-0.30498 10.399-0.57814 20.799-0.80094 31.199l-0.12963 6.5498c-5.1662-9.5712-12.36-17.246-19.028-22.956-0.075233 0.45165-0.14989 0.9051-0.22396 1.361 6.8561 5.9514 14.199 13.988 19.204 24.033l-0.21065 10.624-0.28068 19.615c-0.037617 2.8115-0.068867 5.6231-0.098961 8.434-5.9862-10.508-14.208-18.085-21.819-23.367 0.0028936 0.48653 0.010996 0.96885 0.016783 1.453 7.7265 5.4733 15.996 13.349 21.778 24.302-0.092016 9.4696-0.14236 18.94-0.1632 28.411-0.010996 3.7052-0.012153 7.4092-0.0092595 11.113-4.8329-8.3618-10.928-14.606-16.924-19.215 0.11054 0.60561 0.22396 1.2082 0.33623 1.8114 6.1298 4.8767 12.044 11.326 16.594 19.818 0.024306 13.476 0.14179 26.949 0.33334 40.422-2.1314-3.79-4.5024-7.1428-7.0146-10.102 0.12616 0.77099 0.25406 1.5408 0.37559 2.3166 2.4121 3.031 4.6685 6.453 6.6755 10.313 0.10938 7.3292 0.23785 14.659 0.38716 21.988l0.46471 19.39c-1.1869-2.2588-2.4532-4.3655-3.7796-6.3351 0.028936 0.75716 0.056714 1.5149 0.083335 2.2727 1.3386 2.1181 2.6031 4.3932 3.779 6.8331l0.51679 17.057c0.2963 8.6168 0.61402 17.233 0.98903 25.847-1.7923-3.8544-3.7837-7.3214-5.9249-10.432-0.059029 0.61403-0.12153 1.2238-0.18693 1.8282 2.2298 3.3853 4.2889 7.1693 6.1008 11.419 0.032408 0.076378 0.082756 0.13952 0.14005 0.19365 0.09028 1.9888 0.19098 3.9764 0.28936 5.9647h0.11574c-0.26505-11.618-0.42883-23.232-0.58161-34.846l-0.20255-19.61-0.13195-19.61-0.066552-19.609-0.023727-19.61 0.075812-39.218c-0.016204-13.072-0.057293-26.145-0.012153-39.218l0.037617-19.609z" fill="#005639"/>
<path d="m43.779 8c-0.020236 0.018201-0.040472 0.035814-0.060708 0.055189-0.0020934 0.0011742-0.003489 0.0035227-0.0055824 0.0052841-0.39914 0.37693-0.79758 0.7703-1.1946 1.1737-0.050939 0.051079-0.10258 0.10157-0.15352 0.15383-0.3803 0.38867-0.7592 0.79085-1.1381 1.2024-0.065593 0.071629-0.13188 0.14443-0.19817 0.21665-0.37751 0.41509-0.75432 0.84017-1.1304 1.2776-0.053032 0.061648-0.10606 0.12506-0.1591 0.18729-0.39356 0.46206-0.78572 0.93176-1.1765 1.4167-0.0020934 0.0023485-0.003489 0.004697-0.0055824 0.0070455-0.39286 0.4879-0.78432 0.99106-1.1751 1.5024-0.046054 0.059886-0.092109 0.11919-0.13886 0.17966-0.080944 0.10803-0.16189 0.22134-0.24283 0.32937 1.9252 1.6387 3.9084 3.4112 5.8908 5.2929 0.97482-5.0351 1.4061-9.3734 0.88829-13" fill="#005639"/>
<path d="m36.439 17c-0.034835 0.056635-0.07028 0.11026-0.10512 0.16629-0.05378 0.087965-0.10756 0.17472-0.16195 0.26329-0.3239 0.5296-0.64658 1.0682-0.96865 1.6183-0.044613 0.075915-0.089226 0.15364-0.13384 0.23015-0.67592 1.1634-1.3469 2.372-2.0125 3.6246-0.036668 0.069287-0.073947 0.13737-0.11062 0.20726-0.31962 0.60491-0.63802 1.2207-0.9552 1.8448-0.050724 0.099412-0.10084 0.19882-0.15095 0.29884-0.31596 0.62479-0.63008 1.2592-0.94298 1.9033-0.040946 0.08435-0.081281 0.1699-0.12223 0.25425-0.65636 1.3586-1.3066 2.7594-1.9507 4.2006-0.033001 0.074107-0.066003 0.14641-0.099004 0.21991-0.30862 0.69468-0.61664 1.399-0.92281 2.1124-0.047057 0.10965-0.094115 0.21991-0.14117 0.33017-0.30373 0.71035-0.60563 1.4285-0.90631 2.1563-0.039724 0.095797-0.078836 0.1928-0.11856 0.2886-0.31229 0.76096-0.62397 1.5297-0.9332 2.3094-6.112e-4 6.025e-4 -6.112e-4 0.001205-0.0012223 0.00241-0.31412 0.79108-0.62519 1.5924-0.93565 2.4022-0.028723 0.075312-0.058058 0.15062-0.086781 0.22654-0.2964 0.77602-0.59097 1.5617-0.8837 2.354l-0.13201 0.35668c-0.28968 0.78807-0.57813 1.584-0.86414 2.3877-0.036668 0.10242-0.072725 0.20425-0.10939 0.30667-0.23101 0.65311-0.4608 1.3147-0.69058 1.9774 3.4285 2.0521 7.982 5.0459 12.797 8.9579 2.4476-13.913 5.5228-25.639 7.2028-35.096-1.8652-2.1081-3.7414-4.0843-5.5607-5.9045" fill="#005639"/>
<path d="m30.779 93.17c0.24692-12.382 1.558-23.669 3.2207-33.84-5.7933-3.1617-11.202-3.5094-14.642-3.2688-1.7069 5.6183-3.3325 11.522-4.8637 17.652-0.0011957 0.004285-0.0023914 0.00857-0.0035872 0.012243-0.76408 3.0607-1.5054 6.1771-2.2205 9.3425-0.0017936 0.0073457-0.0035872 0.014691-0.0053808 0.021425-0.43166 1.9117-0.85136 3.8461-1.2645 5.7915 3.2046 1.1153 11.094 4.203 19.749 10.119-0.012555-1.9234-0.0083702-3.8614 0.030491-5.8301" fill="#005639"/>
<path d="m3 132.34c9.9364 1.7414 22.205 5.7452 33 14.662-0.026793-0.13601-0.052367-0.27324-0.07916-0.40924-14.221-10.857-29.521-14.008-32.877-14.591-0.014005 0.11294-0.029837 0.22466-0.043842 0.3382" fill="#005639"/>
<path d="m50.675 246.32c-9.9937-15.348-23.86-22.638-34.571-26.09-5.5954-1.8031-10.833-2.7477-15.105-3.2321 0.010833 0.12506 0.019861 0.25437 0.030092 0.37943 10.816 1.1486 25.068 4.8154 37.416 15.132-12.103-8.8441-26.031-9.6582-36.762-8.3876 6.0185e-4 0.006071 0.0012037 0.012142 0.0018056 0.018213 0.28949 2.6469 0.61328 5.2204 0.96657 7.7246 0.011435 0.0771 0.021667 0.15602 0.033102 0.23312 0.10412 0.73458 0.21245 1.4613 0.32259 2.1837 0.026481 0.17241 0.052361 0.34543 0.078842 0.51724 0.10833 0.69997 0.21907 1.3945 0.33222 2.0829 0.027685 0.16574 0.05537 0.33026 0.083055 0.49599 0.11856 0.70908 0.23893 1.4151 0.36231 2.1127 0.0096296 0.055245 0.019861 0.10988 0.030092 0.16513 0.54949 3.0798 1.1513 6.0393 1.8025 8.8823 0.031898 0.14206 0.064398 0.28412 0.096898 0.42496 0.14324 0.61923 0.28949 1.233 0.43754 1.8407 0.037315 0.15359 0.075231 0.30658 0.11255 0.45957 0.15167 0.61498 0.30514 1.2257 0.46162 1.8292 0.024676 0.094706 0.049352 0.18759 0.074028 0.28108 0.57055 2.1837 1.1724 4.2909 1.8037 6.3247 1.3012 0.26348 2.6253 0.56338 3.9692 0.91003 11.521 2.976 26.312 9.8136 37.356 25.39 1.1965-12.042 1.1616-25.881 0.66565-39.678" fill="#005639"/>
<path d="m12.318 261.76c-1.1207-0.28529-2.2262-0.53634-3.3178-0.76277 0.0030305 0.009009 0.006061 0.018018 0.0090916 0.027027 0.039397 0.12132 0.078794 0.24385 0.1188 0.36397 0.17395 0.52493 0.35033 1.0427 0.52792 1.558 0.052731 0.15135 0.10546 0.30271 0.15819 0.45286 0.17819 0.50752 0.3576 1.012 0.54004 1.5105 0.046064 0.12553 0.092734 0.24925 0.1388 0.37418 0.83218 2.2505 1.7062 4.3971 2.6196 6.4427 0.050913 0.11472 0.10183 0.23123 0.15334 0.34595 0.19577 0.43364 0.39397 0.86127 0.59338 1.2859 0.07152 0.15195 0.14304 0.30451 0.21517 0.45586 0.19577 0.41082 0.39276 0.81743 0.59156 1.2192 0.073339 0.14775 0.14728 0.2943 0.22062 0.44085 0.20547 0.40902 0.41155 0.81563 0.62005 1.215 0.04364 0.084686 0.088491 0.16697 0.13274 0.24985 0.70551 1.3424 1.431 2.6301 2.1747 3.8691 0.070914 0.11772 0.14062 0.23664 0.21153 0.35436 0.20789 0.34115 0.41821 0.67749 0.62914 1.0114 0.097583 0.15496 0.19456 0.30992 0.29275 0.46307 0.20486 0.31892 0.41155 0.63424 0.61883 0.94656 0.10364 0.15676 0.2085 0.31112 0.31336 0.46547 0.20911 0.30931 0.41882 0.61682 0.63035 0.91893 0.095159 0.13574 0.19214 0.26847 0.2879 0.40301 0.73339 1.0276 1.4813 2.012 2.2438 2.955 0.10183 0.12613 0.20365 0.25466 0.30608 0.38019 0.20971 0.25466 0.42124 0.50331 0.63277 0.75136 0.13092 0.15376 0.26244 0.30811 0.39397 0.45946 0.20547 0.23544 0.41215 0.46788 0.62005 0.69851 0.14001 0.15496 0.28002 0.30811 0.42064 0.46067 0.20608 0.22343 0.41276 0.44565 0.62005 0.66307 0.14365 0.14955 0.2879 0.2961 0.43215 0.44385 0.20911 0.21382 0.41761 0.42823 0.62853 0.63604 0.13456 0.13334 0.27093 0.26006 0.40609 0.3904 0.39579 0.38259 0.794 0.75436 1.1958 1.1171 0.15941 0.14294 0.3176 0.28889 0.47761 0.42944 0.20001 0.17478 0.40124 0.34475 0.60247 0.51472 0.17153 0.14595 0.34366 0.2919 0.5164 0.43484 0.1988 0.16337 0.39882 0.32433 0.59883 0.48289 0.1788 0.14294 0.35881 0.28349 0.53883 0.42163 0.19698 0.15256 0.39518 0.30271 0.59338 0.45046 0.18971 0.14174 0.38003 0.27868 0.57035 0.41562 0.19214 0.13814 0.38366 0.27808 0.57701 0.41142 0.2182 0.15195 0.43821 0.2979 0.65884 0.44505 0.24729 0.16517 0.49579 0.32853 0.74551 0.48769 0.28911 0.18439 0.57822 0.36697 0.86976 0.54295 0.1782 0.10751 0.35821 0.20961 0.53762 0.31412 0.22062 0.12853 0.44064 0.25646 0.66247 0.38079 0.18668 0.1033 0.37397 0.20361 0.56186 0.30451 0.2188 0.11832 0.43882 0.23424 0.65884 0.34775 0.18607 0.095496 0.37336 0.18979 0.56004 0.28168 0.22911 0.11352 0.45943 0.22283 0.68975 0.33154 0.1788 0.084086 0.35821 0.16877 0.53762 0.25045 0.26608 0.12012 0.53277 0.23484 0.80006 0.34775 0.14547 0.062463 0.28911 0.12673 0.43518 0.18679 0.40306 0.16577 0.80794 0.32433 1.2146 0.47628 0.14183 0.052854 0.28487 0.1009 0.4273 0.15256 0.27941 0.099701 0.55883 0.1994 0.83946 0.2931 0.17213 0.057659 0.34487 0.11111 0.51761 0.16637 0.25638 0.081683 0.51337 0.16216 0.77097 0.23844 0.17698 0.051652 0.35397 0.1033 0.53155 0.15255 0.26063 0.073275 0.52307 0.14294 0.78551 0.21081 0.17032 0.044445 0.34063 0.089491 0.51216 0.13093 0.097583 0.024024 0.19577 0.043844 0.29336 0.067268 1.4892-4.8157 2.5256-10.389 3.2172-16.467-10.989-15.907-26.029-22.806-37.682-25.77" fill="#005639"/>
<g transform="translate(0 175)">
<mask id="c" fill="white">
<use xlink:href="#a"/>
</mask>
<path d="m47.084 24.335c-8.4662-10.249-18.744-16.079-26.971-19.346-8.295-3.2945-15.727-4.5297-19.877-4.9893-0.016329 0.49712-0.039915 0.99786-0.055034 1.4938-6.0477e-4 0.021798-0.0012095 0.044807-0.0018143 0.06721-0.058058 1.9794-0.10281 3.9521-0.13244 5.9163-6.0477e-4 0.015743-6.0477e-4 0.03088-6.0477e-4 0.045412-0.030238 1.9709-0.045358 3.9327-0.045358 5.8849v0.0078715c0 0.094458 0.0012095 0.1871 0.0012095 0.28277 0.0012095 1.2449 0.0066525 2.4813 0.018143 3.7044 0.0030238 0.29367 0.0090715 0.58128 0.0127 0.87374 0.012095 1.0263 0.024796 2.0514 0.044753 3.062 0.0042334 0.22888 0.011491 0.4517 0.016329 0.67937 0.022981 1.0699 0.047172 2.1368 0.079225 3.1892 0.0042334 0.15501 0.010886 0.30517 0.015724 0.46018 0.034472 1.1226 0.072572 2.2385 0.11672 3.3418 0.0036286 0.081742 0.007862 0.16106 0.010886 0.24281 0.048381 1.1735 0.101 2.3366 0.16026 3.4877 6.0477e-4 0.01756 0.0018143 0.035119 0.0024191 0.052073 0.15905 3.0923 0.36105 6.0937 0.5957 9.025 4.4063 0.48319 9.8402 1.4399 15.643 3.2963 10.574 3.3835 24.155 10.396 34.283 24.887-0.27336-6.8658-0.65073-13.695-1.036-20.257-0.51889-8.8258-1.553-17.233-2.8805-25.408" fill="#005639" mask="url(#c)"/>
</g>
<path d="m10.972 90c-0.18542 0.86518-0.37386 1.7249-0.55507 2.5968-0.0012041 0.00724-0.0030101 0.01448-0.0042142 0.02172-0.66825 3.2079-1.3088 6.4569-1.9205 9.7378-6.0203e-4 0.006033-0.0018061 0.01086-0.0030101 0.016893-0.61166 3.2833-1.195 6.6005-1.7477 9.943l-0.0018061 0.01086c-1.0228 6.1914-1.9367 12.473-2.7398 18.794 2.3666 0.40424 10.784 2.0809 20.475 6.8605 3.5459 1.7491 7.5139 4.0448 11.525 7.0186-2.6489-14.029-4.6542-28.63-4.8704-44.755-8.7564-5.9827-16.837-9.1061-20.158-10.245" fill="#005639"/>
<path d="m2.4342 139.53c-0.65516 6.1528-1.2 12.323-1.6256 18.469l-5.9941e-4 0.014056c-0.14146 2.0411-0.26973 4.0792-0.38422 6.1131 0 0.013445-0.0011988 0.026278-0.0017982 0.040334-0.11389 2.0253-0.21399 4.0462-0.3009 6.0605-5.9941e-4 0.023222-0.0017982 0.044612-0.0029971 0.066612-0.046754 1.0964-0.079122 2.186-0.11808 3.2787 4.1839 0.46873 11.713 1.7313 20.099 5.1224 7.8793 3.1858 17.624 8.7421 25.901 18.307-2.8598-17.138-6.8938-33.331-10.133-50.247-10.945-7.8138-23.448-8.5478-33.433-7.2247" fill="#005639"/>
<path d="m58.609 270.16 0.34903-16.02 0.060253-2.7593 0.01837-0.83114 0.33727-19.611c0.094054-6.8645 0.18296-13.729 0.26306-20.593 0.010287-0.86542 0.0169-1.7308 0.027187-2.5957 0.15357-13.521 0.26379-27.041 0.30788-40.561 0.0022043-0.83415 0.0022043-1.6677 0.0044087-2.5019 0.010287-4.0655 0.027187-8.1304 0.023514-12.195-0.060988-9.225-0.11977-18.45-0.19839-27.674-0.0073479-0.81491-0.015431-1.6298-0.023513-2.4441-0.027922-3.0353-0.046292-6.0706-0.083767-9.1059l-0.20942-19.611-0.15798-10.735-0.03674-2.4664-0.094054-6.4098c-0.16239-10.867-0.36666-21.735-0.59812-32.602-0.01837-0.83956-0.033801-1.6791-0.05217-2.5181-0.28363-12.973-0.62017-25.943-1.0133-38.914-0.072745-0.0042098-0.14622-0.011427-0.2197-0.015035-0.54522 24.688-0.89057 49.373-1.0559 74.057l-0.12785 19.61-0.047762 19.61c-0.057314 13.073-0.0051436 26.146 0.015431 39.219l-0.096258 39.218 0.030127 19.609 0.084501 19.61 0.16753 19.61 0.25718 19.611c0.19399 11.614 0.40193 23.229 0.73847 34.845 0.096993 0 0.19399 0 0.29024-0.003608 0.075684-1.9955 0.15284-3.9915 0.22044-5.9864 0.0338-0.97548 0.061723-1.9504 0.093319-2.9258 0.27996-8.6404 0.50774-17.28 0.72671-25.92" fill="#64CC75"/>
</g>
</g>
</svg>
