<svg viewBox="0 0 420 420" xmlns="http://www.w3.org/2000/svg"><g fill="none" fill-rule="evenodd"><path d="M249.68 125.325c-11.748-16.087-24.081-33.365-31.82-44.261-3.849-5.42-11.873-5.42-15.721 0-7.739 10.896-20.072 28.174-31.82 44.261-24.636 33.735-58.231 83.7-43.872 140.46 12.707 50.233 46.499 77.213 83.553 77.213s70.847-26.98 83.553-77.213c14.358-56.762-19.236-106.73-43.872-140.46" fill="#D76230"/><path d="M297 232.14c-.052-1.05-.117-2.096-.197-3.14-15.315 32.996-37.803 49.242-54.078 57.066-8.859 4.258-16.873 6.55-22.725 7.78.598.393 1.193.777 1.784 1.154 5.78-1.313 13.302-3.59 21.539-7.541 16.106-7.73 38.199-23.562 53.678-55.32M213.005 220.45c-.002.516-.002 1.034-.005 1.552 4.68-1.178 16.194-4.696 29.05-13.247 11.214-7.46 25.161-19.984 35.95-40.146-.288-.538-.575-1.075-.866-1.608-10.697 20.398-24.668 33.002-35.87 40.464-12.378 8.247-23.475 11.747-28.258 12.984M212.02 158c3.05-1.414 9.997-5.118 17.361-12.347 5.556-5.455 11.98-13.639 16.62-25.191-.355-.486-.709-.974-1.064-1.462-4.558 11.76-11.006 20.042-16.566 25.513-6.688 6.58-13.147 10.225-16.37 11.8l.02 1.687zM221.561 104.124c1.89-2.722 3.873-6.265 5.439-10.632L225.93 92c-3.794 11.28-10.834 17.748-13.932 20.16.012.614.021 1.227.032 1.84 1.662-1.173 5.68-4.331 9.53-9.876M212 342c14.111-.249 27.708-4.433 39.795-12.35 2.075-19.184-11.888-23.666-28.949-34.65-4.542 1.04-7.993 1.472-9.828 1.644-.267 15.12-.589 30.24-1.018 45.356M173.243 170.983c1.581-13.547.676-30.791-2.63-46.983l-.463.632c-8.772 11.974-18.678 26.003-27.15 41.66 8.506 16.49 19.12 27.933 28.748 35.708-.37-10.196.27-20.527 1.495-31.017M212.116 288.52c-.035 2.16-.078 4.32-.116 6.48 1.604-.155 4.378-.507 8-1.278-2.58-1.72-5.22-3.605-7.877-5.722l-.007.52" fill="#AA391B"/><path d="M209.194 214.11c-.002-1.14-.007-2.28-.008-3.419-.003-1.754.001-3.51.002-5.263.006-11.312.09-22.625.11-33.937l.266-39.21.383-55.277a9.946 9.946 0 0 0-1.008.013 2920.95 2920.95 0 0 0-1.46 36.125c-1.96-1.565-5.145-4.481-8.168-8.879-2.017-2.934-4.141-6.834-5.725-11.709l-1.062 1.495c4.255 12.048 11.967 18.749 14.897 20.95-.192 5.745-.375 11.49-.537 17.235l-.508 19.608-.084 4.458c-3.398-1.757-9.286-5.31-15.366-11.324-5.547-5.488-11.984-13.816-16.505-25.658l-1.054 1.458c4.603 11.633 11.016 19.864 16.558 25.336 6.665 6.581 12.986 10.228 16.334 11.885l-.256 13.458a2641.873 2641.873 0 0 0-.377 39.233c-.012 3.446-.015 6.89-.012 10.335-5.177-1.46-15.5-5.051-26.934-12.814a101.224 101.224 0 0 1-7.01-5.226c.025.669.047 1.338.08 2.005a102.223 102.223 0 0 0 6.151 4.521c11.856 8.037 22.564 11.668 27.718 13.087.039 20.397.36 40.792.874 61.179a90.15 90.15 0 0 1-8.877-9.612c-17.917-22.463-24.701-45.447-25.866-69.175-9.814-7.786-20.763-19.377-29.566-36.236-9.54 18.117-17.087 38.353-18.81 60.07 15.118 33.439 37.45 49.86 53.592 57.75 13.62 6.656 25.215 8.525 29.866 9.035l.047 1.53c-4.642-.493-16.539-2.355-30.504-9.168-15.976-7.795-37.927-23.803-53.214-56.005-.576 10.936.351 22.233 3.266 33.814 12.545 49.846 45.746 76.782 82.277 77.198.285.003.57.02.856.02.146 0 .292-.009.44-.01-.108-17.969-.266-35.93-.399-53.893-.215-24.999-.375-49.992-.408-74.985" fill="#AA391B"/><path d="M213.077 295.68c.042-2.184.09-4.368.13-6.553.004-.174.006-.35.009-.525.347-21.908.654-43.817.743-65.725l.006-1.566c.013-3.541.035-7.08.035-10.62-.116-13.071-.2-26.144-.394-39.217l-.169-13.062-.022-1.681-.063-4.866-.335-19.608c-.098-5.658-.21-11.317-.326-16.976-.013-.626-.023-1.253-.036-1.88a4716.754 4716.754 0 0 0-.906-36.345c-.3-.033-.6-.047-.9-.056l-.429 55.28-.296 39.213c-.024 11.313-.117 22.627-.124 33.94l.022 5.26-.015 3.423c.037 24.994.215 49.99.456 74.99.148 17.962.325 35.926.444 53.895.335 0 .668-.016 1.002-.02.48-15.257.84-30.515 1.138-45.774l.03-1.526" fill="#FC95A4"/></g></svg>