<svg viewBox="0 0 420 420" xmlns="http://www.w3.org/2000/svg" xmlns:xlink="http://www.w3.org/1999/xlink"><defs><path id="a" d="M0 0h203v312H0z"/></defs><g transform="translate(109 54)" fill="none" fill-rule="evenodd"><mask id="b" fill="#fff"><use xlink:href="#a"/></mask><path d="m167.11 162.27-2.11.427c-10.646 2.155-18.001-10.326-10.918-18.526l12.14-14.057a30.608 30.608 0 0 0 4.55-33.048l-.424-.9c-4.075-8.67-12.908-14.125-22.52-13.91l-5.89.133c-6.62.148-10.21-7.654-5.775-12.548l8.339-9.201a13.525 13.525 0 0 0 1.905-15.483c-3.11-5.8-9.945-8.547-16.226-6.52l-6.904 2.226c-5.363 1.73-10.67-2.791-9.78-8.334l2.567-16.015a13.544 13.544 0 0 0-5.417-13.096l-1.103-.803a13.678 13.678 0 0 0-16.087 0l-1.104.803a13.543 13.543 0 0 0-5.417 13.096l2.568 16.015c.888 5.543-4.418 10.063-9.78 8.334l-6.904-2.226c-6.282-2.027-13.118.72-16.226 6.52a13.527 13.527 0 0 0 1.904 15.483l8.339 9.2c4.435 4.895.845 12.698-5.775 12.549l-5.891-.133c-9.611-.215-18.443 5.24-22.52 13.91l-.423.9a30.61 30.61 0 0 0 4.55 33.048l12.141 14.057c7.083 8.2-.273 20.682-10.918 18.526l-2.11-.427c-14.63-2.963-29.153 5.516-33.7 19.673a45.775 45.775 0 0 0 8.49 43.378l5.729 6.85a131.452 131.452 0 0 0 43.208 33.807l7.805 3.809a38.057 38.057 0 0 1 19.58 22.609l3.768 11.793C92.257 308.84 96.596 312 101.5 312c4.903 0 9.243-3.159 10.729-7.811l3.767-11.793a38.06 38.06 0 0 1 19.58-22.61l7.805-3.808a131.452 131.452 0 0 0 43.208-33.807l5.73-6.85a45.775 45.775 0 0 0 8.488-43.378c-4.547-14.157-19.07-22.636-33.698-19.673" fill="#3CA1FF" mask="url(#b)"/><path d="m102.07 302.68-.068 2.319a.756.756 0 0 0 .215-.18c3.233-4.1 7.468-6.41 12.19-8.076l.595-1.744c-4.893 1.6-9.358 3.775-12.932 7.681M193.1 206.79c-6.379-1.795-12.975-3.65-25.215 1.99-6.534 3.01-11.165 9.909-16.068 17.212-4.209 6.27-8.56 12.752-14.229 16.637-5.193 3.558-11.029 4.84-16.675 6.077-6.302 1.383-12.303 2.708-16.871 7.023-.012.755-.027 1.512-.04 2.267 4.377-4.949 10.638-6.33 17.242-7.779 5.791-1.27 11.78-2.584 17.22-6.313 5.914-4.053 10.35-10.661 14.64-17.051 4.778-7.118 9.291-13.841 15.43-16.67 11.721-5.4 17.757-3.702 24.146-1.905 2.474.696 4.987 1.4 7.86 1.725.163-.503.316-1.01.462-1.518-2.902-.295-5.424-.998-7.902-1.695M144.58 185.66c-3.37 6.095-6.856 12.397-11.802 15.947-4.627 3.32-9.996 4.147-15.189 4.946-5.003.77-9.791 1.51-13.574 4.379l-.017 2.07c3.623-3.32 8.598-4.095 13.826-4.9 5.372-.826 10.928-1.681 15.856-5.217 5.23-3.756 8.802-10.215 12.257-16.462 3.7-6.692 7.194-13.012 12.362-15.6 9.972-4.996 15.444-3.237 21.236-1.376 4.166 1.338 8.45 2.715 14.463 1.655a29.374 29.374 0 0 0-1.356-1.389c-5.116.651-8.925-.567-12.636-1.76-5.831-1.875-11.862-3.812-22.398 1.467-5.599 2.804-9.208 9.33-13.028 16.24M139.42 145.81c2.59-6.2 5.038-12.055 9.192-14.379 7.707-4.311 12.485-2.917 17.361-1.147l.002-.003c.356-.424.694-.857 1.024-1.297-5.163-1.89-10.551-3.73-19.123 1.063-4.622 2.586-7.17 8.684-9.87 15.142-2.437 5.833-4.957 11.864-9.08 15.021-3.947 3.023-8.744 3.354-13.382 3.673-3.839.265-7.527.521-10.538 2.247l-.008 1.871c2.81-1.996 6.508-2.26 10.65-2.545 4.86-.335 9.887-.682 14.198-3.984 4.453-3.41 7.056-9.638 9.573-15.663M138 90.68c-3.75 2.356-5.275 7.964-6.889 13.901-1.484 5.46-3.02 11.105-6.35 13.814-3.276 2.666-7.549 2.48-11.677 2.302-2.807-.123-5.67-.244-8.086.625v1.68c2.159-.987 4.941-.87 8.02-.737 4.208.182 8.978.388 12.708-2.644 3.72-3.026 5.322-8.92 6.873-14.622 1.53-5.631 2.978-10.95 6.212-12.983 6.405-4.025 10.8-2.267 15.452-.407 4.062 1.624 8.258 3.296 13.736 1.008a24.537 24.537 0 0 0-.977-1.297c-4.717 1.808-8.359.363-12.195-1.172-4.8-1.92-9.765-3.903-16.826.533M104 76.332c.01.517.013 1.034.022 1.55 1.582-.327 3.613.046 5.84.458 3.735.69 7.97 1.472 11.041-1.262 2.918-2.6 3.401-7.997 3.87-13.217.423-4.728.862-9.62 3.166-11.324 4.642-3.43 8.589-1.8 12.767-.072 1.981.82 3.996 1.652 6.087 1.92a13.33 13.33 0 0 0 .208-1.534c-1.9-.234-3.78-1.007-5.714-1.807-4.18-1.728-8.92-3.687-14.251.254-2.86 2.116-3.31 7.123-3.785 12.425-.44 4.921-.896 10.01-3.36 12.204-2.514 2.24-6.194 1.56-9.754.901-2.12-.392-4.282-.789-6.137-.496M107.28 35.251c1.837.842 3.817 1.75 5.6 1.75.041 0 .08-.005.12-.007a10.851 10.851 0 0 1-.366-1.855c-1.466-.072-3.185-.857-4.873-1.63-1.658-.759-3.347-1.528-4.76-1.508l.045 1.844c1.11-.023 2.642.676 4.234 1.406M74.818 205.9c-1.856-.69-3.67-1.59-5.405-2.822-5.25-3.729-8.836-10.143-12.303-16.346-3.714-6.645-7.223-12.921-12.409-15.492-10.007-4.959-15.497-3.215-21.309-1.366-4.238 1.348-8.6 2.728-14.76 1.596a29.056 29.056 0 0 0-6.442 10.98 45.876 45.876 0 0 0-.39 26.724c3.188-.253 5.907-1.015 8.579-1.766 6.426-1.808 13.071-3.675 25.402 2.002 6.582 3.03 11.247 9.974 16.186 17.326 4.24 6.31 8.624 12.835 14.335 16.745 5.23 3.582 11.111 4.87 16.798 6.117 2.01.44 3.987.878 5.9 1.403-7.988-9.675-15.203-18.092-15.596-34.937-.094-4.056.448-7.307 1.414-10.165" fill="#0064D7"/><path d="M87.58 165.13c-4.92-.328-10.005-.668-14.368-3.903-4.506-3.342-7.14-9.444-9.688-15.347-2.622-6.074-5.1-11.812-9.303-14.088-7.776-4.21-12.606-2.865-17.525-1.138l.01.012 12.104 13.97c7.062 8.151-.272 20.556-10.885 18.413l-2.104-.425a29.303 29.303 0 0 0-25.82 7.3c5.247.713 9.127-.504 12.9-1.698 5.838-1.847 11.875-3.757 22.423 1.444 5.605 2.763 9.218 9.194 13.044 16.003 3.375 6.005 6.865 12.217 11.817 15.715 1.6 1.13 3.29 1.963 5.03 2.607 4.151-10.183 13.772-15.83 17.787-38.332-1.686-.281-3.506-.406-5.42-.534" fill="#0064D7"/><path d="M85.828 122.25c-3.14-.058-6.328-.572-8.99-2.682-3.755-2.977-5.374-8.779-6.938-14.39-1.546-5.542-3.006-10.777-6.27-12.778-6.466-3.96-10.902-2.231-15.597-.4-4.024 1.569-8.178 3.18-13.555 1.116a23.882 23.882 0 0 0-2.153 3.65l-.423.894a30.328 30.328 0 0 0 3.493 31.57c5.217-1.849 10.668-3.63 19.327 1.055 4.682 2.534 7.264 8.512 9.998 14.84 2.47 5.717 5.023 11.628 9.2 14.723 3.998 2.963 8.856 3.287 13.554 3.6 1.92.128 3.8.255 5.581.552.029-.175.058-.347.086-.525 2.918-18.673-2.114-30.968-7.313-41.226" fill="#0064D7"/><path d="M83.544 78.16a7.323 7.323 0 0 1-2.055-1.268c-3.004-2.634-3.502-8.1-3.984-13.387-.438-4.788-.888-9.74-3.262-11.467-4.775-3.475-8.837-1.82-13.136-.071-1.805.735-3.64 1.48-5.532 1.829a13.513 13.513 0 0 0 3.284 6.535l8.395 9.215c4.466 4.9.851 12.715-5.814 12.566l-5.93-.133A24.51 24.51 0 0 0 36 90.932c4.654 1.618 8.287.215 12.108-1.272 4.888-1.904 9.942-3.872 17.134.527 3.818 2.336 5.371 7.895 7.014 13.78 1.512 5.413 3.076 11.01 6.467 13.695 2.116 1.676 4.641 2.213 7.277 2.338-4.16-8.043-8.171-14.934-8.11-22.858.05-6.756 2.517-12.945 5.654-18.982M89.544 6a13.439 13.439 0 0 0-3.38 11.19l2.47 15.709a7.51 7.51 0 0 1 .037 2.1c1.272-.228 2.663-.727 4.034-1.222l.295-.106c-1.373-4.515-3.088-8.996-4.105-13.591-1.117-5.048-1.002-9.876.649-14.081" fill="#0064D7"/><path d="m93.258 35-.23.082c-1.658.587-3.423 1.208-5.082 1.398-1.318 3.575-5.325 5.844-9.366 4.54l-6.863-2.213c-6.243-2.014-13.039.717-16.129 6.481a13.412 13.412 0 0 0-1.55 7.363c1.683-.32 3.357-1.002 5.074-1.703 4.247-1.737 9.06-3.706 14.478.255 2.906 2.126 3.363 7.16 3.846 12.489.449 4.946.913 10.062 3.417 12.268A5.712 5.712 0 0 0 82.577 77c5.281-9.893 12.017-19.458 12.407-30.557.137-3.905-.638-7.691-1.726-11.443M103.57 273c-.164 7.667-.358 15.334-.574 23 1.869-7.824 3.096-14.844.574-23M88 295l2.798 8.68c1.147 3.562 3.978 6.245 7.457 7.32 1.409-1.723 2.012-4.008 2.462-6.206.092-.454.188-.9.283-1.346-3.478-4.33-7.996-6.71-13-8.448" fill="#0064D7"/><path d="m100.78 212.64-.057-19.471c.023-12.981-.01-25.961.06-38.942l.383-77.878.134-37.531-.002-1.406c-.006-1.023-.005-2.045-.008-3.068.01-.012.023-.022.031-.033.005-.64.008-1.28.01-1.92l-.045.022c-.025-10.801.033-21.602.085-32.405-.025-.001-.05-.004-.074-.004A1566.759 1566.759 0 0 0 99.86 32.31c-1.64-.534-3.865.198-6.066.975.154.496.303.992.447 1.49 2.33-.823 4.508-1.553 5.56-.755-.476 14.101-.799 28.207-1.028 42.312l-.003.183c-2.051-.571-4.571-.117-7.038.334-2.888.527-5.852 1.063-8.237.134-.246.46-.49.922-.728 1.384 2.833 1.174 6.2.564 9.246.009 2.652-.484 5.034-.918 6.732-.237-.214 12.381-.29 24.764-.38 37.148-.007 1.845-.009 3.688-.013 5.532-2.52-1.017-5.572-.894-8.562-.768-1.527.064-3.073.128-4.583.056.268.52.537 1.045.805 1.576 1.303.024 2.599-.029 3.845-.081 3.297-.139 6.259-.26 8.491.912-.017 10.577.019 21.153.064 31.73.009 3.708.037 7.415.07 11.122-1.58-.904-3.347-1.412-5.228-1.728-.083.52-.17 1.029-.26 1.53 2.068.346 3.929.936 5.507 2.065.02 2.162.041 4.324.064 6.486l.219 19.475c.09 5.726.183 11.454.282 17.18-3.812-2.89-8.649-3.628-13.706-4.396-3.413-.517-6.902-1.053-10.207-2.278a26.11 26.11 0 0 0-.543 1.46c3.434 1.273 7.012 1.821 10.515 2.353 5.293.803 10.33 1.574 13.975 4.932a4599.56 4599.56 0 0 0 .982 43.528c-3.181-3.07-7.068-4.67-11.28-5.823.59.712 1.184 1.432 1.78 2.161 3.656 1.214 6.956 2.948 9.564 5.99.078 2.815.16 5.63.246 8.443-1.42-2.876-3.29-5.926-5.732-9.226a137.531 137.531 0 0 0-4.079-5.207c-2.538-.844-5.247-1.44-8.018-2.044-5.837-1.276-11.873-2.595-17.36-6.338-5.96-4.069-10.432-10.704-14.757-17.12-4.817-7.147-9.367-13.897-15.556-16.738-11.816-5.423-17.902-3.719-24.343-1.913-2.669.748-5.386 1.502-8.542 1.792a45.77 45.77 0 0 0 8.415 15.154l5.73 6.844a131.48 131.48 0 0 0 43.215 33.775l7.808 3.805c9.352 4.557 16.426 12.717 19.583 22.587l.414 1.293c5.239 1.716 10.042 4.01 13.862 8.33.172-.773.345-1.533.517-2.284l.13 3.033c-.212-.26-.43-.503-.647-.75a204.07 204.07 0 0 0-.42 1.928c.169.211.342.414.506.635.147.199.38.316.629.316.008 0 .015-.003.024-.003.077 1.797.152 3.594.234 5.39-.656-25.965-.96-51.928-1.128-77.891l-.095-19.471z" fill="#0064D7"/><path d="M102.96 295.72c.23-7.51.44-15.018.617-22.527.118-5.039.22-10.078.318-15.116l.048-2.277c.149-7.893.284-15.787.397-23.681l.243-19.472.003-.283.02-2.05.175-17.14c.04-8.679.11-17.358.152-26.038.003-.613.008-1.228.01-1.843.017-3.688.03-7.376.031-11.065l.02-31.902v-1.66l.004-5.384c-.103-12.457-.187-24.914-.425-37.37-.01-.523-.015-1.045-.026-1.567v-.013c-.25-14.221-.602-28.442-1.119-42.66-.02-.516-.038-1.032-.057-1.549a1517.317 1517.317 0 0 0-1.52-32.12h-.087c-.01 10.796.012 21.59-.054 32.383l-.012 1.92c-.007 1.034-.01 2.067-.02 3.1l-.005 1.408-.157 37.531-.448 77.88c-.082 12.98-.043 25.961-.07 38.941l.066 19.472.113 19.472c.195 25.962.551 51.926 1.318 77.892.067-1.836.117-3.673.18-5.51l.08-2.484c.07-2.097.14-4.193.205-6.29" fill="#FC95A4"/></g></svg>