<?xml version="1.0" encoding="UTF-8"?>
<svg width="420px" height="420px" viewBox="0 0 420 420" version="1.1" xmlns="http://www.w3.org/2000/svg" xmlns:xlink="http://www.w3.org/1999/xlink">
    <title>5. Elements_Illustrations/2.Vector/Leaf 1</title>
    <defs>
        <path d="M276.10937,216.268989 L273.999364,216.695985 C263.353825,218.851479 255.998771,206.370373 263.081647,198.169799 L275.221669,184.113094 C283.137935,174.947893 284.91833,162.012443 279.77129,151.065292 L279.348041,150.164684 C275.272859,141.49547 266.440176,136.040231 256.828415,136.255904 L250.937879,136.388292 C244.31883,136.53684 240.728075,128.73405 245.163456,123.84006 L253.501723,114.63881 C257.349674,110.393083 258.111898,104.201321 255.406971,99.1562959 C252.297522,93.3573456 245.461853,90.6101472 239.181154,92.6363614 L232.276817,94.8627108 C226.913782,96.5924513 221.60818,92.0713833 222.496504,86.5291281 L225.064094,70.5139562 C225.87064,65.4819839 223.779363,60.42515 219.647373,57.4181487 L218.543678,56.6151215 C213.753091,53.1282928 207.247033,53.1282928 202.456447,56.6151215 L201.352752,57.4181487 C197.221386,60.42515 195.12886,65.4819839 195.936031,70.5139562 L198.50362,86.5291281 C199.391945,92.0713833 194.086343,96.5924513 188.723933,94.8627108 L181.819595,92.6363614 C175.538272,90.6101472 168.701979,93.3573456 165.593779,99.1562959 C162.888852,104.201321 163.651075,110.393083 167.498402,114.63881 L175.836669,123.84006 C180.27205,128.73405 176.681919,136.53684 170.062246,136.388292 L164.171086,136.255904 C154.559949,136.040231 145.72789,141.49547 141.65146,150.164684 L141.228834,151.065292 C136.081795,162.012443 137.862814,174.947893 145.778456,184.113094 L157.919102,198.169799 C165.001978,206.370373 157.645675,218.851479 147.001385,216.695985 L144.890755,216.268989 C130.2618,213.306116 115.73897,221.785139 111.191846,235.941912 C106.390023,250.896118 109.591238,267.255622 119.681184,279.320298 L125.410036,286.17027 C137.26165,300.342581 151.985492,311.862789 168.618328,319.977591 L176.423475,323.786376 C185.774295,328.348466 192.847183,336.516098 196.003451,346.395446 L199.771496,358.188509 C201.257864,362.840722 205.597109,366 210.500062,366 C215.40364,366 219.742885,362.840722 221.229253,358.188509 L224.996674,346.395446 C228.153566,336.516098 235.226454,328.348466 244.57665,323.786376 L252.381797,319.977591 C269.014633,311.862789 283.738475,300.342581 295.590088,286.17027 L301.319565,279.320298 C311.408886,267.255622 314.610726,250.896118 309.807654,235.941912 C305.261155,221.785139 290.738949,213.306116 276.10937,216.268989" id="path-1"></path>
    </defs>
    <g id="5.-Elements_Illustrations/2.Vector/Leaf-1" stroke="none" stroke-width="1" fill="none" fill-rule="evenodd">
        <mask id="mask-2" fill="white">
            <use xlink:href="#path-1"></use>
        </mask>
        <use id="Fill-1" fill="#3CA1FF" xlink:href="#path-1"></use>
        <g id="Group-38" mask="url(#mask-2)">
            <g transform="translate(108.999956, 54.000000)">
                <g id="Group-3" stroke-width="1" fill="none"></g>
                <path d="M102.068394,302.680983 C102.045403,303.454182 102.023656,304.226801 102.000044,305 C102.081442,304.951892 102.157247,304.893931 102.215655,304.819162 C105.448568,300.720165 109.683727,298.409842 114.405407,296.744045 L115.000044,295 C110.107491,296.599722 105.641809,298.774996 102.068394,302.680983" id="Fill-4" fill="#0064D7"></path>
                <path d="M193.098437,206.793555 C186.7198,204.998834 180.123773,203.142887 167.883033,208.783086 C161.34894,211.793665 156.718095,218.692395 151.815358,225.996204 C147.606907,232.265359 143.254768,238.747876 137.5859,242.632933 C132.39331,246.190835 126.5566,247.47163 120.910648,248.709752 C114.60881,250.09259 108.607354,251.417295 104.039683,255.73217 C104.027296,256.487907 104.012431,257.244263 104.000044,258 C108.376958,253.050602 114.638538,251.66962 121.241998,250.220608 C127.032876,248.949708 133.020706,247.636136 138.461655,243.907544 C144.375783,239.854888 148.811534,233.246827 153.101119,226.856458 C157.879987,219.7388 162.393156,213.015708 168.532107,210.186332 C180.253216,204.786708 186.289355,206.484334 192.678521,208.281529 C195.152186,208.977277 197.665489,209.681683 200.538632,210.006365 C200.700901,209.503572 200.853879,208.997067 201.000044,208.488707 C198.098412,208.19371 195.576438,207.49054 193.098437,206.793555" id="Fill-6" fill="#0064D7"></path>
                <path d="M144.581953,185.658793 C141.211732,191.75405 137.726498,198.055555 132.780274,201.605636 C128.153604,204.926276 122.784005,205.753145 117.591589,206.551803 C112.58817,207.322252 107.80048,208.060729 104.017452,210.930634 L104.000044,213 C107.623296,209.681241 112.598117,208.905777 117.825969,208.101477 C123.198055,207.274608 128.753541,206.419529 133.682357,202.883239 C138.913318,199.127538 142.484968,192.668684 145.93974,186.421719 C149.640082,179.730289 153.134642,173.409978 158.301568,170.821546 C168.274213,165.825855 173.745149,167.58491 179.537502,169.445521 C183.704117,170.783933 187.986989,172.160585 194.000044,171.100513 C193.561126,170.623449 193.111639,170.157042 192.644123,169.71195 C187.528176,170.363289 183.719037,169.144614 180.008126,167.952268 C174.177228,166.077238 168.146143,164.140146 157.61024,169.418565 C152.011857,172.222647 148.402904,178.749205 144.581953,185.658793" id="Fill-8" fill="#0064D7"></path>
                <path d="M139.421595,145.808502 C142.012207,139.609031 144.460125,133.753169 148.613592,131.429864 C156.320845,127.118669 161.098592,128.512651 165.974133,130.282398 L165.976593,130.279876 C166.332095,129.856196 166.670375,129.423059 167.000044,128.982987 C161.836658,127.09345 156.449392,125.252459 147.877371,130.045969 C143.255848,132.631552 140.70706,138.730147 138.008199,145.188114 C135.570736,151.020648 133.050241,157.051783 128.927527,160.209207 C124.98072,163.23234 120.183906,163.562709 115.545777,163.882361 C111.707219,164.147161 108.018734,164.403134 105.00804,166.128747 C105.006195,166.752918 105.002505,167.37709 105.000044,168 C107.809615,166.003913 111.507941,165.740374 115.649106,165.454768 C120.5105,165.119985 125.536729,164.773223 129.848265,161.47142 C134.301263,158.061175 136.904175,151.832701 139.421595,145.808502" id="Fill-10" fill="#0064D7"></path>
                <path d="M138.002366,90.6795005 C134.252734,93.0353337 132.727575,98.6436232 131.113535,104.580298 C129.62973,110.039778 128.094078,115.685741 124.764157,118.393819 C121.487318,121.059828 117.214897,120.873346 113.086289,120.695654 C110.279774,120.572588 107.415857,120.451405 105.000044,121.321029 L105.000044,123 C107.159092,122.013589 109.941536,122.130376 113.019629,122.263488 C117.228476,122.446203 121.998379,122.651523 125.72826,119.620083 C129.448266,116.594294 131.050578,110.699688 132.601044,104.998471 C134.131758,99.3669494 135.57853,94.0474881 138.812781,92.0150168 C145.217709,87.9902591 149.61234,89.7477157 154.264353,91.6081459 C158.326301,93.2318624 162.522803,94.9032985 168.000044,92.615905 C167.687729,92.1707329 167.361835,91.7387464 167.023597,91.3186898 C162.306158,93.1270053 158.664539,91.6816087 154.828495,90.1470521 C150.027731,88.2276006 145.063403,86.2434766 138.002366,90.6795005" id="Fill-12" fill="#0064D7"></path>
                <path d="M104.000044,76.3324773 C104.009205,76.8494339 104.01348,77.3663906 104.022031,77.8833473 C105.604422,77.555716 107.635086,77.9282199 109.861182,78.340064 C113.596994,79.0303641 117.831157,79.812868 120.903109,77.0787144 C123.820548,74.4791784 124.304243,69.0815608 124.77267,63.8615893 C125.195903,59.1327575 125.634404,54.2416467 127.939284,52.5377182 C132.580802,49.1065028 136.527925,50.7378976 140.705902,52.4657991 C142.686486,53.2845699 144.701272,54.116864 146.792398,54.3854848 C146.893778,53.8795926 146.957904,53.3669388 147.000044,52.8518262 C145.100076,52.6170135 143.220872,51.8443447 141.286091,51.0440146 C137.105672,49.3167278 132.367048,47.3577018 127.03541,51.2984974 C124.17538,53.4142701 123.726496,58.4215579 123.251351,63.7232834 C122.810407,68.6445142 122.354805,73.7329413 119.890526,75.9273947 C117.376777,78.1667207 113.697153,77.4868704 110.13662,76.8285344 C108.016179,76.4363604 105.854819,76.0392688 104.000044,76.3324773" id="Fill-14" fill="#0064D7"></path>
                <path d="M107.279282,35.2506506 C109.116193,36.092793 111.096567,37 112.880109,37 C112.920279,37 112.959301,36.9955638 113.000044,36.994085 C112.827314,36.4040678 112.704509,35.7822576 112.633351,35.1382664 C111.167725,35.0665475 109.447881,34.2820759 107.760173,33.5094343 C106.102305,32.7501013 104.41345,31.9804172 103.000044,32.0003801 C103.014965,32.6162753 103.030459,33.2306918 103.045379,33.8451083 C104.154641,33.8214484 105.686834,34.5208924 107.279282,35.2506506" id="Fill-16" fill="#0064D7"></path>
                <path d="M74.8182996,205.898051 C72.9621319,205.207718 71.1483909,204.307608 69.4132641,203.075716 C64.1623374,199.347048 60.5772821,192.932368 57.1101481,186.729333 C53.395941,180.084335 49.8876282,173.808469 44.7009654,171.237618 C34.693882,166.278924 29.2039932,168.02312 23.3915367,169.871892 C19.1532353,171.219566 14.7920211,172.600231 8.63141628,171.467936 C5.7775975,174.526191 3.54021355,178.233073 2.18942263,182.4479 C-0.633823976,191.256646 -0.686233415,200.550928 1.79884752,209.172307 C4.98708845,208.918957 7.70676402,208.157039 10.3783976,207.406325 C16.8041693,205.598637 23.4489376,203.73119 35.78013,209.40885 C42.3625061,212.439094 47.0275702,219.382883 51.966536,226.73502 C56.2067092,233.0445 60.5903845,239.569981 66.3017656,243.480415 C71.5321029,247.061555 77.4131908,248.350716 83.1002389,249.596925 C85.1098914,250.037642 87.0870999,250.474625 89.0000444,251 C81.0119723,241.325381 73.7969394,232.908177 73.4044925,216.063185 C73.3102803,212.007091 73.8524685,208.755866 74.8182996,205.898051" id="Fill-18" fill="#0064D7"></path>
                <path d="M87.5796947,165.134543 C82.6603648,164.80653 77.5742357,164.466781 73.2113178,161.231751 C68.7052515,157.889854 66.0706964,151.78734 63.5232751,145.884969 C60.9011677,139.810871 58.4234536,134.073433 54.2198663,131.796496 C46.4437898,127.586077 41.6140833,128.930866 36.6947534,130.658027 C36.6984877,130.661734 36.7015996,130.666058 36.7053339,130.670382 L48.8094747,144.64087 C55.8710533,152.791762 48.5374925,165.196933 37.9245859,163.054042 L35.8203027,162.629046 C26.2368206,160.694947 16.7000174,163.669297 10.0000444,169.928713 C15.2473712,170.642186 19.126696,169.424649 22.9002154,168.230584 C28.7388078,166.383584 34.7753185,164.473576 45.3228747,169.674828 C50.9280727,172.437915 54.5410168,178.869059 58.3668166,185.678251 C61.7420097,191.683782 65.2317216,197.895015 70.1834155,201.393197 C71.783567,202.523635 73.4739643,203.35633 75.2141523,204 C79.3648369,193.817407 88.9850397,188.16954 93.0000444,165.668258 C91.3140038,165.387192 89.4941505,165.262412 87.5796947,165.134543" id="Fill-20" fill="#0064D7"></path>
                <path d="M85.8278216,122.249068 C82.6871743,122.190985 79.4998005,121.676884 76.8376331,119.56734 C73.0826873,116.589632 71.4640796,110.788077 69.8996746,105.177455 C68.3539603,99.634804 66.8935998,94.4004898 63.6289714,92.3996978 C57.1638856,88.4388957 52.7279783,90.1684254 48.0328944,91.9992922 C44.0088037,93.5681653 39.8551248,95.180292 34.4778332,93.1152374 C33.6654142,94.2571347 32.935857,95.4700917 32.3246737,96.7652308 L31.9022656,97.6593463 C27.0028309,108.042085 28.3983973,120.219234 35.3949196,129.229596 C40.6120949,127.380809 46.0629029,125.599375 54.7216445,130.284986 C59.403022,132.818416 61.9854428,138.796694 64.7198806,145.125326 C67.1895346,150.84161 69.7426734,156.753153 73.9187811,159.848264 C77.9173279,162.811141 82.7756433,163.134926 87.4738423,163.448207 C89.392746,163.576114 91.2736455,163.702785 93.0548617,164 C93.0835206,163.824514 93.1128026,163.653353 93.1408385,163.475395 C96.0584444,144.802777 91.0269293,132.507607 85.8278216,122.249068" id="Fill-22" fill="#0064D7"></path>
                <path d="M82.5438512,79.1595933 C81.8198146,78.8608222 81.1284603,78.4518792 80.4886434,77.8910609 C77.4850232,75.2575179 76.9866196,69.7918736 76.5045571,64.505492 C76.0671184,59.7170622 75.6164811,54.7649308 73.2432503,53.0382826 C68.4678776,49.5625785 64.4058568,51.2170236 60.1068901,52.966702 C58.3011984,53.7018035 56.467224,54.4462415 54.5747987,54.7954303 C55.0373776,57.1775076 56.1410304,59.4456784 57.8587316,61.3310487 L66.2536583,70.5456483 C70.7191786,75.4467396 67.1046526,83.2608495 60.4399972,83.1120864 L54.5094343,82.9795067 C46.8492286,82.8083357 39.6905691,86.2056124 35.0000444,91.932059 C39.6534874,93.5497802 43.28624,92.1468008 47.1075437,90.6604144 C51.9960471,88.7563709 57.0498471,86.7882161 64.2418173,91.187621 C68.0599786,93.5236377 69.6130117,99.082648 71.2565494,104.967817 C72.7681013,110.380554 74.3318191,115.977533 77.7225977,118.662738 C79.8393988,120.338346 82.364099,120.875512 85.0000444,121 C80.8406056,112.957455 76.8288651,106.065801 76.8892015,98.141519 C76.9407388,91.3861793 79.4076166,85.1966374 82.5438512,79.1595933" id="Fill-24" fill="#0064D7"></path>
                <path d="M89.5436024,6 C86.806677,8.96785587 85.5183941,13.0861522 86.164037,17.1904261 L88.6336963,32.8996994 C88.74781,33.6215443 88.753816,34.3250993 88.6703328,35 C89.9423996,34.7719848 91.3333847,34.272668 92.7045502,33.7782286 C92.8030483,33.742868 92.9015463,33.7068976 93.0000444,33.671537 C91.6270772,29.1563479 89.9117691,24.6753001 88.8943559,20.0808544 C87.7778441,15.0334265 87.8925583,10.2048689 89.5436024,6" id="Fill-26" fill="#0064D7"></path>
                <path d="M93.2581078,35 C93.1811609,35.0271857 93.1048345,35.0543713 93.0272671,35.081557 C91.3698055,35.6685202 89.6056112,36.2900834 87.9456675,36.4803831 C86.6276411,40.0552981 82.6214368,42.3240655 78.5804823,41.0203892 L71.7173132,38.8072289 C65.4740633,36.7930182 58.6779125,39.5239419 55.5882454,45.2885388 C54.348407,47.6011739 53.8501137,50.1553908 54.0387577,52.6509113 C55.7210409,52.3314798 57.395257,51.6493667 59.1122903,50.9481001 C63.3586435,49.2106889 68.1727905,47.2415817 73.5901021,51.2026568 C76.4960895,53.3286994 76.9528067,58.3629904 77.4362071,63.6919988 C77.8848573,68.6385542 78.349021,73.7537844 80.8528987,75.9601483 C81.3797369,76.4253939 81.9605621,76.7590361 82.5773785,77 C87.8581714,67.107507 94.5947503,57.5424776 94.9844493,46.4426939 C95.120968,42.5384615 94.3459139,38.7522397 93.2581078,35" id="Fill-28" fill="#0064D7"></path>
                <path d="M103.574038,273 C103.410137,280.667301 103.215632,288.333967 103.000044,296 C104.868925,288.176107 106.096484,281.156096 103.574038,273" id="Fill-30" fill="#0064D7"></path>
                <path d="M88.0000444,295 L90.7977126,303.680798 C91.9445671,307.241895 94.7757063,309.925187 98.254793,311 C99.6637316,309.277431 100.266841,306.991895 100.71712,304.794264 C100.809323,304.340399 100.904684,303.894015 101.000044,303.448254 C97.5222208,299.117207 93.0036393,296.738778 88.0000444,295" id="Fill-32" fill="#0064D7"></path>
                <path d="M100.776885,212.637177 L100.720066,193.165854 C100.743168,180.185179 100.710076,167.204504 100.780007,154.22383 L101.162751,76.3453688 L101.296993,38.8141117 L101.294496,37.4076908 C101.288876,36.3850086 101.290125,35.3629473 101.287003,34.3402651 C101.296993,34.3284673 101.309481,34.3185323 101.318222,34.3067346 C101.322593,33.6665492 101.325715,33.0269847 101.328836,32.3867993 C101.312603,32.3936296 101.297617,32.4010808 101.282632,32.4085321 C101.257657,21.6073439 101.316349,10.8067766 101.367548,0.00372561823 C101.343197,0.00310468186 101.318222,0 101.293871,0 C100.697589,10.763932 100.231177,21.5334524 99.8571739,32.3066985 C98.2163045,31.7733142 95.9922647,32.5053981 93.7907025,33.2815686 C93.9449242,33.7776968 94.0941509,34.2738249 94.2383826,34.771195 C96.5679426,33.9484543 98.7464027,33.218854 99.7978579,34.0173782 C99.3220807,48.1182223 98.9992764,62.2246548 98.7701292,76.3292245 C98.7688804,76.3900762 98.768256,76.4515489 98.7670073,76.5117798 C96.7159205,75.9405183 94.1959248,76.3950437 91.7283769,76.8458435 C88.8406216,77.3723976 85.8773164,77.9088866 83.4915622,76.9799658 C83.2455567,77.4407006 83.0026731,77.9020563 82.7635357,78.364033 C85.5963456,79.5376027 88.9636244,78.9278432 92.0099721,78.3727261 C94.6617119,77.8883957 97.0437198,77.4549821 98.7420321,78.1361493 C98.5278699,90.5176206 98.4510712,102.900334 98.3624093,115.283668 C98.3549168,117.127849 98.3530436,118.971409 98.348673,120.81559 C95.8286772,119.797875 92.7767101,119.921442 89.7865566,120.047492 C88.2593243,120.110827 86.7139849,120.175405 85.2042353,120.103376 C85.4720941,120.6231 85.7405773,121.148412 86.0090605,121.679312 C87.3121405,121.703529 88.607728,121.650749 89.8539896,121.59797 C93.1507135,121.459501 96.1127699,121.337797 98.3449267,122.510746 C98.3280685,133.087776 98.3636581,143.664186 98.4086134,154.239353 C98.4173547,157.947585 98.4454518,161.655196 98.4785439,165.362807 C96.8994881,164.458103 95.1318697,163.950177 93.2512386,163.634741 C93.1675717,164.153844 93.0814073,164.663012 92.9914967,165.165349 C95.0588173,165.51059 96.9194683,166.10048 98.4978997,167.229342 C98.5185042,169.391442 98.5391087,171.552922 98.5615864,173.715022 L98.7807436,193.190071 C98.8700299,198.916346 98.9636868,204.643863 99.0623388,210.37138 C95.2511262,207.480921 90.414058,206.742628 85.3559595,205.975151 C81.943101,205.45729 78.4546926,204.922042 75.148603,203.696314 C74.9556698,204.171951 74.7739753,204.658765 74.6060172,205.156135 C78.0401046,206.429676 81.6184237,206.977963 85.1205684,207.509484 C90.4134336,208.312355 95.4503032,209.084179 99.0960553,212.441582 C99.2115655,219.006121 99.3389389,225.569419 99.48879,232.133337 C99.664865,240.078839 99.8602958,248.024341 100.07758,255.969222 C96.8969906,252.899312 93.0102281,251.299159 88.7981638,250.14608 C89.3882024,250.858294 89.9819874,251.57796 90.5770211,252.30756 C94.2333875,253.52149 97.5332333,255.255766 100.141267,258.297733 C100.219938,261.111817 100.302357,263.927142 100.387272,266.740605 C98.9674331,263.863807 97.0986652,260.813767 94.6560925,257.514732 C93.306184,255.691663 91.937544,253.97229 90.5770211,252.30756 C88.0382939,251.463707 85.3297355,250.868229 82.5587392,250.263437 C76.7220394,248.987413 70.6855382,247.668544 65.1997397,243.924919 C59.238164,239.856544 54.7663579,233.221218 50.4412809,226.805082 C45.6241929,219.658725 41.0743393,212.907905 34.8848651,210.067121 C23.0684827,204.644484 16.9832798,206.348954 10.5415563,208.154637 C7.87295822,208.902245 5.15565854,209.656061 2.00004443,209.946039 C3.78639424,215.404069 6.61046282,220.55722 10.4141829,225.099991 L16.1441138,231.943951 C27.997959,246.101922 42.7251988,257.611598 59.3605424,265.718544 L67.167784,269.523642 C76.5197405,274.081315 83.5939605,282.241039 86.7508233,292.110823 L87.164787,293.404234 C92.4039555,295.120502 97.2066828,297.414241 101.026637,301.733474 C101.198966,300.961029 101.371919,300.201624 101.544247,299.450291 C101.586705,300.460555 101.630412,301.471439 101.673494,302.482944 C101.462454,302.223393 101.243921,301.979986 101.026637,301.733474 C100.885527,302.368071 100.745042,303.01074 100.607054,303.660861 C100.775636,303.8726 100.948589,304.075025 101.112801,304.296078 C101.25953,304.494778 101.493048,304.612135 101.741551,304.612135 C101.750293,304.612135 101.757161,304.609651 101.765902,304.60903 C101.843325,306.406641 101.918251,308.20301 102.000044,310 C101.344446,284.033683 101.039749,258.071091 100.872415,232.1085 L100.776885,212.637177 Z" id="Fill-34" fill="#0064D7"></path>
                <path d="M102.962419,295.716429 C103.193286,288.207355 103.402967,280.698281 103.57904,273.189208 C103.697396,268.150248 103.799679,263.111289 103.897579,258.072951 C103.912921,257.314158 103.929725,256.555364 103.945067,255.79595 C104.094108,247.903133 104.229268,240.009074 104.34251,232.115015 L104.585798,212.643458 L104.58872,212.360308 L104.609177,210.309951 L104.783789,193.170038 C104.823971,184.491727 104.892647,175.812795 104.935752,167.133243 C104.938675,166.51975 104.943058,165.904395 104.94525,165.290281 C104.962054,161.601875 104.975204,157.913468 104.976665,154.225683 L104.995661,122.323452 L104.996391,120.663048 L105.000044,115.279465 C104.897761,102.822711 104.813012,90.3653353 104.57557,77.908581 C104.565341,77.3863673 104.560227,76.8641535 104.549268,76.3419397 C104.549268,76.3369722 104.549268,76.3326256 104.548538,76.3288999 C104.300136,62.1074233 103.947259,47.8865676 103.430729,33.6688166 C103.411003,33.1528123 103.392008,32.6368079 103.373012,32.1201827 C102.974108,21.4113853 102.479496,10.7044508 101.853378,0 C101.824154,0 101.795661,0 101.766437,0 C101.756209,10.7963505 101.778857,21.5895962 101.712373,32.3834629 C101.70872,33.023656 101.705067,33.6638491 101.699953,34.3034212 C101.693378,35.3366717 101.690455,36.3699223 101.680958,37.4031728 L101.675113,38.8114734 L101.518035,76.3425607 L101.070181,154.221957 C100.988355,167.202788 101.027807,180.183619 101.000044,193.16445 L101.066528,212.636007 L101.17904,232.108184 C101.374108,258.070467 101.730638,284.033992 102.497761,310 C102.564245,308.163248 102.613926,306.326496 102.676757,304.489744 C102.704519,303.661405 102.730821,302.833687 102.757853,302.005348 C102.827259,299.909042 102.897396,297.812735 102.962419,295.716429" id="Fill-36" fill="#FF97A6"></path>
            </g>
        </g>
    </g>
</svg>