<?xml version="1.0" encoding="UTF-8"?>
<svg version="1.1" viewBox="0 0 420 420" xmlns="http://www.w3.org/2000/svg">
<title>5. Elements_Illustrations/2.Vector/Leaf 2</title>
<g fill="none" fill-rule="evenodd">
<g transform="translate(123 77)">
<path d="m126.68 48.325c-11.748-16.087-24.081-33.365-31.82-44.261-3.8486-5.4194-11.873-5.4194-15.721 0-7.7389 10.896-20.072 28.174-31.82 44.261-24.636 33.735-58.231 83.7-43.872 140.46 12.707 50.233 46.499 77.213 83.553 77.213s70.847-26.98 83.553-77.213c14.358-56.762-19.236-106.73-43.872-140.46" fill="#D76230"/>
<path d="m174 155.14c-0.051871-1.0499-0.11671-2.0961-0.1968-3.1392-15.315 32.995-37.803 49.241-54.078 57.065-8.8592 4.2587-16.873 6.5498-22.725 7.7804 0.59804 0.39306 1.1923 0.77706 1.7834 1.1542 5.7805-1.313 13.302-3.5897 21.539-7.5415 16.106-7.729 38.199-23.562 53.678-55.319" fill="#AA391B"/>
<path d="m90.005 143.45c-0.0015209 0.51647-0.0022814 1.0337-0.0045628 1.5517 4.6791-1.1773 16.194-4.6956 29.05-13.247 11.214-7.4591 25.161-19.984 35.95-40.146-0.28822-0.53752-0.57567-1.0743-0.86693-1.6073-10.697 20.398-24.668 33.002-35.87 40.464-12.378 8.247-23.475 11.747-28.258 12.984" fill="#AA391B"/>
<path d="m89.02 81c3.0506-1.4137 9.9974-5.1181 17.361-12.347 5.5564-5.4546 11.98-13.639 16.62-25.191-0.35482-0.48646-0.70889-0.97369-1.0637-1.4617-4.558 11.759-11.006 20.042-16.566 25.513-6.6885 6.5806-13.147 10.225-16.371 11.799l0.019755 1.6878z" fill="#AA391B"/>
<path d="m98.561 27.124c1.8905-2.7224 3.8729-6.2654 5.4386-10.632-0.35734-0.49862-0.71838-1.0032-1.0683-1.4921-3.7943 11.281-10.834 17.748-13.932 20.161 0.011862 0.61288 0.020758 1.2258 0.031879 1.8394 1.6621-1.1731 5.6796-4.3317 9.5295-9.8759" fill="#AA391B"/>
<path d="m89 265c14.111-0.24876 27.708-4.4327 39.795-12.35 2.0747-19.184-11.888-23.666-28.949-34.65-4.5417 1.0402-7.9927 1.4723-9.8283 1.6444-0.26685 15.12-0.58857 30.239-1.0178 45.356" fill="#AA391B"/>
<path d="m50.243 93.983c1.5814-13.547 0.6758-30.791-2.6306-46.983-0.15421 0.20926-0.30917 0.42154-0.46263 0.63231-8.7718 11.974-18.678 26.003-27.15 41.659 8.5064 16.491 19.12 27.934 28.748 35.709-0.36889-10.196 0.27062-20.527 1.4952-31.017" fill="#AA391B"/>
<path d="m89.116 211.52c-0.035134 2.1603-0.07849 4.3206-0.11587 6.4802 1.6034-0.15527 4.3782-0.50707 8-1.2782-2.5805-1.7192-5.2207-3.605-7.8767-5.7218-0.0029901 0.17252-0.0052326 0.3473-0.0074752 0.51982" fill="#AA391B"/>
<path d="m86.194 137.11c-0.0015055-1.1392-0.0067748-2.2798-0.0075275-3.419-0.0037638-1.7542 7.527e-4 -3.5092 0.0015055-5.2635 0.006022-11.312 0.089578-22.625 0.11065-33.937l0.26572-39.209 0.3824-55.277c-0.33648-0.013652-0.67221-0.0075199-1.0079 0.012893-0.56005 12.039-1.0493 24.08-1.4603 36.125-1.9594-1.5654-5.1443-4.4815-8.1674-8.8789-2.0174-2.9344-4.1416-6.8349-5.7254-11.709-0.34928 0.49146-0.70608 0.99278-1.0621 1.4941 4.2553 12.048 11.967 18.749 14.897 20.95-0.19195 5.7451-0.37487 11.49-0.53671 17.235l-0.50811 19.608-0.084308 4.4588c-3.3979-1.7573-9.2859-5.3097-15.366-11.324-5.5463-5.488-11.984-13.816-16.505-25.658-0.35154 0.48691-0.70232 0.97154-1.0539 1.4577 4.6038 11.633 11.016 19.864 16.558 25.336 6.6656 6.5809 12.986 10.228 16.334 11.885l-0.25518 13.458c-0.22733 13.076-0.34401 26.154-0.37713 39.233-0.012797 3.4455-0.015808 6.8903-0.012044 10.335-5.1774-1.46-15.501-5.0511-26.934-12.814-2.2402-1.5214-4.594-3.2597-7.0096-5.2256 0.024088 0.66817 0.045918 1.3371 0.079039 2.0045 2.1137 1.6769 4.1763 3.1816 6.1515 4.521 11.856 8.0371 22.564 11.668 27.718 13.087 0.03839 20.397 0.35982 40.792 0.87394 61.179-2.9982-2.8085-5.9776-5.9772-8.8772-9.6123-17.917-22.463-24.701-45.447-25.866-69.175-9.8144-7.786-20.763-19.377-29.566-36.236-9.5396 18.117-17.087 38.353-18.81 60.07 15.118 33.439 37.451 49.861 53.592 57.75 13.62 6.656 25.215 8.5255 29.866 9.0351l0.047423 1.5297c-4.6422-0.49298-16.539-2.3549-30.504-9.1671-15.976-7.7951-37.927-23.803-53.214-56.005-0.57661 10.936 0.35078 22.233 3.2654 33.814 12.545 49.846 45.746 76.782 82.277 77.198 0.28529 0.003034 0.56983 0.018961 0.85588 0.018961 0.14679 0 0.29282-0.008343 0.43961-0.00986-0.10689-17.968-0.26572-35.93-0.39821-53.892-0.21529-24.999-0.37487-49.992-0.40799-74.985" fill="#AA391B"/>
<path d="m90.077 218.68c0.042061-2.1837 0.09001-4.3681 0.13039-6.5525 0.0033649-0.17445 0.0058885-0.35118 0.0084122-0.52562 0.34742-21.908 0.65447-43.817 0.74364-65.725 0.0025236-0.52335 0.0033648-1.0444 0.0058885-1.5663 0.012618-3.5406 0.03449-7.0796 0.03449-10.619-0.11609-13.072-0.19937-26.145-0.39369-39.218l-0.16909-13.062-0.021872-1.6808-0.063092-4.8656-0.33481-19.608c-0.098423-5.6582-0.20946-11.317-0.32639-16.976-0.012618-0.6265-0.022713-1.253-0.036172-1.8795-0.25405-12.117-0.55857-24.232-0.90599-36.346-0.29947-0.032614-0.59979-0.046267-0.90011-0.056127l-0.42818 55.281-0.29611 39.212c-0.024395 11.313-0.11693 22.627-0.1245 33.94 0.007571 1.7536 0.015142 3.5072 0.021872 5.2608l-0.015142 3.4222c0.037855 24.994 0.21535 49.99 0.45678 74.99 0.14721 17.962 0.32471 35.926 0.44416 53.895 0.33481 0 0.66709-0.01517 1.0011-0.020479 0.48034-15.256 0.83954-30.514 1.1382-45.773 0.010095-0.50894 0.02103-1.0179 0.030284-1.5261" fill="#FC95A4"/>
</g>
</g>
</svg>
