<svg viewBox="0 0 420 420" xmlns="http://www.w3.org/2000/svg" xmlns:xlink="http://www.w3.org/1999/xlink"><defs><path id="a" d="M0 0h113v305H0z"/><path id="c" d="M0 0h51v70H0z"/></defs><g transform="translate(154 57)" fill="none" fill-rule="evenodd"><mask id="b" fill="#fff"><use xlink:href="#a"/></mask><path d="M75.441 232.6c11.939-9.84 25.65-13.573 36.346-14.852.793-9.162 1.213-19.124 1.213-29.937 0-15.6-.972-31.864-2.733-48.011-10.69-1.4-24.27-.53-35.79 8.568 11.218-10.104 24.38-14.469 34.887-16.295-3.397-27.218-8.974-53.743-15.857-75.795-4.833-.299-13.338.403-21.427 7.974 6.947-6.907 14.202-11.88 19.175-14.892C81.248 19.905 68.866-.004 56.5-.004c-12.353 0-24.72 19.863-34.722 49.263 4.978 3 12.317 8.007 19.343 14.992-8.18-7.655-16.784-8.427-21.589-8.1-6.902 22.082-12.495 48.662-15.899 75.938 10.493 1.836 23.607 6.205 34.79 16.28-11.483-9.07-25.015-9.964-35.69-8.582C.971 155.939 0 172.207 0 187.81c0 10.759.415 20.676 1.2 29.8 10.86 1.139 25.168 4.77 37.567 14.99-12.153-8.76-26.136-9.567-36.91-8.309 6.371 57.42 28.42 80.704 54.643 80.704 26.26 0 48.335-23.349 54.67-80.949-10.604-1.022-24.018.11-35.729 8.553" fill="#009F70" mask="url(#b)"/><path d="M57.075 296.09c-.026.97-.048 1.94-.075 2.91a.602.602 0 0 0 .113-.164c10.68-24.123 29.535-33.454 43.473-37.034a73.214 73.214 0 0 1 1.986-.478c.143-.439.287-.876.428-1.323-.88.192-1.77.4-2.668.63-13.763 3.527-32.223 12.56-43.257 35.46M59.049 251.24l-.05 2.759c9.903-20.66 26.473-29.717 38.82-33.684 5.155-1.655 10.01-2.582 14.082-3.093.034-.405.066-.816.099-1.223-4.178.51-9.184 1.452-14.503 3.157-12.134 3.889-28.26 12.608-38.448 32.084M58.022 208.4 58 210.998c9.135-17.737 23.792-26.582 34.792-30.912 7.836-3.084 14.915-4.358 19.208-4.882l-.042-1.206c-4.36.526-11.582 1.813-19.573 4.953-10.781 4.236-25.005 12.73-34.363 29.45M60.004 164.53 60 166.996c14.21-26.854 42.74-33.635 49-34.82l-.148-1.18c-2.917.54-10.699 2.27-19.567 6.636-9.143 4.503-21.135 12.703-29.28 26.898M59 122.58l.019 2.423c12.264-22.792 36.012-32.419 42.98-34.827-.085-.391-.17-.782-.257-1.173C94.98 91.324 71.796 100.627 59 122.58M58 80.544 58.03 83C66.795 66.455 82.306 55.392 91 50.162c-.133-.389-.266-.776-.4-1.162-8.44 5.05-23.48 15.666-32.6 31.544M77 17.015A76.028 76.028 0 0 0 76.332 16C70.002 22.038 62.96 29.87 58 38.559l.044 2.44c4.86-9.233 12.29-17.6 18.956-23.985M55.068 93.669l.1-19.61C55.299 49.375 55.572 24.69 56 0h-.103a3472.833 3472.833 0 0 0-1.434 40.258c-3.469-7.056-8.206-13.598-12.965-19.179-.078.5-.161 1.006-.247 1.519 4.946 5.892 9.806 12.815 13.138 20.238a3950.838 3950.838 0 0 0-.801 31.199l-.13 6.55c-5.166-9.572-12.36-17.247-19.028-22.957-.075.452-.15.905-.224 1.361 6.856 5.952 14.2 13.988 19.204 24.033l-.21 10.624-.281 19.615c-.038 2.812-.07 5.623-.1 8.434-5.985-10.508-14.207-18.085-21.818-23.367.003.487.01.97.017 1.453 7.726 5.474 15.996 13.35 21.778 24.302-.092 9.47-.143 18.94-.164 28.411-.01 3.705-.012 7.41-.009 11.113-4.833-8.362-10.928-14.606-16.924-19.215.11.606.224 1.208.336 1.812 6.13 4.876 12.044 11.326 16.594 19.818.025 13.476.142 26.949.334 40.422a64.19 64.19 0 0 0-7.015-10.102c.126.77.254 1.54.376 2.316a63.73 63.73 0 0 1 6.675 10.313c.11 7.33.238 14.66.387 21.988l.465 19.39a67.72 67.72 0 0 0-3.78-6.335c.03.757.057 1.515.084 2.273a68.205 68.205 0 0 1 3.779 6.833l.517 17.057c.296 8.617.614 17.233.989 25.847-1.793-3.854-3.784-7.321-5.925-10.432-.06.614-.122 1.224-.187 1.828 2.23 3.385 4.289 7.17 6.1 11.42a.58.58 0 0 0 .14.193c.09 1.989.192 3.976.29 5.965h.116c-.265-11.618-.43-23.232-.582-34.846l-.202-19.61-.132-19.61-.067-19.61-.024-19.61.076-39.217c-.016-13.072-.057-26.145-.012-39.218l.038-19.61z" fill="#005639"/><path d="m43.779 8-.06.055c-.003.001-.004.004-.006.005-.4.377-.798.77-1.195 1.174l-.153.154c-.38.389-.76.79-1.139 1.202l-.198.217c-.377.415-.754.84-1.13 1.278l-.16.187c-.393.462-.785.932-1.176 1.417l-.005.007c-.393.488-.785.99-1.175 1.502-.046.06-.092.12-.14.18l-.242.33A146.65 146.65 0 0 1 42.89 21c.976-5.035 1.407-9.373.889-13M36.439 17l-.105.166-.162.264c-.324.53-.647 1.068-.969 1.618l-.134.23a109.49 109.49 0 0 0-2.012 3.625c-.037.069-.074.137-.11.207a130.891 130.891 0 0 0-2.05 4.047l-.122.254a155.732 155.732 0 0 0-1.95 4.2l-.1.22a181.868 181.868 0 0 0-1.97 4.6l-.119.288c-.312.761-.624 1.53-.933 2.31l-.001.002c-.314.791-.625 1.592-.936 2.402-.028.075-.058.15-.086.227-.297.776-.591 1.561-.884 2.354l-.132.356c-.29.788-.578 1.584-.864 2.388l-.11.307c-.23.653-.46 1.314-.69 1.977A110.527 110.527 0 0 1 34.797 58C37.244 44.087 40.32 32.361 42 22.904a133.698 133.698 0 0 0-5.561-5.905M30.779 93.17c.247-12.382 1.558-23.669 3.22-33.84-5.793-3.162-11.201-3.51-14.641-3.269a365.952 365.952 0 0 0-4.864 17.652l-.004.012A427.718 427.718 0 0 0 11 88.881C14.205 89.996 22.094 93.084 30.749 99a221.39 221.39 0 0 1 .03-5.83M3 132.34c9.936 1.741 22.205 5.745 33 14.662-.027-.136-.052-.273-.08-.41-14.22-10.856-29.52-14.007-32.876-14.59L3 132.34M50.675 246.32c-9.994-15.348-23.86-22.638-34.571-26.09-5.595-1.803-10.833-2.748-15.105-3.232l.03.38c10.816 1.148 25.068 4.815 37.416 15.131-12.103-8.844-26.03-9.658-36.762-8.387l.002.018c.29 2.647.613 5.22.966 7.725l.034.233c.104.734.212 1.461.322 2.183l.079.518c.108.7.22 1.394.332 2.083l.083.495c.119.71.24 1.416.363 2.113l.03.165a186.527 186.527 0 0 0 2.337 11.148l.112.46c.152.615.305 1.226.462 1.83l.074.28c.57 2.184 1.172 4.291 1.804 6.325 1.3.263 2.625.563 3.969.91 11.52 2.976 26.312 9.813 37.356 25.39 1.196-12.042 1.161-25.881.665-39.678" fill="#005639"/><path d="M12.318 261.76A75.985 75.985 0 0 0 9 260.997l.01.027a137.967 137.967 0 0 0 .647 1.922l.157.453c.178.508.358 1.012.54 1.51l.139.375c.832 2.25 1.706 4.397 2.62 6.442a94.425 94.425 0 0 0 .747 1.632 91.682 91.682 0 0 0 .807 1.675 87.537 87.537 0 0 0 .84 1.656c.043.085.088.167.133.25a78.218 78.218 0 0 0 2.174 3.87c.071.117.14.236.212.354.208.34.418.677.629 1.01.097.156.194.31.293.464a75.626 75.626 0 0 0 1.562 2.331c.095.136.192.268.288.403a61.732 61.732 0 0 0 2.244 2.955c.102.126.204.255.306.38.21.255.421.503.633.752a58.038 58.038 0 0 0 2.055 2.282c.143.149.287.295.432.443.209.214.417.428.628.636.135.133.271.26.406.39.396.383.794.755 1.196 1.118.16.143.318.289.478.43.2.174.4.344.602.514.172.146.344.292.516.435a43.799 43.799 0 0 0 1.138.904 40.494 40.494 0 0 0 1.164.866c.192.138.384.278.577.412.218.152.438.298.659.445a41.598 41.598 0 0 0 1.615 1.03c.178.108.358.21.538.314.22.129.44.257.662.381.187.104.374.204.562.305a38.356 38.356 0 0 0 1.909.96c.178.085.358.17.537.251.266.12.533.235.8.348.146.062.29.127.435.187.403.165.808.324 1.215.476.142.053.285.1.427.153.28.1.56.199.84.293.172.057.345.11.517.166a39.312 39.312 0 0 0 1.303.391c.26.073.523.143.785.21.17.045.341.09.513.132.097.024.195.044.293.067 1.49-4.816 2.526-10.389 3.217-16.467-10.989-15.907-26.029-22.806-37.682-25.77" fill="#005639"/><g transform="translate(0 175)"><mask id="d" fill="#fff"><use xlink:href="#c"/></mask><path d="M47.084 24.335C38.618 14.086 28.34 8.256 20.113 4.989 11.818 1.695 4.386.459.236-.001.22.498.196.999.181 1.495l-.002.067C.121 3.54.076 5.513.047 7.477v.045C.015 9.493 0 11.455 0 13.407v.008l.001.283c.001 1.245.007 2.481.018 3.704.003.294.01.582.013.874.012 1.026.025 2.052.045 3.062.004.229.011.452.016.68.023 1.07.047 2.136.08 3.189.003.155.01.305.015.46.034 1.122.072 2.238.117 3.342l.01.242c.049 1.174.101 2.337.16 3.488l.003.052c.16 3.093.361 6.094.596 9.025 4.406.483 9.84 1.44 15.643 3.297C27.292 48.496 40.873 55.509 51 70c-.274-6.866-.65-13.695-1.036-20.257-.52-8.826-1.553-17.233-2.88-25.408" fill="#005639" mask="url(#d)"/></g><path d="M10.972 90c-.185.865-.374 1.725-.555 2.597l-.004.022a471.766 471.766 0 0 0-1.92 9.737l-.004.017c-.611 3.284-1.195 6.6-1.747 9.943l-.002.011A509.32 509.32 0 0 0 4 131.121c2.366.404 10.784 2.081 20.475 6.86A75.39 75.39 0 0 1 36 145.002c-2.649-14.03-4.654-28.63-4.87-44.756C22.372 94.262 14.291 91.14 10.97 90M2.434 139.53A502.42 502.42 0 0 0 .81 157.999l-.001.014c-.141 2.041-.27 4.08-.384 6.113l-.002.04a464.882 464.882 0 0 0-.3 6.061l-.004.067C.071 171.39.04 172.48 0 173.572c4.184.469 11.713 1.732 20.099 5.123 7.88 3.186 17.624 8.742 25.901 18.307-2.86-17.138-6.894-33.331-10.133-50.247-10.945-7.814-23.448-8.548-33.433-7.225" fill="#005639"/><path d="m58.609 270.16.349-16.02.06-2.76.019-.83.337-19.611c.094-6.865.183-13.73.263-20.593.01-.866.017-1.731.027-2.596.154-13.521.264-27.041.308-40.561l.004-2.502c.01-4.066.028-8.13.024-12.195-.061-9.225-.12-18.45-.198-27.674l-.024-2.444c-.028-3.035-.046-6.07-.084-9.106l-.21-19.611-.157-10.735-.037-2.466-.094-6.41a5132.135 5132.135 0 0 0-.598-32.602l-.052-2.518c-.284-12.973-.62-25.943-1.013-38.914-.073-.005-.147-.012-.22-.015-.545 24.688-.89 49.373-1.056 74.057l-.128 19.61-.048 19.61c-.057 13.073-.005 26.146.016 39.219L56 191.71l.03 19.609.085 19.61.168 19.61.257 19.61c.194 11.615.402 23.23.738 34.846.097 0 .194 0 .29-.004.076-1.995.153-3.991.221-5.986.034-.976.062-1.95.093-2.926.28-8.64.508-17.28.727-25.92" fill="#64CC75"/></g></svg>