<?xml version="1.0" encoding="UTF-8"?>
<svg width="420px" height="420px" viewBox="0 0 420 420" version="1.1" xmlns="http://www.w3.org/2000/svg" xmlns:xlink="http://www.w3.org/1999/xlink">
    <title>5. Elements_Illustrations/2.Vector/Leaf 3</title>
    <defs>
        <path d="M144.000213,164.981926 C144.000213,221.509518 104.722655,263.999313 84.1874794,282.350859 C77.2518472,288.550187 66.7490751,288.550187 59.812024,282.350859 C39.277558,263.999313 0,221.509518 0,164.981926 C0,102.726579 47.6399043,28.8346182 65.4167186,3.42866396 C68.6156513,-1.14288799 75.3845616,-1.14288799 78.5834942,3.42866396 C96.3603086,28.8346182 144.000213,102.726579 144.000213,164.981926" id="path-1"></path>
        <polygon id="path-3" points="0 0 73 0 73 287 0 287"></polygon>
    </defs>
    <g id="5.-Elements_Illustrations/2.Vector/Leaf-3" stroke="none" stroke-width="1" fill="none" fill-rule="evenodd">
        <g id="Group-57" transform="translate(137.999787, 65.999751)">
            <g id="Group-3"></g>
            <mask id="mask-2" fill="white">
                <use xlink:href="#path-1"></use>
            </mask>
            <use id="Fill-1" fill="#00547A" xlink:href="#path-1"></use>
            <g id="Group" mask="url(#mask-2)">
                <g transform="translate(0.000213, 0.000249)">
                    <path d="M75.0099489,171.585916 C75.0063957,172.057277 75.0035532,172.528639 75,173 C79.4009475,172.539895 90.6133082,170.807114 103.76996,164.500017 C114.728624,159.2468 128.051424,149.962387 140.388716,133.827053 C140.260092,133.217801 140.13431,132.609252 140,132 C127.664129,148.505388 114.219101,157.917842 103.213534,163.203422 C90.3368721,169.387402 79.376786,171.116665 75.0099489,171.585916 Z" id="Fill-4" fill="#002F33"></path>
                    <path d="M99.42809,141.12874 C88.5135765,146.95664 79.0558357,148.947358 75.0028205,149.579969 C75.0028205,150.054251 75.0007051,150.526422 75,151 C79.08122,150.380759 88.8069054,148.384412 100.030965,142.40311 C110.193824,136.986865 123.183498,127.38019 134,110.727541 C133.811029,110.151928 133.622057,109.574909 133.428855,109 C122.667352,125.973528 109.605051,135.694903 99.42809,141.12874" id="Fill-6" fill="#002F33"></path>
                    <path d="M96.0461207,118.036824 C86.8192467,123.576223 78.6765197,125.775794 75,126.55497 C75.0035222,127.036412 75.00634,127.517854 75.0098623,128 C78.637775,127.270094 87.0002901,125.097974 96.7111206,119.280549 C105.673122,113.910781 117.057723,104.521253 126,88.6498541 C125.77035,88.0987296 125.540699,87.5490129 125.308935,87 C116.449784,103.168429 105.010235,112.65509 96.0461207,118.036824" id="Fill-8" fill="#002F33"></path>
                    <path d="M92.7082749,95.7854928 C85.085554,101.16426 78.2012623,103.586781 75,104.510429 L75.016129,106 C78.1374474,105.145035 85.3078541,102.734677 93.4481066,97.003192 C100.863254,91.7818239 110.120617,82.9424153 117,68.636954 C116.738429,68.0896333 116.475456,67.5437435 116.212482,67 C109.429173,81.6009429 100.126928,90.5512465 92.7082749,95.7854928" id="Fill-10" fill="#002F33"></path>
                    <path d="M74,80.5159646 L74.0219011,82 C79.0669236,80.1580625 97.2080925,72.147906 107,49.5609285 C106.709634,49.0380559 106.419974,48.5186784 106.129608,48 C96.9184329,70.242357 79.4795119,78.4300664 74,80.5159646" id="Fill-12" fill="#002F33"></path>
                    <path d="M75.0254402,59 C76.9822726,58.0162116 81.9183582,55.2032472 87.0957819,49.6322509 C90.7887358,45.66 93.9235299,39.760123 96.9151595,31.5702091 C96.608502,31.0422878 96.3045948,30.5200738 96,30 C90.0126155,47.3700369 79.0573675,55.1904059 75,57.401968 C75.0089384,57.9348831 75.0165017,58.4677983 75.0254402,59 Z" id="Fill-14" fill="#002F33"></path>
                    <path d="M82.7020569,27.4743705 C84.5431861,24.9201752 86.4746375,21.5954016 88,17.499353 C87.6582205,16.992137 87.3214991,16.4925849 86.9869454,16 C83.1334361,27.1148602 75.7891517,33.2850602 73,35.3041704 C73.0130064,35.8699114 73.0223999,36.4349557 73.0354063,37 C74.3288212,36.1639295 78.6129871,33.1464119 82.7020569,27.4743705" id="Fill-16" fill="#002F33"></path>
                    <path d="M116,247 C115.355064,247.808047 114.699263,248.60855 114.031044,249.399832 C114.022507,249.599329 114.012418,249.798826 114,250 C114.669771,249.011735 115.337214,248.01425 116,247" id="Fill-18" fill="#002F33"></path>
                    <path d="M140.207362,197.748962 C140.877768,195.207218 141.476245,192.622345 142,190 C133.034714,212.48613 121.466716,226.784238 111,235.808668 C111.268861,236.202479 111.53004,236.597704 111.77376,237 C121.255818,228.85652 131.625465,216.468786 140.207362,197.748962" id="Fill-20" fill="#002F33"></path>
                    <path d="M99,225.009694 C99.3881878,225.341464 99.7707599,225.67109 100.149822,226 C100.332334,225.897752 100.512739,225.799794 100.696654,225.696116 C113.160782,218.623114 131.227007,203.626717 144,177 C144.144605,175.630732 143.899619,174.387858 144,173 C131.219285,201.561568 112.879294,217.130148 100.084539,224.406215 C99.7202182,224.612857 99.3601091,224.810918 99,225.009694 Z" id="Fill-22" fill="#002F33"></path>
                    <path d="M144,161 C131.109015,184.869534 113.660623,198.472938 101.330601,204.999055 C94.7983512,208.456393 88.793615,210.567242 84,211.857717 C84.3923252,212.243441 84.7839536,212.624911 85.1748851,213 C89.9002091,211.674072 95.6701076,209.586623 101.906894,206.292366 C114.064795,199.87048 131.113893,187.834318 144,165 C143.994425,164.066178 144.02648,161.938785 144,161 Z" id="Fill-24" fill="#002F33"></path>
                    <path d="M75.0156485,193.588395 C75.0099581,194.05893 75.0056904,194.529465 75,195 C79.2556852,194.572305 90.6200647,192.888913 103.995279,186.494553 C115.783591,180.857966 130.013865,171.428117 143,153 C142.926736,152.282961 142.850628,151.565219 142.767406,150.846776 C129.767757,169.856389 115.325516,179.506055 103.438334,185.200231 C90.359019,191.464667 79.2514174,193.150868 75.0156485,193.588395 Z" id="Fill-26" fill="#002F33"></path>
                    <path d="M60,77.9528905 C52.746437,73.0315059 43.610471,64.4033001 37.6372749,50 C34.7373755,55.4687631 31.8333147,61.2058349 29,67.1466491 C36.2736771,83.0156035 46.6338293,92.4781491 55.3217362,98 C56.2629377,93.4251211 57.349793,88.8445029 58.5510907,84.2488193 C59.0775255,82.2379387 59.5595704,80.130926 60,77.9528905" id="Fill-28" fill="#002F33"></path>
                    <path d="M74,253 C77.0524616,252.649735 87.1278959,250.97519 99.1332646,243.452169 C102.487541,241.349847 106.170243,238.66765 110,235.261524 C107.625396,231.68063 104.313136,228.424408 100.459569,225 C88.0214359,232.111332 77.8346593,233.750777 74.3655391,234.116398 C74.2562975,240.411663 74.1351514,246.706197 74,253" id="Fill-30" fill="#002F33"></path>
                    <path d="M74.3039056,214.09844 C74.2871031,215.326863 74.2717617,216.556672 74.2542287,217.785095 C74.1760607,222.523397 74.0891262,227.261698 74,232 C77.5811183,231.620104 87.7897162,230.042288 100,223.800347 C95.5955606,220.295321 90.5964597,216.553899 85.5075021,212 C80.3469514,213.34974 76.3830289,213.889081 74.3039056,214.09844" id="Fill-32" fill="#002F33"></path>
                    <path d="M72.4188249,273.98525 C72.2939491,278.323738 72.1473253,282.662226 72,287 C76.116691,286.86732 80.1969015,285.330089 83.472435,282.356206 C90.2844782,276.173041 99.1822274,267.257099 108,256 C104.77568,258.980303 101.299503,261.740899 97.5462146,264.198329 C84.8509792,272.512219 74.6006431,273.79907 72.4188249,273.98525" id="Fill-34" fill="#002F33"></path>
                    <path d="M74.1644037,201 C74.1130275,205.000229 74.0565138,209.000457 74,213 C75.933945,212.80311 79.4444037,212.323576 84,211.197119 C80.6957798,208.204665 77.3724771,204.852733 74.1644037,201" id="Fill-36" fill="#002F33"></path>
                    <path d="M62.2448786,29.2004743 C59.9250379,26.2728795 57.6118485,22.5535714 55.8647624,18 C53.0963255,22.024135 50.1098725,26.4898158 47,31.3314732 C50.9656786,41.7960379 57.4004836,48.7240513 62.7821593,53 C63.1893693,45.1114676 63.0341713,37.0066964 62.2448786,29.2004743" id="Fill-38" fill="#002F33"></path>
                    <path d="M56,17.5574257 C57.6785298,21.4068143 59.863769,24.5452499 62,27 C61.3208868,22.5015092 60.3573512,18.1313757 59.0918903,14 C58.094224,15.1365939 57.0615519,16.3243976 56,17.5574257" id="Fill-40" fill="#002F33"></path>
                    <path d="M51.5333471,121.133167 C50.2980893,120.475416 49.0318621,119.760716 47.7410002,118.97839 C38.787317,113.547669 27.4116839,104.051558 18.4770047,88 C15.7692915,94.5817867 13.2459872,101.303808 11,108.09488 C21.7428714,125.26547 34.7817033,135.09971 44.9403787,140.596634 C47.3820364,141.917832 49.748382,143.040423 52,144 C51.128633,136.338333 51.0286862,128.727208 51.5333471,121.133167" id="Fill-42" fill="#002F33"></path>
                    <path d="M46.9338655,33 C44.0269384,37.9014159 41.0209521,43.1569594 38,48.6921915 C42.8596066,60.7383135 49.8807013,68.6064518 55.6639111,73.444992 C57.2852052,74.8022404 58.8751425,75.9759206 60.3938141,77 C61.679447,70.3843172 62.5674173,63.13265 63,55.6569429 C57.6679019,51.2961138 51.0907925,44.0719096 46.9338655,33" id="Fill-44" fill="#002F33"></path>
                    <path d="M74.4717722,254.555005 C74.3325142,260.703574 74.1762041,266.85143 74,273 C76.3048631,272.769473 86.4742545,271.340636 98.7218594,263.393529 C104.842109,259.422474 110.227702,254.651355 114.971713,249.423465 C115.201915,244.573839 114.01609,240.594933 111.81567,237 C107.883051,240.350846 104.101058,242.992268 100.65442,245.064154 C87.9307802,252.714359 77.5340287,254.255249 74.4717722,254.555005" id="Fill-46" fill="#002F33"></path>
                    <path d="M51.4062073,96.3683197 C43.8618824,91.1465683 34.4439622,82.3065111 27.4440216,68 C24.5173316,74.0159613 21.676259,80.2322637 19,86.5866586 C27.9727094,103.022511 39.5596052,112.66608 48.6379095,118.136826 C49.747369,118.805108 50.8404186,119.424734 51.9127772,120 C52.4664368,112.89361 53.5466437,105.800099 55,98.6929936 C53.8291813,97.9860752 52.6291099,97.2147614 51.4062073,96.3683197" id="Fill-48" fill="#002F33"></path>
                    <path d="M44.9925581,142.576003 C34.5697775,137.177484 21.2478831,127.600304 10.1554644,111 C7.72784527,118.205507 5.63504523,125.481161 4,132.740682 C16.5727096,149.222438 30.9019538,158.612324 42.1209241,163.881772 C48.3675055,166.816024 54.1621174,168.738756 59,170 C56.0191701,162.00604 54.1086042,154.105375 53.061481,146.260127 C50.5029715,145.241591 47.7940465,144.026644 44.9925581,142.576003" id="Fill-50" fill="#002F33"></path>
                    <g id="Group-54" stroke-width="1" fill="none">
                        <mask id="mask-4" fill="white">
                            <use xlink:href="#path-3"></use>
                        </mask>
                        <g id="Clip-53"></g>
                        <path d="M72.0155795,89.9278786 L72.1092998,71.5677129 C72.235214,47.7158334 72.5220982,23.8618231 73,0.00426154717 L72.9399046,0 C72.299602,11.9216782 71.7451501,23.8461974 71.2708254,35.7735577 C69.5724139,34.5263449 66.051823,31.6213903 62.7372736,26.8711857 C62.5763037,26.6403519 62.4139029,26.3910514 62.2515021,26.1474329 C62.3588154,27.0771605 62.4596899,28.0104393 62.5498331,28.9494002 C66.3172445,33.9503258 70.0717784,36.6990237 71.2085837,37.468233 C70.9374388,44.3932471 70.6963416,51.3196818 70.4759917,58.2468267 C68.8169284,57.3582941 66.1212189,55.7325139 63.0699447,53.1833984 C63.0413279,53.7686509 63.0105647,54.3531931 62.9762245,54.9363148 C66.1727293,57.4946636 68.9192338,59.0551002 70.4280585,59.8228889 C70.3050059,63.7257558 70.1776608,67.6293331 70.0703475,71.5336205 L69.8321121,80.9125756 C67.7058783,80.07092 64.2883081,78.5062219 60.3599268,75.9123602 C60.2633448,76.3960458 60.1646166,76.8761802 60.0637421,77.3534734 C64.1924416,80.0417994 67.7266256,81.6143103 69.7941947,82.4133504 L69.6046079,89.895917 L69.3492023,103.650061 C66.3573081,102.737379 61.1790848,100.826075 55.2389372,97.2009191 C55.1287622,97.7151458 55.0243106,98.2293725 54.9184282,98.7421787 C61.0853645,102.431968 66.3751937,104.294975 69.3220163,105.144443 L69.2640671,108.261765 C69.1603309,114.322395 69.0830654,120.383025 69.0272625,126.443656 C65.488786,125.631121 59.149433,123.788712 51.8227978,119.892948 C51.7820188,120.411436 51.7534019,120.929924 51.7183463,121.448412 C59.2095284,125.363354 65.548166,127.147521 69.017962,127.911049 C68.9678825,133.607317 68.9335422,139.305005 68.9185184,145.002694 C68.9135104,146.418238 68.9149412,147.834492 68.912795,149.250036 C65.4759084,148.658391 59.4320246,147.292565 52.1926709,144.264026 C52.2549126,144.803822 52.3171543,145.342907 52.3872657,145.884124 C59.5608006,148.805414 65.5245571,150.118681 68.9106487,150.686887 C68.9042099,157.810063 68.9313959,164.93395 68.9957839,172.055705 C66.5998361,171.760238 62.8717729,171.150837 58.2623099,169.921381 C58.4597663,170.462597 58.6758237,171.005234 58.8825807,171.546451 C63.2208987,172.652322 66.7278966,173.208454 69.0093769,173.484744 C69.0701878,179.847234 69.1581847,186.208304 69.2683596,192.570083 C68.8641463,191.919487 68.4627946,191.260368 68.0664509,190.584912 C64.2990395,184.169153 61.2785284,177.829392 58.8825807,171.546451 C53.8195402,170.257332 47.6318567,168.222444 40.9405161,165.005686 C29.9079958,159.70219 15.8800042,150.328917 3.45956544,134.038443 C2.38070929,139.184261 1.5264956,144.315164 0.937703417,149.404872 C14.0299233,168.657122 29.5874868,179.277607 41.564364,185.034247 C53.9418774,190.984788 64.532267,192.835009 69.2840989,193.398244 C69.2919686,193.875537 69.3019845,194.35141 69.3098541,194.827993 C64.5072272,194.271861 53.6220838,192.409565 40.9405161,186.313422 C29.0838298,180.613602 13.7659326,170.218979 0.703760473,151.583233 C0.370373891,154.890193 0.14930854,158.178687 0.0563036995,161.438061 C13.2916079,185.348181 30.1297765,197.972305 42.7884507,204.509518 C54.9148511,210.771861 65.2820291,212.634158 69.7033361,213.173243 L69.7383918,214.605123 C65.292045,214.080243 54.645137,212.220787 42.1975123,205.805028 C29.7155473,199.372933 13.2379513,187.125957 0.00908585748,164.252813 C0.00693959194,164.49359 -0.000214626555,164.735788 -0.000214626555,164.976565 C-0.000214626555,168.007946 0.120691666,170.996711 0.33889533,173.944991 C13.3824665,202.356726 31.0862956,216.831782 44.1491831,224.055814 C56.1668393,230.701697 66.3480076,232.502201 70.2799661,232.973102 L70.3243223,234.415635 C66.4016643,233.984509 56.0065848,232.238695 43.4530776,225.296635 C30.7500473,218.270764 13.725869,204.506677 0.708768426,178.058095 C1.13158274,181.971615 1.74112215,185.804167 2.50733895,189.5593 C9.97348137,207.866197 23.1372434,230.313186 45.4433812,243.567308 C57.6384621,250.814779 67.8403776,252.4434 71.0161352,252.792137 L71.0719381,254.230409 C67.9448292,253.926419 57.4932314,252.384449 44.708643,244.786821 C32.7238962,237.665775 16.7170477,223.801542 4.34168057,197.333072 C9.46982439,216.394263 18.5656978,233.163451 28.4800138,247.095159 C33.7047395,253.118145 39.7471925,258.61128 46.7375793,263.081643 C59.8433922,271.461265 70.53251,272.515998 71.9225747,272.619695 C71.946899,273.095568 71.970508,273.571441 71.9948323,274.047314 C71.0969779,274.001147 59.9986387,273.248984 45.9627775,264.275586 C42.135986,261.828038 38.5917862,259.08005 35.3044228,256.113303 C44.2958446,267.321882 53.3688245,276.198685 60.3155706,282.3552 C63.8461774,285.484596 68.2932397,287.029407 72.7317168,287 C72.7953894,287 72.8590619,286.992474 72.9227344,286.991053 C72.3596974,264.134955 72.1200311,241.28667 71.9898243,218.439095 L71.9354523,200.078929 L71.9268672,181.720184 L72.0399039,145.004114 C72.0098562,132.765661 71.9533378,120.525787 71.9912552,108.286624 L72.0155795,89.9278786 Z" id="Fill-52" fill="#002F33" mask="url(#mask-4)"></path>
                    </g>
                    <path d="M75.6561223,193.49309 C75.7404439,186.858976 75.8100298,180.224863 75.8665171,173.590749 C75.8706104,173.115565 75.8747037,172.63967 75.8779783,172.163775 C75.936103,165.053767 75.9729425,157.943758 75.9844037,150.83446 C75.9852224,150.357145 75.9876784,149.87983 75.9876784,149.401094 C75.9893157,147.935764 76.0007769,146.471145 75.9999582,145.005816 C75.9541134,139.370371 75.9148179,133.734215 75.8689731,128.09948 C75.8648798,127.612221 75.8607865,127.126382 75.8575119,126.640543 C75.8059365,120.52068 75.7445372,114.399396 75.6569409,108.280243 L75.62092,105.367341 L75.6029096,103.888517 L75.4301729,89.9178117 L75.308193,82.6394644 L75.2828147,81.1315176 L75.1231765,71.5553804 C75.0585026,67.7006336 74.9799116,63.8458867 74.9054138,59.9904296 C74.8947712,59.4605529 74.885766,58.9299658 74.8751235,58.3993788 C74.7367704,51.4158021 74.5861375,44.4315151 74.4150382,37.4472281 C74.4003024,36.8711825 74.3896598,36.2951369 74.374924,35.7183809 C74.0785702,23.813201 73.7290036,11.9087314 73.327043,0.00497203386 C73.2942968,0 73.2607318,0 73.2279855,0 C72.6811226,23.8593699 72.3520225,47.714478 72.2079389,71.5674553 L72.1006948,89.9277558 L72.0728605,108.287346 C72.0294717,120.527073 72.0941456,132.76751 72.1285292,145.006526 L72,181.724996 L72.0090052,200.083876 L72.0720418,218.444887 C72.2202187,241.293513 72.4944688,264.14356 73.1387519,287 C73.24354,287 73.3475095,286.990766 73.4522976,286.987925 C73.6233969,282.668648 73.7944962,278.348661 73.9402171,274.028674 C73.9565903,273.551359 73.9713261,273.073333 73.9868806,272.596018 C74.1890889,266.477575 74.3691934,260.359132 74.5304689,254.239269 C74.5427487,253.760533 74.5517539,253.281797 74.5648524,252.802351 C74.7220346,246.68888 74.8644809,240.574699 74.9913728,234.459808 C75.0020153,233.981072 75.0102019,233.500916 75.0200258,233.02218 C75.1199019,228.167344 75.2173221,223.312508 75.3040997,218.457672 C75.3237475,217.199037 75.3409393,215.939692 75.3605871,214.680347 C75.3671363,214.204452 75.3736856,213.727847 75.3810535,213.251953 C75.4440901,209.110959 75.5071267,204.969255 75.5644327,200.82755 C75.5914484,198.859335 75.6135521,196.888989 75.6389305,194.920774 C75.6446611,194.444879 75.6503917,193.968985 75.6561223,193.49309" id="Fill-55" fill="#0097B8"></path>
                </g>
            </g>
        </g>
    </g>
</svg>