<svg viewBox="0 0 420 420" xmlns="http://www.w3.org/2000/svg" xmlns:xlink="http://www.w3.org/1999/xlink"><defs><path id="a" d="M0 0h144v287H0z"/><path id="c" d="M0 0h73v287H0z"/></defs><g transform="translate(138 66)" fill="none" fill-rule="evenodd"><mask id="b" fill="#fff"><use xlink:href="#a"/></mask><path d="M144 164.98c0 56.528-39.278 99.017-59.813 117.37-6.936 6.2-17.438 6.2-24.375 0C39.278 263.998 0 221.509 0 164.98 0 102.725 47.64 28.83 65.417 3.43c3.199-4.572 9.968-4.572 13.167 0 17.777 25.406 65.417 99.298 65.417 161.55" fill="#00547A" mask="url(#b)"/><path d="M103.21 163.2c-12.877 6.184-23.837 7.913-28.204 8.383l-.01 1.414c4.401-.46 15.613-2.193 28.77-8.5 10.96-5.254 24.893-14.538 37.23-30.673-.129-.61-.254-1.218-.389-1.828-12.336 16.505-26.392 25.918-37.398 31.203M99.428 141.13c-10.915 5.828-20.372 7.819-24.425 8.451 0 .474-.002.947-.003 1.42 4.081-.619 13.807-2.615 25.031-8.597 10.163-5.416 23.153-15.023 33.97-31.676-.19-.575-.379-1.152-.572-1.727-10.762 16.974-23.824 26.695-34.001 32.129M96.046 118.04c-9.227 5.54-17.37 7.739-21.046 8.518l.01 1.445c3.628-.73 11.99-2.902 21.7-8.72 8.963-5.37 20.348-14.758 29.29-30.63-.23-.552-.46-1.101-.691-1.65-8.86 16.168-20.3 25.655-29.263 31.037M92.708 95.785c-7.623 5.379-14.507 7.801-17.708 8.725l.016 1.49c3.121-.855 10.292-3.266 18.432-8.997 7.415-5.222 16.673-14.061 23.552-28.366a393.33 393.33 0 0 0-.787-1.637c-6.784 14.6-16.086 23.55-23.504 28.785M74 80.516 74.022 82c5.045-1.842 23.186-9.852 32.978-32.439-.29-.523-.58-1.042-.87-1.56C96.918 70.241 79.48 78.43 74 80.515M75 57.402 75.025 59c1.957-.984 6.893-3.797 12.07-9.368C90.788 45.66 95.008 39.76 98 31.57c-.306-.528-.61-1.05-.915-1.57C91.097 47.37 79.057 55.19 75 57.402M82.702 27.474A42.348 42.348 0 0 0 88 17.499l-1.013-1.5C83.133 27.116 75.789 33.286 73 35.305c.013.565.022 1.13.035 1.695 1.294-.836 5.578-3.853 9.667-9.525M116 247c-.645.808-1.3 1.609-1.969 2.4-.009.2-.019.399-.031.6.67-.988 1.337-1.986 2-3M140.21 197.75c.67-2.542 1.269-5.127 1.793-7.749-8.966 22.486-20.533 36.784-31 45.809.268.394.53.789.773 1.191 9.482-8.143 19.852-20.53 28.434-39.25M100.08 224.41c-.364.207-.724.405-1.085.603.389.332.771.662 1.15.99l.547-.303c12.464-7.073 29.168-20.93 41.941-47.557.145-1.37.262-2.751.362-4.14-12.78 28.563-30.12 43.13-42.915 50.407M143 164.81a126.46 126.46 0 0 0-.047-2.81c-12.89 23.87-29.293 36.473-41.623 42.999-6.532 3.457-12.537 5.568-17.33 6.859.392.385.783.767 1.174 1.142 4.726-1.326 10.495-3.413 16.732-6.708 12.158-6.422 28.207-18.648 41.093-41.482M103.44 185.2c-13.079 6.264-24.187 7.95-28.423 8.388L75.001 195c4.256-.428 15.62-2.111 28.995-8.506 11.788-5.636 27.02-15.913 40.005-34.34-.073-.718-.149-1.435-.232-2.154-13 19.01-28.442 29.506-40.33 35.2M60 77.953C52.746 73.032 43.61 64.403 37.637 50A451.84 451.84 0 0 0 29 67.147C36.273 83.016 46.634 92.479 55.322 98a267.672 267.672 0 0 1 3.23-13.751c.526-2.01 1.008-4.118 1.448-6.296" fill="#002F33"/><path d="M74 253c3.053-.35 13.128-2.025 25.133-9.548 3.354-2.102 7.037-4.784 10.867-8.19-2.375-3.581-5.687-6.837-9.54-10.262-12.438 7.11-22.625 8.75-26.094 9.116-.11 6.295-.23 12.59-.366 18.884M74.304 214.1c-.017 1.228-.032 2.458-.05 3.687-.078 4.738-.165 9.476-.254 14.215 3.581-.38 13.79-1.958 26-8.2-4.404-3.505-9.403-7.246-14.492-11.8-5.16 1.35-9.124 1.89-11.204 2.098M72.419 273.99c-.125 4.338-.272 8.677-.419 13.015a17.86 17.86 0 0 0 11.472-4.644c6.812-6.183 15.71-15.099 24.528-26.356-3.224 2.98-6.7 5.741-10.454 8.199-12.695 8.313-22.946 9.6-25.127 9.786M74.164 201c-.051 4-.108 8-.164 12 1.934-.197 5.444-.676 10-1.803-3.305-2.992-6.628-6.344-9.836-10.197M62.245 29.2a42.592 42.592 0 0 1-6.38-11.2A507.472 507.472 0 0 0 47 31.331C50.966 41.796 57.4 48.724 62.782 53c.407-7.888.252-15.993-.537-23.8M56 17.557c1.679 3.85 3.864 6.988 6 9.443-.68-4.499-1.643-8.869-2.908-13A493.954 493.954 0 0 0 56 17.557M51.533 121.13a78.403 78.403 0 0 1-3.792-2.155c-8.954-5.43-20.33-14.927-29.264-30.978-2.708 6.582-5.231 13.304-7.477 20.095 10.743 17.171 23.782 27.005 33.94 32.502a84.157 84.157 0 0 0 7.06 3.404c-.872-7.662-.972-15.273-.467-22.867" fill="#002F33"/><path d="M46.934 33A506.818 506.818 0 0 0 38 48.692c4.86 12.046 11.881 19.914 17.664 24.753A56.995 56.995 0 0 0 60.394 77C61.68 70.384 62.568 63.133 63 55.657 57.668 51.297 51.091 44.072 46.934 33M74.472 254.56c-.14 6.149-.296 12.296-.472 18.445 2.305-.23 12.474-1.66 24.722-9.607 6.12-3.97 11.506-8.742 16.25-13.97.23-4.85-.955-8.828-3.156-12.422-3.932 3.35-7.714 5.992-11.16 8.064-12.725 7.65-23.12 9.19-26.184 9.49M51.406 96.368C43.862 91.146 34.444 82.306 27.444 68A377.273 377.273 0 0 0 19 86.587c8.973 16.436 20.56 26.079 29.638 31.55A75.744 75.744 0 0 0 51.913 120c.554-7.106 1.634-14.2 3.087-21.307a68.676 68.676 0 0 1-3.594-2.324M44.993 142.58c-10.423-5.399-23.745-14.976-34.837-31.576-2.428 7.206-4.52 14.481-6.156 21.741 12.573 16.482 26.902 25.872 38.121 31.141a97.9 97.9 0 0 0 16.88 6.118 108.81 108.81 0 0 1-5.939-23.74 89.726 89.726 0 0 1-8.069-3.684" fill="#002F33"/><mask id="d" fill="#fff"><use xlink:href="#c"/></mask><path d="m72.016 89.928.094-18.36c.126-23.852.413-47.706.89-71.563l-.06-.004a2573.924 2573.924 0 0 0-1.669 35.774c-1.698-1.247-5.219-4.152-8.533-8.903-.161-.23-.324-.48-.486-.723.107.93.208 1.863.298 2.802 3.768 5 7.522 7.75 8.659 8.518-.271 6.925-.512 13.851-.733 20.78-1.659-.89-4.354-2.515-7.406-5.064-.028.585-.059 1.17-.093 1.753 3.196 2.558 5.943 4.119 7.451 4.886-.123 3.903-.25 7.807-.357 11.711l-.238 9.38c-2.127-.842-5.544-2.407-9.473-5-.096.483-.195.963-.296 1.44 4.129 2.689 7.663 4.261 9.73 5.06l-.189 7.483-.255 13.754c-2.992-.913-8.17-2.824-14.11-6.45-.11.515-.215 1.03-.32 1.542 6.166 3.69 11.456 5.553 14.403 6.402l-.058 3.118c-.104 6.06-.18 12.12-.237 18.182-3.538-.813-9.877-2.655-17.204-6.551-.04.518-.069 1.037-.104 1.555 7.491 3.915 13.83 5.7 17.3 6.463-.05 5.696-.084 11.394-.1 17.092-.005 1.416-.003 2.832-.005 4.247-3.437-.591-9.481-1.957-16.72-4.986.062.54.124 1.08.194 1.62 7.174 2.922 13.137 4.235 16.523 4.803-.006 7.123.021 14.247.085 21.37-2.395-.296-6.124-.906-10.733-2.135.198.541.414 1.084.62 1.625 4.34 1.106 7.846 1.662 10.128 1.938.06 6.363.149 12.724.259 19.085a91.46 91.46 0 0 1-1.202-1.985c-3.768-6.416-6.788-12.756-9.184-19.038a96.502 96.502 0 0 1-17.942-6.54C29.91 159.704 15.882 150.33 3.462 134.04c-1.079 5.146-1.933 10.277-2.522 15.366 13.092 19.252 28.65 29.873 40.627 35.63 12.378 5.95 22.968 7.8 27.72 8.363l.026 1.43c-4.803-.556-15.688-2.418-28.37-8.515-11.856-5.7-27.174-16.094-40.236-34.73a137.376 137.376 0 0 0-.648 9.855c13.235 23.91 30.073 36.534 42.732 43.071 12.126 6.263 22.494 8.125 26.915 8.664l.035 1.432c-4.446-.525-15.093-2.384-27.54-8.8-12.483-6.432-28.96-18.68-42.189-41.552-.002.24-.009.483-.009.724 0 3.03.121 6.02.34 8.968 13.043 28.412 30.746 42.887 43.81 50.11 12.017 6.647 22.198 8.447 26.13 8.918l.045 1.443c-3.923-.431-14.318-2.177-26.871-9.12-12.703-7.025-29.727-20.79-42.744-47.238a124.232 124.232 0 0 0 1.798 11.5c7.466 18.308 20.63 40.755 42.936 54.009 12.195 7.247 22.397 8.876 25.573 9.225l.056 1.438c-3.127-.304-13.579-1.846-26.363-9.444-11.985-7.12-27.992-20.985-40.367-47.454 5.128 19.061 14.224 35.83 24.138 49.762 5.225 6.023 11.267 11.516 18.258 15.986 13.106 8.38 23.795 9.435 25.185 9.538l.072 1.428c-.898-.046-11.996-.798-26.032-9.772a81.26 81.26 0 0 1-10.658-8.162c8.992 11.209 18.064 20.085 25.011 26.242 3.53 3.13 7.978 4.674 12.416 4.645.064 0 .128-.008.191-.01-.563-22.855-.802-45.703-.933-68.551l-.054-18.36-.009-18.36.113-36.715c-.03-12.238-.086-24.478-.048-36.717l.024-18.36z" fill="#002F33" mask="url(#d)"/><path d="M75.656 193.49a4743.092 4743.092 0 0 0 .222-21.329c.058-7.11.095-14.22.106-21.329.001-.477.004-.955.004-1.433.001-1.466.013-2.93.012-4.396-.046-5.635-.085-11.272-.131-16.906l-.012-1.459c-.051-6.12-.113-12.24-.2-18.36l-.036-2.912-.018-1.48-.173-13.97-.122-7.279-.025-1.507-.16-9.577c-.065-3.854-.143-7.71-.218-11.565l-.03-1.59c-.138-6.984-.289-13.969-.46-20.953-.015-.576-.025-1.152-.04-1.728A4027.78 4027.78 0 0 0 73.327.004c-.033-.005-.066-.005-.1-.005a4240.583 4240.583 0 0 0-1.02 71.567l-.106 18.36-.028 18.36c-.044 12.24.021 24.48.055 36.719L72 181.723l.009 18.359.063 18.36c.148 22.85.422 45.7 1.067 68.556.104 0 .208-.01.313-.013.171-4.319.342-8.639.488-12.959l.047-1.432c.202-6.119.382-12.237.543-18.357.013-.479.022-.958.035-1.437.157-6.114.3-12.228.426-18.343l.029-1.438c.1-4.855.197-9.71.284-14.565.02-1.258.037-2.518.056-3.777l.02-1.428c.064-4.141.127-8.283.184-12.424.027-1.969.05-3.939.075-5.907l.017-1.428" fill="#0097B8"/></g></svg>