<?xml version="1.0" encoding="UTF-8"?>
<svg width="420px" height="420px" viewBox="0 0 420 420" version="1.1" xmlns="http://www.w3.org/2000/svg" xmlns:xlink="http://www.w3.org/1999/xlink">
    <title>5. Elements_Illustrations/2.Vector/Leaf 2</title>
    <defs>
        <path d="M249.68106,125.325407 C237.933124,109.238552 225.599607,91.9602746 217.860707,81.0645625 C214.012062,75.6451458 205.987938,75.6451458 202.139293,81.0645625 C194.400393,91.9602746 182.066876,109.238552 170.31894,125.325407 C145.682924,159.060631 112.088426,209.025286 126.446511,265.787343 C139.153771,316.020466 172.945732,343 210,343 C247.054268,343 280.846986,316.020466 293.553489,265.787343 C307.911574,209.025286 274.317076,159.060631 249.68106,125.325407" id="path-1"></path>
    </defs>
    <g id="5.-Elements_Illustrations/2.Vector/Leaf-2" stroke="none" stroke-width="1" fill="none" fill-rule="evenodd">
        <mask id="mask-2" fill="white">
            <use xlink:href="#path-1"></use>
        </mask>
        <use id="Fill-1" fill="#D95B26" xlink:href="#path-1"></use>
        <g id="Group-21" mask="url(#mask-2)">
            <g transform="translate(123.000000, 77.000000)">
                <path d="M174,155.139222 C173.948129,154.089287 173.883291,153.90391 173.803196,152.860778 C158.488325,185.855487 136.00002,201.241107 119.724775,209.06535 C110.865538,213.324049 102.852253,215.615159 97,216.845752 C97.5980405,217.238816 98.1922669,217.62281 98.7834421,218 C104.563992,216.687015 112.085266,214.410266 120.322053,210.45846 C136.427954,202.729459 158.521126,187.757313 174,156" id="Fill-3" fill="#AA391B"></path>
                <path d="M90,145 C94.6791422,143.822717 106.194106,140.304401 119.04977,131.752939 C130.263589,124.293808 144.21052,112.161905 155,92 C154.711784,91.4624795 154.424328,90.9257108 154.13307,90.3927009 C143.436367,110.790664 129.4651,123.001504 118.262688,130.464393 C105.884596,138.711386 94.7878887,142.211659 90.0045628,143.448332 C90.0030419,143.964803 90.0022814,144.482026 90,145 Z" id="Fill-5" fill="#AA391B"></path>
                <path d="M89.0197546,81 C92.0703256,79.586289 99.0171177,75.8818638 106.380277,68.6526772 C111.936647,63.1980519 118.359941,55.0134494 123,43.4616721 C122.645176,42.9752094 122.291113,42.4879853 121.936289,42 C117.378288,53.7588475 110.93068,62.0424174 105.370511,67.5130297 C98.6820488,74.0935993 92.2238039,77.7378828 89,79.3122255 L89.0197546,81 Z" id="Fill-7" fill="#AA391B"></path>
                <path d="M104,17 C103.642663,16.5013828 103.281619,15.9968297 102.931696,15.5078583 C99.1373993,26.7890725 92.0974151,32.748398 89,35.1606071 C89.0118618,35.7734907 89.0207582,36.3863744 89.0318786,37 C90.6940147,35.826914 94.7114615,32.6682631 98.5613602,27.1241147 C100.451836,24.4017538 102.434241,21.3666105 104,17 Z" id="Fill-9" fill="#AA391B"></path>
                <path d="M87,266 L89,266 C103.110669,265.751235 115.912873,261.916881 128,254 C130.074656,234.815805 115.907133,228.984729 98.8460922,218 C94.3043991,219.040152 90.853404,219.472296 89.0177842,219.644403 C88.7509353,234.764188 88.4292133,250.883221 88,266" id="Fill-11" fill="#AA391B"></path>
                <path d="M47.6124223,48 C47.4582137,48.2092591 47.3032491,48.42154 47.1497963,48.6323099 C38.3780446,60.6061598 28.4716496,74.6355835 20,90.2914867 C28.5064222,106.782915 39.1203627,118.225685 48.7478214,126 C48.3789301,115.804475 49.0184425,105.472969 50.2430408,94.9828184 C51.8244355,81.4353705 50.9188376,64.1922712 47.6124223,48 Z" id="Fill-13" fill="#AA391B"></path>
                <path d="M89.1158662,211.519824 C89.0807326,213.680133 89.0373762,215.840441 89,218 C90.6034386,217.844728 93.3782471,217.492928 97,216.721817 C94.4195477,215.002572 91.7792936,213.116802 89.1233414,211 C89.1203513,211.172525 89.1181088,211.3473 89.1158662,211.519824" id="Fill-15" fill="#AA391B"></path>
                <path d="M86.1862752,133.694687 C86.1825114,131.940445 86.1870279,130.185445 86.1877807,128.431204 C86.1938027,117.119265 86.2773582,105.806568 86.2984352,94.4938712 L86.5641566,55.2847126 L86.9465546,0.00751994334 C86.6100745,-0.00613174247 86.2743472,0.000281145763 85.9386198,0.0204132022 C85.3785724,12.0589248 84.8892837,24.1004701 84.4782811,36.1450491 C82.5188679,34.5796558 79.3339746,31.6635041 76.310923,27.2661444 C74.2935479,24.3317904 72.6459229,20.3803091 71.0621329,15.5058988 C70.7128561,15.9973595 70.3560516,16.4986798 70,17 C74.2553065,29.0476127 81.4906088,35.7999649 84.4203192,38.00092 C84.2283675,43.7460044 84.0454488,49.4910889 83.8836071,55.2361733 L83.3754996,74.8445447 L83.2911914,79.303337 C79.8932693,77.5460616 74.0052439,73.9935896 67.9252668,67.9792636 C62.3789908,62.4912859 56.5748806,54.3851408 52.0538527,42.5423033 C51.7023175,43.0292135 51.3515351,43.5138483 51,44 C55.6038306,55.6327532 61.3823473,63.6425781 66.9248595,69.1146288 C73.5904776,75.6954998 79.9113353,79.3427752 83.258823,80.9991797 L83.0036402,94.4567082 C82.7763091,107.532748 82.6596325,120.610305 82.6265114,133.690136 C82.6137147,137.13567 82.6107037,140.580446 82.6144674,144.025221 C77.4370398,142.565249 67.1130475,138.974097 55.6802516,131.211597 C53.440062,129.690192 51.0862068,127.951878 48.6706259,125.986035 C48.694714,126.654209 48.7165438,127.323142 48.7496649,127.990558 C50.8633922,129.66744 52.9259324,131.172159 54.9011534,132.511541 C66.7569959,140.548592 77.4648917,144.17994 82.6189839,145.598957 C82.6573743,165.996092 82.9787993,186.390953 83.4929289,206.77747 C80.4947181,203.969015 77.515326,200.800307 74.6157257,197.165166 C56.6987249,174.702076 49.9149248,151.717946 48.7496649,127.990558 C38.9352856,120.204546 27.9865091,108.613506 19.1838284,91.7544329 C9.64420355,109.870978 2.09636022,130.107327 0.374063873,151.824884 C15.4915803,185.26393 37.8249765,201.68615 53.9662355,209.575307 C67.5857757,216.231263 79.181166,218.100785 83.83242,218.610448 L83.8798434,220.140195 C79.2376224,219.647218 67.3403786,217.785279 53.376078,210.973088 C37.3996717,203.177976 15.4486735,187.169857 0.162540588,154.968564 C-0.414067368,165.904323 0.513322975,177.201851 3.42797834,188.783031 C15.9725888,238.629128 49.1742169,265.564663 85.704514,265.981039 C85.9898069,265.984073 86.2743472,266 86.5603929,266 C86.7071795,266 86.8532134,265.991657 87,265.99014 C86.8931092,248.022247 86.7342786,230.059662 86.6017942,212.098594 C86.3865072,187.100082 86.2269238,162.10612 86.1938027,137.113676 C86.1922972,135.974518 86.1870279,134.833844 86.1862752,133.694687 Z" id="Fill-17" fill="#AA391B"></path>
                <path d="M90.0771819,218.680924 C90.1192429,216.49727 90.1671924,214.312857 90.207571,212.128445 C90.2109359,211.953995 90.2134595,211.77727 90.2159832,211.602821 C90.5634069,189.694984 90.8704522,167.785631 90.9596215,145.877794 C90.9621451,145.354445 90.9629863,144.833372 90.96551,144.31154 C90.9781283,140.770971 91,137.23192 91,133.69211 C90.8839117,120.619767 90.8006309,107.546665 90.6063091,94.4743216 L90.437224,81.412597 L90.4153523,79.731813 L90.3522608,74.8661859 L90.0174553,55.2580503 C89.9190326,49.5998152 89.8079916,43.9408217 89.691062,38.2818282 C89.6784437,37.6553266 89.6683491,37.028825 89.6548896,36.4023233 C89.4008412,24.2856605 89.0963197,12.1705147 88.7488959,0.0561272644 C88.4494217,0.0235127729 88.1491062,0.00986019509 87.8487907,0 L87.4206099,55.2808046 L87.1245005,94.492525 C87.1001052,105.805961 87.007571,117.119397 87,128.432075 C87.007571,130.185673 87.015142,131.939271 87.0218717,133.692868 L87.0067298,137.115114 C87.0445846,162.109192 87.222082,187.104787 87.4635121,212.104932 C87.6107256,230.067174 87.7882229,248.030932 87.9076761,266 C88.2424816,266 88.5747634,265.98483 88.9087277,265.979521 C89.3890641,250.723524 89.748265,235.465251 90.046898,220.206979 C90.0569926,219.698041 90.0679285,219.189103 90.0771819,218.680924" id="Fill-19" fill="#FF97A6"></path>
            </g>
        </g>
    </g>
</svg>