<?xml version="1.0" encoding="UTF-8"?>
<svg version="1.1" viewBox="0 0 420 420" xmlns="http://www.w3.org/2000/svg" xmlns:xlink="http://www.w3.org/1999/xlink">
<title>5. Elements_Illustrations/2.Vector/Leaf 3</title>
<defs>
<polygon id="b" points="0 0 144 0 144 287 0 287"/>
<polygon id="a" points="0 0 73 0 73 287 0 287"/>
</defs>
<g fill="none" fill-rule="evenodd">
<g transform="translate(138 66)">
<mask id="d" fill="white">
<use xlink:href="#b"/>
</mask>
<path d="m144 164.98c0 56.528-39.278 99.017-59.813 117.37-6.9356 6.1993-17.438 6.1993-24.375 0-20.534-18.352-59.812-60.841-59.812-117.37 0-62.255 47.64-136.15 65.417-161.55 3.1989-4.5716 9.9678-4.5716 13.167 0 17.777 25.406 65.417 99.298 65.417 161.55" fill="#00547A" mask="url(#d)"/>
<path d="m103.21 163.2c-12.877 6.184-23.837 7.9132-28.204 8.3825-0.0035532 0.47136-0.0063957 0.94272-0.0099489 1.4141 4.4009-0.4601 15.613-2.1929 28.77-8.5 10.959-5.2532 24.893-14.538 37.23-30.673-0.12862-0.60925-0.25441-1.2178-0.38872-1.8271-12.336 16.505-26.392 25.918-37.398 31.203" fill="#002F33"/>
<path d="m99.428 141.13c-10.915 5.8279-20.372 7.8186-24.425 8.4512 0 0.47428-0.0021154 0.94645-0.0028205 1.42 4.0812-0.61924 13.807-2.6156 25.031-8.5969 10.163-5.4162 23.153-15.023 33.969-31.676-0.18897-0.57561-0.37794-1.1526-0.57114-1.7275-10.762 16.974-23.824 26.695-34.001 32.129" fill="#002F33"/>
<path d="m96.046 118.04c-9.2269 5.5394-17.37 7.739-21.046 8.5181 0.0035222 0.48144 0.00634 0.96288 0.0098623 1.445 3.6279-0.72991 11.99-2.902 21.701-8.7195 8.962-5.3698 20.347-14.759 29.289-30.631-0.22965-0.55112-0.4593-1.1008-0.69106-1.6499-8.8592 16.168-20.299 25.655-29.263 31.037" fill="#002F33"/>
<path d="m92.708 95.785c-7.6227 5.3788-14.507 7.8013-17.708 8.7249l0.016129 1.4896c3.1213-0.85496 10.292-3.2653 18.432-8.9968 7.4151-5.2214 16.673-14.061 23.552-28.366-0.26157-0.54732-0.52454-1.0932-0.78752-1.637-6.7833 14.601-16.086 23.551-23.504 28.785" fill="#002F33"/>
<path d="m74 80.516 0.021901 1.484c5.045-1.8419 23.186-9.8521 32.978-32.439-0.29037-0.52287-0.58003-1.0423-0.87039-1.5609-9.2112 22.242-26.65 30.43-32.13 32.516" fill="#002F33"/>
<path d="m75 57.402c0.0089384 0.53292 0.016502 1.0658 0.02544 1.598 1.9568-0.98379 6.8929-3.7968 12.07-9.3677 3.693-3.9723 7.9126-9.8721 10.904-18.062-0.30666-0.52792-0.61056-1.0501-0.91516-1.5702-5.9874 17.37-18.027 25.19-22.085 27.402" fill="#002F33"/>
<path d="m82.702 27.474c1.8411-2.5542 3.7726-5.879 5.2979-9.975-0.34178-0.50722-0.6785-1.0068-1.0131-1.4994-3.8535 11.115-11.198 17.285-13.987 19.304 0.013006 0.56574 0.0224 1.1308 0.035406 1.6958 1.2934-0.83607 5.5776-3.8536 9.6667-9.5256" fill="#002F33"/>
<path d="m116 247c-0.64494 0.80805-1.3007 1.6086-1.969 2.3998-0.008537 0.1995-0.018626 0.39899-0.031044 0.60017 0.66977-0.98826 1.3372-1.9858 2-3" fill="#002F33"/>
<path d="m140.21 197.75c0.67041-2.5417 1.2689-5.1266 1.7926-7.749-8.9653 22.486-20.533 36.784-31 45.809 0.26886 0.39381 0.53004 0.78904 0.77376 1.1913 9.4821-8.1435 19.852-20.531 28.434-39.251" fill="#002F33"/>
<path d="m100.08 224.41c-0.36432 0.20664-0.72443 0.4047-1.0845 0.60348 0.38819 0.33177 0.77076 0.6614 1.1498 0.99031 0.18251-0.10225 0.36292-0.20021 0.54683-0.30388 12.464-7.073 29.168-20.93 41.941-47.557 0.1446-1.3693 0.26183-2.7514 0.36222-4.1393-12.781 28.562-30.121 43.13-42.915 50.406" fill="#002F33"/>
<path d="m143 164.81c-0.005575-0.93382-0.020209-1.8712-0.046689-2.81-12.891 23.87-29.293 36.473-41.623 42.999-6.5322 3.4573-12.537 5.5682-17.331 6.8587 0.39233 0.38572 0.78395 0.76719 1.1749 1.1423 4.7253-1.3259 10.495-3.4134 16.732-6.7076 12.158-6.4219 28.207-18.648 41.093-41.482" fill="#002F33"/>
<path d="m103.44 185.2c-13.079 6.2644-24.187 7.9506-28.423 8.3882-0.0056904 0.47054-0.0099581 0.94107-0.015648 1.4116 4.2557-0.4277 15.62-2.1111 28.995-8.5054 11.788-5.6366 27.019-15.913 40.005-34.341-0.073264-0.71704-0.14937-1.4348-0.23259-2.1532-13 19.01-28.442 29.506-40.329 35.2" fill="#002F33"/>
<path d="m60 77.953c-7.2536-4.9214-16.39-13.55-22.363-27.953-2.8999 5.4688-5.804 11.206-8.6373 17.147 7.2737 15.869 17.634 25.332 26.322 30.853 0.9412-4.5749 2.0281-9.1555 3.2294-13.751 0.52643-2.0109 1.0085-4.1179 1.4489-6.2959" fill="#002F33"/>
<path d="m74 253c3.0525-0.35026 13.128-2.0248 25.133-9.5478 3.3543-2.1023 7.037-4.7845 10.867-8.1906-2.3746-3.5809-5.6869-6.8371-9.5404-10.262-12.438 7.1113-22.625 8.7508-26.094 9.1164-0.10924 6.2953-0.23039 12.59-0.36554 18.884" fill="#002F33"/>
<path d="m74.304 214.1c-0.016802 1.2284-0.032144 2.4582-0.049677 3.6867-0.078168 4.7383-0.1651 9.4766-0.25423 14.215 3.5811-0.3799 13.79-1.9577 26-8.1997-4.4044-3.505-9.4035-7.2464-14.492-11.8-5.1606 1.3497-9.1245 1.8891-11.204 2.0984" fill="#002F33"/>
<path d="m72.419 273.99c-0.12488 4.3385-0.2715 8.677-0.41882 13.015 4.1167-0.13268 8.1969-1.6699 11.472-4.6438 6.812-6.1832 15.71-15.099 24.528-26.356-3.2243 2.9803-6.7005 5.7409-10.454 8.1983-12.695 8.3139-22.946 9.6007-25.127 9.7869" fill="#002F33"/>
<path d="m74.164 201c-0.051376 4.0002-0.10789 8.0005-0.1644 12 1.9339-0.19689 5.4444-0.67642 10-1.8029-3.3042-2.9925-6.6275-6.3444-9.8356-10.197" fill="#002F33"/>
<path d="m62.245 29.2c-2.3198-2.9276-4.633-6.6469-6.3801-11.2-2.7684 4.0241-5.7549 8.4898-8.8648 13.331 3.9657 10.465 10.4 17.393 15.782 21.669 0.40721-7.8885 0.25201-15.993-0.53728-23.8" fill="#002F33"/>
<path d="m56 17.557c1.6785 3.8494 3.8638 6.9878 6 9.4426-0.67911-4.4985-1.6426-8.8686-2.9081-13-0.99767 1.1366-2.0303 2.3244-3.0919 3.5574" fill="#002F33"/>
<path d="m51.533 121.13c-1.2353-0.65775-2.5015-1.3725-3.7923-2.1548-8.9537-5.4307-20.329-14.927-29.264-30.978-2.7077 6.5818-5.231 13.304-7.477 20.095 10.743 17.171 23.782 27.005 33.94 32.502 2.4417 1.3212 4.808 2.4438 7.0596 3.4034-0.87137-7.6617-0.97131-15.273-0.46665-22.867" fill="#002F33"/>
<path d="m46.934 33c-2.9069 4.9014-5.9129 10.157-8.9339 15.692 4.8596 12.046 11.881 19.914 17.664 24.753 1.6213 1.3572 3.2112 2.5309 4.7299 3.555 1.2856-6.6157 2.1736-13.867 2.6062-21.343-5.3321-4.3608-11.909-11.585-16.066-22.657" fill="#002F33"/>
<path d="m74.472 254.56c-0.13926 6.1486-0.29557 12.296-0.47177 18.445 2.3049-0.23053 12.474-1.6594 24.722-9.6065 6.1202-3.9711 11.506-8.7422 16.25-13.97 0.2302-4.8496-0.95562-8.8285-3.156-12.423-3.9326 3.3508-7.7146 5.9923-11.161 8.0642-12.724 7.6502-23.12 9.1911-26.183 9.4909" fill="#002F33"/>
<path d="m51.406 96.368c-7.5443-5.2218-16.962-14.062-23.962-28.368-2.9267 6.016-5.7678 12.232-8.444 18.587 8.9727 16.436 20.56 26.079 29.638 31.55 1.1095 0.66828 2.2025 1.2879 3.2749 1.8632 0.55366-7.1064 1.6339-14.2 3.0872-21.307-1.1708-0.70692-2.3709-1.4782-3.5938-2.3247" fill="#002F33"/>
<path d="m44.993 142.58c-10.423-5.3985-23.745-14.976-34.837-31.576-2.4276 7.2055-4.5204 14.481-6.1555 21.741 12.573 16.482 26.902 25.872 38.121 31.141 6.2466 2.9343 12.041 4.857 16.879 6.1182-2.9808-7.994-4.8914-15.895-5.9385-23.74-2.5585-1.0185-5.2674-2.2335-8.0689-3.6841" fill="#002F33"/>
<mask id="c" fill="white">
<use xlink:href="#a"/>
</mask>
<path d="m72.016 89.928 0.09372-18.36c0.12591-23.852 0.4128-47.706 0.8907-71.563l-0.060095-0.0042615c-0.6403 11.922-1.1948 23.846-1.6691 35.774-1.6984-1.2472-5.219-4.1522-8.5336-8.9024-0.16097-0.23083-0.32337-0.48013-0.48577-0.72375 0.10731 0.92973 0.20819 1.863 0.29833 2.802 3.7674 5.0009 7.5219 7.7496 8.6588 8.5188-0.27114 6.925-0.51224 13.851-0.73259 20.779-1.6591-0.88853-4.3548-2.5143-7.406-5.0634-0.028617 0.58525-0.05938 1.1698-0.09372 1.7529 3.1965 2.5583 5.943 4.1188 7.4518 4.8866-0.12305 3.9029-0.2504 7.8064-0.35771 11.711l-0.23824 9.379c-2.1262-0.84166-5.5438-2.4064-9.4722-5.0002-0.096582 0.48369-0.19531 0.96382-0.29618 1.4411 4.1287 2.6883 7.6629 4.2608 9.7305 5.0599l-0.18959 7.4826-0.25541 13.754c-2.9919-0.91268-8.1701-2.824-14.11-6.4491-0.11018 0.51423-0.21463 1.0285-0.32051 1.5413 6.1669 3.6898 11.457 5.5528 14.404 6.4023l-0.057949 3.1173c-0.10374 6.0606-0.181 12.121-0.2368 18.182-3.5385-0.81254-9.8778-2.6549-17.204-6.5507-0.040779 0.51849-0.069396 1.037-0.10445 1.5555 7.4912 3.9149 13.83 5.6991 17.3 6.4626-0.05008 5.6963-0.08442 11.394-0.099444 17.092-0.005008 1.4155-0.0035772 2.8318-0.0057234 4.2473-3.4369-0.59164-9.4808-1.9575-16.72-4.986 0.062242 0.5398 0.12448 1.0789 0.19459 1.6201 7.1735 2.9213 13.137 4.2346 16.523 4.8028-0.0064388 7.1232 0.020747 14.247 0.085135 21.369-2.3959-0.29547-6.124-0.90487-10.733-2.1343 0.19746 0.54122 0.41351 1.0839 0.62027 1.6251 4.3383 1.1059 7.8453 1.662 10.127 1.9383 0.060811 6.3625 0.14881 12.724 0.25898 19.085-0.40421-0.6506-0.80556-1.3097-1.2019-1.9852-3.7674-6.4158-6.7879-12.756-9.1839-19.038-5.063-1.2891-11.251-3.324-17.942-6.5408-11.033-5.3035-25.061-14.677-37.481-30.967-1.0789 5.1458-1.9331 10.277-2.5219 15.366 13.092 19.252 28.65 29.873 40.627 35.629 12.378 5.9505 22.968 7.8008 27.72 8.364 0.0078697 0.47729 0.017886 0.95317 0.025755 1.4297-4.8026-0.55613-15.688-2.4184-28.369-8.5146-11.857-5.6998-27.175-16.094-40.237-34.73-0.33339 3.307-0.55445 6.5955-0.64746 9.8548 13.235 23.91 30.073 36.534 42.732 43.071 12.126 6.2623 22.494 8.1246 26.915 8.6637l0.035056 1.4319c-4.4463-0.52488-15.093-2.3843-27.541-8.8001-12.482-6.4321-28.96-18.679-42.188-41.552-0.0021463 0.24078-0.0093005 0.48298-0.0093005 0.72375 0 3.0314 0.12091 6.0201 0.33911 8.9684 13.044 28.412 30.747 42.887 43.81 50.111 12.018 6.6459 22.199 8.4464 26.131 8.9173l0.044356 1.4425c-3.9227-0.43113-14.318-2.1769-26.871-9.119-12.703-7.0259-29.727-20.79-42.744-47.239 0.42281 3.9135 1.0324 7.7461 1.7986 11.501 7.4661 18.307 20.63 40.754 42.936 54.008 12.195 7.2475 22.397 8.8761 25.573 9.2248l0.055803 1.4383c-3.1271-0.30399-13.579-1.846-26.363-9.4436-11.985-7.121-27.992-20.985-40.367-47.454 5.1281 19.061 14.224 35.83 24.138 49.762 5.2247 6.023 11.267 11.516 18.258 15.986 13.106 8.3796 23.795 9.4344 25.185 9.5381 0.024324 0.47587 0.047933 0.95175 0.072258 1.4276-0.89785-0.046167-11.996-0.79833-26.032-9.7717-3.8268-2.4475-7.371-5.1955-10.658-8.1623 8.9914 11.209 18.064 20.085 25.011 26.242 3.5306 3.1294 7.9777 4.6742 12.416 4.6448 0.063673 0 0.12735-0.007526 0.19102-0.008947-0.56304-22.856-0.8027-45.704-0.93291-68.552l-0.054372-18.36-0.0085851-18.359 0.11304-36.716c-0.030048-12.238-0.086566-24.478-0.048649-36.717l0.024324-18.359z" fill="#002F33" mask="url(#c)"/>
<path d="m75.656 193.49c0.084322-6.6341 0.15391-13.268 0.21039-19.902 0.0040933-0.47518 0.0081866-0.95108 0.011461-1.427 0.058125-7.11 0.094964-14.22 0.10643-21.329 8.187e-4 -0.47732 0.0032747-0.95463 0.0032747-1.4334 0.0016373-1.4653 0.013098-2.9299 0.01228-4.3953-0.045845-5.6354-0.08514-11.272-0.13099-16.906-0.0040933-0.48726-0.0081866-0.9731-0.011461-1.4589-0.051575-6.1199-0.11297-12.241-0.20057-18.36l-0.036021-2.9129-0.01801-1.4788-0.17274-13.971-0.12198-7.2783-0.025378-1.5079-0.15964-9.5761c-0.064674-3.8547-0.14326-7.7095-0.21776-11.565-0.010643-0.52988-0.019648-1.0605-0.03029-1.5911-0.13835-6.9836-0.28899-13.968-0.46009-20.952-0.014736-0.57605-0.025378-1.1521-0.040114-1.7288-0.29635-11.905-0.64592-23.81-1.0479-35.713-0.032746-0.004972-0.066311-0.004972-0.099058-0.004972-0.54686 23.859-0.87596 47.714-1.02 71.567l-0.10724 18.36-0.027834 18.36c-0.043389 12.24 0.021285 24.48 0.055669 36.719l-0.12853 36.718 0.0090052 18.359 0.063037 18.361c0.14818 22.849 0.42243 45.699 1.0667 68.555 0.10479 0 0.20876-0.009234 0.31355-0.012075 0.1711-4.3193 0.3422-8.6393 0.48792-12.959 0.016373-0.47732 0.031109-0.95534 0.046664-1.4327 0.20221-6.1184 0.38231-12.237 0.54359-18.357 0.01228-0.47874 0.021285-0.95747 0.034384-1.4369 0.15718-6.1135 0.29963-12.228 0.42652-18.343 0.010642-0.47874 0.018829-0.95889 0.028653-1.4376 0.099876-4.8548 0.1973-9.7097 0.28407-14.565 0.019648-1.2586 0.03684-2.518 0.056487-3.7773 0.0065492-0.4759 0.013098-0.9525 0.020466-1.4284 0.063037-4.141 0.12607-8.2827 0.18338-12.424 0.027016-1.9682 0.049119-3.9386 0.074498-5.9068 0.0057306-0.4759 0.011461-0.95179 0.017192-1.4277" fill="#0097B8"/>
</g>
</g>
</svg>
