<?xml version="1.0" encoding="UTF-8"?>
<svg width="420px" height="420px" viewBox="0 0 420 420" version="1.1" xmlns="http://www.w3.org/2000/svg" xmlns:xlink="http://www.w3.org/1999/xlink">
    <title>5. Elements_Illustrations/2.Vector/Leaf 4</title>
    <defs>
        <polygon id="path-1" points="0 0 113 0 113 305 0 305"></polygon>
        <polygon id="path-3" points="0 0 51 0 51 70 0 70"></polygon>
    </defs>
    <g id="5.-Elements_Illustrations/2.Vector/Leaf-4" stroke="none" stroke-width="1" fill="none" fill-rule="evenodd">
        <g id="Group-41" transform="translate(154.000000, 57.000000)">
            <g id="Group-3">
                <mask id="mask-2" fill="white">
                    <use xlink:href="#path-1"></use>
                </mask>
                <g id="Clip-2"></g>
                <path d="M75.441055,232.604191 C87.3802791,222.764292 101.090627,219.031108 111.787466,217.752035 C112.580272,208.589859 113.000242,198.627886 113.000242,187.815002 C113.000242,172.214766 112.028571,155.95064 110.26772,139.803776 C99.5769234,138.404434 85.9964941,139.273987 74.4772398,148.371819 C85.6955662,138.267326 98.8560258,133.902724 109.364332,132.076422 C105.966505,104.858695 100.390275,78.3337247 93.5070021,56.2809979 C88.6734231,55.9821267 80.1694905,56.6839028 72.0800892,64.2555073 C79.0268105,57.3483951 86.2823152,52.3746248 91.2554812,49.3636627 C81.2481177,19.9083108 68.8665658,0 56.5001209,0 C44.1469699,0 31.7793163,19.8626082 21.7779955,49.2632372 C26.7553914,52.2621723 34.0948901,57.2702195 41.1213754,64.2555073 C32.9419374,56.600315 24.3376955,55.8275796 19.5325174,56.1541129 C12.629908,78.2369073 7.03796652,104.817202 3.63349298,132.09326 C14.1260877,133.929183 27.2400183,138.298596 38.4239012,148.371819 C26.9409032,139.30225 13.4088158,138.409244 2.73373062,139.790547 C0.971670831,155.942221 0,172.210557 0,187.815002 C0,198.573764 0.415135485,208.491237 1.20069026,217.615529 C12.0600786,218.753284 26.3686567,222.385441 38.7677325,232.604191 C26.6152001,223.843716 12.6317208,223.037305 1.85753491,224.295932 C8.22838414,281.715286 30.2764896,305.00018 56.5001209,305.00018 C82.7606127,305.00018 104.835306,281.650942 111.170503,224.051182 C100.566722,223.028285 87.1524682,224.161229 75.441055,232.604191" id="Fill-1" fill="#009F70" mask="url(#mask-2)"></path>
            </g>
            <path d="M57.0753314,296.089061 C57.0496231,297.059573 57.0269041,298.029488 57,299 C57.045438,298.951534 57.0854952,298.897683 57.113595,298.834857 C67.7927216,274.711461 86.6482974,265.380899 100.586405,261.800414 C101.254224,261.62869 101.914869,261.472522 102.571926,261.322936 C102.715415,260.883753 102.859501,260.446364 103,260 C102.119938,260.19147 101.230907,260.400292 100.332311,260.630055 C86.5693787,264.156689 68.1095919,273.189874 57.0753314,296.089061" id="Fill-4" fill="#005639"></path>
            <path d="M59.0491612,251.241043 L59,254 C68.9023902,233.340296 85.4715225,224.282884 97.819384,220.316432 C102.974119,218.660938 107.82909,217.73427 111.901078,217.22313 C111.935251,216.818426 111.967026,216.40771 112,216 C107.822495,216.511141 102.815843,217.452842 97.4968383,219.157045 C85.363008,223.045924 69.2375259,231.765382 59.0491612,251.241043" id="Fill-6" fill="#005639"></path>
            <path d="M58.022477,208.402326 C58.0145797,209.267816 58.0085048,210.133908 58,211 C67.135368,193.262871 81.791565,184.41778 92.7919137,180.087922 C100.628478,177.003937 107.706899,175.730378 112,175.206751 C111.986635,174.804701 111.972663,174.402651 111.958083,174 C107.59816,174.526035 100.375764,175.813436 92.3855058,178.952794 C81.6044594,183.18876 67.3801847,191.682961 58.022477,208.402326" id="Fill-8" fill="#005639"></path>
            <path d="M60.003553,164.534531 C60.0017765,165.356551 60.0017765,166.177979 60,167 C74.2097987,140.146535 102.738948,133.366495 109,132.18058 C108.95085,131.787054 108.901699,131.392934 108.851957,131 C105.934909,131.539321 98.1531554,133.269299 89.284763,137.636617 C80.1410098,142.139654 68.1500858,150.33971 60.003553,164.534531" id="Fill-10" fill="#005639"></path>
            <path d="M59,122.576745 C59.0060389,123.384099 59.0126817,124.19205 59.0187206,125 C71.2825223,102.20805 95.0311074,92.5806211 102,90.1734658 C101.914248,89.7817143 101.828495,89.3911553 101.742743,89 C94.9791728,91.3212919 71.7964328,100.623752 59,122.576745" id="Fill-12" fill="#005639"></path>
            <path d="M58,80.543749 L58.0298968,83 C66.7945494,66.4548946 82.3055134,55.3924815 91,50.1619427 C90.8669896,49.772632 90.7339792,49.3857171 90.6003587,49 C82.1603003,54.0502581 67.1191436,64.6664611 58,80.543749" id="Fill-14" fill="#005639"></path>
            <path d="M77,17.0153882 C76.7776333,16.6720681 76.5552666,16.3334111 76.3316645,16 C70.0022432,22.0381208 62.960013,29.8709489 58,38.5594544 C58.0154421,39.372581 58.0290312,40.1862905 58.0438557,41 C62.9038036,31.7664957 70.3339402,23.3997435 77,17.0153882" id="Fill-16" fill="#005639"></path>
            <path d="M55.0676868,93.6688803 L55.1683835,74.0591085 C55.2985949,49.3753451 55.5705919,24.6903788 56,0 C55.9658557,0 55.9317114,0 55.8969884,0 C55.3391051,13.4165793 54.864557,26.8361655 54.4623487,40.2581573 C50.9940971,33.2019592 46.2567189,26.659956 41.4973495,21.0789862 C41.4192227,21.5787476 41.3364661,22.084523 41.2502373,22.5975151 C46.1965323,28.4900089 51.0565985,35.4120954 54.3882729,42.8357475 C54.083289,53.2345135 53.8101345,63.6344824 53.5873284,74.0350526 L53.4576958,80.584874 C48.2914882,71.013631 41.097456,63.3391961 34.4294775,57.6289258 C34.3542443,58.0805754 34.2795898,58.5340292 34.205514,58.9898886 C41.0615755,64.9413194 48.4049168,72.9777956 53.4096623,83.0229399 L53.1990092,93.6466286 L52.9183314,113.261212 C52.8807148,116.072745 52.8494641,118.884279 52.8193708,121.695212 C46.8331211,111.186991 38.6112873,103.610584 31,98.328509 C31.0028936,98.8150397 31.0109956,99.2973606 31.0167828,99.7814856 C38.7432348,105.254805 47.0125234,113.130708 52.7950647,124.083963 C52.7030487,133.55357 52.6527003,143.024379 52.6318665,152.495189 C52.6208709,156.200399 52.6197134,159.904407 52.622607,163.608415 C47.7897405,155.246583 41.694692,149.002272 35.6986041,144.39316 C35.8091391,144.998768 35.9225677,145.601368 36.0348388,146.20457 C42.1646103,151.081303 48.0785203,157.530691 52.6283942,166.023027 C52.6527003,179.498543 52.7701799,192.972255 52.9617352,206.445365 C50.8303201,202.655358 48.4593162,199.302566 45.9471053,196.34369 C46.0732656,197.114682 46.2011621,197.884471 46.3226927,198.660273 C48.7347855,201.691317 50.9912035,205.11327 52.9981944,208.97304 C53.1075719,216.302272 53.2360471,223.632106 53.3853561,230.961339 L53.850066,250.350999 C52.6631172,248.09215 51.3968842,245.985454 50.0704646,244.015877 C50.0994004,244.773036 50.1271789,245.530797 50.1537999,246.288558 C51.4923725,248.406681 52.7568694,250.681768 53.9328225,253.121638 L54.4496169,270.179078 C54.74592,278.795903 55.0636357,287.412127 55.4386444,296.026546 C53.6463576,292.172189 51.654992,288.705132 49.5137387,285.594703 C49.4547096,286.20873 49.3922082,286.818547 49.3268131,287.422952 C51.5566101,290.808219 53.6156855,294.592213 55.4276488,298.841688 C55.4600569,298.918066 55.5104053,298.981213 55.5676983,299.035339 C55.6579782,301.02416 55.758675,303.01178 55.8570569,305 C55.8958309,305 55.934605,305 55.9728003,305 C55.7077479,293.382201 55.5439709,281.76801 55.3911896,270.15382 L55.1886386,250.543447 L55.0566911,230.933073 L54.9901387,211.323903 L54.9664113,191.714131 L55.0422232,152.496392 C55.0260191,139.424413 54.9849302,126.351232 55.0300701,113.278051 L55.0676868,93.6688803 Z" id="Fill-18" fill="#005639"></path>
            <path d="M43.7790885,8 C43.7588524,8.0182007 43.7386163,8.03581429 43.7183802,8.05518923 C43.7162868,8.05636347 43.7148912,8.05871195 43.7127978,8.06047331 C43.3136585,8.43740403 42.915217,8.83077409 42.518171,9.23412519 C42.4672319,9.28520459 42.415595,9.33569687 42.3646559,9.3879505 C41.9843571,9.77662361 41.6054538,10.1788005 41.2265506,10.5903712 C41.1609577,10.6619998 41.0946671,10.7348026 41.0283765,10.8070183 C40.6508688,11.2221118 40.274059,11.6471863 39.8979469,12.0845904 C39.8449144,12.1462379 39.7918819,12.2096468 39.7388494,12.2718815 C39.3452925,12.7339445 38.9531311,13.2036401 38.5623653,13.6886008 C38.5602719,13.6909493 38.5588763,13.6932978 38.5567829,13.6956463 C38.1639238,14.1835426 37.7724602,14.686704 37.3816944,15.1980851 C37.3356399,15.2579713 37.2895854,15.3172703 37.242833,15.3777437 C37.1618887,15.4857736 37.0809443,15.5990877 37,15.7071177 C38.9252193,17.3457682 40.9083556,19.118282 42.8907941,21 C43.8656152,15.9648632 44.2968531,11.6266372 43.7790885,8" id="Fill-20" fill="#005639"></path>
            <path d="M36.4392837,17 C36.4044491,17.0566348 36.3690032,17.1102572 36.3341686,17.1662895 C36.2803887,17.2542542 36.2266088,17.341014 36.1722178,17.4295812 C35.8483163,17.9591771 35.5256371,18.4978104 35.203569,19.0478913 C35.1589562,19.123806 35.1143433,19.2015283 35.0697305,19.2780456 C34.3938153,20.4414695 33.7227892,21.6500808 33.0572633,22.9026745 C33.0205952,22.9719618 32.983316,23.0400441 32.9466479,23.1099339 C32.6270244,23.714842 32.3086231,24.3305952 31.9914441,24.9547832 C31.9407199,25.0541954 31.8906069,25.1536076 31.8404938,25.2536223 C31.5245371,25.8784129 31.2104137,26.5128435 30.8975127,27.156914 C30.8565666,27.2412638 30.8162317,27.3268185 30.7752857,27.4111683 C30.1189268,28.7698016 29.4686793,30.1706098 28.8245432,31.6117855 C28.7915419,31.6858927 28.7585406,31.7581925 28.7255393,31.8316973 C28.4169162,32.5263777 28.1089042,33.230698 27.8027257,33.9440558 C27.7556683,34.0537105 27.7086109,34.1639677 27.6615535,34.2742248 C27.3578195,34.9845702 27.0559188,35.702748 26.7552405,36.4305658 C26.7155167,36.526363 26.6764041,36.6233652 26.6366803,36.7191624 C26.3243904,37.4801176 26.0127116,38.2489052 25.7034774,39.0285378 C25.7028662,39.0291403 25.7028662,39.0297428 25.7022551,39.0309478 C25.3881318,39.8220279 25.0770641,40.6233505 24.7666076,41.433108 C24.7378843,41.5084203 24.7085498,41.5837325 24.6798264,41.6596473 C24.383426,42.435665 24.088859,43.2213226 23.7961254,44.0136076 L23.6641203,44.3702866 C23.3744423,45.1583542 23.0859867,45.9542542 22.7999756,46.7579868 C22.7633075,46.8604115 22.7272505,46.9622337 22.6905824,47.0646583 C22.4595734,47.7177663 22.2297867,48.3793093 22,49.0420573 C25.4284667,51.0941661 29.9820326,54.0879794 34.7971643,58 C37.2447595,44.0865099 40.3199902,32.3612932 42,22.904482 C40.1348164,20.7963409 38.2586323,18.820147 36.4392837,17" id="Fill-22" fill="#005639"></path>
            <path d="M30.7792826,93.1699456 C31.0262022,80.7881196 32.3373278,69.5008061 34,59.3300423 C28.2066545,56.1683213 22.7977385,55.8206238 19.3576033,56.0611962 C17.6506888,61.6794489 16.0250845,67.5829606 14.4939433,73.7129653 C14.4927476,73.7172503 14.4915519,73.7215353 14.4903561,73.7252082 C13.7262802,76.7859255 12.9849233,79.902348 12.2698726,83.0677419 C12.268079,83.0750876 12.2662854,83.0824333 12.2644918,83.0891669 C11.8328308,85.0008909 11.4131271,86.9352643 11,88.8806563 C14.204575,89.9959817 22.0940473,93.0836333 30.7487913,99 C30.736236,97.0766452 30.7404211,95.138599 30.7792826,93.1699456" id="Fill-24" fill="#005639"></path>
            <path d="M3,132.338204 C12.9364136,134.079623 25.2050042,138.083428 36,147 C35.9732074,146.86399 35.9476326,146.726765 35.9208399,146.590755 C21.7000406,135.734213 6.39961988,132.582902 3.04384249,132 C3.02983725,132.112937 3.01400524,132.22466 3,132.338204" id="Fill-26" fill="#005639"></path>
            <path d="M50.6754682,246.322435 C40.6817544,230.974599 26.815138,223.684665 16.1046212,220.232146 C10.5092248,218.429089 5.27132712,217.484458 1,217 C1.01083329,217.12506 1.01986104,217.254371 1.03009248,217.379431 C11.8465348,218.528045 26.0977332,222.194867 38.4464847,232.511143 C26.3432878,223.66706 12.4158846,222.852952 1.68490493,224.123591 C1.68550678,224.129662 1.68610863,224.135733 1.68671048,224.141804 C1.97620017,226.788715 2.29999529,229.362169 2.65328105,231.866414 C2.66471619,231.943514 2.67494764,232.022436 2.68638278,232.099536 C2.79050277,232.834115 2.89883571,233.560801 3.0089742,234.283238 C3.03545559,234.455652 3.06133513,234.628672 3.08781651,234.800479 C3.19614945,235.500453 3.30688979,236.194964 3.42003753,236.883404 C3.44772261,237.049139 3.4754077,237.21366 3.50309278,237.379396 C3.62165717,238.088477 3.7420271,238.794522 3.86540629,239.492068 C3.87503588,239.547313 3.88526733,239.601951 3.89549877,239.657197 C4.44498752,242.736963 5.04683719,245.696526 5.69803854,248.539527 C5.72993657,248.681586 5.76243645,248.823645 5.79493633,248.96449 C5.93817656,249.583721 6.08442603,250.197489 6.23248105,250.805186 C6.26979573,250.958779 6.30771225,251.111766 6.34502693,251.264753 C6.49669305,251.879735 6.65016472,252.490467 6.80664563,253.093914 C6.83132147,253.18862 6.85599731,253.281505 6.88067314,253.374997 C7.45122663,255.558699 8.0530763,257.665907 8.68441661,259.699658 C9.9856156,259.963135 11.3096849,260.263037 12.6536152,260.609685 C24.1742216,263.585639 38.965881,270.423291 50.0098225,286 C51.2062996,273.957768 51.1713923,260.11855 50.6754682,246.322435" id="Fill-28" fill="#005639"></path>
            <path d="M12.317821,261.762773 C11.1971321,261.477484 10.0915958,261.22643 9,261 C9.00303053,261.009009 9.00606105,261.018018 9.00909158,261.027027 C9.04848843,261.14835 9.08788528,261.270875 9.12788824,261.390996 C9.30184049,261.915929 9.47821716,262.433654 9.65580605,262.948976 C9.70853722,263.10033 9.76126839,263.251683 9.81399956,263.401835 C9.99219455,263.90935 10.1716017,264.413861 10.3540395,264.912367 C10.4001035,265.037894 10.4467736,265.16162 10.4928376,265.286546 C11.3250203,267.537028 12.1990243,269.683605 13.1124252,271.729279 C13.163338,271.843995 13.2142509,271.960513 13.2657698,272.07523 C13.4615419,272.508869 13.6597383,272.936503 13.859147,273.361134 C13.9306675,273.513088 14.0021879,273.665642 14.0743144,273.816996 C14.2700865,274.227812 14.4670707,274.634425 14.6658733,275.036232 C14.7392121,275.183982 14.8131569,275.33053 14.8864957,275.477079 C15.0919654,275.886094 15.2980412,276.292706 15.5065415,276.692111 C15.5501811,276.776797 15.5950329,276.85908 15.6392786,276.941964 C16.3447853,278.284326 17.0702934,279.572031 17.8139848,280.811088 C17.8848991,280.928807 17.9546012,281.047727 18.0255156,281.165447 C18.2334097,281.506593 18.4437283,281.842934 18.654653,282.176872 C18.7522359,282.331829 18.8492128,282.486787 18.9474019,282.639942 C19.1522655,282.958865 19.3589474,283.274185 19.5662355,283.586502 C19.6698795,283.743261 19.7747358,283.897617 19.879592,284.051974 C20.0886984,284.361287 20.2984108,284.668799 20.5099416,284.970905 C20.6051002,285.106643 20.702077,285.239378 20.7978417,285.373914 C21.5312292,286.401556 22.2791633,287.385954 23.0416439,288.32891 C23.1434696,288.455038 23.2452953,288.583568 23.3477271,288.709096 C23.5574396,288.963754 23.7689704,289.212406 23.9805011,289.460458 C24.1114199,289.614213 24.2429448,289.76857 24.3744697,289.919923 C24.5799394,290.155362 24.7866213,290.387798 24.9945155,290.618432 C25.1345258,290.773389 25.2745362,290.926544 25.4151526,291.079099 C25.6212285,291.302525 25.8279104,291.524751 26.0351985,291.742171 C26.1788454,291.891723 26.3230985,292.038271 26.4673516,292.186021 C26.676458,292.399838 26.8849582,292.614255 27.0958829,292.822066 C27.2304383,292.955401 27.366812,293.08213 27.5019735,293.212462 C27.8977604,293.59505 28.2959716,293.966827 28.6978195,294.329595 C28.8572252,294.47254 29.0154187,294.618488 29.1754306,294.75903 C29.3754453,294.933807 29.5766723,295.10378 29.7778993,295.273752 C29.9494272,295.4197 30.1215611,295.565648 30.2943011,295.708593 C30.4931037,295.871959 30.6931185,296.032922 30.8931333,296.191483 C31.0719344,296.334427 31.2519477,296.47497 31.431961,296.61311 C31.6289452,296.765665 31.8271417,296.915817 32.0253382,297.063567 C32.2150492,297.205311 32.4053663,297.342249 32.5956833,297.479188 C32.7878188,297.617328 32.9793481,297.75727 33.1726957,297.890605 C33.3908936,298.042559 33.6109099,298.188507 33.8315323,298.335657 C34.0788233,298.500824 34.3273265,298.66419 34.5770419,298.823351 C34.8661542,299.007738 35.1552665,299.190323 35.4468032,299.366302 C35.6249982,299.473811 35.8050115,299.575914 35.9844187,299.68042 C36.205041,299.80895 36.4250573,299.93688 36.6468919,300.061206 C36.8335723,300.164511 37.0208589,300.264813 37.2087516,300.365715 C37.4275556,300.484035 37.6475719,300.599953 37.8675881,300.713468 C38.0536625,300.808964 38.2409491,300.90326 38.4276295,300.995153 C38.6567374,301.108668 38.8870574,301.217979 39.1173775,301.326689 C39.2961786,301.410775 39.4755858,301.495461 39.654993,301.577143 C39.9210733,301.697265 40.1877596,301.811981 40.4550521,301.924896 C40.6005174,301.987359 40.7441644,302.051624 40.8902358,302.111685 C41.2932959,302.277453 41.6981743,302.436014 42.104871,302.587968 C42.2466997,302.640822 42.3897406,302.688871 42.5321753,302.740523 C42.8115899,302.840224 43.0910045,302.939925 43.3716313,303.03362 C43.5437652,303.091279 43.7165053,303.144733 43.8892453,303.199989 C44.1456279,303.281672 44.4026166,303.362153 44.6602114,303.438431 C44.8371942,303.490083 45.014177,303.541735 45.1917658,303.590985 C45.4523912,303.66426 45.7148348,303.73393 45.9772784,303.801799 C46.1475941,303.846244 46.3179097,303.89129 46.4894375,303.932732 C46.5870205,303.956756 46.6852095,303.976576 46.7827925,304 C48.2719935,299.184317 49.3084337,293.610666 50,287.533103 C39.011309,271.625974 23.9708035,264.726779 12.317821,261.762773" id="Fill-30" fill="#005639"></path>
            <g id="Group-34" transform="translate(0.000000, 175.000000)">
                <mask id="mask-4" fill="white">
                    <use xlink:href="#path-3"></use>
                </mask>
                <g id="Clip-33"></g>
                <path d="M47.0835197,24.3350316 C38.6173666,14.0857388 28.339932,8.25598796 20.1120577,4.98931726 C11.817054,1.69479357 4.38505487,0.459574247 0.235133962,0 C0.218805215,0.497115227 0.195219246,0.997863451 0.180100036,1.49376768 C0.179495267,1.51556567 0.178890499,1.53857465 0.178285731,1.56097814 C0.120227962,3.54035655 0.075475099,5.51307447 0.0458414463,7.47731539 C0.0452366779,7.49305838 0.0452366779,7.50819587 0.0452366779,7.52272786 C0.0149982568,9.49362928 -0.000120953684,11.4554482 -0.000120953684,13.4075791 L-0.000120953684,13.4154506 C-0.000120953684,13.5099086 0.00108858316,13.60255 0.00108858316,13.698219 C0.00229812,14.9431263 0.00774103579,16.1795566 0.0192316358,17.4026659 C0.0222554779,17.6963333 0.0283031621,17.9839456 0.0319317726,18.2764019 C0.0440271411,19.3027239 0.0567272779,20.3278348 0.0766846358,21.3384138 C0.0809180147,21.5672926 0.0881752358,21.7901165 0.0930133832,22.0177844 C0.115994583,23.0877023 0.14018532,24.1545927 0.172238046,25.2069511 C0.176471425,25.3619591 0.183123878,25.512123 0.187962025,25.6671309 C0.222433825,26.7897273 0.260534236,27.9056632 0.304682331,29.0088835 C0.308310941,29.090626 0.31254432,29.1699465 0.315568162,29.2516889 C0.363949636,30.4251473 0.416564488,31.5883121 0.475831794,32.739367 C0.476436562,32.7569265 0.477646099,32.774486 0.478250867,32.79144 C0.637304962,35.8837268 0.839297615,38.8851886 1.07394776,41.8164125 C5.48029048,42.2996012 10.9141347,43.2562907 16.7168877,45.1127527 C27.2912636,48.4962848 40.8719433,55.509182 51,70 C50.7266447,63.1342393 50.3492692,56.305414 49.9640317,49.7430086 C49.4451404,40.9172455 48.4109864,32.5098826 47.0835197,24.3350316" id="Fill-32" fill="#005639" mask="url(#mask-4)"></path>
            </g>
            <path d="M10.9720435,90 C10.78662,90.8651821 10.5981864,91.7249342 10.4169771,92.596753 C10.415773,92.603993 10.413967,92.611233 10.4127629,92.618473 C9.74451593,95.8264041 9.10396207,99.075362 8.49230538,102.356297 C8.49170335,102.36233 8.4904993,102.367157 8.48929526,102.37319 C7.87763856,105.656538 7.29427701,108.973673 6.74161869,112.316147 L6.73981262,112.327007 C5.71697332,118.518429 4.80310043,124.800351 4,131.120886 C6.36655755,131.525121 14.7840614,133.201788 24.4754487,137.981406 C28.0213719,139.730474 31.9893141,142.026163 36,145 C33.3510931,130.970656 31.3457501,116.369954 31.1296234,100.244625 C22.3731798,94.261957 14.2928096,91.1384928 10.9720435,90" id="Fill-35" fill="#005639"></path>
            <path d="M2.43420813,139.528219 C1.77905189,145.680999 1.23418728,151.851501 0.808605457,157.996948 L0.808006046,158.011004 C0.666545047,160.052153 0.53827109,162.090246 0.423783587,164.124061 C0.423783587,164.137506 0.422584765,164.150339 0.421985354,164.164395 C0.308097261,166.189655 0.207995622,168.210636 0.121081025,170.224896 C0.120481614,170.248118 0.119282792,170.269508 0.11808397,170.291508 C0.0713299106,171.387861 0.0389617159,172.477493 0,173.570179 C4.18388887,174.03891 11.7130906,175.301489 20.0988507,178.692607 C27.9781085,181.878388 37.7233327,187.434713 46,197 C43.1402101,179.861684 39.1061739,163.669386 35.8669568,146.752908 C24.9223111,138.939097 12.4191968,138.205139 2.43420813,139.528219" id="Fill-37" fill="#005639"></path>
            <path d="M58.6085206,270.164095 L58.957548,254.144415 L59.0178012,251.385159 L59.036171,250.554014 L59.3734417,230.943332 C59.4674954,224.078871 59.5564055,217.214411 59.6364982,210.34995 C59.6467853,209.484525 59.6533984,208.6191 59.6636855,207.754277 C59.8172576,194.233443 59.9274768,180.71321 59.9715645,167.192977 C59.9737688,166.358825 59.9737688,165.525275 59.9759732,164.691123 C59.9862603,160.625611 60.0031606,156.560701 59.9994867,152.496392 C59.9384987,143.271408 59.8797151,134.046425 59.8010921,124.822043 C59.7937442,124.007136 59.7856614,123.192229 59.7775787,122.377924 C59.7496565,119.342623 59.7312866,116.307321 59.6938121,113.272019 L59.4843957,93.6607354 L59.3264149,82.9256188 L59.2896751,80.4592483 L59.1956214,74.0494514 C59.0332318,63.1820252 58.828959,52.314599 58.5974987,41.4471728 C58.5791288,40.6076085 58.5636981,39.7680442 58.5453283,38.9290813 C58.2616976,25.9561288 57.9251617,12.985582 57.5320466,0.0150351774 C57.4593019,0.0108253277 57.3858225,0.00360844257 57.312343,0 C56.7671255,24.6877613 56.4217721,49.3731169 56.2564433,74.0572697 L56.128589,93.6673509 L56.0808274,113.277432 C56.0235134,126.350218 56.0756838,139.423606 56.0962581,152.496392 L56,191.71475 L56.0301266,211.324229 L56.1146279,230.934311 L56.2821611,250.544392 L56.5393392,270.155074 C56.7333249,281.769448 56.9412718,293.383822 57.2778077,305 C57.3748006,305 57.4717935,305 57.5680515,304.996392 C57.6437354,303.000923 57.7208888,301.004853 57.7884899,299.009985 C57.8222904,298.034503 57.8502126,297.059622 57.8818088,296.08414 C58.1617655,287.443724 58.3895518,278.804511 58.6085206,270.164095" id="Fill-39" fill="#64CC75"></path>
        </g>
    </g>
</svg>