<svg viewBox="0 0 420 420" xmlns="http://www.w3.org/2000/svg" xmlns:xlink="http://www.w3.org/1999/xlink"><defs><path id="k" d="M3.977 6.57C2.625 9.798.845 12.088 0 11.684l2.667 1.271c.844.402 2.624-1.887 3.976-5.114 1.352-3.225 1.763-6.167.918-6.57L4.895 0c.844.402.433 3.344-.918 6.57"/><path id="a" d="M0 0h135.77v117.32H0z"/><path id="e" d="M4.094 9.403.059 27.973c-.239 1.098.26 2.224 1.225 2.75 2.361 1.29 6.937 3.52 11.245 4.098s9.286-.374 11.888-.997c1.063-.255 1.825-1.212 1.867-2.337l.704-19.016c.265-6.196-4.114-11.57-10.08-12.37h-.001a11.38 11.38 0 0 0-1.504-.1C10.029 0 5.266 3.857 4.093 9.404"/><path id="g" d="M0 0h23.828v13.65H0z"/><path id="i" d="M12.623.014 1.582 1.257C.437 1.385-.237 2.393.077 3.507l6.66 23.694c.313 1.115 1.495 1.914 2.64 1.786l11.041-1.243c1.145-.128 1.819-1.137 1.506-2.251L15.263 1.799C14.972.763 13.93 0 12.867 0c-.081 0-.162.004-.244.014"/><path id="c" d="M0 0h47.887v102.31H0z"/><path id="m" d="m.383 1.695-.054.099c-.8 1.459-.09 3.184 1.587 3.854l.217.087c1.676.67 3.684.029 4.484-1.43l.055-.1c.8-1.458.089-3.183-1.588-3.852L4.867.265A3.768 3.768 0 0 0 3.472 0C2.198 0 .968.629.382 1.695z"/><path id="o" d="M.29 1.738c-.705 1.496-.08 3.265 1.394 3.95l.085.04c1.473.686 3.238.03 3.942-1.466.704-1.496.079-3.264-1.395-3.95L4.23.272A2.9 2.9 0 0 0 3.004 0C1.884 0 .803.644.29 1.738z"/><path id="q" d="M0 0h27.699v44.326H0z"/><path id="s" d="M0 0h139.18v116.98H0z"/><path id="u" d="M0 0h47.771v102.01H0z"/></defs><g fill="none" fill-rule="evenodd"><path d="m284.06 181.819-1.88-1.855a3.057 3.057 0 0 0-2.146-.88h-.767c1.047 0 1.834.956 1.633 1.984l-19.611 100.51 4.598.741 19.053-97.649a3.152 3.152 0 0 0-.88-2.848" fill="#FFDAAB"/><path d="m261.29 281.57 19.611-100.51a1.665 1.665 0 0 0-1.632-1.985H176.018a2.33 2.33 0 0 0-2.295 1.938l-15.036 87.708H181.6l79.691 12.846z" fill="#E99462"/><g transform="translate(48 231.68)"><mask id="b" fill="#fff"><use xlink:href="#a"/></mask><path d="m135.67 114.89-34.133-99.326 3.826.213.09.004c.179.01.358.001.535-.027l6.72-1.083a2.497 2.497 0 0 0 2.092-2.298l.025-.371c.005-.036.01-.07.013-.106l.067-.998c.002-.019-.003-.036-.002-.055l.002-.022a2.496 2.496 0 0 0-2.284-2.657L44.236 2.49 19.946.449c-.092-.008-.181.002-.271.004l-5.32-.44A4.04 4.04 0 0 0 9.99 3.77a2.498 2.498 0 0 0 1.658 2.524l14.002 4.952c.112.04.227.071.343.094L.057 115.04a1.833 1.833 0 0 0 1.777 2.28h13.66c.822 0 1.544-.55 1.764-1.342l28.777-103.5 41.768 2.32 38.361 101.34c.27.713.952 1.185 1.713 1.185h6.061c1.258 0 2.141-1.24 1.732-2.43" fill="#E99462" mask="url(#b)"/></g><path d="m79.168 243.33-4.826-.268a2.45 2.45 0 0 1-.35-.045l-25.937 103.7a1.833 1.833 0 0 0 1.777 2.279h5.254a1.833 1.833 0 0 1-1.777-2.279l25.86-103.39zM65.247 234.45a2.487 2.487 0 0 1 2.427-2.316l-5.32-.441a4.04 4.04 0 0 0-4.362 3.746l7.598.437a2.482 2.482 0 0 1-.343-1.426" fill="#FFDAAB"/><g transform="translate(139.635 246.69)"><mask id="d" fill="#fff"><use xlink:href="#c"/></mask><path d="M47.786 99.876 13.726.763 0 0l38.28 101.12c.27.713.951 1.184 1.712 1.184h6.062c1.257 0 2.14-1.24 1.732-2.43" fill="#FFDAAB" mask="url(#d)"/></g><path d="m271.05 178.949-2.34-1.581a14.093 14.093 0 0 0-7.891-2.418h-2.234c3.393 0 5.944 3.1 5.293 6.435l-15.15 81.435a5.69 5.69 0 0 1-5.74 4.649l7.76 1.042a7.344 7.344 0 0 0 8.189-5.909l14.73-77.314a6.215 6.215 0 0 0-2.617-6.34" fill="#0097B8"/><path d="m248.73 262.82 15.149-81.435c.65-3.334-1.9-6.435-5.293-6.435h-92.614a9.577 9.577 0 0 0-9.436 7.964l-10.809 67.112a4.813 4.813 0 0 0 4.136 5.54l92.554 11.86a5.69 5.69 0 0 0 6.313-4.605" fill="#00547A"/><path d="m254.39 265.67-74.022-12.076a4.933 4.933 0 0 0-.793-.064h-3.62c2.22 0 4.019 1.802 4.019 4.024v8.051c0 2.222-1.8 4.024-4.02 4.024h4.02v-.076l72.357 11.47a4.93 4.93 0 0 0 5.682-4.44l.495-5.607a4.934 4.934 0 0 0-4.118-5.306" fill="#0097B8"/><path d="M179.97 265.6v-8.051c0-2.222-1.8-4.024-4.02-4.024H61.21a4.022 4.022 0 0 0-4.02 4.024v8.051c0 2.222 1.8 4.024 4.02 4.024h114.74c2.22 0 4.02-1.802 4.02-4.024" fill="#00547A"/><path d="M181.6 268.73H56.688c-.892 0-1.615.724-1.615 1.617v2.801c0 .893.723 1.617 1.615 1.617h9.83v.011l7.713 2.428a4.154 4.154 0 0 1 2.775 2.934l.97 3.795a3.552 3.552 0 0 0 3.403 2.674l130.9 1.395 66.85 10.573-3.765-14.73-9.479-1.527-84.289-13.587z" fill="#E99462"/><path d="M244.34 151.549a10.554 10.554 0 0 0-4.53-13.133l-4.073-2.332-15.445-8.236-16.704-2.865-.438-.075-9.661-1.656-17.584 4.088a33.98 33.98 0 0 0-3.872 1.147l-7.391 3.274c-5.701 2.064-9.219 7.845-8.125 13.355l1.892 30.224-12.413 46.812c-.321 1.324.207 2.631 1.34 3.308 1.904 1.138 4.977 3.145 7.897 5.795 8.358 7.583 23.434 10.173 23.434 10.173s15.078 2.58 26.627-1.59c3.936-1.42 7.686-2.237 10.027-2.66 1.466-.264 2.668-1.405 2.979-2.815l10.97-45.734 15.07-37.08z" fill="#FC95A4"/><path d="M202.12 149.075c.211.022.37.18.414.377l5.07-1.513a.593.593 0 0 1 .36.006l5.627 1.904a1.226 1.226 0 0 0 1.562-.796l2.57-8.204 1.783-13.136-15.917-2.73-.44-.075-9.66-1.656-17.585 4.088c-1.307.304-2.6.687-3.872 1.147l-.02.008 17.273 18.016c.288.3.708.434 1.117.355l5.622-1.087a.595.595 0 0 1 .437.086l5.228 3.412a.485.485 0 0 1 .43-.202M155.23 231.25c5.503 4.992 13.916 7.82 19.023 9.17l-8.028-92.555c-.045-.518-.764-.608-.935-.117l-7.87 22.623.986 4.964-5.935 22.381-2.975 29.104c1.708 1.135 3.756 2.634 5.734 4.43M180.69 241.28a.476.476 0 0 0 .163.443l.533.06a.474.474 0 0 0 .248-.332c.054-.301 4.308-23.67 8.717-41.237l-.99.006c-4.399 17.588-8.616 40.759-8.671 41.06" fill="#DB594A"/><path d="M202.55 149.601a.47.47 0 0 0-.014-.15.475.475 0 0 0-.414-.377.485.485 0 0 0-.431.202.456.456 0 0 0-.095.228c-.017.162-1.475 14.08-5.872 29.405l.502 1.7c4.75-15.972 6.307-30.84 6.324-31.008M209.1 172.473a.721.721 0 0 1 .497.869l-.242.942.776.51 3.159 2.053.793.507c.29.185.611.358.935.497a6.438 6.438 0 0 0 2.046.496 7.04 7.04 0 0 0 2.08-.171c.619-.143 1.22-.305 1.83-.46 2.14-.554 4.272-1.142 6.383-1.825l.328-.69c-2.357.317-4.687.75-7.009 1.22-.613.128-1.235.25-1.84.386a5.605 5.605 0 0 1-1.662.107 5.155 5.155 0 0 1-1.599-.38 5.288 5.288 0 0 1-.729-.383l-.796-.503-3.2-1.988-.802-.493a1.834 1.834 0 0 1-.511-.46 1.857 1.857 0 0 1-.349-1.338c.02-.216.112-.543.182-.847l.22-.918c.15-.61.29-1.223.428-1.837.276-1.227.565-2.45.817-3.685a.298.298 0 0 0-.574-.156c-.406 1.193-.775 2.394-1.158 3.593-.191.598-.38 1.198-.56 1.8l-.274.903c-.085.303-.195.576-.265.981a3.118 3.118 0 0 0 .215 1.736.717.717 0 0 1 .881-.466" fill="#DB594A"/><path d="M219.37 188.892a176.7 176.7 0 0 0-3.802 1.48c-.166.068-.306.12-.44.168a4.144 4.144 0 0 1-.418.116c-.282.069-.571.09-.856.092-.568-.008-1.135-.128-1.62-.393a2.932 2.932 0 0 1-.664-.476 4.3 4.3 0 0 1-.293-.315l-.332-.388-1.325-1.551-1.325-1.551-.662-.776-.165-.194c-.052-.063-.082-.098-.12-.151a2.372 2.372 0 0 1-.188-.312 2.181 2.181 0 0 1-.15-1.459l.522-1.943c.63-2.312 1.235-4.632 1.827-6.954l.242-.943a.718.718 0 0 0-1.378-.402c-.003.008-.008.016-.01.024a453.596 453.596 0 0 0-2.208 7.859l-.541 1.998a3.774 3.774 0 0 0 .266 2.52 3.502 3.502 0 0 0 .542.804l.169.191.675.765 1.35 1.528 1.35 1.53.338.382c.104.118.266.293.41.423.296.28.64.506.999.691.718.37 1.525.537 2.311.511a5.157 5.157 0 0 0 1.162-.166c.189-.048.374-.11.556-.177.184-.074.36-.146.505-.217a173.003 173.003 0 0 0 3.69-1.741c.408-.194.814-.395 1.22-.595l.568-1.198c-.738.266-1.474.538-2.205.82M216.21 172.691c-.24.884.294 1.726 1.194 1.88.9.155 1.824-.437 2.064-1.322.24-.884-.294-1.726-1.194-1.88-.9-.154-1.824.437-2.064 1.322M222.13 218.4l-5.971-2.67s-1.13-.5-.701-1.665l-25.722-5.516 10.048 11.498 19.246 11.278 3.1-12.925z" fill="#DB594A"/><path d="M222.9 196.866c.185-.416.509-.601.814-.678.365-.092.751-.02 1.083.157l2.326 1.245 2.15-8.96 4.269-10.62-1.323-12.352-4.532 9.542-.564-.604-5.55 13.476-.569 1.198-3.606 7.592 5.503 2.27c.214-1.048.26-1.892-.001-2.266" fill="#DB594A"/><path d="M220.54 206.04c.727-1.631 1.915-4.72 2.36-6.91l-5.502-2.27-13.518-5.576a5.649 5.649 0 0 0-.717-.236l-1.565-.927-1.137-5.061a2.077 2.077 0 0 0-.81-.684l-2.47-.87.706 2.352-.098.03-1.562-5.281-.503-1.7-1.836-6.208c-.414-1.399-1.957-2.406-3.447-2.25l-10.572 1.104c-1.514.158-2.402 1.438-1.981 2.86l3.166 10.703a2.206 2.206 0 0 0-1.453.504l-.486.405a.382.382 0 0 0 .073.636l1.994 1.055-.26 2.011c-.05.386.015.778.187 1.13l3.516 7.207a2.84 2.84 0 0 0 1.756 1.47l1.938.569c.271.08.552.12.835.118h.207l.989-.006 7.822-.038c.055.047.105.095.161.14l17.231 13.614c1.067-.251 4.053-5.816 4.976-7.89" fill="#DB594A"/><path d="m216.16 215.73 5.971 2.67 4.991-20.81-2.325-1.245a1.527 1.527 0 0 0-1.084-.157 1.164 1.164 0 0 0-.813.678c.26.374.215 1.218.001 2.266-.446 2.188-1.634 5.277-2.36 6.909-.924 2.075-3.91 7.64-4.977 7.89-.02.005-.041.012-.06.013-.019.041-.03.08-.045.12-.428 1.165.7 1.666.7 1.666" fill="#DB594A"/><path fill="#fff" d="m201.87 149.354 14.4-15.804-23.38-2.187z"/><path d="M217.5 133.205a2.47 2.47 0 0 1-1.905 2.316c-2.656.618-7.734 1.56-12.131.988-4.398-.573-9.067-2.783-11.476-4.06a2.473 2.473 0 0 1-1.25-2.727l4.117-18.404c1.306-6.006 6.987-10.01 13.075-9.219 6.089.792 10.558 6.119 10.287 12.26l-.718 18.846z" fill="#FFDAAB"/><g transform="translate(191 102)"><mask id="f" fill="#fff"><use xlink:href="#e"/></mask><path d="M27.192 15.697S16.769 30.356-.829 22.857c0 0-4.291-10.083 1.89-13.52 6.181-3.436 26.671-1.925 26.131 6.36" fill="#E99462" mask="url(#f)"/></g><g><path d="m210.121 118.523-1.51.325c-1.56.336-3.174.336-4.735 0l-1.51-.325c-6.297-1.355-10.959-6.754-11.447-13.258l-.354-4.719a21.415 21.415 0 0 1-.017-2.958l.862-13.571c.195-3.078 2.436-5.626 5.432-6.178l4.608-.848a26.487 26.487 0 0 1 9.586 0l4.608.848c2.996.552 5.237 3.1 5.432 6.178l.862 13.571c.063.985.057 1.974-.017 2.958l-.354 4.719c-.488 6.503-5.15 11.903-11.447 13.258" fill="#FFD9AF"/><path d="M187.877 91.905c-1.436.072-3.16 1.977-1.896 6.111 1.264 4.134 2.45 6.455 4.424 6.014 2.221-.494 1.477-5.488 1.186-7.363-.316-2.04-1.344-4.882-3.714-4.762M224.665 91.905c1.436.072 3.16 1.977 1.896 6.111-1.264 4.134-2.45 6.455-4.424 6.014-2.221-.494-1.476-5.488-1.186-7.363.316-2.04 1.344-4.882 3.714-4.762" fill="#FFD9AF"/><path d="M191.591 96.667c-.248-1.605-.94-3.7-2.377-4.464.582.723 1.044 1.66 1.044 3.047 0 2.754-.284 5.99-2.12 6.282-.348.057-.628.061-.865.019.866 1.849 1.826 2.77 3.132 2.48 2.22-.495 1.476-5.489 1.186-7.364M223.487 103.43c-1.835-.293-1.204-5.426-1.204-8.18 0-.953.088-1.749.247-2.428-.907.983-1.383 2.57-1.58 3.846-.29 1.875-1.035 6.868 1.186 7.363.739.165 1.366-.057 1.929-.614a1.65 1.65 0 0 1-.578.013" fill="#E99462"/><path d="M209.404 116.34c-9.48-.96-16.076-7.556-16.538-12.486-.326-3.493-.436-4.897-.545-7.447a4.16 4.16 0 0 0-1.503-3.064l-.27 4.245a21.49 21.49 0 0 0 .017 2.959l.354 4.718c.488 6.504 5.15 11.903 11.446 13.258l1.51.325c1.561.336 3.175.336 4.736 0l1.51-.325a14.355 14.355 0 0 0 4.893-2.068c-1.468.124-3.307.118-5.61-.115" fill="#E99462"/><path d="M206.244 73.009c-9.954 0-16.828 5.69-16.828 9.933l.453 9.43c.012.265.116.514.272.729.231.319.54 1.045.54 2.646v4.898a.62.62 0 0 0 .617.624h.73a.62.62 0 0 0 .617-.632c-.019-1.143-.047-3.607.011-5.45.08-2.482 1.185-4.323 1.264-5.865.08-1.543-1.975-5.26 1.422-7.9 2.184-1.699 6.065-1.015 8.56-.309a8.618 8.618 0 0 0 4.685 0c2.494-.705 6.376-1.39 8.56.308 3.397 2.641 1.343 6.358 1.421 7.901.08 1.542 1.185 3.383 1.265 5.864.058 1.844.03 4.308.011 5.45a.62.62 0 0 0 .617.633h.73a.62.62 0 0 0 .616-.624v-4.898c0-1.601.31-2.327.54-2.647.157-.214.26-.463.273-.728l.453-9.43c0-4.242-6.875-9.933-16.828-9.933" fill="#0097B8"/><path d="m189.415 82.942.453 9.43c.012.266.116.514.272.729.231.32.54 1.045.54 2.646v4.898a.62.62 0 0 0 .617.624h.036c.157-1.087.213-3.452.232-5.944.012-1.473.624-3.591.624-4.912 0-4.076-1.886-3.638-1.192-7.923.52-3.215 5.006-1.744 5.795-4.649.418-1.54-.493-2.06-1.442-2.208-3.725 2.036-5.935 4.904-5.935 7.309" fill="#00547A"/><g transform="translate(192.838 71)"><mask id="h" fill="#fff"><use xlink:href="#g"/></mask><path d="M1.113 2.786a.81.81 0 0 0-1.051.7c-.273 2.798.001 10.165 8.6 10.165 10.491 0 14.26-4.541 15.07-6.074C24.291 6.52 22.567.66 14.657.07 6.747-.52 4.915 2.851 3.25 3.02a5.43 5.43 0 0 1-2.137-.232" fill="#0097B8" mask="url(#h)"/></g><path d="M213.353 78.495c-2.724-.436-10.54 1.96-15.845.145-3.14-1.074-3.29-3.165-2.892-4.695a5.985 5.985 0 0 1-.665-.159.81.81 0 0 0-1.052.7c-.272 2.798.002 10.165 8.6 10.165 6.969 0 10.97-2.003 13.11-3.798.56-.897 1.101-1.98-1.256-2.358" fill="#00547A"/><path d="M221.8 101.379c0-1.568.003-2.728.005-3.345a.502.502 0 0 0-.501-.506h-.915a.529.529 0 0 0-.523.53c-.009 1.61-.077 1.729-.58 2.566-.825 1.374-1.92 2.015-4.593 2.015-2.65 0-4.223-.782-8.45-.782-4.226 0-5.799.782-8.449.782-2.672 0-3.767-.641-4.593-2.015-.502-.837-.57-.956-.58-2.566a.528.528 0 0 0-.522-.53h-.81c-.383 0-.607.225-.606.506.002.618.005 1.777.005 3.345 0 2.407-.871 3.033-.871 5.816 0 3.702 4.037 12.922 16.427 12.922s16.426-9.22 16.426-12.922c0-2.783-.87-3.41-.87-5.816" fill="#0097B8"/><path d="M209.404 116.34c-9.48-.96-11.546-3.83-12.489-7.518-.942-3.688-3.101-3.688-4.05-4.968-.869-1.175-1.49-3.223-1.333-6.326h-.244c-.383 0-.607.225-.606.506.002.618.005 1.777.005 3.345 0 2.407-.87 3.033-.87 5.817 0 3.701 4.036 12.92 16.425 12.92 5.615 0 9.51-1.894 12.095-4.31-1.625.568-4.372.996-8.934.534" fill="#00547A"/><path d="M209.54 95.828c.333-.71 1.107-1.193 1.907-1.266.402-.036.813.02 1.182.176.37.152.698.399.92.719a.25.25 0 0 1-.06.347.243.243 0 0 1-.232.027l-.011-.004c-.6-.25-1.15-.357-1.712-.308-.563.049-1.09.258-1.629.617l-.01.006a.242.242 0 0 1-.338-.07.253.253 0 0 1-.017-.244M201.617 96.135c-.54-.359-1.065-.569-1.628-.616-.563-.05-1.113.058-1.712.306l-.01.005a.245.245 0 0 1-.32-.136.255.255 0 0 1 .026-.238c.222-.32.551-.567.92-.718.37-.157.78-.213 1.182-.177.8.074 1.575.556 1.907 1.266a.25.25 0 0 1-.116.331.243.243 0 0 1-.24-.016l-.009-.007z" fill="#1C417D"/><path d="M199.882 100.537h-2.016a1.156 1.156 0 0 1-1.149-1.164c0-.643.514-1.164 1.149-1.164h2.016c.634 0 1.149.521 1.149 1.164 0 .643-.515 1.164-1.149 1.164M213.656 100.537h-2.016a1.156 1.156 0 0 1-1.149-1.164c0-.643.514-1.164 1.149-1.164h2.016c.634 0 1.149.521 1.149 1.164 0 .643-.515 1.164-1.149 1.164" fill="#FC95A4"/><path d="m202.828 89.804-.587-1.206c-.227-.466-.586-.615-.913-.499-1.086.387-3.48 1.39-5.264 3.234a.583.583 0 0 0-.156.48l.106.846a.272.272 0 0 0 .417.199c.821-.532 2.999-1.78 6.024-2.304a.526.526 0 0 0 .373-.75M208.66 90.058l.5-1.246c.194-.48.542-.655.876-.563 1.11.307 3.57 1.136 5.478 2.844.132.118.2.292.19.468l-.047.852a.272.272 0 0 1-.401.229c-.857-.471-3.117-1.56-6.17-1.864a.524.524 0 0 1-.426-.72" fill="#00547A"/><path d="m204.977 94.895-.197 5.762a1.165 1.165 0 0 0 1.275 1.208l1.292-.133c.241-.025.466-.136.633-.314l.244-.258" fill="#FFD9AF"/><path d="M205.28 94.906c.08.851.11 1.7.126 2.549.017.849.009 1.696-.014 2.543l-.017.635a.624.624 0 0 0 .552.683c.031.001.047.004.093.004l.157-.006.314-.014.629-.015c.423.014.466-.008.877-.344a.313.313 0 0 1 .445.049c.09.113.091.27.012.384l-.003.005-.182.263a1.399 1.399 0 0 1-.297.297 1.398 1.398 0 0 1-.396.198c-.066.023-.156.04-.208.05l-.155.03-.619.114-.31.05-.155.026a2.668 2.668 0 0 1-.22.02 1.698 1.698 0 0 1-1.525-.93 1.814 1.814 0 0 1-.193-.905l.025-.635a53.99 53.99 0 0 1 .16-2.538c.074-.846.161-1.69.3-2.534a.305.305 0 0 1 .35-.254c.14.023.241.14.254.275" fill="#E99462"/><path d="m205.328 106.803 1.855.016a5.255 5.255 0 0 0 2.072-.406l2.788-1.163a.56.56 0 0 1 .764.608l-.264 1.752a2.16 2.16 0 0 1-1.904 1.836l-1.04.108c-.442.046-.89.006-1.318-.118l-1.521-.438a2.57 2.57 0 0 1-1.296-.87l-.48-.604c-.232-.291-.025-.724.344-.721" fill="#fff"/><path d="m217.77 123.527-.336 7.463-10.629 8.943a6 6 0 0 0-1.611 2.14l-3.424 7.652 6.945-6.737a.583.583 0 0 1 .9.106l4.144 6.48a.614.614 0 0 0 1.049-.016c1.37-2.297 5.169-8.956 7.733-16.228a4.973 4.973 0 0 0-.331-4.073l-2.427-4.355a2.711 2.711 0 0 0-2.013-1.375" fill="#FC95A4"/><path d="m192.913 120.253-1.558 7.302 8.018 11.399c.521.74.869 1.59 1.018 2.486l1.38 8.285-5.015-8.312a.583.583 0 0 0-.897-.13l-5.641 5.19a.615.615 0 0 1-1.01-.287c-.745-2.576-2.737-9.997-3.38-17.69a4.954 4.954 0 0 1 1.346-3.853l3.445-3.582a2.694 2.694 0 0 1 2.294-.807M157.476 138.688l-24.281 45.964c-2.382 4.51-1.109 10.109 2.982 13.108 4.596 3.37 11.03 2.24 14.239-2.5l29.107-42.99c4.267-6.303 2.32-14.954-4.223-18.758-6.32-3.675-14.387-1.332-17.825 5.176" fill="#FC95A4"/><path d="m167.17 147.924-15.913 18.769a19.97 19.97 0 0 1-2.673 2.613l-12.715 10.286-2.673 5.06c-2.383 4.51-1.109 10.11 2.981 13.108 4.596 3.37 11.03 2.24 14.24-2.5l18.617-27.497-.46-19.332c-.017-.74-.927-1.07-1.404-.508" fill="#DB594A"/><path d="M170.64 167.314c2.681 1.402 5.974.25 7.232-2.529l2.184-4.829s2.998-1.178 5.19-3.815c1.82-2.19 3.11-3.575 3.697-4.04.118-.093.216-.203.293-.333a35.64 35.64 0 0 1 1.318-2.045c.357-.503.023-1.206-.588-1.233-.584-.025-1.381.184-2.384.989-1.519 1.218-2.528 1.773-2.528 1.773s-.387-1.322 1.81-4.836c2.198-3.514 3.828-6.543 4.167-8.059.159-.715-.142-1.31-.504-1.74a.858.858 0 0 0-1.4.129l-.875 1.51s-3.574 1.466-4.357 1.85c-.783.386-2.129 2.402-2.129 2.402l-5.703 3.16a6.12 6.12 0 0 0-2.613 2.85l-2.27 5.058-1.712 4.722-.868 1.387c-1.663 2.657-.72 6.186 2.04 7.629" fill="#FFDAAB"/><path d="m137.052 181.94 32.676-23.769a5.394 5.394 0 0 1 7.484 1.114 5.568 5.568 0 0 1-.357 7.152l-27.64 29.61a9.202 9.202 0 0 1-12.813.66c-4.55-3.976-4.232-11.217.65-14.767" fill="#FFDAAB"/><path d="M143.076 198.97a9.205 9.205 0 0 0 6.14-2.919l27.639-29.61a5.51 5.51 0 0 0 1.24-2.152l1.96-4.333s1.487-.588 3.13-1.853c-2.079.357-3.409-.695-5.222.935l-18.08 16.241a11.515 11.515 0 0 1-9.225 2.405l-6.254-1.089-7.353 5.348c-2.39 1.74-3.683 4.364-3.85 7.056l9.875 9.97zM180.654 149.9s-2.063 1.683-1.526 1.497c1.282-.444 2.335.475 3.075 1.618.625.964.351 1.149-.05 2.088-.116.272 1.68-.394 2.28-1.942.149-.382 1.944-1.724 2.921-2.492.854-.67 1.626-.895 2.43-1.567.22-.183.326-.378.354-.579a.764.764 0 0 0-.171-.032c-.585-.025-1.382.183-2.385.989-1.518 1.218-2.527 1.773-2.527 1.773s-.388-1.323 1.81-4.836a89.735 89.735 0 0 0 1.948-3.257c.738-1.521 1.316-3.272.773-4.133 0 0-.284 2.546-2.536 3.54l1.024.135s-.09 1.28-1.825 1.966c-.736.291-.884 1.43-1.495 2.412-.195.314-.972.43-1.136.734-.12.224-.232.44-.332.64-.337.676-2.632 1.446-2.632 1.446" fill="#E99462"/><path d="m147.913 197.91 5.064-4.046-9.324-16.25-6.859 4.418c-4.72 3.04-5.896 9.504-2.554 14.049 3.237 4.4 9.42 5.228 13.673 1.83" fill="#DB594A"/><path d="M155.616 191.12s1-1.167.206-2.102c-.936.499-5.205-3.688-6.608-5.346-1.59-1.876-4.853-6.382-4.096-7.605-.267-.315-.658-.39-1.017-.379-.428.015-.86.177-1.213.42a392.58 392.58 0 0 0-7.234 5.106c-.675.485-1.077 1.2-1.062 1.968.016 1.6.78 4.769 4.492 9.192 3.708 4.419 6.877 5.866 8.583 6.258.844.203 1.728-.158 2.359-.91a1526.73 1526.73 0 0 1 5.59-6.602" fill="#FC95A4"/><path d="M152.548 192.62c-.863.32-1.67.064-2.547-.306-.898-.376-1.95.198-1.897 1.36.029.557.825.991 1.098 1.705.142.373-.149.79-.5.716-1.323-.272-4.012-1.367-7.329-5.145-2.873-3.273-3.302-5.883-3.116-7.386.057-.49.801-.552.98-.085.664 1.743 2.178 4.67 4.628 5.859 6.224 3.009-5.62-6.181-1.777-11.155.244-.308.787-.245.895.102.627 2.183 3.662 9.567 9.698 13.421.32.2.238.775-.133.914m3.275-3.608c-.936.497-5.206-3.69-6.609-5.346-1.589-1.876-4.852-6.383-4.096-7.606-.266-.315-.657-.39-1.017-.378-.428.014-.86.176-1.212.42a388.793 388.793 0 0 0-7.235 5.105c-.675.486-1.076 1.2-1.061 1.969.016 1.6.778 4.768 4.49 9.192 3.71 4.418 6.878 5.866 8.585 6.258.843.203 1.727-.159 2.358-.91a1526.73 1526.73 0 0 1 5.59-6.602s1-1.168.207-2.102" fill="#DB594A"/><path d="M175.755 160.847a10.026 10.026 0 0 0 1.676-5.146c.103-2.398.31-5.49.696-5.544.634-.088 2.37-.28 3.345-.62.582-.205-.298 1.176-1.723 1.766-.43.177 1.805 2.425.706 5.027-.936 2.213-5.714 6.032-5.714 6.032l1.014-1.515z" fill="#E99462"/><path d="m198.906 187.33-11.861 1.338c-1.188.134-2.414-.697-2.74-1.857l-6.645-23.7c-.424-1.513.488-2.881 2.038-3.056l10.82-1.22c1.526-.173 3.101.895 3.518 2.384l6.596 23.523c.36 1.281-.413 2.44-1.726 2.588" fill="#009F70"/><path d="m197.864 187.44-10.92 1.232c-1.132.127-2.301-.665-2.61-1.77l-6.588-23.492c-.31-1.105.357-2.104 1.488-2.232l10.92-1.232c1.133-.127 2.302.665 2.611 1.77l6.588 23.492c.31 1.105-.357 2.104-1.489 2.232" fill="#005639"/></g><g transform="translate(178 159)"><mask id="j" fill="#fff"><use xlink:href="#i"/></mask><path d="m4.614 6.653-2-4.17c-.311-.65-1.146-.945-1.705-.603-.491.301-.7.88-.534 1.473l6.623 23.559c.352 1.254 1.682 2.152 2.97 2.007l12.854-1.446c-.41-1.462-1.389-2.8-2.726-3.736l-2.005-1.4c-5.843-4.082-10.53-9.538-13.478-15.684" fill="#002316" mask="url(#j)"/></g><g><path d="m183.477 167.02-2.86.318c-.707.078-1.437-.408-1.63-1.088l-.94-3.3c-.193-.679.223-1.293.93-1.372l2.86-.317c.707-.079 1.437.408 1.63 1.087l.94 3.3c.193.68-.223 1.294-.93 1.372" fill="#009F70"/><path d="m183.55 167.012-2.697.3c-.665.073-1.353-.386-1.536-1.026l-.885-3.11c-.182-.64.21-1.22.876-1.293l2.697-.3c.666-.074 1.354.385 1.536 1.026l.886 3.11c.182.64-.21 1.219-.876 1.293" fill="#1C417D"/><path d="M179.977 162.722a.697.697 0 0 0-.083.005.587.587 0 0 0-.434.248.581.581 0 0 0-.066.49c.107.376.513.652.903.603.186-.02.34-.11.434-.25a.577.577 0 0 0 .066-.488.875.875 0 0 0-.82-.608m.238 1.473c-.417 0-.826-.296-.94-.696a.7.7 0 0 1 .083-.592.71.71 0 0 1 .523-.303c.443-.045.912.26 1.035.692a.7.7 0 0 1-.083.592.708.708 0 0 1-.523.302.902.902 0 0 1-.095.005" fill="#B8DDFF"/><path d="M180.112 163.157c-.014 0-.027 0-.04.002a.277.277 0 0 0-.206.124.308.308 0 0 0-.03.246c.052.197.253.34.444.315a.276.276 0 0 0 .206-.124.308.308 0 0 0 .03-.246.436.436 0 0 0-.404-.317m.13.845a.59.59 0 0 1-.548-.43.468.468 0 0 1 .05-.376.419.419 0 0 1 .31-.192.591.591 0 0 1 .604.428.465.465 0 0 1-.05.374.422.422 0 0 1-.366.196M180.796 165.559a.31.31 0 0 0-.041.002.275.275 0 0 0-.206.124.307.307 0 0 0-.03.246c.053.196.25.342.445.315a.275.275 0 0 0 .205-.123.309.309 0 0 0 .031-.247.436.436 0 0 0-.404-.317m.129.845a.589.589 0 0 1-.547-.43.467.467 0 0 1 .05-.376.419.419 0 0 1 .31-.192.59.59 0 0 1 .603.428.468.468 0 0 1-.05.375.42.42 0 0 1-.366.195M182.318 163.88c-.014 0-.027 0-.04.002a.276.276 0 0 0-.206.125.306.306 0 0 0-.03.245c.052.196.25.344.444.315a.275.275 0 0 0 .206-.123.309.309 0 0 0 .03-.247.436.436 0 0 0-.404-.317m.129.845a.589.589 0 0 1-.547-.43.467.467 0 0 1 .05-.375.422.422 0 0 1 .31-.193.588.588 0 0 1 .604.428.466.466 0 0 1-.05.375.418.418 0 0 1-.367.195" fill="#0080F6"/><path d="M180.66 165.124a.697.697 0 0 0-.083.005.587.587 0 0 0-.433.248.58.58 0 0 0-.066.49.87.87 0 0 0 .903.603c.185-.02.34-.11.433-.25a.579.579 0 0 0 .067-.488.875.875 0 0 0-.82-.608m.238 1.473c-.417 0-.826-.296-.94-.696a.7.7 0 0 1 .083-.592c.114-.17.3-.278.522-.303.447-.046.912.26 1.035.692a.7.7 0 0 1-.082.592.709.709 0 0 1-.523.302.918.918 0 0 1-.095.005M182.183 163.445a.697.697 0 0 0-.083.005.586.586 0 0 0-.434.248.58.58 0 0 0-.066.49.865.865 0 0 0 .903.603c.185-.02.34-.11.433-.25a.577.577 0 0 0 .067-.488.875.875 0 0 0-.82-.608m.238 1.473c-.417 0-.826-.296-.94-.696a.7.7 0 0 1 .083-.592.71.71 0 0 1 .522-.303c.445-.044.913.26 1.036.692a.7.7 0 0 1-.083.592.708.708 0 0 1-.523.302.902.902 0 0 1-.095.005M182.15 162.581a.228.228 0 0 1-.202.298.341.341 0 0 1-.354-.236.228.228 0 0 1 .202-.299.34.34 0 0 1 .354.237" fill="#B8DDFF"/><path d="M190.79 173.787c.366 1.287-.422 2.45-1.76 2.6-1.338.148-2.72-.774-3.087-2.062-.366-1.286.422-2.45 1.76-2.6 1.338-.148 2.72.775 3.087 2.062" fill="#005639"/><path d="m246.238 148.803 3.74 55.888c.325 4.866-2.986 9.23-7.767 10.237-5.453 1.149-10.769-2.46-11.702-7.944l-9.401-55.22c-1.234-7.25 3.965-14.017 11.299-14.708 7.101-.67 13.356 4.642 13.832 11.746" fill="#FC95A4"/><path d="M238.379 198.363a34.604 34.604 0 0 0-.927-6.77l-7.97-33.28-3.87 19.91 4.897 28.762c.747 4.39 4.304 7.576 8.492 8.084l-.622-16.706z" fill="#DB594A"/><path d="m235.285 214.825-5.869-3.135 6.568-17.95 7.76 3.181c5.34 2.19 7.69 8.448 5.106 13.601-2.501 4.99-8.636 6.936-13.565 4.303" fill="#FC95A4"/><path d="M237.385 208.864c-3.035-3.98-2.593-9.793-2.686-9.913l-2.6 5.407-2.684 7.332 5.87 3.135c4.032 2.154 8.868 1.24 11.865-1.895-2.411-.084-7.195-.695-9.765-4.066" fill="#DB594A"/><path d="m217.861 206.061-19.474-15.766a5.646 5.646 0 0 1-1.22-7.41 5.67 5.67 0 0 1 6.986-2.19l23.11 9.712c4.761 2 6.952 7.51 4.862 12.226-2.463 5.553-9.539 7.253-14.264 3.428" fill="#FFDAAB"/><path d="m227.263 190.406-.845-.355-.24.596c-3.08 7.628-12.263 7.358-25.723-.665l-1.372.875 18.778 15.203c4.725 3.826 11.801 2.126 14.264-3.427 2.091-4.716-.1-10.226-4.862-12.227" fill="#E99462"/><path d="M220.261 209.067s-1.214-.532-.656-1.781c1.011-.045 4.096-5.771 5.037-7.88 1.075-2.407 3.166-7.997 2.361-9.15.185-.414.509-.6.814-.676.365-.092.752-.02 1.084.157l6.868 3.666a2.453 2.453 0 0 1 1.26 1.666c.306 1.51.38 4.474-1.684 9.097-2.062 4.619-4.467 6.792-5.902 7.749a2.466 2.466 0 0 1-2.373.187l-6.809-3.035z" fill="#FC95A4"/><path d="M230.86 205.576c1.044-1.234 2.531-3.448 2.177-5.73-.903-5.808-1.848 6.427-8.069 6.29-.389-.009-.63-.42-.4-.678 1.531-1.708 5.831-7.079 5.89-13.617.003-.354.49-.493.775-.22.664.633.858 1.41 1.004 2.272.15.885 1.128 1.518 1.998 1.069.414-.214.35-1.01.761-1.471.214-.24.677-.136.795.175.449 1.18.984 3.655-.179 7.415-1.006 3.255-2.831 4.584-4.145 5.125-.425.175-.885-.3-.607-.63m4.485-1.409c2.064-4.623 1.99-7.587 1.683-9.097a2.452 2.452 0 0 0-1.259-1.667l-6.868-3.665c-.332-.177-.72-.249-1.084-.157a1.163 1.163 0 0 0-.814.676c.805 1.153-1.285 6.743-2.36 9.15-.942 2.108-4.027 7.834-5.038 7.88-.558 1.248.656 1.78.656 1.78l6.809 3.036c.772.344 1.67.281 2.373-.188 1.435-.957 3.84-3.13 5.902-7.748" fill="#DB594A"/><path d="m204.506 181.109-2.706-1.638-1.154-5.362a2.138 2.138 0 0 0-.834-.722l-2.548-.912.72 2.49-5.712 1.76a3.632 3.632 0 0 1-1.06.001l-4.625-.677-5.33-1.699a2.264 2.264 0 0 0-2.16.437l-.503.431a.411.411 0 0 0 .072.674l2.056 1.111-.277 2.134c-.053.408.013.824.189 1.197l3.603 7.628a2.92 2.92 0 0 0 1.808 1.55l1.999.596c.279.084.57.125.861.122l10.443-.092c2.896 1.978 6.86.153 7.23-3.33l.134-1.254a4.624 4.624 0 0 0-2.206-4.445" fill="#FFDAAB"/><path d="M199.348 190.138c.025.017.052.03.078.046a3.195 3.195 0 0 0 1.657-1.329c.742-1.171.667-2.608-.094-3.522l-3.03 4.817 1.389-.012zM198.911 184.243c-.752-.04-1.53.25-2.139.825-.002-.002-.002-.008-.004-.01l-.235-.152c-.103-.067-.348.134-.547.448-.2.315-.277.624-.174.69l.188.123a3.294 3.294 0 0 0-.264 1.005c.643-.15 1.206-.429 1.614-.9.581-.67 1.097-1.354 1.561-2.029" fill="#E99462"/><path d="m201.8 179.471-.1-.465a26.686 26.686 0 0 1-2.789 5.237c-.464.675-.98 1.359-1.56 2.029-.41.47-.971.75-1.615.9-1.747.407-4.106-.174-5.721-.686-1.6-.507-5.37-3.743-7.848-5.98-.541-.49-.266-1.386.455-1.492l3.09-.455-7.196-2.804a.406.406 0 0 0 .15.137l2.056 1.112-.277 2.133c-.053.409.012.824.189 1.197l3.603 7.628a2.92 2.92 0 0 0 1.807 1.551l2 .596c.279.083.57.124.86.122l9.055-.08 3.03-4.818 2.895-4.6-2.084-1.262z" fill="#E99462"/><path d="M199.195 191.434c.857.383 2.664-1.792 4.036-4.856 1.371-3.064 1.788-5.858.931-6.24l-2.3-1.026-.116.124c.429.881-.045 3.31-1.221 5.935-1.176 2.627-2.671 4.6-3.614 4.869l-.016.168 2.3 1.026z" fill="#1C417D"/><path d="M199.809 191.708c.857.382 2.664-1.792 4.036-4.857 1.371-3.063 1.788-5.857.931-6.24l-2.706-1.206c.857.382.44 3.176-.931 6.24-1.372 3.064-3.179 5.239-4.036 4.856l2.706 1.207z" fill="#ED985A"/></g><g transform="translate(198 179)"><mask id="l" fill="#fff"><use xlink:href="#k"/></mask><path d="m2.223 12.187-.078-.037C.765 11.492.148 9.768.764 8.298c.615-1.47 2.233-2.13 3.611-1.473l.079.037c1.379.657 1.997 2.381 1.381 3.852-.616 1.47-2.233 2.13-3.612 1.473" fill="#1C417D" mask="url(#l)"/></g><path d="m200.83 190.73-.186-.087c-1.437-.67-2.046-2.395-1.36-3.853l.046-.1c.686-1.458 2.406-2.098 3.844-1.429l.186.087c1.437.67 2.046 2.394 1.36 3.853l-.046.1c-.686 1.459-2.407 2.098-3.844 1.429" fill="#0080F6"/><g transform="translate(199 184)"><mask id="n" fill="#fff"><use xlink:href="#m"/></mask><path d="M5.25 1.04S3.08 7.559 3.068 7.585c-.01.028-6.203-3.099-6.203-3.099l1.814-4.958L.15-1.166l3.406.728L5.25 1.041z" fill="#1C417D" mask="url(#n)"/></g><path d="m200.77 190.73-.084-.04c-1.474-.685-2.099-2.455-1.395-3.95.703-1.496 2.468-2.152 3.942-1.466l.084.04c1.474.686 2.1 2.455 1.396 3.95-.704 1.496-2.469 2.152-3.943 1.466" fill="#0080F6"/><g transform="translate(199 184)"><mask id="p" fill="#fff"><use xlink:href="#o"/></mask><path d="M6.489.545C6.39.569-.609 5.129-.609 5.129s-1.729-1.893-1.74-1.967C-2.359 3.087.171-1.8.171-1.8L6.489.545z" fill="#1C417D" mask="url(#p)"/></g><g><path d="m200.8 189.984-.067-.03a2.249 2.249 0 0 1-1.123-3.056c.566-1.157 1.986-1.665 3.17-1.134l.068.03a2.248 2.248 0 0 1 1.122 3.056c-.565 1.157-1.985 1.664-3.17 1.134" fill="#DFF0FF"/><path d="m201.66 188.169-.01-.004a.315.315 0 0 1-.157-.428.341.341 0 0 1 .444-.159l.01.004a.316.316 0 0 1 .157.429.342.342 0 0 1-.444.158" fill="#1C417D"/><path d="m202.72 188.453-1.18-.529a.125.125 0 0 1-.062-.17l.017-.034a.135.135 0 0 1 .176-.064l1.18.528c.066.03.094.106.063.17l-.017.036a.136.136 0 0 1-.177.063" fill="#1C417D"/><path d="m201.65 188.167-.002-.001a.129.129 0 0 1-.064-.175l.83-1.701a.14.14 0 0 1 .183-.065h.002a.13.13 0 0 1 .064.176l-.831 1.7a.14.14 0 0 1-.182.066" fill="#1C417D"/><path d="m202.82 185.778-.078-.03c1.15.561 1.636 1.9 1.082 3.033-.554 1.133-1.94 1.634-3.127 1.15.026.011.05.026.075.037 1.204.54 2.638.038 3.204-1.119.565-1.157.048-2.532-1.156-3.071" fill="#1C417D"/><path d="M199.29 186.541c-.15.306-.366.51-.484.458-.118-.053-.092-.344.057-.649.15-.305.366-.51.484-.457.118.052.092.343-.057.648" fill="#0080F6"/><path fill="#0080F6" d="m198.54 186.878.27.121.54-1.106-.27-.121z"/><path d="M199.02 186.421c-.15.306-.366.51-.484.458-.117-.053-.092-.344.057-.649.15-.305.366-.51.484-.458.118.053.092.343-.057.649" fill="#1C417D"/><path d="M87.314 345.5v-5.052c0-.674.237-1.326.668-1.843l2.532-3.029a2.869 2.869 0 0 1 2.202-1.03h1.818c.523 0 1.036-.139 1.488-.403l6.465-3.783a6.955 6.955 0 0 0 3.442-6.002v-5.901c0-.46.372-.832.83-.832h16.512c.46 0 .831.372.831.832v9.24c0 1.076.218 2.14.64 3.129l1.332 3.122c.414.97.627 2.016.627 3.072v8.48H87.314z" fill="#D9642E"/><path d="M102.658 340.15a6.816 6.816 0 0 0 5.054-2.244l6.17-6.822c.32-.353.588-.75.798-1.177l6.02-12.284h-13.94a.833.833 0 0 0-.832.833v5.9c0 2.472-1.31 4.756-3.44 6.004l-6.466 3.782a2.944 2.944 0 0 1-1.488.404h-1.818a2.87 2.87 0 0 0-2.202 1.029l-.164.197 11.539.244 2.02.042c.617.004 1.19-.268 1.64-.757a.187.187 0 0 1 .284.245l-.018.021c-.432.533-1.147.955-1.893.978l-2.033.045-4.053.085-8.106.172a.532.532 0 0 1-.235-.053l-1.513 1.81c-.367.44-.583.98-.642 1.546h15.318z" fill="#AD330D"/><path d="m97.836 336.68 4.053-.086 2.033-.044c.746-.024 1.461-.445 1.893-.978l.018-.022a.188.188 0 0 0-.019-.255.188.188 0 0 0-.264.011c-.45.488-1.024.76-1.641.756l-2.02-.041-4.053-.086-7.486-.158-.855 1.022c.073.033.15.054.235.052l8.106-.171z" fill="#D9642E"/><path d="M126.328 348.28H87.209a.957.957 0 0 1-.957-.957v-3.658c0-.528.429-.957.957-.957h39.119c.528 0 .957.429.957.957v3.658a.957.957 0 0 1-.957.957" fill="#001828"/><path d="m48.607 202.186 5.33-2.95 6.214 1.206 5.563 9.832a.078.078 0 0 0 .028.028l10.994 7.107 11.692-.999 8.33 15.078-12.55 1.473-4.07 5.225-8.815 4.877-22.717-40.877z" fill="#D9642E"/><path d="m80.139 238.185 4.07-5.224 12.55-1.473-8.331-15.078-8.711.744-2.944 6.752a7.417 7.417 0 0 1-7.508 4.42l-6.477-.623 8.536 15.359 8.815-4.877zM56.347 200.426a123.742 123.742 0 0 0 1.983 4.028 192.03 192.03 0 0 0 2.084 3.975 186.612 186.612 0 0 0 2.172 3.926c.741 1.3 1.488 2.596 2.279 3.869l.028.044c.03.048.079.083.14.093l1.221.204a.122.122 0 0 0 .13-.068.121.121 0 0 0-.06-.161l-.993-.461a121.396 121.396 0 0 0-1.945-3.952 187.978 187.978 0 0 0-2.088-3.971 192.524 192.524 0 0 0-2.178-3.925 124.73 124.73 0 0 0-2.242-3.812l.009-.407-.442-.085-.13.532a.2.2 0 0 0 .014.13l.018.041z" fill="#AD330D"/><g transform="translate(46 200.251)"><mask id="r" fill="#fff"><use xlink:href="#q"/></mask><path d="M22.707 43.832.12 3.19a.958.958 0 0 1 .374-1.302L3.692.118a.957.957 0 0 1 1.3.376L27.58 41.136a.958.958 0 0 1-.375 1.301l-3.198 1.77a.957.957 0 0 1-1.3-.375" fill="#001828" mask="url(#r)"/></g><path d="m157.85 190.417-76.971 25.094a.958.958 0 0 0-.636 1.124l4.2 18.405a.958.958 0 0 0 1.13.724l79.897-16.813c8.085-1.701 13.206-9.706 11.366-17.766-1.935-8.476-10.724-13.462-18.986-10.768" fill="#1C417D"/><path d="M128.848 226.658c-16.479.339-34.712.695-46.108.914l1.705 7.468a.956.956 0 0 0 1.13.724l43.273-9.106z" fill="#001828"/><path d="m90.218 233.167-4.361-17.902a.479.479 0 1 1 .93-.227l.003.013 3.865 18.016a.225.225 0 0 1-.437.1" fill="#00B3DA"/><path d="M104.938 322.54h20.107a.958.958 0 0 0 .957-.952l.468-80.807c.047-8.249-6.621-14.96-14.864-14.96-8.736 0-15.588 7.504-14.803 16.21l7.182 79.637a.957.957 0 0 0 .953.871" fill="#1C417D"/><path d="M111.774 225.821c-.056 0-.111-.004-.167-.004-8.736 0-15.589 7.504-14.803 16.21l7.182 79.637c.045.493.458.87.953.87h9.856l-3.02-96.714z" fill="#001828"/><path d="m124.092 315.29-18.414.079a.478.478 0 0 1-.004-.958h.013l18.41.43a.224.224 0 0 1-.005.449" fill="#00B3DA"/><path d="M96.677 238.458c.01 8.13 6.515 14.76 14.639 14.92l69.215 1.36c10.89.213 19.829-8.57 19.815-19.47-.015-11.578-10.073-20.579-21.573-19.304l-68.807 7.624c-7.571.84-13.298 7.248-13.288 14.871" fill="#1C417D"/><path d="m191.98 229.613-27.927-12.019-54.091 5.994c-7.571.839-13.298 7.247-13.288 14.87.01 8.13 6.516 14.76 14.639 14.92l1.32.026-.108-3.456 1.265-5.917c.846-3.96 4.837-6.403 8.746-5.35l59.516 16.02a19.363 19.363 0 0 0 12.768-5.834l-2.839-19.253z" fill="#001828"/><path d="m152.29 215.976 25.457 32.883c3.297 4.26 8.14 6.738 13.256 6.785l5.712.053c12.323.114 22.034-11.395 20.889-24.755l-.479-5.588c-.283-3.304-2.05-6.243-4.718-7.847l-42.158-25.346c-6.042-3.633-13.601-2.084-18.016 3.692-4.463 5.836-4.439 14.318.057 20.124" fill="#1C417D"/><path d="M217.13 225.354c-.283-3.305-2.05-6.243-4.718-7.848l-25.022-15.043c6.69 8.741 18.77 29.727 3.618 53.18l5.711.053c12.323.114 22.034-11.395 20.89-24.755l-.48-5.587zM157.02 222.077l3.54-.802a18.977 18.977 0 0 0 6.664-2.942l3.807-2.655s-9.526 2.116-16.655 2.985l2.643 3.414z" fill="#001828"/><path d="m181.53 268.96 74.104 11.939a3.998 3.998 0 0 0 2.036-3.142l.654-7.403a4.012 4.012 0 0 0-3.35-4.313l-70.414-11.482a4.01 4.01 0 0 0-4.654 3.96v7.83c0 .989.36 1.904.965 2.61h.658z" fill="#0097B8"/><path fill="#FFDAAB" d="m275.07 284.03-93.54-15.07v6.03l19.42 3.11 2.21 8.66 75.67 11.96z"/><g transform="translate(170.44 232.019)"><mask id="t" fill="#fff"><use xlink:href="#s"/></mask><path d="M98.076 54.606 38.389 49.14l1.345-7.582-1.828-.294 8.017-28.818 41.666 2.314 13.919 36.75-3.604-.58.172 3.676zm41.008 59.952-33.977-98.826.09.005c.178.01.357 0 .533-.028l6.704-1.079c1.144-.184 1.984-1.275 2.062-2.432l-.001-.008c.031-.131.055-.266.064-.406l.067-.996a2.49 2.49 0 0 0-2.275-2.65L19.898.369a2.46 2.46 0 0 0-.695.052L14.32.014a4.03 4.03 0 0 0-4.354 3.747 2.49 2.49 0 0 0 1.655 2.516l13.968 4.938c.112.04.226.071.342.094l-6.74 26.94-3.78-.61-.956 5.872 3.286.527L.057 114.71a1.828 1.828 0 0 0 1.772 2.272H15.457c.82 0 1.54-.547 1.76-1.338l16.88-60.687 73.093 11.555 18.668 49.289c.27.71.95 1.18 1.709 1.18h9.79a1.828 1.828 0 0 0 1.728-2.423z" fill="#E99462" mask="url(#t)"/></g><path d="M175.74 346.73a1.828 1.828 0 0 0 1.772 2.272h8.387c.82 0 1.54-.547 1.76-1.338l28.707-103.2-14.83-.824-25.796 103.09z" fill="#FFDAAB"/><g transform="translate(261.86 246.99)"><mask id="v" fill="#fff"><use xlink:href="#u"/></mask><path d="M47.67 99.586 13.693.76 0 0l38.188 100.83c.269.71.95 1.18 1.708 1.18h6.047a1.828 1.828 0 0 0 1.728-2.423" fill="#FFDAAB" mask="url(#v)"/></g><path d="m285.07 242.807-.067.996a2.489 2.489 0 0 1-2.697 2.313l-84.285-7.252a12.312 12.312 0 0 1-1.56-.206l-6.81-1.344a2.49 2.49 0 0 1 .69-4.926l92.454 7.77a2.49 2.49 0 0 1 2.275 2.65" fill="#FFDAAB"/><path d="M327.44 168.326a2.134 2.134 0 1 1-4.238.497 2.135 2.135 0 1 1 4.238-.497" fill="#E99462"/><path d="M326.76 168.544c-.358.37-1.007.32-1.45-.11-.443-.43-.513-1.077-.155-1.447.358-.369 1.007-.32 1.45.11.444.43.513 1.077.155 1.447" fill="#FFDAAB"/><path d="M319.52 182.934a3.511 3.511 0 0 1-1.62 4.691 3.506 3.506 0 0 1-4.688-1.62 3.511 3.511 0 0 1 1.62-4.691 3.506 3.506 0 0 1 4.688 1.62" fill="#E99462"/><path d="M318.59 183.638c-.355.768-1.39 1.044-2.31.617-.92-.426-1.378-1.394-1.023-2.162.355-.767 1.389-1.043 2.31-.617.92.427 1.378 1.394 1.023 2.162" fill="#FFDAAB"/><path d="M321.83 174.789a2.671 2.671 0 1 1-2.963-2.343 2.67 2.67 0 0 1 2.963 2.343" fill="#E99462"/><path d="M320.98 175.061c-.448.462-1.26.401-1.815-.137-.554-.538-.641-1.349-.193-1.81.448-.463 1.26-.402 1.815.136.554.538.64 1.349.193 1.811" fill="#FFDAAB"/><path d="M332.61 167.125a1.273 1.273 0 1 1-2.528.297 1.273 1.273 0 0 1 2.528-.297" fill="#E99462"/><path d="M332.2 167.255c-.213.22-.6.19-.864-.065-.265-.257-.306-.643-.093-.863.214-.22.6-.192.865.065.264.256.305.642.092.863" fill="#FFDAAB"/><path d="M331.37 167.255a.203.203 0 0 0-.286.028c-1.512 1.854-2.867 3.815-4.112 5.845l-.863-2.898a.284.284 0 1 0-.544.163l.947 3.182c.018.06.054.108.1.143-.464.773-.91 1.554-1.345 2.344a64.454 64.454 0 0 0-2.58 5.318l-2.263-4.422a.284.284 0 1 0-.507.26l2.48 4.843c-.499 1.2-.96 2.417-1.378 3.649a55.308 55.308 0 0 0-1.426 4.945l-2.06-4.026a.285.285 0 0 0-.506.26l2.37 4.631a49.121 49.121 0 0 0-.779 4.48c-.464 3.504-.477 7.068-.124 10.594l.002.01a.568.568 0 1 0 1.129-.133l-.001-.01c-.403-3.426-.454-6.908-.058-10.35.093-.872.212-1.74.353-2.606l3.888-.97a.285.285 0 0 0-.138-.552l-3.641.908a53.378 53.378 0 0 1 2.499-9.192c.017-.001.034-.002.052-.007l3.96-.987a.284.284 0 1 0-.138-.552l-3.634.906a63.117 63.117 0 0 1 3.02-6.72c.186-.355.377-.709.57-1.061l3.011.297.029.001a.284.284 0 0 0 .027-.568l-2.765-.272c1.403-2.51 2.963-4.94 4.735-7.19l.007-.01a.203.203 0 0 0-.031-.282" fill="#AD330D"/><path d="M332.88 175.098a2.134 2.134 0 1 1-4.24.5 2.134 2.134 0 0 1 4.24-.5" fill="#E99462"/><path d="M332.21 175.316c-.358.37-1.007.32-1.45-.11-.443-.43-.512-1.076-.155-1.447.358-.369 1.007-.32 1.45.11.444.43.513 1.078.155 1.447" fill="#FFDAAB"/><path d="M330.95 181.895a2.398 2.398 0 1 1-4.762.559 2.398 2.398 0 1 1 4.762-.559" fill="#E99462"/><path d="M330.19 182.14c-.402.415-1.132.36-1.63-.123-.497-.483-.575-1.211-.174-1.626.403-.415 1.132-.36 1.63.123.498.482.576 1.211.174 1.626" fill="#FFDAAB"/><path d="M329.1 191.388a3.114 3.114 0 1 1-6.186.726 3.115 3.115 0 1 1 6.186-.726" fill="#E99462"/><path d="M328.11 191.705c-.522.539-1.47.468-2.117-.16-.646-.627-.747-1.573-.225-2.112.522-.539 1.47-.467 2.117.16.646.627.747 1.573.225 2.112" fill="#FFDAAB"/><path d="m329.92 223.366-3.869-2.716a1.618 1.618 0 0 1-.688-1.324v-14.99h-.002c-.016-.357-2.807-.646-6.25-.646s-6.235.289-6.251.646h-.002v14.99c0 .527-.257 1.02-.688 1.324l-3.869 2.716a.714.714 0 0 0-.304.585v25.117c0 4.35 3.524 7.875 7.87 7.875h6.487c4.347 0 7.87-3.526 7.87-7.875v-25.117a.714.714 0 0 0-.304-.585" fill="#FAD1C5"/><path d="M319.11 223.172c5.04 0 9.34.236 11.09.601a.717.717 0 0 0-.28-.408l-3.87-2.716a1.596 1.596 0 0 1-.44-.48c-1.403-.157-3.5-.25-6.5-.25-2.909 0-5.028.088-6.491.235a1.604 1.604 0 0 1-.45.495l-3.87 2.716a.714.714 0 0 0-.28.408c1.75-.365 6.05-.601 11.09-.601" fill="#FFE8EB"/><path d="m315.23 248.627-.065-24.984c0-.241.09-.474.253-.652l2.849-3.12.036-16.175c-3.063.04-5.432.31-5.447.64h-.001v14.988c0 .528-.257 1.022-.689 1.325l-3.868 2.716a.714.714 0 0 0-.304.585v25.117a7.872 7.872 0 0 0 7.87 7.875h2.744a12.004 12.004 0 0 1-3.378-8.315" fill="#FC95A4"/><path d="M346.1 255.338a1.723 1.723 0 0 1-.444-.843c-.013-.065-.015-.132-.02-.2-.004-.042-.013-.083-.013-.127V251.744c0-.123.015-.243.04-.36.01-.044.027-.085.04-.129.21-.687.842-1.19 1.598-1.19h20.229c.137 0 .247-.11.247-.246v-.19a.246.246 0 0 0-.246-.246h-38.92a2.363 2.363 0 0 0-2.36 2.362v2.423a2.363 2.363 0 0 0 2.36 2.362h38.92c.136 0 .247-.11.247-.246v-.19a.247.247 0 0 0-.246-.247H347.3a1.67 1.67 0 0 1-1.2-.509" fill="#64CC75"/><path d="M339.73 254.201v-2.441c0-.645.26-1.23.678-1.658H328.56c-1.16 0-2.117.844-2.308 1.951v2.114a2.363 2.363 0 0 0 2.36 2.361h13.01a2.38 2.38 0 0 1-1.892-2.327" fill="#009F70"/><path d="M367.4 250.065h-20.099c-.755 0-1.387.503-1.597 1.19-.014.044-.03.085-.04.13-.026.116-.041.236-.041.36v2.423c0 .044.01.085.013.127.005.068.007.135.02.2.047.238.145.454.28.644a1.67 1.67 0 0 0 1.365.708h20.1v-5.782z" fill="#EFF7FF"/><path d="M347.3 250.065c-.755 0-1.387.503-1.597 1.19l-.02.064a1.666 1.666 0 0 0-.061.425v.646c0-.037.008-.071.01-.108l21.008-.053c.026 0 .047-.02.047-.047a.047.047 0 0 0-.047-.047l-20.987-.053c.043-.235.135-.453.266-.643l19.739-.053a.048.048 0 0 0 .047-.047.047.047 0 0 0-.047-.047l-19.574-.053a1.667 1.667 0 0 1 1.216-.528h20.099v-.646h-20.1zM366.98 253.241l-21.354-.053v.2l21.354-.053a.047.047 0 0 0 0-.094M366.63 255.191l-20.695-.052c.05.07.104.137.164.198l20.53-.052a.047.047 0 0 0 .047-.047.047.047 0 0 0-.047-.047M364.8 254.395a.047.047 0 0 0-.047-.047l-19.112-.053c.005.067.007.135.02.2l19.092-.053a.047.047 0 0 0 .047-.047" fill="#ACEDFB"/><path d="M342.74 247.871a2.158 2.158 0 0 1-.207-.25 2.112 2.112 0 0 1-.356-.818c-.015-.082-.018-.168-.025-.253-.004-.054-.016-.106-.016-.162v-3.074c0-1.175.953-2.129 2.128-2.129h17.395c.172 0 .312-.14.312-.312v-.24a.312.312 0 0 0-.312-.312H330.834a2.997 2.997 0 0 0-2.992 2.994v3.073a2.997 2.997 0 0 0 2.993 2.995H361.659c.172 0 .312-.14.312-.312v-.24a.312.312 0 0 0-.312-.313H344.265a2.118 2.118 0 0 1-1.524-.647" fill="#D9642E"/><path d="M361.5 241.185h-17.229a2.129 2.129 0 0 0-2.128 2.13v3.073c0 .055.012.108.016.162.007.085.01.17.026.252.06.302.184.577.356.818a2.118 2.118 0 0 0 1.73.898H361.5v-7.333z" fill="#EFF7FF"/><path d="m360.96 245.213-18.819-.067v.254l18.819-.067a.06.06 0 0 0 .06-.06.06.06 0 0 0-.06-.06M360.52 247.686l-17.983-.066c.063.088.132.173.207.25l17.776-.064a.06.06 0 0 0 .06-.06.06.06 0 0 0-.06-.06M358.19 246.677a.06.06 0 0 0-.06-.06l-15.976-.067c.007.085.01.171.026.253l15.95-.067a.06.06 0 0 0 .06-.059M344.27 241.185a2.129 2.129 0 0 0-2.128 2.13v.818c0-.046.01-.09.014-.137l13.596-.066a.06.06 0 0 0 0-.12l-13.57-.066c.055-.299.171-.576.337-.817l16.771-.067a.06.06 0 0 0 0-.12l-16.563-.066c.388-.41.934-.67 1.543-.67h17.229v-.819H344.27z" fill="#ACEDFB"/><path d="M340.15 246.431v-3.095c0-.818.328-1.56.858-2.103h-10.236a2.978 2.978 0 0 0-2.927 2.442v2.713a2.997 2.997 0 0 0 2.992 2.995h11.71a3.02 3.02 0 0 1-2.397-2.952" fill="#AD330D"/><path d="M349.1 234.366c-.854 0-1.546.692-1.546 1.546v2.233c0 .855.693 1.547 1.546 1.547h8.236v-5.326H349.1z" fill="#EFF7FF"/><path d="M357.33 234.961v-.595h-8.236c-.853 0-1.546.693-1.546 1.547v.595c0-.034.009-.066.01-.1l9.073-.048c.023 0 .043-.02.043-.043a.043.043 0 0 0-.043-.044l-9.054-.048c.04-.217.124-.419.245-.594l7.904-.048c.024 0 .043-.02.043-.043a.043.043 0 0 0-.043-.044l-7.753-.047a1.537 1.537 0 0 1 1.121-.488h8.236zM356.94 237.378a.044.044 0 0 0 0-.087l-9.39-.048v.183l9.39-.048zM348.48 239.56a1.563 1.563 0 0 1-.487-.339l8.634-.047c.023 0 .043-.019.043-.043a.044.044 0 0 0-.043-.043l-8.783-.048a1.541 1.541 0 0 1-.26-.595l7.309-.047c.024 0 .043-.02.043-.044a.043.043 0 0 0-.043-.043l-7.327-.048c-.003-.04-.012-.078-.012-.119 0 .634.382 1.176.926 1.416" fill="#ACEDFB"/><path d="M349.1 234.366h8.356a.227.227 0 0 0 .227-.227v-.175a.226.226 0 0 0-.227-.226h-25.059a2.177 2.177 0 0 0-2.174 2.175v2.232c0 1.2.975 2.175 2.174 2.175H357.457a.227.227 0 0 0 .227-.227v-.174a.227.227 0 0 0-.227-.227h-8.356c-.108 0-.214-.011-.316-.032-.013-.004-.026-.01-.04-.013a1.527 1.527 0 0 1-.255-.082l-.01-.004a1.546 1.546 0 0 1-.925-1.416v-2.233c0-.854.692-1.546 1.546-1.546" fill="#46CFED"/><path d="M342.11 238.176v-2.248c0-.594.24-1.133.625-1.528h-10.39a2.16 2.16 0 0 0-2.127 1.797v1.948c0 1.199.975 2.175 2.174 2.175h11.46a2.193 2.193 0 0 1-1.742-2.144" fill="#0068C9"/><path d="M300.16 221.014c1.46 1.202 2.123 3.136 2.168 5.003.014.236-.012.468-.017.703l-.016.352-.05.346c-.034.23-.062.463-.103.692l-.166.675-.084.338-.113.325-.228.651-.388 1.13a9.823 9.823 0 0 0-.034 4.697c.354 1.582 1.044 3.141 1.915 4.59l.008.014a.222.222 0 0 1-.076.305.222.222 0 0 1-.261-.023c-.684-.599-1.236-1.297-1.736-2.049-.486-.755-.92-1.564-1.21-2.439a5.464 5.464 0 0 1-.207-.66c-.057-.223-.129-.445-.174-.673-.072-.46-.164-.92-.172-1.392-.089-.941.055-1.89.256-2.815.133-.444.289-.924.43-1.33.128-.382.3-.756.397-1.143.249-.767.388-1.55.474-2.337.151-1.565-.112-3.213-.926-4.646l-.02-.034a.22.22 0 0 1 .333-.28M297.45 237.752c-.742-.457-1.284-1.113-1.716-1.846a6.043 6.043 0 0 1-.773-2.433 5.915 5.915 0 0 1-.025-1.284c.024-.213.043-.426.074-.636.035-.21.1-.414.15-.619.087-.414.28-.794.444-1.174.182-.374.422-.716.653-1.05a.242.242 0 0 1 .336-.06.243.243 0 0 1 .1.234l-.005.036c-.06.394-.168.758-.231 1.129-.047.375-.134.733-.146 1.1-.086.726-.034 1.441.053 2.142.107.7.29 1.386.538 2.066.234.686.558 1.362.884 2.054l.013.028a.244.244 0 0 1-.349.313" fill="#DFF0FF"/><path d="M303.27 233.835a6.346 6.346 0 0 0 1.745-2.044 6.056 6.056 0 0 0 .704-2.481 8.467 8.467 0 0 0-.265-2.602 12.795 12.795 0 0 0-.91-2.53c-.374-.82-.863-1.586-1.376-2.413-.498-.827-1.043-1.743-1.334-2.766-.316-1.013-.388-2.067-.338-3.072.07-1.008.239-1.986.518-2.93a.224.224 0 0 1 .439.062c.016 1.924.088 3.835.774 5.447.344.804.811 1.552 1.366 2.335.54.788 1.098 1.648 1.55 2.575.432.938.764 1.91.972 2.929.186 1.02.267 2.093.072 3.148a6.48 6.48 0 0 1-1.26 2.905c-.665.824-1.485 1.48-2.467 1.838a.222.222 0 0 1-.211-.384l.021-.017zM310.1 240.977c0-1.337-1.794-1.784-4.466-1.932-1.336-.074-3.971-.074-3.686-.074-.354.547-.293 1.002-.17 1.298 4.381.002 7.85.06 7.85 1.513 0 .051-.014.097-.023.144v.049c.316-.26.495-.585.495-.998" fill="#DFF0FF"/><path d="M292.14 241.399c-.012-.034-.026-.067-.034-.102.008.035.023.068.034.102M292.29 241.691" fill="#A3F1D9"/><path d="M292.82 241.753h.02c.051-1.483 3.786-1.485 8.39-1.485h.544c-.123-.295-.184-.75.17-1.297h-.865c-4.98 0-9.017 0-9.017 2.006 0 .113.017.219.042.32.009.035.023.068.035.102a1.17 1.17 0 0 0 .149.291c.014.02.026.043.043.063h.489z" fill="#B8DDFF"/><path d="M289.93 248.639v-4.127c0-.36.292-.651.65-.651h2.243v6.957h-.716a2.18 2.18 0 0 1-2.177-2.18m19.7-6.856c0-1.513-3.76-1.513-8.396-1.513-4.605 0-8.34.001-8.39 1.484h-2.263a2.76 2.76 0 0 0-2.757 2.759v4.127a4.29 4.29 0 0 0 4.283 4.286h.785a4.836 4.836 0 0 0 4.77 4.063h7.105a4.84 4.84 0 0 0 4.839-4.841v-10.22c.008-.048.023-.094.023-.145" fill="#0097B8"/><path d="M302.32 256.897a4.19 4.19 0 0 1-2.071-3.58l-.1-11.546a1.486 1.486 0 0 1 1.049-1.433l.225-.069h-.194c-4.605 0-8.339.002-8.39 1.484h-.523l-1.308 2.108h1.81v6.957h-.715a2.176 2.176 0 0 1-1.807-.965c-.061.137-.132.26-.216.367a2.596 2.596 0 0 1-.173-.356 2.487 2.487 0 0 1-.179-.646c-.036-.23-.025-.424-.026-.704.01-1.05.008-2.1-.035-3.15l-.015-.394-.007-.194c.001-.048-.007-.098 0-.147.01-.197.067-.394.17-.572a1.443 1.443 0 0 1 1.045-.699h.006a.211.211 0 0 0-.006-.42c-.595-.075-1.244.196-1.64.703-.201.25-.331.56-.39.883-.018.081-.02.163-.03.245l-.008.2-.015.394a62.9 62.9 0 0 0-.035 3.15c-.001.245.012.578.075.866.058.296.156.584.29.853.077.151.168.295.266.433-.411.136-.737.142-.991.089a4.283 4.283 0 0 0 3.72 2.171h.785a4.836 4.836 0 0 0 4.77 4.064h4.82l-.157-.092z" fill="#00547A"/><path d="m373.85 346-39.404-84.194c20.991-.1 36.765-.525 36.765-1.035v-4.07c0-.583-20.681-1.49-46.193-1.49-25.511 0-46.193.907-46.193 1.49v4.07c0 .502 15.31.923 35.834 1.03l-39.182 83.72a1.602 1.602 0 0 0 2.9 1.36l39.7-84.83c.036-.077.06-.156.082-.235 1.791.006 3.615.01 5.467.011a1.46 1.46 0 0 0-.089.488v84.457a1.481 1.481 0 1 0 2.962 0v-84.457a1.46 1.46 0 0 0-.089-.488c1.586 0 3.152-.004 4.694-.008-.005.238.037.48.144.71l39.701 84.83a1.6 1.6 0 1 0 2.9-1.36" fill="#0068C9"/><path d="M371.21 260.774c0-.584-20.682-1.058-46.194-1.058-8.302 0-16.091.05-22.824.138l2.502-4.447c-15.322.299-25.872.88-25.872 1.298v4.069c0 .01.01.022.024.032l.016.01a.39.39 0 0 0 .079.033c.029.01.063.019.103.029.005 0 .009.002.014.003l.161.032.054.008a4.706 4.706 0 0 0 .222.033c.065.01.134.017.208.026l.044.005.293.031.078.007c.084.008.17.016.261.023l.105.01.312.024.068.005.426.03.08.006.375.024.15.009.379.022.123.006.543.029.065.003.51.025a155.979 155.979 0 0 0 .646.029l.145.006a323.007 323.007 0 0 0 1.333.053l.224.008.521.019.21.007 1.537.05.227.006.637.019.196.005.81.022.06.002.89.023.23.005a1189.823 1189.823 0 0 0 1.898.045l.992.021.228.004.767.016.314.005.875.017c.046 0 .091.002.137.003l1.098.019.124.002.971.016.262.004.904.014a733.668 733.668 0 0 0 1.383.02h.031c4.12.058 8.661.1 13.491.125l-25.123 53.68 5.12-3.386 23.422-50.045c.036-.076.059-.155.082-.234 1.791.006 3.615.01 5.467.011a1.46 1.46 0 0 0-.089.488v67.108l2.962-3.223v-63.885c0-.172-.035-.335-.089-.488 1.586 0 3.151-.004 4.694-.008-.006.238.037.48.144.71l9.18 19.615 2.452-2.314-8.435-18.023c20.991-.1 36.766-.526 36.766-1.035" fill="#1C417D"/></g></g></svg>