<?xml version="1.0" encoding="UTF-8"?>
<svg version="1.1" viewBox="0 0 420 420" xmlns="http://www.w3.org/2000/svg" xmlns:xlink="http://www.w3.org/1999/xlink">
<title>5. Elements_Illustrations/2.Vector/Man_resting</title>
<defs>
<polygon id="k" points="0 0 135.77 0 135.77 117.32 0 117.32"/>
<polygon id="d" points="0 0 47.887 0 47.887 102.31 0 102.31"/>
<path id="c" d="m4.094 9.4031-4.0348 18.57c-0.23873 1.0978 0.26034 2.2241 1.2251 2.7507 2.3609 1.2886 6.9362 3.5195 11.245 4.097s9.2854-0.37351 11.888-0.99699c1.0625-0.2553 1.8247-1.2121 1.8666-2.3365l0.70443-19.016c0.26504-6.1966-4.1147-11.571-10.081-12.37h-4.699e-4c-0.50518-0.067338-1.0071-0.10076-1.5043-0.10076-5.3732 4.8445e-4 -10.137 3.8562-11.309 9.4031"/>
<polygon id="b" points="0 0 23.828 0 23.828 13.65 0 13.65"/>
<path id="a" d="m12.623 0.013595-11.041 1.243c-1.1448 0.12818-1.8188 1.1366-1.5051 2.2509l6.6598 23.694c0.3137 1.1148 1.4955 1.9135 2.6398 1.7853l11.042-1.2425c1.1443-0.12866 1.8183-1.1371 1.5051-2.2514l-6.6608-23.694c-0.29112-1.0356-1.3317-1.7989-2.3958-1.7989-0.081188 0-0.16238 0.0043698-0.24356 0.013595"/>
<path id="j" d="m3.9768 6.5706c-1.3514 3.2263-3.1321 5.516-3.9768 5.1127l2.6665 1.2709c0.8447 0.40228 2.6249-1.8869 3.9768-5.1137 1.3519-3.2258 1.7622-6.1678 0.91797-6.5701l-2.6665-1.2704c0.8447 0.40228 0.43346 3.3443-0.91797 6.5706"/>
<path id="i" d="m0.38274 1.695-0.053955 0.098703c-0.80007 1.4591-0.089926 3.1847 1.5871 3.8543l0.21691 0.086547c1.6764 0.66953 3.6842 0.029173 4.4843-1.43l0.0545-0.098703c0.79952-1.4591 0.089381-3.1838-1.5871-3.8533l-0.21746-0.08752c-0.45126-0.1799-0.92651-0.26499-1.3952-0.26499-1.2742 0-2.5043 0.62868-3.0891 1.695z"/>
<path id="h" d="m0.28928 1.7377c-0.70391 1.4959-0.078995 3.265 1.3947 3.9512l0.084529 0.038732c1.4737 0.6867 3.2388 0.030357 3.9422-1.4655 0.70391-1.4959 0.078995-3.2645-1.3952-3.9506l-0.084026-0.039255c-0.39699-0.18476-0.8146-0.27217-1.2272-0.27217-1.12 0-2.2013 0.64431-2.715 1.7377z"/>
<polygon id="g" points="0 0 27.699 0 27.699 44.326 0 44.326"/>
<polygon id="f" points="0 0 139.18 0 139.18 116.98 0 116.98"/>
<polygon id="e" points="0 0 47.771 0 47.771 102.01 0 102.01"/>
</defs>
<g fill="none" fill-rule="evenodd">
<g transform="translate(46 71)">
<g transform="translate(2 31)">
<path d="m236.06 79.819-1.8798-1.8547c-0.57258-0.56461-1.3432-0.88101-2.1465-0.88101h-0.76632c1.0464 0 1.8333 0.95639 1.6324 1.9848l-19.611 100.51 4.5979 0.7413 19.053-97.649c0.20237-1.037-0.12804-2.1067-0.87997-2.848" fill="#FFDAAB"/>
<path d="m213.29 179.57 19.611-100.51c0.20045-1.0279-0.58601-1.9848-1.6324-1.9848h-98.508-4.7422c-1.1341 0-2.1033 0.81811-2.2951 1.9377l-15.036 87.708h22.912l79.691 12.846z" fill="#E99462"/>
<g transform="translate(0 129.68)">
<mask id="q" fill="white">
<use xlink:href="#k"/>
</mask>
<path d="m135.67 114.89-34.133-99.326 3.8258 0.21269 0.090155 0.0048012c0.17887 0.010082 0.35774 4.801e-4 0.5347-0.027366l6.7194-1.0827c1.1471-0.18484 2.0151-1.1379 2.0932-2.2983l0.024937-0.37161c0.004315-0.035048 0.01007-0.069136 0.012947-0.10514l0.067137-0.99816c0.001439-0.018724-0.002877-0.036009-0.001918-0.054733l0.001439-0.022565c0.092073-1.3616-0.92457-2.5451-2.2836-2.6574l-68.385-5.6725-24.29-2.0424c-0.092553-0.0076818-0.18127 0.0028807-0.27142 0.0048011l-5.3206-0.44074c-2.2472-0.18676-4.2119 1.5047-4.3634 3.7578-0.075289 1.1182 0.60231 2.1499 1.6583 2.5235l14.002 4.9524c0.11221 0.039849 0.22683 0.071057 0.34288 0.094102l-25.937 103.7c-0.28965 1.1576 0.58457 2.2791 1.7767 2.2791h5.2539 4.2641 4.1423c0.82242 0 1.5437-0.54877 1.7643-1.3419l28.777-103.5 41.768 2.3209 38.361 101.34c0.26951 0.71249 0.95142 1.184 1.7125 1.184h6.0615c1.2574 0 2.1407-1.2397 1.7316-2.4303" fill="#E99462" mask="url(#q)"/>
</g>
<path d="m31.168 141.33-4.8257-0.26838c-0.11797-0.006241-0.2345-0.021605-0.35007-0.04465l-25.937 103.7c-0.28917 1.1571 0.58457 2.2786 1.7767 2.2786h5.2539c-1.1922 0-2.0659-1.1215-1.7767-2.2786l25.859-103.39z" fill="#FFDAAB"/>
<path d="m17.247 132.45c0.087757-1.3001 1.1552-2.2844 2.427-2.3161l-5.3201-0.44122c-2.2438-0.18628-4.2052 1.4999-4.3624 3.7468l7.5984 0.43642c-0.24553-0.41962-0.37788-0.90934-0.34288-1.4259" fill="#FFDAAB"/>
<g transform="translate(91.635 144.69)">
<mask id="n" fill="white">
<use xlink:href="#d"/>
</mask>
<path d="m47.786 99.876-34.06-99.113-13.726-0.7629 38.28 101.12c0.26951 0.71249 0.95142 1.184 1.7125 1.184h6.0615c1.2574 0 2.1407-1.2397 1.7316-2.4303" fill="#FFDAAB" mask="url(#n)"/>
</g>
<path d="m223.05 76.949-2.3402-1.5815c-2.3311-1.5753-5.0789-2.4174-7.891-2.4174h-2.2337c3.3933 0 5.9435 3.1006 5.2928 6.4345l-15.149 81.435c-0.51695 2.7779-2.9761 4.7248-5.7412 4.6494l7.7596 1.0423c3.8632 0.51852 7.4584-2.075 8.1892-5.9092l14.731-77.314c0.47763-2.4476-0.5534-4.9442-2.6179-6.3394" fill="#0097B8"/>
<path d="m200.73 160.82 15.149-81.435c0.65075-3.3344-1.8995-6.435-5.2928-6.435h-87.872-4.7423c-4.6626 0-8.6467 3.3632-9.4356 7.9636l-10.809 67.112c-0.43255 2.6848 1.441 5.1958 4.1361 5.541l92.554 11.859c0.19182 0.024966 0.38268 0.038889 0.5721 0.04417 2.7646 0.075378 5.2242-1.872 5.7407-4.6494" fill="#00547A"/>
<path d="m206.39 163.67-74.022-12.076c-0.26231-0.04273-0.5275-0.064335-0.79317-0.064335h-3.6206c2.2203 0 4.0196 1.8019 4.0196 4.0248v8.0505c0 2.2224-1.7993 4.0243-4.0196 4.0243h4.0196v-0.076339l72.357 11.471c2.8207 0.44747 5.4299-1.5911 5.6817-4.4401l0.49537-5.6077c0.22778-2.5758-1.5691-4.8904-4.1179-5.3062" fill="#0097B8"/>
<path d="m131.97 163.6v-8.051c0-2.2224-1.7993-4.0243-4.0196-4.0243h-113.83-0.91066c-2.2198 0-4.0196 1.8019-4.0196 4.0243v0.91126 6.2285 0.91126c0 2.2224 1.7997 4.0243 4.0196 4.0243h0.91066 113.83c2.2203 0 4.0196-1.8019 4.0196-4.0243" fill="#00547A"/>
<path d="m133.6 166.73h-22.912-102c-0.89196 0-1.6151 0.72401-1.6151 1.6165v2.8015c0 0.89349 0.72316 1.617 1.6151 1.617h9.8307v0.011043l7.7121 2.4284c1.3696 0.43162 2.4198 1.5412 2.7756 2.934l0.97013 3.7948c0.3985 1.5599 1.7945 2.6565 3.4029 2.6738l130.9 1.3947 66.849 10.573-3.7649-14.729-9.4783-1.5277-84.289-13.587z" fill="#E99462"/>
<path d="m196.34 49.549c1.9896-4.8952 0.053709-10.51-4.5293-13.133l-4.0733-2.3324-15.445-8.2359-16.704-2.8644-0.43879-0.075378-9.661-1.6564-17.584 4.0882c-1.3077 0.30391-2.6011 0.68752-3.8719 1.1475l-7.3908 3.2734c-5.7013 2.064-9.2188 7.8455-8.1245 13.355l1.8913 30.224-12.413 46.812c-0.32082 1.3246 0.20764 2.6315 1.3394 3.308 1.9052 1.1379 4.9777 3.1452 7.8977 5.795 8.3585 7.5834 23.434 10.173 23.434 10.173s15.078 2.5806 26.627-1.5887c3.9357-1.4211 7.6857-2.2383 10.027-2.6603 1.466-0.26454 2.6677-1.4058 2.979-2.8154l10.97-45.734 15.07-37.08z" fill="#FC95A4"/>
<path d="m154.12 47.075c0.21148 0.021605 0.37069 0.18004 0.41385 0.37737l5.0707-1.5138c0.11749-0.035048 0.24313-0.033128 0.35966 0.0062415l5.6265 1.9037c0.65123 0.22037 1.3562-0.13875 1.5619-0.79507l2.5709-8.2047 1.782-13.136-15.917-2.7294-0.43927-0.075378-9.661-1.6564-17.584 4.0882c-1.3072 0.30439-2.6006 0.68752-3.8719 1.1475l-0.020141 0.0076818 17.273 18.016c0.28773 0.30055 0.70829 0.43402 1.1164 0.3548l5.6227-1.0865c0.15106-0.029287 0.30739 0.0019204 0.43639 0.08546l5.228 3.4122c0.09591-0.13155 0.25224-0.21509 0.43111-0.20165" fill="#DB594A"/>
<path d="m107.23 129.25c5.5028 4.9922 13.916 7.8201 19.023 9.1702l-8.0276-92.555c-0.045077-0.51852-0.76488-0.6083-0.9356-0.11715l-7.8694 22.623 0.98595 4.9644-5.9349 22.381-2.9756 29.104c1.7082 1.135 3.7558 2.6339 5.7344 4.4295" fill="#DB594A"/>
<path d="m132.69 139.28c-0.031171 0.17236 0.039802 0.33464 0.16257 0.44266 0.16976 0.019685 0.34671 0.03937 0.53374 0.060015 0.12372-0.067696 0.22059-0.18196 0.24745-0.33128 0.054668-0.30151 4.3083-23.67 8.7172-41.237l-0.98931 0.0052813c-4.3994 17.588-8.617 40.759-8.6717 41.06" fill="#DB594A"/>
<path d="m154.55 47.601c0.005275-0.051852-0.003836-0.10082-0.014386-0.14932-0.04316-0.19733-0.20237-0.35576-0.41385-0.37737-0.17887-0.013443-0.3352 0.070097-0.43111 0.20165-0.048434 0.065776-0.085839 0.13971-0.094471 0.22757-0.016784 0.16276-1.4751 14.08-5.8721 29.405l0.50209 1.6996c4.7494-15.971 6.3065-30.839 6.3238-31.007" fill="#DB594A"/>
<path d="m161.1 70.473c0.37309 0.10851 0.59128 0.49404 0.49681 0.86853-0.079604 0.31495-0.16209 0.62847-0.24217 0.94294l0.77639 0.5094 3.1588 2.053 0.79365 0.50748c0.29013 0.18436 0.61094 0.35768 0.93464 0.49644 0.65218 0.27414 1.3461 0.44795 2.0462 0.49596 0.70062 0.049932 1.4027-0.014884 2.0793-0.17092 0.6191-0.14259 1.2204-0.30487 1.8304-0.45899 2.1402-0.55501 4.2723-1.1432 6.3828-1.8259l0.32801-0.6904c-2.357 0.31736-4.6871 0.75138-7.0086 1.2214-0.61334 0.12675-1.2348 0.24918-1.8395 0.38553-0.5486 0.11571-1.1111 0.15652-1.6626 0.10611-0.55196-0.04081-1.0938-0.16996-1.5988-0.38025-0.25368-0.10851-0.4877-0.23237-0.72891-0.38265l-0.79605-0.50316-3.2005-1.9872-0.8018-0.49356c-0.19853-0.12003-0.37165-0.27559-0.5112-0.45899-0.27718-0.36729-0.40858-0.85268-0.34863-1.3386 0.02062-0.21653 0.11221-0.54349 0.18223-0.8474l0.21963-0.9175c0.14914-0.61022 0.29013-1.2228 0.42776-1.8369 0.27574-1.2272 0.56539-2.451 0.81763-3.6849 0.029732-0.14451-0.052271-0.29287-0.19614-0.34184-0.15537-0.053293-0.32513 0.029767-0.37836 0.1858-0.40618 1.1921-0.77495 2.3938-1.1576 3.5922-0.19182 0.5987-0.38028 1.1988-0.56011 1.8009l-0.27382 0.90261c-0.08536 0.30295-0.19518 0.57566-0.26567 0.98135-0.09591 0.57278-0.022539 1.1859 0.21484 1.7356 0.12085-0.36585 0.5088-0.57518 0.88141-0.46619" fill="#DB594A"/>
<path d="m171.37 86.892c-1.2737 0.47963-2.5411 0.97223-3.8023 1.4807-0.16544 0.067696-0.30547 0.11955-0.43879 0.16708-0.13811 0.044651-0.27766 0.086901-0.41912 0.11667-0.28197 0.068176-0.57114 0.089301-0.85551 0.091222-0.56874-0.0076818-1.1356-0.12771-1.6199-0.39273-0.24121-0.13155-0.4714-0.28471-0.66465-0.47579-0.10454-0.10226-0.17456-0.17716-0.293-0.31543l-0.33137-0.38745-1.325-1.5517-1.325-1.5508-0.66226-0.77538-0.16544-0.19445c-0.051791-0.062895-0.081523-0.098423-0.11941-0.15124-0.072891-0.097943-0.1314-0.20501-0.18798-0.31207-0.21724-0.43738-0.26663-0.95975-0.1501-1.4586l0.52175-1.943c0.63061-2.3122 1.2348-4.6317 1.8266-6.954 0.080084-0.31447 0.16257-0.62799 0.24217-0.94342 0.094471-0.37401-0.12324-0.76002-0.49681-0.86805-0.37261-0.10899-0.76056 0.10034-0.88141 0.46571-0.002878 0.0091222-0.007194 0.016324-0.010071 0.024966-0.75769 2.6142-1.4976 5.2323-2.2078 7.8585l-0.54093 1.9978c-0.19566 0.82195-0.12228 1.7351 0.26615 2.5211 0.097348 0.19541 0.20956 0.38409 0.34192 0.55837 0.061861 0.08354 0.1429 0.17812 0.20045 0.24486l0.1688 0.19109 0.67472 0.76482 1.3504 1.5287 1.3504 1.5296 0.33712 0.38217c0.10406 0.11763 0.26663 0.29287 0.40953 0.4225 0.29732 0.28087 0.64116 0.50604 0.99938 0.69136 0.71884 0.37065 1.5254 0.53725 2.3119 0.51132 0.39275-0.015844 0.78502-0.062895 1.1615-0.1666 0.18894-0.047531 0.37405-0.10995 0.5558-0.17716 0.18463-0.073457 0.36062-0.14547 0.50544-0.21653 1.2363-0.56509 2.4658-1.1465 3.6901-1.7414 0.4081-0.19349 0.81331-0.39465 1.219-0.59438l0.56922-1.1979c-0.7385 0.26598-1.4746 0.53725-2.2054 0.81955" fill="#DB594A"/>
<path d="m168.21 70.691c-0.24025 0.88437 0.29444 1.7265 1.1941 1.8806 0.89963 0.1546 1.8237-0.43738 2.064-1.3222 0.23977-0.88437-0.29444-1.7265-1.1946-1.8806-0.89963-0.15412-1.8237 0.43738-2.0635 1.3222" fill="#DB594A"/>
<path d="m174.13 116.4-5.9713-2.6704s-1.1298-0.50028-0.7011-1.665l-25.722-5.5155 10.048 11.498 19.246 11.278 3.1003-12.925z" fill="#DB594A"/>
<path d="m174.9 94.866c0.1851-0.41578 0.5088-0.6011 0.81379-0.67792 0.36494-0.091702 0.75145-0.020165 1.0833 0.157l2.3258 1.2454 2.1493-8.9613 4.2694-10.62-1.3221-12.351-4.5327 9.5423-0.56395-0.60446-5.5493 13.476-0.56922 1.1979-3.6062 7.592 5.5033 2.2705c0.2134-1.0481 0.25896-1.8921-0.001438-2.2661" fill="#DB594A"/>
<path d="m172.54 104.04c0.72652-1.6314 1.9148-4.7205 2.3608-6.9093l-5.5028-2.27-13.518-5.5765c-0.23594-0.097463-0.47571-0.17284-0.7174-0.2367l-1.5648-0.92614-1.137-5.0618c-0.20477-0.29287-0.48386-0.52812-0.81044-0.68368l-2.4702-0.86949 0.70685 2.3521-0.098307 0.028807-1.5619-5.2803-0.50257-1.6996-1.8367-6.2088c-0.41337-1.3981-1.9566-2.4054-3.447-2.2498l-10.572 1.1043c-1.5139 0.15796-2.4011 1.4384-1.9805 2.8591l3.1655 10.704c-0.52558-0.0091222-1.0435 0.16324-1.4521 0.50364l-0.48626 0.40522c-0.21196 0.1762-0.17456 0.50508 0.072412 0.63567l1.9949 1.0553-0.2604 2.0112c-0.049873 0.38553 0.014866 0.77778 0.18702 1.1297l3.516 7.2075c0.34575 0.70817 0.98451 1.243 1.7561 1.4696l1.9379 0.56893c0.27094 0.079699 0.55196 0.11955 0.83441 0.11811l0.20716-9.602e-4 0.98883-0.0052812 7.8229-0.037449c0.054189 0.046571 0.10454 0.095062 0.16065 0.13971l17.231 13.614c1.067-0.2511 4.0527-5.8156 4.9763-7.8907" fill="#DB594A"/>
<path d="m168.16 113.73 5.9713 2.6704 4.9911-20.81-2.3253-1.2454c-0.33185-0.17716-0.71884-0.2487-1.0838-0.157-0.30499 0.076818-0.62821 0.26214-0.81331 0.67792 0.26039 0.37401 0.21484 1.218 0.001438 2.2661-0.44646 2.1884-1.6348 5.2774-2.3613 6.9088-0.92361 2.0755-3.9093 7.6396-4.9763 7.8907-0.020141 0.004802-0.041241 0.011523-0.059944 0.012483-0.018702 0.04129-0.030211 0.079699-0.045077 0.12003-0.42824 1.1648 0.7011 1.6655 0.7011 1.6655" fill="#DB594A"/>
<polygon points="153.87 47.354 168.27 31.55 144.89 29.363" fill="#fff"/>
<path d="m169.5 31.205c-0.042679 1.1143-0.82003 2.063-1.9052 2.3156-2.6553 0.61791-7.7337 1.5604-12.131 0.98855-4.3975-0.57278-9.0663-2.7832-11.476-4.0603-0.98403-0.52188-1.4938-1.6381-1.2507-2.7266l4.1179-18.404c1.3063-6.0062 6.9875-10.011 13.075-9.2191h4.79e-4c6.0883 0.79219 10.558 6.1186 10.287 12.26l-0.71884 18.846z" fill="#FFDAAB"/>
</g>
<g transform="translate(145 31)">
<mask id="m" fill="white">
<use xlink:href="#c"/>
</mask>
<path d="m27.192 15.697s-10.423 14.659-28.021 7.1606c0 0-4.2914-10.084 1.8901-13.52 6.181-3.4362 26.671-1.9257 26.131 6.3593" fill="#E99462" mask="url(#m)"/>
</g>
<g transform="translate(86)">
<path d="m78.121 47.523-1.51 0.32493c-1.5608 0.336-3.1739 0.336-4.7352 0l-1.5095-0.32493c-6.297-1.3551-10.959-6.7542-11.447-13.258l-0.35445-4.7189c-0.073646-0.98442-0.079348-1.9727-0.01663-2.9581l0.8619-13.571c0.19528-3.0784 2.4356-5.6263 5.4318-6.178l4.6084-0.84771c3.1692-0.58295 6.4163-0.58295 9.5854 0l4.6084 0.84771c2.9962 0.55166 5.2365 3.0996 5.4323 6.178l0.8619 13.571c0.062243 0.98538 0.057017 1.9736-0.017105 2.9581l-0.35398 4.7189c-0.48844 6.5034-5.1496 11.903-11.447 13.258" fill="#FFD9AF"/>
<path d="m55.877 20.905c-1.4359 0.072207-3.1597 1.977-1.8958 6.1111 1.2639 4.1336 2.4489 6.4548 4.424 6.0143 2.2208-0.49486 1.4763-5.4882 1.1859-7.3632-0.31597-2.041-1.3442-4.8826-3.7142-4.7623" fill="#FFD9AF"/>
<path d="m92.665 20.905c1.4359 0.072207 3.1601 1.977 1.8958 6.1111-1.2639 4.1336-2.4489 6.4548-4.424 6.0143-2.2208-0.49486-1.4763-5.4882-1.1859-7.3632 0.31597-2.041 1.3442-4.8826 3.7142-4.7623" fill="#FFD9AF"/>
<path d="m59.591 25.667c-0.2485-1.6054-0.94077-3.6999-2.3771-4.4643 0.58252 0.72351 1.0444 1.6603 1.0444 3.0471 0 2.754-0.28461 5.9893-2.1196 6.2825-0.34875 0.056321-0.62861 0.060654-0.8657 0.018292 0.86618 1.849 1.826 2.7708 3.1316 2.4801 2.2213-0.49486 1.4767-5.4882 1.1864-7.3636" fill="#E99462"/>
<path d="m91.487 32.43c-1.835-0.29316-1.2045-5.4256-1.2045-8.1796 0-0.95313 0.088851-1.7493 0.24755-2.4281-0.90704 0.98297-1.3827 2.5706-1.5798 3.8452-0.29031 1.8754-1.0349 6.8688 1.1859 7.3636 0.73837 0.16463 1.366-0.057284 1.9286-0.61424-0.1815 0.034659-0.37108 0.045731-0.57777 0.012997" fill="#E99462"/>
<path d="m77.404 45.34c-9.48-0.96083-16.076-7.5557-16.538-12.486-0.32642-3.4929-0.4357-4.8971-0.54546-7.4469-0.057967-1.3589-0.69893-2.3934-1.5029-3.0645l-0.26988 4.2458c-0.062243 0.98538-0.056542 1.9741 0.017105 2.9581l0.35445 4.7189c0.48797 6.5034 5.1496 11.903 11.446 13.258l1.51 0.32493c1.5608 0.336 3.1744 0.336 4.7352 0l1.51-0.32493c1.7841-0.38414 3.43-1.1019 4.8939-2.0685-1.4682 0.1242-3.307 0.11842-5.6109-0.11457" fill="#E99462"/>
<path d="m74.244 2.0087c-9.9542 0-16.828 5.6908-16.828 9.9332l0.45281 9.4297c0.011878 0.26572 0.11641 0.51459 0.27225 0.72929 0.23139 0.31915 0.54023 1.0451 0.54023 2.6457v4.898c0 0.34515 0.27606 0.62483 0.61673 0.62483h0.72981c0.34448 0 0.62243-0.28401 0.61673-0.63253-0.01853-1.1433-0.047039-3.6065 0.011403-5.4506 0.079348-2.481 1.1855-4.3218 1.2643-5.8641 0.078873-1.5428-1.9752-5.26 1.4221-7.9009 2.1837-1.6983 6.0651-1.0138 8.5591-0.30808 1.5309 0.43276 3.1549 0.43276 4.6858 0 2.494-0.7057 6.3754-1.3902 8.5591 0.30808 3.3972 2.6408 1.3432 6.358 1.4221 7.9009 0.078873 1.5423 1.185 3.3831 1.2643 5.8641 0.058442 1.8442 0.029934 4.3074 0.011403 5.4506-0.0057017 0.34852 0.27225 0.63253 0.61673 0.63253h0.72981c0.34067 0 0.61673-0.27968 0.61673-0.62483v-4.898c0-1.6006 0.30884-2.3265 0.54023-2.6461 0.15585-0.21469 0.2599-0.46309 0.27225-0.72881l0.45281-9.4297c0-4.2424-6.8743-9.9332-16.828-9.9332" fill="#0097B8"/>
<path d="m57.415 11.942 0.45281 9.4297c0.011878 0.2662 0.11641 0.51411 0.27225 0.72929 0.23139 0.31963 0.54023 1.0451 0.54023 2.6461v4.8975c0 0.34515 0.27606 0.62483 0.61673 0.62483h0.03611c0.1568-1.0879 0.21239-3.4524 0.23234-5.9441 0.011403-1.4735 0.62386-3.5916 0.62386-4.912 0-4.0763-1.8868-3.6383-1.1926-7.923 0.52075-3.2156 5.0065-1.744 5.7948-4.6491 0.41812-1.5394-0.49224-2.0593-1.4411-2.2081-3.7256 2.0357-5.9354 4.9043-5.9354 7.3088" fill="#00547A"/>
<g transform="translate(60.838)">
<mask id="l" fill="white">
<use xlink:href="#b"/>
</mask>
<path d="m1.1125 2.7862c-0.49414-0.1526-1.0002 0.17955-1.051 0.7004-0.27273 2.7973 0.0019006 10.164 8.6005 10.164 10.491 0 14.26-4.5408 15.07-6.0735 0.55876-1.0571-1.1655-6.9169-9.0751-7.508-7.9101-0.59017-9.7418 2.7819-11.407 2.9504-0.83624 0.084722-1.5917-0.063542-2.1372-0.23299" fill="#0097B8" mask="url(#l)"/>
</g>
<path d="m81.353 7.4947c-2.7244-0.43565-10.54 1.9611-15.845 0.14538-3.1392-1.0744-3.2908-3.1655-2.8922-4.6949-0.24185-0.04525-0.47086-0.098201-0.66519-0.15885-0.49414-0.15308-1.0006 0.17955-1.0515 0.7004-0.27225 2.7968 0.0019006 10.164 8.6005 10.164 6.9684 0 10.969-2.003 13.109-3.7981 0.56019-0.89681 1.1018-1.9804-1.2558-2.3578" fill="#00547A"/>
<path d="m89.8 30.379c0-1.5678 0.0028508-2.7275 0.0052265-3.3451 9.503e-4 -0.28112-0.22379-0.50593-0.50127-0.50593h-0.91512c-0.28841 0-0.5217 0.23828-0.52313 0.53048-0.0085525 1.6097-0.076972 1.7286-0.57967 2.5657-0.82532 1.3739-1.9205 2.015-4.5927 2.015-2.6503 0-4.223-0.78224-8.4494-0.78224-4.2268 0-5.7995 0.78224-8.4499 0.78224-2.6722 0-3.7669-0.6412-4.5927-2.015-0.5027-0.83712-0.57112-0.95602-0.57967-2.5657-0.0014254-0.2922-0.23424-0.53048-0.52265-0.53048h-0.81011c-0.38296 0-0.60723 0.2248-0.60628 0.50593 0.0019006 0.61761 0.0052265 1.7768 0.0052265 3.3451 0 2.4069-0.87093 3.0332-0.87093 5.8165 0 3.7013 4.0368 12.921 16.427 12.921 12.39 0 16.426-9.2193 16.426-12.921 0-2.7833-0.87045-3.4096-0.87045-5.8165" fill="#0097B8"/>
<path d="m77.404 45.34c-9.48-0.96083-11.546-3.8298-12.489-7.5177-0.94172-3.6878-3.1012-3.6878-4.0491-4.9683-0.8695-1.175-1.49-3.2228-1.3342-6.3258h-0.24327c-0.38344 0-0.6077 0.2248-0.60675 0.50593 0.0023757 0.61761 0.0052266 1.7768 0.0052266 3.3451 0 2.4069-0.87045 3.0332-0.87045 5.8165 0 3.7013 4.0363 12.921 16.426 12.921 5.6147 0 9.5089-1.8952 12.095-4.3098-1.6254 0.56754-4.3722 0.99549-8.934 0.53337" fill="#00547A"/>
<path d="m77.54 24.828c0.3326-0.71003 1.1071-1.1929 1.9072-1.266 0.40149-0.035622 0.81249 0.020218 1.1817 0.17618 0.36918 0.15212 0.69845 0.39858 0.92034 0.7187 0.078398 0.11216 0.05179 0.26765-0.059392 0.34707-0.07032 0.050545-0.1587 0.057765-0.23329 0.027438l-0.010928-0.0048138c-0.59915-0.24887-1.1489-0.3567-1.7119-0.30712-0.56304 0.048138-1.089 0.25802-1.6283 0.61664l-0.0095027 0.0057765c-0.11308 0.076058-0.26513 0.043805-0.33925-0.070762-0.048464-0.075095-0.05179-0.16752-0.01663-0.2431" fill="#1C417D"/>
<path d="m69.617 25.135c-0.53976-0.35863-1.0653-0.56851-1.6283-0.61616-0.56304-0.050063-1.1132 0.058247-1.7119 0.30664l-0.0099779 0.0043324c-0.12544 0.05247-0.26893-0.0086648-0.32072-0.13575-0.032785-0.081353-0.019481-0.17089 0.026608-0.23828 0.22236-0.31963 0.55164-0.56658 0.92082-0.71822 0.36918-0.15645 0.7797-0.21229 1.1812-0.17667 0.80061 0.073651 1.5751 0.55647 1.9077 1.266 0.057967 0.1242 0.0057017 0.27246-0.11688 0.33119-0.079823 0.03851-0.16962 0.028883-0.23899-0.016367l-0.0095028-0.0067393z" fill="#1C417D"/>
<path d="m67.882 29.537h-2.016c-0.63479 0-1.1489-0.52133-1.1489-1.164 0-0.64264 0.5141-1.164 1.1489-1.164h2.016c0.63431 0 1.1489 0.52133 1.1489 1.164 0 0.64264-0.51458 1.164-1.1489 1.164" fill="#FC95A4"/>
<path d="m81.656 29.537h-2.016c-0.63479 0-1.1489-0.52133-1.1489-1.164 0-0.64264 0.5141-1.164 1.1489-1.164h2.016c0.63431 0 1.1489 0.52133 1.1489 1.164 0 0.64264-0.51458 1.164-1.1489 1.164" fill="#FC95A4"/>
<path d="m70.828 18.804-0.58727-1.2063c-0.22664-0.46549-0.58585-0.61472-0.91322-0.49823-1.0852 0.38655-3.4799 1.3902-5.2636 3.2334-0.12259 0.12612-0.17865 0.30423-0.15632 0.47993 0.029459 0.23395 0.072221 0.5738 0.10643 0.84626 0.025658 0.20122 0.24802 0.3076 0.4167 0.19881 0.82151-0.53192 2.9991-1.7806 6.0238-2.3039 0.3402-0.059209 0.52598-0.43661 0.37346-0.74999" fill="#00547A"/>
<path d="m76.66 19.058 0.5008-1.2463c0.19338-0.48041 0.54071-0.65516 0.87568-0.56273 1.1099 0.30712 3.5692 1.1356 5.4779 2.8445 0.13114 0.11794 0.19956 0.29123 0.19006 0.4679-0.013304 0.23539-0.031834 0.57765-0.047039 0.85204-0.010928 0.20218-0.22569 0.32445-0.40149 0.22817-0.85667-0.47079-3.1169-1.5597-6.1706-1.8634-0.34353-0.033696-0.55544-0.39666-0.42525-0.72014" fill="#00547A"/>
<path d="m72.977 23.895-0.19671 5.7616c-0.024232 0.71099 0.57634 1.28 1.2748 1.2083l1.2919-0.13286c0.24137-0.025032 0.46611-0.13623 0.63336-0.31434l0.24327-0.25802" fill="#FFD9AF"/>
<path d="m73.28 23.906c0.080298 0.85108 0.10976 1.6997 0.12591 2.5489 0.017105 0.84867 0.0090276 1.6959-0.013779 2.5431l-0.017105 0.63542c-0.0099779 0.15115 0.0090277 0.22143 0.053691 0.32541 0.089326 0.1887 0.27701 0.33793 0.49795 0.35718 0.031359 9.627e-4 0.047514 0.0043324 0.093127 0.0043324l0.15727-0.0062579 0.31359-0.014441 0.62908-0.014441c0.42335 0.013479 0.46611-0.0081834 0.87758-0.34419 0.13589-0.11072 0.33497-0.089055 0.44425 0.048619 0.090751 0.11312 0.091702 0.27053 0.012829 0.38462l-0.003326 0.0043324-0.18245 0.26331c-0.066519 0.09435-0.18245 0.21469-0.29649 0.29701-0.11878 0.086648-0.25372 0.1526-0.39579 0.19833-0.066519 0.022625-0.15632 0.039954-0.20859 0.050545l-0.15442 0.029845-0.61911 0.11361-0.31074 0.050063-0.1549 0.025513c-0.058442 0.0081835-0.14682 0.015886-0.21999 0.019255-0.61911 0.010109-1.242-0.35285-1.5242-0.92906-0.14729-0.2739-0.21049-0.63301-0.19386-0.90499l0.025658-0.63542c0.03516-0.84674 0.084575-1.6925 0.15965-2.5378 0.074122-0.84578 0.16155-1.6906 0.29981-2.534 0.027558-0.16848 0.18435-0.28209 0.35065-0.25417 0.13922 0.023588 0.2409 0.1396 0.25372 0.27535" fill="#E99462"/>
<path d="m73.328 35.803 1.8545 0.015885c0.71081 0.0062579 1.415-0.1319 2.0721-0.40628l2.7886-1.163c0.40149-0.16704 0.82912 0.17378 0.76402 0.60846l-0.26418 1.7522c-0.14777 0.98008-0.9308 1.7344-1.9044 1.8355l-1.0387 0.10783c-0.4433 0.046212-0.89088 0.0062579-1.319-0.11746l-1.5209-0.43854c-0.5103-0.14778-0.96263-0.45105-1.2957-0.86937l-0.48084-0.60413c-0.23139-0.29123-0.024707-0.72447 0.34448-0.7211" fill="#fff"/>
<path d="m85.77 52.527-0.33592 7.4633-10.629 8.943c-0.6899 0.58054-1.2406 1.3122-1.6112 2.1397l-3.4243 7.6525 6.9451-6.7374c0.26655-0.2585 0.6994-0.20747 0.89991 0.10638l4.1446 6.4793c0.24897 0.38895 0.81249 0.38077 1.0486-0.015886 1.3698-2.2971 5.169-8.9556 7.7329-16.228 0.47371-1.3445 0.36206-2.8295-0.3307-4.0729l-2.4265-4.355c-0.42002-0.75432-1.166-1.2641-2.0136-1.3753" fill="#FC95A4"/>
<path d="m60.913 49.253-1.5585 7.302 8.0189 11.399c0.52075 0.74036 0.86855 1.59 1.0177 2.4863l1.3793 8.285-5.0141-8.3124c-0.19196-0.31867-0.62386-0.38173-0.89706-0.12997l-5.6413 5.1902c-0.33877 0.31145-0.88138 0.15789-1.0101-0.2869-0.74454-2.5759-2.7373-9.9973-3.3806-17.691-0.11926-1.4225 0.36396-2.8295 1.347-3.852l3.4448-3.5819c0.5963-0.62001 1.4463-0.91943 2.294-0.80775" fill="#FC95A4"/>
<path d="m25.476 67.688-24.281 45.964c-2.3823 4.5105-1.109 10.109 2.9815 13.108 4.596 3.3701 11.03 2.2403 14.239-2.4998l29.107-42.99c4.2672-6.3032 2.3196-14.954-4.2226-18.758-6.3193-3.6753-14.387-1.3325-17.825 5.1763" fill="#FC95A4"/>
<path d="m35.17 76.924-15.913 18.769c-0.80821 0.95361-1.7034 1.8283-2.6731 2.6129l-12.715 10.286-2.6731 5.0602c-2.3823 4.5095-1.1085 10.109 2.9815 13.108 4.596 3.3701 11.03 2.2408 14.239-2.4993l18.618-27.498-0.45993-19.332c-0.01758-0.74036-0.92747-1.0696-1.404-0.50737" fill="#DB594A"/>
<path d="m38.64 96.314c2.6812 1.4018 5.9744 0.25032 7.2316-2.5287l2.1842-4.8292s2.9981-1.1784 5.1899-3.8149c1.8207-2.1903 3.1107-3.5757 3.6971-4.0402 0.11783-0.092906 0.21571-0.20314 0.29316-0.33263 0.23757-0.39473 0.81486-1.3397 1.3176-2.0454 0.35778-0.50256 0.023757-1.2059-0.58775-1.2328-0.58395-0.025032-1.3808 0.1834-2.3842 0.98875-1.5185 1.2184-2.5273 1.7734-2.5273 1.7734s-0.38771-1.3228 1.8098-4.8364c2.1975-3.5141 3.8282-6.5429 4.1665-8.0587 0.15917-0.71485-0.14112-1.3103-0.50317-1.7402-0.38486-0.45683-1.1004-0.38895-1.4007 0.12901l-0.87473 1.5101s-3.5745 1.4658-4.357 1.8504c-0.78255 0.3851-2.1286 2.4016-2.1286 2.4016l-5.7036 3.1593c-1.1527 0.63879-2.0697 1.6391-2.6133 2.8507l-2.2693 5.0578-1.7124 4.7223-0.86808 1.3868c-1.6625 2.6567-0.71888 6.1862 2.0402 7.6289" fill="#FFDAAB"/>
<path d="m5.0517 110.94 32.676-23.769c2.3833-1.7339 5.6941-1.241 7.4844 1.1139 1.6331 2.1484 1.482 5.1811-0.3573 7.1518l-27.639 29.611c-3.4105 3.6537-9.0547 3.9449-12.814 0.65997-4.5499-3.9762-4.2316-11.218 0.64951-14.768" fill="#FFDAAB"/>
<path d="m11.076 127.97c2.2598-0.15019 4.4682-1.1279 6.1397-2.9186l27.639-29.611c0.58775-0.62964 1.0011-1.3681 1.2411-2.1513l1.9599-4.3334s1.4862-0.58728 3.1302-1.8528c-2.0797 0.3567-3.4096-0.69463-5.2232 0.93532l-18.079 16.241c-2.5947 2.0993-5.9521 2.9754-9.2253 2.405l-6.2547-1.0889-7.3523 5.3481c-2.3904 1.7387-3.6837 4.3632-3.8496 7.056l9.8739 9.9703z" fill="#E99462"/>
<path d="m48.654 78.9s-2.0626 1.6829-1.5257 1.4966c1.2814-0.44335 2.3348 0.4756 3.0751 1.6184 0.62433 0.9642 0.35065 1.1486-0.050365 2.0882-0.11593 0.2715 1.6801-0.39425 2.2807-1.9419 0.14824-0.3827 1.9428-1.7248 2.9207-2.4926 0.85335-0.67008 1.6254-0.89488 2.4303-1.5669 0.21856-0.18244 0.32547-0.3774 0.35303-0.57862-0.055116-0.015404-0.11071-0.029364-0.17105-0.032252-0.58442-0.025032-1.3817 0.1834-2.3847 0.98875-1.5185 1.2184-2.5273 1.7734-2.5273 1.7734s-0.38819-1.3233 1.8098-4.8364c0.71888-1.1505 1.376-2.2471 1.9485-3.257 0.73837-1.5207 1.3161-3.2714 0.77305-4.1326 0 0-0.28413 2.5455-2.5363 3.5405l1.0239 0.1343s-0.089801 1.2795-1.8245 1.9659c-0.73646 0.29123-0.88423 1.4307-1.4953 2.4127-0.19528 0.31386-0.97213 0.43035-1.1356 0.73362-0.12116 0.22432-0.23234 0.44046-0.33212 0.64023-0.33687 0.67585-2.6323 1.4456-2.6323 1.4456" fill="#E99462"/>
<path d="m15.913 126.91 5.0636-4.0465-9.3232-16.249-6.8591 4.4171c-4.721 3.0399-5.8965 9.5048-2.5539 14.049 3.2366 4.4012 9.4196 5.2282 13.673 1.8297" fill="#DB594A"/>
<path d="m23.616 120.12s0.99969-1.1673 0.20621-2.1017c-0.93602 0.49823-5.2056-3.6888-6.6082-5.3462-1.5893-1.8759-4.8526-6.3821-4.0962-7.6053-0.26703-0.31482-0.65807-0.38944-1.0168-0.37836-0.4281 0.014441-0.86048 0.17618-1.2126 0.4188-2.4327 1.6762-4.844 3.3783-7.2349 5.1065-0.6747 0.48571-1.0762 1.2006-1.0615 1.9684 0.016155 1.6001 0.77923 4.7685 4.4915 9.1919 3.708 4.4186 6.8776 5.8661 8.5834 6.2584 0.84432 0.20266 1.7276-0.15885 2.3591-0.91077 1.8583-2.2071 3.7213-4.4075 5.59-6.6016" fill="#FC95A4"/>
<path d="m20.548 121.62c-0.86285 0.3206-1.6701 0.064024-2.5472-0.30616-0.89801-0.37596-1.95 0.19785-1.8963 1.3609 0.028033 0.55599 0.82484 0.99068 1.0971 1.7041 0.14207 0.37307-0.14824 0.79042-0.50032 0.71581-1.3218-0.2715-4.0116-1.3671-7.3281-5.145-2.8732-3.2724-3.3017-5.8829-3.1164-7.3858 0.057017-0.48956 0.80156-0.55166 0.98021-0.085204 0.66424 1.7431 2.1776 4.6698 4.6283 5.8593 6.2238 3.0086-5.6199-6.1809-1.7775-11.155 0.24375-0.3076 0.78683-0.24502 0.89516 0.10205 0.62671 2.1826 3.6619 9.5669 9.6985 13.421 0.31977 0.19977 0.23804 0.77502-0.13351 0.91365m3.2751-3.6079c-0.9365 0.49774-5.2056-3.6888-6.6087-5.3462-1.5889-1.8759-4.8526-6.3821-4.0962-7.6053-0.26655-0.31482-0.65759-0.38943-1.0168-0.37836-0.4281 0.014442-0.86 0.17618-1.2126 0.41928-2.4327 1.6757-4.844 3.3778-7.2345 5.106-0.67517 0.48571-1.0762 1.2006-1.0615 1.9684 0.016155 1.6001 0.77875 4.7685 4.491 9.1924 3.7085 4.4181 6.8776 5.8656 8.5839 6.2584 0.84385 0.20218 1.7276-0.15934 2.3586-0.91125 1.8583-2.2071 3.7213-4.4075 5.59-6.6016 0 0 0.99969-1.1673 0.20669-2.1017" fill="#DB594A"/>
<path d="m43.755 89.847c1.0196-1.525 1.5979-3.3066 1.6763-5.1464 0.10263-2.3977 0.30932-5.4896 0.69608-5.5435 0.63336-0.088574 2.3705-0.27968 3.3445-0.6205 0.58204-0.2041-0.29744 1.1765-1.7229 1.7667-0.42905 0.17715 1.8055 2.4247 0.70558 5.0265-0.93555 2.2134-5.7135 6.0326-5.7135 6.0326l1.0139-1.5154z" fill="#E99462"/>
<path d="m66.906 116.33-11.861 1.3377c-1.1878 0.1343-2.4142-0.69704-2.7392-1.8562l-6.6462-23.701c-0.42382-1.5125 0.48844-2.8806 2.0383-3.0553l10.821-1.2208c1.5252-0.17233 3.1003 0.89536 3.5175 2.3843l6.5959 23.523c0.35968 1.2814-0.41337 2.4401-1.7262 2.5884" fill="#009F70"/>
<path d="m65.864 116.44-10.92 1.2318c-1.1323 0.12708-2.3011-0.66478-2.6109-1.77l-6.5873-23.492c-0.30979-1.1048 0.35683-2.1041 1.4886-2.2317l10.92-1.2318c1.1323-0.12757 2.3011 0.66478 2.6109 1.7695l6.5873 23.492c0.30979 1.1048-0.35683 2.1041-1.4886 2.2321" fill="#005639"/>
</g>
<g transform="translate(132 88)">
<mask id="v" fill="white">
<use xlink:href="#a"/>
</mask>
<path d="m4.6138 6.6527-1.999-4.1697c-0.31178-0.65061-1.1467-0.94532-1.7059-0.60254-0.49097 0.30103-0.70043 0.87881-0.53373 1.4721l6.6224 23.559c0.35262 1.2541 1.6824 2.1528 2.9703 2.0077l12.854-1.4459c-0.41074-1.4619-1.3884-2.801-2.7258-3.7361l-2.0047-1.4003c-5.8431-4.0823-10.531-9.5382-13.478-15.684" fill="#002316" mask="url(#v)"/>
</g>
<g transform="translate(132 66)">
<path d="m5.4774 30.02-2.8613 0.3179c-0.70658 0.078517-1.4362-0.40839-1.6295-1.0878l-0.93923-3.2996c-0.19331-0.67937 0.22258-1.2936 0.92916-1.3721l2.8613-0.3179c0.70658-0.078517 1.4362 0.40839 1.6295 1.0878l0.93923 3.2996c0.19331 0.67937-0.22258 1.2936-0.92916 1.3721" fill="#009F70"/>
<path d="m5.5507 30.012-2.6973 0.29971c-0.66581 0.07373-1.3537-0.3854-1.536-1.026l-0.88503-3.1096c-0.18228-0.64059 0.2101-1.2199 0.87591-1.2936l2.6968-0.29971c0.66629-0.07373 1.3542 0.3854 1.536 1.026l0.88551 3.1096c0.18228 0.64059-0.20962 1.2194-0.87591 1.2936" fill="#1C417D"/>
<path d="m1.9774 25.722c-0.027822 0-0.055644 0.0014363-0.083466 0.0047876-0.18564 0.020587-0.33962 0.10868-0.43364 0.248-0.09306 0.13884-0.11704 0.31311-0.066677 0.49025 0.10745 0.37583 0.51375 0.65208 0.90325 0.60276 0.18564-0.020587 0.33962-0.10916 0.43364-0.24896 0.093539-0.13884 0.11704-0.31215 0.066677-0.4893-0.099775-0.3495-0.45666-0.60755-0.81979-0.60755m0.23793 1.4732c-0.41733 0-0.82602-0.29588-0.94019-0.6966-0.060441-0.21257-0.03118-0.42323 0.082507-0.59175 0.11513-0.17044 0.30029-0.27768 0.52286-0.30258 0.44371-0.045483 0.91237 0.25997 1.0352 0.69133 0.060441 0.21257 0.03118 0.42275-0.082986 0.59223-0.11465 0.16996-0.29981 0.27768-0.52238 0.3021-0.03166 0.0033514-0.063319 0.0052664-0.094978 0.0052664" fill="#B8DDFF"/>
<path d="m2.1119 26.157c-0.013716 0-0.02686 6.055e-4 -0.040576 0.0024222-0.088582 0.010295-0.16116 0.054501-0.20574 0.12353-0.043434 0.069034-0.054292 0.15684-0.030289 0.24586 0.052578 0.19681 0.25374 0.34033 0.44462 0.3155 0.088582-0.0109 0.16173-0.054501 0.20574-0.12414 0.043434-0.06964 0.054864-0.15624 0.030861-0.24586-0.049149-0.18227-0.22517-0.31732-0.40462-0.31732m0.12973 0.84537c-0.24289 0-0.4812-0.18288-0.54749-0.43056-0.036004-0.13444-0.018288-0.26766 0.04972-0.37545 0.069151-0.10779 0.17888-0.17682 0.31089-0.19196 0.26003-0.023617 0.53149 0.16108 0.60293 0.42753 0.036004 0.13444 0.018288 0.26766-0.04972 0.37424-0.06858 0.1084-0.17945 0.17682-0.31147 0.19317-0.018288 0.0018167-0.036576 0.0030278-0.054864 0.0030278" fill="#0080F6"/>
<path d="m2.7956 28.559c-0.013145 0-0.026861 6.054e-4 -0.040577 0.0024216-0.088584 0.010292-0.16174 0.054485-0.20574 0.1235-0.043435 0.069015-0.054293 0.1568-0.03029 0.24579 0.052579 0.19675 0.25089 0.34205 0.44463 0.31541 0.088584-0.010292 0.16174-0.054486 0.20574-0.1235 0.043435-0.06962 0.054865-0.1568 0.030861-0.2464-0.04915-0.18222-0.22517-0.31723-0.40463-0.31723m0.12916 0.84513c-0.24232 0-0.48064-0.18283-0.54693-0.43043-0.036005-0.1344-0.01886-0.26758 0.049721-0.37595 0.068581-0.10715 0.17888-0.17617 0.3109-0.1913 0.26061-0.025427 0.5315 0.16164 0.60294 0.42741 0.036005 0.1344 0.017717 0.26758-0.050293 0.37534-0.068581 0.10776-0.17888 0.17617-0.3109 0.19191-0.018288 0.0018162-0.037148 0.003027-0.055436 0.003027" fill="#0080F6"/>
<path d="m4.3178 26.88c-0.013714 0-0.026857 6.053e-4 -0.040571 0.0024213-0.08857 0.010291-0.16171 0.055085-0.20571 0.12409-0.043428 0.069008-0.054285 0.15618-0.030285 0.24516 0.052571 0.19613 0.25028 0.34443 0.44457 0.31538 0.08857-0.010291 0.16171-0.05448 0.20571-0.12349 0.043428-0.069613 0.054856-0.15678 0.030857-0.24637-0.049142-0.1822-0.22514-0.31719-0.40457-0.31719m0.12914 0.84504c-0.24228 0-0.48056-0.18281-0.54685-0.43039-0.036-0.13378-0.018857-0.26695 0.049142-0.3747 0.069142-0.10775 0.17943-0.17676 0.31142-0.19249 0.26114-0.026029 0.53142 0.16102 0.60285 0.42736 0.036 0.13438 0.018285 0.26756-0.050285 0.3753-0.068571 0.10835-0.17885 0.17615-0.31085 0.19189-0.018285 0.001816-0.037142 0.0030267-0.055428 0.0030267" fill="#0080F6"/>
<path d="m2.6609 28.124c-0.027822 0-0.055644 0.0014363-0.083466 0.0047876-0.18564 0.020587-0.33914 0.10868-0.43364 0.24848-0.09306 0.13836-0.11656 0.31263-0.066197 0.48978 0.10697 0.37631 0.51087 0.64633 0.90325 0.60276 0.18564-0.020587 0.33962-0.10916 0.43364-0.24896 0.09306-0.13836 0.11656-0.31215 0.066197-0.4893-0.099775-0.3495-0.45618-0.60755-0.81979-0.60755m0.23793 1.4732c-0.41685 0-0.82602-0.29588-0.93971-0.6966-0.060441-0.21209-0.03118-0.42275 0.082507-0.59175 0.11465-0.17044 0.29981-0.27768 0.52238-0.30258 0.44659-0.045961 0.91237 0.26045 1.0352 0.69133 0.060921 0.21305 0.03118 0.42275-0.082507 0.59223-0.11465 0.16996-0.30029 0.27768-0.52238 0.3021-0.032139 0.0033513-0.063799 0.0052664-0.095458 0.0052664" fill="#B8DDFF"/>
<path d="m4.1833 26.445c-0.027822 0-0.055644 0.0014363-0.083466 0.0047877-0.18564 0.020587-0.33962 0.10868-0.43364 0.24848-0.09306 0.13836-0.11704 0.31263-0.066677 0.48978 0.10745 0.37583 0.51183 0.6516 0.90325 0.60276 0.18564-0.020587 0.33962-0.10916 0.43364-0.24896 0.093539-0.13836 0.11704-0.31215 0.066677-0.4893-0.099775-0.3495-0.45666-0.60755-0.81979-0.60755m0.23793 1.4732c-0.41733 0-0.82602-0.29588-0.94019-0.6966-0.060441-0.21209-0.03118-0.42275 0.082507-0.59175 0.11513-0.17044 0.30029-0.27768 0.52286-0.30258 0.44419-0.044046 0.91237 0.25997 1.0352 0.69134 0.060441 0.21305 0.03118 0.42275-0.082986 0.59223-0.11465 0.16996-0.29981 0.27768-0.52238 0.3021-0.031659 0.0033513-0.063319 0.0052664-0.094978 0.0052664" fill="#B8DDFF"/>
<path d="m4.1501 25.581c0.042213 0.14794-0.048449 0.28151-0.20195 0.29827-0.15398 0.017236-0.31228-0.08905-0.35449-0.23651-0.042213-0.14794 0.048449-0.28151 0.20195-0.29827 0.15398-0.017236 0.31276 0.088571 0.35449 0.23651" fill="#B8DDFF"/>
<path d="m12.79 36.787c0.36648 1.2869-0.42165 2.4508-1.76 2.5997-1.3383 0.14842-2.7203-0.77416-3.0868-2.0616-0.366-1.2864 0.42165-2.4503 1.76-2.5997 1.3383-0.14842 2.7203 0.77464 3.0868 2.0616" fill="#005639"/>
<path d="m68.238 11.803 3.7397 55.888c0.32571 4.8662-2.9856 9.2306-7.7666 10.237-5.4531 1.1486-10.769-2.4599-11.702-7.9436l-9.4014-55.221c-1.2338-7.249 3.9651-14.016 11.299-14.707 7.1013-0.66979 13.356 4.6421 13.832 11.746" fill="#FC95A4"/>
<path d="m60.379 61.363c-0.084905-2.2818-0.39574-4.5487-0.92724-6.7692l-7.9696-33.281-3.8697 19.911 4.8962 28.761c0.74736 4.3907 4.3047 7.5764 8.4919 8.0839l-0.62168-16.706z" fill="#DB594A"/>
<path d="m57.285 77.825-5.8685-3.1349 6.5679-17.951 7.759 3.1819c5.3409 2.1894 7.6904 8.4478 5.1068 13.601-2.5016 4.9902-8.6358 6.9359-13.565 4.3031" fill="#FC95A4"/>
<path d="m59.385 71.864c-3.035-3.9804-2.5927-9.7931-2.6863-9.9128l-2.6004 5.4067-2.6829 7.3323 5.869 3.1349c4.0323 2.154 8.869 1.24 11.866-1.8949-2.4114-0.083784-7.1949-0.69517-9.765-4.0661" fill="#DB594A"/>
<path d="m39.861 69.061-19.474-15.766c-2.2291-1.8045-2.7534-4.9887-1.2198-7.4103 1.4794-2.3359 4.4342-3.2628 6.9857-2.1899l23.11 9.7117c4.7614 2.0008 6.9521 7.5108 4.8617 12.226-2.4627 5.5532-9.5386 7.2538-14.264 3.4284" fill="#FFDAAB"/>
<path d="m49.263 53.406-0.84473-0.35524-0.2408 0.59606c-3.0801 7.6277-12.262 7.3581-25.722-0.66452l-1.3724 0.87518 18.778 15.203c4.7254 3.8258 11.801 2.1252 14.264-3.4279v-4.788e-4c2.091-4.7149-0.10026-10.225-4.8617-12.226" fill="#E99462"/>
<path d="m42.261 72.067s-1.2136-0.53191-0.65621-1.781c1.0112-0.045004 4.0965-5.7715 5.0377-7.8805 1.075-2.4063 3.1655-7.9963 2.3606-9.1492 0.18516-0.41461 0.50847-0.59941 0.81403-0.67601 0.36456-0.091923 0.75167-0.020108 1.0836 0.15656l6.8687 3.6659c0.6447 0.34423 1.1138 0.9513 1.2587 1.6666 0.30652 1.51 0.38135 4.474-1.6832 9.097-2.0622 4.6182-4.4669 6.7913-5.9016 7.7483-0.70322 0.46919-1.6012 0.53191-2.3735 0.1872l-6.8087-3.0349z" fill="#FC95A4"/>
<path d="m52.86 68.576c1.0438-1.2338 2.5313-3.4481 2.1768-5.7294-0.90278-5.8088-1.8478 6.4269-8.0684 6.2895-0.38903-0.0086178-0.63127-0.42035-0.40054-0.67793 1.5316-1.7078 5.8311-7.079 5.8896-13.617 0.0033579-0.35381 0.48976-0.49313 0.77566-0.22023 0.66341 0.63293 0.85768 1.4095 1.004 2.2722 0.15014 0.88476 1.1277 1.5177 1.9979 1.0686 0.41397-0.21353 0.34921-1.0092 0.76127-1.4712 0.21394-0.24034 0.67636-0.13597 0.79485 0.17571 0.44851 1.1802 0.98384 3.6544-0.17892 7.4151-1.0064 3.2551-2.8316 4.5832-4.1455 5.1242-0.425 0.17523-0.88503-0.30018-0.60681-0.6291m4.4851-1.4095c2.0641-4.6229 1.9898-7.587 1.6832-9.097-0.14487-0.71527-0.614-1.3223-1.2592-1.6666l-6.8682-3.6654c-0.33194-0.17714-0.71905-0.24896-1.0836-0.15703-0.30556 0.076602-0.62887 0.26141-0.81403 0.67601 0.80492 1.1529-1.2856 6.7429-2.3601 9.1497-0.94163 2.1085-4.027 7.8345-5.0382 7.88-0.5574 1.2486 0.65622 1.7805 0.65622 1.7805l6.8087 3.0354c0.77182 0.34471 1.6703 0.28151 2.3735-0.1872 1.4348-0.95705 3.8394-3.1302 5.9016-7.7483" fill="#DB594A"/>
<path d="m26.506 44.109-2.7059-1.6383-1.1537-5.3622c-0.2101-0.30928-0.49744-0.55776-0.83418-0.7215l-2.5481-0.91157 0.72049 2.4905-5.7131 1.759c-0.35113 0.052185-0.70754 0.052664-1.0587 0.0014363l-4.6261-0.67745-5.3293-1.6987c-0.74688-0.23795-1.5643-0.073251-2.1596 0.43663l-0.50415 0.43137c-0.21922 0.18815-0.1818 0.53669 0.072433 0.6741l2.0564 1.1107-0.27726 2.1339c-0.053246 0.40839 0.012472 0.82443 0.18852 1.1969l3.6029 7.6277c0.35449 0.75022 1.0117 1.3142 1.8079 1.5512l1.9993 0.59558c0.27918 0.083305 0.56987 0.12448 0.86152 0.12161l10.443-0.092401c2.8959 1.9787 6.8596 0.1532 7.2299-3.3303l0.13335-1.2529c0.18996-1.7829-0.66965-3.5156-2.2061-4.4453" fill="#FFDAAB"/>
<path d="m21.348 53.138c0.025424 0.017236 0.051806 0.029205 0.07771 0.045961 0.64422-0.21927 1.2414-0.67266 1.6568-1.3286 0.74208-1.1715 0.66725-2.6088-0.09306-3.5227l-3.0307 4.8173 1.3892-0.011969z" fill="#E99462"/>
<path d="m20.911 47.243c-0.75167-0.039737-1.5307 0.25087-2.1385 0.82491-0.0028781-0.0023939-0.0023984-0.008139-0.0047969-0.010054l-0.23505-0.15225c-0.10265-0.066548-0.34777 0.13405-0.54685 0.4486-0.19907 0.31455-0.27726 0.62335-0.17413 0.69038l0.18852 0.12256c-0.14439 0.32795-0.23121 0.66788-0.26431 1.0049 0.64326-0.14937 1.2059-0.42897 1.6142-0.90055 0.5809-0.67027 1.0966-1.3539 1.5609-2.0285" fill="#E99462"/>
<path d="m23.8 42.471-0.10026-0.46536c-0.48353 1.2276-1.3777 3.1871-2.7884 5.2377-0.46482 0.67458-0.98001 1.3583-1.5609 2.0285-0.4087 0.4711-0.97089 0.7507-1.6142 0.90055-1.747 0.40647-4.1066-0.17475-5.7213-0.68655-1.5998-0.50653-5.3692-3.743-7.8477-5.9807-0.54157-0.48834-0.26671-1.3851 0.45523-1.4913l3.0897-0.45435-7.1963-2.8041c0.035977 0.055058 0.085864 0.10293 0.14966 0.13693l2.0569 1.1112-0.27774 2.1339c-0.052766 0.40839 0.012472 0.82395 0.189 1.1969l3.6029 7.6272c0.35401 0.75022 1.0112 1.3142 1.8075 1.5517l1.9993 0.59558c0.27918 0.083305 0.56987 0.12448 0.86152 0.12175l9.0537-0.080094 3.0312-4.8178 2.894-4.6-2.0838-1.2615z" fill="#E99462"/>
<path d="m21.195 54.434c0.8572 0.38253 2.6642-1.792 4.0356-4.8561 1.3714-3.0641 1.7888-5.8582 0.93156-6.2402l-2.3006-1.0255c-0.058522 0.063197-0.056603 0.061282-0.11513 0.124 0.42836 0.88093-0.04557 3.3092-1.2218 5.9352-1.1752 2.6265-2.6709 4.599-3.614 4.8681-0.0081547 0.085699-0.007675 0.083305-0.01583 0.16852l2.3001 1.026z" fill="#1C417D"/>
<path d="m21.809 54.708c0.8572 0.38205 2.6642-1.792 4.0356-4.8566 1.3714-3.0636 1.7888-5.8577 0.93156-6.2397l-2.7059-1.2065c0.8572 0.38205 0.44035 3.1761-0.93156 6.2402-1.3714 3.0641-3.1784 5.2382-4.0356 4.8556l2.7059 1.207z" fill="#ED985A"/>
</g>
<g transform="translate(152 108)">
<mask id="u" fill="white">
<use xlink:href="#j"/>
</mask>
<path d="m2.2232 12.187-0.078467-0.037304c-1.3788-0.65736-1.9971-2.3814-1.3812-3.8519 0.61592-1.4705 2.233-2.1294 3.6118-1.473l0.078467 0.037304c1.3788 0.65736 1.9971 2.3814 1.3812 3.8519-0.61639 1.4705-2.233 2.1299-3.6118 1.473" fill="#1C417D" mask="url(#u)"/>
</g>
<path d="m154.83 119.73-0.18593-0.086549c-1.4374-0.66953-2.0461-2.3952-1.3608-3.8538l0.046716-0.09919c0.68578-1.4587 2.4063-2.0986 3.8437-1.4295l0.18593 0.087035c1.437 0.66953 2.0461 2.3942 1.3603 3.8533l-0.046248 0.09919c-0.68578 1.4592-2.4068 2.099-3.8437 1.4295" fill="#0080F6"/>
<g transform="translate(153 113)">
<mask id="t" fill="white">
<use xlink:href="#i"/>
</mask>
<path d="m5.2503 1.0407s-2.1713 6.5168-2.1822 6.5436c-0.010355 0.027228-6.2032-3.0992-6.2032-3.0992l1.8138-4.958 1.4715-0.69335 3.4057 0.72836 1.6944 1.4786z" fill="#1C417D" mask="url(#t)"/>
</g>
<path d="m154.77 119.73-0.084027-0.039255c-1.4742-0.68618-2.0987-2.4553-1.3952-3.9506 0.70341-1.4959 2.4685-2.1517 3.9427-1.466l0.083524 0.039255c1.4742 0.68618 2.0992 2.4553 1.3957 3.9506-0.70341 1.4964-2.4685 2.1522-3.9427 1.466" fill="#0080F6"/>
<g transform="translate(153 113)">
<mask id="s" fill="white">
<use xlink:href="#h"/>
</mask>
<path d="m6.4885 0.54455c-0.098114 0.024076-7.0969 4.584-7.0969 4.584s-1.7283-1.8921-1.7394-1.9669c-0.011533-0.074846 2.5183-4.9613 2.5183-4.9613l6.3181 2.3443z" fill="#1C417D" mask="url(#s)"/>
</g>
<g transform="translate(0 95)">
<path d="m154.8 23.984-0.067453-0.03016c-1.1854-0.53138-1.6877-1.8991-1.1223-3.0562 0.56593-1.1571 1.9853-1.665 3.1707-1.1341l0.067453 0.030159c1.1854 0.53042 1.6877 1.8991 1.1218 3.0562-0.56545 1.1571-1.9848 1.6645-3.1703 1.1341" fill="#DFF0FF"/>
<path d="m155.66 22.169-0.009568-0.0043085c-0.166-0.074202-0.23632-0.26569-0.15739-0.42798 0.079412-0.16181 0.27842-0.23362 0.44442-0.15846l0.009568 0.0038298c0.166 0.07468 0.23632 0.26617 0.15739 0.42846-0.079412 0.16181-0.27842 0.23266-0.44442 0.15846" fill="#1C417D"/>
<path d="m156.72 22.453-1.1797-0.52851c-0.066018-0.029202-0.094243-0.10532-0.062669-0.16995l0.017222-0.034947c0.031573-0.064627 0.11051-0.093351 0.17652-0.063191l1.1797 0.52803c0.066018 0.029681 0.094242 0.1058 0.062669 0.17042l-0.017222 0.034947c-0.031574 0.064627-0.11051 0.092872-0.17652 0.063191" fill="#1C417D"/>
<path d="m155.65 22.167-0.001913-9.575e-4c-0.067931-0.030159-0.097113-0.10867-0.064582-0.17521l0.83144-1.7009c0.03253-0.066542 0.11386-0.095744 0.18179-0.065106l0.001913 4.788e-4c0.068409 0.031117 0.097113 0.10963 0.064582 0.17617l-0.83144 1.7004c-0.03253 0.066542-0.11386 0.095266-0.18179 0.065106" fill="#1C417D"/>
<path d="m156.82 19.778c-0.025833-0.011489-0.052144-0.020106-0.077977-0.030159 1.1496 0.56154 1.6356 1.901 1.0821 3.0332-0.55397 1.1327-1.9394 1.6339-3.1267 1.1494 0.025354 0.011968 0.048795 0.02633 0.07415 0.03734 1.2041 0.53952 2.6383 0.038298 3.2042-1.1188 0.56545-1.1571 0.048317-2.532-1.1558-3.071" fill="#1C417D"/>
<path d="m153.29 20.541c-0.14926 0.3059-0.36597 0.51032-0.48365 0.45766-0.11816-0.052659-0.092329-0.34324 0.056928-0.64819 0.14926-0.3059 0.36597-0.5108 0.48365-0.45766 0.11816 0.052181 0.092328 0.34276-0.056928 0.64819" fill="#0080F6"/>
<polygon points="152.54 20.878 152.81 20.999 153.35 19.893 153.08 19.772" fill="#0080F6"/>
<path d="m153.02 20.421c-0.14926 0.3059-0.36596 0.51032-0.48365 0.45766-0.11768-0.052659-0.092328-0.34324 0.056928-0.64867 0.14926-0.30542 0.36597-0.5108 0.48413-0.45766 0.11768 0.052659 0.09185 0.34276-0.057407 0.64867" fill="#1C417D"/>
<path d="m41.314 179.5v-5.0524c0-0.67356 0.2368-1.3261 0.66831-1.8426l2.5316-3.0289c0.54536-0.65298 1.3519-1.0297 2.202-1.0297h1.8179c0.52288 0 1.0362-0.13931 1.4878-0.40356l6.4654-3.7824c2.1312-1.2471 3.4415-3.532 3.4415-6.0027v-5.9007c0-0.46005 0.37218-0.8325 0.83144-0.8325h16.511c0.45925 0 0.83144 0.37244 0.83144 0.8325v9.2408c0 1.0752 0.21767 2.1389 0.6396 3.128l1.3318 3.1222c0.41428 0.97085 0.62764 2.0164 0.62764 3.072v8.4801h-39.387z" fill="#D9642E"/>
<path d="m56.658 174.15c1.926 0 3.7616-0.81526 5.0542-2.2438l6.1707-6.8223c0.31908-0.3533 0.58746-0.74968 0.79699-1.1767l6.0205-12.284h-13.94c-0.45925 0-0.83191 0.3734-0.83191 0.83298v5.9007c0 2.4707-1.3098 4.7556-3.441 6.0027l-6.4659 3.7824c-0.45112 0.26425-0.96491 0.40356-1.4873 0.40356h-1.8179c-0.85009 0-1.6567 0.37675-2.202 1.0293l-0.16456 0.19723 11.539 0.24415 2.0197 0.041649c0.61712 0.00383 1.1912-0.26808 1.6413-0.75638 0.069844-0.075638 0.18801-0.080425 0.26407-0.010532 0.072715 0.067021 0.079891 0.17856 0.018657 0.25468l-0.017222 0.021542c-0.43198 0.5333-1.1472 0.95457-1.893 0.97803l-2.0336 0.044521-4.0529 0.085691-8.1058 0.17186c-0.084674 0.001436-0.16265-0.019627-0.23489-0.053138l-1.5127 1.8096c-0.3674 0.43947-0.58315 0.97946-0.64247 1.5458h15.318z" fill="#AD330D"/>
<path d="m51.836 170.68 4.0529-0.085691 2.0336-0.044521c0.7458-0.023458 1.461-0.44473 1.893-0.97803l0.017222-0.021542c0.061234-0.076596 0.054058-0.18766-0.018657-0.25516-0.076063-0.069414-0.19422-0.064627-0.26407 0.011011-0.45016 0.48782-1.0242 0.76021-1.6413 0.75638l-2.0197-0.041649-4.0529-0.085691-7.4863-0.15846-0.8544 1.0221c0.072236 0.033032 0.15021 0.054574 0.23489 0.052659l8.1058-0.17138z" fill="#D9642E"/>
<path d="m80.328 182.28h-39.119c-0.52814 0-0.95677-0.42894-0.95677-0.95744v-3.6574c0-0.52851 0.42863-0.95744 0.95677-0.95744h39.119c0.52814 0 0.95677 0.42893 0.95677 0.95744v3.6574c0 0.52851-0.42863 0.95744-0.95677 0.95744" fill="#001828"/>
<path d="m2.6067 36.186 5.3302-2.9494 6.2138 1.2049 5.5632 9.832c0.0066974 0.011489 0.016265 0.021542 0.027746 0.028244l10.994 7.1076 11.692-0.99909 8.3311 15.078-12.55 1.473-4.0701 5.2243-8.8152 4.8777-22.717-40.877z" fill="#D9642E"/>
<path d="m34.139 72.185 4.0706-5.2243 12.549-1.473-8.3311-15.078-8.7105 0.74393-2.944 6.7519c-1.2835 2.9437-4.3136 4.7279-7.5083 4.4205l-6.4769-0.6233 8.5359 15.359 8.8152-4.8772z" fill="#AD330D"/>
<path d="m10.347 34.426c0.63147 1.3586 1.3041 2.6952 1.9834 4.028 0.67453 1.3361 1.3787 2.6555 2.0839 3.9748 0.71232 1.315 1.428 2.6282 2.1719 3.926 0.74102 1.2997 1.4878 2.5966 2.2786 3.869l0.027746 0.044521c0.02966 0.047393 0.079412 0.082819 0.13969 0.092872l1.2218 0.20394c0.052623 0.0081383 0.1062-0.018191 0.12964-0.068457 0.028225-0.060798 0.0014352-0.13261-0.058842-0.16085l-0.99409-0.46101c-0.61903-1.3332-1.2787-2.644-1.9446-3.9518-0.67644-1.3342-1.3806-2.654-2.0886-3.9715-0.71519-1.3136-1.4313-2.6272-2.1771-3.9241-0.72954-1.2806-1.4672-2.5569-2.2427-3.8125l0.0090893-0.40643-0.44155-0.085691-0.12964 0.53234c-0.010046 0.042127-0.0066974 0.088563 0.012916 0.13069l0.018657 0.040213z" fill="#AD330D"/>
<g transform="translate(0 34.251)">
<mask id="r" fill="white">
<use xlink:href="#g"/>
</mask>
<path d="m22.707 43.832-22.587-40.642c-0.25594-0.46292-0.088023-1.0455 0.3741-1.3016l3.198-1.7698c0.4626-0.25564 1.0448-0.087606 1.3007 0.37532l22.587 40.642c0.25546 0.46244 0.088023 1.0455-0.37458 1.3012l-3.198 1.7694c-0.4626 0.25564-1.0443 0.088085-1.3003-0.37436" fill="#001828" mask="url(#r)"/>
</g>
<path d="m111.85 24.417-76.971 25.094c-0.47073 0.15319-0.74628 0.64101-0.63625 1.124l4.2012 18.405c0.11625 0.50888 0.61903 0.83106 1.1299 0.72383l79.896-16.813c8.0852-1.7009 13.206-9.7056 11.366-17.766-1.9351-8.4762-10.724-13.462-18.986-10.768" fill="#1C417D"/>
<path d="m82.848 60.658c-16.479 0.33893-34.712 0.69462-46.108 0.91436l1.705 7.4681c0.11625 0.50888 0.61855 0.83106 1.1295 0.72335l43.273-9.1058z" fill="#001828"/>
<path d="m44.218 67.167-4.361-17.902c-0.062669-0.25755 0.095199-0.51654 0.35161-0.57877 0.25689-0.062712 0.5157 0.094787 0.57837 0.35186 9.568e-4 0.0033511 0.0019136 0.008617 0.0028704 0.012447l3.8654 18.016c0.025833 0.12112-0.051187 0.2408-0.17222 0.26665-0.11912 0.025372-0.23632-0.04883-0.26503-0.16612" fill="#00B3DA"/>
<path d="m58.938 156.54h20.107c0.52575 0 0.95342-0.42558 0.95677-0.95218l0.46812-80.807c0.047583-8.2484-6.6211-14.96-14.864-14.96-8.7358 0-15.588 7.504-14.803 16.21l7.1825 79.637c0.04449 0.49308 0.45782 0.87127 0.95295 0.87127" fill="#1C417D"/>
<path d="m65.774 59.821c-0.055971-4.787e-4 -0.11099-0.0043084-0.16696-0.0043084-8.7363 0-15.589 7.504-14.803 16.211l7.182 79.636c0.04449 0.49308 0.45782 0.87079 0.95247 0.87079h9.8567l-3.021-96.714z" fill="#001828"/>
<path d="m78.092 149.29-18.414 0.078514c-0.26407 9.54e-4 -0.47934-0.21208-0.48031-0.47681-0.001428-0.26425 0.21193-0.47968 0.476-0.48112 0.0038271 0 0.010046 4.79e-4 0.013395 4.79e-4l18.409 0.43037c0.1239 0.002872 0.22197 0.10532 0.21916 0.22931-0.0034101 0.1216-0.10244 0.21878-0.22347 0.21925" fill="#00B3DA"/>
<path d="m50.677 72.458c0.010059 8.1301 6.5152 14.76 14.639 14.92l69.215 1.3591c10.89 0.21351 19.829-8.5696 19.815-19.469-0.014846-11.578-10.073-20.579-21.573-19.304l-68.807 7.6241c-7.5714 0.8392-13.298 7.2474-13.288 14.871" fill="#1C417D"/>
<path d="m145.98 63.613-27.927-12.019-54.091 5.9936c-7.5714 0.8392-13.298 7.2474-13.288 14.871 0.010536 8.1301 6.5156 14.76 14.639 14.92l1.3203 0.025372-0.10812-3.4564 1.2644-5.917c0.84627-3.9605 4.8379-6.4024 8.7463-5.3502l59.516 16.021c4.9915-0.28867 9.4831-2.4654 12.768-5.8347l-2.8387-19.253z" fill="#001828"/>
<path d="m106.29 49.976 25.457 32.883c3.2975 4.2597 8.1398 6.738 13.256 6.7849l5.7119 0.053138c12.323 0.11394 22.034-11.395 20.889-24.755l-0.47886-5.5876c-0.2832-3.3046-2.0499-6.243-4.7183-7.8477l-42.158-25.346c-6.0415-3.6325-13.601-2.0834-18.016 3.6919-4.4624 5.8366-4.4385 14.318 0.056928 20.124" fill="#1C417D"/>
<path d="m171.13 59.354c-0.2832-3.3051-2.0499-6.243-4.7183-7.8477l-25.022-15.043c6.6902 8.741 18.771 29.727 3.618 53.18l5.7115 0.053138c12.323 0.11394 22.034-11.395 20.889-24.755l-0.47886-5.5876z" fill="#001828"/>
<path d="m111.02 56.077 3.5405-0.80186c2.39-0.54096 4.6528-1.54 6.6634-2.9417l3.8075-2.6555s-9.5266 2.1159-16.655 2.9853l2.6431 3.4138z" fill="#001828"/>
<path d="m135.53 102.96 74.104 11.939c1.1113-0.62425 1.914-1.7646 2.0355-3.1418l0.65443-7.4029c0.18514-2.0939-1.2763-3.9758-3.3497-4.3138l-70.414-11.482c-2.4398-0.39782-4.6547 1.4864-4.6547 3.9605v7.8295c0 0.98952 0.3607 1.9048 0.96586 2.6114h0.65778z" fill="#0097B8"/>
<polygon points="229.07 118.03 135.53 102.96 135.53 108.99 154.95 112.1 157.16 120.76 232.83 132.72" fill="#FFDAAB"/>
<g transform="translate(124.44 66.019)">
<mask id="p" fill="white">
<use xlink:href="#f"/>
</mask>
<path d="m98.076 54.606-59.687-5.466 1.3447-7.582-1.8274-0.29441 8.0163-28.818 41.666 2.3141 13.919 36.751-3.6037-0.58069 0.17174 3.6756zm41.008 59.952-33.977-98.826 0.089936 0.0052659c0.17796 0.0095745 0.35688 4.787e-4 0.5334-0.027766l6.7032-1.0795c1.1443-0.18431 1.9848-1.2753 2.0628-2.4324l-0.001435-0.0071809c0.031095-0.13165 0.055014-0.26665 0.064103-0.40643l0.066974-0.99574c0.091851-1.3567-0.92089-2.5358-2.2752-2.6497l-92.453-7.7696c-0.23967-0.020106-0.47025 0.0057447-0.69462 0.050744l-4.8834-0.40548c-2.2417-0.18622-4.2017 1.5008-4.3533 3.7465-0.075107 1.1149 0.60133 2.1442 1.6547 2.5162l13.968 4.938c0.11194 0.039734 0.2258 0.07133 0.34157 0.094308l-6.7405 26.939-3.7783-0.60893-0.95725 5.8715 3.2865 0.52707-17.684 70.672c-0.28895 1.1537 0.58315 2.272 1.7719 2.272h5.2412 4.2543 4.1323c0.82043 0 1.5399-0.54718 1.76-1.338l16.881-60.687 73.092 11.555 18.668 49.289c0.26933 0.71042 0.9496 1.1805 1.7088 1.1805h3.7434 2.3034 3.7434c1.2543 0 2.136-1.2361 1.7279-2.4233z" fill="#E99462" mask="url(#p)"/>
</g>
<path d="m129.74 180.73c-0.28895 1.1537 0.58363 2.272 1.7724 2.272h8.3861c0.82043 0 1.5404-0.5467 1.7605-1.338l28.707-103.2-14.83-0.82436-25.796 103.09z" fill="#FFDAAB"/>
<g transform="translate(215.86 80.99)">
<mask id="o" fill="white">
<use xlink:href="#e"/>
</mask>
<path d="m47.67 99.586-33.977-98.826-13.693-0.76069 38.188 100.83c0.26885 0.71042 0.94912 1.1805 1.7083 1.1805h6.0468c1.2543 0 2.1355-1.2361 1.7275-2.4233" fill="#FFDAAB" mask="url(#o)"/>
</g>
<path d="m239.07 76.807-0.067453 0.99574c-0.093285 1.3902-1.3089 2.4333-2.6967 2.3137l-84.285-7.2526c-0.52383-0.035425-1.0448-0.10388-1.56-0.20585l-6.8094-1.3442c-1.229-0.24223-2.0862-1.3605-2.002-2.6114 0.093764-1.3883 1.306-2.4309 2.6914-2.3146l92.454 7.7696c1.3538 0.11394 2.3666 1.293 2.2752 2.6497" fill="#FFDAAB"/>
<path d="m281.44 2.3262c0.1373 1.171-0.70036 2.2318-1.8705 2.3692-1.1706 0.13739-2.2307-0.70085-2.3675-1.8718-0.1373-1.171 0.69988-2.2318 1.8705-2.3692s2.2302 0.70085 2.3675 1.8718" fill="#E99462"/>
<path d="m280.76 2.5436c-0.35783 0.36957-1.007 0.32074-1.45-0.10915-0.44346-0.42989-0.51283-1.0776-0.15452-1.4472 0.35783-0.36909 1.007-0.32074 1.45 0.10963 0.44346 0.42941 0.51235 1.0776 0.15452 1.4467" fill="#FFDAAB"/>
<path d="m273.52 16.934c0.84722 1.743 0.12247 3.8432-1.6193 4.6915-1.7418 0.84782-3.841 0.12255-4.6882-1.6205-0.84722-1.743-0.12247-3.8432 1.6193-4.6915 1.7418-0.84782 3.841-0.12255 4.6882 1.6205" fill="#E99462"/>
<path d="m272.59 17.638c-0.35496 0.76787-1.3892 1.0441-2.3097 0.61707-0.92042-0.42654-1.3787-1.3945-1.0237-2.1619 0.35496-0.76739 1.3892-1.0436 2.3097-0.61707 0.92089 0.42654 1.3792 1.394 1.0237 2.1619" fill="#FFDAAB"/>
<path d="m275.83 8.7889c0.17174 1.4658-0.8764 2.7933-2.3412 2.9647-1.4648 0.17234-2.7914-0.87702-2.9626-2.3424-0.17174-1.4658 0.8764-2.7933 2.3407-2.9652 1.4648-0.17186 2.7914 0.87702 2.9631 2.3429" fill="#E99462"/>
<path d="m274.98 9.061c-0.44777 0.46244-1.2605 0.40117-1.815-0.13691-0.55445-0.5376-0.64104-1.3486-0.19327-1.8105 0.44777-0.46244 1.2605-0.40117 1.815 0.13644 0.55445 0.53808 0.64104 1.3486 0.19327 1.811" fill="#FFDAAB"/>
<path d="m286.61 1.1252c0.081804 0.69798-0.41763 1.3304-1.1156 1.4122-0.69749 0.081861-1.3294-0.41792-1.4112-1.1159-0.081804-0.69845 0.41715-1.3308 1.1151-1.4127 0.69797-0.081861 1.3299 0.41792 1.4117 1.1164" fill="#E99462"/>
<path d="m286.2 1.2547c-0.21336 0.22021-0.60038 0.19101-0.86444-0.065106-0.26407-0.25659-0.30569-0.64292-0.092328-0.86266 0.21336-0.22021 0.60038-0.19149 0.86492 0.064627 0.26407 0.25612 0.30521 0.64292 0.09185 0.86313" fill="#FFDAAB"/>
<path d="m285.37 1.2547c-0.086588-0.070851-0.21432-0.057925-0.2856 0.028723-1.5122 1.8531-2.867 3.8145-4.1122 5.8447l-0.86301-2.8977c-0.04449-0.15032-0.20379-0.23697-0.35305-0.19149-0.15069 0.045-0.23632 0.20298-0.19135 0.35378l0.94721 3.1821c0.0177 0.059361 0.053579 0.10819 0.099504 0.14362-0.46308 0.77218-0.91037 1.5539-1.3443 2.3433-0.94003 1.7315-1.8021 3.5062-2.5804 5.3186l-2.2632-4.4224c-0.072237-0.13979-0.24302-0.1958-0.38271-0.12351-0.13969 0.07133-0.1947 0.24319-0.12342 0.38298l2.479 4.8432c-0.49848 1.2006-0.95964 2.4171-1.3778 3.6493-0.55014 1.6233-1.0285 3.274-1.4261 4.9447l-2.0604-4.0256c-0.071758-0.13979-0.24302-0.19484-0.38271-0.12351s-0.1947 0.24319-0.12294 0.38298l2.3704 4.6316c-0.32578 1.4792-0.59081 2.9733-0.77881 4.4794-0.46451 3.5042-0.47695 7.0688-0.1239 10.595 4.79e-4 0.0023937 9.57e-4 0.0071809 0.001435 0.0095745 0.036836 0.31213 0.31908 0.53521 0.63099 0.49835 0.31191-0.036383 0.53484-0.31931 0.498-0.63095l-9.57e-4 -0.0095745c-0.4028-3.4272-0.45399-6.9084-0.057885-10.351 0.093286-0.87175 0.21193-1.7406 0.35353-2.6062l3.8874-0.96941c0.1526-0.038298 0.24541-0.19245 0.20762-0.34468-0.03827-0.15223-0.19183-0.24558-0.34492-0.20777l-3.6415 0.90861c0.41524-2.3462 0.99648-4.6656 1.7231-6.9395 0.24206-0.75638 0.50231-1.5075 0.77594-2.2529 0.017222-0.0014362 0.034444-0.0023936 0.052144-0.0067021l3.9591-0.9876c0.1526-0.038298 0.24541-0.19245 0.20714-0.34468-0.037792-0.15223-0.19135-0.24511-0.34444-0.20729l-3.6343 0.90622c0.8721-2.295 1.8844-4.5392 3.0196-6.7198 0.18705-0.35521 0.37792-0.70899 0.57072-1.0613l3.0114 0.29681c0.009089 9.5744e-4 0.018657 0.0014362 0.028224 0.0014362 0.14447 0 0.2679-0.11011 0.28225-0.25659 0.015786-0.15606-0.098548-0.29585-0.25498-0.31117l-2.7646-0.27239c1.4026-2.5095 2.9626-4.9404 4.7351-7.1909l0.006698-0.0081383c0.068409-0.086649 0.054536-0.21255-0.031095-0.28245" fill="#AD330D"/>
<path d="m286.88 9.0984c0.1373 1.1714-0.70036 2.2323-1.8705 2.3692-1.1706 0.13739-2.2307-0.70085-2.3675-1.8718-0.1373-1.171 0.69988-2.2318 1.8705-2.3692s2.2302 0.70085 2.3675 1.8718" fill="#E99462"/>
<path d="m286.21 9.3163c-0.35783 0.36909-1.007 0.32026-1.45-0.10963-0.44346-0.42989-0.51235-1.0771-0.15452-1.4472 0.35783-0.36909 1.007-0.32026 1.45 0.10963 0.44346 0.42941 0.51235 1.0776 0.15452 1.4472" fill="#FFDAAB"/>
<path d="m284.95 15.895c0.15404 1.316-0.78695 2.5075-2.102 2.6622-1.3151 0.15415-2.5063-0.7875-2.6603-2.1035-0.15404-1.316 0.78695-2.508 2.102-2.6626 1.3151-0.15415 2.5063 0.78798 2.6603 2.104" fill="#E99462"/>
<path d="m284.19 16.14c-0.40232 0.41457-1.1319 0.36-1.6299-0.12303-0.49752-0.48303-0.5755-1.2112-0.17365-1.6262 0.40232-0.41505 1.1319-0.36 1.6299 0.12303 0.498 0.48255 0.5755 1.2112 0.17366 1.6262" fill="#FFDAAB"/>
<path d="m283.1 25.388c0.19996 1.709-1.0223 3.2577-2.7302 3.4578-1.7083 0.20058-3.2549-1.0225-3.4554-2.7321s1.0223-3.2572 2.7302-3.4578c1.7083-0.20011 3.2554 1.023 3.4554 2.7321" fill="#E99462"/>
<path d="m282.11 25.705c-0.5224 0.53904-1.4701 0.46819-2.1169-0.15941-0.6463-0.6276-0.74724-1.5731-0.22532-2.1121 0.5224-0.53904 1.4701-0.46771 2.1169 0.15941 0.6463 0.62712 0.74724 1.5731 0.22532 2.1121" fill="#FFDAAB"/>
<path d="m283.92 57.366-3.8687-2.7163c-0.4315-0.30303-0.6884-0.79707-0.6884-1.3241v-14.99h-0.001435c-0.016265-0.35665-2.8077-0.6458-6.2511-0.6458-3.4425 0-6.2343 0.28915-6.2506 0.6458h-0.001435v14.99c0 0.52707-0.25689 1.0211-0.6884 1.3241l-3.8687 2.7163c-0.1904 0.13356-0.30378 0.35186-0.30378 0.585v25.117c0 4.3492 3.5233 7.8754 7.8695 7.8754h6.4874c4.3466 0 7.8695-3.5263 7.8695-7.8754v-25.117c0-0.23314-0.11338-0.45143-0.30378-0.585" fill="#FAD1C5"/>
<path d="m273.11 57.172c5.0403 0 9.3395 0.23553 11.09 0.60127-0.042098-0.16324-0.14017-0.30878-0.28081-0.40787l-3.8687-2.7163c-0.18322-0.12782-0.32626-0.29585-0.44012-0.48064-1.4036-0.15606-3.5008-0.25037-6.5008-0.25037-2.9086 0-5.0278 0.088564-6.4908 0.23553-0.11481 0.19149-0.26216 0.36383-0.44968 0.49548l-3.8692 2.7163c-0.14064 0.099095-0.23872 0.24463-0.28033 0.40787 1.7495-0.36574 6.0487-0.60127 11.09-0.60127" fill="#FFE8EB"/>
<path d="m269.23 82.627-0.064583-24.984c-4.78e-4 -0.24128 0.089459-0.47441 0.25211-0.6525l2.8493-3.1189 0.035879-16.176c-3.0626 0.040691-5.4316 0.31069-5.4464 0.63957h-0.001435v14.989c0 0.52755-0.25689 1.0216-0.6884 1.3246l-3.8687 2.7158c-0.19088 0.13404-0.30378 0.35234-0.30378 0.585v25.117c0 4.3492 3.5228 7.875 7.8695 7.875h2.7445c-2.1532-2.2246-3.3693-5.2032-3.3779-8.3149" fill="#FC95A4"/>
<path d="m300.1 89.338c-0.059799-0.061276-0.11386-0.12878-0.16409-0.19867-0.1349-0.19005-0.23345-0.40691-0.28034-0.64388-0.012438-0.065106-0.01483-0.13261-0.020092-0.20011-0.003349-0.042606-0.012916-0.083776-0.012916-0.12734v-0.77888-0.20011-0.79851-0.10819-0.20011-0.33798c0-0.12351 0.015308-0.24319 0.040663-0.35952 0.010046-0.045 0.027268-0.08617 0.040184-0.12925 0.21049-0.68744 0.84196-1.1906 1.5973-1.1906h20.099 4.78e-4 0.1306c0.13586 0 0.24637-0.11011 0.24637-0.24606v-0.18957c0-0.13596-0.11051-0.24606-0.24637-0.24606h-16.516-3.7142-18.69c-1.3012 0-2.3599 1.0589-2.3599 2.3615v2.4238c0 1.3016 1.0587 2.3611 2.3599 2.3611h18.689 0.001435 4.79e-4 20.23c0.13586 0 0.24637-0.11011 0.24637-0.24606v-0.18957c0-0.13596-0.11051-0.24654-0.24637-0.24654h-0.1306-20.099c-0.47169 0-0.8965-0.1958-1.2012-0.50936" fill="#64CC75"/>
<path d="m293.73 88.201v-2.441c0-0.64484 0.25976-1.2294 0.67835-1.6583h-11.848c-1.1601 0-2.1178 0.84399-2.3082 1.9513v2.114c0 1.3021 1.0587 2.3615 2.3594 2.3615h13.01c-1.0783-0.22404-1.8915-1.1824-1.8915-2.3275" fill="#009F70"/>
<path d="m321.4 84.065h-20.099c-0.75537 0-1.3868 0.50314-1.5973 1.1901-0.013394 0.043564-0.030138 0.084734-0.040184 0.12973-0.025355 0.11633-0.040663 0.23601-0.040663 0.35952v0.33798 0.20011 0.10771 0.79851 0.20011 0.77888c0 0.044042 0.009568 0.085212 0.012917 0.12782 0.005262 0.0675 0.007654 0.135 0.020092 0.20011 0.046882 0.23697 0.14495 0.45383 0.28033 0.64388 0.049753 0.069893 0.10381 0.13739 0.16409 0.19867 0.30473 0.31356 0.72954 0.50936 1.2012 0.50936h20.099v-5.7825z" fill="#EFF7FF"/>
<path d="m301.3 84.065c-0.75537 0-1.3868 0.50314-1.5973 1.1901-0.006698 0.021064-0.012438 0.042606-0.019614 0.06367-0.035879 0.13644-0.061234 0.27766-0.061234 0.42558v0.33798 0.20011 0.10771c0-0.036862 0.008611-0.071329 0.011003-0.10771l21.007-0.053138c0.025833 0 0.046882-0.020585 0.046882-0.046915 4.78e-4 -0.025851-0.021049-0.047393-0.046882-0.047393l-20.987-0.052659c0.043534-0.23505 0.1349-0.45335 0.26598-0.6434l19.739-0.053138c0.025833 0 0.046882-0.021064 0.04736-0.046915 0-0.02633-0.021049-0.046915-0.04736-0.046915l-19.574-0.053138c0.30569-0.32362 0.73576-0.52755 1.2161-0.52755h20.099v-0.64627h-20.099z" fill="#ACEDFB"/>
<path d="m320.98 87.241-21.354-0.052659v0.20011l21.354-0.053138c0.025833 0 0.046882-0.021064 0.046882-0.046915 0-0.02633-0.021049-0.047393-0.046882-0.047393" fill="#ACEDFB"/>
<path d="m320.63 89.191-20.695-0.052181c0.050231 0.069893 0.10381 0.13739 0.16409 0.19867l20.53-0.052181c0.025833 0 0.046882-0.021064 0.046882-0.046915 0-0.025851-0.021049-0.047393-0.046882-0.047393" fill="#ACEDFB"/>
<path d="m318.8 88.395c0-0.025851-0.020571-0.047393-0.046882-0.047393l-19.112-0.052659c0.004784 0.0675 0.007176 0.135 0.020092 0.20011l19.092-0.052659c0.025833 0 0.046882-0.021064 0.046882-0.047393" fill="#ACEDFB"/>
<path d="m296.74 81.871c-0.075585-0.077553-0.14352-0.16229-0.20666-0.25037-0.17174-0.2408-0.2966-0.51702-0.35592-0.81766-0.015787-0.081861-0.018657-0.16755-0.025355-0.25276-0.004305-0.054096-0.016265-0.10628-0.016265-0.16229v-0.98808-0.25276-1.0135-0.81909c0-1.1757 0.95295-2.1294 2.1279-2.1294h17.229 0.166c0.1727 0 0.31239-0.13979 0.31239-0.31213v-0.24032c0-0.17234-0.13969-0.31213-0.31239-0.31213h-12.685-18.139c-1.65 0-2.9928 1.3433-2.9928 2.9944v3.0729c0 1.6516 1.3428 2.9949 2.9928 2.9949h18.139 12.685c0.1727 0 0.31239-0.13979 0.31239-0.31213v-0.24032c0-0.17234-0.13969-0.31213-0.31239-0.31213h-0.166-17.228c-0.59846 0-1.1371-0.24894-1.5241-0.64723" fill="#D9642E"/>
<path d="m315.5 75.185h-17.229c-1.1749 0-2.1279 0.95361-2.1279 2.1294v0.81909 1.013 0.25324 0.98808c0 0.055532 0.011959 0.10819 0.016265 0.16229 0.006697 0.085212 0.009567 0.17042 0.025354 0.25229 0.059799 0.30112 0.18418 0.57686 0.35592 0.81766 0.063147 0.088563 0.13156 0.1733 0.20666 0.25085 0.38702 0.3983 0.92568 0.64675 1.5241 0.64675h17.228v-7.3326z" fill="#EFF7FF"/>
<path d="m314.96 79.213-18.819-0.066542v0.25324l18.819-0.067021c0.03253 0 0.05932-0.026808 0.059798-0.059361 0-0.033032-0.026789-0.05984-0.059798-0.060319" fill="#ACEDFB"/>
<path d="m314.52 81.686-17.983-0.066064c0.063147 0.088563 0.13156 0.1733 0.20666 0.25085l17.776-0.065106c0.032531 0 0.05932-0.026808 0.059799-0.05984 0-0.032553-0.02679-0.05984-0.059799-0.05984" fill="#ACEDFB"/>
<path d="m312.19 80.677c0-0.033032-0.026311-0.05984-0.059798-0.060319l-15.976-0.066542c0.006697 0.085212 0.009568 0.1709 0.025833 0.25276l15.95-0.066542c0.033008 0 0.059798-0.026808 0.059798-0.059361" fill="#ACEDFB"/>
<path d="m298.27 75.185c-1.1754 0-2.1279 0.95361-2.1279 2.1294v0.81909c0-0.046915 0.010525-0.090957 0.013873-0.13739l13.596-0.066542c0.03253 0 0.05932-0.02633 0.05932-0.059361 4.78e-4 -0.033032-0.026312-0.05984-0.05932-0.060319l-13.57-0.065585c0.055493-0.2992 0.17126-0.5759 0.33726-0.81718l16.771-0.067021c0.033008-4.787e-4 0.059798-0.026808 0.059798-0.05984 0-0.032553-0.026311-0.05984-0.059798-0.05984l-16.563-0.066064c0.38749-0.41074 0.93381-0.67021 1.5428-0.67021h17.229v-0.81909h-17.229z" fill="#ACEDFB"/>
<path d="m294.15 80.431v-3.0954c0-0.81766 0.32817-1.5592 0.85775-2.1025h-10.236c-1.461 0-2.6737 1.0532-2.9272 2.442v2.7129c0 1.6511 1.3424 2.9949 2.9923 2.9949h11.71c-1.3672-0.28532-2.3972-1.5003-2.3972-2.9518" fill="#AD330D"/>
<path d="m303.1 68.366c-0.85392 0-1.5457 0.69223-1.5457 1.5463v2.2328c0 0.85452 0.69223 1.5472 1.5457 1.5472h8.2359v-5.3263h-8.2359z" fill="#EFF7FF"/>
<path d="m311.33 68.961v-0.59457h-8.2359c-0.85344 0-1.5457 0.69223-1.5457 1.5463v0.59505c0-0.033989 0.008132-0.066064 0.010046-0.10005l9.0721-0.047872c0.02392 0 0.043055-0.019149 0.043055-0.043085 4.79e-4 -0.024415-0.019135-0.044042-0.043055-0.044042l-9.0535-0.047393c0.040184-0.21734 0.12438-0.41888 0.24541-0.59457l7.9034-0.047872c0.023919 0 0.043055-0.019628 0.043055-0.043085 4.78e-4 -0.024415-0.019136-0.044042-0.043055-0.044042l-7.7532-0.046915c0.28177-0.29872 0.67835-0.48782 1.1213-0.48782h8.2359z" fill="#ACEDFB"/>
<path d="m310.94 71.378c0.023441 0 0.043055-0.019628 0.043055-0.043564s-0.019136-0.043564-0.043055-0.043564l-9.3907-0.047872v0.18335l9.3907-0.048351z" fill="#ACEDFB"/>
<path d="m302.48 73.56c-0.1837-0.081383-0.34922-0.19675-0.48748-0.33893l8.6344-0.046915c0.023441 0 0.043055-0.019149 0.043055-0.043085 0-0.023936-0.019136-0.043085-0.043055-0.043564l-8.7832-0.047393c-0.12486-0.17521-0.21575-0.3758-0.25929-0.59505l7.3083-0.047393c0.023919-4.787e-4 0.043055-0.019628 0.043055-0.043564 0-0.023457-0.019136-0.043085-0.043055-0.043085l-7.3265-0.047872c-0.002871-0.039734-0.01196-0.078032-0.01196-0.11872 0 0.63335 0.38127 1.1757 0.92568 1.4156" fill="#ACEDFB"/>
<path d="m303.1 68.366h8.2359 0.12055c0.12534 0 0.22676-0.10197 0.22676-0.22739v-0.17425c0-0.12542-0.10142-0.22644-0.22676-0.22644h-1.2218-23.838c-1.1988 0-2.1738 0.97563-2.1738 2.1748v2.2323c0 1.1992 0.97495 2.1753 2.1738 2.1753h16.704 7.1347 1.2218c0.12534 0 0.22676-0.10149 0.22676-0.22691v-0.17425c0-0.12542-0.10142-0.22691-0.22676-0.22691h-0.12055-8.2359c-0.10812 0-0.21336-0.011489-0.31526-0.032553-0.013873-0.0033511-0.026311-0.0095745-0.040184-0.012926-0.088024-0.021064-0.17413-0.045957-0.25546-0.081383-0.003349-0.0014362-0.006219-0.0033511-0.009089-0.0047872-0.54488-0.23984-0.92568-0.78223-0.92568-1.4156v-0.71808-0.18335-0.73579-0.59553c0-0.85404 0.69175-1.5463 1.5457-1.5463" fill="#46CFED"/>
<path d="m296.11 72.176v-2.2481c0-0.59409 0.23919-1.1327 0.62477-1.5276h-10.39c-1.0687 0-1.9509 0.77744-2.1264 1.7966v1.9479c0 1.1992 0.97495 2.1753 2.1738 2.1753h11.46c-0.99361-0.20681-1.7423-1.0896-1.7423-2.1442" fill="#0068C9"/>
<path d="m254.16 55.014c1.4591 1.2021 2.1231 3.1356 2.1676 5.0031 0.01483 0.23601-0.01196 0.46771-0.016265 0.70276l-0.016266 0.35186-0.049273 0.34612c-0.034444 0.23026-0.062669 0.4634-0.10429 0.69175l-0.166 0.675-0.083718 0.33798-0.1129 0.32553-0.22819 0.65106-0.38797 1.1293c-0.38558 1.5099-0.40711 3.115-0.033487 4.6972 0.35401 1.5822 1.0438 3.1418 1.915 4.59l0.008133 0.014362c0.063625 0.10532 0.02966 0.24223-0.076064 0.30542-0.085153 0.051702-0.19088 0.038776-0.26168-0.023457-0.68314-0.59888-1.2352-1.2973-1.7356-2.0489-0.48652-0.75542-0.9209-1.5645-1.2094-2.4391-0.084196-0.21399-0.15069-0.43468-0.20762-0.6592-0.057406-0.22404-0.12869-0.44569-0.17413-0.67404-0.071758-0.46053-0.16409-0.92058-0.17174-1.3921-0.08898-0.94069 0.055014-1.89 0.25594-2.8149 0.13299-0.4433 0.28895-0.92393 0.42959-1.3304 0.12821-0.38154 0.29995-0.75542 0.39706-1.1427 0.24924-0.76691 0.38797-1.5487 0.47408-2.3366 0.15165-1.5649-0.11194-3.2132-0.92616-4.6465l-0.019135-0.033989c-0.060277-0.10628-0.022963-0.2408 0.083239-0.30112 0.081326-0.046915 0.18035-0.034947 0.24924 0.021542" fill="#DFF0FF"/>
<path d="m251.45 71.752c-0.7415-0.45718-1.284-1.1125-1.7155-1.8464-0.4205-0.73771-0.69605-1.574-0.77355-2.4324-0.06219-0.42415-0.05645-0.8593-0.025355-1.2844 0.024398-0.21255 0.043533-0.42558 0.07415-0.63622 0.035401-0.20968 0.10094-0.41314 0.15021-0.61851 0.087544-0.41409 0.28081-0.7942 0.44394-1.1743 0.18179-0.3734 0.42194-0.71617 0.65348-1.0498 0.076063-0.10867 0.2258-0.13596 0.33535-0.060319 0.077499 0.054574 0.11338 0.14601 0.10046 0.23409l-0.005262 0.035904c-0.059799 0.39399-0.16791 0.75829-0.23106 1.1293-0.046882 0.37484-0.13395 0.7334-0.14543 1.1006-0.086588 0.72574-0.034922 1.4405 0.052145 2.1413 0.10764 0.69989 0.29038 1.3859 0.53866 2.0666 0.23345 0.68553 0.55732 1.362 0.88358 2.0532l0.013395 0.028723c0.057885 0.12207 0.005262 0.26761-0.11673 0.32505-0.07702 0.036862-0.16456 0.028245-0.2325-0.012447" fill="#DFF0FF"/>
<path d="m257.27 67.835c0.71949-0.55053 1.3371-1.2677 1.7447-2.0437 0.42289-0.77409 0.64295-1.6229 0.70466-2.4817 0.046881-0.8617-0.039707-1.7397-0.26503-2.6014-0.21432-0.86266-0.51618-1.7253-0.91037-2.53-0.37362-0.82005-0.86253-1.5865-1.3758-2.4128-0.49848-0.82771-1.0434-1.7435-1.3337-2.7661-0.31669-1.0135-0.38845-2.0676-0.3387-3.0724 0.070323-1.0082 0.23919-1.9857 0.51857-2.9293 0.034923-0.11872 0.1593-0.1867 0.27842-0.15175 0.096634 0.028723 0.1593 0.11729 0.16026 0.21351 0.015787 1.9235 0.087545 3.8346 0.77355 5.4464 0.34492 0.80473 0.81182 1.552 1.3668 2.3352 0.54058 0.78798 1.0979 1.6482 1.55 2.5746 0.43198 0.93829 0.7635 1.9101 0.97208 2.9293 0.18561 1.0192 0.26646 2.0934 0.07128 3.1486-0.17366 1.0546-0.61234 2.0724-1.2605 2.9049-0.664 0.8234-1.484 1.4802-2.4666 1.8378-0.11529 0.042128-0.24254-0.017234-0.28464-0.13261-0.033966-0.093351-0.001436-0.19484 0.073671-0.25181l0.021528-0.016755z" fill="#DFF0FF"/>
<path d="m264.1 74.977c0-1.3375-1.7944-1.7837-4.4662-1.9321-1.3357-0.074202-3.9711-0.074202-3.686-0.073723-0.35401 0.5467-0.29277 1.002-0.16983 1.2978 4.3815 0.0019148 7.8508 0.05984 7.8508 1.5132 0 0.051223-0.014829 0.096702-0.02344 0.1441v0.048351c0.31526-0.26042 0.49465-0.58452 0.49465-0.99766" fill="#DFF0FF"/>
<path d="m246.14 75.399c-0.01196-0.03351-0.025833-0.067021-0.034444-0.10197 0.008611 0.034947 0.022963 0.067978 0.034444 0.10197" fill="#A3F1D9"/>
<path d="m246.29 75.691c-0.025354-0.035904-0.047838-0.073244-0.068887-0.11106 0.021049 0.037819 0.043533 0.075159 0.068887 0.11106" fill="#A3F1D9"/>
<path d="m246.82 75.753v-4.787e-4h0.020092c0.051188-1.4826 3.7855-1.4845 8.3904-1.4845 0.18322 0 0.3631 4.787e-4 0.54393 4.787e-4 -0.12295-0.29537-0.18418-0.75064 0.16983-1.2978h-0.86492c-4.98 0-9.0171 0-9.0171 2.0063 0 0.11346 0.016743 0.21878 0.042098 0.31979 0.008611 0.034947 0.022484 0.067978 0.034443 0.10197 0.022006 0.062234 0.047839 0.12303 0.079891 0.18048 0.021049 0.037819 0.043533 0.075159 0.068888 0.11106 0.01483 0.020585 0.026789 0.042606 0.043055 0.062712h0.48939z" fill="#B8DDFF"/>
<path d="m243.93 82.639v-4.1271c0-0.35904 0.29182-0.65106 0.65061-0.65106h2.2427v6.9568h-0.71614c-1.2003 0-2.1771-0.97755-2.1771-2.1787m19.699-6.8567c0-1.5137-3.7587-1.5137-8.3952-1.5137-4.605 0-8.3392 0.0019148-8.3904 1.484h-0.020092v4.787e-4h-2.2427c-1.5198 0-2.7565 1.2375-2.7565 2.7589v4.1271c0 2.3634 1.9212 4.286 4.283 4.286h0.78455c0.37266 2.3031 2.3632 4.0634 4.77 4.0634h7.1055c2.6723 0 4.8384-2.1677 4.8384-4.8418v-10.22c0.008132-0.047872 0.023441-0.093351 0.023441-0.14457" fill="#0097B8"/>
<path d="m256.32 90.897c-1.272-0.74537-2.059-2.1049-2.0714-3.5804l-0.099026-11.546c-0.005262-0.65681 0.42098-1.2394 1.0481-1.4323l0.2258-0.068936c-0.06506 0-0.12869-4.788e-4 -0.19422-4.788e-4 -4.605 0-8.3392 0.0019149-8.3904 1.484h-0.020093v4.787e-4h-0.50231l-1.3084 2.1078h1.8107v6.9568h-0.71614c-0.75154 0-1.4151-0.38346-1.8064-0.96462-0.061233 0.13644-0.13251 0.25995-0.21575 0.36622-0.066018-0.11489-0.12582-0.23314-0.17318-0.35569-0.089459-0.20681-0.1483-0.4251-0.17892-0.64627-0.035879-0.22883-0.025354-0.42319-0.026311-0.70372 0.009568-1.0498 0.007654-2.1002-0.034922-3.1505l-0.01483-0.39351-0.007655-0.1934c0.001436-0.04883-0.006219-0.098617-4.78e-4 -0.14745 0.011003-0.19675 0.067931-0.39399 0.17078-0.57159 0.2014-0.36143 0.58602-0.6276 1.0448-0.69941l0.006697-9.574e-4c0.090415-0.013883 0.16456-0.087127 0.17652-0.18287 0.01483-0.11585-0.067453-0.22165-0.18322-0.23601-0.59464-0.075159-1.2433 0.19628-1.6394 0.70324-0.2014 0.25037-0.33152 0.5601-0.39084 0.88276-0.0177 0.080904-0.019613 0.16324-0.028703 0.24511l-0.009089 0.20058-0.01483 0.39351c-0.042576 1.0503-0.04449 2.1006-0.034444 3.1505-0.001913 0.24367 0.011481 0.57734 0.074628 0.86553 0.058364 0.29585 0.15548 0.58404 0.28942 0.85212 0.077977 0.15175 0.16887 0.29537 0.26694 0.43372-0.41189 0.13596-0.73767 0.14218-0.9917 0.088564 0.73767 1.2949 2.1279 2.1715 3.7209 2.1715h0.78456c0.37266 2.3031 2.3632 4.0634 4.77 4.0634h4.8197l-0.15691-0.091914z" fill="#00547A"/>
<path d="m327.85 180-39.404-84.194c20.991-0.099574 36.765-0.52516 36.765-1.035v-4.0691c0-0.58404-20.681-1.4917-46.193-1.4917-25.511 0-46.193 0.90766-46.193 1.4917v4.0691c0 0.50218 15.31 0.92297 35.834 1.0302l-39.182 83.72c-0.37506 0.80138-0.030138 1.755 0.77068 2.1303 0.80082 0.37484 1.7538 0.03016 2.1288-0.77122l39.701-84.83c0.035401-0.076596 0.058842-0.15558 0.081804-0.23457 1.7911 0.0062234 3.6152 0.010053 5.467 0.011489-0.054058 0.15319-0.08898 0.31596-0.08898 0.48734v84.457c0 0.81861 0.66304 1.4821 1.4806 1.4821 0.81804 0 1.4811-0.66351 1.4811-1.4821v-84.457c0-0.17138-0.034922-0.33415-0.08898-0.48734 1.5859-9.574e-4 3.1516-0.0038297 4.6935-0.008617-0.004784 0.23792 0.037314 0.48016 0.14495 0.71042l39.701 84.83c0.37506 0.80138 1.328 1.1461 2.1288 0.77122 0.80034-0.37532 1.1457-1.3289 0.77068-2.1303" fill="#0068C9"/>
<path d="m325.21 94.774c0-0.58404-20.682-1.0575-46.194-1.0575-8.3019 0-16.091 0.050266-22.824 0.13787l2.5024-4.4478c-15.322 0.2992-25.872 0.88133-25.872 1.2983v4.0691c0 0.010532 0.009568 0.021542 0.023919 0.032074 0.004306 0.0033511 0.010525 0.0067021 0.015787 0.010053 0.013395 0.0076595 0.030617 0.015319 0.051666 0.023457 0.008611 0.0033511 0.016743 0.0062234 0.02679 0.0095745 0.029181 0.0095744 0.063147 0.01867 0.10333 0.028723 0.005262 9.575e-4 0.008611 0.0023937 0.013873 0.0033511 0.046404 0.010532 0.10142 0.021064 0.16122 0.031596 0.016743 0.0028723 0.035879 0.0057447 0.054057 0.008617 0.046882 0.0076595 0.097591 0.015798 0.15261 0.022979 0.022484 0.0033511 0.045446 0.0067021 0.069366 0.010053 0.064582 0.0086169 0.13395 0.016755 0.20762 0.025851 0.015308 0.0014362 0.028703 0.0028723 0.04449 0.0047872 0.090893 0.010532 0.18944 0.020585 0.29325 0.031117 0.025354 0.0023936 0.052144 0.0047872 0.077977 0.0071808 0.083239 0.0076596 0.16983 0.015798 0.26072 0.022979 0.034444 0.0033511 0.069367 0.0062234 0.10525 0.0090957 0.099504 0.0081383 0.20379 0.016755 0.31191 0.024894 0.022962 0.0019148 0.04449 0.003351 0.067452 0.0047872 0.13634 0.010532 0.27842 0.020106 0.42672 0.030638 0.025355 0.0014362 0.052623 0.0033511 0.078934 0.005266 0.12151 0.0076595 0.24637 0.015798 0.37601 0.023457 0.049274 0.0028723 0.099504 0.0062234 0.14974 0.0090957 0.12294 0.0076596 0.24924 0.014362 0.37888 0.022021 0.041141 0.0023936 0.080848 0.0043085 0.12295 0.0067021 0.17509 0.0095744 0.3564 0.019149 0.54345 0.028245 0.021049 0.0014361 0.043055 0.0023936 0.064582 0.003351 0.16504 0.008617 0.33535 0.016276 0.50996 0.024894 0.055493 0.0023936 0.11194 0.0047872 0.16887 0.0071808 0.15548 0.0076596 0.3143 0.01484 0.47695 0.021542 0.048317 0.0019149 0.096156 0.0043085 0.14495 0.0062234 0.21575 0.0090957 0.43533 0.018191 0.66209 0.027287 0.011003 4.787e-4 0.022484 9.574e-4 0.033965 0.0014361 0.20762 0.0081383 0.42098 0.016277 0.63769 0.024415 0.073671 0.0023936 0.1483 0.005266 0.22341 0.0081383 0.17078 0.0062234 0.34444 0.012447 0.52144 0.01867 0.069366 0.0023936 0.13825 0.0047872 0.20906 0.0071808 0.49226 0.016755 1.0051 0.03351 1.5375 0.049308 0.075106 0.0023936 0.15117 0.0047873 0.22676 0.0071809 0.20953 0.0057446 0.42194 0.011968 0.63721 0.018191 0.065539 0.0019149 0.1306 0.0038297 0.19662 0.0057446 0.26598 0.0071808 0.53579 0.01484 0.81039 0.022021 0.019614 4.787e-4 0.03875 9.574e-4 0.058363 0.0014362 0.29134 0.0081382 0.58937 0.015798 0.89028 0.022979 0.076542 0.0019149 0.15404 0.0038298 0.23106 0.0057446 0.2325 0.0057447 0.46786 0.011489 0.7061 0.017234 0.078933 0.0019149 0.15787 0.0038298 0.23728 0.0052659 0.28847 0.0067021 0.58028 0.013404 0.8764 0.020106 0.025833 4.788e-4 0.051187 9.575e-4 0.077499 0.0019149 0.32626 0.0067021 0.6573 0.013883 0.99265 0.021064 0.075107 0.0014361 0.15213 0.0028723 0.22771 0.0043085 0.25307 0.0052659 0.50852 0.010532 0.76638 0.015319 0.10429 0.0023936 0.20906 0.0038298 0.3143 0.0057447 0.28894 0.0057447 0.58076 0.011489 0.87545 0.016755 0.045925 4.788e-4 0.090894 0.0014362 0.13682 0.0023936 0.36166 0.0067021 0.72715 0.013404 1.0974 0.019149 0.041141 4.787e-4 0.083239 0.0014362 0.12486 0.0019149 0.32052 0.0057446 0.64391 0.011011 0.97065 0.016755 0.087066 9.575e-4 0.17413 0.0019149 0.26168 0.0033511 0.29899 0.0052659 0.60038 0.0095744 0.90463 0.014362 0.080848 0.0014362 0.16074 0.0023936 0.24206 0.0033511 0.37649 0.0057446 0.75681 0.011489 1.141 0.016755 0.010047 0 0.020093 4.787e-4 0.030617 4.787e-4 4.1203 0.056968 8.6612 0.099574 13.491 0.12447l-25.123 53.68 5.1202-3.386 23.422-50.045c0.0354-0.076595 0.058841-0.15511 0.081804-0.23409 1.7911 0.0057446 3.6152 0.0095744 5.467 0.011011-0.054058 0.15319-0.08898 0.31596-0.08898 0.48782v67.108l2.9617-3.2228v-63.885c0-0.17186-0.034922-0.33463-0.088501-0.48782 1.5859-9.575e-4 3.1511-0.0038298 4.6935-0.008617-0.005262 0.2384 0.036836 0.48016 0.14447 0.71042l9.1798 19.615 2.4522-2.3146-8.4349-18.023c20.991-0.099574 36.766-0.52516 36.766-1.035" fill="#1C417D"/>
</g>
</g>
</g>
</svg>
