<svg viewBox="0 0 420 420" xmlns="http://www.w3.org/2000/svg" xmlns:xlink="http://www.w3.org/1999/xlink"><defs><path id="a" d="M0 0h67v143H0z"/><path id="c" d="M0 0h128v143H0z"/><path id="e" d="M0 0h16v14H0z"/><path id="g" d="M0 147h358V0H0z"/></defs><g fill="none" fill-rule="evenodd"><g transform="translate(31 218)"><g transform="translate(19)"><mask id="b" fill="#fff"><use xlink:href="#a"/></mask><path d="M39.773 85.067V0H.474a.474.474 0 0 0-.473.475V143h67V85.067H39.774z" fill="#3CA1FF" mask="url(#b)"/></g><g transform="translate(59)"><mask id="d" fill="#fff"><use xlink:href="#c"/></mask><path d="M127.53 85.067H88.811V.475A.474.474 0 0 0 88.337 0H.004v85.067h27.25V143h100.75V85.541a.474.474 0 0 0-.473-.474" fill="#B8DDFF" mask="url(#d)"/></g><path d="M312.65 147c-2.57 0-4.654-2.194-4.654-4.9v-1.75c0-1.263.227-2.514.667-3.689l.535-1.424c1.487-3.968 5.123-6.58 9.174-6.59l2.257-.006c1.361-.011 2.638-.697 3.447-1.85l1.562-2.23c2.01-2.869 5.195-4.561 8.58-4.56h1.037c4.098 0 7.69 2.882 8.779 7.04.703 2.686 2.666 4.804 5.199 5.61l1.224.388c1.448.46 2.695 1.444 3.521 2.778l3.46 5.585a3.76 3.76 0 0 1 .558 1.978c0 2-1.54 3.62-3.438 3.62H312.65z" fill="#0097B8"/><path d="M329.61 144.4a4.13 4.13 0 0 0-2.254-3.402l-4.323-2.186a6.751 6.751 0 0 1-3.676-6.591 3.317 3.317 0 0 1 3.161-3.04l4.65-.198a7.944 7.944 0 0 0 5.516-2.57l1.67-1.82c1.043-1.137.747-2.776-.297-3.598a10.785 10.785 0 0 0-8.193 4.38l-1.582 2.148a4.378 4.378 0 0 1-3.49 1.783l-2.284.006a10.015 10.015 0 0 0-9.289 6.35l-.54 1.372a9.7 9.7 0 0 0-.675 3.555v1.685a4.716 4.716 0 0 0 4.71 4.721h15.428a2.705 2.705 0 0 0 1.468-2.595" fill="#00547A"/><path d="M326.15 133c-.947 0-1.486 1.247-.916 2.118.982 1.5 2.52 2.382 4.15 2.382 1.414 0 2.682 1.003 3.188 2.523l.274.823c.232.695.811 1.154 1.457 1.154h.28c1.335 0 2.417-1.246 2.417-2.784 0-3.433-2.416-6.216-5.396-6.216h-5.454z" fill="#00547A"/><g transform="translate(337 133)"><mask id="f" fill="#fff"><use xlink:href="#e"/></mask><path d="m5.354 12.719.568-1.448a3.309 3.309 0 0 1 3.079-2.105 3.381 3.381 0 0 0 3.264-2.515l.562-2.106A4.21 4.21 0 0 1 16 1.513a6.326 6.326 0 0 0-1.498-.678l-1.21-.367A7.612 7.612 0 0 1 12.118 0a7.551 7.551 0 0 0-3.647 3.832l-.423.991a3.947 3.947 0 0 1-3.312 2.391l-1.077.087A3.366 3.366 0 0 0 .692 9.749l-.62 2.206A1.883 1.883 0 0 0 .79 14h3.468c.487-.286.879-.73 1.095-1.281" fill="#00547A" mask="url(#f)"/></g><path fill="#0068C9" d="M253.08 95H188v48h83V95z"/><mask id="h" fill="#fff"><use xlink:href="#g"/></mask><path fill="#1C417D" mask="url(#h)" d="M192 143h79v-1h-79zM192 140h79v-1h-79zM192 138h79v-1h-79zM192 136h79v-1h-79zM192 134h79v-1h-79zM192 132h79v-1h-79zM192 129h79v-1h-79zM192 127h79v-1h-79zM192 125h79v-1h-79zM192 122h79v-1h-79zM192 120h79v-1h-79zM192 119h79v-1h-79zM192 116h79v-1h-79zM192 114h79v-1h-79zM192 111h79v-1h-79zM192 109h79v-1h-79zM192 107h79v-1h-79zM192 104h79v-1h-79zM192 102h79v-1h-79zM192 101h79v-1h-79zM192 98h79v-1h-79zM252.83 95H192v1h79v-1z"/><path fill="#1C417D" mask="url(#h)" d="M274 95h-4.83L259 143h4.83z"/><path fill="#0068C9" mask="url(#h)" d="M266.11 143 276 95H273.89L264 143z"/><path fill="#1C417D" mask="url(#h)" d="M331 95h-4.51L317 143h4.51z"/><path fill="#0068C9" mask="url(#h)" d="M323.94 143 333 95h-1.94L322 143z"/><path fill="#B8DDFF" mask="url(#h)" d="M148 86h20V41h-20z"/><path fill="#FAD1C5" mask="url(#h)" d="M297 84h39V44h-39zM255 84h40V44h-40z"/><path fill="#FC95A4" mask="url(#h)" d="M333.38 46H297v2.748l35.76-2.036V84H334V46zM292.74 46H256v4.957l36.74-2.024V84H294V46h-.4z"/><path d="M291.5 62h-.009c-.273 0-.495.184-.495.411v3.178c0 .227.222.411.495.411h.009c.274 0 .496-.184.496-.411V62.41c0-.227-.222-.411-.496-.411M297.5 62h-.008c-.274 0-.496.184-.496.411v3.178c0 .227.222.411.496.411h.008c.274 0 .496-.184.496-.411V62.41c0-.227-.222-.411-.496-.411" fill="#FC95A4" mask="url(#h)"/><path fill="#0068C9" mask="url(#h)" d="M339 85h9V44h-9z"/><path fill="#3CA1FF" mask="url(#h)" d="M338 85h2V44h-2z"/><path fill="#1C417D" mask="url(#h)" d="M336 85h2V44h-2zM294 84h1V46h-1zM295 44v41h1V44h-.34zM335 84h1V46h-1z"/><path d="M291.5 62h-.009c-.273 0-.495.184-.495.411v3.178c0 .227.222.411.495.411h.009c.274 0 .496-.184.496-.411V62.41c0-.227-.222-.411-.496-.411" fill="#0068C9" mask="url(#h)"/><path d="M294.38 83.817H255.182V45.183H294.38v38.634zM254.055 44H254v41h41V44h-40.945zM334.85 83.817h-37.693V45.183h37.693v38.634zM335.235 44h-39.231v41h40V44h-.77z" fill="#0068C9" mask="url(#h)"/><path d="M298.5 62h-.008c-.274 0-.496.184-.496.411v3.178c0 .227.222.411.496.411h.008c.274 0 .496-.184.496-.411V62.41c0-.227-.222-.411-.496-.411" fill="#0068C9" mask="url(#h)"/><path fill="#3CA1FF" mask="url(#h)" d="M169 40v45.189h18.74V95H253V40z"/><path d="M254.92 85.086h93.155V44.317H254.92v40.769zM349.522 40h-96.525v55h96.525a.478.478 0 0 0 .475-.48V40.48a.478.478 0 0 0-.475-.48z" fill="#B8DDFF" mask="url(#h)"/><path fill="#FC95A4" mask="url(#h)" d="M255 85h82V74h-82z"/><path fill="#1C417D" mask="url(#h)" d="M339 85h9V74h-9z"/><path fill="#0068C9" mask="url(#h)" d="M338 85h2V74h-2z"/><path fill="#001828" mask="url(#h)" d="M336 85h2V74h-2z"/><path fill="#1C417D" mask="url(#h)" d="M311 85h1V74h-1z"/><path fill="#0068C9" mask="url(#h)" d="M312 85h1V74h-1z"/><path fill="#1C417D" mask="url(#h)" d="M293 85h1V74h-1z"/><path fill="#0068C9" mask="url(#h)" d="M294 85h1V74h-1z"/><path fill="#1C417D" mask="url(#h)" d="M267 85h1V74h-1z"/><path fill="#0068C9" mask="url(#h)" d="M267 85h1V74h-1z"/><path fill="#0080F6" mask="url(#h)" d="M255 74v1H348v-1z"/><path fill="#FC95A4" mask="url(#h)" d="M178 75h9V47h-9z"/><path fill="#001828" mask="url(#h)" d="M178 75h1V48h-1z"/><path d="M179.07 74.37h-.428V47.631h7.716V74.37h-7.288zm7.9-27.37H178v28h9V47h-.03z" fill="#1C417D" mask="url(#h)"/><path fill="#0068C9" mask="url(#h)" d="M177 75h1V47h-1z"/><path fill="#FC95A4" mask="url(#h)" d="M196 75h9V47h-9z"/><path fill="#001828" mask="url(#h)" d="M196 75h1V48h-1z"/><path d="M197.07 74.37h-.428V47.631h7.716V74.37h-7.288zm7.9-27.37H196v28h9V47h-.03z" fill="#1C417D" mask="url(#h)"/><path fill="#0068C9" mask="url(#h)" d="M195 75h1V47h-1z"/><path fill="#FC95A4" mask="url(#h)" d="M214 75h9V47h-9z"/><path fill="#001828" mask="url(#h)" d="M214 75h1V48h-1z"/><path d="M215.07 74.37h-.428V47.631h7.716V74.37h-7.288zm7.9-27.37H214v28h9V47h-.03z" fill="#1C417D" mask="url(#h)"/><path fill="#0068C9" mask="url(#h)" d="M213 75h1V47h-1z"/><path fill="#FAD1C5" mask="url(#h)" d="M141 86h-20V8h20z"/><path fill="#FC95A4" mask="url(#h)" d="M137.75 85H139V8h-18v2.789l16.75-1.904z"/><path fill="#1C417D" mask="url(#h)" d="M139 85h1V8h-1z"/><path d="M139.84 84.826H121.161V8.173H139.84v76.653zM140.227 7H120v79h21V7h-.774z" fill="#0068C9" mask="url(#h)"/><path fill="#3CA1FF" mask="url(#h)" d="M141 86h2V7h-2z"/><path fill="#FAD1C5" mask="url(#h)" d="M148 86h15V48h-15z"/><path fill="#FC95A4" mask="url(#h)" d="M162 85V48h-12v2.429l10.97-1.811V85z"/><path fill="#1C417D" mask="url(#h)" d="M162 85h1V48h-1z"/><path d="M162.81 85.81h-13.619V48.19h13.619v37.62zm.397-38.81H148v40H164V47h-.793z" fill="#0068C9" mask="url(#h)"/><path fill="#3CA1FF" mask="url(#h)" d="M164 87h2V47h-2z"/><path fill="#FAD1C5" mask="url(#h)" d="M123 143h28V95h-28zM151 143h28V95h-28zM92 143h28V95H92z"/><path d="M147 116.06a.976.976 0 0 0-.333-.058c-.369 0-.667.186-.667.416v3.17c0 .228.298.414.667.414a.976.976 0 0 0 .333-.057c-.198-.072-.333-.205-.333-.358v-3.17c0-.153.135-.285.333-.357M154 116.06a.977.977 0 0 0-.333-.058c-.369 0-.667.186-.667.416v3.17c0 .228.298.414.667.414a.977.977 0 0 0 .333-.057c-.199-.072-.333-.205-.333-.358v-3.17c0-.153.134-.285.333-.357M118 116.06a.977.977 0 0 0-.333-.058c-.369 0-.667.186-.667.416v3.17c0 .228.298.414.667.414a.977.977 0 0 0 .333-.057c-.199-.072-.333-.205-.333-.358v-3.17c0-.153.134-.285.333-.357" fill="#FC95A4" mask="url(#h)"/><path d="M147.5 120c.191 0 .355-.09.44-.22a.36.36 0 0 0 .06-.195v-3.17a.358.358 0 0 0-.06-.194.52.52 0 0 0-.44-.221.572.572 0 0 0-.25.058c-.149.071-.25.204-.25.357v3.17c0 .153.101.286.25.357a.572.572 0 0 0 .25.058" fill="#0068C9" mask="url(#h)"/><path fill="#1C417D" mask="url(#h)" d="M149 96v47h1V96z"/><path fill="#0068C9" mask="url(#h)" d="M150.78 95H122v48h1.17V96.156h27.22V143h.61V95z"/><path fill="#3CA1FF" mask="url(#h)" d="M180 143h4V95h-4z"/><path fill="#1C417D" mask="url(#h)" d="M151.66 95H151v48h1V95zM178 96v47h1V96z"/><path fill="#0068C9" mask="url(#h)" d="M179.25 95H152v48h1.13V96.156h25.74V143H180V95z"/><path d="M153.5 120c.276 0 .5-.186.5-.415v-3.17c0-.23-.224-.415-.5-.415a.57.57 0 0 0-.25.058c-.149.071-.25.204-.25.357v3.17c0 .153.101.286.25.357a.57.57 0 0 0 .25.058M118.5 120c.191 0 .355-.09.44-.22a.36.36 0 0 0 .06-.195v-3.17a.358.358 0 0 0-.06-.194.519.519 0 0 0-.44-.221.57.57 0 0 0-.25.058c-.149.071-.25.204-.25.357v3.17c0 .153.101.286.25.357a.57.57 0 0 0 .25.058" fill="#0068C9" mask="url(#h)"/><path fill="#1C417D" mask="url(#h)" d="M119 96v47h1V96z"/><path fill="#0068C9" mask="url(#h)" d="M119.78 95H91v48h1.171V96.156H119.39V143h.61V95z"/><path fill="#1C417D" mask="url(#h)" d="M120.62 95H120v48h1V95z"/><path d="M149 98.879v-2.88h-27v4.947l25.715-1.969v17.388a.335.335 0 0 1 .043.162v2.638a.336.336 0 0 1-.043.162V143H149V98.879zM178 96.674V96h-26v2.698l24.74-1.925V143H178zM120 101.24v-5.242H93v7.31l25.715-1.97v15.026a.335.335 0 0 1 .043.162v2.638a.336.336 0 0 1-.043.162v23.673H120V101.24z" fill="#FC95A4" mask="url(#h)"/><path d="M10.475 147h336.05a.482.482 0 0 0 .475-.489v-3.022a.482.482 0 0 0-.475-.489H10.475a.482.482 0 0 0-.475.489v3.022c0 .27.213.489.475.489" fill="#DFF0FF" mask="url(#h)"/><path d="M0 142.89v-1.433c0-4.409 2.468-8.442 6.38-10.425l2.197-1.113a3.766 3.766 0 0 0 2.006-2.729l.398-2.336C12.05 118.584 17.451 114 23.773 114a17.073 17.073 0 0 1 14.315 7.795l5.057 7.787a10.264 10.264 0 0 0 8.606 4.686h4.983c2.114 0 4.173.681 5.875 1.944l3.754 2.785A4.06 4.06 0 0 1 68 142.258v.954c0 2.092-1.685 3.788-3.763 3.788H4.083C1.828 147 0 145.16 0 142.89" fill="#0097B8" mask="url(#h)"/><path d="M50.695 144.14v-.213c0-.712-.29-1.394-.803-1.884l-5.217-4.99a10.39 10.39 0 0 0-7.182-2.888H31.05c-2.147 0-4.258-.555-6.132-1.612l-1.387-.782c-3.702-2.087-5.727-6.275-5.077-10.502l.577-3.76a3.143 3.143 0 0 0-.695-2.512 13.149 13.149 0 0 0-7.292 9.68l-.4 2.355a3.822 3.822 0 0 1-.345 1.046l-.083.562c-.424 2.886-2.537 5.227-5.346 5.923l-.132.032a6.832 6.832 0 0 0-4.068 2.887 11.846 11.846 0 0 0-.67 3.93v1.444c0 2.287 1.838 4.141 4.106 4.141h8.415l.024-.467c.09-1.769 1.558-3.146 3.314-3.108l1.949.042a3.466 3.466 0 0 0 3.136-1.85l.385-.729a3.88 3.88 0 0 1 3.168-2.062l1.954-.13a4.775 4.775 0 0 1 4.84 3.266l.427 1.277a2.872 2.872 0 0 1-1.038 3.24l-.724.521H54l-.807-.08a2.782 2.782 0 0 1-2.498-2.777M65.777 143.08h-3.202c-.86 0-1.687-.35-2.317-.979l-.36-.36a2.467 2.467 0 0 0-1.744-.738c-1.05 0-1.993.689-2.382 1.738l-.61 1.647c-.355.959-.1 1.964.506 2.615h9.1c1.4 0 2.616-.847 3.232-2.09-.262-1.033-1.134-1.833-2.223-1.833" fill="#00547A" mask="url(#h)"/></g><g transform="translate(65 34)" fill="#B8DDFF" opacity=".591"><rect x="29" y="79" width="184" height="33" rx="16.5"/><rect x="92" y="96" width="184" height="33" rx="16.5"/><rect x="145" y="56" width="92" height="33" rx="16.5"/><rect width="92" height="33" rx="16.5"/><rect x="276" width="39" height="33" rx="16.5"/></g></g></svg>