<?xml version="1.0" encoding="UTF-8"?>
<svg width="420px" height="420px" viewBox="0 0 420 420" version="1.1" xmlns="http://www.w3.org/2000/svg" xmlns:xlink="http://www.w3.org/1999/xlink">
    <title>5. Elements_Illustrations/2.Vector/Modern_house</title>
    <defs>
        <polygon id="path-1" points="0 0 67 0 67 143 0 143"></polygon>
        <polygon id="path-3" points="0 0 128 0 128 143 0 143"></polygon>
        <polygon id="path-5" points="0 0 16 0 16 14 0 14"></polygon>
        <polygon id="path-7" points="0 147 358 147 358 0 0 0"></polygon>
    </defs>
    <g id="5.-Elements_Illustrations/2.Vector/Modern_house" stroke="none" stroke-width="1" fill="none" fill-rule="evenodd">
        <g id="Group-122" transform="translate(31.000000, 218.000000)">
            <g id="Group-3" transform="translate(19.000000, 0.000000)">
                <mask id="mask-2" fill="white">
                    <use xlink:href="#path-1"></use>
                </mask>
                <g id="Clip-2"></g>
                <path d="M39.7725897,85.0665329 L39.7725897,-2.37349559e-05 L0.473322619,-2.37349559e-05 C0.212048533,-2.37349559e-05 0,0.21240412 0,0.474675383 L0,85.0665329 L0,143 L67,143 L67,85.0665329 L39.7725897,85.0665329 Z" id="Fill-1" fill="#3CA1FF" mask="url(#mask-2)"></path>
            </g>
            <g id="Group-6" transform="translate(59.000000, 0.000000)">
                <mask id="mask-4" fill="white">
                    <use xlink:href="#path-3"></use>
                </mask>
                <g id="Clip-5"></g>
                <path d="M127.526279,85.0665329 L88.807205,85.0665329 L88.807205,0.474675383 C88.807205,0.21240412 88.5952151,-2.37349559e-05 88.3334845,-2.37349559e-05 L0,-2.37349559e-05 L0,85.0665329 L27.2503002,85.0665329 L27.2503002,143 L128,143 L128,85.541232 C128,85.2791981 127.787773,85.0665329 127.526279,85.0665329" id="Fill-4" fill="#B8DDFF" mask="url(#mask-4)"></path>
            </g>
            <path d="M312.653459,147 C310.083392,147 308,144.806123 308,142.100316 L308,140.350376 C308,139.087302 308.226015,137.835891 308.666733,136.661158 L309.201014,135.237037 C310.688849,131.269149 314.324415,128.657887 318.375953,128.646968 L320.632097,128.640764 C321.993608,128.629598 323.270982,127.943965 324.079357,126.790324 L325.641902,124.560217 C327.652234,121.692122 330.836713,119.999504 334.222225,120 L335.258737,120 C339.356232,120.000993 342.948669,122.882736 344.037501,127.041698 C344.740292,129.727405 346.703725,131.845101 349.236555,132.650093 C349.656768,132.783597 350.071797,132.915363 350.460901,133.038941 C351.908906,133.499504 353.155642,134.483163 353.981928,135.817207 L357.441679,141.402276 C357.806037,141.990635 358,142.677509 358,143.379768 C358,145.379345 356.460317,147 354.56146,147 L312.653459,147 Z" id="Fill-7" fill="#0097B8"></path>
            <path d="M329.606412,144.404638 C329.506202,142.951905 328.649647,141.659604 327.352408,141.003053 L323.029313,138.816542 C320.577037,137.576124 319.122803,134.967851 319.353286,132.225208 C319.493341,130.559203 320.847604,129.257099 322.514426,129.186088 L327.16535,128.987402 C329.270709,128.897263 331.254146,127.973166 332.680226,126.41834 L334.349911,124.597642 C335.393285,123.460274 335.097428,121.821765 334.053576,121 C330.81203,121.147999 327.797626,122.74897 325.860715,125.379239 L324.278594,127.527735 C323.460215,128.639281 322.167032,129.299658 320.788671,129.310656 L318.504843,129.316634 C314.402925,129.327154 310.722603,131.843375 309.215878,135.666244 L308.675223,137.038402 C308.229289,138.170511 308,139.37626 308,140.593247 L308,142.278857 C308,144.886651 310.109415,147 312.711289,147 L328.1381,147 C329.067426,146.523725 329.683716,145.527183 329.606412,144.404638" id="Fill-9" fill="#00547A"></path>
            <path d="M326.149581,133 C325.202369,133 324.663229,134.247286 325.233509,135.118245 L325.233741,135.118245 C326.215812,136.618201 327.752592,137.499866 329.384187,137.499866 C330.797802,137.499866 332.065245,138.503584 332.571618,140.023613 L332.845603,140.846126 C333.077294,141.540967 333.656637,142 334.302907,142 L334.583399,142 C335.918002,142 337,140.753784 337,139.216357 C337,135.783108 334.583864,133 331.603258,133 L326.149581,133 Z" id="Fill-11" fill="#00547A"></path>
            <g id="Group-15" transform="translate(337.000000, 133.000000)">
                <mask id="mask-6" fill="white">
                    <use xlink:href="#path-5"></use>
                </mask>
                <g id="Clip-14"></g>
                <path d="M5.35397043,12.7194019 L5.92194202,11.2716594 C6.41976201,10.001755 7.64100579,9.16661792 9.00068828,9.16661792 C10.5305059,9.16661792 11.8694459,8.13492296 12.2649517,6.65114483 L12.8266306,4.54493337 C13.2372855,3.00476185 14.47228,1.84436827 16,1.51302781 C15.5352748,1.22521089 15.0323274,0.995893344 14.5018788,0.835371062 C14.1173268,0.718606311 13.706672,0.59435364 13.2911228,0.468462987 C12.8839638,0.344912309 12.4935853,0.185794012 12.1190551,0 C10.5190859,0.779211662 9.20345204,2.11486937 8.47187108,3.831943 L8.04933005,4.82362439 C7.4732013,6.17636391 6.19742106,7.09714406 4.73682281,7.2146108 L3.65961121,7.30095588 C2.25774454,7.41350868 1.07355757,8.39044822 0.691569298,9.74973968 L0.0713918714,11.9556341 C-0.154678066,12.7601175 0.17533743,13.5589849 0.790620559,14.0000702 L4.25858001,14.0000702 C4.74637834,13.7148273 5.13792215,13.270232 5.35397043,12.7194019" id="Fill-13" fill="#00547A" mask="url(#mask-6)"></path>
            </g>
            <polygon id="Fill-16" fill="#0068C9" points="253.076631 95 188 95 188 143 271 143 271 95"></polygon>
            <mask id="mask-8" fill="white">
                <use xlink:href="#path-7"></use>
            </mask>
            <g id="Clip-19"></g>
            <polygon id="Fill-18" fill="#1C417D" mask="url(#mask-8)" points="192 143 271 143 271 142 192 142"></polygon>
            <polygon id="Fill-20" fill="#1C417D" mask="url(#mask-8)" points="192 140 271 140 271 139 192 139"></polygon>
            <polygon id="Fill-21" fill="#1C417D" mask="url(#mask-8)" points="192 138 271 138 271 137 192 137"></polygon>
            <polygon id="Fill-22" fill="#1C417D" mask="url(#mask-8)" points="192 136 271 136 271 135 192 135"></polygon>
            <polygon id="Fill-23" fill="#1C417D" mask="url(#mask-8)" points="192 134 271 134 271 133 192 133"></polygon>
            <polygon id="Fill-24" fill="#1C417D" mask="url(#mask-8)" points="192 132 271 132 271 131 192 131"></polygon>
            <polygon id="Fill-25" fill="#1C417D" mask="url(#mask-8)" points="192 129 271 129 271 128 192 128"></polygon>
            <polygon id="Fill-26" fill="#1C417D" mask="url(#mask-8)" points="192 127 271 127 271 126 192 126"></polygon>
            <polygon id="Fill-27" fill="#1C417D" mask="url(#mask-8)" points="192 125 271 125 271 124 192 124"></polygon>
            <polygon id="Fill-28" fill="#1C417D" mask="url(#mask-8)" points="192 122 271 122 271 121 192 121"></polygon>
            <polygon id="Fill-29" fill="#1C417D" mask="url(#mask-8)" points="192 120 271 120 271 119 192 119"></polygon>
            <polygon id="Fill-30" fill="#1C417D" mask="url(#mask-8)" points="192 119 271 119 271 118 192 118"></polygon>
            <polygon id="Fill-31" fill="#1C417D" mask="url(#mask-8)" points="192 116 271 116 271 115 192 115"></polygon>
            <polygon id="Fill-32" fill="#1C417D" mask="url(#mask-8)" points="192 114 271 114 271 113 192 113"></polygon>
            <polygon id="Fill-33" fill="#1C417D" mask="url(#mask-8)" points="192 111 271 111 271 110 192 110"></polygon>
            <polygon id="Fill-34" fill="#1C417D" mask="url(#mask-8)" points="192 109 271 109 271 108 192 108"></polygon>
            <polygon id="Fill-35" fill="#1C417D" mask="url(#mask-8)" points="192 107 271 107 271 106 192 106"></polygon>
            <polygon id="Fill-36" fill="#1C417D" mask="url(#mask-8)" points="192 104 271 104 271 103 192 103"></polygon>
            <polygon id="Fill-37" fill="#1C417D" mask="url(#mask-8)" points="192 102 271 102 271 101 192 101"></polygon>
            <polygon id="Fill-38" fill="#1C417D" mask="url(#mask-8)" points="192 101 271 101 271 100 192 100"></polygon>
            <polygon id="Fill-39" fill="#1C417D" mask="url(#mask-8)" points="192 98 271 98 271 97 192 97"></polygon>
            <polygon id="Fill-40" fill="#1C417D" mask="url(#mask-8)" points="252.833256 95 192 95 192 96 271 96 271 95"></polygon>
            <polygon id="Fill-41" fill="#1C417D" mask="url(#mask-8)" points="274 95 269.167828 95 259 143 263.831926 143"></polygon>
            <polygon id="Fill-42" fill="#0068C9" mask="url(#mask-8)" points="266.111428 143 276 95 274.153846 95 273.888572 95 264 143"></polygon>
            <polygon id="Fill-43" fill="#1C417D" mask="url(#mask-8)" points="331 95 326.489973 95 317 143 321.509797 143"></polygon>
            <polygon id="Fill-44" fill="#0068C9" mask="url(#mask-8)" points="323.935476 143 333 95 331.307912 95 331.064524 95 322 143"></polygon>
            <polygon id="Fill-45" fill="#B8DDFF" mask="url(#mask-8)" points="148 86 168 86 168 41 148 41"></polygon>
            <polygon id="Fill-46" fill="#FAD1C5" mask="url(#mask-8)" points="297 84 336 84 336 44 297 44"></polygon>
            <polygon id="Fill-47" fill="#FAD1C5" mask="url(#mask-8)" points="255 84 295 84 295 44 255 44"></polygon>
            <polygon id="Fill-48" fill="#FC95A4" mask="url(#mask-8)" points="333.379117 46 332.757999 46 297 46 297 48.7478835 332.757999 46.7115901 332.757999 84 334 84 334 46"></polygon>
            <polygon id="Fill-49" fill="#FC95A4" mask="url(#mask-8)" points="292.743575 46 256 46 256 50.9572216 292.743575 48.9325276 292.743575 84 294 84 294 46 293.595255 46"></polygon>
            <path d="M291.504443,62 L291.495899,62 C291.222146,62 291,62.184149 291,62.4110773 L291,65.5889227 C291,65.815851 291.222146,66 291.495899,66 L291.504443,66 C291.778195,66 292,65.815851 292,65.5889227 L292,62.4110773 C292,62.184149 291.778195,62 291.504443,62" id="Fill-50" fill="#FC95A4" mask="url(#mask-8)"></path>
            <path d="M297.504101,62 L297.496241,62 C297.222146,62 297,62.184149 297,62.4110773 L297,65.5889227 C297,65.815851 297.222146,66 297.496241,66 L297.504101,66 C297.778195,66 298,65.815851 298,65.5889227 L298,62.4110773 C298,62.184149 297.778195,62 297.504101,62" id="Fill-51" fill="#FC95A4" mask="url(#mask-8)"></path>
            <polygon id="Fill-52" fill="#0068C9" mask="url(#mask-8)" points="339 85 348 85 348 44 339 44"></polygon>
            <polygon id="Fill-53" fill="#3CA1FF" mask="url(#mask-8)" points="338 85 340 85 340 44 338 44"></polygon>
            <polygon id="Fill-54" fill="#1C417D" mask="url(#mask-8)" points="336 85 338 85 338 44 336 44"></polygon>
            <polygon id="Fill-55" fill="#1C417D" mask="url(#mask-8)" points="294 84 295 84 295 46 294 46"></polygon>
            <polygon id="Fill-56" fill="#1C417D" mask="url(#mask-8)" points="295 44 295 85 295.659136 85 296 85 296 44 295.659136 44"></polygon>
            <polygon id="Fill-57" fill="#1C417D" mask="url(#mask-8)" points="335 84 336 84 336 46 335 46"></polygon>
            <path d="M291.504443,62 L291.495899,62 C291.222146,62 291,62.184149 291,62.4110773 L291,65.5889227 C291,65.815851 291.222146,66 291.495899,66 L291.504443,66 C291.778195,66 292,65.815851 292,65.5889227 L292,62.4110773 C292,62.184149 291.778195,62 291.504443,62" id="Fill-58" fill="#0068C9" mask="url(#mask-8)"></path>
            <path d="M294.379843,83.8168611 L293.591757,83.8168611 L255.182491,83.8168611 L255.182491,45.1831389 L293.591757,45.1831389 L294.379843,45.1831389 L294.379843,83.8168611 Z M254.055173,44 L254,44 L254,85 L254.055173,85 L294.774247,85 L295,85 L295,44 L294.774247,44 L254.055173,44 Z" id="Fill-59" fill="#0068C9" mask="url(#mask-8)"></path>
            <path d="M334.846357,83.8168611 L334.077497,83.8168611 L297.153878,83.8168611 L297.153878,45.1831389 L334.077497,45.1831389 L334.846357,45.1831389 L334.846357,83.8168611 Z M335.23114,44 L296.053827,44 L296,44 L296,85 L296.053827,85 L335.23114,85 L336,85 L336,44 L335.23114,44 Z" id="Fill-60" fill="#0068C9" mask="url(#mask-8)"></path>
            <path d="M298.504443,62 L298.496241,62 C298.222146,62 298,62.184149 298,62.4110773 L298,65.5889227 C298,65.815851 298.222146,66 298.496241,66 L298.504443,66 C298.778195,66 299,65.815851 299,65.5889227 L299,62.4110773 C299,62.184149 298.778195,62 298.504443,62" id="Fill-61" fill="#0068C9" mask="url(#mask-8)"></path>
            <polygon id="Fill-62" fill="#3CA1FF" mask="url(#mask-8)" points="169 40 169 85.1894538 187.73815 85.1894538 187.73815 95 253 95 253 40"></polygon>
            <path d="M254.922595,85.0855661 L348.077405,85.0855661 L348.077405,44.3162565 L254.922595,44.3162565 L254.922595,85.0855661 Z M349.524581,40 L253,40 L253,85.0855661 L253,95 L349.524581,95 C349.787012,95 350,94.7852668 350,94.5201494 L350,85.0855661 L350,40.4798506 C350,40.2144932 349.787012,40 349.524581,40 L349.524581,40 Z" id="Fill-63" fill="#B8DDFF" mask="url(#mask-8)"></path>
            <polygon id="Fill-64" fill="#FC95A4" mask="url(#mask-8)" points="255 85 337 85 337 74 255 74"></polygon>
            <polygon id="Fill-65" fill="#1C417D" mask="url(#mask-8)" points="339 85 348 85 348 74 339 74"></polygon>
            <polygon id="Fill-66" fill="#0068C9" mask="url(#mask-8)" points="338 85 340 85 340 74 338 74"></polygon>
            <polygon id="Fill-67" fill="#001828" mask="url(#mask-8)" points="336 85 338 85 338 74 336 74"></polygon>
            <polygon id="Fill-68" fill="#1C417D" mask="url(#mask-8)" points="311 85 312 85 312 74 311 74"></polygon>
            <polygon id="Fill-69" fill="#0068C9" mask="url(#mask-8)" points="312 85 313 85 313 74 312 74"></polygon>
            <polygon id="Fill-70" fill="#1C417D" mask="url(#mask-8)" points="293 85 294 85 294 74 293 74"></polygon>
            <polygon id="Fill-71" fill="#0068C9" mask="url(#mask-8)" points="294 85 295 85 295 74 294 74"></polygon>
            <polygon id="Fill-72" fill="#1C417D" mask="url(#mask-8)" points="267 85 268 85 268 74 267 74"></polygon>
            <polygon id="Fill-73" fill="#0068C9" mask="url(#mask-8)" points="267 85 268 85 268 74 267 74"></polygon>
            <polygon id="Fill-74" fill="#0080F6" mask="url(#mask-8)" points="255 74 255 75 267.873126 75 268.231471 75 268.589579 75 294.187509 75 294.545617 75 294.903724 75 312.195647 75 312.553754 75 312.911862 75 336.553134 75 338.168534 75 339.421792 75 348 75 348 74"></polygon>
            <polygon id="Fill-75" fill="#FC95A4" mask="url(#mask-8)" points="178 75 187 75 187 47 178 47"></polygon>
            <polygon id="Fill-76" fill="#001828" mask="url(#mask-8)" points="178 75 179 75 179 48 178 48"></polygon>
            <path d="M179.070088,74.3696825 L178.642102,74.3696825 L178.642102,47.6305589 L179.070088,47.6305589 L186.357898,47.6305589 L186.357898,74.3696825 L179.070088,74.3696825 Z M186.970255,47 L178.427986,47 L178,47 L178,75 L178.427986,75 L186.970255,75 L187,75 L187,47 L186.970255,47 Z" id="Fill-77" fill="#1C417D" mask="url(#mask-8)"></path>
            <polygon id="Fill-78" fill="#0068C9" mask="url(#mask-8)" points="177 75 178 75 178 47 177 47"></polygon>
            <polygon id="Fill-79" fill="#FC95A4" mask="url(#mask-8)" points="196 75 205 75 205 47 196 47"></polygon>
            <polygon id="Fill-80" fill="#001828" mask="url(#mask-8)" points="196 75 197 75 197 48 196 48"></polygon>
            <path d="M197.070059,74.3696825 L196.642085,74.3696825 L196.642085,47.6305589 L197.070059,47.6305589 L204.35767,47.6305589 L204.35767,74.3696825 L197.070059,74.3696825 Z M204.97001,47 L196.427974,47 L196,47 L196,75 L196.427974,75 L204.97001,75 L205,75 L205,47 L204.97001,47 Z" id="Fill-81" fill="#1C417D" mask="url(#mask-8)"></path>
            <polygon id="Fill-82" fill="#0068C9" mask="url(#mask-8)" points="195 75 196 75 196 47 195 47"></polygon>
            <polygon id="Fill-83" fill="#FC95A4" mask="url(#mask-8)" points="214 75 223 75 223 47 214 47"></polygon>
            <polygon id="Fill-84" fill="#001828" mask="url(#mask-8)" points="214 75 215 75 215 48 214 48"></polygon>
            <path d="M215.070059,74.3696825 L214.642085,74.3696825 L214.642085,47.6305589 L215.070059,47.6305589 L222.35767,47.6305589 L222.35767,74.3696825 L215.070059,74.3696825 Z M222.97001,47 L214.42822,47 L214,47 L214,75 L214.42822,75 L222.97001,75 L223,75 L223,47 L222.97001,47 Z" id="Fill-85" fill="#1C417D" mask="url(#mask-8)"></path>
            <polygon id="Fill-86" fill="#0068C9" mask="url(#mask-8)" points="213 75 214 75 214 47 213 47"></polygon>
            <polygon id="Fill-87" fill="#FAD1C5" mask="url(#mask-8)" points="141 86 140.171432 86 121 86 121 8 141 8"></polygon>
            <polygon id="Fill-88" fill="#FC95A4" mask="url(#mask-8)" points="137.746503 85 139 85 139 8 137.746503 8 121 8 121 10.7886227 137.746503 8.88518172"></polygon>
            <polygon id="Fill-89" fill="#1C417D" mask="url(#mask-8)" points="139 85 140 85 140 8 139 8"></polygon>
            <path d="M139.839443,84.8263527 L139.065581,84.8263527 L121.160557,84.8263527 L121.160557,10.949462 L121.160557,8.1734082 L137.818698,8.1734082 L139.065581,8.1734082 L139.839443,8.1734082 L139.839443,84.8263527 Z M140.226374,7 L120.053924,7 L120,7 L120,86 L120.053924,86 L140.226374,86 L141,86 L141,7 L140.226374,7 Z" id="Fill-90" fill="#0068C9" mask="url(#mask-8)"></path>
            <polygon id="Fill-91" fill="#3CA1FF" mask="url(#mask-8)" points="141 86 143 86 143 7 141 7"></polygon>
            <polygon id="Fill-92" fill="#FAD1C5" mask="url(#mask-8)" points="148 86 163 86 163 48 148 48"></polygon>
            <polygon id="Fill-93" fill="#FC95A4" mask="url(#mask-8)" points="162 85 162 48 150 48 150 50.429205 160.966034 48.6184515 160.966034 85"></polygon>
            <polygon id="Fill-94" fill="#1C417D" mask="url(#mask-8)" points="162 85 163 85 163 48 162 48"></polygon>
            <path d="M162.809514,85.8097995 L162.0161,85.8097995 L149.190486,85.8097995 L149.190486,48.1902005 L162.0161,48.1902005 L162.809514,48.1902005 L162.809514,85.8097995 Z M163.206343,47 L148.055304,47 L148,47 L148,87 L148.055304,87 L163.206343,87 L164,87 L164,47 L163.206343,47 Z" id="Fill-95" fill="#0068C9" mask="url(#mask-8)"></path>
            <polygon id="Fill-96" fill="#3CA1FF" mask="url(#mask-8)" points="164 87 166 87 166 47 164 47"></polygon>
            <polygon id="Fill-97" fill="#FAD1C5" mask="url(#mask-8)" points="123 143 151 143 151 95 123 95"></polygon>
            <polygon id="Fill-98" fill="#FAD1C5" mask="url(#mask-8)" points="151 143 179 143 179 95 151 95"></polygon>
            <polygon id="Fill-99" fill="#FAD1C5" mask="url(#mask-8)" points="92 143 120 143 120 95 92 95"></polygon>
            <path d="M147,116.057621 C146.90155,116.021856 146.78897,116 146.666819,116 C146.298086,116 146,116.185921 146,116.415271 L146,119.584729 C146,119.813795 146.298086,120 146.666819,120 C146.78897,120 146.90155,119.978144 147,119.942379 C146.801732,119.870565 146.666819,119.738007 146.666819,119.584729 L146.666819,116.415271 C146.666819,116.261993 146.801732,116.129435 147,116.057621" id="Fill-100" fill="#FC95A4" mask="url(#mask-8)"></path>
            <path d="M154,116.057621 C153.901595,116.021856 153.78861,116 153.66697,116 C153.298405,116 153,116.185921 153,116.415271 L153,119.584729 C153,119.813795 153.298405,120 153.66697,120 C153.78861,120 153.901595,119.978144 154,119.942379 C153.801367,119.870565 153.66697,119.738007 153.66697,119.584729 L153.66697,116.415271 C153.66697,116.261993 153.801367,116.129435 154,116.057621" id="Fill-101" fill="#FC95A4" mask="url(#mask-8)"></path>
            <path d="M118,116.057621 C117.901595,116.021856 117.78861,116 117.66697,116 C117.298405,116 117,116.185921 117,116.415271 L117,119.584729 C117,119.813795 117.298405,120 117.66697,120 C117.78861,120 117.901595,119.978144 118,119.942379 C117.801367,119.870565 117.66697,119.738007 117.66697,119.584729 L117.66697,116.415271 C117.66697,116.261993 117.801367,116.129435 118,116.057621" id="Fill-102" fill="#FC95A4" mask="url(#mask-8)"></path>
            <path d="M147.5,120 C147.691046,120 147.855092,119.91002 147.939508,119.779165 C147.97676,119.720976 148,119.655407 148,119.584729 L148,116.415271 C148,116.344593 147.97676,116.279307 147.939508,116.221118 C147.855092,116.090264 147.691046,116 147.5,116 C147.408407,116 147.32365,116.021856 147.249829,116.057621 C147.101162,116.129435 147,116.261993 147,116.415271 L147,119.584729 C147,119.738007 147.101162,119.870565 147.249829,119.942379 C147.32365,119.978144 147.408407,120 147.5,120" id="Fill-103" fill="#0068C9" mask="url(#mask-8)"></path>
            <polygon id="Fill-104" fill="#1C417D" mask="url(#mask-8)" points="149 96 149 98.8792865 149 143 150 143 150 96"></polygon>
            <polygon id="Fill-105" fill="#0068C9" mask="url(#mask-8)" points="150.776126 95 122.054417 95 122 95 122 143 123.17116 143 123.17116 101.086082 123.17116 96.1555316 148.346452 96.1555316 149.604727 96.1555316 150.38566 96.1555316 150.38566 143 151 143 151 95"></polygon>
            <polygon id="Fill-106" fill="#3CA1FF" mask="url(#mask-8)" points="180 143 184 143 184 95 180 95"></polygon>
            <polygon id="Fill-107" fill="#1C417D" mask="url(#mask-8)" points="151.658853 95 151 95 151 143 152 143 152 95"></polygon>
            <polygon id="Fill-108" fill="#1C417D" mask="url(#mask-8)" points="178 96 178 96.6744083 178 143 179 143 179 96"></polygon>
            <polygon id="Fill-109" fill="#0068C9" mask="url(#mask-8)" points="179.24622 95 152.052541 95 152 95 152 143 153.130785 143 153.130785 98.8451796 153.130785 96.1555316 176.900539 96.1555316 178.115436 96.1555316 178.869215 96.1555316 178.869215 143 180 143 180 95"></polygon>
            <path d="M153.5,120 C153.776145,120 154,119.814079 154,119.584729 L154,116.415271 C154,116.185921 153.776145,116 153.5,116 C153.408407,116 153.32365,116.021856 153.250171,116.057621 C153.101162,116.129435 153,116.261993 153,116.415271 L153,119.584729 C153,119.738007 153.101162,119.870565 153.250171,119.942379 C153.32365,119.978144 153.408407,120 153.5,120" id="Fill-110" fill="#0068C9" mask="url(#mask-8)"></path>
            <path d="M118.5,120 C118.691046,120 118.855434,119.91002 118.939508,119.779165 C118.97676,119.720976 119,119.655407 119,119.584729 L119,116.415271 C119,116.344593 118.97676,116.279307 118.939508,116.221118 C118.855434,116.090264 118.691046,116 118.5,116 C118.408407,116 118.32365,116.021856 118.250171,116.057621 C118.101162,116.129435 118,116.261993 118,116.415271 L118,119.584729 C118,119.738007 118.101162,119.870565 118.250171,119.942379 C118.32365,119.978144 118.408407,120 118.5,120" id="Fill-111" fill="#0068C9" mask="url(#mask-8)"></path>
            <polygon id="Fill-112" fill="#1C417D" mask="url(#mask-8)" points="119 96 119 101.241487 119 143 120 143 120 96"></polygon>
            <polygon id="Fill-113" fill="#0068C9" mask="url(#mask-8)" points="119.776126 95 91.0544171 95 91 95 91 143 92.1711603 143 92.1711603 103.440466 92.1711603 96.1555316 117.346452 96.1555316 118.604966 96.1555316 119.38566 96.1555316 119.38566 143 120 143 120 95"></polygon>
            <polygon id="Fill-114" fill="#1C417D" mask="url(#mask-8)" points="120.618997 95 120 95 120 143 121 143 121 95"></polygon>
            <path d="M149,98.879301 L149,96 L147.714762,96 L122,96 L122,100.946709 L147.714762,98.977569 L147.714762,116.36558 C147.741334,116.414005 147.757912,116.468573 147.757912,116.527392 L147.757912,119.165038 C147.757912,119.223857 147.741334,119.278188 147.714762,119.32685 L147.714762,143 L149,143 L149,98.879301 Z" id="Fill-115" fill="#FC95A4" mask="url(#mask-8)"></path>
            <polygon id="Fill-116" fill="#FC95A4" mask="url(#mask-8)" points="178 96.6744117 178 96 176.735731 96 152 96 152 98.6983555 176.735731 96.772916 176.735731 143 178 143"></polygon>
            <path d="M120,101.241514 L120,96 L118.714762,96 L93,96 L93,103.308922 L118.714762,101.339782 L118.714762,116.36558 C118.741334,116.414005 118.757912,116.468573 118.757912,116.527392 L118.757912,119.165038 C118.757912,119.223857 118.741334,119.278188 118.714762,119.32685 L118.714762,143 L120,143 L120,101.241514 Z" id="Fill-117" fill="#FC95A4" mask="url(#mask-8)"></path>
            <path d="M10.4751883,147 L346.524812,147 C346.787353,147 347,146.781009 347,146.511182 L347,143.488818 C347,143.218746 346.787353,143 346.524812,143 L10.4751883,143 C10.2128844,143 10,143.218746 10,143.488818 L10,146.511182 C10,146.781009 10.2128844,147 10.4751883,147" id="Fill-118" fill="#DFF0FF" mask="url(#mask-8)"></path>
            <path d="M0,142.891108 L0,141.458504 C0,137.049567 2.46826771,133.016572 6.38093955,131.033059 L8.57738299,129.919416 C9.63813196,129.38151 10.3826532,128.369065 10.583291,127.190873 L10.9812774,124.854352 C12.0495445,118.583668 17.4514938,114 23.7729938,114 L23.7729938,114 C29.5463814,114 34.9297706,116.93141 38.0882886,121.79479 L43.1455826,129.58225 C45.0443585,132.505857 48.2806414,134.268061 51.7509233,134.268061 L56.7342116,134.268061 C58.8484264,134.268061 60.9071957,134.949251 62.6088579,136.211852 L66.3634159,138.997378 C67.392683,139.761086 68,140.971433 68,142.258152 L68,143.212433 C68,145.304237 66.3152534,147 64.2367493,147 L4.08276758,147 C1.82782436,147 0,145.16048 0,142.891108" id="Fill-119" fill="#0097B8" mask="url(#mask-8)"></path>
            <path d="M50.6952374,144.14327 L50.6952374,143.930707 C50.6952374,143.217954 50.4048361,142.536657 49.8920851,142.046237 L44.6757303,137.05673 C42.7367283,135.202048 40.1661212,134.168306 37.4936727,134.168306 L31.0507325,134.168306 C28.9035584,134.168306 26.7923004,133.613308 24.9180421,132.556689 L23.5312516,131.774591 C19.8292843,129.687567 17.8045088,125.499222 18.4538358,121.272272 L19.0315667,117.512388 C19.1792484,116.551327 18.8876656,115.660804 18.3359267,115 C14.5874101,116.787482 11.7838202,120.331467 11.0444664,124.680426 L10.6441899,127.035298 C10.5813365,127.404185 10.4603557,127.75377 10.2992054,128.081193 L10.2165036,128.643341 C9.79236168,131.529143 7.679686,133.869717 4.87042515,134.565551 L4.73786603,134.598198 C3.02452173,135.022609 1.59590779,136.07875 0.670593177,137.48543 C0.234164143,138.727445 0,140.053342 0,141.415221 L0,142.858838 C0,145.146033 1.83834211,147 4.10626083,147 L12.5212837,147 L12.5449127,146.533172 C12.6349395,144.764039 14.103014,143.387385 15.8591269,143.425036 L17.8082894,143.467215 C19.1156862,143.495335 20.3278578,142.779961 20.9438678,141.616822 L21.3297306,140.888104 C21.9613358,139.695178 23.1588574,138.915702 24.496972,138.82634 L26.4513329,138.696466 C28.6122119,138.552295 30.5987083,139.892966 31.2908039,141.962356 L31.7180176,143.239401 C32.1168764,144.432088 31.6953337,145.747023 30.6799923,146.47884 L29.9562337,147 L54,147 L53.1925945,146.920408 C51.7755588,146.780526 50.6952374,145.579022 50.6952374,144.14327" id="Fill-120" fill="#00547A" mask="url(#mask-8)"></path>
            <path d="M65.7768552,143.076601 L62.5744844,143.076601 C61.7152616,143.076601 60.8878111,142.726728 60.2583086,142.097597 L59.8982991,141.737636 C59.4242293,141.263512 58.8006699,141 58.153567,141 C57.1041677,141 56.1605998,141.688428 55.7717894,142.737554 L55.1619447,144.384319 C54.8067352,145.343148 55.062742,146.348971 55.6677867,147 L64.767457,147 C66.1681799,147 67.3842122,146.152875 68,144.908882 C67.737593,143.87624 66.866027,143.076601 65.7768552,143.076601" id="Fill-121" fill="#00547A" mask="url(#mask-8)"></path>
        </g>
        <g id="Group" opacity="0.590729469" transform="translate(65.000000, 34.000000)" fill="#B8DDFF">
            <rect id="Rectangle" x="29" y="79" width="184" height="33" rx="16.5"></rect>
            <rect id="Rectangle" x="92" y="96" width="184" height="33" rx="16.5"></rect>
            <rect id="Rectangle" x="145" y="56" width="92" height="33" rx="16.5"></rect>
            <rect id="Rectangle" x="0" y="0" width="92" height="33" rx="16.5"></rect>
            <rect id="Rectangle" x="276" y="0" width="39" height="33" rx="16.5"></rect>
        </g>
    </g>
</svg>