<?xml version="1.0" encoding="UTF-8"?>
<svg version="1.1" viewBox="0 0 420 420" xmlns="http://www.w3.org/2000/svg" xmlns:xlink="http://www.w3.org/1999/xlink">
<title>5. Elements_Illustrations/2.Vector/Modern_house</title>
<defs>
<polygon id="e" points="0 0 67 0 67 143 0 143"/>
<polygon id="d" points="0 0 128 0 128 143 0 143"/>
<polygon id="c" points="0 0 16 0 16 14 0 14"/>
<polygon id="b" points="0 147 358 147 358 0 0 0"/>
</defs>
<g fill="none" fill-rule="evenodd">
<g transform="translate(31 218)">
<g transform="translate(19)">
<mask id="h" fill="white">
<use xlink:href="#e"/>
</mask>
<path d="m39.773 85.067v-85.067h-39.299c-0.26127 0-0.47332 0.21243-0.47332 0.4747v84.592 57.933h67v-57.933h-27.227z" fill="#3CA1FF" mask="url(#h)"/>
</g>
<g transform="translate(59)">
<mask id="g" fill="white">
<use xlink:href="#d"/>
</mask>
<path d="m127.53 85.067h-38.719v-84.592c0-0.26227-0.21199-0.4747-0.47372-0.4747h-88.333v85.067h27.25v57.933h100.75v-57.459c0-0.26203-0.21223-0.4747-0.47372-0.4747" fill="#B8DDFF" mask="url(#g)"/>
</g>
<path d="m312.65 147c-2.5701 0-4.6535-2.1939-4.6535-4.8997v-1.7499c0-1.2631 0.22602-2.5145 0.66673-3.6892l0.53428-1.4241c1.4878-3.9679 5.1234-6.5792 9.1749-6.5901l2.2561-0.006204c1.3615-0.011166 2.6389-0.6968 3.4473-1.8504l1.5625-2.2301c2.0103-2.8681 5.1948-4.5607 8.5803-4.5602h1.0365c4.0975 9.93e-4 7.6899 2.8827 8.7788 7.0417 0.70279 2.6857 2.6662 4.8034 5.1991 5.6084 0.42021 0.1335 0.83524 0.26527 1.2243 0.38885 1.448 0.46056 2.6947 1.4442 3.521 2.7783l3.4598 5.5851c0.36436 0.58836 0.55832 1.2752 0.55832 1.9775 0 1.9996-1.5397 3.6202-3.4385 3.6202h-41.908z" fill="#0097B8"/>
<path d="m329.61 144.4c-0.10021-1.4527-0.95676-2.745-2.254-3.4016l-4.3231-2.1865c-2.4523-1.2404-3.9065-3.8487-3.676-6.5913 0.14006-1.666 1.4943-2.9681 3.1611-3.0391l4.6509-0.19869c2.1054-0.090139 4.0888-1.0142 5.5149-2.5691l1.6697-1.8207c1.0434-1.1374 0.74752-2.7759-0.29634-3.5976-3.2415 0.148-6.256 1.749-8.1929 4.3792l-1.5821 2.1485c-0.81838 1.1115-2.1116 1.7719-3.4899 1.7829l-2.2838 0.005978c-4.1019 0.01052-7.7822 2.5267-9.289 6.3496l-0.54066 1.3722c-0.44593 1.1321-0.67522 2.3379-0.67522 3.5548v1.6856c0 2.6078 2.1094 4.7211 4.7113 4.7211h15.427c0.92933-0.47628 1.5456-1.4728 1.4683-2.5954" fill="#00547A"/>
<path d="m326.15 133c-0.94721 0-1.4864 1.2473-0.91607 2.1182h2.32e-4c0.98207 1.5 2.5189 2.3816 4.1504 2.3816 1.4136 0 2.6811 1.0037 3.1874 2.5237l0.27398 0.82251c0.23169 0.69484 0.81103 1.1539 1.4573 1.1539h0.28049c1.3346 0 2.4166-1.2462 2.4166-2.7836 0-3.4332-2.4161-6.2164-5.3967-6.2164h-5.4537z" fill="#00547A"/>
<g transform="translate(337 133)">
<mask id="f" fill="white">
<use xlink:href="#c"/>
</mask>
<path d="m5.354 12.719 0.56797-1.4477c0.49782-1.2699 1.7191-2.105 3.0787-2.105 1.5298 0 2.8688-1.0317 3.2643-2.5155l0.56168-2.1062c0.41065-1.5402 1.6456-2.7006 3.1734-3.0319-0.46473-0.28782-0.96767-0.51713-1.4981-0.67766-0.38455-0.11676-0.79521-0.24102-1.2108-0.36691-0.40716-0.12355-0.79754-0.28267-1.1721-0.46846-1.6 0.77921-2.9156 2.1149-3.6472 3.8319l-0.42254 0.99168c-0.57613 1.3527-1.8519 2.2735-3.3125 2.391l-1.0772 0.086345c-1.4019 0.11255-2.5861 1.0895-2.968 2.4488l-0.62018 2.2059c-0.22607 0.80448 0.10395 1.6034 0.71923 2.0444h3.468c0.4878-0.28524 0.87934-0.72984 1.0954-1.2807" fill="#00547A" mask="url(#f)"/>
</g>
<polygon points="253.08 95 188 95 188 143 271 143 271 95" fill="#0068C9"/>
<mask id="a" fill="white">
<use xlink:href="#b"/>
</mask>
<polygon points="192 143 271 143 271 142 192 142" fill="#1C417D" mask="url(#a)"/>
<polygon points="192 140 271 140 271 139 192 139" fill="#1C417D" mask="url(#a)"/>
<polygon points="192 138 271 138 271 137 192 137" fill="#1C417D" mask="url(#a)"/>
<polygon points="192 136 271 136 271 135 192 135" fill="#1C417D" mask="url(#a)"/>
<polygon points="192 134 271 134 271 133 192 133" fill="#1C417D" mask="url(#a)"/>
<polygon points="192 132 271 132 271 131 192 131" fill="#1C417D" mask="url(#a)"/>
<polygon points="192 129 271 129 271 128 192 128" fill="#1C417D" mask="url(#a)"/>
<polygon points="192 127 271 127 271 126 192 126" fill="#1C417D" mask="url(#a)"/>
<polygon points="192 125 271 125 271 124 192 124" fill="#1C417D" mask="url(#a)"/>
<polygon points="192 122 271 122 271 121 192 121" fill="#1C417D" mask="url(#a)"/>
<polygon points="192 120 271 120 271 119 192 119" fill="#1C417D" mask="url(#a)"/>
<polygon points="192 119 271 119 271 118 192 118" fill="#1C417D" mask="url(#a)"/>
<polygon points="192 116 271 116 271 115 192 115" fill="#1C417D" mask="url(#a)"/>
<polygon points="192 114 271 114 271 113 192 113" fill="#1C417D" mask="url(#a)"/>
<polygon points="192 111 271 111 271 110 192 110" fill="#1C417D" mask="url(#a)"/>
<polygon points="192 109 271 109 271 108 192 108" fill="#1C417D" mask="url(#a)"/>
<polygon points="192 107 271 107 271 106 192 106" fill="#1C417D" mask="url(#a)"/>
<polygon points="192 104 271 104 271 103 192 103" fill="#1C417D" mask="url(#a)"/>
<polygon points="192 102 271 102 271 101 192 101" fill="#1C417D" mask="url(#a)"/>
<polygon points="192 101 271 101 271 100 192 100" fill="#1C417D" mask="url(#a)"/>
<polygon points="192 98 271 98 271 97 192 97" fill="#1C417D" mask="url(#a)"/>
<polygon points="252.83 95 192 95 192 96 271 96 271 95" fill="#1C417D" mask="url(#a)"/>
<polygon points="274 95 269.17 95 259 143 263.83 143" fill="#1C417D" mask="url(#a)"/>
<polygon points="266.11 143 276 95 274.15 95 273.89 95 264 143" fill="#0068C9" mask="url(#a)"/>
<polygon points="331 95 326.49 95 317 143 321.51 143" fill="#1C417D" mask="url(#a)"/>
<polygon points="323.94 143 333 95 331.31 95 331.06 95 322 143" fill="#0068C9" mask="url(#a)"/>
<polygon points="148 86 168 86 168 41 148 41" fill="#B8DDFF" mask="url(#a)"/>
<polygon points="297 84 336 84 336 44 297 44" fill="#FAD1C5" mask="url(#a)"/>
<polygon points="255 84 295 84 295 44 255 44" fill="#FAD1C5" mask="url(#a)"/>
<polygon points="333.38 46 332.76 46 297 46 297 48.748 332.76 46.712 332.76 84 334 84 334 46" fill="#FC95A4" mask="url(#a)"/>
<polygon points="292.74 46 256 46 256 50.957 292.74 48.933 292.74 84 294 84 294 46 293.6 46" fill="#FC95A4" mask="url(#a)"/>
<path d="m291.5 62h-0.008544c-0.27375 0-0.4959 0.18415-0.4959 0.41108v3.1778c0 0.22693 0.22215 0.41108 0.4959 0.41108h0.008544c0.27375 0 0.49556-0.18415 0.49556-0.41108v-3.1778c0-0.22693-0.2218-0.41108-0.49556-0.41108" fill="#FC95A4" mask="url(#a)"/>
<path d="m297.5 62h-0.00786c-0.2741 0-0.49624 0.18415-0.49624 0.41108v3.1778c0 0.22693 0.22215 0.41108 0.49624 0.41108h0.00786c0.27409 0 0.4959-0.18415 0.4959-0.41108v-3.1778c0-0.22693-0.2218-0.41108-0.4959-0.41108" fill="#FC95A4" mask="url(#a)"/>
<polygon points="339 85 348 85 348 44 339 44" fill="#0068C9" mask="url(#a)"/>
<polygon points="338 85 340 85 340 44 338 44" fill="#3CA1FF" mask="url(#a)"/>
<polygon points="336 85 338 85 338 44 336 44" fill="#1C417D" mask="url(#a)"/>
<polygon points="294 84 295 84 295 46 294 46" fill="#1C417D" mask="url(#a)"/>
<polygon points="295 44 295 85 295.66 85 296 85 296 44 295.66 44" fill="#1C417D" mask="url(#a)"/>
<polygon points="335 84 336 84 336 46 335 46" fill="#1C417D" mask="url(#a)"/>
<path d="m291.5 62h-0.008544c-0.27375 0-0.4959 0.18415-0.4959 0.41108v3.1778c0 0.22693 0.22215 0.41108 0.4959 0.41108h0.008544c0.27375 0 0.49556-0.18415 0.49556-0.41108v-3.1778c0-0.22693-0.2218-0.41108-0.49556-0.41108" fill="#0068C9" mask="url(#a)"/>
<path d="m294.38 83.817h-0.78809-38.409v-38.634h38.409 0.78809v38.634zm-40.325-39.817h-0.055173v41h0.055173 40.719 0.22575v-41h-0.22575-40.719z" fill="#0068C9" mask="url(#a)"/>
<path d="m334.85 83.817h-0.76886-36.924v-38.634h36.924 0.76886v38.634zm0.38478-39.817h-39.177-0.053827v41h0.053827 39.177 0.76886v-41h-0.76886z" fill="#0068C9" mask="url(#a)"/>
<path d="m298.5 62h-0.008202c-0.2741 0-0.49624 0.18415-0.49624 0.41108v3.1778c0 0.22693 0.22215 0.41108 0.49624 0.41108h0.008202c0.27375 0 0.49556-0.18415 0.49556-0.41108v-3.1778c0-0.22693-0.2218-0.41108-0.49556-0.41108" fill="#0068C9" mask="url(#a)"/>
<polygon points="169 40 169 85.189 187.74 85.189 187.74 95 253 95 253 40" fill="#3CA1FF" mask="url(#a)"/>
<path d="m254.92 85.086h93.155v-40.769h-93.155v40.769zm94.602-45.086h-96.525v45.086 9.9144h96.525c0.26243 0 0.47542-0.21473 0.47542-0.47985v-9.4346-44.606c0-0.26536-0.21299-0.47985-0.47542-0.47985z" fill="#B8DDFF" mask="url(#a)"/>
<polygon points="255 85 337 85 337 74 255 74" fill="#FC95A4" mask="url(#a)"/>
<polygon points="339 85 348 85 348 74 339 74" fill="#1C417D" mask="url(#a)"/>
<polygon points="338 85 340 85 340 74 338 74" fill="#0068C9" mask="url(#a)"/>
<polygon points="336 85 338 85 338 74 336 74" fill="#001828" mask="url(#a)"/>
<polygon points="311 85 312 85 312 74 311 74" fill="#1C417D" mask="url(#a)"/>
<polygon points="312 85 313 85 313 74 312 74" fill="#0068C9" mask="url(#a)"/>
<polygon points="293 85 294 85 294 74 293 74" fill="#1C417D" mask="url(#a)"/>
<polygon points="294 85 295 85 295 74 294 74" fill="#0068C9" mask="url(#a)"/>
<polygon points="267 85 268 85 268 74 267 74" fill="#1C417D" mask="url(#a)"/>
<polygon points="267 85 268 85 268 74 267 74" fill="#0068C9" mask="url(#a)"/>
<polygon points="255 74 255 75 267.87 75 268.23 75 268.59 75 294.19 75 294.55 75 294.9 75 312.2 75 312.55 75 312.91 75 336.55 75 338.17 75 339.42 75 348 75 348 74" fill="#0080F6" mask="url(#a)"/>
<polygon points="178 75 187 75 187 47 178 47" fill="#FC95A4" mask="url(#a)"/>
<polygon points="178 75 179 75 179 48 178 48" fill="#001828" mask="url(#a)"/>
<path d="m179.07 74.37h-0.42799v-26.739h0.42799 7.2878v26.739h-7.2878zm7.9002-27.37h-8.5423-0.42799v28h0.42799 8.5423 0.029745v-28h-0.029745z" fill="#1C417D" mask="url(#a)"/>
<polygon points="177 75 178 75 178 47 177 47" fill="#0068C9" mask="url(#a)"/>
<polygon points="196 75 205 75 205 47 196 47" fill="#FC95A4" mask="url(#a)"/>
<polygon points="196 75 197 75 197 48 196 48" fill="#001828" mask="url(#a)"/>
<path d="m197.07 74.37h-0.42797v-26.739h0.42797 7.2876v26.739h-7.2876zm7.9-27.37h-8.542-0.42797v28h0.42797 8.542 0.02999v-28h-0.02999z" fill="#1C417D" mask="url(#a)"/>
<polygon points="195 75 196 75 196 47 195 47" fill="#0068C9" mask="url(#a)"/>
<polygon points="214 75 223 75 223 47 214 47" fill="#FC95A4" mask="url(#a)"/>
<polygon points="214 75 215 75 215 48 214 48" fill="#001828" mask="url(#a)"/>
<path d="m215.07 74.37h-0.42797v-26.739h0.42797 7.2876v26.739h-7.2876zm7.9-27.37h-8.5418-0.42822v28h0.42822 8.5418 0.02999v-28h-0.02999z" fill="#1C417D" mask="url(#a)"/>
<polygon points="213 75 214 75 214 47 213 47" fill="#0068C9" mask="url(#a)"/>
<polygon points="141 86 140.17 86 121 86 121 8 141 8" fill="#FAD1C5" mask="url(#a)"/>
<polygon points="137.75 85 139 85 139 8 137.75 8 121 8 121 10.789 137.75 8.8852" fill="#FC95A4" mask="url(#a)"/>
<polygon points="139 85 140 85 140 8 139 8" fill="#1C417D" mask="url(#a)"/>
<path d="m139.84 84.826h-0.77386-17.905v-73.877-2.7761h16.658 1.2469 0.77386v76.653zm0.38693-77.826h-20.172-0.053924v79h0.053924 20.172 0.77363v-79h-0.77363z" fill="#0068C9" mask="url(#a)"/>
<polygon points="141 86 143 86 143 7 141 7" fill="#3CA1FF" mask="url(#a)"/>
<polygon points="148 86 163 86 163 48 148 48" fill="#FAD1C5" mask="url(#a)"/>
<polygon points="162 85 162 48 150 48 150 50.429 160.97 48.618 160.97 85" fill="#FC95A4" mask="url(#a)"/>
<polygon points="162 85 163 85 163 48 162 48" fill="#1C417D" mask="url(#a)"/>
<path d="m162.81 85.81h-0.79341-12.826v-37.62h12.826 0.79341v37.62zm0.39683-38.81h-15.151-0.055304v40h0.055304 15.151 0.79366v-40h-0.79366z" fill="#0068C9" mask="url(#a)"/>
<polygon points="164 87 166 87 166 47 164 47" fill="#3CA1FF" mask="url(#a)"/>
<polygon points="123 143 151 143 151 95 123 95" fill="#FAD1C5" mask="url(#a)"/>
<polygon points="151 143 179 143 179 95 151 95" fill="#FAD1C5" mask="url(#a)"/>
<polygon points="92 143 120 143 120 95 92 95" fill="#FAD1C5" mask="url(#a)"/>
<path d="m147 116.06c-0.09845-0.035765-0.21103-0.057621-0.33318-0.057621-0.36873 0-0.66682 0.18592-0.66682 0.41527v3.1695c0 0.22907 0.29809 0.41527 0.66682 0.41527 0.12215 0 0.23473-0.021856 0.33318-0.057621-0.19827-0.071814-0.33318-0.20437-0.33318-0.35765v-3.1695c0-0.15328 0.13491-0.28584 0.33318-0.35765" fill="#FC95A4" mask="url(#a)"/>
<path d="m154 116.06c-0.098405-0.035765-0.21139-0.057621-0.33303-0.057621-0.36856 0-0.66697 0.18592-0.66697 0.41527v3.1695c0 0.22907 0.2984 0.41527 0.66697 0.41527 0.12164 0 0.23462-0.021856 0.33303-0.057621-0.19863-0.071814-0.33303-0.20437-0.33303-0.35765v-3.1695c0-0.15328 0.1344-0.28584 0.33303-0.35765" fill="#FC95A4" mask="url(#a)"/>
<path d="m118 116.06c-0.098405-0.035765-0.21139-0.057621-0.33303-0.057621-0.36856 0-0.66697 0.18592-0.66697 0.41527v3.1695c0 0.22907 0.2984 0.41527 0.66697 0.41527 0.12164 0 0.23462-0.021856 0.33303-0.057621-0.19863-0.071814-0.33303-0.20437-0.33303-0.35765v-3.1695c0-0.15328 0.1344-0.28584 0.33303-0.35765" fill="#FC95A4" mask="url(#a)"/>
<path d="m147.5 120c0.19105 0 0.35509-0.08998 0.43951-0.22084 0.037252-0.058189 0.060492-0.12376 0.060492-0.19444v-3.1695c0-0.070678-0.02324-0.13596-0.060492-0.19415-0.084416-0.13085-0.24846-0.22112-0.43951-0.22112-0.091593 0-0.17635 0.021856-0.25017 0.057621-0.14867 0.071814-0.24983 0.20437-0.24983 0.35765v3.1695c0 0.15328 0.10116 0.28584 0.24983 0.35765 0.073821 0.035765 0.15858 0.057621 0.25017 0.057621" fill="#0068C9" mask="url(#a)"/>
<polygon points="149 96 149 98.879 149 143 150 143 150 96" fill="#1C417D" mask="url(#a)"/>
<polygon points="150.78 95 122.05 95 122 95 122 143 123.17 143 123.17 101.09 123.17 96.156 148.35 96.156 149.6 96.156 150.39 96.156 150.39 143 151 143 151 95" fill="#0068C9" mask="url(#a)"/>
<polygon points="180 143 184 143 184 95 180 95" fill="#3CA1FF" mask="url(#a)"/>
<polygon points="151.66 95 151 95 151 143 152 143 152 95" fill="#1C417D" mask="url(#a)"/>
<polygon points="178 96 178 96.674 178 143 179 143 179 96" fill="#1C417D" mask="url(#a)"/>
<polygon points="179.25 95 152.05 95 152 95 152 143 153.13 143 153.13 98.845 153.13 96.156 176.9 96.156 178.12 96.156 178.87 96.156 178.87 143 180 143 180 95" fill="#0068C9" mask="url(#a)"/>
<path d="m153.5 120c0.27614 0 0.5-0.18592 0.5-0.41527v-3.1695c0-0.22935-0.22386-0.41527-0.5-0.41527-0.091593 0-0.17635 0.021856-0.24983 0.057621-0.14901 0.071814-0.25017 0.20437-0.25017 0.35765v3.1695c0 0.15328 0.10116 0.28584 0.25017 0.35765 0.073479 0.035765 0.15824 0.057621 0.24983 0.057621" fill="#0068C9" mask="url(#a)"/>
<path d="m118.5 120c0.19105 0 0.35543-0.08998 0.43951-0.22084 0.037252-0.058189 0.060492-0.12376 0.060492-0.19444v-3.1695c0-0.070678-0.02324-0.13596-0.060492-0.19415-0.084074-0.13085-0.24846-0.22112-0.43951-0.22112-0.091593 0-0.17635 0.021856-0.24983 0.057621-0.14901 0.071814-0.25017 0.20437-0.25017 0.35765v3.1695c0 0.15328 0.10116 0.28584 0.25017 0.35765 0.073479 0.035765 0.15824 0.057621 0.24983 0.057621" fill="#0068C9" mask="url(#a)"/>
<polygon points="119 96 119 101.24 119 143 120 143 120 96" fill="#1C417D" mask="url(#a)"/>
<polygon points="119.78 95 91.054 95 91 95 91 143 92.171 143 92.171 103.44 92.171 96.156 117.35 96.156 118.6 96.156 119.39 96.156 119.39 143 120 143 120 95" fill="#0068C9" mask="url(#a)"/>
<polygon points="120.62 95 120 95 120 143 121 143 121 95" fill="#1C417D" mask="url(#a)"/>
<path d="m149 98.879v-2.8793h-1.2852-25.715v4.9467l25.715-1.9691v17.388c0.026572 0.048425 0.04315 0.10299 0.04315 0.16181v2.6376c0 0.058819-0.016578 0.11315-0.04315 0.16181v23.673h1.2852v-44.121z" fill="#FC95A4" mask="url(#a)"/>
<polygon points="178 96.674 178 96 176.74 96 152 96 152 98.698 176.74 96.773 176.74 143 178 143" fill="#FC95A4" mask="url(#a)"/>
<path d="m120 101.24v-5.2415h-1.2852-25.715v7.3089l25.715-1.9691v15.026c0.026572 0.048425 0.04315 0.10299 0.04315 0.16181v2.6376c0 0.058819-0.016578 0.11315-0.04315 0.16181v23.673h1.2852v-41.758z" fill="#FC95A4" mask="url(#a)"/>
<path d="m10.475 147h336.05c0.26254 0 0.47519-0.21899 0.47519-0.48882v-3.0224c0-0.27007-0.21265-0.48882-0.47519-0.48882h-336.05c-0.2623 0-0.47519 0.21875-0.47519 0.48882v3.0224c0 0.26983 0.21288 0.48882 0.47519 0.48882" fill="#DFF0FF" mask="url(#a)"/>
<path d="m0 142.89v-1.4326c0-4.4089 2.4683-8.4419 6.3809-10.425l2.1964-1.1136c1.0607-0.53791 1.8053-1.5504 2.0059-2.7285l0.39799-2.3365c1.0683-6.2707 6.4702-10.854 12.792-10.854 5.7734 0 11.157 2.9314 14.315 7.7948l5.0573 7.7875c1.8988 2.9236 5.1351 4.6858 8.6053 4.6858h4.9833c2.1142 0 4.173 0.68119 5.8746 1.9438l3.7546 2.7855c1.0293 0.76371 1.6366 1.9741 1.6366 3.2608v0.95428c0 2.0918-1.6847 3.7876-3.7633 3.7876h-60.154c-2.2549 0-4.0828-1.8395-4.0828-4.1089" fill="#0097B8" mask="url(#a)"/>
<path d="m50.695 144.14v-0.21256c0-0.71275-0.2904-1.394-0.80315-1.8845l-5.2164-4.9895c-1.939-1.8547-4.5096-2.8884-7.1821-2.8884h-6.4429c-2.1472 0-4.2584-0.555-6.1327-1.6116l-1.3868-0.7821c-3.702-2.087-5.7267-6.2754-5.0774-10.502l0.57773-3.7599c0.14768-0.96106-0.1439-1.8516-0.69564-2.5124-3.7485 1.7875-6.5521 5.3315-7.2915 9.6804l-0.40028 2.3549c-0.062853 0.36889-0.18383 0.71847-0.34498 1.0459l-0.082702 0.56215c-0.42414 2.8858-2.5368 5.2264-5.3461 5.9222l-0.13256 0.032647c-1.7133 0.42441-3.142 1.4806-4.0673 2.8872-0.43643 1.242-0.67059 2.5679-0.67059 3.9298v1.4436c0 2.2872 1.8383 4.1412 4.1063 4.1412h8.415l0.023629-0.46683c0.090027-1.7691 1.5581-3.1458 3.3142-3.1081l1.9492 0.042179c1.3074 0.02812 2.5196-0.68725 3.1356-1.8504l0.38586-0.72872c0.63161-1.1929 1.8291-1.9724 3.1672-2.0618l1.9544-0.12987c2.1609-0.14417 4.1474 1.1965 4.8395 3.2659l0.42721 1.277c0.39886 1.1927-0.022684 2.5076-1.038 3.2394l-0.72376 0.52116h24.044l-0.80741-0.079592c-1.417-0.13988-2.4974-1.3414-2.4974-2.7771" fill="#00547A" mask="url(#a)"/>
<path d="m65.777 143.08h-3.2024c-0.85922 0-1.6867-0.34987-2.3162-0.979l-0.36001-0.35996c-0.47407-0.47412-1.0976-0.73764-1.7447-0.73764-1.0494 0-1.993 0.68843-2.3818 1.7376l-0.60984 1.6468c-0.35521 0.95883-0.099203 1.9647 0.50584 2.6157h9.0997c1.4007 0 2.6168-0.84712 3.2325-2.0911-0.26241-1.0326-1.134-1.8323-2.2231-1.8323" fill="#00547A" mask="url(#a)"/>
</g>
<g transform="translate(65 34)" fill="#B8DDFF" opacity=".59073">
<rect id="Rectangle" x="29" y="79" width="184" height="33" rx="16.5"/>
<rect id="Rectangle" x="92" y="96" width="184" height="33" rx="16.5"/>
<rect id="Rectangle" x="145" y="56" width="92" height="33" rx="16.5"/>
<rect id="i" width="92" height="33" rx="16.5"/>
<rect x="276" width="39" height="33" rx="16.5"/>
</g>
</g>
</svg>
