<?xml version="1.0" encoding="UTF-8"?>
<svg version="1.1" viewBox="0 0 420 420" xmlns="http://www.w3.org/2000/svg" xmlns:xlink="http://www.w3.org/1999/xlink">
<title>5. Elements_Illustrations/2.Vector/Scenery</title>
<defs>
<polygon id="b" points="-2.4994e-15 0 366 0 366 133 -2.4994e-15 133"/>
<polygon id="a" points="0 -1.0762e-14 76 -1.0762e-14 76 23 0 23"/>
</defs>
<g fill="none" fill-rule="evenodd">
<g transform="translate(26 51)" fill="#B8DDFF" opacity=".59073">
<rect id="Rectangle" x="165" width="184" height="33" rx="16.5"/>
<rect id="e" y="17" width="184" height="33" rx="16.5"/>
<rect x="215" y="50" width="85" height="33" rx="16.5"/>
</g>
<g transform="translate(27 239)">
<mask id="d" fill="white">
<use xlink:href="#b"/>
</mask>
<path d="m-2.4994e-15 133 18.15-18.429c3.1668-3.2152 7.6177-4.8243 12.107-4.3776l6.6536 0.66256c4.5356 0.45162 8.9839-1.4652 11.772-5.0726l14.021-18.14c0.81052-1.0486 2.3171-1.2426 3.3659-0.43241l2.2113 1.7071c1.114 0.85993 2.7177 0.62979 3.5451-0.50925l25.046-34.469c0.35312-0.48628 0.73109-0.95334 1.1324-1.4004l42.117-46.931c6.5452-7.293 17.899-7.5013 24.707-0.45313l11.091 11.483 13.719 15.625c1.1738 1.3368 3.1371 1.6385 4.658 0.71529l3.4183-2.0751c3.1619-1.9191 7.2341-1.3699 9.7756 1.318l29.165 30.847c2.7625 2.9218 6.3682 4.9068 10.313 5.6782l35.331 6.9073c3.1197 0.6102 5.9763 2.1658 8.182 4.456l28.402 29.491c2.3736 2.4649 5.7832 3.6439 9.1717 3.1719l1.6022-0.22336c3.3479-0.46669 6.7507 0.3115 9.564 2.1877l26.778 17.857-366 0.40642z" fill="#3CA1FF" mask="url(#d)"/>
<path d="m49.787 112.91c3.0884 0.53334 6.0676-1.3822 6.8127-4.3797l0.53665-2.1606c0.49079-1.976 1.4352-3.8154 2.7602-5.3767l4.2708-5.0332c0.88001-1.0372 1.3431-2.356 1.3014-3.7069l-0.094368-3.0632c-0.021602-0.70789 0.2039-1.3949 0.62571-1.9573-1.0062-0.47553-2.2466-0.21408-2.9569 0.68999l-14.115 17.962c-2.6173 3.331-6.6884 5.2044-10.928 5.0794l1.94 0.24616 9.8469 1.7004z" fill="#0068C9"/>
<g transform="translate(0 110)">
<mask id="c" fill="white">
<use xlink:href="#a"/>
</mask>
<path d="m69.798 18.876-13.478-1.4756c-1.1797-0.12912-2.2436-0.77318-2.9111-1.7622-1.5074-2.2332-3.8183-3.7871-6.4433-4.3328l-14.638-3.0431c-2.958-0.61529-4.22-4.1673-2.3207-6.5338 0.61709-0.76901 1.4841-1.2647 2.4248-1.4316l-2.2259-0.2234c-4.482-0.44982-8.9248 1.1685-12.086 4.4005l-18.119 18.526 76-0.085194-1.1263-1.332c-1.2868-1.5217-3.1031-2.4903-5.0761-2.7065" fill="#0068C9" mask="url(#c)"/>
</g>
<path d="m94.507 78.391c4.2575-0.82528 7.9761-3.4016 10.254-7.1041l8.7236-14.179c2.2304-3.6253 6.3136-5.6712 10.542-5.2816l7.6809 0.70701c1.8023 0.16627 3.2468-1.4715 2.8638-3.2467l-1.8648-8.6401c-1.0672-4.9453-0.52531-10.104 1.5462-14.717l4.4277-9.8611c0.4018-0.89443 0.89473-1.7447 1.4713-2.5374l9.8492-13.53c-3.6215 0.61405-7.0772 2.4135-9.7381 5.387l-42.13 47.082c-0.40105 0.44816-0.77912 0.91711-1.1323 1.4046l-24 33.126 7.0509-4.3361c2.3084-1.4201 4.8532-2.4112 7.5118-2.9267l6.9443-1.3464z" fill="#0068C9"/>
<path d="m301.37 128.78-4.1616-0.42043c-2.8376-0.28678-5.4977-1.5017-7.5586-3.453l-6.2917-5.9557c-1.8196-1.7225-4.2142-2.7248-6.7306-2.8169l-6.2516-0.2295c-7.1565-0.26244-13.679-4.1343-17.281-10.26l-4.7774-8.123c-0.83148-1.4141-1.9932-2.6098-3.388-3.4874l-23.68-14.902c-0.64499-0.40583-1.4473 0.21527-1.2049 0.93259l4.7922 14.172c1.1129 3.2916 1.0002 6.8688-0.31814 10.086l-1.1928 2.9101c-1.2098 2.9531 0.22395 6.3177 3.2053 7.5214l22.449 9.0612c2.8323 1.143 5.3339 2.9636 7.281 5.2983l3.2446 3.8902 48.494-0.053163c-1.4212-2.3407-3.8737-3.8921-6.6307-4.1703" fill="#0068C9"/>
<path d="m183.31 113.28-8.0001-2.3227c-5.8861-1.709-11.164-5.0457-15.221-9.6226l-3.3176-3.7428c-3.7766-4.2614-6.3556-9.4404-7.475-15.013l-0.86229-4.2925c-0.51873-2.582-2.264-4.7524-4.6806-5.8215l-4.5378-2.008c-2.2542-0.99725-4.9012-0.3263-6.4014 1.6229l-15.899 20.656c-1.0371 1.3468-1.6231 2.9835-1.6765 4.6798l-0.22516 7.1772c-0.22553 7.1791-4.7855 13.511-11.543 16.028l-3.636 1.3546c-3.0793 1.1473-5.7718 3.1343-7.7689 5.7343l-4.063 5.289 118-0.12985-0.18306-0.38992c-4.3836-9.3225-12.584-16.317-22.511-19.2" fill="#0068C9"/>
<path d="m330.31 113.13-1.5927 0.22117c-1.2817 0.17723-2.5661 0.11691-3.7958-0.15787l-2.0882 0.57302c-2.4838 0.68174-3.4792 3.6522-1.9037 5.6803 0.74135 0.95466 0.86298 2.2493 0.31211 3.3242l-5.2415 10.229 16.857-0.018244c0.88693-1.2239 1.0228-2.9653-0.03892-4.3597-1.3514-1.7749-1.687-4.1176-0.88768-6.1975l1.3499-3.5126c0.53552-1.3933 1.4475-2.6116 2.6357-3.5215l0.43112-0.32952c0.42438-0.32505 0.62646-0.76068 0.65303-1.1989-2.1193-0.78637-4.4174-1.0466-6.6901-0.73164" fill="#0068C9"/>
<path d="m183.8 51.309 0.8271 0.24511c4.278 1.2674 7.8252 4.3049 9.7644 8.3623l4.5466 9.5117 3.1879 7.0885c0.34248 0.76134 1.4598 0.5811 1.5501-0.25039l1.2468-11.456c0.24399-2.2414-0.059692-4.5085-0.88418-6.6036l-4.1698-10.594c-0.726-1.844-0.96663-3.8471-0.69802-5.8132l0.61594-4.5138c0.2507-1.8383 1.1069-3.5371 2.4302-4.8237l0.85956-0.83488c0.37494-0.36465 0.52267-0.85335 0.47343-1.3191-2.0329-0.59128-4.2776-0.34353-6.1881 0.82847l-3.3879 2.0778c-1.5072 0.92349-3.4528 0.62182-4.616-0.71685l-1.6934-1.9484-1.8654 0.29375c-1.909 0.29941-3.1013 2.2527-2.5115 4.1122l1.1282 3.5541c0.48387 1.525 0.40851 3.1747-0.21228 4.6476l-1.9982 4.7419c-0.58572 1.39 0.16005 2.985 1.5945 3.41" fill="#0068C9"/>
<path d="m207.26 32.256c-2.539-2.6912-6.6069-3.2406-9.7657-1.319l-3.4153 2.0777c-1.5191 0.92346-3.4808 0.6218-4.6534-0.71682l-13.706-15.642-11.08-11.496c-6.8013-7.0558-18.144-6.8477-24.683 0.45362l-33.955 37.915c0.18918 0.30279 0.47275 0.55279 0.83869 0.69344 0.73038 0.28168 1.551 0.18929 2.2005-0.24736l12.192-8.2014c1.4912-1.003 3.4544-0.93817 4.8765 0.16063l4.2608 3.293c1.1651 0.90046 2.8617 0.49284 3.4932-0.83899l2.3442-4.9461c0.2659-0.56109 1.0267-0.64744 1.4111-0.16063l1.2656 1.6033c0.58483 0.7402 1.744 0.59653 2.1306-0.26433l3.594-7.997c0.47162-1.0494 1.9922-0.93779 2.307 0.16893l2.5913 9.1196c0.1809 0.63688 0.94738 0.88688 1.4668 0.47851l5.55-4.3598c0.69239-0.54412 1.6559-0.57806 2.3844-0.083711l2.8753 1.9502c1.2061 0.81788 2.8485 0.46456 3.6135-0.77753l2.7444-4.4544c0.79018-1.2824 2.442-1.7229 3.7628-1.0026l17.228 9.3933c1.2599 0.68703 2.2626 1.7658 2.8572 3.0739l2.1704 4.776c0.3005 0.66139 1.2573 0.60106 1.4724-0.093138l0.74617-2.4065c0.19181-0.61916 0.7631-1.0407 1.4092-1.0407h0.96243c0.94362 0 1.8447 0.3948 2.486 1.0894l0.10719 0.11576c0.61492 0.66592 1.7037 0.51018 2.1088-0.30128l1.7379-3.4853c0.31705-0.63613 1.1783-0.74209 1.6398-0.20249l1.0899 1.2749c0.32758 0.38311 0.95039 0.22361 1.0549-0.26961l0.18805-0.89028c0.095905-0.45325 0.65704-0.61652 0.98011-0.28507l9.751 10.016c0.79243 0.81373 1.8421 1.3258 2.9697 1.4495l1.1381 0.12406-16.742-17.744z" fill="#B8DDFF"/>
<path d="m140.2 5.358-34.203 37.79c0.19056 0.30218 0.47658 0.55136 0.84481 0.69155 0.73571 0.28075 1.5623 0.18867 2.2166-0.24693l12.281-8.1745c1.5021-0.99973 3.4796-0.93509 4.912 0.16011l4.2919 3.2826c0.55159 0.42169 1.2202 0.55173 1.8412 0.43785-0.76412-4.5698-0.1557-9.2708 1.7696-13.51l4.454-9.8075c0.40422-0.88999 0.9005-1.7356 1.4805-2.5238l9.9086-13.458c-3.6437 0.61074-7.1199 2.4005-9.7968 5.358" fill="#3CA1FF"/>
<path d="m203.99 30.317c-2.0906-0.60723-4.3992-0.35263-6.3644 0.85136l-3.4838 2.1352c-1.55 0.94901-3.5509 0.639-4.7476-0.73627l-1.7415-2.0023-1.918 0.30148c-1.626 0.25498-2.7433 1.676-2.7353 3.2419l6.0959 3.3481c1.2849 0.70604 2.3082 1.8147 2.9148 3.159l2.2138 4.9082c0.30694 0.67969 1.2826 0.61769 1.5021-0.095715l0.7616-2.4731c0.19568-0.6359 0.7781-1.0691 1.4372-1.0691h0.98183c0.2045 0 0.40593 0.0217 0.60467 0.057739l0.60851-4.4556c0.25783-1.8891 1.138-3.6352 2.4993-4.957l0.8836-0.85833c0.38598-0.37472 0.53791-0.87693 0.48727-1.3555" fill="#3CA1FF"/>
</g>
</g>
</svg>
