<svg viewBox="0 0 420 420" xmlns="http://www.w3.org/2000/svg" xmlns:xlink="http://www.w3.org/1999/xlink"><defs><path id="a" d="M0 0h366v133H0z"/><path id="c" d="M0 0h76v23H0z"/></defs><g fill="none" fill-rule="evenodd"><g transform="translate(26 51)" fill="#B8DDFF" opacity=".591"><rect x="165" width="184" height="33" rx="16.5"/><rect y="17" width="184" height="33" rx="16.5"/><rect x="215" y="50" width="85" height="33" rx="16.5"/></g><g transform="translate(27 239)"><mask id="b" fill="#fff"><use xlink:href="#a"/></mask><path d="m0 133 18.15-18.429a14.92 14.92 0 0 1 12.107-4.378l6.654.663a13.222 13.222 0 0 0 11.772-5.073l14.02-18.14a2.4 2.4 0 0 1 3.366-.432l2.212 1.707c1.114.86 2.717.63 3.545-.51L96.872 53.94c.353-.486.731-.954 1.132-1.4l42.117-46.932c6.545-7.293 17.9-7.5 24.707-.453l11.091 11.483 13.72 15.625a3.666 3.666 0 0 0 4.657.716l3.419-2.076a7.849 7.849 0 0 1 9.775 1.318l29.165 30.847a19.287 19.287 0 0 0 10.313 5.679l35.331 6.907c3.12.61 5.976 2.166 8.182 4.456l28.402 29.491a10.686 10.686 0 0 0 9.172 3.172l1.602-.223c3.348-.467 6.75.311 9.564 2.187L366 132.594l-366 .407z" fill="#3CA1FF" mask="url(#b)"/><path d="M49.787 112.91c3.088.533 6.068-1.382 6.813-4.38l.536-2.16a13.246 13.246 0 0 1 2.76-5.377l4.271-5.033a5.467 5.467 0 0 0 1.302-3.707l-.095-3.063A3.104 3.104 0 0 1 66 87.232a2.443 2.443 0 0 0-2.957.69l-14.115 17.962c-2.617 3.331-6.688 5.205-10.928 5.08l1.94.246 9.847 1.7z" fill="#0068C9"/><g transform="translate(0 110)"><mask id="d" fill="#fff"><use xlink:href="#c"/></mask><path d="M69.798 18.876 56.32 17.4a4.044 4.044 0 0 1-2.911-1.762 10.309 10.309 0 0 0-6.443-4.333L32.328 8.262c-2.958-.615-4.22-4.167-2.321-6.533A3.998 3.998 0 0 1 32.432.297L30.206.074a14.832 14.832 0 0 0-12.086 4.4L0 23l76-.085-1.126-1.332a7.756 7.756 0 0 0-5.076-2.707" fill="#0068C9" mask="url(#d)"/></g><path d="M94.507 78.391a15.507 15.507 0 0 0 10.254-7.104l8.724-14.18a11.175 11.175 0 0 1 10.542-5.28l7.68.706c1.803.167 3.247-1.471 2.864-3.246l-1.864-8.64a23.718 23.718 0 0 1 1.546-14.717l4.427-9.862c.402-.894.895-1.744 1.472-2.537L150 .001a16.788 16.788 0 0 0-9.738 5.387L98.133 52.47c-.401.448-.78.917-1.132 1.405L73 87l7.05-4.336a22.516 22.516 0 0 1 7.512-2.927l6.944-1.347zM301.37 128.78l-4.162-.42a12.877 12.877 0 0 1-7.558-3.453l-6.292-5.956a10.341 10.341 0 0 0-6.73-2.817l-6.252-.23c-7.157-.262-13.68-4.134-17.281-10.26l-4.778-8.123a10.276 10.276 0 0 0-3.388-3.487l-23.68-14.902c-.644-.406-1.447.215-1.204.933l4.792 14.172a14.41 14.41 0 0 1-.318 10.086l-1.193 2.91c-1.21 2.953.224 6.317 3.205 7.521l22.45 9.061a18.486 18.486 0 0 1 7.28 5.299l3.245 3.89L308 132.95a8.785 8.785 0 0 0-6.63-4.17M183.31 113.28l-8-2.323a32.415 32.415 0 0 1-15.221-9.622l-3.318-3.743a32.197 32.197 0 0 1-7.475-15.013l-.862-4.293a8.118 8.118 0 0 0-4.68-5.821l-4.538-2.008a5.35 5.35 0 0 0-6.402 1.623l-15.899 20.656a8.086 8.086 0 0 0-1.676 4.68l-.225 7.177c-.226 7.179-4.786 13.51-11.543 16.028l-3.636 1.354a17.497 17.497 0 0 0-7.77 5.735l-4.062 5.289 118-.13-.183-.39c-4.384-9.323-12.584-16.317-22.511-19.2M330.31 113.13l-1.593.221a10.687 10.687 0 0 1-3.795-.158l-2.089.573c-2.483.682-3.479 3.653-1.903 5.68.741.955.863 2.25.312 3.325L316 133l16.857-.018c.887-1.224 1.023-2.966-.039-4.36a6.422 6.422 0 0 1-.887-6.198l1.35-3.512a8.093 8.093 0 0 1 2.635-3.522l.431-.33c.425-.324.627-.76.653-1.198a13.792 13.792 0 0 0-6.69-.732M183.8 51.309l.827.245a15.816 15.816 0 0 1 9.765 8.362l4.546 9.512 3.188 7.089c.342.76 1.46.58 1.55-.25l1.247-11.457a13.922 13.922 0 0 0-.884-6.603l-4.17-10.594a11.591 11.591 0 0 1-.698-5.814l.616-4.513a8.289 8.289 0 0 1 2.43-4.824l.86-.835c.375-.365.522-.853.473-1.32a7.695 7.695 0 0 0-6.188.83l-3.388 2.077a3.608 3.608 0 0 1-4.616-.717l-1.693-1.948-1.866.294c-1.909.3-3.101 2.252-2.511 4.112l1.128 3.554a6.732 6.732 0 0 1-.212 4.648l-1.999 4.742c-.585 1.39.16 2.985 1.595 3.41" fill="#0068C9"/><path d="M207.26 32.256a7.828 7.828 0 0 0-9.766-1.319l-3.415 2.078a3.658 3.658 0 0 1-4.653-.717L175.72 16.656 164.64 5.16c-6.802-7.056-18.144-6.848-24.683.454l-33.955 37.915c.189.302.472.552.838.693.73.282 1.551.19 2.2-.247l12.193-8.202a4.168 4.168 0 0 1 4.876.16l4.261 3.294c1.165.9 2.862.493 3.493-.84l2.344-4.945a.835.835 0 0 1 1.412-.16l1.265 1.602c.585.74 1.744.597 2.13-.264l3.595-7.997c.471-1.05 1.992-.938 2.307.169l2.591 9.12a.928.928 0 0 0 1.467.478l5.55-4.36a2.02 2.02 0 0 1 2.384-.083l2.876 1.95a2.557 2.557 0 0 0 3.613-.778l2.744-4.454a2.828 2.828 0 0 1 3.763-1.003l17.228 9.394a6.621 6.621 0 0 1 2.857 3.073l2.17 4.776c.301.662 1.258.602 1.473-.093l.746-2.406c.192-.62.764-1.04 1.41-1.04h.962c.944 0 1.845.394 2.486 1.089l.107.115c.615.666 1.704.51 2.11-.301l1.737-3.485a.99.99 0 0 1 1.64-.203l1.09 1.275a.607.607 0 0 0 1.055-.27l.188-.89a.578.578 0 0 1 .98-.285l9.75 10.016a4.889 4.889 0 0 0 2.97 1.45l1.139.124-16.742-17.744z" fill="#B8DDFF"/><path d="m140.2 5.358-34.203 37.79c.19.302.477.551.845.692.736.28 1.562.188 2.216-.247l12.281-8.175c1.503-1 3.48-.935 4.912.16l4.292 3.283c.552.422 1.22.552 1.842.438a23.347 23.347 0 0 1 1.77-13.51l4.453-9.808c.404-.89.9-1.735 1.48-2.524L149.999 0c-3.644.611-7.12 2.4-9.798 5.358M203.99 30.317a7.924 7.924 0 0 0-6.364.851l-3.484 2.136a3.713 3.713 0 0 1-4.748-.737l-1.741-2.002-1.918.301c-1.626.255-2.744 1.676-2.736 3.242l6.096 3.348a6.787 6.787 0 0 1 2.915 3.16l2.214 4.908a.803.803 0 0 0 1.502-.096l.762-2.473a1.507 1.507 0 0 1 1.437-1.07h.982c.204 0 .406.022.604.058l.609-4.455a8.512 8.512 0 0 1 2.5-4.957l.883-.858c.386-.375.538-.877.487-1.356" fill="#3CA1FF"/></g></g></svg>