<?xml version="1.0" encoding="UTF-8"?>
<svg version="1.1" viewBox="0 0 420 420" xmlns="http://www.w3.org/2000/svg">
<title>5. Elements_Illustrations/2.Vector/Work_table</title>
<g fill="none" fill-rule="evenodd">
<g transform="translate(29 77)">
<g transform="translate(48 73)">
<path d="m9.4045 6.6304c0.0091915 0 0.018383 0.0011661 0.027575 0.0017492 0.33492 0.0017492 0.66179 0.039647 0.97718 0.10845 0.35158-0.18483 0.72843-0.32592 1.1242-0.41746 0.33951-0.078712 0.69224-0.12419 1.0553-0.12419 0.18096 0 0.35847 0.012827 0.53426 0.033234 0.58768 0.068217 1.1426 0.24313 1.6459 0.50842 0.0074681-0.0011661 0.014936-0.0011661 0.02183-0.0029152 0.14247-0.030902 0.28609-0.054807 0.432-0.072298 0.18096-0.021573 0.36421-0.034983 0.55092-0.034983 0.14017 0 0.27402 0.021573 0.41075 0.0344 0.2137 0.018658 0.42339 0.053057 0.62847 0.099118 0.5423-0.5574 0.88469-1.3148 0.88469-2.1614v-1.2244c0-1.7124-1.3678-3.1007-3.0545-3.1007-0.11202 0-0.2183 0.022156-0.32745 0.033817-0.11202 0.012827-0.22577 0.019824-0.33434 0.043729-0.41936-0.21981-0.88813-0.35508-1.3925-0.35508-0.23266 0-0.4567 0.031485-0.675 0.081627-0.25449 0.058305-0.49117 0.15509-0.71694 0.27345-0.2137-0.04781-0.43373-0.077546-0.66179-0.077546-0.61124 0-1.1777 0.18716-1.6551 0.50084-0.84045 0.55215-1.3994 1.5078-1.3994 2.5998v1.2244c0 0.84309 0.33549 1.6028 0.87435 2.1602 0.33894-0.078712 0.68707-0.13235 1.0496-0.13235" fill="#CE643A"/>
<path d="m14.316 0.31141c-0.11202 0.012244-0.22577 0.019824-0.33434 0.043729 0.98292 0.51542 1.6625 1.5445 1.6625 2.7444v1.5031c0 0.83143-0.3263 1.5812-0.85252 2.1345 0.14189-0.030319 0.28551-0.054224 0.432-0.072298 0.18096-0.02099 0.36364-0.0344 0.55034-0.0344 0.14017 0 0.27402 0.021573 0.41075 0.033817 0.18613-0.35858 0.29298-0.76613 0.29298-1.1999v-2.6056c0-1.2944-0.93926-2.3567-2.1617-2.5473" fill="#AD330D"/>
<path d="m11.914 0.081394c-0.25449 0.058888-0.49117 0.15567-0.71751 0.27403-0.63881 0.33525-1.1518 0.88157-1.4287 1.5602-0.20221-0.44895-0.51013-0.83434-0.88756-1.1375-0.84045 0.55273-1.3994 1.5078-1.3994 2.5998v1.225c0 0.84251 0.33549 1.6022 0.87435 2.1596 0.33894-0.078712 0.68707-0.13235 1.0496-0.13235 0.0091915 0 0.018383 0.0011661 0.027575 0.0017492 0.16258-0.21806 0.29815-0.45769 0.39926-0.71715 0.14362 0.31077 0.34583 0.58363 0.57792 0.82618 0.35158-0.18541 0.72786-0.32651 1.1242-0.41805 0.33951-0.078712 0.69224-0.12419 1.0553-0.12419 0.18096 0 0.35847 0.01341 0.53368 0.033817 0.0022979-0.038481 0.013787-0.072881 0.013787-0.11136v-4.2615c0-0.81802-0.51013-1.5083-1.2225-1.7783" fill="#AD330D"/>
<path d="m19.04 7.5528h-0.16487c-0.10111 0-0.20049 0.0087457-0.30045 0.015159-0.51645-0.38598-1.115-0.65943-1.7619-0.80461-0.20509-0.045478-0.41477-0.079878-0.62847-0.098535-0.13672-0.012827-0.27115-0.0344-0.41132-0.0344-0.18613 0-0.36939 0.01341-0.55034 0.034983-0.14592 0.017491-0.29011 0.041396-0.432 0.072298-0.0074682 0.0011661-0.014936 0.0017492-0.022404 0.0029152-0.50266-0.26529-1.0582-0.4402-1.6459-0.50842-0.17521-0.020407-0.35273-0.033234-0.53368-0.033234-0.36307 0-0.71579 0.045478-1.0553 0.12419-0.39639 0.091539-0.77324 0.23264-1.1242 0.41746-0.31596-0.0688-0.64226-0.1067-0.97775-0.10845-0.0091916-5.8305e-4 -0.017809-0.0017492-0.027-0.0017492-0.36249 0-0.7112 0.053641-1.0496 0.13235h-5.7447e-4c-0.54058 0.12594-1.0507 0.33525-1.504 0.63086-0.085022 0.054807-0.1666 0.11428-0.2476 0.17433-0.099958-0.0064135-0.19934-0.015159-0.30045-0.015159h-0.16487c-0.98867 0-1.9026 0.31485-2.6564 0.84834-1.2058 0.853-1.9969 2.2692-1.9969 3.8744v3.8551c0 0.76263 0.18211 1.4804 0.49864 2.1171 2.2973-0.6431 6.3663-0.64369 11.006-0.64369h0.44809c1.2604 0 2.4748 0.0023322 3.6192 0.018658 0.53024 0.0075797 1.0461 0.018658 1.543 0.033234 0.55666 0.016908 1.0903 0.04023 1.5999 0.070549 0.56356 0.033234 1.0961 0.075796 1.593 0.1306 0.54 0.058305 1.0352 0.13177 1.4844 0.22214 0.26598-0.59413 0.41649-1.2536 0.41649-1.9486v-3.8551c0-2.6086-2.0836-4.7227-4.6532-4.7227" fill="#0097B8"/>
<path d="m18.584 7.575c1.1656 0.87516 1.9251 2.2762 1.9251 3.8615v4.6102c0 0.59354-0.11604 1.1556-0.30964 1.6798 0.56356 0.033234 1.0961 0.075796 1.593 0.1306 0.0017234-0.049559 0.0086171-0.097369 0.0086171-0.14693v-6.4975c0-1.8879-1.4086-3.4406-3.217-3.6376" fill="#00547A"/>
<path d="m15.223 6.6652c-0.15396 0.018075-0.30504 0.043146-0.45441 0.075796 1.5178 0.80111 2.5558 2.4086 2.5558 4.2638v5.0422c0 0.55331-0.09766 1.0816-0.2677 1.576 0.53024 0.0075797 1.0461 0.018075 1.543 0.033234 0.0057447-0.090956 0.017234-0.18075 0.017234-0.27287v-6.7517c0-2.0226-1.4764-3.6901-3.394-3.9665" fill="#00547A"/>
<path d="m11.534 6.323c-0.39581 0.091539-0.77266 0.23264-1.1242 0.41805-0.98235 0.51833-1.7636 1.3737-2.1922 2.4179-0.31424-0.69325-0.78415-1.2973-1.3667-1.7655-0.084447 0.05539-0.1666 0.11428-0.2476 0.17491-0.63824 0.47635-1.153 1.1107-1.4902 1.8471-0.4659-0.44312-1.0191-0.79061-1.6315-1.0145-1.2058 0.853-1.9963 2.2692-1.9963 3.8744v3.8551c0 0.76263 0.18153 1.4804 0.49864 2.1171 2.2967-0.64252 6.3657-0.6431 11.006-0.6431h0.44809v-8.5224c0-1.2699-0.79449-2.3433-1.9038-2.759" fill="#00547A"/>
<path d="m25.973 20.027c5.745e-4 -0.015742 0.0040213-0.031485 0.0040213-0.048393 0-0.9871-1.0093-1.5632-2.7-1.8996-0.44924-0.08979-0.94443-0.16325-1.4844-0.22214-0.49692-0.054224-1.0295-0.097369-1.593-0.13002-0.50956-0.030319-1.0432-0.05364-1.5999-0.070549-0.49692-0.015159-1.0128-0.025654-1.543-0.033234-1.1443-0.016325-2.3582-0.018658-3.6192-0.018658h-0.44809c-4.64 0-8.709 5.83e-4 -11.006 0.6431-1.2535 0.35158-1.9814 0.89265-1.9814 1.7311 0 0.016908 0.0028724 0.032651 0.0034468 0.048393h-0.0051702l0.0017234 16.73c5.7447e-4 0.68683 0.54862 1.2431 1.2253 1.2431h23.546c0.67615 0 1.2248-0.55623 1.2248-1.2431l0.0017234-16.73h-0.027z" fill="#DFF0FF"/>
<path d="m25.969 36.23c-0.12006 0.55856-0.60894 0.97777-1.1955 0.97777h-12.072c-1.5338-0.33467-2.6541-1.6978-2.6621-3.3106l-0.06549-13.12c-0.0068937-1.3917 0.96052-2.5922 2.3059-2.8622l1.5471-0.31018h-0.837c-7.1734 0-12.988 0-12.988 2.3742 0 0.017492 0.0068937 0.032068 0.0080426 0.048393h-0.009766l0.0011489 16.203v0.52708c5.7447e-4 0.68683 0.54862 1.2431 1.2253 1.2431h23.546c0.67673 0 1.2248-0.55623 1.2253-1.2431v-0.52708h-0.029872z" fill="#B8DDFF"/>
</g>
<g transform="translate(103)">
<path d="m52.882 46.478-17.218 53.397c-2.2535 6.9889 3.0234 14.125 10.445 14.125h45.857c0.45209 0 0.81884-0.36247 0.81884-0.80928v-1.1267c0-0.44738-0.36675-0.80985-0.81884-0.80985h-17.434c-6.9982 0-12.205-6.3922-10.71-13.149l11.263-50.915c0.18972-0.85943-0.47228-1.6727-1.362-1.6727h-19.513c-0.60721 0-1.1441 0.38868-1.3286 0.96031" fill="#EFF7FF"/>
<path d="m64.237 96.228 10.848-49.037c0.18972-0.85943-0.47228-1.6727-1.3626-1.6727h-19.512c-0.60721 0-1.1446 0.38811-1.3286 0.95974l-16.042 49.75h27.398z" fill="#B8DDFF"/>
<path d="m52.901 46.449-17.305 53.314c-2.2847 7.0385 3.028 14.237 10.507 14.237h45.863c0.45209 0 0.81942-0.3619 0.81942-0.80928v-1.1262c0-0.44738-0.36733-0.80985-0.81942-0.80985h-46.012c-5.7071 0-9.7511-5.506-7.9831-10.869l17.509-53.113c0.28544-0.8657-0.36733-1.7548-1.2888-1.7548-0.58876 0-1.1106 0.37614-1.2905 0.93067" fill="#3CA1FF"/>
<path d="m130.24 0h-1.7847-121.91-1.7847c-2.6289 0-4.7597 2.1058-4.7597 4.7041v79.691c0 2.5982 2.1307 4.7041 4.7597 4.7041h1.7847 121.91 1.7847c2.6289 0 4.7597-2.1058 4.7597-4.7041v-79.691c0-2.5982-2.1307-4.7041-4.7597-4.7041" fill="#DFF0FF"/>
<path d="m135 77.268h-133.22v-72.564c0-2.5982 2.1313-4.7041 4.7597-4.7041h123.7c2.6289 0 4.7597 2.1058 4.7597 4.7041v72.564z" fill="#1C417D"/>
<path d="m129.42 73.03h-122.05c-0.32235 0-0.58415-0.25817-0.58415-0.57732v-66.438c0-0.31858 0.2618-0.57789 0.58415-0.57789h122.05c0.32235 0 0.58415 0.25931 0.58415 0.57789v66.438c0 0.31915-0.2618 0.57732-0.58415 0.57732" fill="#D5F8FF"/>
<path d="m6.5445 0h-1.7847c-2.6289 0-4.7597 2.1058-4.7597 4.7041v79.691c0 2.5982 2.1307 4.7041 4.7597 4.7041h1.7847c-2.6289 0-4.7597-2.1058-4.7597-4.7041v-79.691c0-2.5982 2.1307-4.7041 4.7597-4.7041" fill="#3CA1FF"/>
<path d="m69.174 1.9056c-0.56396 0-1.0207 0.45194-1.0207 1.0093 0 0.55681 0.45671 1.0082 1.0207 1.0082 0.56396 0 1.0207-0.45137 1.0207-1.0082 0-0.55738-0.45671-1.0093-1.0207-1.0093" fill="#3CA1FF"/>
</g>
<g transform="translate(288 48)">
<path d="m13.296 2.3922c0-1.321-1.0305-2.3918-2.3022-2.3918h-5.9882c-1.2712 0-2.3022 1.0708-2.3022 2.3918v5.2079c0 0.017704 0.0082437 0.033124 0.0098924 0.050829-0.0021983 0.021131-0.0098924 0.039978-0.0098924 0.062251 0 0.99202 2.3714 0.99202 5.2963 0.99202 2.9249 0 5.2963 0 5.2963-0.99202 0-0.022273-0.0076941-0.04112-0.0098924-0.062251 0.0010992-0.017704 0.0098924-0.033124 0.0098924-0.050829v-5.2079z" fill="#0097B8"/>
<path d="m13.296 7.7134c0-0.99144-2.3714-0.99144-5.2963-0.99144-0.9887 0-1.9109 0.0011422-2.7028 0.039406v-4.369c0-1.321 1.0305-2.3924 2.3022-2.3924h-2.5935c-1.2712 0-2.3022 1.0714-2.3022 2.3924v5.2079c0 0.017704 0.0087933 0.032553 0.0098924 0.050829-0.0021983 0.021131-0.0098924 0.039978-0.0098924 0.062251 0 0.31011 0.23137 0.52314 0.63916 0.66934 0.014839 0.0057111 0.032975 0.0091377 0.048363 0.014278 0.48913 0.16505 1.2107 0.24215 2.0846 0.27813 0.14949 0.00514 0.30447 0.01028 0.46275 0.014278 0.63367 0.01542 1.33 0.01542 2.0615 0.01542 2.9254 0 5.2963 0 5.2963-0.99144" fill="#00547A"/>
<path d="m14.824 24.378-1.2025-5.3267c-0.76721-3.3998-1.1591-6.8796-1.1734-10.371 0.0093429-0.037122 0.018136-0.073673 0.018136-0.11422 0-0.0057111-0.0021984-0.010851-0.0027479-0.016562 0.28193-0.13135 0.44351-0.30954 0.44351-0.55455 0-0.91549-2.1895-0.91549-4.8902-0.91549-2.7006 0-4.8896 0-4.8896 0.91549 0 0.24044 0.15443 0.41691 0.42647 0.54769-0.0038471 3.538-0.39735 7.064-1.175 10.508l-1.2025 5.3267c-0.78095 3.4621-1.1761 5.8647-1.1761 9.4204v24.664c0 2.5055 1.9554 4.5375 4.367 4.5375h7.266c2.4121 0 4.367-2.032 4.367-4.5375v-24.664c0-3.5557-0.3946-5.9584-1.1761-9.4204" fill="#ED985A"/>
<path d="m16 54.716v-0.49344h-11.925v-19.282c0-3.5563 0.3946-7.1006 1.1761-10.562l1.2019-5.3267c0.74798-3.313 1.1415-6.7008 1.1739-10.102 0.0032975-0.29812 0.16817-0.5654 0.42977-0.68761 0.43417-0.20331 1.1607-0.47402 2.0005-0.50543-0.61168-0.022273-1.3042-0.022844-2.0406-0.022844h-0.28688c0.49682-0.65278 2.7001-0.65335 0.28688-0.65335-2.7006 0-4.8896 0-4.8896 0.91549 0 0.24044 0.15498 0.41634 0.42702 0.54712-0.0043966 3.5386-0.39845 7.064-1.1756 10.509l-1.2025 5.3267c-0.7815 3.4615-1.1756 7.0058-1.1756 10.562v19.282h-5.4958e-4v0.49344h5.4958e-4v3.747c0 2.5055 1.9549 4.5375 4.3664 4.5375h4.0751c-2.4121 0-4.367-2.032-4.367-4.5375v-3.747h11.925z" fill="#CE643A"/>
</g>
<g transform="translate(249 58)">
<path d="m14.958 9.6296c1.7685 1.4158 2.5733 3.6936 2.6273 5.8931 0.017975 0.2774-0.014496 0.55086-0.019714 0.8277l-0.019715 0.41441-0.059144 0.40765c-0.042328 0.27064-0.076539 0.54578-0.12698 0.81473l-0.20062 0.79499-0.10205 0.3975-0.13684 0.38397-0.27658 0.7668-0.47025 1.3295c-0.46735 1.7789-0.49286 3.6694-0.040589 5.5328 0.42908 1.8629 1.2652 3.7004 2.3211 5.4054l0.0098572 0.017479c0.077119 0.12348 0.03595 0.28473-0.091615 0.35972-0.10379 0.060893-0.23136 0.04567-0.31775-0.027628-0.82801-0.70647-1.4971-1.5285-2.1037-2.4132-0.5897-0.89028-1.1162-1.8426-1.4658-2.8727-0.10205-0.25259-0.18265-0.51252-0.25165-0.77695-0.069581-0.26387-0.15598-0.52492-0.21106-0.79387-0.086976-0.54184-0.19888-1.0837-0.20816-1.639-0.10785-1.1085 0.066682-2.2265 0.31021-3.3153 0.1612-0.5221 0.35022-1.0882 0.5207-1.5669 0.1554-0.44993 0.36356-0.88972 0.48127-1.3464 0.3021-0.90269 0.47025-1.824 0.57462-2.7515 0.18381-1.8431-0.13568-3.7844-1.122-5.4725l-0.023773-0.040032c-0.07306-0.12517-0.027832-0.28417 0.10089-0.35521 0.098573-0.054691 0.2186-0.040595 0.3021 0.025372" fill="#DFF0FF"/>
<path d="m11.666 29.343c-0.89875-0.53845-1.5563-1.3098-2.0793-2.1741-0.50968-0.86886-0.84425-1.8544-0.93818-2.8648-0.074799-0.49955-0.068421-1.0121-0.030732-1.5127 0.029572-0.2509 0.053345-0.50124 0.090455-0.74932 0.042328-0.24752 0.12177-0.48715 0.18207-0.72846 0.10611-0.48827 0.33979-0.93595 0.53809-1.3836 0.21976-0.43922 0.51084-0.84292 0.79206-1.2359 0.092194-0.12855 0.27368-0.16013 0.40589-0.071042 0.094514 0.064276 0.138 0.17197 0.12177 0.27571l-0.0063782 0.042287c-0.07248 0.46403-0.20352 0.8931-0.27948 1.3301-0.056824 0.44148-0.16293 0.86322-0.17627 1.2962-0.10495 0.8542-0.042908 1.696 0.062623 2.5214 0.13104 0.82488 0.35254 1.6328 0.65348 2.434 0.28296 0.8074 0.67493 1.6046 1.0704 2.4182l0.016236 0.03383c0.070161 0.14434 0.0069581 0.31518-0.1409 0.3834-0.093354 0.043415-0.19946 0.033266-0.2818-0.015223" fill="#DFF0FF"/>
<path d="m18.727 24.731c0.87208-0.64896 1.6207-1.493 2.1153-2.407 0.512-0.91227 0.77872-1.9114 0.85352-2.9234 0.056824-1.0143-0.047547-2.0484-0.32123-3.0633-0.25977-1.016-0.62565-2.032-1.1034-2.9804-0.45285-0.96527-1.0449-1.8685-1.6676-2.8417-0.60419-0.97429-1.2646-2.0529-1.6166-3.2578-0.38385-1.1931-0.47083-2.4352-0.40995-3.6181 0.084656-1.1874 0.28934-2.3387 0.62797-3.4501 0.042328-0.13983 0.19309-0.21989 0.33747-0.17873 0.11713 0.03383 0.19309 0.13814 0.19425 0.25147 0.019135 2.2655 0.10611 4.5157 0.9376 6.4146 0.41806 0.94723 0.98399 1.8274 1.6566 2.7503 0.65522 0.92749 1.3313 1.9413 1.8787 3.0317 0.5236 1.1057 0.92542 2.2502 1.1782 3.4506 0.22498 1.2004 0.32297 2.4656 0.086396 3.7083-0.21048 1.2415-0.74219 2.4402-1.5279 3.4207-0.80482 0.96978-1.7987 1.7433-2.9897 2.1651-0.13974 0.049053-0.29398-0.020862-0.34442-0.15618-0.041748-0.10995-0.0017395-0.22948 0.088716-0.29714l0.026093-0.01917z" fill="#DFF0FF"/>
<path d="m27 33.143c0-1.5759-2.175-2.1008-5.4134-2.2756-1.6189-0.087393-4.8127-0.087393-4.4677-0.086829-0.42908 0.64389-0.35486 1.1801-0.20584 1.5285 5.3108 0.0016915 9.5163 0.069914 9.5163 1.7823 0 0.059766-0.018555 0.11389-0.028992 0.16971v0.056946c0.38211-0.30672 0.59955-0.689 0.59955-1.175" fill="#FFEACF"/>
<path d="m5.2339 33.639c-0.014496-0.039468-0.031311-0.078372-0.041748-0.11953 0.010437 0.041159 0.027832 0.080063 0.041748 0.11953" fill="#ACEDFB"/>
<path d="m5.4145 33.983c-0.030732-0.042287-0.057984-0.086265-0.084077-0.13137 0.025513 0.045106 0.053345 0.089084 0.084077 0.13137" fill="#ACEDFB"/>
<path d="m6.0596 34.056h0.024353c0.062043-1.7462 4.5889-1.7484 10.17-1.7484 0.22266 0 0.4401 0 0.65928 5.639e-4 -0.14902-0.34788-0.22324-0.88408 0.20642-1.5285-0.34558-5.638e-4 -0.69523-5.638e-4 -1.0489-5.638e-4 -6.0361 0-10.929 0-10.929 2.3636 0 0.13363 0.020294 0.25767 0.051026 0.37664 0.010437 0.041159 0.027252 0.079499 0.041748 0.11953 0.027252 0.073861 0.057984 0.1449 0.096833 0.21256 0.026093 0.045106 0.052765 0.089084 0.084077 0.13137 0.017395 0.024244 0.031891 0.05018 0.051606 0.073297h0.59318z" fill="#FFD9AF"/>
<path d="m2.5525 42.166v-4.8602c0-0.42343 0.3537-0.76737 0.78858-0.76737h2.7183v8.1935h-0.86802c-1.4548 0-2.6389-1.1508-2.6389-2.566m23.877-8.0751c0-1.7828-4.5558-1.7828-10.176-1.7828-5.581 0-10.108 0.0022553-10.17 1.7479h-0.024353-2.7183c-1.8422 0-3.341 1.4581-3.341 3.2499v4.8602c0 2.7836 2.3286 5.0479 5.1913 5.0479h0.95094c0.4517 2.7131 2.8644 4.7858 5.7816 4.7858h8.6124c3.239 0 5.8645-2.5524 5.8645-5.702v-12.037c0.010437-0.055819 0.028412-0.10995 0.028412-0.16971" fill="#ED985A"/>
<path d="m17.576 51.892c-1.5418-0.87844-2.4956-2.4791-2.5107-4.2169l-0.11945-13.598c-0.0069581-0.77357 0.50968-1.4597 1.2704-1.687l0.2731-0.081755h-0.23541c-5.5815 0-10.108 0.0022553-10.17 1.7479h-0.024353v5.638e-4h-0.60883l-1.5859 2.4825h2.1947v8.1935h-0.86802c-0.91093 0-1.7152-0.45162-2.1895-1.1361-0.074219 0.16069-0.16062 0.30616-0.26151 0.43076-0.080018-0.13475-0.1525-0.27458-0.2099-0.41836-0.10785-0.24414-0.17975-0.50068-0.21686-0.76116-0.043488-0.26951-0.030732-0.49899-0.031891-0.82882 0.011597-1.237 0.0092774-2.4735-0.042328-3.7105l-0.017975-0.46346-0.0092774-0.22779c0.0017395-0.05751-0.0075379-0.11615-5.7984e-4 -0.17422 0.013336-0.23117 0.082337-0.46346 0.207-0.67264 0.24411-0.42569 0.7103-0.73918 1.2664-0.82375l0.0081178-0.0011277c0.10959-0.016915 0.19946-0.10262 0.21396-0.21538 0.017975-0.13645-0.081757-0.26162-0.22208-0.27853-0.72074-0.087957-1.507 0.23117-1.9871 0.82882-0.24411 0.29488-0.40183 0.65968-0.47373 1.0397-0.021454 0.094723-0.023773 0.1917-0.03479 0.28868l-0.011017 0.23624-0.017975 0.46346c-0.051606 1.237-0.053925 2.4735-0.041748 3.7105-0.0023194 0.28699 0.013916 0.67941 0.090455 1.0194 0.07132 0.34844 0.18845 0.68787 0.3508 1.0036 0.094514 0.17873 0.20468 0.34732 0.32355 0.51026-0.49924 0.16013-0.89411 0.16802-1.202 0.10487 0.89469 1.5246 2.5791 2.5575 4.51 2.5575h0.95094c0.4517 2.7126 2.8644 4.7852 5.7816 4.7852h5.8419l-0.19019-0.10769z" fill="#CE643A"/>
</g>
<g transform="translate(0 110)">
<path d="m0.027396 172.81c-0.16963 0.98267 0.46483 1.9362 1.4501 2.149 1.0117 0.21886 2.0091-0.42287 2.2278-1.433l35.027-161.8h-10.671l-28.033 161.08z" fill="#00547A"/>
<path d="m243.23 172.81c-0.16963 0.98267 0.46538 1.9362 1.4501 2.149 1.0117 0.21886 2.0091-0.42287 2.2278-1.433l35.027-161.8h-10.671l-28.034 161.08z" fill="#00547A"/>
<polygon points="17.114 11.727 85.843 17.139 276.67 17.139 345.89 11.727 97.691 11.727" fill="#002F33"/>
<path d="m271.26 11.727-28.034 161.62c-0.10684 0.62072 0.10629 1.2293 0.52376 1.6486 0.50393-0.1109 0.9203-0.51037 1.026-1.05l30.402-154.97c0.41526-2.1154 2.295-3.6206 4.4462-3.561l1.5008 0.041933 0.80629-3.7381h-10.671z" fill="#002F33"/>
<path d="m28.061 11.727-28.033 161.62c-0.10684 0.62072 0.10574 1.2293 0.52321 1.6486 0.50393-0.1109 0.92029-0.51037 1.0266-1.05l30.401-154.97c0.41526-2.1154 2.295-3.6206 4.4462-3.561l1.5008 0.041933 0.80684-3.7381h-10.671z" fill="#002F33"/>
<path d="m99.931 0h-96.275c-1.5215 0-2.7543 1.2725-2.7543 2.843v1.3908c0 1.2356 0.76846 2.2767 1.8349 2.669l7.5783 3.552c1.7881 0.83812 3.7299 1.272 5.6943 1.272h1.1827 11.249 10.674 41.276 10.673 6.5664c2.6056 0 4.7496-2.035 5.0239-4.65h0.0314v-4.2338c0-1.5705-1.2328-2.843-2.7543-2.843" fill="#00547A"/>
<path d="m118.87 172.81-28.033-161.08h-10.671l35.026 161.8c0.21258 0.97387 1.1593 1.62 2.1523 1.4484 1.02-0.17762 1.7029-1.146 1.5255-2.1644" fill="#0097B8"/>
<path d="m324.27 11.727 35.026 161.8c0.21203 0.97442 1.1593 1.6206 2.1523 1.4484 1.0194-0.17707 1.7029-1.146 1.5255-2.1639l-28.034-161.08h-10.67z" fill="#0097B8"/>
<path d="m90.728 15.47 0.75612 0.019224-0.65541-3.7629h-10.662l34.999 161.6c0.063285 0.2922 0.19756 0.54869 0.37311 0.76784 0.47271-0.28011 0.74456-0.83155 0.63285-1.4011l-29.874-151.99c-0.54205-2.7588 1.6151-5.3095 4.4311-5.2387" fill="#00547A"/>
<path d="m360.27 172.7-29.874-151.99c-0.54205-2.7588 1.6151-5.3095 4.431-5.2387l0.75612 0.019224-0.65541-3.7629h-10.662l34.998 161.6c0.063835 0.29274 0.19811 0.54869 0.37366 0.76784 0.47271-0.28011 0.74511-0.83155 0.63285-1.4011" fill="#00547A"/>
<path d="m347.85 11.727c1.9726 0 3.922-0.43384 5.7182-1.272l7.6444-3.5685c0.093487-0.035822 0.182-0.079604 0.27106-0.12623l0.073572-0.034685c0.007192-0.0034116 0.008851-0.010235 0.015489-0.014784 0.85023-0.48502 1.4322-1.4061 1.4322-2.4768v-1.3908c0-1.5705-1.238-2.843-2.7659-2.843h-260.64c1.5279 0 2.7659 1.2725 2.7659 2.843v4.2338h-0.030978c-0.27604 2.615-2.429 4.65-5.0455 4.65h226.5 10.718 11.59 1.7597z" fill="#0097B8"/>
</g>
<g transform="translate(159 27)" fill="#008FAE">
<path d="m21.72 12.493c1.962-1.1651 3.2801-3.3194 3.2801-5.786 0-3.7041-2.9704-6.7069-6.6344-6.7069-2.544 0-4.7522 1.4481-5.8656 3.5725-1.1133-2.1244-3.3216-3.5725-5.8656-3.5725-3.664 0-6.6344 3.0028-6.6344 6.7069 0 2.4667 1.3181 4.621 3.2801 5.786-1.962 1.1651-3.2801 3.3194-3.2801 5.786 0 3.7041 2.9704 6.7069 6.6344 6.7069 2.544 0 4.7522-1.4481 5.8656-3.5725 1.1133 2.1244 3.3216 3.5725 5.8656 3.5725 3.664 0 6.6344-3.0028 6.6344-6.7069 0-2.4667-1.3181-4.621-3.2801-5.786"/>
</g>
</g>
</g>
</svg>
