<svg viewBox="0 0 420 420" xmlns="http://www.w3.org/2000/svg"><g fill="none" fill-rule="evenodd"><path d="m86.404 156.63.028.002c.335.002.662.04.977.109a4.68 4.68 0 0 1 1.124-.418c.34-.079.693-.124 1.056-.124a4.68 4.68 0 0 1 2.18.542c.007-.002.015-.002.022-.003a4.638 4.638 0 0 1 .983-.108c.14 0 .274.022.41.035.214.018.424.053.629.099a3.087 3.087 0 0 0 .885-2.161v-1.225c0-1.712-1.368-3.1-3.055-3.1-.112 0-.218.022-.327.033-.112.013-.226.02-.335.044A2.985 2.985 0 0 0 89.59 150a3.001 3.001 0 0 0-1.392.355 3.02 3.02 0 0 0-.662-.078c-.611 0-1.178.188-1.655.501a3.103 3.103 0 0 0-1.4 2.6v1.224c0 .844.336 1.603.875 2.16a4.618 4.618 0 0 1 1.05-.132" fill="#CE643A"/><path d="M91.316 150.311c-.112.013-.226.02-.334.044a3.094 3.094 0 0 1 1.662 2.745v1.503c0 .831-.326 1.58-.852 2.134a4.984 4.984 0 0 1 .982-.107c.14 0 .274.022.41.034.187-.358.294-.766.294-1.2v-2.605c0-1.295-.94-2.357-2.162-2.548M88.914 150.081a3.01 3.01 0 0 0-.718.274 3.084 3.084 0 0 0-1.428 1.56 3.088 3.088 0 0 0-.888-1.137 3.104 3.104 0 0 0-1.4 2.6v1.225c0 .842.336 1.602.875 2.16a4.618 4.618 0 0 1 1.05-.133l.027.002c.163-.218.299-.458.4-.717.143.31.345.583.578.826a4.649 4.649 0 0 1 1.124-.418c.34-.079.692-.124 1.055-.124.181 0 .359.013.534.034.002-.039.014-.073.014-.112v-4.261c0-.818-.51-1.509-1.223-1.779" fill="#AD330D"/><path d="M96.04 157.553h-.165c-.101 0-.2.009-.3.015a4.628 4.628 0 0 0-1.762-.805 4.852 4.852 0 0 0-.629-.098c-.136-.013-.27-.035-.411-.035a4.641 4.641 0 0 0-.982.108c-.008 0-.015.001-.023.003a4.675 4.675 0 0 0-1.646-.509 4.602 4.602 0 0 0-.533-.033c-.363 0-.716.045-1.056.124a4.661 4.661 0 0 0-1.124.418 4.702 4.702 0 0 0-.978-.109l-.027-.002c-.362 0-.71.054-1.05.133-.54.126-1.05.335-1.504.63a4.63 4.63 0 0 0-.247.175c-.1-.006-.2-.015-.3-.015h-.166a4.58 4.58 0 0 0-2.656.848 4.735 4.735 0 0 0-1.997 3.875v3.855c0 .762.182 1.48.499 2.117 2.297-.643 6.366-.644 11.006-.644h.448c1.26 0 2.475.002 3.619.019.53.007 1.046.018 1.543.033.557.017 1.09.04 1.6.07a31.58 31.58 0 0 1 1.593.131c.54.058 1.035.132 1.484.222a4.758 4.758 0 0 0 .417-1.948v-3.855c0-2.61-2.084-4.723-4.653-4.723" fill="#0097B8"/><path d="M95.584 157.575a4.816 4.816 0 0 1 1.925 3.861v4.61c0 .594-.116 1.156-.31 1.68a31.58 31.58 0 0 1 1.593.131c.002-.05.01-.097.01-.147v-6.497c0-1.888-1.41-3.44-3.218-3.638M92.223 156.665a4.678 4.678 0 0 0-.454.076 4.812 4.812 0 0 1 2.555 4.264v5.042c0 .553-.097 1.082-.267 1.576.53.008 1.046.018 1.543.033.005-.09.017-.18.017-.273v-6.751c0-2.023-1.476-3.69-3.394-3.967M88.534 156.323a4.656 4.656 0 0 0-1.124.418 4.794 4.794 0 0 0-2.192 2.418 4.814 4.814 0 0 0-1.367-1.766 4.888 4.888 0 0 0-1.738 2.022 4.718 4.718 0 0 0-1.631-1.014 4.734 4.734 0 0 0-1.997 3.874v3.855c0 .763.182 1.48.499 2.118 2.297-.643 6.366-.644 11.006-.644h.448v-8.522a2.94 2.94 0 0 0-1.904-2.759" fill="#00547A"/><path d="M102.973 170.027c0-.016.004-.031.004-.048 0-.987-1.01-1.564-2.7-1.9-.45-.09-.944-.163-1.484-.222a31.61 31.61 0 0 0-1.593-.13c-.51-.03-1.044-.054-1.6-.07a95.708 95.708 0 0 0-1.543-.034 257.812 257.812 0 0 0-3.62-.019h-.448c-4.64 0-8.709.001-11.006.644-1.253.351-1.981.892-1.981 1.73 0 .018.003.033.003.049H77l.002 16.73c0 .687.549 1.243 1.225 1.243h23.546c.676 0 1.225-.556 1.225-1.243l.002-16.73h-.027z" fill="#DFF0FF"/><path d="M102.969 186.23c-.12.559-.609.978-1.196.978H89.703a3.396 3.396 0 0 1-2.663-3.31l-.065-13.12c-.007-1.393.96-2.593 2.306-2.863l1.547-.31h-.837c-7.173 0-12.988 0-12.988 2.374 0 .017.007.032.008.048H77l.001 16.203v.527c0 .687.549 1.244 1.226 1.244h23.546c.676 0 1.224-.557 1.225-1.244v-.527h-.03z" fill="#B8DDFF"/><g><path d="m184.882 123.478-17.218 53.397c-2.253 6.989 3.023 14.125 10.445 14.125h45.857a.814.814 0 0 0 .819-.81v-1.126a.814.814 0 0 0-.819-.81h-17.434c-6.998 0-12.205-6.392-10.71-13.149l11.263-50.915a1.383 1.383 0 0 0-1.362-1.673H186.21c-.607 0-1.144.39-1.329.96" fill="#EFF7FF"/><path d="m196.237 173.228 10.848-49.037c.19-.86-.472-1.673-1.363-1.673H186.21c-.607 0-1.144.388-1.328.96l-16.042 49.75h27.398z" fill="#B8DDFF"/><path d="m184.901 123.449-17.305 53.314c-2.285 7.038 3.028 14.237 10.507 14.237h45.863c.452 0 .82-.362.82-.81v-1.125a.815.815 0 0 0-.82-.81h-46.012c-5.707 0-9.751-5.506-7.983-10.87l17.509-53.112c.285-.866-.367-1.755-1.289-1.755-.589 0-1.11.376-1.29.93" fill="#3CA1FF"/><path d="M262.24 77H136.761c-2.63 0-4.76 2.106-4.76 4.704v79.691c0 2.598 2.13 4.704 4.76 4.704H262.24c2.629 0 4.76-2.106 4.76-4.704v-79.69c0-2.6-2.131-4.705-4.76-4.705" fill="#DFF0FF"/><path d="M267 154.268H133.78V81.704c0-2.598 2.131-4.704 4.76-4.704h123.7c2.629 0 4.76 2.106 4.76 4.704v72.564z" fill="#1C417D"/><path d="M261.42 150.03H139.37a.58.58 0 0 1-.584-.577V83.015c0-.319.262-.578.584-.578h122.05c.322 0 .584.26.584.578v66.438a.58.58 0 0 1-.584.577" fill="#D5F8FF"/><path d="M138.544 77h-1.784c-2.63 0-4.76 2.106-4.76 4.704v79.691c0 2.598 2.13 4.704 4.76 4.704h1.785c-2.63 0-4.76-2.106-4.76-4.704v-79.69c0-2.6 2.13-4.705 4.76-4.705M201.174 78.906c-.564 0-1.02.452-1.02 1.009 0 .557.456 1.008 1.02 1.008.564 0 1.02-.451 1.02-1.008 0-.557-.456-1.01-1.02-1.01" fill="#3CA1FF"/></g><g><path d="M330.296 127.392c0-1.32-1.03-2.392-2.302-2.392h-5.988c-1.272 0-2.303 1.071-2.303 2.392v5.208c0 .018.009.033.01.05-.002.022-.01.04-.01.063 0 .992 2.372.992 5.297.992s5.296 0 5.296-.992c0-.022-.008-.04-.01-.062.001-.018.01-.033.01-.05v-5.209z" fill="#0097B8"/><path d="M330.296 132.713c0-.991-2.371-.991-5.296-.991-.989 0-1.911.001-2.703.04v-4.37c0-1.32 1.03-2.392 2.302-2.392h-2.593c-1.272 0-2.303 1.071-2.303 2.392v5.208c0 .018.01.033.01.051-.002.021-.01.04-.01.062 0 .31.232.523.64.67l.048.014c.49.165 1.21.242 2.085.278l.462.014c.634.016 1.33.016 2.062.016 2.925 0 5.296 0 5.296-.992" fill="#00547A"/><path d="m331.824 149.378-1.202-5.327a48.02 48.02 0 0 1-1.174-10.37.458.458 0 0 0 .018-.115c0-.006-.002-.01-.003-.016.282-.132.444-.31.444-.555 0-.916-2.19-.916-4.89-.916-2.7 0-4.89 0-4.89.916 0 .24.155.417.427.548a47.957 47.957 0 0 1-1.175 10.508l-1.203 5.326c-.78 3.462-1.176 5.865-1.176 9.42v24.665c0 2.505 1.955 4.537 4.367 4.537h7.266c2.412 0 4.367-2.032 4.367-4.537v-24.664c0-3.556-.395-5.959-1.176-9.42" fill="#ED985A"/><path d="M333 179.716v-.493h-11.925V159.94c0-3.557.395-7.101 1.176-10.562l1.202-5.327a47.954 47.954 0 0 0 1.174-10.102.76.76 0 0 1 .43-.688c.434-.203 1.16-.474 2-.505a58.535 58.535 0 0 0-2.04-.023h-.287c.497-.653 2.7-.653.287-.653-2.701 0-4.89 0-4.89.915 0 .24.155.416.427.547a48.033 48.033 0 0 1-1.176 10.51l-1.202 5.326A47.971 47.971 0 0 0 317 159.94v23.522c0 2.506 1.955 4.538 4.367 4.538h4.075c-2.412 0-4.367-2.032-4.367-4.538v-3.747H333z" fill="#CE643A"/></g><g><path d="M292.958 144.63c1.768 1.415 2.573 3.693 2.627 5.893.018.277-.014.55-.02.827l-.02.415-.058.407c-.043.271-.077.546-.127.815l-.2.795-.103.398-.137.384-.276.766-.47 1.33a11.26 11.26 0 0 0-.041 5.533c.429 1.863 1.265 3.7 2.32 5.405l.01.018a.258.258 0 0 1-.09.36.276.276 0 0 1-.319-.028c-.828-.707-1.497-1.529-2.103-2.413-.59-.89-1.116-1.843-1.466-2.873a6.342 6.342 0 0 1-.252-.777c-.07-.264-.156-.525-.21-.794-.088-.542-.2-1.084-.209-1.639-.108-1.108.067-2.226.31-3.315.161-.522.35-1.088.521-1.567.155-.45.364-.89.481-1.347.302-.902.47-1.824.575-2.751.184-1.843-.136-3.784-1.122-5.473l-.024-.04a.257.257 0 0 1 .101-.355.275.275 0 0 1 .302.026M289.666 164.343c-.899-.538-1.556-1.31-2.08-2.174a6.98 6.98 0 0 1-.937-2.865 6.805 6.805 0 0 1-.031-1.513c.03-.25.053-.5.09-.749.043-.247.122-.487.182-.728.106-.489.34-.936.538-1.384.22-.44.511-.843.792-1.236a.297.297 0 0 1 .406-.07.28.28 0 0 1 .122.275l-.006.042c-.073.464-.204.893-.28 1.33-.057.442-.163.863-.176 1.296-.105.855-.043 1.696.063 2.522.13.825.352 1.633.653 2.434.283.807.675 1.604 1.07 2.418l.017.034a.284.284 0 0 1-.141.383.305.305 0 0 1-.282-.015" fill="#DFF0FF"/><path d="M296.727 159.731c.872-.649 1.62-1.493 2.115-2.407.512-.912.779-1.911.854-2.923a9.683 9.683 0 0 0-.321-3.064 14.816 14.816 0 0 0-1.104-2.98c-.453-.965-1.045-1.869-1.667-2.842-.605-.974-1.265-2.053-1.617-3.258-.384-1.193-.47-2.435-.41-3.618.085-1.187.29-2.338.628-3.45a.273.273 0 0 1 .532.073c.019 2.265.106 4.516.937 6.415.418.947.984 1.827 1.657 2.75.655.927 1.331 1.941 1.879 3.032a15.5 15.5 0 0 1 1.178 3.45c.225 1.2.323 2.466.086 3.708a7.525 7.525 0 0 1-1.528 3.421c-.804.97-1.798 1.743-2.99 2.165a.271.271 0 0 1-.344-.156.257.257 0 0 1 .089-.297l.026-.02z" fill="#DFF0FF"/><path d="M305 168.143c0-1.576-2.175-2.1-5.413-2.276-1.62-.087-4.813-.087-4.468-.086-.43.643-.355 1.18-.206 1.528 5.31.002 9.516.07 9.516 1.782 0 .06-.018.114-.029.17v.057c.382-.307.6-.689.6-1.175" fill="#FFEACF"/><path d="M283.234 168.639c-.015-.04-.031-.078-.042-.12.01.042.028.08.042.12M283.414 168.983" fill="#ACEDFB"/><path d="M284.06 169.056h.024c.062-1.746 4.589-1.748 10.17-1.748h.66c-.15-.348-.224-.884.206-1.528h-1.05c-6.035 0-10.928 0-10.928 2.363 0 .133.02.257.05.376.011.041.028.08.043.12a1.388 1.388 0 0 0 .18.344c.018.024.032.05.052.073h.593z" fill="#FFD9AF"/><path d="M280.553 177.166v-4.86c0-.424.353-.768.788-.768h2.718v8.194h-.868c-1.454 0-2.639-1.15-2.639-2.566m23.877-8.075c0-1.783-4.555-1.783-10.176-1.783-5.58 0-10.108.002-10.17 1.748h-2.742c-1.842 0-3.341 1.458-3.341 3.25v4.86c0 2.784 2.328 5.048 5.191 5.048h.951c.452 2.713 2.864 4.786 5.782 4.786h8.612c3.239 0 5.865-2.553 5.865-5.702V169.26c.01-.056.028-.11.028-.17" fill="#ED985A"/><path d="M295.576 186.892c-1.542-.878-2.496-2.48-2.51-4.217l-.12-13.598a1.755 1.755 0 0 1 1.27-1.687l.273-.082h-.235c-5.582 0-10.108.003-10.17 1.748h-.634l-1.585 2.483h2.195v8.194h-.868c-.911 0-1.716-.452-2.19-1.136-.074.16-.16.306-.261.43a3.014 3.014 0 0 1-.21-.418c-.108-.244-.18-.5-.217-.761-.044-.27-.031-.499-.032-.829.011-1.237.01-2.473-.042-3.71l-.018-.464-.01-.228c.002-.057-.007-.116 0-.174.013-.231.082-.463.207-.672.244-.426.71-.74 1.266-.824l.008-.001c.11-.017.2-.103.214-.216a.25.25 0 0 0-.222-.278c-.72-.088-1.507.23-1.987.829-.244.294-.402.66-.474 1.04-.021.094-.023.191-.035.288l-.01.236-.018.464a71.977 71.977 0 0 0-.042 3.71c-.003.287.014.68.09 1.02.072.348.189.687.351 1.003.095.179.205.347.324.51-.5.16-.895.168-1.202.105a5.22 5.22 0 0 0 4.51 2.558h.95c.452 2.712 2.865 4.785 5.782 4.785h5.842l-.19-.108z" fill="#CE643A"/></g><g><path d="M29.027 359.81a1.874 1.874 0 0 0 3.678.716l35.027-161.8h-10.67l-28.034 161.08zM272.23 359.81a1.875 1.875 0 0 0 3.678.716l35.027-161.8h-10.671l-28.034 161.08z" fill="#00547A"/><path fill="#002F33" d="m46.114 198.727 68.729 5.412H305.67l69.22-5.412H126.691z"/><path d="m300.26 198.727-28.034 161.62c-.107.62.106 1.23.524 1.649.504-.111.92-.51 1.026-1.05l30.402-154.97a4.409 4.409 0 0 1 4.446-3.561l1.5.042.807-3.739H300.26zM57.061 198.727l-28.033 161.62c-.107.62.106 1.23.523 1.649.504-.111.92-.51 1.027-1.05l30.4-154.97a4.409 4.409 0 0 1 4.447-3.561l1.5.042.808-3.739H57.062z" fill="#002F33"/><path d="M128.931 187H32.656c-1.522 0-2.754 1.272-2.754 2.843v1.39c0 1.236.768 2.277 1.835 2.67l7.578 3.552a13.411 13.411 0 0 0 5.694 1.272H126.63c2.606 0 4.75-2.035 5.024-4.65h.032v-4.234c0-1.57-1.233-2.843-2.755-2.843" fill="#00547A"/><path d="m147.87 359.81-28.033-161.08h-10.671l35.026 161.8a1.878 1.878 0 0 0 2.152 1.448 1.872 1.872 0 0 0 1.526-2.164M353.27 198.727l35.026 161.8a1.877 1.877 0 0 0 2.152 1.448 1.872 1.872 0 0 0 1.526-2.163l-28.034-161.08h-10.67z" fill="#0097B8"/><path d="m119.728 202.47.756.02-.655-3.764h-10.662l34.999 161.6c.063.293.197.549.373.768a1.33 1.33 0 0 0 .633-1.4l-29.874-151.99c-.542-2.76 1.615-5.31 4.43-5.24M389.27 359.7l-29.874-151.99c-.542-2.759 1.615-5.31 4.431-5.239l.756.02-.655-3.763h-10.662l34.998 161.6c.064.292.198.548.373.767a1.33 1.33 0 0 0 .633-1.4" fill="#00547A"/><path d="M376.85 198.727c1.973 0 3.922-.434 5.718-1.272l7.645-3.568c.093-.036.182-.08.27-.127l.074-.034c.007-.004.01-.01.016-.015a2.843 2.843 0 0 0 1.432-2.477v-1.39c0-1.571-1.238-2.844-2.766-2.844h-260.64c1.528 0 2.766 1.273 2.766 2.843v4.234h-.031c-.276 2.615-2.43 4.65-5.046 4.65H376.856z" fill="#0097B8"/></g><g fill="#008FAE"><path d="M209.72 116.493a6.717 6.717 0 0 0 3.28-5.786c0-3.704-2.97-6.707-6.634-6.707-2.544 0-4.753 1.448-5.866 3.573-1.113-2.125-3.321-3.573-5.865-3.573-3.664 0-6.635 3.003-6.635 6.707a6.717 6.717 0 0 0 3.28 5.786 6.717 6.717 0 0 0-3.28 5.786c0 3.704 2.97 6.707 6.635 6.707 2.544 0 4.752-1.448 5.865-3.573 1.113 2.125 3.322 3.573 5.866 3.573 3.664 0 6.634-3.003 6.634-6.707a6.717 6.717 0 0 0-3.28-5.786"/></g></g></svg>